%TF.GenerationSoftware,KiCad,Pcbnew,9.0.3*%
%TF.CreationDate,2025-08-08T13:41:27-04:00*%
%TF.ProjectId,flowstick_led_strip_panel_6p,666c6f77-7374-4696-936b-5f6c65645f73,rev?*%
%TF.SameCoordinates,Original*%
%TF.FileFunction,Paste,Top*%
%TF.FilePolarity,Positive*%
%FSLAX46Y46*%
G04 Gerber Fmt 4.6, Leading zero omitted, Abs format (unit mm)*
G04 Created by KiCad (PCBNEW 9.0.3) date 2025-08-08 13:41:27*
%MOMM*%
%LPD*%
G01*
G04 APERTURE LIST*
%ADD10R,0.500000X0.800000*%
%ADD11R,0.300000X0.800000*%
G04 APERTURE END LIST*
D10*
%TO.C,D78*%
X80600000Y-35450000D03*
D11*
X79700000Y-35450000D03*
D10*
X78800000Y-35450000D03*
X78800000Y-37150000D03*
D11*
X79700000Y-37150000D03*
D10*
X80600000Y-37150000D03*
%TD*%
%TO.C,D70*%
X113000000Y-60250000D03*
D11*
X112100000Y-60250000D03*
D10*
X111200000Y-60250000D03*
X111200000Y-61950000D03*
D11*
X112100000Y-61950000D03*
D10*
X113000000Y-61950000D03*
%TD*%
%TO.C,D21*%
X129200000Y-88150000D03*
D11*
X128300000Y-88150000D03*
D10*
X127400000Y-88150000D03*
X127400000Y-89850000D03*
D11*
X128300000Y-89850000D03*
D10*
X129200000Y-89850000D03*
%TD*%
%TO.C,D72*%
X91400000Y-54050000D03*
D11*
X90500000Y-54050000D03*
D10*
X89600000Y-54050000D03*
X89600000Y-55750000D03*
D11*
X90500000Y-55750000D03*
D10*
X91400000Y-55750000D03*
%TD*%
%TO.C,D40*%
X75200000Y-29250000D03*
D11*
X74300000Y-29250000D03*
D10*
X73400000Y-29250000D03*
X73400000Y-30950000D03*
D11*
X74300000Y-30950000D03*
D10*
X75200000Y-30950000D03*
%TD*%
%TO.C,D77*%
X123800000Y-38550000D03*
D11*
X122900000Y-38550000D03*
D10*
X122000000Y-38550000D03*
X122000000Y-40250000D03*
D11*
X122900000Y-40250000D03*
D10*
X123800000Y-40250000D03*
%TD*%
%TO.C,D26*%
X64400000Y-72650000D03*
D11*
X63500000Y-72650000D03*
D10*
X62600000Y-72650000D03*
X62600000Y-74350000D03*
D11*
X63500000Y-74350000D03*
D10*
X64400000Y-74350000D03*
%TD*%
%TO.C,D6*%
X86000000Y-134650000D03*
D11*
X85100000Y-134650000D03*
D10*
X84200000Y-134650000D03*
X84200000Y-136350000D03*
D11*
X85100000Y-136350000D03*
D10*
X86000000Y-136350000D03*
%TD*%
%TO.C,D79*%
X123800000Y-32350000D03*
D11*
X122900000Y-32350000D03*
D10*
X122000000Y-32350000D03*
X122000000Y-34050000D03*
D11*
X122900000Y-34050000D03*
D10*
X123800000Y-34050000D03*
%TD*%
%TO.C,D44*%
X134590000Y-140850000D03*
D11*
X133690000Y-140850000D03*
D10*
X132790000Y-140850000D03*
X132790000Y-142550000D03*
D11*
X133690000Y-142550000D03*
D10*
X134590000Y-142550000D03*
%TD*%
%TO.C,D62*%
X113000000Y-85050000D03*
D11*
X112100000Y-85050000D03*
D10*
X111200000Y-85050000D03*
X111200000Y-86750000D03*
D11*
X112100000Y-86750000D03*
D10*
X113000000Y-86750000D03*
%TD*%
%TO.C,D17*%
X75200000Y-100550000D03*
D11*
X74300000Y-100550000D03*
D10*
X73400000Y-100550000D03*
X73400000Y-102250000D03*
D11*
X74300000Y-102250000D03*
D10*
X75200000Y-102250000D03*
%TD*%
%TO.C,D68*%
X80600000Y-66450000D03*
D11*
X79700000Y-66450000D03*
D10*
X78800000Y-66450000D03*
X78800000Y-68150000D03*
D11*
X79700000Y-68150000D03*
D10*
X80600000Y-68150000D03*
%TD*%
%TO.C,D10*%
X118400000Y-122250000D03*
D11*
X117500000Y-122250000D03*
D10*
X116600000Y-122250000D03*
X116600000Y-123950000D03*
D11*
X117500000Y-123950000D03*
D10*
X118400000Y-123950000D03*
%TD*%
%TO.C,D23*%
X118400000Y-81950000D03*
D11*
X117500000Y-81950000D03*
D10*
X116600000Y-81950000D03*
X116600000Y-83650000D03*
D11*
X117500000Y-83650000D03*
D10*
X118400000Y-83650000D03*
%TD*%
%TO.C,D9*%
X75200000Y-125350000D03*
D11*
X74300000Y-125350000D03*
D10*
X73400000Y-125350000D03*
X73400000Y-127050000D03*
D11*
X74300000Y-127050000D03*
D10*
X75200000Y-127050000D03*
%TD*%
%TO.C,D28*%
X96800000Y-66450000D03*
D11*
X95900000Y-66450000D03*
D10*
X95000000Y-66450000D03*
X95000000Y-68150000D03*
D11*
X95900000Y-68150000D03*
D10*
X96800000Y-68150000D03*
%TD*%
%TO.C,D55*%
X80600000Y-106750000D03*
D11*
X79700000Y-106750000D03*
D10*
X78800000Y-106750000D03*
X78800000Y-108450000D03*
D11*
X79700000Y-108450000D03*
D10*
X80600000Y-108450000D03*
%TD*%
%TO.C,D51*%
X113000000Y-119150000D03*
D11*
X112100000Y-119150000D03*
D10*
X111200000Y-119150000D03*
X111200000Y-120850000D03*
D11*
X112100000Y-120850000D03*
D10*
X113000000Y-120850000D03*
%TD*%
%TO.C,D24*%
X75200000Y-78850000D03*
D11*
X74300000Y-78850000D03*
D10*
X73400000Y-78850000D03*
X73400000Y-80550000D03*
D11*
X74300000Y-80550000D03*
D10*
X75200000Y-80550000D03*
%TD*%
%TO.C,D62*%
X134600000Y-85050000D03*
D11*
X133700000Y-85050000D03*
D10*
X132800000Y-85050000D03*
X132800000Y-86750000D03*
D11*
X133700000Y-86750000D03*
D10*
X134600000Y-86750000D03*
%TD*%
%TO.C,D10*%
X75200000Y-122250000D03*
D11*
X74300000Y-122250000D03*
D10*
X73400000Y-122250000D03*
X73400000Y-123950000D03*
D11*
X74300000Y-123950000D03*
D10*
X75200000Y-123950000D03*
%TD*%
%TO.C,D60*%
X134600000Y-91250000D03*
D11*
X133700000Y-91250000D03*
D10*
X132800000Y-91250000D03*
X132800000Y-92950000D03*
D11*
X133700000Y-92950000D03*
D10*
X134600000Y-92950000D03*
%TD*%
%TO.C,D47*%
X102200000Y-131550000D03*
D11*
X101300000Y-131550000D03*
D10*
X100400000Y-131550000D03*
X100400000Y-133250000D03*
D11*
X101300000Y-133250000D03*
D10*
X102200000Y-133250000D03*
%TD*%
%TO.C,D32*%
X53600000Y-54050000D03*
D11*
X52700000Y-54050000D03*
D10*
X51800000Y-54050000D03*
X51800000Y-55750000D03*
D11*
X52700000Y-55750000D03*
D10*
X53600000Y-55750000D03*
%TD*%
%TO.C,D52*%
X113000000Y-116050000D03*
D11*
X112100000Y-116050000D03*
D10*
X111200000Y-116050000D03*
X111200000Y-117750000D03*
D11*
X112100000Y-117750000D03*
D10*
X113000000Y-117750000D03*
%TD*%
%TO.C,D59*%
X69800000Y-94350000D03*
D11*
X68900000Y-94350000D03*
D10*
X68000000Y-94350000D03*
X68000000Y-96050000D03*
D11*
X68900000Y-96050000D03*
D10*
X69800000Y-96050000D03*
%TD*%
%TO.C,D31*%
X86000000Y-57150000D03*
D11*
X85100000Y-57150000D03*
D10*
X84200000Y-57150000D03*
X84200000Y-58850000D03*
D11*
X85100000Y-58850000D03*
D10*
X86000000Y-58850000D03*
%TD*%
%TO.C,D19*%
X53600000Y-94350000D03*
D11*
X52700000Y-94350000D03*
D10*
X51800000Y-94350000D03*
X51800000Y-96050000D03*
D11*
X52700000Y-96050000D03*
D10*
X53600000Y-96050000D03*
%TD*%
%TO.C,D25*%
X86000000Y-75750000D03*
D11*
X85100000Y-75750000D03*
D10*
X84200000Y-75750000D03*
X84200000Y-77450000D03*
D11*
X85100000Y-77450000D03*
D10*
X86000000Y-77450000D03*
%TD*%
%TO.C,D65*%
X113000000Y-75750000D03*
D11*
X112100000Y-75750000D03*
D10*
X111200000Y-75750000D03*
X111200000Y-77450000D03*
D11*
X112100000Y-77450000D03*
D10*
X113000000Y-77450000D03*
%TD*%
%TO.C,D30*%
X96800000Y-60250000D03*
D11*
X95900000Y-60250000D03*
D10*
X95000000Y-60250000D03*
X95000000Y-61950000D03*
D11*
X95900000Y-61950000D03*
D10*
X96800000Y-61950000D03*
%TD*%
%TO.C,D37*%
X86000000Y-38550000D03*
D11*
X85100000Y-38550000D03*
D10*
X84200000Y-38550000D03*
X84200000Y-40250000D03*
D11*
X85100000Y-40250000D03*
D10*
X86000000Y-40250000D03*
%TD*%
%TO.C,D35*%
X118400000Y-44750000D03*
D11*
X117500000Y-44750000D03*
D10*
X116600000Y-44750000D03*
X116600000Y-46450000D03*
D11*
X117500000Y-46450000D03*
D10*
X118400000Y-46450000D03*
%TD*%
%TO.C,D44*%
X91390000Y-140850000D03*
D11*
X90490000Y-140850000D03*
D10*
X89590000Y-140850000D03*
X89590000Y-142550000D03*
D11*
X90490000Y-142550000D03*
D10*
X91390000Y-142550000D03*
%TD*%
%TO.C,D57*%
X113000000Y-100550000D03*
D11*
X112100000Y-100550000D03*
D10*
X111200000Y-100550000D03*
X111200000Y-102250000D03*
D11*
X112100000Y-102250000D03*
D10*
X113000000Y-102250000D03*
%TD*%
%TO.C,D26*%
X107600000Y-72650000D03*
D11*
X106700000Y-72650000D03*
D10*
X105800000Y-72650000D03*
X105800000Y-74350000D03*
D11*
X106700000Y-74350000D03*
D10*
X107600000Y-74350000D03*
%TD*%
%TO.C,D34*%
X53600000Y-47850000D03*
D11*
X52700000Y-47850000D03*
D10*
X51800000Y-47850000D03*
X51800000Y-49550000D03*
D11*
X52700000Y-49550000D03*
D10*
X53600000Y-49550000D03*
%TD*%
%TO.C,D80*%
X59000000Y-29250000D03*
D11*
X58100000Y-29250000D03*
D10*
X57200000Y-29250000D03*
X57200000Y-30950000D03*
D11*
X58100000Y-30950000D03*
D10*
X59000000Y-30950000D03*
%TD*%
%TO.C,D14*%
X96800000Y-109850000D03*
D11*
X95900000Y-109850000D03*
D10*
X95000000Y-109850000D03*
X95000000Y-111550000D03*
D11*
X95900000Y-111550000D03*
D10*
X96800000Y-111550000D03*
%TD*%
%TO.C,D63*%
X59000000Y-81950000D03*
D11*
X58100000Y-81950000D03*
D10*
X57200000Y-81950000D03*
X57200000Y-83650000D03*
D11*
X58100000Y-83650000D03*
D10*
X59000000Y-83650000D03*
%TD*%
%TO.C,D80*%
X80600000Y-29250000D03*
D11*
X79700000Y-29250000D03*
D10*
X78800000Y-29250000D03*
X78800000Y-30950000D03*
D11*
X79700000Y-30950000D03*
D10*
X80600000Y-30950000D03*
%TD*%
%TO.C,D31*%
X107600000Y-57150000D03*
D11*
X106700000Y-57150000D03*
D10*
X105800000Y-57150000D03*
X105800000Y-58850000D03*
D11*
X106700000Y-58850000D03*
D10*
X107600000Y-58850000D03*
%TD*%
%TO.C,D65*%
X80600000Y-75750000D03*
D11*
X79700000Y-75750000D03*
D10*
X78800000Y-75750000D03*
X78800000Y-77450000D03*
D11*
X79700000Y-77450000D03*
D10*
X80600000Y-77450000D03*
%TD*%
%TO.C,D45*%
X59000000Y-137750000D03*
D11*
X58100000Y-137750000D03*
D10*
X57200000Y-137750000D03*
X57200000Y-139450000D03*
D11*
X58100000Y-139450000D03*
D10*
X59000000Y-139450000D03*
%TD*%
%TO.C,D37*%
X64400000Y-38550000D03*
D11*
X63500000Y-38550000D03*
D10*
X62600000Y-38550000D03*
X62600000Y-40250000D03*
D11*
X63500000Y-40250000D03*
D10*
X64400000Y-40250000D03*
%TD*%
%TO.C,D62*%
X80600000Y-85050000D03*
D11*
X79700000Y-85050000D03*
D10*
X78800000Y-85050000D03*
X78800000Y-86750000D03*
D11*
X79700000Y-86750000D03*
D10*
X80600000Y-86750000D03*
%TD*%
%TO.C,D29*%
X118400000Y-63350000D03*
D11*
X117500000Y-63350000D03*
D10*
X116600000Y-63350000D03*
X116600000Y-65050000D03*
D11*
X117500000Y-65050000D03*
D10*
X118400000Y-65050000D03*
%TD*%
%TO.C,D31*%
X53600000Y-57150000D03*
D11*
X52700000Y-57150000D03*
D10*
X51800000Y-57150000D03*
X51800000Y-58850000D03*
D11*
X52700000Y-58850000D03*
D10*
X53600000Y-58850000D03*
%TD*%
%TO.C,D42*%
X58990000Y-147050000D03*
D11*
X58090000Y-147050000D03*
D10*
X57190000Y-147050000D03*
X57190000Y-148750000D03*
D11*
X58090000Y-148750000D03*
D10*
X58990000Y-148750000D03*
%TD*%
%TO.C,D66*%
X113000000Y-72650000D03*
D11*
X112100000Y-72650000D03*
D10*
X111200000Y-72650000D03*
X111200000Y-74350000D03*
D11*
X112100000Y-74350000D03*
D10*
X113000000Y-74350000D03*
%TD*%
%TO.C,D25*%
X53600000Y-75750000D03*
D11*
X52700000Y-75750000D03*
D10*
X51800000Y-75750000D03*
X51800000Y-77450000D03*
D11*
X52700000Y-77450000D03*
D10*
X53600000Y-77450000D03*
%TD*%
%TO.C,D24*%
X129200000Y-78850000D03*
D11*
X128300000Y-78850000D03*
D10*
X127400000Y-78850000D03*
X127400000Y-80550000D03*
D11*
X128300000Y-80550000D03*
D10*
X129200000Y-80550000D03*
%TD*%
%TO.C,D80*%
X102200000Y-29250000D03*
D11*
X101300000Y-29250000D03*
D10*
X100400000Y-29250000D03*
X100400000Y-30950000D03*
D11*
X101300000Y-30950000D03*
D10*
X102200000Y-30950000D03*
%TD*%
%TO.C,D5*%
X86000000Y-137750000D03*
D11*
X85100000Y-137750000D03*
D10*
X84200000Y-137750000D03*
X84200000Y-139450000D03*
D11*
X85100000Y-139450000D03*
D10*
X86000000Y-139450000D03*
%TD*%
%TO.C,D53*%
X69800000Y-112950000D03*
D11*
X68900000Y-112950000D03*
D10*
X68000000Y-112950000D03*
X68000000Y-114650000D03*
D11*
X68900000Y-114650000D03*
D10*
X69800000Y-114650000D03*
%TD*%
%TO.C,D19*%
X96800000Y-94350000D03*
D11*
X95900000Y-94350000D03*
D10*
X95000000Y-94350000D03*
X95000000Y-96050000D03*
D11*
X95900000Y-96050000D03*
D10*
X96800000Y-96050000D03*
%TD*%
%TO.C,D38*%
X86000000Y-35450000D03*
D11*
X85100000Y-35450000D03*
D10*
X84200000Y-35450000D03*
X84200000Y-37150000D03*
D11*
X85100000Y-37150000D03*
D10*
X86000000Y-37150000D03*
%TD*%
%TO.C,D34*%
X64400000Y-47850000D03*
D11*
X63500000Y-47850000D03*
D10*
X62600000Y-47850000D03*
X62600000Y-49550000D03*
D11*
X63500000Y-49550000D03*
D10*
X64400000Y-49550000D03*
%TD*%
%TO.C,D65*%
X134600000Y-75750000D03*
D11*
X133700000Y-75750000D03*
D10*
X132800000Y-75750000D03*
X132800000Y-77450000D03*
D11*
X133700000Y-77450000D03*
D10*
X134600000Y-77450000D03*
%TD*%
%TO.C,D39*%
X129200000Y-32350000D03*
D11*
X128300000Y-32350000D03*
D10*
X127400000Y-32350000D03*
X127400000Y-34050000D03*
D11*
X128300000Y-34050000D03*
D10*
X129200000Y-34050000D03*
%TD*%
%TO.C,D64*%
X123800000Y-78850000D03*
D11*
X122900000Y-78850000D03*
D10*
X122000000Y-78850000D03*
X122000000Y-80550000D03*
D11*
X122900000Y-80550000D03*
D10*
X123800000Y-80550000D03*
%TD*%
%TO.C,D66*%
X80600000Y-72650000D03*
D11*
X79700000Y-72650000D03*
D10*
X78800000Y-72650000D03*
X78800000Y-74350000D03*
D11*
X79700000Y-74350000D03*
D10*
X80600000Y-74350000D03*
%TD*%
%TO.C,D26*%
X118400000Y-72650000D03*
D11*
X117500000Y-72650000D03*
D10*
X116600000Y-72650000D03*
X116600000Y-74350000D03*
D11*
X117500000Y-74350000D03*
D10*
X118400000Y-74350000D03*
%TD*%
%TO.C,D7*%
X64400000Y-131550000D03*
D11*
X63500000Y-131550000D03*
D10*
X62600000Y-131550000D03*
X62600000Y-133250000D03*
D11*
X63500000Y-133250000D03*
D10*
X64400000Y-133250000D03*
%TD*%
%TO.C,D72*%
X102200000Y-54050000D03*
D11*
X101300000Y-54050000D03*
D10*
X100400000Y-54050000D03*
X100400000Y-55750000D03*
D11*
X101300000Y-55750000D03*
D10*
X102200000Y-55750000D03*
%TD*%
%TO.C,D35*%
X129200000Y-44750000D03*
D11*
X128300000Y-44750000D03*
D10*
X127400000Y-44750000D03*
X127400000Y-46450000D03*
D11*
X128300000Y-46450000D03*
D10*
X129200000Y-46450000D03*
%TD*%
%TO.C,D21*%
X118400000Y-88150000D03*
D11*
X117500000Y-88150000D03*
D10*
X116600000Y-88150000D03*
X116600000Y-89850000D03*
D11*
X117500000Y-89850000D03*
D10*
X118400000Y-89850000D03*
%TD*%
%TO.C,D26*%
X75200000Y-72650000D03*
D11*
X74300000Y-72650000D03*
D10*
X73400000Y-72650000D03*
X73400000Y-74350000D03*
D11*
X74300000Y-74350000D03*
D10*
X75200000Y-74350000D03*
%TD*%
%TO.C,D4*%
X75200000Y-140850000D03*
D11*
X74300000Y-140850000D03*
D10*
X73400000Y-140850000D03*
X73400000Y-142550000D03*
D11*
X74300000Y-142550000D03*
D10*
X75200000Y-142550000D03*
%TD*%
%TO.C,D54*%
X123800000Y-109850000D03*
D11*
X122900000Y-109850000D03*
D10*
X122000000Y-109850000D03*
X122000000Y-111550000D03*
D11*
X122900000Y-111550000D03*
D10*
X123800000Y-111550000D03*
%TD*%
%TO.C,D55*%
X91400000Y-106750000D03*
D11*
X90500000Y-106750000D03*
D10*
X89600000Y-106750000D03*
X89600000Y-108450000D03*
D11*
X90500000Y-108450000D03*
D10*
X91400000Y-108450000D03*
%TD*%
%TO.C,D42*%
X80590000Y-147050000D03*
D11*
X79690000Y-147050000D03*
D10*
X78790000Y-147050000D03*
X78790000Y-148750000D03*
D11*
X79690000Y-148750000D03*
D10*
X80590000Y-148750000D03*
%TD*%
%TO.C,D63*%
X113000000Y-81950000D03*
D11*
X112100000Y-81950000D03*
D10*
X111200000Y-81950000D03*
X111200000Y-83650000D03*
D11*
X112100000Y-83650000D03*
D10*
X113000000Y-83650000D03*
%TD*%
%TO.C,D13*%
X96790000Y-112950000D03*
D11*
X95890000Y-112950000D03*
D10*
X94990000Y-112950000D03*
X94990000Y-114650000D03*
D11*
X95890000Y-114650000D03*
D10*
X96790000Y-114650000D03*
%TD*%
%TO.C,D18*%
X96800000Y-97450000D03*
D11*
X95900000Y-97450000D03*
D10*
X95000000Y-97450000D03*
X95000000Y-99150000D03*
D11*
X95900000Y-99150000D03*
D10*
X96800000Y-99150000D03*
%TD*%
%TO.C,D63*%
X123800000Y-81950000D03*
D11*
X122900000Y-81950000D03*
D10*
X122000000Y-81950000D03*
X122000000Y-83650000D03*
D11*
X122900000Y-83650000D03*
D10*
X123800000Y-83650000D03*
%TD*%
%TO.C,D51*%
X102200000Y-119150000D03*
D11*
X101300000Y-119150000D03*
D10*
X100400000Y-119150000D03*
X100400000Y-120850000D03*
D11*
X101300000Y-120850000D03*
D10*
X102200000Y-120850000D03*
%TD*%
%TO.C,D6*%
X53600000Y-134650000D03*
D11*
X52700000Y-134650000D03*
D10*
X51800000Y-134650000D03*
X51800000Y-136350000D03*
D11*
X52700000Y-136350000D03*
D10*
X53600000Y-136350000D03*
%TD*%
%TO.C,D41*%
X102200000Y-150150000D03*
D11*
X101300000Y-150150000D03*
D10*
X100400000Y-150150000D03*
X100400000Y-151850000D03*
D11*
X101300000Y-151850000D03*
D10*
X102200000Y-151850000D03*
%TD*%
%TO.C,D20*%
X96800000Y-91250000D03*
D11*
X95900000Y-91250000D03*
D10*
X95000000Y-91250000D03*
X95000000Y-92950000D03*
D11*
X95900000Y-92950000D03*
D10*
X96800000Y-92950000D03*
%TD*%
%TO.C,D74*%
X59000000Y-47850000D03*
D11*
X58100000Y-47850000D03*
D10*
X57200000Y-47850000D03*
X57200000Y-49550000D03*
D11*
X58100000Y-49550000D03*
D10*
X59000000Y-49550000D03*
%TD*%
%TO.C,D2*%
X129200000Y-147050000D03*
D11*
X128300000Y-147050000D03*
D10*
X127400000Y-147050000D03*
X127400000Y-148750000D03*
D11*
X128300000Y-148750000D03*
D10*
X129200000Y-148750000D03*
%TD*%
%TO.C,D75*%
X134600000Y-44750000D03*
D11*
X133700000Y-44750000D03*
D10*
X132800000Y-44750000D03*
X132800000Y-46450000D03*
D11*
X133700000Y-46450000D03*
D10*
X134600000Y-46450000D03*
%TD*%
%TO.C,D9*%
X53600000Y-125350000D03*
D11*
X52700000Y-125350000D03*
D10*
X51800000Y-125350000D03*
X51800000Y-127050000D03*
D11*
X52700000Y-127050000D03*
D10*
X53600000Y-127050000D03*
%TD*%
%TO.C,D33*%
X53600000Y-50950000D03*
D11*
X52700000Y-50950000D03*
D10*
X51800000Y-50950000D03*
X51800000Y-52650000D03*
D11*
X52700000Y-52650000D03*
D10*
X53600000Y-52650000D03*
%TD*%
%TO.C,D75*%
X113000000Y-44750000D03*
D11*
X112100000Y-44750000D03*
D10*
X111200000Y-44750000D03*
X111200000Y-46450000D03*
D11*
X112100000Y-46450000D03*
D10*
X113000000Y-46450000D03*
%TD*%
%TO.C,D44*%
X58990000Y-140850000D03*
D11*
X58090000Y-140850000D03*
D10*
X57190000Y-140850000D03*
X57190000Y-142550000D03*
D11*
X58090000Y-142550000D03*
D10*
X58990000Y-142550000D03*
%TD*%
%TO.C,D56*%
X102200000Y-103650000D03*
D11*
X101300000Y-103650000D03*
D10*
X100400000Y-103650000D03*
X100400000Y-105350000D03*
D11*
X101300000Y-105350000D03*
D10*
X102200000Y-105350000D03*
%TD*%
%TO.C,D62*%
X123800000Y-85050000D03*
D11*
X122900000Y-85050000D03*
D10*
X122000000Y-85050000D03*
X122000000Y-86750000D03*
D11*
X122900000Y-86750000D03*
D10*
X123800000Y-86750000D03*
%TD*%
%TO.C,D48*%
X69800000Y-128450000D03*
D11*
X68900000Y-128450000D03*
D10*
X68000000Y-128450000D03*
X68000000Y-130150000D03*
D11*
X68900000Y-130150000D03*
D10*
X69800000Y-130150000D03*
%TD*%
%TO.C,D8*%
X86000000Y-128450000D03*
D11*
X85100000Y-128450000D03*
D10*
X84200000Y-128450000D03*
X84200000Y-130150000D03*
D11*
X85100000Y-130150000D03*
D10*
X86000000Y-130150000D03*
%TD*%
%TO.C,D13*%
X64390000Y-112950000D03*
D11*
X63490000Y-112950000D03*
D10*
X62590000Y-112950000D03*
X62590000Y-114650000D03*
D11*
X63490000Y-114650000D03*
D10*
X64390000Y-114650000D03*
%TD*%
%TO.C,D22*%
X118400000Y-85050000D03*
D11*
X117500000Y-85050000D03*
D10*
X116600000Y-85050000D03*
X116600000Y-86750000D03*
D11*
X117500000Y-86750000D03*
D10*
X118400000Y-86750000D03*
%TD*%
%TO.C,D43*%
X134600000Y-143950000D03*
D11*
X133700000Y-143950000D03*
D10*
X132800000Y-143950000D03*
X132800000Y-145650000D03*
D11*
X133700000Y-145650000D03*
D10*
X134600000Y-145650000D03*
%TD*%
%TO.C,D16*%
X53600000Y-103650000D03*
D11*
X52700000Y-103650000D03*
D10*
X51800000Y-103650000D03*
X51800000Y-105350000D03*
D11*
X52700000Y-105350000D03*
D10*
X53600000Y-105350000D03*
%TD*%
%TO.C,D20*%
X86000000Y-91250000D03*
D11*
X85100000Y-91250000D03*
D10*
X84200000Y-91250000D03*
X84200000Y-92950000D03*
D11*
X85100000Y-92950000D03*
D10*
X86000000Y-92950000D03*
%TD*%
%TO.C,D18*%
X86000000Y-97450000D03*
D11*
X85100000Y-97450000D03*
D10*
X84200000Y-97450000D03*
X84200000Y-99150000D03*
D11*
X85100000Y-99150000D03*
D10*
X86000000Y-99150000D03*
%TD*%
%TO.C,D38*%
X107600000Y-35450000D03*
D11*
X106700000Y-35450000D03*
D10*
X105800000Y-35450000D03*
X105800000Y-37150000D03*
D11*
X106700000Y-37150000D03*
D10*
X107600000Y-37150000D03*
%TD*%
%TO.C,D43*%
X123800000Y-143950000D03*
D11*
X122900000Y-143950000D03*
D10*
X122000000Y-143950000D03*
X122000000Y-145650000D03*
D11*
X122900000Y-145650000D03*
D10*
X123800000Y-145650000D03*
%TD*%
%TO.C,D60*%
X113000000Y-91250000D03*
D11*
X112100000Y-91250000D03*
D10*
X111200000Y-91250000D03*
X111200000Y-92950000D03*
D11*
X112100000Y-92950000D03*
D10*
X113000000Y-92950000D03*
%TD*%
%TO.C,D44*%
X123790000Y-140850000D03*
D11*
X122890000Y-140850000D03*
D10*
X121990000Y-140850000D03*
X121990000Y-142550000D03*
D11*
X122890000Y-142550000D03*
D10*
X123790000Y-142550000D03*
%TD*%
%TO.C,D71*%
X123800000Y-57150000D03*
D11*
X122900000Y-57150000D03*
D10*
X122000000Y-57150000D03*
X122000000Y-58850000D03*
D11*
X122900000Y-58850000D03*
D10*
X123800000Y-58850000D03*
%TD*%
%TO.C,D61*%
X59000000Y-88150000D03*
D11*
X58100000Y-88150000D03*
D10*
X57200000Y-88150000D03*
X57200000Y-89850000D03*
D11*
X58100000Y-89850000D03*
D10*
X59000000Y-89850000D03*
%TD*%
%TO.C,D32*%
X96800000Y-54050000D03*
D11*
X95900000Y-54050000D03*
D10*
X95000000Y-54050000D03*
X95000000Y-55750000D03*
D11*
X95900000Y-55750000D03*
D10*
X96800000Y-55750000D03*
%TD*%
%TO.C,D55*%
X113000000Y-106750000D03*
D11*
X112100000Y-106750000D03*
D10*
X111200000Y-106750000D03*
X111200000Y-108450000D03*
D11*
X112100000Y-108450000D03*
D10*
X113000000Y-108450000D03*
%TD*%
%TO.C,D30*%
X129200000Y-60250000D03*
D11*
X128300000Y-60250000D03*
D10*
X127400000Y-60250000D03*
X127400000Y-61950000D03*
D11*
X128300000Y-61950000D03*
D10*
X129200000Y-61950000D03*
%TD*%
%TO.C,D36*%
X118400000Y-41650000D03*
D11*
X117500000Y-41650000D03*
D10*
X116600000Y-41650000D03*
X116600000Y-43350000D03*
D11*
X117500000Y-43350000D03*
D10*
X118400000Y-43350000D03*
%TD*%
%TO.C,D41*%
X91400000Y-150150000D03*
D11*
X90500000Y-150150000D03*
D10*
X89600000Y-150150000D03*
X89600000Y-151850000D03*
D11*
X90500000Y-151850000D03*
D10*
X91400000Y-151850000D03*
%TD*%
%TO.C,D3*%
X64400000Y-143950000D03*
D11*
X63500000Y-143950000D03*
D10*
X62600000Y-143950000D03*
X62600000Y-145650000D03*
D11*
X63500000Y-145650000D03*
D10*
X64400000Y-145650000D03*
%TD*%
%TO.C,D68*%
X59000000Y-66450000D03*
D11*
X58100000Y-66450000D03*
D10*
X57200000Y-66450000D03*
X57200000Y-68150000D03*
D11*
X58100000Y-68150000D03*
D10*
X59000000Y-68150000D03*
%TD*%
%TO.C,D80*%
X91400000Y-29250000D03*
D11*
X90500000Y-29250000D03*
D10*
X89600000Y-29250000D03*
X89600000Y-30950000D03*
D11*
X90500000Y-30950000D03*
D10*
X91400000Y-30950000D03*
%TD*%
%TO.C,D45*%
X80600000Y-137750000D03*
D11*
X79700000Y-137750000D03*
D10*
X78800000Y-137750000D03*
X78800000Y-139450000D03*
D11*
X79700000Y-139450000D03*
D10*
X80600000Y-139450000D03*
%TD*%
%TO.C,D40*%
X129200000Y-29250000D03*
D11*
X128300000Y-29250000D03*
D10*
X127400000Y-29250000D03*
X127400000Y-30950000D03*
D11*
X128300000Y-30950000D03*
D10*
X129200000Y-30950000D03*
%TD*%
%TO.C,D76*%
X102200000Y-41650000D03*
D11*
X101300000Y-41650000D03*
D10*
X100400000Y-41650000D03*
X100400000Y-43350000D03*
D11*
X101300000Y-43350000D03*
D10*
X102200000Y-43350000D03*
%TD*%
%TO.C,D36*%
X53600000Y-41650000D03*
D11*
X52700000Y-41650000D03*
D10*
X51800000Y-41650000D03*
X51800000Y-43350000D03*
D11*
X52700000Y-43350000D03*
D10*
X53600000Y-43350000D03*
%TD*%
%TO.C,D32*%
X86000000Y-54050000D03*
D11*
X85100000Y-54050000D03*
D10*
X84200000Y-54050000D03*
X84200000Y-55750000D03*
D11*
X85100000Y-55750000D03*
D10*
X86000000Y-55750000D03*
%TD*%
%TO.C,D76*%
X80600000Y-41650000D03*
D11*
X79700000Y-41650000D03*
D10*
X78800000Y-41650000D03*
X78800000Y-43350000D03*
D11*
X79700000Y-43350000D03*
D10*
X80600000Y-43350000D03*
%TD*%
%TO.C,D68*%
X69800000Y-66450000D03*
D11*
X68900000Y-66450000D03*
D10*
X68000000Y-66450000D03*
X68000000Y-68150000D03*
D11*
X68900000Y-68150000D03*
D10*
X69800000Y-68150000D03*
%TD*%
%TO.C,D64*%
X80600000Y-78850000D03*
D11*
X79700000Y-78850000D03*
D10*
X78800000Y-78850000D03*
X78800000Y-80550000D03*
D11*
X79700000Y-80550000D03*
D10*
X80600000Y-80550000D03*
%TD*%
%TO.C,D56*%
X59000000Y-103650000D03*
D11*
X58100000Y-103650000D03*
D10*
X57200000Y-103650000D03*
X57200000Y-105350000D03*
D11*
X58100000Y-105350000D03*
D10*
X59000000Y-105350000D03*
%TD*%
%TO.C,D76*%
X59000000Y-41650000D03*
D11*
X58100000Y-41650000D03*
D10*
X57200000Y-41650000D03*
X57200000Y-43350000D03*
D11*
X58100000Y-43350000D03*
D10*
X59000000Y-43350000D03*
%TD*%
%TO.C,D18*%
X107600000Y-97450000D03*
D11*
X106700000Y-97450000D03*
D10*
X105800000Y-97450000D03*
X105800000Y-99150000D03*
D11*
X106700000Y-99150000D03*
D10*
X107600000Y-99150000D03*
%TD*%
%TO.C,D78*%
X91400000Y-35450000D03*
D11*
X90500000Y-35450000D03*
D10*
X89600000Y-35450000D03*
X89600000Y-37150000D03*
D11*
X90500000Y-37150000D03*
D10*
X91400000Y-37150000D03*
%TD*%
%TO.C,D53*%
X91400000Y-112950000D03*
D11*
X90500000Y-112950000D03*
D10*
X89600000Y-112950000D03*
X89600000Y-114650000D03*
D11*
X90500000Y-114650000D03*
D10*
X91400000Y-114650000D03*
%TD*%
%TO.C,D20*%
X53600000Y-91250000D03*
D11*
X52700000Y-91250000D03*
D10*
X51800000Y-91250000D03*
X51800000Y-92950000D03*
D11*
X52700000Y-92950000D03*
D10*
X53600000Y-92950000D03*
%TD*%
%TO.C,D80*%
X69800000Y-29250000D03*
D11*
X68900000Y-29250000D03*
D10*
X68000000Y-29250000D03*
X68000000Y-30950000D03*
D11*
X68900000Y-30950000D03*
D10*
X69800000Y-30950000D03*
%TD*%
%TO.C,D65*%
X69800000Y-75750000D03*
D11*
X68900000Y-75750000D03*
D10*
X68000000Y-75750000D03*
X68000000Y-77450000D03*
D11*
X68900000Y-77450000D03*
D10*
X69800000Y-77450000D03*
%TD*%
%TO.C,D44*%
X102190000Y-140850000D03*
D11*
X101290000Y-140850000D03*
D10*
X100390000Y-140850000D03*
X100390000Y-142550000D03*
D11*
X101290000Y-142550000D03*
D10*
X102190000Y-142550000D03*
%TD*%
%TO.C,D48*%
X91400000Y-128450000D03*
D11*
X90500000Y-128450000D03*
D10*
X89600000Y-128450000D03*
X89600000Y-130150000D03*
D11*
X90500000Y-130150000D03*
D10*
X91400000Y-130150000D03*
%TD*%
%TO.C,D1*%
X64400000Y-150150000D03*
D11*
X63500000Y-150150000D03*
D10*
X62600000Y-150150000D03*
X62600000Y-151850000D03*
D11*
X63500000Y-151850000D03*
D10*
X64400000Y-151850000D03*
%TD*%
%TO.C,D52*%
X123800000Y-116050000D03*
D11*
X122900000Y-116050000D03*
D10*
X122000000Y-116050000D03*
X122000000Y-117750000D03*
D11*
X122900000Y-117750000D03*
D10*
X123800000Y-117750000D03*
%TD*%
%TO.C,D13*%
X85990000Y-112950000D03*
D11*
X85090000Y-112950000D03*
D10*
X84190000Y-112950000D03*
X84190000Y-114650000D03*
D11*
X85090000Y-114650000D03*
D10*
X85990000Y-114650000D03*
%TD*%
%TO.C,D37*%
X118400000Y-38550000D03*
D11*
X117500000Y-38550000D03*
D10*
X116600000Y-38550000D03*
X116600000Y-40250000D03*
D11*
X117500000Y-40250000D03*
D10*
X118400000Y-40250000D03*
%TD*%
%TO.C,D50*%
X80600000Y-122250000D03*
D11*
X79700000Y-122250000D03*
D10*
X78800000Y-122250000D03*
X78800000Y-123950000D03*
D11*
X79700000Y-123950000D03*
D10*
X80600000Y-123950000D03*
%TD*%
%TO.C,D14*%
X75200000Y-109850000D03*
D11*
X74300000Y-109850000D03*
D10*
X73400000Y-109850000D03*
X73400000Y-111550000D03*
D11*
X74300000Y-111550000D03*
D10*
X75200000Y-111550000D03*
%TD*%
%TO.C,D39*%
X86000000Y-32350000D03*
D11*
X85100000Y-32350000D03*
D10*
X84200000Y-32350000D03*
X84200000Y-34050000D03*
D11*
X85100000Y-34050000D03*
D10*
X86000000Y-34050000D03*
%TD*%
%TO.C,D37*%
X75200000Y-38550000D03*
D11*
X74300000Y-38550000D03*
D10*
X73400000Y-38550000D03*
X73400000Y-40250000D03*
D11*
X74300000Y-40250000D03*
D10*
X75200000Y-40250000D03*
%TD*%
%TO.C,D6*%
X118400000Y-134650000D03*
D11*
X117500000Y-134650000D03*
D10*
X116600000Y-134650000D03*
X116600000Y-136350000D03*
D11*
X117500000Y-136350000D03*
D10*
X118400000Y-136350000D03*
%TD*%
%TO.C,D3*%
X53600000Y-143950000D03*
D11*
X52700000Y-143950000D03*
D10*
X51800000Y-143950000D03*
X51800000Y-145650000D03*
D11*
X52700000Y-145650000D03*
D10*
X53600000Y-145650000D03*
%TD*%
%TO.C,D19*%
X64400000Y-94350000D03*
D11*
X63500000Y-94350000D03*
D10*
X62600000Y-94350000D03*
X62600000Y-96050000D03*
D11*
X63500000Y-96050000D03*
D10*
X64400000Y-96050000D03*
%TD*%
%TO.C,D71*%
X80600000Y-57150000D03*
D11*
X79700000Y-57150000D03*
D10*
X78800000Y-57150000D03*
X78800000Y-58850000D03*
D11*
X79700000Y-58850000D03*
D10*
X80600000Y-58850000D03*
%TD*%
%TO.C,D14*%
X118400000Y-109850000D03*
D11*
X117500000Y-109850000D03*
D10*
X116600000Y-109850000D03*
X116600000Y-111550000D03*
D11*
X117500000Y-111550000D03*
D10*
X118400000Y-111550000D03*
%TD*%
%TO.C,D8*%
X118400000Y-128450000D03*
D11*
X117500000Y-128450000D03*
D10*
X116600000Y-128450000D03*
X116600000Y-130150000D03*
D11*
X117500000Y-130150000D03*
D10*
X118400000Y-130150000D03*
%TD*%
%TO.C,D76*%
X69800000Y-41650000D03*
D11*
X68900000Y-41650000D03*
D10*
X68000000Y-41650000D03*
X68000000Y-43350000D03*
D11*
X68900000Y-43350000D03*
D10*
X69800000Y-43350000D03*
%TD*%
%TO.C,D38*%
X129200000Y-35450000D03*
D11*
X128300000Y-35450000D03*
D10*
X127400000Y-35450000D03*
X127400000Y-37150000D03*
D11*
X128300000Y-37150000D03*
D10*
X129200000Y-37150000D03*
%TD*%
%TO.C,D7*%
X96800000Y-131550000D03*
D11*
X95900000Y-131550000D03*
D10*
X95000000Y-131550000D03*
X95000000Y-133250000D03*
D11*
X95900000Y-133250000D03*
D10*
X96800000Y-133250000D03*
%TD*%
%TO.C,D29*%
X53600000Y-63350000D03*
D11*
X52700000Y-63350000D03*
D10*
X51800000Y-63350000D03*
X51800000Y-65050000D03*
D11*
X52700000Y-65050000D03*
D10*
X53600000Y-65050000D03*
%TD*%
%TO.C,D52*%
X102200000Y-116050000D03*
D11*
X101300000Y-116050000D03*
D10*
X100400000Y-116050000D03*
X100400000Y-117750000D03*
D11*
X101300000Y-117750000D03*
D10*
X102200000Y-117750000D03*
%TD*%
%TO.C,D31*%
X96800000Y-57150000D03*
D11*
X95900000Y-57150000D03*
D10*
X95000000Y-57150000D03*
X95000000Y-58850000D03*
D11*
X95900000Y-58850000D03*
D10*
X96800000Y-58850000D03*
%TD*%
%TO.C,D5*%
X129200000Y-137750000D03*
D11*
X128300000Y-137750000D03*
D10*
X127400000Y-137750000D03*
X127400000Y-139450000D03*
D11*
X128300000Y-139450000D03*
D10*
X129200000Y-139450000D03*
%TD*%
%TO.C,D72*%
X123800000Y-54050000D03*
D11*
X122900000Y-54050000D03*
D10*
X122000000Y-54050000D03*
X122000000Y-55750000D03*
D11*
X122900000Y-55750000D03*
D10*
X123800000Y-55750000D03*
%TD*%
%TO.C,D47*%
X113000000Y-131550000D03*
D11*
X112100000Y-131550000D03*
D10*
X111200000Y-131550000D03*
X111200000Y-133250000D03*
D11*
X112100000Y-133250000D03*
D10*
X113000000Y-133250000D03*
%TD*%
%TO.C,D51*%
X80600000Y-119150000D03*
D11*
X79700000Y-119150000D03*
D10*
X78800000Y-119150000D03*
X78800000Y-120850000D03*
D11*
X79700000Y-120850000D03*
D10*
X80600000Y-120850000D03*
%TD*%
%TO.C,D40*%
X53600000Y-29250000D03*
D11*
X52700000Y-29250000D03*
D10*
X51800000Y-29250000D03*
X51800000Y-30950000D03*
D11*
X52700000Y-30950000D03*
D10*
X53600000Y-30950000D03*
%TD*%
%TO.C,D15*%
X64400000Y-106750000D03*
D11*
X63500000Y-106750000D03*
D10*
X62600000Y-106750000D03*
X62600000Y-108450000D03*
D11*
X63500000Y-108450000D03*
D10*
X64400000Y-108450000D03*
%TD*%
%TO.C,D4*%
X96800000Y-140850000D03*
D11*
X95900000Y-140850000D03*
D10*
X95000000Y-140850000D03*
X95000000Y-142550000D03*
D11*
X95900000Y-142550000D03*
D10*
X96800000Y-142550000D03*
%TD*%
%TO.C,D53*%
X102200000Y-112950000D03*
D11*
X101300000Y-112950000D03*
D10*
X100400000Y-112950000D03*
X100400000Y-114650000D03*
D11*
X101300000Y-114650000D03*
D10*
X102200000Y-114650000D03*
%TD*%
%TO.C,D17*%
X96800000Y-100550000D03*
D11*
X95900000Y-100550000D03*
D10*
X95000000Y-100550000D03*
X95000000Y-102250000D03*
D11*
X95900000Y-102250000D03*
D10*
X96800000Y-102250000D03*
%TD*%
%TO.C,D7*%
X118400000Y-131550000D03*
D11*
X117500000Y-131550000D03*
D10*
X116600000Y-131550000D03*
X116600000Y-133250000D03*
D11*
X117500000Y-133250000D03*
D10*
X118400000Y-133250000D03*
%TD*%
%TO.C,D77*%
X59000000Y-38550000D03*
D11*
X58100000Y-38550000D03*
D10*
X57200000Y-38550000D03*
X57200000Y-40250000D03*
D11*
X58100000Y-40250000D03*
D10*
X59000000Y-40250000D03*
%TD*%
%TO.C,D6*%
X96800000Y-134650000D03*
D11*
X95900000Y-134650000D03*
D10*
X95000000Y-134650000D03*
X95000000Y-136350000D03*
D11*
X95900000Y-136350000D03*
D10*
X96800000Y-136350000D03*
%TD*%
%TO.C,D61*%
X80600000Y-88150000D03*
D11*
X79700000Y-88150000D03*
D10*
X78800000Y-88150000D03*
X78800000Y-89850000D03*
D11*
X79700000Y-89850000D03*
D10*
X80600000Y-89850000D03*
%TD*%
%TO.C,D63*%
X134600000Y-81950000D03*
D11*
X133700000Y-81950000D03*
D10*
X132800000Y-81950000D03*
X132800000Y-83650000D03*
D11*
X133700000Y-83650000D03*
D10*
X134600000Y-83650000D03*
%TD*%
%TO.C,D78*%
X59000000Y-35450000D03*
D11*
X58100000Y-35450000D03*
D10*
X57200000Y-35450000D03*
X57200000Y-37150000D03*
D11*
X58100000Y-37150000D03*
D10*
X59000000Y-37150000D03*
%TD*%
%TO.C,D70*%
X123800000Y-60250000D03*
D11*
X122900000Y-60250000D03*
D10*
X122000000Y-60250000D03*
X122000000Y-61950000D03*
D11*
X122900000Y-61950000D03*
D10*
X123800000Y-61950000D03*
%TD*%
%TO.C,D29*%
X107600000Y-63350000D03*
D11*
X106700000Y-63350000D03*
D10*
X105800000Y-63350000D03*
X105800000Y-65050000D03*
D11*
X106700000Y-65050000D03*
D10*
X107600000Y-65050000D03*
%TD*%
%TO.C,D69*%
X113000000Y-63350000D03*
D11*
X112100000Y-63350000D03*
D10*
X111200000Y-63350000D03*
X111200000Y-65050000D03*
D11*
X112100000Y-65050000D03*
D10*
X113000000Y-65050000D03*
%TD*%
%TO.C,D67*%
X69800000Y-69550000D03*
D11*
X68900000Y-69550000D03*
D10*
X68000000Y-69550000D03*
X68000000Y-71250000D03*
D11*
X68900000Y-71250000D03*
D10*
X69800000Y-71250000D03*
%TD*%
%TO.C,D45*%
X134600000Y-137750000D03*
D11*
X133700000Y-137750000D03*
D10*
X132800000Y-137750000D03*
X132800000Y-139450000D03*
D11*
X133700000Y-139450000D03*
D10*
X134600000Y-139450000D03*
%TD*%
%TO.C,D57*%
X91400000Y-100550000D03*
D11*
X90500000Y-100550000D03*
D10*
X89600000Y-100550000D03*
X89600000Y-102250000D03*
D11*
X90500000Y-102250000D03*
D10*
X91400000Y-102250000D03*
%TD*%
%TO.C,D53*%
X123800000Y-112950000D03*
D11*
X122900000Y-112950000D03*
D10*
X122000000Y-112950000D03*
X122000000Y-114650000D03*
D11*
X122900000Y-114650000D03*
D10*
X123800000Y-114650000D03*
%TD*%
%TO.C,D72*%
X69800000Y-54050000D03*
D11*
X68900000Y-54050000D03*
D10*
X68000000Y-54050000D03*
X68000000Y-55750000D03*
D11*
X68900000Y-55750000D03*
D10*
X69800000Y-55750000D03*
%TD*%
%TO.C,D35*%
X96800000Y-44750000D03*
D11*
X95900000Y-44750000D03*
D10*
X95000000Y-44750000D03*
X95000000Y-46450000D03*
D11*
X95900000Y-46450000D03*
D10*
X96800000Y-46450000D03*
%TD*%
%TO.C,D71*%
X102200000Y-57150000D03*
D11*
X101300000Y-57150000D03*
D10*
X100400000Y-57150000D03*
X100400000Y-58850000D03*
D11*
X101300000Y-58850000D03*
D10*
X102200000Y-58850000D03*
%TD*%
%TO.C,D67*%
X113000000Y-69550000D03*
D11*
X112100000Y-69550000D03*
D10*
X111200000Y-69550000D03*
X111200000Y-71250000D03*
D11*
X112100000Y-71250000D03*
D10*
X113000000Y-71250000D03*
%TD*%
%TO.C,D54*%
X59000000Y-109850000D03*
D11*
X58100000Y-109850000D03*
D10*
X57200000Y-109850000D03*
X57200000Y-111550000D03*
D11*
X58100000Y-111550000D03*
D10*
X59000000Y-111550000D03*
%TD*%
%TO.C,D73*%
X91400000Y-50950000D03*
D11*
X90500000Y-50950000D03*
D10*
X89600000Y-50950000D03*
X89600000Y-52650000D03*
D11*
X90500000Y-52650000D03*
D10*
X91400000Y-52650000D03*
%TD*%
%TO.C,D49*%
X59000000Y-125350000D03*
D11*
X58100000Y-125350000D03*
D10*
X57200000Y-125350000D03*
X57200000Y-127050000D03*
D11*
X58100000Y-127050000D03*
D10*
X59000000Y-127050000D03*
%TD*%
%TO.C,D70*%
X134600000Y-60250000D03*
D11*
X133700000Y-60250000D03*
D10*
X132800000Y-60250000D03*
X132800000Y-61950000D03*
D11*
X133700000Y-61950000D03*
D10*
X134600000Y-61950000D03*
%TD*%
%TO.C,D28*%
X86000000Y-66450000D03*
D11*
X85100000Y-66450000D03*
D10*
X84200000Y-66450000D03*
X84200000Y-68150000D03*
D11*
X85100000Y-68150000D03*
D10*
X86000000Y-68150000D03*
%TD*%
%TO.C,D32*%
X64400000Y-54050000D03*
D11*
X63500000Y-54050000D03*
D10*
X62600000Y-54050000D03*
X62600000Y-55750000D03*
D11*
X63500000Y-55750000D03*
D10*
X64400000Y-55750000D03*
%TD*%
%TO.C,D32*%
X118400000Y-54050000D03*
D11*
X117500000Y-54050000D03*
D10*
X116600000Y-54050000D03*
X116600000Y-55750000D03*
D11*
X117500000Y-55750000D03*
D10*
X118400000Y-55750000D03*
%TD*%
%TO.C,D13*%
X118390000Y-112950000D03*
D11*
X117490000Y-112950000D03*
D10*
X116590000Y-112950000D03*
X116590000Y-114650000D03*
D11*
X117490000Y-114650000D03*
D10*
X118390000Y-114650000D03*
%TD*%
%TO.C,D73*%
X134600000Y-50950000D03*
D11*
X133700000Y-50950000D03*
D10*
X132800000Y-50950000D03*
X132800000Y-52650000D03*
D11*
X133700000Y-52650000D03*
D10*
X134600000Y-52650000D03*
%TD*%
%TO.C,D60*%
X69800000Y-91250000D03*
D11*
X68900000Y-91250000D03*
D10*
X68000000Y-91250000D03*
X68000000Y-92950000D03*
D11*
X68900000Y-92950000D03*
D10*
X69800000Y-92950000D03*
%TD*%
%TO.C,D52*%
X80600000Y-116050000D03*
D11*
X79700000Y-116050000D03*
D10*
X78800000Y-116050000D03*
X78800000Y-117750000D03*
D11*
X79700000Y-117750000D03*
D10*
X80600000Y-117750000D03*
%TD*%
%TO.C,D38*%
X64400000Y-35450000D03*
D11*
X63500000Y-35450000D03*
D10*
X62600000Y-35450000D03*
X62600000Y-37150000D03*
D11*
X63500000Y-37150000D03*
D10*
X64400000Y-37150000D03*
%TD*%
%TO.C,D49*%
X91400000Y-125350000D03*
D11*
X90500000Y-125350000D03*
D10*
X89600000Y-125350000D03*
X89600000Y-127050000D03*
D11*
X90500000Y-127050000D03*
D10*
X91400000Y-127050000D03*
%TD*%
%TO.C,D19*%
X107600000Y-94350000D03*
D11*
X106700000Y-94350000D03*
D10*
X105800000Y-94350000D03*
X105800000Y-96050000D03*
D11*
X106700000Y-96050000D03*
D10*
X107600000Y-96050000D03*
%TD*%
%TO.C,D33*%
X118400000Y-50950000D03*
D11*
X117500000Y-50950000D03*
D10*
X116600000Y-50950000D03*
X116600000Y-52650000D03*
D11*
X117500000Y-52650000D03*
D10*
X118400000Y-52650000D03*
%TD*%
%TO.C,D64*%
X59000000Y-78850000D03*
D11*
X58100000Y-78850000D03*
D10*
X57200000Y-78850000D03*
X57200000Y-80550000D03*
D11*
X58100000Y-80550000D03*
D10*
X59000000Y-80550000D03*
%TD*%
%TO.C,D60*%
X59000000Y-91250000D03*
D11*
X58100000Y-91250000D03*
D10*
X57200000Y-91250000D03*
X57200000Y-92950000D03*
D11*
X58100000Y-92950000D03*
D10*
X59000000Y-92950000D03*
%TD*%
%TO.C,D9*%
X107600000Y-125350000D03*
D11*
X106700000Y-125350000D03*
D10*
X105800000Y-125350000D03*
X105800000Y-127050000D03*
D11*
X106700000Y-127050000D03*
D10*
X107600000Y-127050000D03*
%TD*%
%TO.C,D49*%
X134600000Y-125350000D03*
D11*
X133700000Y-125350000D03*
D10*
X132800000Y-125350000D03*
X132800000Y-127050000D03*
D11*
X133700000Y-127050000D03*
D10*
X134600000Y-127050000D03*
%TD*%
%TO.C,D16*%
X86000000Y-103650000D03*
D11*
X85100000Y-103650000D03*
D10*
X84200000Y-103650000D03*
X84200000Y-105350000D03*
D11*
X85100000Y-105350000D03*
D10*
X86000000Y-105350000D03*
%TD*%
%TO.C,D11*%
X107600000Y-119150000D03*
D11*
X106700000Y-119150000D03*
D10*
X105800000Y-119150000D03*
X105800000Y-120850000D03*
D11*
X106700000Y-120850000D03*
D10*
X107600000Y-120850000D03*
%TD*%
%TO.C,D71*%
X134600000Y-57150000D03*
D11*
X133700000Y-57150000D03*
D10*
X132800000Y-57150000D03*
X132800000Y-58850000D03*
D11*
X133700000Y-58850000D03*
D10*
X134600000Y-58850000D03*
%TD*%
%TO.C,D51*%
X91400000Y-119150000D03*
D11*
X90500000Y-119150000D03*
D10*
X89600000Y-119150000D03*
X89600000Y-120850000D03*
D11*
X90500000Y-120850000D03*
D10*
X91400000Y-120850000D03*
%TD*%
%TO.C,D21*%
X64400000Y-88150000D03*
D11*
X63500000Y-88150000D03*
D10*
X62600000Y-88150000D03*
X62600000Y-89850000D03*
D11*
X63500000Y-89850000D03*
D10*
X64400000Y-89850000D03*
%TD*%
%TO.C,D69*%
X91400000Y-63350000D03*
D11*
X90500000Y-63350000D03*
D10*
X89600000Y-63350000D03*
X89600000Y-65050000D03*
D11*
X90500000Y-65050000D03*
D10*
X91400000Y-65050000D03*
%TD*%
%TO.C,D68*%
X91400000Y-66450000D03*
D11*
X90500000Y-66450000D03*
D10*
X89600000Y-66450000D03*
X89600000Y-68150000D03*
D11*
X90500000Y-68150000D03*
D10*
X91400000Y-68150000D03*
%TD*%
%TO.C,D69*%
X59000000Y-63350000D03*
D11*
X58100000Y-63350000D03*
D10*
X57200000Y-63350000D03*
X57200000Y-65050000D03*
D11*
X58100000Y-65050000D03*
D10*
X59000000Y-65050000D03*
%TD*%
%TO.C,D61*%
X69800000Y-88150000D03*
D11*
X68900000Y-88150000D03*
D10*
X68000000Y-88150000D03*
X68000000Y-89850000D03*
D11*
X68900000Y-89850000D03*
D10*
X69800000Y-89850000D03*
%TD*%
%TO.C,D59*%
X113000000Y-94350000D03*
D11*
X112100000Y-94350000D03*
D10*
X111200000Y-94350000D03*
X111200000Y-96050000D03*
D11*
X112100000Y-96050000D03*
D10*
X113000000Y-96050000D03*
%TD*%
%TO.C,D28*%
X53600000Y-66450000D03*
D11*
X52700000Y-66450000D03*
D10*
X51800000Y-66450000D03*
X51800000Y-68150000D03*
D11*
X52700000Y-68150000D03*
D10*
X53600000Y-68150000D03*
%TD*%
%TO.C,D25*%
X64400000Y-75750000D03*
D11*
X63500000Y-75750000D03*
D10*
X62600000Y-75750000D03*
X62600000Y-77450000D03*
D11*
X63500000Y-77450000D03*
D10*
X64400000Y-77450000D03*
%TD*%
%TO.C,D77*%
X102200000Y-38550000D03*
D11*
X101300000Y-38550000D03*
D10*
X100400000Y-38550000D03*
X100400000Y-40250000D03*
D11*
X101300000Y-40250000D03*
D10*
X102200000Y-40250000D03*
%TD*%
%TO.C,D39*%
X64400000Y-32350000D03*
D11*
X63500000Y-32350000D03*
D10*
X62600000Y-32350000D03*
X62600000Y-34050000D03*
D11*
X63500000Y-34050000D03*
D10*
X64400000Y-34050000D03*
%TD*%
%TO.C,D24*%
X86000000Y-78850000D03*
D11*
X85100000Y-78850000D03*
D10*
X84200000Y-78850000D03*
X84200000Y-80550000D03*
D11*
X85100000Y-80550000D03*
D10*
X86000000Y-80550000D03*
%TD*%
%TO.C,D42*%
X134590000Y-147050000D03*
D11*
X133690000Y-147050000D03*
D10*
X132790000Y-147050000D03*
X132790000Y-148750000D03*
D11*
X133690000Y-148750000D03*
D10*
X134590000Y-148750000D03*
%TD*%
%TO.C,D49*%
X123800000Y-125350000D03*
D11*
X122900000Y-125350000D03*
D10*
X122000000Y-125350000D03*
X122000000Y-127050000D03*
D11*
X122900000Y-127050000D03*
D10*
X123800000Y-127050000D03*
%TD*%
%TO.C,D24*%
X107600000Y-78850000D03*
D11*
X106700000Y-78850000D03*
D10*
X105800000Y-78850000D03*
X105800000Y-80550000D03*
D11*
X106700000Y-80550000D03*
D10*
X107600000Y-80550000D03*
%TD*%
%TO.C,D74*%
X123800000Y-47850000D03*
D11*
X122900000Y-47850000D03*
D10*
X122000000Y-47850000D03*
X122000000Y-49550000D03*
D11*
X122900000Y-49550000D03*
D10*
X123800000Y-49550000D03*
%TD*%
%TO.C,D33*%
X75200000Y-50950000D03*
D11*
X74300000Y-50950000D03*
D10*
X73400000Y-50950000D03*
X73400000Y-52650000D03*
D11*
X74300000Y-52650000D03*
D10*
X75200000Y-52650000D03*
%TD*%
%TO.C,D58*%
X102200000Y-97450000D03*
D11*
X101300000Y-97450000D03*
D10*
X100400000Y-97450000D03*
X100400000Y-99150000D03*
D11*
X101300000Y-99150000D03*
D10*
X102200000Y-99150000D03*
%TD*%
%TO.C,D54*%
X80600000Y-109850000D03*
D11*
X79700000Y-109850000D03*
D10*
X78800000Y-109850000D03*
X78800000Y-111550000D03*
D11*
X79700000Y-111550000D03*
D10*
X80600000Y-111550000D03*
%TD*%
%TO.C,D21*%
X107600000Y-88150000D03*
D11*
X106700000Y-88150000D03*
D10*
X105800000Y-88150000D03*
X105800000Y-89850000D03*
D11*
X106700000Y-89850000D03*
D10*
X107600000Y-89850000D03*
%TD*%
%TO.C,D1*%
X96800000Y-150150000D03*
D11*
X95900000Y-150150000D03*
D10*
X95000000Y-150150000D03*
X95000000Y-151850000D03*
D11*
X95900000Y-151850000D03*
D10*
X96800000Y-151850000D03*
%TD*%
%TO.C,D67*%
X80600000Y-69550000D03*
D11*
X79700000Y-69550000D03*
D10*
X78800000Y-69550000D03*
X78800000Y-71250000D03*
D11*
X79700000Y-71250000D03*
D10*
X80600000Y-71250000D03*
%TD*%
%TO.C,D55*%
X102200000Y-106750000D03*
D11*
X101300000Y-106750000D03*
D10*
X100400000Y-106750000D03*
X100400000Y-108450000D03*
D11*
X101300000Y-108450000D03*
D10*
X102200000Y-108450000D03*
%TD*%
%TO.C,D45*%
X123800000Y-137750000D03*
D11*
X122900000Y-137750000D03*
D10*
X122000000Y-137750000D03*
X122000000Y-139450000D03*
D11*
X122900000Y-139450000D03*
D10*
X123800000Y-139450000D03*
%TD*%
%TO.C,D63*%
X69800000Y-81950000D03*
D11*
X68900000Y-81950000D03*
D10*
X68000000Y-81950000D03*
X68000000Y-83650000D03*
D11*
X68900000Y-83650000D03*
D10*
X69800000Y-83650000D03*
%TD*%
%TO.C,D17*%
X118400000Y-100550000D03*
D11*
X117500000Y-100550000D03*
D10*
X116600000Y-100550000D03*
X116600000Y-102250000D03*
D11*
X117500000Y-102250000D03*
D10*
X118400000Y-102250000D03*
%TD*%
%TO.C,D11*%
X64400000Y-119150000D03*
D11*
X63500000Y-119150000D03*
D10*
X62600000Y-119150000D03*
X62600000Y-120850000D03*
D11*
X63500000Y-120850000D03*
D10*
X64400000Y-120850000D03*
%TD*%
%TO.C,D12*%
X107600000Y-116050000D03*
D11*
X106700000Y-116050000D03*
D10*
X105800000Y-116050000D03*
X105800000Y-117750000D03*
D11*
X106700000Y-117750000D03*
D10*
X107600000Y-117750000D03*
%TD*%
%TO.C,D44*%
X112990000Y-140850000D03*
D11*
X112090000Y-140850000D03*
D10*
X111190000Y-140850000D03*
X111190000Y-142550000D03*
D11*
X112090000Y-142550000D03*
D10*
X112990000Y-142550000D03*
%TD*%
%TO.C,D66*%
X59000000Y-72650000D03*
D11*
X58100000Y-72650000D03*
D10*
X57200000Y-72650000D03*
X57200000Y-74350000D03*
D11*
X58100000Y-74350000D03*
D10*
X59000000Y-74350000D03*
%TD*%
%TO.C,D43*%
X91400000Y-143950000D03*
D11*
X90500000Y-143950000D03*
D10*
X89600000Y-143950000D03*
X89600000Y-145650000D03*
D11*
X90500000Y-145650000D03*
D10*
X91400000Y-145650000D03*
%TD*%
%TO.C,D40*%
X96800000Y-29250000D03*
D11*
X95900000Y-29250000D03*
D10*
X95000000Y-29250000D03*
X95000000Y-30950000D03*
D11*
X95900000Y-30950000D03*
D10*
X96800000Y-30950000D03*
%TD*%
%TO.C,D24*%
X53600000Y-78850000D03*
D11*
X52700000Y-78850000D03*
D10*
X51800000Y-78850000D03*
X51800000Y-80550000D03*
D11*
X52700000Y-80550000D03*
D10*
X53600000Y-80550000D03*
%TD*%
%TO.C,D11*%
X86000000Y-119150000D03*
D11*
X85100000Y-119150000D03*
D10*
X84200000Y-119150000D03*
X84200000Y-120850000D03*
D11*
X85100000Y-120850000D03*
D10*
X86000000Y-120850000D03*
%TD*%
%TO.C,D77*%
X113000000Y-38550000D03*
D11*
X112100000Y-38550000D03*
D10*
X111200000Y-38550000D03*
X111200000Y-40250000D03*
D11*
X112100000Y-40250000D03*
D10*
X113000000Y-40250000D03*
%TD*%
%TO.C,D56*%
X134600000Y-103650000D03*
D11*
X133700000Y-103650000D03*
D10*
X132800000Y-103650000D03*
X132800000Y-105350000D03*
D11*
X133700000Y-105350000D03*
D10*
X134600000Y-105350000D03*
%TD*%
%TO.C,D47*%
X134600000Y-131550000D03*
D11*
X133700000Y-131550000D03*
D10*
X132800000Y-131550000D03*
X132800000Y-133250000D03*
D11*
X133700000Y-133250000D03*
D10*
X134600000Y-133250000D03*
%TD*%
%TO.C,D56*%
X123800000Y-103650000D03*
D11*
X122900000Y-103650000D03*
D10*
X122000000Y-103650000D03*
X122000000Y-105350000D03*
D11*
X122900000Y-105350000D03*
D10*
X123800000Y-105350000D03*
%TD*%
%TO.C,D43*%
X80600000Y-143950000D03*
D11*
X79700000Y-143950000D03*
D10*
X78800000Y-143950000D03*
X78800000Y-145650000D03*
D11*
X79700000Y-145650000D03*
D10*
X80600000Y-145650000D03*
%TD*%
%TO.C,D39*%
X118400000Y-32350000D03*
D11*
X117500000Y-32350000D03*
D10*
X116600000Y-32350000D03*
X116600000Y-34050000D03*
D11*
X117500000Y-34050000D03*
D10*
X118400000Y-34050000D03*
%TD*%
%TO.C,D32*%
X129200000Y-54050000D03*
D11*
X128300000Y-54050000D03*
D10*
X127400000Y-54050000D03*
X127400000Y-55750000D03*
D11*
X128300000Y-55750000D03*
D10*
X129200000Y-55750000D03*
%TD*%
%TO.C,D18*%
X53600000Y-97450000D03*
D11*
X52700000Y-97450000D03*
D10*
X51800000Y-97450000D03*
X51800000Y-99150000D03*
D11*
X52700000Y-99150000D03*
D10*
X53600000Y-99150000D03*
%TD*%
%TO.C,D27*%
X64400000Y-69550000D03*
D11*
X63500000Y-69550000D03*
D10*
X62600000Y-69550000D03*
X62600000Y-71250000D03*
D11*
X63500000Y-71250000D03*
D10*
X64400000Y-71250000D03*
%TD*%
%TO.C,D60*%
X102200000Y-91250000D03*
D11*
X101300000Y-91250000D03*
D10*
X100400000Y-91250000D03*
X100400000Y-92950000D03*
D11*
X101300000Y-92950000D03*
D10*
X102200000Y-92950000D03*
%TD*%
%TO.C,D42*%
X123790000Y-147050000D03*
D11*
X122890000Y-147050000D03*
D10*
X121990000Y-147050000D03*
X121990000Y-148750000D03*
D11*
X122890000Y-148750000D03*
D10*
X123790000Y-148750000D03*
%TD*%
%TO.C,D22*%
X96800000Y-85050000D03*
D11*
X95900000Y-85050000D03*
D10*
X95000000Y-85050000D03*
X95000000Y-86750000D03*
D11*
X95900000Y-86750000D03*
D10*
X96800000Y-86750000D03*
%TD*%
%TO.C,D71*%
X69800000Y-57150000D03*
D11*
X68900000Y-57150000D03*
D10*
X68000000Y-57150000D03*
X68000000Y-58850000D03*
D11*
X68900000Y-58850000D03*
D10*
X69800000Y-58850000D03*
%TD*%
%TO.C,D3*%
X75200000Y-143950000D03*
D11*
X74300000Y-143950000D03*
D10*
X73400000Y-143950000D03*
X73400000Y-145650000D03*
D11*
X74300000Y-145650000D03*
D10*
X75200000Y-145650000D03*
%TD*%
%TO.C,D63*%
X91400000Y-81950000D03*
D11*
X90500000Y-81950000D03*
D10*
X89600000Y-81950000D03*
X89600000Y-83650000D03*
D11*
X90500000Y-83650000D03*
D10*
X91400000Y-83650000D03*
%TD*%
%TO.C,D33*%
X64400000Y-50950000D03*
D11*
X63500000Y-50950000D03*
D10*
X62600000Y-50950000D03*
X62600000Y-52650000D03*
D11*
X63500000Y-52650000D03*
D10*
X64400000Y-52650000D03*
%TD*%
%TO.C,D72*%
X113000000Y-54050000D03*
D11*
X112100000Y-54050000D03*
D10*
X111200000Y-54050000D03*
X111200000Y-55750000D03*
D11*
X112100000Y-55750000D03*
D10*
X113000000Y-55750000D03*
%TD*%
%TO.C,D8*%
X129200000Y-128450000D03*
D11*
X128300000Y-128450000D03*
D10*
X127400000Y-128450000D03*
X127400000Y-130150000D03*
D11*
X128300000Y-130150000D03*
D10*
X129200000Y-130150000D03*
%TD*%
%TO.C,D41*%
X59000000Y-150150000D03*
D11*
X58100000Y-150150000D03*
D10*
X57200000Y-150150000D03*
X57200000Y-151850000D03*
D11*
X58100000Y-151850000D03*
D10*
X59000000Y-151850000D03*
%TD*%
%TO.C,D17*%
X86000000Y-100550000D03*
D11*
X85100000Y-100550000D03*
D10*
X84200000Y-100550000D03*
X84200000Y-102250000D03*
D11*
X85100000Y-102250000D03*
D10*
X86000000Y-102250000D03*
%TD*%
%TO.C,D50*%
X113000000Y-122250000D03*
D11*
X112100000Y-122250000D03*
D10*
X111200000Y-122250000D03*
X111200000Y-123950000D03*
D11*
X112100000Y-123950000D03*
D10*
X113000000Y-123950000D03*
%TD*%
%TO.C,D79*%
X113000000Y-32350000D03*
D11*
X112100000Y-32350000D03*
D10*
X111200000Y-32350000D03*
X111200000Y-34050000D03*
D11*
X112100000Y-34050000D03*
D10*
X113000000Y-34050000D03*
%TD*%
%TO.C,D73*%
X69800000Y-50950000D03*
D11*
X68900000Y-50950000D03*
D10*
X68000000Y-50950000D03*
X68000000Y-52650000D03*
D11*
X68900000Y-52650000D03*
D10*
X69800000Y-52650000D03*
%TD*%
%TO.C,D57*%
X80600000Y-100550000D03*
D11*
X79700000Y-100550000D03*
D10*
X78800000Y-100550000D03*
X78800000Y-102250000D03*
D11*
X79700000Y-102250000D03*
D10*
X80600000Y-102250000D03*
%TD*%
%TO.C,D58*%
X123800000Y-97450000D03*
D11*
X122900000Y-97450000D03*
D10*
X122000000Y-97450000D03*
X122000000Y-99150000D03*
D11*
X122900000Y-99150000D03*
D10*
X123800000Y-99150000D03*
%TD*%
%TO.C,D11*%
X96800000Y-119150000D03*
D11*
X95900000Y-119150000D03*
D10*
X95000000Y-119150000D03*
X95000000Y-120850000D03*
D11*
X95900000Y-120850000D03*
D10*
X96800000Y-120850000D03*
%TD*%
%TO.C,D57*%
X123800000Y-100550000D03*
D11*
X122900000Y-100550000D03*
D10*
X122000000Y-100550000D03*
X122000000Y-102250000D03*
D11*
X122900000Y-102250000D03*
D10*
X123800000Y-102250000D03*
%TD*%
%TO.C,D64*%
X91400000Y-78850000D03*
D11*
X90500000Y-78850000D03*
D10*
X89600000Y-78850000D03*
X89600000Y-80550000D03*
D11*
X90500000Y-80550000D03*
D10*
X91400000Y-80550000D03*
%TD*%
%TO.C,D48*%
X123800000Y-128450000D03*
D11*
X122900000Y-128450000D03*
D10*
X122000000Y-128450000D03*
X122000000Y-130150000D03*
D11*
X122900000Y-130150000D03*
D10*
X123800000Y-130150000D03*
%TD*%
%TO.C,D47*%
X91400000Y-131550000D03*
D11*
X90500000Y-131550000D03*
D10*
X89600000Y-131550000D03*
X89600000Y-133250000D03*
D11*
X90500000Y-133250000D03*
D10*
X91400000Y-133250000D03*
%TD*%
%TO.C,D50*%
X59000000Y-122250000D03*
D11*
X58100000Y-122250000D03*
D10*
X57200000Y-122250000D03*
X57200000Y-123950000D03*
D11*
X58100000Y-123950000D03*
D10*
X59000000Y-123950000D03*
%TD*%
%TO.C,D43*%
X102200000Y-143950000D03*
D11*
X101300000Y-143950000D03*
D10*
X100400000Y-143950000D03*
X100400000Y-145650000D03*
D11*
X101300000Y-145650000D03*
D10*
X102200000Y-145650000D03*
%TD*%
%TO.C,D47*%
X59000000Y-131550000D03*
D11*
X58100000Y-131550000D03*
D10*
X57200000Y-131550000D03*
X57200000Y-133250000D03*
D11*
X58100000Y-133250000D03*
D10*
X59000000Y-133250000D03*
%TD*%
%TO.C,D52*%
X134600000Y-116050000D03*
D11*
X133700000Y-116050000D03*
D10*
X132800000Y-116050000D03*
X132800000Y-117750000D03*
D11*
X133700000Y-117750000D03*
D10*
X134600000Y-117750000D03*
%TD*%
%TO.C,D6*%
X129200000Y-134650000D03*
D11*
X128300000Y-134650000D03*
D10*
X127400000Y-134650000D03*
X127400000Y-136350000D03*
D11*
X128300000Y-136350000D03*
D10*
X129200000Y-136350000D03*
%TD*%
%TO.C,D56*%
X91400000Y-103650000D03*
D11*
X90500000Y-103650000D03*
D10*
X89600000Y-103650000D03*
X89600000Y-105350000D03*
D11*
X90500000Y-105350000D03*
D10*
X91400000Y-105350000D03*
%TD*%
%TO.C,D69*%
X123800000Y-63350000D03*
D11*
X122900000Y-63350000D03*
D10*
X122000000Y-63350000D03*
X122000000Y-65050000D03*
D11*
X122900000Y-65050000D03*
D10*
X123800000Y-65050000D03*
%TD*%
%TO.C,D51*%
X59000000Y-119150000D03*
D11*
X58100000Y-119150000D03*
D10*
X57200000Y-119150000D03*
X57200000Y-120850000D03*
D11*
X58100000Y-120850000D03*
D10*
X59000000Y-120850000D03*
%TD*%
%TO.C,D20*%
X129200000Y-91250000D03*
D11*
X128300000Y-91250000D03*
D10*
X127400000Y-91250000D03*
X127400000Y-92950000D03*
D11*
X128300000Y-92950000D03*
D10*
X129200000Y-92950000D03*
%TD*%
%TO.C,D47*%
X123800000Y-131550000D03*
D11*
X122900000Y-131550000D03*
D10*
X122000000Y-131550000D03*
X122000000Y-133250000D03*
D11*
X122900000Y-133250000D03*
D10*
X123800000Y-133250000D03*
%TD*%
%TO.C,D30*%
X53600000Y-60250000D03*
D11*
X52700000Y-60250000D03*
D10*
X51800000Y-60250000D03*
X51800000Y-61950000D03*
D11*
X52700000Y-61950000D03*
D10*
X53600000Y-61950000D03*
%TD*%
%TO.C,D65*%
X59000000Y-75750000D03*
D11*
X58100000Y-75750000D03*
D10*
X57200000Y-75750000D03*
X57200000Y-77450000D03*
D11*
X58100000Y-77450000D03*
D10*
X59000000Y-77450000D03*
%TD*%
%TO.C,D76*%
X113000000Y-41650000D03*
D11*
X112100000Y-41650000D03*
D10*
X111200000Y-41650000D03*
X111200000Y-43350000D03*
D11*
X112100000Y-43350000D03*
D10*
X113000000Y-43350000D03*
%TD*%
%TO.C,D61*%
X102200000Y-88150000D03*
D11*
X101300000Y-88150000D03*
D10*
X100400000Y-88150000D03*
X100400000Y-89850000D03*
D11*
X101300000Y-89850000D03*
D10*
X102200000Y-89850000D03*
%TD*%
%TO.C,D75*%
X123800000Y-44750000D03*
D11*
X122900000Y-44750000D03*
D10*
X122000000Y-44750000D03*
X122000000Y-46450000D03*
D11*
X122900000Y-46450000D03*
D10*
X123800000Y-46450000D03*
%TD*%
%TO.C,D8*%
X53600000Y-128450000D03*
D11*
X52700000Y-128450000D03*
D10*
X51800000Y-128450000D03*
X51800000Y-130150000D03*
D11*
X52700000Y-130150000D03*
D10*
X53600000Y-130150000D03*
%TD*%
%TO.C,D20*%
X118400000Y-91250000D03*
D11*
X117500000Y-91250000D03*
D10*
X116600000Y-91250000D03*
X116600000Y-92950000D03*
D11*
X117500000Y-92950000D03*
D10*
X118400000Y-92950000D03*
%TD*%
%TO.C,D66*%
X123800000Y-72650000D03*
D11*
X122900000Y-72650000D03*
D10*
X122000000Y-72650000D03*
X122000000Y-74350000D03*
D11*
X122900000Y-74350000D03*
D10*
X123800000Y-74350000D03*
%TD*%
%TO.C,D40*%
X107600000Y-29250000D03*
D11*
X106700000Y-29250000D03*
D10*
X105800000Y-29250000D03*
X105800000Y-30950000D03*
D11*
X106700000Y-30950000D03*
D10*
X107600000Y-30950000D03*
%TD*%
%TO.C,D74*%
X113000000Y-47850000D03*
D11*
X112100000Y-47850000D03*
D10*
X111200000Y-47850000D03*
X111200000Y-49550000D03*
D11*
X112100000Y-49550000D03*
D10*
X113000000Y-49550000D03*
%TD*%
%TO.C,D5*%
X96800000Y-137750000D03*
D11*
X95900000Y-137750000D03*
D10*
X95000000Y-137750000D03*
X95000000Y-139450000D03*
D11*
X95900000Y-139450000D03*
D10*
X96800000Y-139450000D03*
%TD*%
%TO.C,D26*%
X96800000Y-72650000D03*
D11*
X95900000Y-72650000D03*
D10*
X95000000Y-72650000D03*
X95000000Y-74350000D03*
D11*
X95900000Y-74350000D03*
D10*
X96800000Y-74350000D03*
%TD*%
%TO.C,D26*%
X53600000Y-72650000D03*
D11*
X52700000Y-72650000D03*
D10*
X51800000Y-72650000D03*
X51800000Y-74350000D03*
D11*
X52700000Y-74350000D03*
D10*
X53600000Y-74350000D03*
%TD*%
%TO.C,D70*%
X102200000Y-60250000D03*
D11*
X101300000Y-60250000D03*
D10*
X100400000Y-60250000D03*
X100400000Y-61950000D03*
D11*
X101300000Y-61950000D03*
D10*
X102200000Y-61950000D03*
%TD*%
%TO.C,D60*%
X91400000Y-91250000D03*
D11*
X90500000Y-91250000D03*
D10*
X89600000Y-91250000D03*
X89600000Y-92950000D03*
D11*
X90500000Y-92950000D03*
D10*
X91400000Y-92950000D03*
%TD*%
%TO.C,D77*%
X69800000Y-38550000D03*
D11*
X68900000Y-38550000D03*
D10*
X68000000Y-38550000D03*
X68000000Y-40250000D03*
D11*
X68900000Y-40250000D03*
D10*
X69800000Y-40250000D03*
%TD*%
%TO.C,D29*%
X129200000Y-63350000D03*
D11*
X128300000Y-63350000D03*
D10*
X127400000Y-63350000D03*
X127400000Y-65050000D03*
D11*
X128300000Y-65050000D03*
D10*
X129200000Y-65050000D03*
%TD*%
%TO.C,D27*%
X118400000Y-69550000D03*
D11*
X117500000Y-69550000D03*
D10*
X116600000Y-69550000D03*
X116600000Y-71250000D03*
D11*
X117500000Y-71250000D03*
D10*
X118400000Y-71250000D03*
%TD*%
%TO.C,D49*%
X80600000Y-125350000D03*
D11*
X79700000Y-125350000D03*
D10*
X78800000Y-125350000D03*
X78800000Y-127050000D03*
D11*
X79700000Y-127050000D03*
D10*
X80600000Y-127050000D03*
%TD*%
%TO.C,D2*%
X64400000Y-147050000D03*
D11*
X63500000Y-147050000D03*
D10*
X62600000Y-147050000D03*
X62600000Y-148750000D03*
D11*
X63500000Y-148750000D03*
D10*
X64400000Y-148750000D03*
%TD*%
%TO.C,D1*%
X118400000Y-150150000D03*
D11*
X117500000Y-150150000D03*
D10*
X116600000Y-150150000D03*
X116600000Y-151850000D03*
D11*
X117500000Y-151850000D03*
D10*
X118400000Y-151850000D03*
%TD*%
%TO.C,D73*%
X59000000Y-50950000D03*
D11*
X58100000Y-50950000D03*
D10*
X57200000Y-50950000D03*
X57200000Y-52650000D03*
D11*
X58100000Y-52650000D03*
D10*
X59000000Y-52650000D03*
%TD*%
%TO.C,D73*%
X123800000Y-50950000D03*
D11*
X122900000Y-50950000D03*
D10*
X122000000Y-50950000D03*
X122000000Y-52650000D03*
D11*
X122900000Y-52650000D03*
D10*
X123800000Y-52650000D03*
%TD*%
%TO.C,D42*%
X91390000Y-147050000D03*
D11*
X90490000Y-147050000D03*
D10*
X89590000Y-147050000D03*
X89590000Y-148750000D03*
D11*
X90490000Y-148750000D03*
D10*
X91390000Y-148750000D03*
%TD*%
%TO.C,D72*%
X134600000Y-54050000D03*
D11*
X133700000Y-54050000D03*
D10*
X132800000Y-54050000D03*
X132800000Y-55750000D03*
D11*
X133700000Y-55750000D03*
D10*
X134600000Y-55750000D03*
%TD*%
%TO.C,D8*%
X64400000Y-128450000D03*
D11*
X63500000Y-128450000D03*
D10*
X62600000Y-128450000D03*
X62600000Y-130150000D03*
D11*
X63500000Y-130150000D03*
D10*
X64400000Y-130150000D03*
%TD*%
%TO.C,D28*%
X107600000Y-66450000D03*
D11*
X106700000Y-66450000D03*
D10*
X105800000Y-66450000D03*
X105800000Y-68150000D03*
D11*
X106700000Y-68150000D03*
D10*
X107600000Y-68150000D03*
%TD*%
%TO.C,D50*%
X102200000Y-122250000D03*
D11*
X101300000Y-122250000D03*
D10*
X100400000Y-122250000D03*
X100400000Y-123950000D03*
D11*
X101300000Y-123950000D03*
D10*
X102200000Y-123950000D03*
%TD*%
%TO.C,D17*%
X64400000Y-100550000D03*
D11*
X63500000Y-100550000D03*
D10*
X62600000Y-100550000D03*
X62600000Y-102250000D03*
D11*
X63500000Y-102250000D03*
D10*
X64400000Y-102250000D03*
%TD*%
%TO.C,D35*%
X53600000Y-44750000D03*
D11*
X52700000Y-44750000D03*
D10*
X51800000Y-44750000D03*
X51800000Y-46450000D03*
D11*
X52700000Y-46450000D03*
D10*
X53600000Y-46450000D03*
%TD*%
%TO.C,D18*%
X64400000Y-97450000D03*
D11*
X63500000Y-97450000D03*
D10*
X62600000Y-97450000D03*
X62600000Y-99150000D03*
D11*
X63500000Y-99150000D03*
D10*
X64400000Y-99150000D03*
%TD*%
%TO.C,D17*%
X107600000Y-100550000D03*
D11*
X106700000Y-100550000D03*
D10*
X105800000Y-100550000D03*
X105800000Y-102250000D03*
D11*
X106700000Y-102250000D03*
D10*
X107600000Y-102250000D03*
%TD*%
%TO.C,D12*%
X96800000Y-116050000D03*
D11*
X95900000Y-116050000D03*
D10*
X95000000Y-116050000D03*
X95000000Y-117750000D03*
D11*
X95900000Y-117750000D03*
D10*
X96800000Y-117750000D03*
%TD*%
%TO.C,D3*%
X86000000Y-143950000D03*
D11*
X85100000Y-143950000D03*
D10*
X84200000Y-143950000D03*
X84200000Y-145650000D03*
D11*
X85100000Y-145650000D03*
D10*
X86000000Y-145650000D03*
%TD*%
%TO.C,D36*%
X86000000Y-41650000D03*
D11*
X85100000Y-41650000D03*
D10*
X84200000Y-41650000D03*
X84200000Y-43350000D03*
D11*
X85100000Y-43350000D03*
D10*
X86000000Y-43350000D03*
%TD*%
%TO.C,D55*%
X134600000Y-106750000D03*
D11*
X133700000Y-106750000D03*
D10*
X132800000Y-106750000D03*
X132800000Y-108450000D03*
D11*
X133700000Y-108450000D03*
D10*
X134600000Y-108450000D03*
%TD*%
%TO.C,D54*%
X69800000Y-109850000D03*
D11*
X68900000Y-109850000D03*
D10*
X68000000Y-109850000D03*
X68000000Y-111550000D03*
D11*
X68900000Y-111550000D03*
D10*
X69800000Y-111550000D03*
%TD*%
%TO.C,D74*%
X80600000Y-47850000D03*
D11*
X79700000Y-47850000D03*
D10*
X78800000Y-47850000D03*
X78800000Y-49550000D03*
D11*
X79700000Y-49550000D03*
D10*
X80600000Y-49550000D03*
%TD*%
%TO.C,D46*%
X91400000Y-134650000D03*
D11*
X90500000Y-134650000D03*
D10*
X89600000Y-134650000D03*
X89600000Y-136350000D03*
D11*
X90500000Y-136350000D03*
D10*
X91400000Y-136350000D03*
%TD*%
%TO.C,D9*%
X86000000Y-125350000D03*
D11*
X85100000Y-125350000D03*
D10*
X84200000Y-125350000D03*
X84200000Y-127050000D03*
D11*
X85100000Y-127050000D03*
D10*
X86000000Y-127050000D03*
%TD*%
%TO.C,D4*%
X86000000Y-140850000D03*
D11*
X85100000Y-140850000D03*
D10*
X84200000Y-140850000D03*
X84200000Y-142550000D03*
D11*
X85100000Y-142550000D03*
D10*
X86000000Y-142550000D03*
%TD*%
%TO.C,D67*%
X102200000Y-69550000D03*
D11*
X101300000Y-69550000D03*
D10*
X100400000Y-69550000D03*
X100400000Y-71250000D03*
D11*
X101300000Y-71250000D03*
D10*
X102200000Y-71250000D03*
%TD*%
%TO.C,D28*%
X118400000Y-66450000D03*
D11*
X117500000Y-66450000D03*
D10*
X116600000Y-66450000D03*
X116600000Y-68150000D03*
D11*
X117500000Y-68150000D03*
D10*
X118400000Y-68150000D03*
%TD*%
%TO.C,D25*%
X107600000Y-75750000D03*
D11*
X106700000Y-75750000D03*
D10*
X105800000Y-75750000D03*
X105800000Y-77450000D03*
D11*
X106700000Y-77450000D03*
D10*
X107600000Y-77450000D03*
%TD*%
%TO.C,D5*%
X64400000Y-137750000D03*
D11*
X63500000Y-137750000D03*
D10*
X62600000Y-137750000D03*
X62600000Y-139450000D03*
D11*
X63500000Y-139450000D03*
D10*
X64400000Y-139450000D03*
%TD*%
%TO.C,D14*%
X53600000Y-109850000D03*
D11*
X52700000Y-109850000D03*
D10*
X51800000Y-109850000D03*
X51800000Y-111550000D03*
D11*
X52700000Y-111550000D03*
D10*
X53600000Y-111550000D03*
%TD*%
%TO.C,D53*%
X80600000Y-112950000D03*
D11*
X79700000Y-112950000D03*
D10*
X78800000Y-112950000D03*
X78800000Y-114650000D03*
D11*
X79700000Y-114650000D03*
D10*
X80600000Y-114650000D03*
%TD*%
%TO.C,D65*%
X102200000Y-75750000D03*
D11*
X101300000Y-75750000D03*
D10*
X100400000Y-75750000D03*
X100400000Y-77450000D03*
D11*
X101300000Y-77450000D03*
D10*
X102200000Y-77450000D03*
%TD*%
%TO.C,D40*%
X64400000Y-29250000D03*
D11*
X63500000Y-29250000D03*
D10*
X62600000Y-29250000D03*
X62600000Y-30950000D03*
D11*
X63500000Y-30950000D03*
D10*
X64400000Y-30950000D03*
%TD*%
%TO.C,D44*%
X80590000Y-140850000D03*
D11*
X79690000Y-140850000D03*
D10*
X78790000Y-140850000D03*
X78790000Y-142550000D03*
D11*
X79690000Y-142550000D03*
D10*
X80590000Y-142550000D03*
%TD*%
%TO.C,D7*%
X129200000Y-131550000D03*
D11*
X128300000Y-131550000D03*
D10*
X127400000Y-131550000D03*
X127400000Y-133250000D03*
D11*
X128300000Y-133250000D03*
D10*
X129200000Y-133250000D03*
%TD*%
%TO.C,D67*%
X91400000Y-69550000D03*
D11*
X90500000Y-69550000D03*
D10*
X89600000Y-69550000D03*
X89600000Y-71250000D03*
D11*
X90500000Y-71250000D03*
D10*
X91400000Y-71250000D03*
%TD*%
%TO.C,D29*%
X75200000Y-63350000D03*
D11*
X74300000Y-63350000D03*
D10*
X73400000Y-63350000D03*
X73400000Y-65050000D03*
D11*
X74300000Y-65050000D03*
D10*
X75200000Y-65050000D03*
%TD*%
%TO.C,D23*%
X107600000Y-81950000D03*
D11*
X106700000Y-81950000D03*
D10*
X105800000Y-81950000D03*
X105800000Y-83650000D03*
D11*
X106700000Y-83650000D03*
D10*
X107600000Y-83650000D03*
%TD*%
%TO.C,D2*%
X107600000Y-147050000D03*
D11*
X106700000Y-147050000D03*
D10*
X105800000Y-147050000D03*
X105800000Y-148750000D03*
D11*
X106700000Y-148750000D03*
D10*
X107600000Y-148750000D03*
%TD*%
%TO.C,D26*%
X86000000Y-72650000D03*
D11*
X85100000Y-72650000D03*
D10*
X84200000Y-72650000D03*
X84200000Y-74350000D03*
D11*
X85100000Y-74350000D03*
D10*
X86000000Y-74350000D03*
%TD*%
%TO.C,D10*%
X96800000Y-122250000D03*
D11*
X95900000Y-122250000D03*
D10*
X95000000Y-122250000D03*
X95000000Y-123950000D03*
D11*
X95900000Y-123950000D03*
D10*
X96800000Y-123950000D03*
%TD*%
%TO.C,D65*%
X91400000Y-75750000D03*
D11*
X90500000Y-75750000D03*
D10*
X89600000Y-75750000D03*
X89600000Y-77450000D03*
D11*
X90500000Y-77450000D03*
D10*
X91400000Y-77450000D03*
%TD*%
%TO.C,D41*%
X123800000Y-150150000D03*
D11*
X122900000Y-150150000D03*
D10*
X122000000Y-150150000D03*
X122000000Y-151850000D03*
D11*
X122900000Y-151850000D03*
D10*
X123800000Y-151850000D03*
%TD*%
%TO.C,D46*%
X80600000Y-134650000D03*
D11*
X79700000Y-134650000D03*
D10*
X78800000Y-134650000D03*
X78800000Y-136350000D03*
D11*
X79700000Y-136350000D03*
D10*
X80600000Y-136350000D03*
%TD*%
%TO.C,D9*%
X64400000Y-125350000D03*
D11*
X63500000Y-125350000D03*
D10*
X62600000Y-125350000D03*
X62600000Y-127050000D03*
D11*
X63500000Y-127050000D03*
D10*
X64400000Y-127050000D03*
%TD*%
%TO.C,D35*%
X107600000Y-44750000D03*
D11*
X106700000Y-44750000D03*
D10*
X105800000Y-44750000D03*
X105800000Y-46450000D03*
D11*
X106700000Y-46450000D03*
D10*
X107600000Y-46450000D03*
%TD*%
%TO.C,D20*%
X75200000Y-91250000D03*
D11*
X74300000Y-91250000D03*
D10*
X73400000Y-91250000D03*
X73400000Y-92950000D03*
D11*
X74300000Y-92950000D03*
D10*
X75200000Y-92950000D03*
%TD*%
%TO.C,D55*%
X123800000Y-106750000D03*
D11*
X122900000Y-106750000D03*
D10*
X122000000Y-106750000D03*
X122000000Y-108450000D03*
D11*
X122900000Y-108450000D03*
D10*
X123800000Y-108450000D03*
%TD*%
%TO.C,D5*%
X118400000Y-137750000D03*
D11*
X117500000Y-137750000D03*
D10*
X116600000Y-137750000D03*
X116600000Y-139450000D03*
D11*
X117500000Y-139450000D03*
D10*
X118400000Y-139450000D03*
%TD*%
%TO.C,D2*%
X75200000Y-147050000D03*
D11*
X74300000Y-147050000D03*
D10*
X73400000Y-147050000D03*
X73400000Y-148750000D03*
D11*
X74300000Y-148750000D03*
D10*
X75200000Y-148750000D03*
%TD*%
%TO.C,D38*%
X118400000Y-35450000D03*
D11*
X117500000Y-35450000D03*
D10*
X116600000Y-35450000D03*
X116600000Y-37150000D03*
D11*
X117500000Y-37150000D03*
D10*
X118400000Y-37150000D03*
%TD*%
%TO.C,D14*%
X129200000Y-109850000D03*
D11*
X128300000Y-109850000D03*
D10*
X127400000Y-109850000D03*
X127400000Y-111550000D03*
D11*
X128300000Y-111550000D03*
D10*
X129200000Y-111550000D03*
%TD*%
%TO.C,D27*%
X75200000Y-69550000D03*
D11*
X74300000Y-69550000D03*
D10*
X73400000Y-69550000D03*
X73400000Y-71250000D03*
D11*
X74300000Y-71250000D03*
D10*
X75200000Y-71250000D03*
%TD*%
%TO.C,D78*%
X102200000Y-35450000D03*
D11*
X101300000Y-35450000D03*
D10*
X100400000Y-35450000D03*
X100400000Y-37150000D03*
D11*
X101300000Y-37150000D03*
D10*
X102200000Y-37150000D03*
%TD*%
%TO.C,D75*%
X59000000Y-44750000D03*
D11*
X58100000Y-44750000D03*
D10*
X57200000Y-44750000D03*
X57200000Y-46450000D03*
D11*
X58100000Y-46450000D03*
D10*
X59000000Y-46450000D03*
%TD*%
%TO.C,D79*%
X59000000Y-32350000D03*
D11*
X58100000Y-32350000D03*
D10*
X57200000Y-32350000D03*
X57200000Y-34050000D03*
D11*
X58100000Y-34050000D03*
D10*
X59000000Y-34050000D03*
%TD*%
%TO.C,D64*%
X113000000Y-78850000D03*
D11*
X112100000Y-78850000D03*
D10*
X111200000Y-78850000D03*
X111200000Y-80550000D03*
D11*
X112100000Y-80550000D03*
D10*
X113000000Y-80550000D03*
%TD*%
%TO.C,D1*%
X107600000Y-150150000D03*
D11*
X106700000Y-150150000D03*
D10*
X105800000Y-150150000D03*
X105800000Y-151850000D03*
D11*
X106700000Y-151850000D03*
D10*
X107600000Y-151850000D03*
%TD*%
%TO.C,D58*%
X80600000Y-97450000D03*
D11*
X79700000Y-97450000D03*
D10*
X78800000Y-97450000D03*
X78800000Y-99150000D03*
D11*
X79700000Y-99150000D03*
D10*
X80600000Y-99150000D03*
%TD*%
%TO.C,D8*%
X107600000Y-128450000D03*
D11*
X106700000Y-128450000D03*
D10*
X105800000Y-128450000D03*
X105800000Y-130150000D03*
D11*
X106700000Y-130150000D03*
D10*
X107600000Y-130150000D03*
%TD*%
%TO.C,D54*%
X113000000Y-109850000D03*
D11*
X112100000Y-109850000D03*
D10*
X111200000Y-109850000D03*
X111200000Y-111550000D03*
D11*
X112100000Y-111550000D03*
D10*
X113000000Y-111550000D03*
%TD*%
%TO.C,D18*%
X75200000Y-97450000D03*
D11*
X74300000Y-97450000D03*
D10*
X73400000Y-97450000D03*
X73400000Y-99150000D03*
D11*
X74300000Y-99150000D03*
D10*
X75200000Y-99150000D03*
%TD*%
%TO.C,D48*%
X102200000Y-128450000D03*
D11*
X101300000Y-128450000D03*
D10*
X100400000Y-128450000D03*
X100400000Y-130150000D03*
D11*
X101300000Y-130150000D03*
D10*
X102200000Y-130150000D03*
%TD*%
%TO.C,D27*%
X107600000Y-69550000D03*
D11*
X106700000Y-69550000D03*
D10*
X105800000Y-69550000D03*
X105800000Y-71250000D03*
D11*
X106700000Y-71250000D03*
D10*
X107600000Y-71250000D03*
%TD*%
%TO.C,D47*%
X69800000Y-131550000D03*
D11*
X68900000Y-131550000D03*
D10*
X68000000Y-131550000D03*
X68000000Y-133250000D03*
D11*
X68900000Y-133250000D03*
D10*
X69800000Y-133250000D03*
%TD*%
%TO.C,D64*%
X102200000Y-78850000D03*
D11*
X101300000Y-78850000D03*
D10*
X100400000Y-78850000D03*
X100400000Y-80550000D03*
D11*
X101300000Y-80550000D03*
D10*
X102200000Y-80550000D03*
%TD*%
%TO.C,D22*%
X129200000Y-85050000D03*
D11*
X128300000Y-85050000D03*
D10*
X127400000Y-85050000D03*
X127400000Y-86750000D03*
D11*
X128300000Y-86750000D03*
D10*
X129200000Y-86750000D03*
%TD*%
%TO.C,D45*%
X102200000Y-137750000D03*
D11*
X101300000Y-137750000D03*
D10*
X100400000Y-137750000D03*
X100400000Y-139450000D03*
D11*
X101300000Y-139450000D03*
D10*
X102200000Y-139450000D03*
%TD*%
%TO.C,D1*%
X53600000Y-150150000D03*
D11*
X52700000Y-150150000D03*
D10*
X51800000Y-150150000D03*
X51800000Y-151850000D03*
D11*
X52700000Y-151850000D03*
D10*
X53600000Y-151850000D03*
%TD*%
%TO.C,D12*%
X64400000Y-116050000D03*
D11*
X63500000Y-116050000D03*
D10*
X62600000Y-116050000D03*
X62600000Y-117750000D03*
D11*
X63500000Y-117750000D03*
D10*
X64400000Y-117750000D03*
%TD*%
%TO.C,D4*%
X129200000Y-140850000D03*
D11*
X128300000Y-140850000D03*
D10*
X127400000Y-140850000D03*
X127400000Y-142550000D03*
D11*
X128300000Y-142550000D03*
D10*
X129200000Y-142550000D03*
%TD*%
%TO.C,D69*%
X80600000Y-63350000D03*
D11*
X79700000Y-63350000D03*
D10*
X78800000Y-63350000D03*
X78800000Y-65050000D03*
D11*
X79700000Y-65050000D03*
D10*
X80600000Y-65050000D03*
%TD*%
%TO.C,D1*%
X75200000Y-150150000D03*
D11*
X74300000Y-150150000D03*
D10*
X73400000Y-150150000D03*
X73400000Y-151850000D03*
D11*
X74300000Y-151850000D03*
D10*
X75200000Y-151850000D03*
%TD*%
%TO.C,D4*%
X64400000Y-140850000D03*
D11*
X63500000Y-140850000D03*
D10*
X62600000Y-140850000D03*
X62600000Y-142550000D03*
D11*
X63500000Y-142550000D03*
D10*
X64400000Y-142550000D03*
%TD*%
%TO.C,D29*%
X96800000Y-63350000D03*
D11*
X95900000Y-63350000D03*
D10*
X95000000Y-63350000D03*
X95000000Y-65050000D03*
D11*
X95900000Y-65050000D03*
D10*
X96800000Y-65050000D03*
%TD*%
%TO.C,D52*%
X59000000Y-116050000D03*
D11*
X58100000Y-116050000D03*
D10*
X57200000Y-116050000D03*
X57200000Y-117750000D03*
D11*
X58100000Y-117750000D03*
D10*
X59000000Y-117750000D03*
%TD*%
%TO.C,D31*%
X75200000Y-57150000D03*
D11*
X74300000Y-57150000D03*
D10*
X73400000Y-57150000D03*
X73400000Y-58850000D03*
D11*
X74300000Y-58850000D03*
D10*
X75200000Y-58850000D03*
%TD*%
%TO.C,D75*%
X80600000Y-44750000D03*
D11*
X79700000Y-44750000D03*
D10*
X78800000Y-44750000D03*
X78800000Y-46450000D03*
D11*
X79700000Y-46450000D03*
D10*
X80600000Y-46450000D03*
%TD*%
%TO.C,D25*%
X129200000Y-75750000D03*
D11*
X128300000Y-75750000D03*
D10*
X127400000Y-75750000D03*
X127400000Y-77450000D03*
D11*
X128300000Y-77450000D03*
D10*
X129200000Y-77450000D03*
%TD*%
%TO.C,D22*%
X75200000Y-85050000D03*
D11*
X74300000Y-85050000D03*
D10*
X73400000Y-85050000D03*
X73400000Y-86750000D03*
D11*
X74300000Y-86750000D03*
D10*
X75200000Y-86750000D03*
%TD*%
%TO.C,D13*%
X129190000Y-112950000D03*
D11*
X128290000Y-112950000D03*
D10*
X127390000Y-112950000D03*
X127390000Y-114650000D03*
D11*
X128290000Y-114650000D03*
D10*
X129190000Y-114650000D03*
%TD*%
%TO.C,D68*%
X123800000Y-66450000D03*
D11*
X122900000Y-66450000D03*
D10*
X122000000Y-66450000D03*
X122000000Y-68150000D03*
D11*
X122900000Y-68150000D03*
D10*
X123800000Y-68150000D03*
%TD*%
%TO.C,D18*%
X118400000Y-97450000D03*
D11*
X117500000Y-97450000D03*
D10*
X116600000Y-97450000D03*
X116600000Y-99150000D03*
D11*
X117500000Y-99150000D03*
D10*
X118400000Y-99150000D03*
%TD*%
%TO.C,D46*%
X59000000Y-134650000D03*
D11*
X58100000Y-134650000D03*
D10*
X57200000Y-134650000D03*
X57200000Y-136350000D03*
D11*
X58100000Y-136350000D03*
D10*
X59000000Y-136350000D03*
%TD*%
%TO.C,D62*%
X91400000Y-85050000D03*
D11*
X90500000Y-85050000D03*
D10*
X89600000Y-85050000D03*
X89600000Y-86750000D03*
D11*
X90500000Y-86750000D03*
D10*
X91400000Y-86750000D03*
%TD*%
%TO.C,D36*%
X75200000Y-41650000D03*
D11*
X74300000Y-41650000D03*
D10*
X73400000Y-41650000D03*
X73400000Y-43350000D03*
D11*
X74300000Y-43350000D03*
D10*
X75200000Y-43350000D03*
%TD*%
%TO.C,D10*%
X86000000Y-122250000D03*
D11*
X85100000Y-122250000D03*
D10*
X84200000Y-122250000D03*
X84200000Y-123950000D03*
D11*
X85100000Y-123950000D03*
D10*
X86000000Y-123950000D03*
%TD*%
%TO.C,D34*%
X75200000Y-47850000D03*
D11*
X74300000Y-47850000D03*
D10*
X73400000Y-47850000D03*
X73400000Y-49550000D03*
D11*
X74300000Y-49550000D03*
D10*
X75200000Y-49550000D03*
%TD*%
%TO.C,D20*%
X64400000Y-91250000D03*
D11*
X63500000Y-91250000D03*
D10*
X62600000Y-91250000D03*
X62600000Y-92950000D03*
D11*
X63500000Y-92950000D03*
D10*
X64400000Y-92950000D03*
%TD*%
%TO.C,D45*%
X69800000Y-137750000D03*
D11*
X68900000Y-137750000D03*
D10*
X68000000Y-137750000D03*
X68000000Y-139450000D03*
D11*
X68900000Y-139450000D03*
D10*
X69800000Y-139450000D03*
%TD*%
%TO.C,D34*%
X107600000Y-47850000D03*
D11*
X106700000Y-47850000D03*
D10*
X105800000Y-47850000D03*
X105800000Y-49550000D03*
D11*
X106700000Y-49550000D03*
D10*
X107600000Y-49550000D03*
%TD*%
%TO.C,D70*%
X91400000Y-60250000D03*
D11*
X90500000Y-60250000D03*
D10*
X89600000Y-60250000D03*
X89600000Y-61950000D03*
D11*
X90500000Y-61950000D03*
D10*
X91400000Y-61950000D03*
%TD*%
%TO.C,D15*%
X107600000Y-106750000D03*
D11*
X106700000Y-106750000D03*
D10*
X105800000Y-106750000D03*
X105800000Y-108450000D03*
D11*
X106700000Y-108450000D03*
D10*
X107600000Y-108450000D03*
%TD*%
%TO.C,D48*%
X80600000Y-128450000D03*
D11*
X79700000Y-128450000D03*
D10*
X78800000Y-128450000D03*
X78800000Y-130150000D03*
D11*
X79700000Y-130150000D03*
D10*
X80600000Y-130150000D03*
%TD*%
%TO.C,D67*%
X59000000Y-69550000D03*
D11*
X58100000Y-69550000D03*
D10*
X57200000Y-69550000D03*
X57200000Y-71250000D03*
D11*
X58100000Y-71250000D03*
D10*
X59000000Y-71250000D03*
%TD*%
%TO.C,D23*%
X96800000Y-81950000D03*
D11*
X95900000Y-81950000D03*
D10*
X95000000Y-81950000D03*
X95000000Y-83650000D03*
D11*
X95900000Y-83650000D03*
D10*
X96800000Y-83650000D03*
%TD*%
%TO.C,D73*%
X102200000Y-50950000D03*
D11*
X101300000Y-50950000D03*
D10*
X100400000Y-50950000D03*
X100400000Y-52650000D03*
D11*
X101300000Y-52650000D03*
D10*
X102200000Y-52650000D03*
%TD*%
%TO.C,D63*%
X80600000Y-81950000D03*
D11*
X79700000Y-81950000D03*
D10*
X78800000Y-81950000D03*
X78800000Y-83650000D03*
D11*
X79700000Y-83650000D03*
D10*
X80600000Y-83650000D03*
%TD*%
%TO.C,D23*%
X86000000Y-81950000D03*
D11*
X85100000Y-81950000D03*
D10*
X84200000Y-81950000D03*
X84200000Y-83650000D03*
D11*
X85100000Y-83650000D03*
D10*
X86000000Y-83650000D03*
%TD*%
%TO.C,D32*%
X107600000Y-54050000D03*
D11*
X106700000Y-54050000D03*
D10*
X105800000Y-54050000D03*
X105800000Y-55750000D03*
D11*
X106700000Y-55750000D03*
D10*
X107600000Y-55750000D03*
%TD*%
%TO.C,D58*%
X134600000Y-97450000D03*
D11*
X133700000Y-97450000D03*
D10*
X132800000Y-97450000D03*
X132800000Y-99150000D03*
D11*
X133700000Y-99150000D03*
D10*
X134600000Y-99150000D03*
%TD*%
%TO.C,D48*%
X134600000Y-128450000D03*
D11*
X133700000Y-128450000D03*
D10*
X132800000Y-128450000D03*
X132800000Y-130150000D03*
D11*
X133700000Y-130150000D03*
D10*
X134600000Y-130150000D03*
%TD*%
%TO.C,D29*%
X86000000Y-63350000D03*
D11*
X85100000Y-63350000D03*
D10*
X84200000Y-63350000D03*
X84200000Y-65050000D03*
D11*
X85100000Y-65050000D03*
D10*
X86000000Y-65050000D03*
%TD*%
%TO.C,D5*%
X53600000Y-137750000D03*
D11*
X52700000Y-137750000D03*
D10*
X51800000Y-137750000D03*
X51800000Y-139450000D03*
D11*
X52700000Y-139450000D03*
D10*
X53600000Y-139450000D03*
%TD*%
%TO.C,D13*%
X107590000Y-112950000D03*
D11*
X106690000Y-112950000D03*
D10*
X105790000Y-112950000D03*
X105790000Y-114650000D03*
D11*
X106690000Y-114650000D03*
D10*
X107590000Y-114650000D03*
%TD*%
%TO.C,D48*%
X113000000Y-128450000D03*
D11*
X112100000Y-128450000D03*
D10*
X111200000Y-128450000D03*
X111200000Y-130150000D03*
D11*
X112100000Y-130150000D03*
D10*
X113000000Y-130150000D03*
%TD*%
%TO.C,D53*%
X113000000Y-112950000D03*
D11*
X112100000Y-112950000D03*
D10*
X111200000Y-112950000D03*
X111200000Y-114650000D03*
D11*
X112100000Y-114650000D03*
D10*
X113000000Y-114650000D03*
%TD*%
%TO.C,D73*%
X80600000Y-50950000D03*
D11*
X79700000Y-50950000D03*
D10*
X78800000Y-50950000D03*
X78800000Y-52650000D03*
D11*
X79700000Y-52650000D03*
D10*
X80600000Y-52650000D03*
%TD*%
%TO.C,D6*%
X64400000Y-134650000D03*
D11*
X63500000Y-134650000D03*
D10*
X62600000Y-134650000D03*
X62600000Y-136350000D03*
D11*
X63500000Y-136350000D03*
D10*
X64400000Y-136350000D03*
%TD*%
%TO.C,D22*%
X64400000Y-85050000D03*
D11*
X63500000Y-85050000D03*
D10*
X62600000Y-85050000D03*
X62600000Y-86750000D03*
D11*
X63500000Y-86750000D03*
D10*
X64400000Y-86750000D03*
%TD*%
%TO.C,D15*%
X75200000Y-106750000D03*
D11*
X74300000Y-106750000D03*
D10*
X73400000Y-106750000D03*
X73400000Y-108450000D03*
D11*
X74300000Y-108450000D03*
D10*
X75200000Y-108450000D03*
%TD*%
%TO.C,D28*%
X75200000Y-66450000D03*
D11*
X74300000Y-66450000D03*
D10*
X73400000Y-66450000D03*
X73400000Y-68150000D03*
D11*
X74300000Y-68150000D03*
D10*
X75200000Y-68150000D03*
%TD*%
%TO.C,D54*%
X134600000Y-109850000D03*
D11*
X133700000Y-109850000D03*
D10*
X132800000Y-109850000D03*
X132800000Y-111550000D03*
D11*
X133700000Y-111550000D03*
D10*
X134600000Y-111550000D03*
%TD*%
%TO.C,D37*%
X53600000Y-38550000D03*
D11*
X52700000Y-38550000D03*
D10*
X51800000Y-38550000D03*
X51800000Y-40250000D03*
D11*
X52700000Y-40250000D03*
D10*
X53600000Y-40250000D03*
%TD*%
%TO.C,D15*%
X53600000Y-106750000D03*
D11*
X52700000Y-106750000D03*
D10*
X51800000Y-106750000D03*
X51800000Y-108450000D03*
D11*
X52700000Y-108450000D03*
D10*
X53600000Y-108450000D03*
%TD*%
%TO.C,D12*%
X129200000Y-116050000D03*
D11*
X128300000Y-116050000D03*
D10*
X127400000Y-116050000D03*
X127400000Y-117750000D03*
D11*
X128300000Y-117750000D03*
D10*
X129200000Y-117750000D03*
%TD*%
%TO.C,D74*%
X69800000Y-47850000D03*
D11*
X68900000Y-47850000D03*
D10*
X68000000Y-47850000D03*
X68000000Y-49550000D03*
D11*
X68900000Y-49550000D03*
D10*
X69800000Y-49550000D03*
%TD*%
%TO.C,D74*%
X134600000Y-47850000D03*
D11*
X133700000Y-47850000D03*
D10*
X132800000Y-47850000D03*
X132800000Y-49550000D03*
D11*
X133700000Y-49550000D03*
D10*
X134600000Y-49550000D03*
%TD*%
%TO.C,D34*%
X129200000Y-47850000D03*
D11*
X128300000Y-47850000D03*
D10*
X127400000Y-47850000D03*
X127400000Y-49550000D03*
D11*
X128300000Y-49550000D03*
D10*
X129200000Y-49550000D03*
%TD*%
%TO.C,D80*%
X134600000Y-29250000D03*
D11*
X133700000Y-29250000D03*
D10*
X132800000Y-29250000D03*
X132800000Y-30950000D03*
D11*
X133700000Y-30950000D03*
D10*
X134600000Y-30950000D03*
%TD*%
%TO.C,D51*%
X69800000Y-119150000D03*
D11*
X68900000Y-119150000D03*
D10*
X68000000Y-119150000D03*
X68000000Y-120850000D03*
D11*
X68900000Y-120850000D03*
D10*
X69800000Y-120850000D03*
%TD*%
%TO.C,D66*%
X134600000Y-72650000D03*
D11*
X133700000Y-72650000D03*
D10*
X132800000Y-72650000D03*
X132800000Y-74350000D03*
D11*
X133700000Y-74350000D03*
D10*
X134600000Y-74350000D03*
%TD*%
%TO.C,D7*%
X53600000Y-131550000D03*
D11*
X52700000Y-131550000D03*
D10*
X51800000Y-131550000D03*
X51800000Y-133250000D03*
D11*
X52700000Y-133250000D03*
D10*
X53600000Y-133250000D03*
%TD*%
%TO.C,D37*%
X107600000Y-38550000D03*
D11*
X106700000Y-38550000D03*
D10*
X105800000Y-38550000D03*
X105800000Y-40250000D03*
D11*
X106700000Y-40250000D03*
D10*
X107600000Y-40250000D03*
%TD*%
%TO.C,D12*%
X86000000Y-116050000D03*
D11*
X85100000Y-116050000D03*
D10*
X84200000Y-116050000D03*
X84200000Y-117750000D03*
D11*
X85100000Y-117750000D03*
D10*
X86000000Y-117750000D03*
%TD*%
%TO.C,D64*%
X134600000Y-78850000D03*
D11*
X133700000Y-78850000D03*
D10*
X132800000Y-78850000D03*
X132800000Y-80550000D03*
D11*
X133700000Y-80550000D03*
D10*
X134600000Y-80550000D03*
%TD*%
%TO.C,D28*%
X64400000Y-66450000D03*
D11*
X63500000Y-66450000D03*
D10*
X62600000Y-66450000D03*
X62600000Y-68150000D03*
D11*
X63500000Y-68150000D03*
D10*
X64400000Y-68150000D03*
%TD*%
%TO.C,D35*%
X75200000Y-44750000D03*
D11*
X74300000Y-44750000D03*
D10*
X73400000Y-44750000D03*
X73400000Y-46450000D03*
D11*
X74300000Y-46450000D03*
D10*
X75200000Y-46450000D03*
%TD*%
%TO.C,D45*%
X113000000Y-137750000D03*
D11*
X112100000Y-137750000D03*
D10*
X111200000Y-137750000D03*
X111200000Y-139450000D03*
D11*
X112100000Y-139450000D03*
D10*
X113000000Y-139450000D03*
%TD*%
%TO.C,D77*%
X80600000Y-38550000D03*
D11*
X79700000Y-38550000D03*
D10*
X78800000Y-38550000D03*
X78800000Y-40250000D03*
D11*
X79700000Y-40250000D03*
D10*
X80600000Y-40250000D03*
%TD*%
%TO.C,D49*%
X113000000Y-125350000D03*
D11*
X112100000Y-125350000D03*
D10*
X111200000Y-125350000D03*
X111200000Y-127050000D03*
D11*
X112100000Y-127050000D03*
D10*
X113000000Y-127050000D03*
%TD*%
%TO.C,D70*%
X69800000Y-60250000D03*
D11*
X68900000Y-60250000D03*
D10*
X68000000Y-60250000D03*
X68000000Y-61950000D03*
D11*
X68900000Y-61950000D03*
D10*
X69800000Y-61950000D03*
%TD*%
%TO.C,D25*%
X118400000Y-75750000D03*
D11*
X117500000Y-75750000D03*
D10*
X116600000Y-75750000D03*
X116600000Y-77450000D03*
D11*
X117500000Y-77450000D03*
D10*
X118400000Y-77450000D03*
%TD*%
%TO.C,D20*%
X107600000Y-91250000D03*
D11*
X106700000Y-91250000D03*
D10*
X105800000Y-91250000D03*
X105800000Y-92950000D03*
D11*
X106700000Y-92950000D03*
D10*
X107600000Y-92950000D03*
%TD*%
%TO.C,D31*%
X118400000Y-57150000D03*
D11*
X117500000Y-57150000D03*
D10*
X116600000Y-57150000D03*
X116600000Y-58850000D03*
D11*
X117500000Y-58850000D03*
D10*
X118400000Y-58850000D03*
%TD*%
%TO.C,D38*%
X96800000Y-35450000D03*
D11*
X95900000Y-35450000D03*
D10*
X95000000Y-35450000D03*
X95000000Y-37150000D03*
D11*
X95900000Y-37150000D03*
D10*
X96800000Y-37150000D03*
%TD*%
%TO.C,D61*%
X113000000Y-88150000D03*
D11*
X112100000Y-88150000D03*
D10*
X111200000Y-88150000D03*
X111200000Y-89850000D03*
D11*
X112100000Y-89850000D03*
D10*
X113000000Y-89850000D03*
%TD*%
%TO.C,D66*%
X69800000Y-72650000D03*
D11*
X68900000Y-72650000D03*
D10*
X68000000Y-72650000D03*
X68000000Y-74350000D03*
D11*
X68900000Y-74350000D03*
D10*
X69800000Y-74350000D03*
%TD*%
%TO.C,D13*%
X53590000Y-112950000D03*
D11*
X52690000Y-112950000D03*
D10*
X51790000Y-112950000D03*
X51790000Y-114650000D03*
D11*
X52690000Y-114650000D03*
D10*
X53590000Y-114650000D03*
%TD*%
%TO.C,D70*%
X80600000Y-60250000D03*
D11*
X79700000Y-60250000D03*
D10*
X78800000Y-60250000D03*
X78800000Y-61950000D03*
D11*
X79700000Y-61950000D03*
D10*
X80600000Y-61950000D03*
%TD*%
%TO.C,D15*%
X118400000Y-106750000D03*
D11*
X117500000Y-106750000D03*
D10*
X116600000Y-106750000D03*
X116600000Y-108450000D03*
D11*
X117500000Y-108450000D03*
D10*
X118400000Y-108450000D03*
%TD*%
%TO.C,D1*%
X86000000Y-150150000D03*
D11*
X85100000Y-150150000D03*
D10*
X84200000Y-150150000D03*
X84200000Y-151850000D03*
D11*
X85100000Y-151850000D03*
D10*
X86000000Y-151850000D03*
%TD*%
%TO.C,D37*%
X96800000Y-38550000D03*
D11*
X95900000Y-38550000D03*
D10*
X95000000Y-38550000D03*
X95000000Y-40250000D03*
D11*
X95900000Y-40250000D03*
D10*
X96800000Y-40250000D03*
%TD*%
%TO.C,D23*%
X129200000Y-81950000D03*
D11*
X128300000Y-81950000D03*
D10*
X127400000Y-81950000D03*
X127400000Y-83650000D03*
D11*
X128300000Y-83650000D03*
D10*
X129200000Y-83650000D03*
%TD*%
%TO.C,D32*%
X75200000Y-54050000D03*
D11*
X74300000Y-54050000D03*
D10*
X73400000Y-54050000D03*
X73400000Y-55750000D03*
D11*
X74300000Y-55750000D03*
D10*
X75200000Y-55750000D03*
%TD*%
%TO.C,D19*%
X75200000Y-94350000D03*
D11*
X74300000Y-94350000D03*
D10*
X73400000Y-94350000D03*
X73400000Y-96050000D03*
D11*
X74300000Y-96050000D03*
D10*
X75200000Y-96050000D03*
%TD*%
%TO.C,D30*%
X118400000Y-60250000D03*
D11*
X117500000Y-60250000D03*
D10*
X116600000Y-60250000D03*
X116600000Y-61950000D03*
D11*
X117500000Y-61950000D03*
D10*
X118400000Y-61950000D03*
%TD*%
%TO.C,D75*%
X69800000Y-44750000D03*
D11*
X68900000Y-44750000D03*
D10*
X68000000Y-44750000D03*
X68000000Y-46450000D03*
D11*
X68900000Y-46450000D03*
D10*
X69800000Y-46450000D03*
%TD*%
%TO.C,D34*%
X118400000Y-47850000D03*
D11*
X117500000Y-47850000D03*
D10*
X116600000Y-47850000D03*
X116600000Y-49550000D03*
D11*
X117500000Y-49550000D03*
D10*
X118400000Y-49550000D03*
%TD*%
%TO.C,D17*%
X53600000Y-100550000D03*
D11*
X52700000Y-100550000D03*
D10*
X51800000Y-100550000D03*
X51800000Y-102250000D03*
D11*
X52700000Y-102250000D03*
D10*
X53600000Y-102250000D03*
%TD*%
%TO.C,D16*%
X107600000Y-103650000D03*
D11*
X106700000Y-103650000D03*
D10*
X105800000Y-103650000D03*
X105800000Y-105350000D03*
D11*
X106700000Y-105350000D03*
D10*
X107600000Y-105350000D03*
%TD*%
%TO.C,D79*%
X102200000Y-32350000D03*
D11*
X101300000Y-32350000D03*
D10*
X100400000Y-32350000D03*
X100400000Y-34050000D03*
D11*
X101300000Y-34050000D03*
D10*
X102200000Y-34050000D03*
%TD*%
%TO.C,D22*%
X107600000Y-85050000D03*
D11*
X106700000Y-85050000D03*
D10*
X105800000Y-85050000D03*
X105800000Y-86750000D03*
D11*
X106700000Y-86750000D03*
D10*
X107600000Y-86750000D03*
%TD*%
%TO.C,D36*%
X64400000Y-41650000D03*
D11*
X63500000Y-41650000D03*
D10*
X62600000Y-41650000D03*
X62600000Y-43350000D03*
D11*
X63500000Y-43350000D03*
D10*
X64400000Y-43350000D03*
%TD*%
%TO.C,D58*%
X91400000Y-97450000D03*
D11*
X90500000Y-97450000D03*
D10*
X89600000Y-97450000D03*
X89600000Y-99150000D03*
D11*
X90500000Y-99150000D03*
D10*
X91400000Y-99150000D03*
%TD*%
%TO.C,D27*%
X129200000Y-69550000D03*
D11*
X128300000Y-69550000D03*
D10*
X127400000Y-69550000D03*
X127400000Y-71250000D03*
D11*
X128300000Y-71250000D03*
D10*
X129200000Y-71250000D03*
%TD*%
%TO.C,D69*%
X69800000Y-63350000D03*
D11*
X68900000Y-63350000D03*
D10*
X68000000Y-63350000D03*
X68000000Y-65050000D03*
D11*
X68900000Y-65050000D03*
D10*
X69800000Y-65050000D03*
%TD*%
%TO.C,D43*%
X59000000Y-143950000D03*
D11*
X58100000Y-143950000D03*
D10*
X57200000Y-143950000D03*
X57200000Y-145650000D03*
D11*
X58100000Y-145650000D03*
D10*
X59000000Y-145650000D03*
%TD*%
%TO.C,D66*%
X91400000Y-72650000D03*
D11*
X90500000Y-72650000D03*
D10*
X89600000Y-72650000D03*
X89600000Y-74350000D03*
D11*
X90500000Y-74350000D03*
D10*
X91400000Y-74350000D03*
%TD*%
%TO.C,D76*%
X123800000Y-41650000D03*
D11*
X122900000Y-41650000D03*
D10*
X122000000Y-41650000D03*
X122000000Y-43350000D03*
D11*
X122900000Y-43350000D03*
D10*
X123800000Y-43350000D03*
%TD*%
%TO.C,D7*%
X107600000Y-131550000D03*
D11*
X106700000Y-131550000D03*
D10*
X105800000Y-131550000D03*
X105800000Y-133250000D03*
D11*
X106700000Y-133250000D03*
D10*
X107600000Y-133250000D03*
%TD*%
%TO.C,D80*%
X123800000Y-29250000D03*
D11*
X122900000Y-29250000D03*
D10*
X122000000Y-29250000D03*
X122000000Y-30950000D03*
D11*
X122900000Y-30950000D03*
D10*
X123800000Y-30950000D03*
%TD*%
%TO.C,D69*%
X102200000Y-63350000D03*
D11*
X101300000Y-63350000D03*
D10*
X100400000Y-63350000D03*
X100400000Y-65050000D03*
D11*
X101300000Y-65050000D03*
D10*
X102200000Y-65050000D03*
%TD*%
%TO.C,D59*%
X59000000Y-94350000D03*
D11*
X58100000Y-94350000D03*
D10*
X57200000Y-94350000D03*
X57200000Y-96050000D03*
D11*
X58100000Y-96050000D03*
D10*
X59000000Y-96050000D03*
%TD*%
%TO.C,D6*%
X75200000Y-134650000D03*
D11*
X74300000Y-134650000D03*
D10*
X73400000Y-134650000D03*
X73400000Y-136350000D03*
D11*
X74300000Y-136350000D03*
D10*
X75200000Y-136350000D03*
%TD*%
%TO.C,D57*%
X69800000Y-100550000D03*
D11*
X68900000Y-100550000D03*
D10*
X68000000Y-100550000D03*
X68000000Y-102250000D03*
D11*
X68900000Y-102250000D03*
D10*
X69800000Y-102250000D03*
%TD*%
%TO.C,D34*%
X86000000Y-47850000D03*
D11*
X85100000Y-47850000D03*
D10*
X84200000Y-47850000D03*
X84200000Y-49550000D03*
D11*
X85100000Y-49550000D03*
D10*
X86000000Y-49550000D03*
%TD*%
%TO.C,D53*%
X59000000Y-112950000D03*
D11*
X58100000Y-112950000D03*
D10*
X57200000Y-112950000D03*
X57200000Y-114650000D03*
D11*
X58100000Y-114650000D03*
D10*
X59000000Y-114650000D03*
%TD*%
%TO.C,D72*%
X80600000Y-54050000D03*
D11*
X79700000Y-54050000D03*
D10*
X78800000Y-54050000D03*
X78800000Y-55750000D03*
D11*
X79700000Y-55750000D03*
D10*
X80600000Y-55750000D03*
%TD*%
%TO.C,D50*%
X91400000Y-122250000D03*
D11*
X90500000Y-122250000D03*
D10*
X89600000Y-122250000D03*
X89600000Y-123950000D03*
D11*
X90500000Y-123950000D03*
D10*
X91400000Y-123950000D03*
%TD*%
%TO.C,D7*%
X75200000Y-131550000D03*
D11*
X74300000Y-131550000D03*
D10*
X73400000Y-131550000D03*
X73400000Y-133250000D03*
D11*
X74300000Y-133250000D03*
D10*
X75200000Y-133250000D03*
%TD*%
%TO.C,D65*%
X123800000Y-75750000D03*
D11*
X122900000Y-75750000D03*
D10*
X122000000Y-75750000D03*
X122000000Y-77450000D03*
D11*
X122900000Y-77450000D03*
D10*
X123800000Y-77450000D03*
%TD*%
%TO.C,D33*%
X86000000Y-50950000D03*
D11*
X85100000Y-50950000D03*
D10*
X84200000Y-50950000D03*
X84200000Y-52650000D03*
D11*
X85100000Y-52650000D03*
D10*
X86000000Y-52650000D03*
%TD*%
%TO.C,D24*%
X118400000Y-78850000D03*
D11*
X117500000Y-78850000D03*
D10*
X116600000Y-78850000D03*
X116600000Y-80550000D03*
D11*
X117500000Y-80550000D03*
D10*
X118400000Y-80550000D03*
%TD*%
%TO.C,D10*%
X129200000Y-122250000D03*
D11*
X128300000Y-122250000D03*
D10*
X127400000Y-122250000D03*
X127400000Y-123950000D03*
D11*
X128300000Y-123950000D03*
D10*
X129200000Y-123950000D03*
%TD*%
%TO.C,D28*%
X129200000Y-66450000D03*
D11*
X128300000Y-66450000D03*
D10*
X127400000Y-66450000D03*
X127400000Y-68150000D03*
D11*
X128300000Y-68150000D03*
D10*
X129200000Y-68150000D03*
%TD*%
%TO.C,D15*%
X129200000Y-106750000D03*
D11*
X128300000Y-106750000D03*
D10*
X127400000Y-106750000D03*
X127400000Y-108450000D03*
D11*
X128300000Y-108450000D03*
D10*
X129200000Y-108450000D03*
%TD*%
%TO.C,D5*%
X75200000Y-137750000D03*
D11*
X74300000Y-137750000D03*
D10*
X73400000Y-137750000D03*
X73400000Y-139450000D03*
D11*
X74300000Y-139450000D03*
D10*
X75200000Y-139450000D03*
%TD*%
%TO.C,D41*%
X134600000Y-150150000D03*
D11*
X133700000Y-150150000D03*
D10*
X132800000Y-150150000D03*
X132800000Y-151850000D03*
D11*
X133700000Y-151850000D03*
D10*
X134600000Y-151850000D03*
%TD*%
%TO.C,D22*%
X86000000Y-85050000D03*
D11*
X85100000Y-85050000D03*
D10*
X84200000Y-85050000D03*
X84200000Y-86750000D03*
D11*
X85100000Y-86750000D03*
D10*
X86000000Y-86750000D03*
%TD*%
%TO.C,D16*%
X129200000Y-103650000D03*
D11*
X128300000Y-103650000D03*
D10*
X127400000Y-103650000D03*
X127400000Y-105350000D03*
D11*
X128300000Y-105350000D03*
D10*
X129200000Y-105350000D03*
%TD*%
%TO.C,D35*%
X86000000Y-44750000D03*
D11*
X85100000Y-44750000D03*
D10*
X84200000Y-44750000D03*
X84200000Y-46450000D03*
D11*
X85100000Y-46450000D03*
D10*
X86000000Y-46450000D03*
%TD*%
%TO.C,D70*%
X59000000Y-60250000D03*
D11*
X58100000Y-60250000D03*
D10*
X57200000Y-60250000D03*
X57200000Y-61950000D03*
D11*
X58100000Y-61950000D03*
D10*
X59000000Y-61950000D03*
%TD*%
%TO.C,D56*%
X69800000Y-103650000D03*
D11*
X68900000Y-103650000D03*
D10*
X68000000Y-103650000D03*
X68000000Y-105350000D03*
D11*
X68900000Y-105350000D03*
D10*
X69800000Y-105350000D03*
%TD*%
%TO.C,D30*%
X107600000Y-60250000D03*
D11*
X106700000Y-60250000D03*
D10*
X105800000Y-60250000D03*
X105800000Y-61950000D03*
D11*
X106700000Y-61950000D03*
D10*
X107600000Y-61950000D03*
%TD*%
%TO.C,D72*%
X59000000Y-54050000D03*
D11*
X58100000Y-54050000D03*
D10*
X57200000Y-54050000D03*
X57200000Y-55750000D03*
D11*
X58100000Y-55750000D03*
D10*
X59000000Y-55750000D03*
%TD*%
%TO.C,D27*%
X53600000Y-69550000D03*
D11*
X52700000Y-69550000D03*
D10*
X51800000Y-69550000D03*
X51800000Y-71250000D03*
D11*
X52700000Y-71250000D03*
D10*
X53600000Y-71250000D03*
%TD*%
%TO.C,D9*%
X129200000Y-125350000D03*
D11*
X128300000Y-125350000D03*
D10*
X127400000Y-125350000D03*
X127400000Y-127050000D03*
D11*
X128300000Y-127050000D03*
D10*
X129200000Y-127050000D03*
%TD*%
%TO.C,D2*%
X118400000Y-147050000D03*
D11*
X117500000Y-147050000D03*
D10*
X116600000Y-147050000D03*
X116600000Y-148750000D03*
D11*
X117500000Y-148750000D03*
D10*
X118400000Y-148750000D03*
%TD*%
%TO.C,D66*%
X102200000Y-72650000D03*
D11*
X101300000Y-72650000D03*
D10*
X100400000Y-72650000D03*
X100400000Y-74350000D03*
D11*
X101300000Y-74350000D03*
D10*
X102200000Y-74350000D03*
%TD*%
%TO.C,D16*%
X64400000Y-103650000D03*
D11*
X63500000Y-103650000D03*
D10*
X62600000Y-103650000D03*
X62600000Y-105350000D03*
D11*
X63500000Y-105350000D03*
D10*
X64400000Y-105350000D03*
%TD*%
%TO.C,D80*%
X113000000Y-29250000D03*
D11*
X112100000Y-29250000D03*
D10*
X111200000Y-29250000D03*
X111200000Y-30950000D03*
D11*
X112100000Y-30950000D03*
D10*
X113000000Y-30950000D03*
%TD*%
%TO.C,D71*%
X113000000Y-57150000D03*
D11*
X112100000Y-57150000D03*
D10*
X111200000Y-57150000D03*
X111200000Y-58850000D03*
D11*
X112100000Y-58850000D03*
D10*
X113000000Y-58850000D03*
%TD*%
%TO.C,D21*%
X75200000Y-88150000D03*
D11*
X74300000Y-88150000D03*
D10*
X73400000Y-88150000D03*
X73400000Y-89850000D03*
D11*
X74300000Y-89850000D03*
D10*
X75200000Y-89850000D03*
%TD*%
%TO.C,D18*%
X129200000Y-97450000D03*
D11*
X128300000Y-97450000D03*
D10*
X127400000Y-97450000D03*
X127400000Y-99150000D03*
D11*
X128300000Y-99150000D03*
D10*
X129200000Y-99150000D03*
%TD*%
%TO.C,D58*%
X69800000Y-97450000D03*
D11*
X68900000Y-97450000D03*
D10*
X68000000Y-97450000D03*
X68000000Y-99150000D03*
D11*
X68900000Y-99150000D03*
D10*
X69800000Y-99150000D03*
%TD*%
%TO.C,D40*%
X118400000Y-29250000D03*
D11*
X117500000Y-29250000D03*
D10*
X116600000Y-29250000D03*
X116600000Y-30950000D03*
D11*
X117500000Y-30950000D03*
D10*
X118400000Y-30950000D03*
%TD*%
%TO.C,D79*%
X134600000Y-32350000D03*
D11*
X133700000Y-32350000D03*
D10*
X132800000Y-32350000D03*
X132800000Y-34050000D03*
D11*
X133700000Y-34050000D03*
D10*
X134600000Y-34050000D03*
%TD*%
%TO.C,D76*%
X91400000Y-41650000D03*
D11*
X90500000Y-41650000D03*
D10*
X89600000Y-41650000D03*
X89600000Y-43350000D03*
D11*
X90500000Y-43350000D03*
D10*
X91400000Y-43350000D03*
%TD*%
%TO.C,D59*%
X102200000Y-94350000D03*
D11*
X101300000Y-94350000D03*
D10*
X100400000Y-94350000D03*
X100400000Y-96050000D03*
D11*
X101300000Y-96050000D03*
D10*
X102200000Y-96050000D03*
%TD*%
%TO.C,D63*%
X102200000Y-81950000D03*
D11*
X101300000Y-81950000D03*
D10*
X100400000Y-81950000D03*
X100400000Y-83650000D03*
D11*
X101300000Y-83650000D03*
D10*
X102200000Y-83650000D03*
%TD*%
%TO.C,D19*%
X86000000Y-94350000D03*
D11*
X85100000Y-94350000D03*
D10*
X84200000Y-94350000D03*
X84200000Y-96050000D03*
D11*
X85100000Y-96050000D03*
D10*
X86000000Y-96050000D03*
%TD*%
%TO.C,D10*%
X64400000Y-122250000D03*
D11*
X63500000Y-122250000D03*
D10*
X62600000Y-122250000D03*
X62600000Y-123950000D03*
D11*
X63500000Y-123950000D03*
D10*
X64400000Y-123950000D03*
%TD*%
%TO.C,D36*%
X107600000Y-41650000D03*
D11*
X106700000Y-41650000D03*
D10*
X105800000Y-41650000D03*
X105800000Y-43350000D03*
D11*
X106700000Y-43350000D03*
D10*
X107600000Y-43350000D03*
%TD*%
%TO.C,D41*%
X80600000Y-150150000D03*
D11*
X79700000Y-150150000D03*
D10*
X78800000Y-150150000D03*
X78800000Y-151850000D03*
D11*
X79700000Y-151850000D03*
D10*
X80600000Y-151850000D03*
%TD*%
%TO.C,D7*%
X86000000Y-131550000D03*
D11*
X85100000Y-131550000D03*
D10*
X84200000Y-131550000D03*
X84200000Y-133250000D03*
D11*
X85100000Y-133250000D03*
D10*
X86000000Y-133250000D03*
%TD*%
%TO.C,D51*%
X123800000Y-119150000D03*
D11*
X122900000Y-119150000D03*
D10*
X122000000Y-119150000D03*
X122000000Y-120850000D03*
D11*
X122900000Y-120850000D03*
D10*
X123800000Y-120850000D03*
%TD*%
%TO.C,D16*%
X96800000Y-103650000D03*
D11*
X95900000Y-103650000D03*
D10*
X95000000Y-103650000D03*
X95000000Y-105350000D03*
D11*
X95900000Y-105350000D03*
D10*
X96800000Y-105350000D03*
%TD*%
%TO.C,D62*%
X69800000Y-85050000D03*
D11*
X68900000Y-85050000D03*
D10*
X68000000Y-85050000D03*
X68000000Y-86750000D03*
D11*
X68900000Y-86750000D03*
D10*
X69800000Y-86750000D03*
%TD*%
%TO.C,D10*%
X107600000Y-122250000D03*
D11*
X106700000Y-122250000D03*
D10*
X105800000Y-122250000D03*
X105800000Y-123950000D03*
D11*
X106700000Y-123950000D03*
D10*
X107600000Y-123950000D03*
%TD*%
%TO.C,D56*%
X80600000Y-103650000D03*
D11*
X79700000Y-103650000D03*
D10*
X78800000Y-103650000D03*
X78800000Y-105350000D03*
D11*
X79700000Y-105350000D03*
D10*
X80600000Y-105350000D03*
%TD*%
%TO.C,D74*%
X102200000Y-47850000D03*
D11*
X101300000Y-47850000D03*
D10*
X100400000Y-47850000D03*
X100400000Y-49550000D03*
D11*
X101300000Y-49550000D03*
D10*
X102200000Y-49550000D03*
%TD*%
%TO.C,D35*%
X64400000Y-44750000D03*
D11*
X63500000Y-44750000D03*
D10*
X62600000Y-44750000D03*
X62600000Y-46450000D03*
D11*
X63500000Y-46450000D03*
D10*
X64400000Y-46450000D03*
%TD*%
%TO.C,D44*%
X69790000Y-140850000D03*
D11*
X68890000Y-140850000D03*
D10*
X67990000Y-140850000D03*
X67990000Y-142550000D03*
D11*
X68890000Y-142550000D03*
D10*
X69790000Y-142550000D03*
%TD*%
%TO.C,D46*%
X69800000Y-134650000D03*
D11*
X68900000Y-134650000D03*
D10*
X68000000Y-134650000D03*
X68000000Y-136350000D03*
D11*
X68900000Y-136350000D03*
D10*
X69800000Y-136350000D03*
%TD*%
%TO.C,D40*%
X86000000Y-29250000D03*
D11*
X85100000Y-29250000D03*
D10*
X84200000Y-29250000D03*
X84200000Y-30950000D03*
D11*
X85100000Y-30950000D03*
D10*
X86000000Y-30950000D03*
%TD*%
%TO.C,D49*%
X69800000Y-125350000D03*
D11*
X68900000Y-125350000D03*
D10*
X68000000Y-125350000D03*
X68000000Y-127050000D03*
D11*
X68900000Y-127050000D03*
D10*
X69800000Y-127050000D03*
%TD*%
%TO.C,D23*%
X75200000Y-81950000D03*
D11*
X74300000Y-81950000D03*
D10*
X73400000Y-81950000D03*
X73400000Y-83650000D03*
D11*
X74300000Y-83650000D03*
D10*
X75200000Y-83650000D03*
%TD*%
%TO.C,D58*%
X59000000Y-97450000D03*
D11*
X58100000Y-97450000D03*
D10*
X57200000Y-97450000D03*
X57200000Y-99150000D03*
D11*
X58100000Y-99150000D03*
D10*
X59000000Y-99150000D03*
%TD*%
%TO.C,D64*%
X69800000Y-78850000D03*
D11*
X68900000Y-78850000D03*
D10*
X68000000Y-78850000D03*
X68000000Y-80550000D03*
D11*
X68900000Y-80550000D03*
D10*
X69800000Y-80550000D03*
%TD*%
%TO.C,D60*%
X80600000Y-91250000D03*
D11*
X79700000Y-91250000D03*
D10*
X78800000Y-91250000D03*
X78800000Y-92950000D03*
D11*
X79700000Y-92950000D03*
D10*
X80600000Y-92950000D03*
%TD*%
%TO.C,D6*%
X107600000Y-134650000D03*
D11*
X106700000Y-134650000D03*
D10*
X105800000Y-134650000D03*
X105800000Y-136350000D03*
D11*
X106700000Y-136350000D03*
D10*
X107600000Y-136350000D03*
%TD*%
%TO.C,D30*%
X64400000Y-60250000D03*
D11*
X63500000Y-60250000D03*
D10*
X62600000Y-60250000D03*
X62600000Y-61950000D03*
D11*
X63500000Y-61950000D03*
D10*
X64400000Y-61950000D03*
%TD*%
%TO.C,D24*%
X96800000Y-78850000D03*
D11*
X95900000Y-78850000D03*
D10*
X95000000Y-78850000D03*
X95000000Y-80550000D03*
D11*
X95900000Y-80550000D03*
D10*
X96800000Y-80550000D03*
%TD*%
%TO.C,D50*%
X69800000Y-122250000D03*
D11*
X68900000Y-122250000D03*
D10*
X68000000Y-122250000D03*
X68000000Y-123950000D03*
D11*
X68900000Y-123950000D03*
D10*
X69800000Y-123950000D03*
%TD*%
%TO.C,D26*%
X129200000Y-72650000D03*
D11*
X128300000Y-72650000D03*
D10*
X127400000Y-72650000D03*
X127400000Y-74350000D03*
D11*
X128300000Y-74350000D03*
D10*
X129200000Y-74350000D03*
%TD*%
%TO.C,D14*%
X86000000Y-109850000D03*
D11*
X85100000Y-109850000D03*
D10*
X84200000Y-109850000D03*
X84200000Y-111550000D03*
D11*
X85100000Y-111550000D03*
D10*
X86000000Y-111550000D03*
%TD*%
%TO.C,D33*%
X96800000Y-50950000D03*
D11*
X95900000Y-50950000D03*
D10*
X95000000Y-50950000D03*
X95000000Y-52650000D03*
D11*
X95900000Y-52650000D03*
D10*
X96800000Y-52650000D03*
%TD*%
%TO.C,D8*%
X96800000Y-128450000D03*
D11*
X95900000Y-128450000D03*
D10*
X95000000Y-128450000D03*
X95000000Y-130150000D03*
D11*
X95900000Y-130150000D03*
D10*
X96800000Y-130150000D03*
%TD*%
%TO.C,D3*%
X107600000Y-143950000D03*
D11*
X106700000Y-143950000D03*
D10*
X105800000Y-143950000D03*
X105800000Y-145650000D03*
D11*
X106700000Y-145650000D03*
D10*
X107600000Y-145650000D03*
%TD*%
%TO.C,D24*%
X64400000Y-78850000D03*
D11*
X63500000Y-78850000D03*
D10*
X62600000Y-78850000D03*
X62600000Y-80550000D03*
D11*
X63500000Y-80550000D03*
D10*
X64400000Y-80550000D03*
%TD*%
%TO.C,D42*%
X69790000Y-147050000D03*
D11*
X68890000Y-147050000D03*
D10*
X67990000Y-147050000D03*
X67990000Y-148750000D03*
D11*
X68890000Y-148750000D03*
D10*
X69790000Y-148750000D03*
%TD*%
%TO.C,D12*%
X53600000Y-116050000D03*
D11*
X52700000Y-116050000D03*
D10*
X51800000Y-116050000D03*
X51800000Y-117750000D03*
D11*
X52700000Y-117750000D03*
D10*
X53600000Y-117750000D03*
%TD*%
%TO.C,D48*%
X59000000Y-128450000D03*
D11*
X58100000Y-128450000D03*
D10*
X57200000Y-128450000D03*
X57200000Y-130150000D03*
D11*
X58100000Y-130150000D03*
D10*
X59000000Y-130150000D03*
%TD*%
%TO.C,D34*%
X96800000Y-47850000D03*
D11*
X95900000Y-47850000D03*
D10*
X95000000Y-47850000D03*
X95000000Y-49550000D03*
D11*
X95900000Y-49550000D03*
D10*
X96800000Y-49550000D03*
%TD*%
%TO.C,D36*%
X129200000Y-41650000D03*
D11*
X128300000Y-41650000D03*
D10*
X127400000Y-41650000D03*
X127400000Y-43350000D03*
D11*
X128300000Y-43350000D03*
D10*
X129200000Y-43350000D03*
%TD*%
%TO.C,D11*%
X53600000Y-119150000D03*
D11*
X52700000Y-119150000D03*
D10*
X51800000Y-119150000D03*
X51800000Y-120850000D03*
D11*
X52700000Y-120850000D03*
D10*
X53600000Y-120850000D03*
%TD*%
%TO.C,D3*%
X118400000Y-143950000D03*
D11*
X117500000Y-143950000D03*
D10*
X116600000Y-143950000D03*
X116600000Y-145650000D03*
D11*
X117500000Y-145650000D03*
D10*
X118400000Y-145650000D03*
%TD*%
%TO.C,D9*%
X96800000Y-125350000D03*
D11*
X95900000Y-125350000D03*
D10*
X95000000Y-125350000D03*
X95000000Y-127050000D03*
D11*
X95900000Y-127050000D03*
D10*
X96800000Y-127050000D03*
%TD*%
%TO.C,D31*%
X64400000Y-57150000D03*
D11*
X63500000Y-57150000D03*
D10*
X62600000Y-57150000D03*
X62600000Y-58850000D03*
D11*
X63500000Y-58850000D03*
D10*
X64400000Y-58850000D03*
%TD*%
%TO.C,D21*%
X96800000Y-88150000D03*
D11*
X95900000Y-88150000D03*
D10*
X95000000Y-88150000D03*
X95000000Y-89850000D03*
D11*
X95900000Y-89850000D03*
D10*
X96800000Y-89850000D03*
%TD*%
%TO.C,D69*%
X134600000Y-63350000D03*
D11*
X133700000Y-63350000D03*
D10*
X132800000Y-63350000D03*
X132800000Y-65050000D03*
D11*
X133700000Y-65050000D03*
D10*
X134600000Y-65050000D03*
%TD*%
%TO.C,D74*%
X91400000Y-47850000D03*
D11*
X90500000Y-47850000D03*
D10*
X89600000Y-47850000D03*
X89600000Y-49550000D03*
D11*
X90500000Y-49550000D03*
D10*
X91400000Y-49550000D03*
%TD*%
%TO.C,D68*%
X102200000Y-66450000D03*
D11*
X101300000Y-66450000D03*
D10*
X100400000Y-66450000D03*
X100400000Y-68150000D03*
D11*
X101300000Y-68150000D03*
D10*
X102200000Y-68150000D03*
%TD*%
%TO.C,D54*%
X91400000Y-109850000D03*
D11*
X90500000Y-109850000D03*
D10*
X89600000Y-109850000D03*
X89600000Y-111550000D03*
D11*
X90500000Y-111550000D03*
D10*
X91400000Y-111550000D03*
%TD*%
%TO.C,D11*%
X118400000Y-119150000D03*
D11*
X117500000Y-119150000D03*
D10*
X116600000Y-119150000D03*
X116600000Y-120850000D03*
D11*
X117500000Y-120850000D03*
D10*
X118400000Y-120850000D03*
%TD*%
%TO.C,D4*%
X118400000Y-140850000D03*
D11*
X117500000Y-140850000D03*
D10*
X116600000Y-140850000D03*
X116600000Y-142550000D03*
D11*
X117500000Y-142550000D03*
D10*
X118400000Y-142550000D03*
%TD*%
%TO.C,D15*%
X96800000Y-106750000D03*
D11*
X95900000Y-106750000D03*
D10*
X95000000Y-106750000D03*
X95000000Y-108450000D03*
D11*
X95900000Y-108450000D03*
D10*
X96800000Y-108450000D03*
%TD*%
%TO.C,D78*%
X69800000Y-35450000D03*
D11*
X68900000Y-35450000D03*
D10*
X68000000Y-35450000D03*
X68000000Y-37150000D03*
D11*
X68900000Y-37150000D03*
D10*
X69800000Y-37150000D03*
%TD*%
%TO.C,D58*%
X113000000Y-97450000D03*
D11*
X112100000Y-97450000D03*
D10*
X111200000Y-97450000D03*
X111200000Y-99150000D03*
D11*
X112100000Y-99150000D03*
D10*
X113000000Y-99150000D03*
%TD*%
%TO.C,D46*%
X102200000Y-134650000D03*
D11*
X101300000Y-134650000D03*
D10*
X100400000Y-134650000D03*
X100400000Y-136350000D03*
D11*
X101300000Y-136350000D03*
D10*
X102200000Y-136350000D03*
%TD*%
%TO.C,D25*%
X96800000Y-75750000D03*
D11*
X95900000Y-75750000D03*
D10*
X95000000Y-75750000D03*
X95000000Y-77450000D03*
D11*
X95900000Y-77450000D03*
D10*
X96800000Y-77450000D03*
%TD*%
%TO.C,D78*%
X123800000Y-35450000D03*
D11*
X122900000Y-35450000D03*
D10*
X122000000Y-35450000D03*
X122000000Y-37150000D03*
D11*
X122900000Y-37150000D03*
D10*
X123800000Y-37150000D03*
%TD*%
%TO.C,D60*%
X123800000Y-91250000D03*
D11*
X122900000Y-91250000D03*
D10*
X122000000Y-91250000D03*
X122000000Y-92950000D03*
D11*
X122900000Y-92950000D03*
D10*
X123800000Y-92950000D03*
%TD*%
%TO.C,D59*%
X80600000Y-94350000D03*
D11*
X79700000Y-94350000D03*
D10*
X78800000Y-94350000D03*
X78800000Y-96050000D03*
D11*
X79700000Y-96050000D03*
D10*
X80600000Y-96050000D03*
%TD*%
%TO.C,D59*%
X134600000Y-94350000D03*
D11*
X133700000Y-94350000D03*
D10*
X132800000Y-94350000D03*
X132800000Y-96050000D03*
D11*
X133700000Y-96050000D03*
D10*
X134600000Y-96050000D03*
%TD*%
%TO.C,D27*%
X86000000Y-69550000D03*
D11*
X85100000Y-69550000D03*
D10*
X84200000Y-69550000D03*
X84200000Y-71250000D03*
D11*
X85100000Y-71250000D03*
D10*
X86000000Y-71250000D03*
%TD*%
%TO.C,D68*%
X113000000Y-66450000D03*
D11*
X112100000Y-66450000D03*
D10*
X111200000Y-66450000D03*
X111200000Y-68150000D03*
D11*
X112100000Y-68150000D03*
D10*
X113000000Y-68150000D03*
%TD*%
%TO.C,D55*%
X69800000Y-106750000D03*
D11*
X68900000Y-106750000D03*
D10*
X68000000Y-106750000D03*
X68000000Y-108450000D03*
D11*
X68900000Y-108450000D03*
D10*
X69800000Y-108450000D03*
%TD*%
%TO.C,D39*%
X96800000Y-32350000D03*
D11*
X95900000Y-32350000D03*
D10*
X95000000Y-32350000D03*
X95000000Y-34050000D03*
D11*
X95900000Y-34050000D03*
D10*
X96800000Y-34050000D03*
%TD*%
%TO.C,D37*%
X129200000Y-38550000D03*
D11*
X128300000Y-38550000D03*
D10*
X127400000Y-38550000D03*
X127400000Y-40250000D03*
D11*
X128300000Y-40250000D03*
D10*
X129200000Y-40250000D03*
%TD*%
%TO.C,D17*%
X129200000Y-100550000D03*
D11*
X128300000Y-100550000D03*
D10*
X127400000Y-100550000D03*
X127400000Y-102250000D03*
D11*
X128300000Y-102250000D03*
D10*
X129200000Y-102250000D03*
%TD*%
%TO.C,D29*%
X64400000Y-63350000D03*
D11*
X63500000Y-63350000D03*
D10*
X62600000Y-63350000D03*
X62600000Y-65050000D03*
D11*
X63500000Y-65050000D03*
D10*
X64400000Y-65050000D03*
%TD*%
%TO.C,D30*%
X86000000Y-60250000D03*
D11*
X85100000Y-60250000D03*
D10*
X84200000Y-60250000D03*
X84200000Y-61950000D03*
D11*
X85100000Y-61950000D03*
D10*
X86000000Y-61950000D03*
%TD*%
%TO.C,D67*%
X134600000Y-69550000D03*
D11*
X133700000Y-69550000D03*
D10*
X132800000Y-69550000D03*
X132800000Y-71250000D03*
D11*
X133700000Y-71250000D03*
D10*
X134600000Y-71250000D03*
%TD*%
%TO.C,D46*%
X123800000Y-134650000D03*
D11*
X122900000Y-134650000D03*
D10*
X122000000Y-134650000D03*
X122000000Y-136350000D03*
D11*
X122900000Y-136350000D03*
D10*
X123800000Y-136350000D03*
%TD*%
%TO.C,D43*%
X69800000Y-143950000D03*
D11*
X68900000Y-143950000D03*
D10*
X68000000Y-143950000D03*
X68000000Y-145650000D03*
D11*
X68900000Y-145650000D03*
D10*
X69800000Y-145650000D03*
%TD*%
%TO.C,D39*%
X75200000Y-32350000D03*
D11*
X74300000Y-32350000D03*
D10*
X73400000Y-32350000D03*
X73400000Y-34050000D03*
D11*
X74300000Y-34050000D03*
D10*
X75200000Y-34050000D03*
%TD*%
%TO.C,D2*%
X53600000Y-147050000D03*
D11*
X52700000Y-147050000D03*
D10*
X51800000Y-147050000D03*
X51800000Y-148750000D03*
D11*
X52700000Y-148750000D03*
D10*
X53600000Y-148750000D03*
%TD*%
%TO.C,D77*%
X134600000Y-38550000D03*
D11*
X133700000Y-38550000D03*
D10*
X132800000Y-38550000D03*
X132800000Y-40250000D03*
D11*
X133700000Y-40250000D03*
D10*
X134600000Y-40250000D03*
%TD*%
%TO.C,D57*%
X134600000Y-100550000D03*
D11*
X133700000Y-100550000D03*
D10*
X132800000Y-100550000D03*
X132800000Y-102250000D03*
D11*
X133700000Y-102250000D03*
D10*
X134600000Y-102250000D03*
%TD*%
%TO.C,D62*%
X102200000Y-85050000D03*
D11*
X101300000Y-85050000D03*
D10*
X100400000Y-85050000D03*
X100400000Y-86750000D03*
D11*
X101300000Y-86750000D03*
D10*
X102200000Y-86750000D03*
%TD*%
%TO.C,D52*%
X69800000Y-116050000D03*
D11*
X68900000Y-116050000D03*
D10*
X68000000Y-116050000D03*
X68000000Y-117750000D03*
D11*
X68900000Y-117750000D03*
D10*
X69800000Y-117750000D03*
%TD*%
%TO.C,D36*%
X96800000Y-41650000D03*
D11*
X95900000Y-41650000D03*
D10*
X95000000Y-41650000D03*
X95000000Y-43350000D03*
D11*
X95900000Y-43350000D03*
D10*
X96800000Y-43350000D03*
%TD*%
%TO.C,D5*%
X107600000Y-137750000D03*
D11*
X106700000Y-137750000D03*
D10*
X105800000Y-137750000D03*
X105800000Y-139450000D03*
D11*
X106700000Y-139450000D03*
D10*
X107600000Y-139450000D03*
%TD*%
%TO.C,D19*%
X129200000Y-94350000D03*
D11*
X128300000Y-94350000D03*
D10*
X127400000Y-94350000D03*
X127400000Y-96050000D03*
D11*
X128300000Y-96050000D03*
D10*
X129200000Y-96050000D03*
%TD*%
%TO.C,D79*%
X69800000Y-32350000D03*
D11*
X68900000Y-32350000D03*
D10*
X68000000Y-32350000D03*
X68000000Y-34050000D03*
D11*
X68900000Y-34050000D03*
D10*
X69800000Y-34050000D03*
%TD*%
%TO.C,D45*%
X91400000Y-137750000D03*
D11*
X90500000Y-137750000D03*
D10*
X89600000Y-137750000D03*
X89600000Y-139450000D03*
D11*
X90500000Y-139450000D03*
D10*
X91400000Y-139450000D03*
%TD*%
%TO.C,D30*%
X75200000Y-60250000D03*
D11*
X74300000Y-60250000D03*
D10*
X73400000Y-60250000D03*
X73400000Y-61950000D03*
D11*
X74300000Y-61950000D03*
D10*
X75200000Y-61950000D03*
%TD*%
%TO.C,D43*%
X113000000Y-143950000D03*
D11*
X112100000Y-143950000D03*
D10*
X111200000Y-143950000D03*
X111200000Y-145650000D03*
D11*
X112100000Y-145650000D03*
D10*
X113000000Y-145650000D03*
%TD*%
%TO.C,D33*%
X107600000Y-50950000D03*
D11*
X106700000Y-50950000D03*
D10*
X105800000Y-50950000D03*
X105800000Y-52650000D03*
D11*
X106700000Y-52650000D03*
D10*
X107600000Y-52650000D03*
%TD*%
%TO.C,D79*%
X91400000Y-32350000D03*
D11*
X90500000Y-32350000D03*
D10*
X89600000Y-32350000D03*
X89600000Y-34050000D03*
D11*
X90500000Y-34050000D03*
D10*
X91400000Y-34050000D03*
%TD*%
%TO.C,D9*%
X118400000Y-125350000D03*
D11*
X117500000Y-125350000D03*
D10*
X116600000Y-125350000D03*
X116600000Y-127050000D03*
D11*
X117500000Y-127050000D03*
D10*
X118400000Y-127050000D03*
%TD*%
%TO.C,D4*%
X107600000Y-140850000D03*
D11*
X106700000Y-140850000D03*
D10*
X105800000Y-140850000D03*
X105800000Y-142550000D03*
D11*
X106700000Y-142550000D03*
D10*
X107600000Y-142550000D03*
%TD*%
%TO.C,D3*%
X129200000Y-143950000D03*
D11*
X128300000Y-143950000D03*
D10*
X127400000Y-143950000D03*
X127400000Y-145650000D03*
D11*
X128300000Y-145650000D03*
D10*
X129200000Y-145650000D03*
%TD*%
%TO.C,D21*%
X86000000Y-88150000D03*
D11*
X85100000Y-88150000D03*
D10*
X84200000Y-88150000D03*
X84200000Y-89850000D03*
D11*
X85100000Y-89850000D03*
D10*
X86000000Y-89850000D03*
%TD*%
%TO.C,D11*%
X129200000Y-119150000D03*
D11*
X128300000Y-119150000D03*
D10*
X127400000Y-119150000D03*
X127400000Y-120850000D03*
D11*
X128300000Y-120850000D03*
D10*
X129200000Y-120850000D03*
%TD*%
%TO.C,D14*%
X64400000Y-109850000D03*
D11*
X63500000Y-109850000D03*
D10*
X62600000Y-109850000D03*
X62600000Y-111550000D03*
D11*
X63500000Y-111550000D03*
D10*
X64400000Y-111550000D03*
%TD*%
%TO.C,D50*%
X123800000Y-122250000D03*
D11*
X122900000Y-122250000D03*
D10*
X122000000Y-122250000D03*
X122000000Y-123950000D03*
D11*
X122900000Y-123950000D03*
D10*
X123800000Y-123950000D03*
%TD*%
%TO.C,D62*%
X59000000Y-85050000D03*
D11*
X58100000Y-85050000D03*
D10*
X57200000Y-85050000D03*
X57200000Y-86750000D03*
D11*
X58100000Y-86750000D03*
D10*
X59000000Y-86750000D03*
%TD*%
%TO.C,D59*%
X91400000Y-94350000D03*
D11*
X90500000Y-94350000D03*
D10*
X89600000Y-94350000D03*
X89600000Y-96050000D03*
D11*
X90500000Y-96050000D03*
D10*
X91400000Y-96050000D03*
%TD*%
%TO.C,D33*%
X129200000Y-50950000D03*
D11*
X128300000Y-50950000D03*
D10*
X127400000Y-50950000D03*
X127400000Y-52650000D03*
D11*
X128300000Y-52650000D03*
D10*
X129200000Y-52650000D03*
%TD*%
%TO.C,D51*%
X134600000Y-119150000D03*
D11*
X133700000Y-119150000D03*
D10*
X132800000Y-119150000D03*
X132800000Y-120850000D03*
D11*
X133700000Y-120850000D03*
D10*
X134600000Y-120850000D03*
%TD*%
%TO.C,D15*%
X86000000Y-106750000D03*
D11*
X85100000Y-106750000D03*
D10*
X84200000Y-106750000D03*
X84200000Y-108450000D03*
D11*
X85100000Y-108450000D03*
D10*
X86000000Y-108450000D03*
%TD*%
%TO.C,D1*%
X129200000Y-150150000D03*
D11*
X128300000Y-150150000D03*
D10*
X127400000Y-150150000D03*
X127400000Y-151850000D03*
D11*
X128300000Y-151850000D03*
D10*
X129200000Y-151850000D03*
%TD*%
%TO.C,D25*%
X75200000Y-75750000D03*
D11*
X74300000Y-75750000D03*
D10*
X73400000Y-75750000D03*
X73400000Y-77450000D03*
D11*
X74300000Y-77450000D03*
D10*
X75200000Y-77450000D03*
%TD*%
%TO.C,D75*%
X91400000Y-44750000D03*
D11*
X90500000Y-44750000D03*
D10*
X89600000Y-44750000D03*
X89600000Y-46450000D03*
D11*
X90500000Y-46450000D03*
D10*
X91400000Y-46450000D03*
%TD*%
%TO.C,D55*%
X59000000Y-106750000D03*
D11*
X58100000Y-106750000D03*
D10*
X57200000Y-106750000D03*
X57200000Y-108450000D03*
D11*
X58100000Y-108450000D03*
D10*
X59000000Y-108450000D03*
%TD*%
%TO.C,D3*%
X96800000Y-143950000D03*
D11*
X95900000Y-143950000D03*
D10*
X95000000Y-143950000D03*
X95000000Y-145650000D03*
D11*
X95900000Y-145650000D03*
D10*
X96800000Y-145650000D03*
%TD*%
%TO.C,D49*%
X102200000Y-125350000D03*
D11*
X101300000Y-125350000D03*
D10*
X100400000Y-125350000D03*
X100400000Y-127050000D03*
D11*
X101300000Y-127050000D03*
D10*
X102200000Y-127050000D03*
%TD*%
%TO.C,D73*%
X113000000Y-50950000D03*
D11*
X112100000Y-50950000D03*
D10*
X111200000Y-50950000D03*
X111200000Y-52650000D03*
D11*
X112100000Y-52650000D03*
D10*
X113000000Y-52650000D03*
%TD*%
%TO.C,D75*%
X102200000Y-44750000D03*
D11*
X101300000Y-44750000D03*
D10*
X100400000Y-44750000D03*
X100400000Y-46450000D03*
D11*
X101300000Y-46450000D03*
D10*
X102200000Y-46450000D03*
%TD*%
%TO.C,D54*%
X102200000Y-109850000D03*
D11*
X101300000Y-109850000D03*
D10*
X100400000Y-109850000D03*
X100400000Y-111550000D03*
D11*
X101300000Y-111550000D03*
D10*
X102200000Y-111550000D03*
%TD*%
%TO.C,D23*%
X53600000Y-81950000D03*
D11*
X52700000Y-81950000D03*
D10*
X51800000Y-81950000D03*
X51800000Y-83650000D03*
D11*
X52700000Y-83650000D03*
D10*
X53600000Y-83650000D03*
%TD*%
%TO.C,D11*%
X75200000Y-119150000D03*
D11*
X74300000Y-119150000D03*
D10*
X73400000Y-119150000D03*
X73400000Y-120850000D03*
D11*
X74300000Y-120850000D03*
D10*
X75200000Y-120850000D03*
%TD*%
%TO.C,D61*%
X134600000Y-88150000D03*
D11*
X133700000Y-88150000D03*
D10*
X132800000Y-88150000D03*
X132800000Y-89850000D03*
D11*
X133700000Y-89850000D03*
D10*
X134600000Y-89850000D03*
%TD*%
%TO.C,D57*%
X102200000Y-100550000D03*
D11*
X101300000Y-100550000D03*
D10*
X100400000Y-100550000D03*
X100400000Y-102250000D03*
D11*
X101300000Y-102250000D03*
D10*
X102200000Y-102250000D03*
%TD*%
%TO.C,D14*%
X107600000Y-109850000D03*
D11*
X106700000Y-109850000D03*
D10*
X105800000Y-109850000D03*
X105800000Y-111550000D03*
D11*
X106700000Y-111550000D03*
D10*
X107600000Y-111550000D03*
%TD*%
%TO.C,D12*%
X118400000Y-116050000D03*
D11*
X117500000Y-116050000D03*
D10*
X116600000Y-116050000D03*
X116600000Y-117750000D03*
D11*
X117500000Y-117750000D03*
D10*
X118400000Y-117750000D03*
%TD*%
%TO.C,D53*%
X134600000Y-112950000D03*
D11*
X133700000Y-112950000D03*
D10*
X132800000Y-112950000D03*
X132800000Y-114650000D03*
D11*
X133700000Y-114650000D03*
D10*
X134600000Y-114650000D03*
%TD*%
%TO.C,D61*%
X91400000Y-88150000D03*
D11*
X90500000Y-88150000D03*
D10*
X89600000Y-88150000D03*
X89600000Y-89850000D03*
D11*
X90500000Y-89850000D03*
D10*
X91400000Y-89850000D03*
%TD*%
%TO.C,D68*%
X134600000Y-66450000D03*
D11*
X133700000Y-66450000D03*
D10*
X132800000Y-66450000D03*
X132800000Y-68150000D03*
D11*
X133700000Y-68150000D03*
D10*
X134600000Y-68150000D03*
%TD*%
%TO.C,D13*%
X75190000Y-112950000D03*
D11*
X74290000Y-112950000D03*
D10*
X73390000Y-112950000D03*
X73390000Y-114650000D03*
D11*
X74290000Y-114650000D03*
D10*
X75190000Y-114650000D03*
%TD*%
%TO.C,D56*%
X113000000Y-103650000D03*
D11*
X112100000Y-103650000D03*
D10*
X111200000Y-103650000D03*
X111200000Y-105350000D03*
D11*
X112100000Y-105350000D03*
D10*
X113000000Y-105350000D03*
%TD*%
%TO.C,D76*%
X134600000Y-41650000D03*
D11*
X133700000Y-41650000D03*
D10*
X132800000Y-41650000D03*
X132800000Y-43350000D03*
D11*
X133700000Y-43350000D03*
D10*
X134600000Y-43350000D03*
%TD*%
%TO.C,D41*%
X69800000Y-150150000D03*
D11*
X68900000Y-150150000D03*
D10*
X68000000Y-150150000D03*
X68000000Y-151850000D03*
D11*
X68900000Y-151850000D03*
D10*
X69800000Y-151850000D03*
%TD*%
%TO.C,D12*%
X75200000Y-116050000D03*
D11*
X74300000Y-116050000D03*
D10*
X73400000Y-116050000D03*
X73400000Y-117750000D03*
D11*
X74300000Y-117750000D03*
D10*
X75200000Y-117750000D03*
%TD*%
%TO.C,D2*%
X86000000Y-147050000D03*
D11*
X85100000Y-147050000D03*
D10*
X84200000Y-147050000D03*
X84200000Y-148750000D03*
D11*
X85100000Y-148750000D03*
D10*
X86000000Y-148750000D03*
%TD*%
%TO.C,D46*%
X113000000Y-134650000D03*
D11*
X112100000Y-134650000D03*
D10*
X111200000Y-134650000D03*
X111200000Y-136350000D03*
D11*
X112100000Y-136350000D03*
D10*
X113000000Y-136350000D03*
%TD*%
%TO.C,D8*%
X75200000Y-128450000D03*
D11*
X74300000Y-128450000D03*
D10*
X73400000Y-128450000D03*
X73400000Y-130150000D03*
D11*
X74300000Y-130150000D03*
D10*
X75200000Y-130150000D03*
%TD*%
%TO.C,D38*%
X53600000Y-35450000D03*
D11*
X52700000Y-35450000D03*
D10*
X51800000Y-35450000D03*
X51800000Y-37150000D03*
D11*
X52700000Y-37150000D03*
D10*
X53600000Y-37150000D03*
%TD*%
%TO.C,D79*%
X80600000Y-32350000D03*
D11*
X79700000Y-32350000D03*
D10*
X78800000Y-32350000D03*
X78800000Y-34050000D03*
D11*
X79700000Y-34050000D03*
D10*
X80600000Y-34050000D03*
%TD*%
%TO.C,D31*%
X129200000Y-57150000D03*
D11*
X128300000Y-57150000D03*
D10*
X127400000Y-57150000D03*
X127400000Y-58850000D03*
D11*
X128300000Y-58850000D03*
D10*
X129200000Y-58850000D03*
%TD*%
%TO.C,D77*%
X91400000Y-38550000D03*
D11*
X90500000Y-38550000D03*
D10*
X89600000Y-38550000D03*
X89600000Y-40250000D03*
D11*
X90500000Y-40250000D03*
D10*
X91400000Y-40250000D03*
%TD*%
%TO.C,D16*%
X118400000Y-103650000D03*
D11*
X117500000Y-103650000D03*
D10*
X116600000Y-103650000D03*
X116600000Y-105350000D03*
D11*
X117500000Y-105350000D03*
D10*
X118400000Y-105350000D03*
%TD*%
%TO.C,D39*%
X53600000Y-32350000D03*
D11*
X52700000Y-32350000D03*
D10*
X51800000Y-32350000D03*
X51800000Y-34050000D03*
D11*
X52700000Y-34050000D03*
D10*
X53600000Y-34050000D03*
%TD*%
%TO.C,D42*%
X112990000Y-147050000D03*
D11*
X112090000Y-147050000D03*
D10*
X111190000Y-147050000D03*
X111190000Y-148750000D03*
D11*
X112090000Y-148750000D03*
D10*
X112990000Y-148750000D03*
%TD*%
%TO.C,D41*%
X113000000Y-150150000D03*
D11*
X112100000Y-150150000D03*
D10*
X111200000Y-150150000D03*
X111200000Y-151850000D03*
D11*
X112100000Y-151850000D03*
D10*
X113000000Y-151850000D03*
%TD*%
%TO.C,D22*%
X53600000Y-85050000D03*
D11*
X52700000Y-85050000D03*
D10*
X51800000Y-85050000D03*
X51800000Y-86750000D03*
D11*
X52700000Y-86750000D03*
D10*
X53600000Y-86750000D03*
%TD*%
%TO.C,D19*%
X118400000Y-94350000D03*
D11*
X117500000Y-94350000D03*
D10*
X116600000Y-94350000D03*
X116600000Y-96050000D03*
D11*
X117500000Y-96050000D03*
D10*
X118400000Y-96050000D03*
%TD*%
%TO.C,D67*%
X123800000Y-69550000D03*
D11*
X122900000Y-69550000D03*
D10*
X122000000Y-69550000D03*
X122000000Y-71250000D03*
D11*
X122900000Y-71250000D03*
D10*
X123800000Y-71250000D03*
%TD*%
%TO.C,D10*%
X53600000Y-122250000D03*
D11*
X52700000Y-122250000D03*
D10*
X51800000Y-122250000D03*
X51800000Y-123950000D03*
D11*
X52700000Y-123950000D03*
D10*
X53600000Y-123950000D03*
%TD*%
%TO.C,D78*%
X113000000Y-35450000D03*
D11*
X112100000Y-35450000D03*
D10*
X111200000Y-35450000D03*
X111200000Y-37150000D03*
D11*
X112100000Y-37150000D03*
D10*
X113000000Y-37150000D03*
%TD*%
%TO.C,D42*%
X102190000Y-147050000D03*
D11*
X101290000Y-147050000D03*
D10*
X100390000Y-147050000D03*
X100390000Y-148750000D03*
D11*
X101290000Y-148750000D03*
D10*
X102190000Y-148750000D03*
%TD*%
%TO.C,D27*%
X96800000Y-69550000D03*
D11*
X95900000Y-69550000D03*
D10*
X95000000Y-69550000D03*
X95000000Y-71250000D03*
D11*
X95900000Y-71250000D03*
D10*
X96800000Y-71250000D03*
%TD*%
%TO.C,D16*%
X75200000Y-103650000D03*
D11*
X74300000Y-103650000D03*
D10*
X73400000Y-103650000D03*
X73400000Y-105350000D03*
D11*
X74300000Y-105350000D03*
D10*
X75200000Y-105350000D03*
%TD*%
%TO.C,D78*%
X134600000Y-35450000D03*
D11*
X133700000Y-35450000D03*
D10*
X132800000Y-35450000D03*
X132800000Y-37150000D03*
D11*
X133700000Y-37150000D03*
D10*
X134600000Y-37150000D03*
%TD*%
%TO.C,D21*%
X53600000Y-88150000D03*
D11*
X52700000Y-88150000D03*
D10*
X51800000Y-88150000D03*
X51800000Y-89850000D03*
D11*
X52700000Y-89850000D03*
D10*
X53600000Y-89850000D03*
%TD*%
%TO.C,D50*%
X134600000Y-122250000D03*
D11*
X133700000Y-122250000D03*
D10*
X132800000Y-122250000D03*
X132800000Y-123950000D03*
D11*
X133700000Y-123950000D03*
D10*
X134600000Y-123950000D03*
%TD*%
%TO.C,D61*%
X123800000Y-88150000D03*
D11*
X122900000Y-88150000D03*
D10*
X122000000Y-88150000D03*
X122000000Y-89850000D03*
D11*
X122900000Y-89850000D03*
D10*
X123800000Y-89850000D03*
%TD*%
%TO.C,D2*%
X96800000Y-147050000D03*
D11*
X95900000Y-147050000D03*
D10*
X95000000Y-147050000D03*
X95000000Y-148750000D03*
D11*
X95900000Y-148750000D03*
D10*
X96800000Y-148750000D03*
%TD*%
%TO.C,D4*%
X53600000Y-140850000D03*
D11*
X52700000Y-140850000D03*
D10*
X51800000Y-140850000D03*
X51800000Y-142550000D03*
D11*
X52700000Y-142550000D03*
D10*
X53600000Y-142550000D03*
%TD*%
%TO.C,D57*%
X59000000Y-100550000D03*
D11*
X58100000Y-100550000D03*
D10*
X57200000Y-100550000D03*
X57200000Y-102250000D03*
D11*
X58100000Y-102250000D03*
D10*
X59000000Y-102250000D03*
%TD*%
%TO.C,D46*%
X134600000Y-134650000D03*
D11*
X133700000Y-134650000D03*
D10*
X132800000Y-134650000D03*
X132800000Y-136350000D03*
D11*
X133700000Y-136350000D03*
D10*
X134600000Y-136350000D03*
%TD*%
%TO.C,D38*%
X75200000Y-35450000D03*
D11*
X74300000Y-35450000D03*
D10*
X73400000Y-35450000D03*
X73400000Y-37150000D03*
D11*
X74300000Y-37150000D03*
D10*
X75200000Y-37150000D03*
%TD*%
%TO.C,D52*%
X91400000Y-116050000D03*
D11*
X90500000Y-116050000D03*
D10*
X89600000Y-116050000D03*
X89600000Y-117750000D03*
D11*
X90500000Y-117750000D03*
D10*
X91400000Y-117750000D03*
%TD*%
%TO.C,D39*%
X107600000Y-32350000D03*
D11*
X106700000Y-32350000D03*
D10*
X105800000Y-32350000D03*
X105800000Y-34050000D03*
D11*
X106700000Y-34050000D03*
D10*
X107600000Y-34050000D03*
%TD*%
%TO.C,D59*%
X123800000Y-94350000D03*
D11*
X122900000Y-94350000D03*
D10*
X122000000Y-94350000D03*
X122000000Y-96050000D03*
D11*
X122900000Y-96050000D03*
D10*
X123800000Y-96050000D03*
%TD*%
%TO.C,D71*%
X59000000Y-57150000D03*
D11*
X58100000Y-57150000D03*
D10*
X57200000Y-57150000D03*
X57200000Y-58850000D03*
D11*
X58100000Y-58850000D03*
D10*
X59000000Y-58850000D03*
%TD*%
%TO.C,D71*%
X91400000Y-57150000D03*
D11*
X90500000Y-57150000D03*
D10*
X89600000Y-57150000D03*
X89600000Y-58850000D03*
D11*
X90500000Y-58850000D03*
D10*
X91400000Y-58850000D03*
%TD*%
%TO.C,D47*%
X80600000Y-131550000D03*
D11*
X79700000Y-131550000D03*
D10*
X78800000Y-131550000D03*
X78800000Y-133250000D03*
D11*
X79700000Y-133250000D03*
D10*
X80600000Y-133250000D03*
%TD*%
%TO.C,D23*%
X64400000Y-81950000D03*
D11*
X63500000Y-81950000D03*
D10*
X62600000Y-81950000D03*
X62600000Y-83650000D03*
D11*
X63500000Y-83650000D03*
D10*
X64400000Y-83650000D03*
%TD*%
M02*
