M48
; DRILL file {KiCad 9.0.3} date 2025-08-06T15:00:07-0400
; FORMAT={-:-/ absolute / metric / decimal}
; #@! TF.CreationDate,2025-08-06T15:00:07-04:00
; #@! TF.GenerationSoftware,Kicad,Pcbnew,9.0.3
; #@! TF.FileFunction,NonPlated,1,2,NPTH
FMAT,2
METRIC
; #@! TA.AperFunction,NonPlated,NPTH,ComponentDrill
T1C0.450
; #@! TA.AperFunction,NonPlated,NPTH,ComponentDrill
T2C0.600
; #@! TA.AperFunction,NonPlated,NPTH,ComponentDrill
T3C2.000
%
G90
G05
T1
X51.5Y-27.1
X51.9Y-154.3
X52.3Y-27.1
X52.7Y-154.3
X53.1Y-27.1
X53.5Y-154.3
X53.9Y-27.1
X54.6Y-69.2
X54.6Y-70.0
X54.6Y-70.8
X54.6Y-109.5
X54.6Y-110.3
X54.6Y-111.1
X56.2Y-69.2
X56.2Y-70.0
X56.2Y-70.8
X56.2Y-109.5
X56.2Y-110.3
X56.2Y-111.1
X56.9Y-27.1
X57.3Y-154.3
X57.7Y-27.1
X58.1Y-154.3
X58.5Y-27.1
X58.9Y-154.3
X59.3Y-27.1
X60.0Y-69.2
X60.0Y-70.0
X60.0Y-70.8
X60.0Y-109.5
X60.0Y-110.3
X60.0Y-111.1
X61.6Y-69.2
X61.6Y-70.0
X61.6Y-70.8
X61.6Y-109.5
X61.6Y-110.3
X61.6Y-111.1
X62.3Y-27.1
X62.7Y-154.3
X63.1Y-27.1
X63.5Y-154.3
X63.9Y-27.1
X64.3Y-154.3
X64.7Y-27.1
X65.4Y-69.2
X65.4Y-70.0
X65.4Y-70.8
X65.4Y-109.5
X65.4Y-110.3
X65.4Y-111.1
X67.0Y-69.2
X67.0Y-70.0
X67.0Y-70.8
X67.0Y-109.5
X67.0Y-110.3
X67.0Y-111.1
X67.7Y-27.1
X68.1Y-154.3
X68.5Y-27.1
X68.9Y-154.3
X69.3Y-27.1
X69.7Y-154.3
X70.1Y-27.1
X70.8Y-69.2
X70.8Y-70.0
X70.8Y-70.8
X70.8Y-109.5
X70.8Y-110.3
X70.8Y-111.1
X72.4Y-69.2
X72.4Y-70.0
X72.4Y-70.8
X72.4Y-109.5
X72.4Y-110.3
X72.4Y-111.1
X73.1Y-27.1
X73.5Y-154.3
X73.9Y-27.1
X74.3Y-154.3
X74.7Y-27.1
X75.1Y-154.3
X75.5Y-27.1
X76.2Y-69.2
X76.2Y-70.0
X76.2Y-70.8
X76.2Y-109.5
X76.2Y-110.3
X76.2Y-111.1
X77.8Y-69.2
X77.8Y-70.0
X77.8Y-70.8
X77.8Y-109.5
X77.8Y-110.3
X77.8Y-111.1
X78.5Y-27.1
X78.9Y-154.3
X79.3Y-27.1
X79.7Y-154.3
X80.1Y-27.1
X80.5Y-154.3
X80.9Y-27.1
X81.6Y-69.2
X81.6Y-70.0
X81.6Y-70.8
X81.6Y-109.5
X81.6Y-110.3
X81.6Y-111.1
X83.2Y-69.2
X83.2Y-70.0
X83.2Y-70.8
X83.2Y-109.5
X83.2Y-110.3
X83.2Y-111.1
X83.9Y-27.1
X84.3Y-154.3
X84.7Y-27.1
X85.1Y-154.3
X85.5Y-27.1
X85.9Y-154.3
X86.3Y-27.1
X87.0Y-69.2
X87.0Y-70.0
X87.0Y-70.8
X87.0Y-109.5
X87.0Y-110.3
X87.0Y-111.1
X88.6Y-69.2
X88.6Y-70.0
X88.6Y-70.8
X88.6Y-109.5
X88.6Y-110.3
X88.6Y-111.1
X89.3Y-27.1
X89.7Y-154.3
X90.1Y-27.1
X90.5Y-154.3
X90.9Y-27.1
X91.3Y-154.3
X91.7Y-27.1
X92.4Y-69.2
X92.4Y-70.0
X92.4Y-70.8
X92.4Y-109.5
X92.4Y-110.3
X92.4Y-111.1
X94.0Y-69.2
X94.0Y-70.0
X94.0Y-70.8
X94.0Y-109.5
X94.0Y-110.3
X94.0Y-111.1
X94.7Y-27.1
X95.1Y-154.3
X95.5Y-27.1
X95.9Y-154.3
X96.3Y-27.1
X96.7Y-154.3
X97.1Y-27.1
X97.8Y-69.2
X97.8Y-70.0
X97.8Y-70.8
X97.8Y-109.5
X97.8Y-110.3
X97.8Y-111.1
X99.4Y-69.2
X99.4Y-70.0
X99.4Y-70.8
X99.4Y-109.5
X99.4Y-110.3
X99.4Y-111.1
X100.1Y-27.1
X100.5Y-154.3
X100.9Y-27.1
X101.3Y-154.3
X101.7Y-27.1
X102.1Y-154.3
X102.5Y-27.1
X103.2Y-69.2
X103.2Y-70.0
X103.2Y-70.8
X103.2Y-109.5
X103.2Y-110.3
X103.2Y-111.1
X104.8Y-69.2
X104.8Y-70.0
X104.8Y-70.8
X104.8Y-109.5
X104.8Y-110.3
X104.8Y-111.1
X105.5Y-27.1
X105.9Y-154.3
X106.3Y-27.1
X106.7Y-154.3
X107.1Y-27.1
X107.5Y-154.3
X107.9Y-27.1
X108.6Y-69.2
X108.6Y-70.0
X108.6Y-70.8
X108.6Y-109.5
X108.6Y-110.3
X108.6Y-111.1
X110.2Y-69.2
X110.2Y-70.0
X110.2Y-70.8
X110.2Y-109.5
X110.2Y-110.3
X110.2Y-111.1
X110.9Y-27.1
X111.3Y-154.3
X111.7Y-27.1
X112.1Y-154.3
X112.5Y-27.1
X112.9Y-154.3
X113.3Y-27.1
X114.0Y-69.2
X114.0Y-70.0
X114.0Y-70.8
X114.0Y-109.5
X114.0Y-110.3
X114.0Y-111.1
X115.6Y-69.2
X115.6Y-70.0
X115.6Y-70.8
X115.6Y-109.5
X115.6Y-110.3
X115.6Y-111.1
X116.3Y-27.1
X116.7Y-154.3
X117.1Y-27.1
X117.5Y-154.3
X117.9Y-27.1
X118.3Y-154.3
X118.7Y-27.1
X119.4Y-69.2
X119.4Y-70.0
X119.4Y-70.8
X119.4Y-109.5
X119.4Y-110.3
X119.4Y-111.1
X121.0Y-69.2
X121.0Y-70.0
X121.0Y-70.8
X121.0Y-109.5
X121.0Y-110.3
X121.0Y-111.1
X121.7Y-27.1
X122.1Y-154.3
X122.5Y-27.1
X122.9Y-154.3
X123.3Y-27.1
X123.7Y-154.3
X124.1Y-27.1
X124.8Y-69.2
X124.8Y-70.0
X124.8Y-70.8
X124.8Y-109.5
X124.8Y-110.3
X124.8Y-111.1
X126.4Y-69.2
X126.4Y-70.0
X126.4Y-70.8
X126.4Y-109.5
X126.4Y-110.3
X126.4Y-111.1
X127.1Y-27.1
X127.5Y-154.3
X127.9Y-27.1
X128.3Y-154.3
X128.7Y-27.1
X129.1Y-154.3
X129.5Y-27.1
X130.2Y-69.2
X130.2Y-70.0
X130.2Y-70.8
X130.2Y-109.5
X130.2Y-110.3
X130.2Y-111.1
X131.8Y-69.2
X131.8Y-70.0
X131.8Y-70.8
X131.8Y-109.5
X131.8Y-110.3
X131.8Y-111.1
X132.5Y-27.1
X132.9Y-154.3
X133.3Y-27.1
X133.7Y-154.3
X134.1Y-27.1
X134.5Y-154.3
X134.9Y-27.1
T2
X54.675Y-68.325
X54.675Y-71.675
X54.675Y-108.625
X54.675Y-111.975
X56.125Y-68.325
X56.125Y-71.675
X56.125Y-108.625
X56.125Y-111.975
X60.075Y-68.325
X60.075Y-71.675
X60.075Y-108.625
X60.075Y-111.975
X61.525Y-68.325
X61.525Y-71.675
X61.525Y-108.625
X61.525Y-111.975
X65.475Y-68.325
X65.475Y-71.675
X65.475Y-108.625
X65.475Y-111.975
X66.925Y-68.325
X66.925Y-71.675
X66.925Y-108.625
X66.925Y-111.975
X70.875Y-68.325
X70.875Y-71.675
X70.875Y-108.625
X70.875Y-111.975
X72.325Y-68.325
X72.325Y-71.675
X72.325Y-108.625
X72.325Y-111.975
X76.275Y-68.325
X76.275Y-71.675
X76.275Y-108.625
X76.275Y-111.975
X77.725Y-68.325
X77.725Y-71.675
X77.725Y-108.625
X77.725Y-111.975
X81.675Y-68.325
X81.675Y-71.675
X81.675Y-108.625
X81.675Y-111.975
X83.125Y-68.325
X83.125Y-71.675
X83.125Y-108.625
X83.125Y-111.975
X87.075Y-68.325
X87.075Y-71.675
X87.075Y-108.625
X87.075Y-111.975
X88.525Y-68.325
X88.525Y-71.675
X88.525Y-108.625
X88.525Y-111.975
X92.475Y-68.325
X92.475Y-71.675
X92.475Y-108.625
X92.475Y-111.975
X93.925Y-68.325
X93.925Y-71.675
X93.925Y-108.625
X93.925Y-111.975
X97.875Y-68.325
X97.875Y-71.675
X97.875Y-108.625
X97.875Y-111.975
X99.325Y-68.325
X99.325Y-71.675
X99.325Y-108.625
X99.325Y-111.975
X103.275Y-68.325
X103.275Y-71.675
X103.275Y-108.625
X103.275Y-111.975
X104.725Y-68.325
X104.725Y-71.675
X104.725Y-108.625
X104.725Y-111.975
X108.675Y-68.325
X108.675Y-71.675
X108.675Y-108.625
X108.675Y-111.975
X110.125Y-68.325
X110.125Y-71.675
X110.125Y-108.625
X110.125Y-111.975
X114.075Y-68.325
X114.075Y-71.675
X114.075Y-108.625
X114.075Y-111.975
X115.525Y-68.325
X115.525Y-71.675
X115.525Y-108.625
X115.525Y-111.975
X119.475Y-68.325
X119.475Y-71.675
X119.475Y-108.625
X119.475Y-111.975
X120.925Y-68.325
X120.925Y-71.675
X120.925Y-108.625
X120.925Y-111.975
X124.875Y-68.325
X124.875Y-71.675
X124.875Y-108.625
X124.875Y-111.975
X126.325Y-68.325
X126.325Y-71.675
X126.325Y-108.625
X126.325Y-111.975
X130.275Y-68.325
X130.275Y-71.675
X130.275Y-108.625
X130.275Y-111.975
X131.725Y-68.325
X131.725Y-71.675
X131.725Y-108.625
X131.725Y-111.975
T3
X52.7Y-23.0
X52.7Y-158.4
X133.7Y-23.0
X133.7Y-158.4
M30
