%TF.GenerationSoftware,KiCad,Pcbnew,9.0.1*%
%TF.CreationDate,2025-07-16T22:24:26-04:00*%
%TF.ProjectId,flowstick_led_strip_pcbs,666c6f77-7374-4696-936b-5f6c65645f73,rev?*%
%TF.SameCoordinates,Original*%
%TF.FileFunction,Copper,L1,Top*%
%TF.FilePolarity,Positive*%
%FSLAX46Y46*%
G04 Gerber Fmt 4.6, Leading zero omitted, Abs format (unit mm)*
G04 Created by KiCad (PCBNEW 9.0.1) date 2025-07-16 22:24:26*
%MOMM*%
%LPD*%
G01*
G04 APERTURE LIST*
%TA.AperFunction,SMDPad,CuDef*%
%ADD10R,0.500000X0.800000*%
%TD*%
%TA.AperFunction,SMDPad,CuDef*%
%ADD11R,1.000000X0.500000*%
%TD*%
%TA.AperFunction,SMDPad,CuDef*%
%ADD12R,0.300000X0.800000*%
%TD*%
%TA.AperFunction,SMDPad,CuDef*%
%ADD13R,1.480000X0.500000*%
%TD*%
%TA.AperFunction,ViaPad*%
%ADD14C,0.420000*%
%TD*%
%TA.AperFunction,Conductor*%
%ADD15C,0.110000*%
%TD*%
G04 APERTURE END LIST*
D10*
%TO.P,D51,1,VDD*%
%TO.N,/strip_r/+5V*%
X107600000Y-152450000D03*
D11*
X107530000Y-153300000D03*
D12*
%TO.P,D51,2,CKO*%
%TO.N,Net-(D51-CKO)*%
X106700000Y-152450000D03*
D10*
%TO.P,D51,3,SDO*%
%TO.N,Net-(D51-SDO)*%
X105800000Y-152450000D03*
%TO.P,D51,4,SDI*%
%TO.N,Net-(D50-SDO)*%
X105800000Y-154150000D03*
D12*
%TO.P,D51,5,CKI*%
%TO.N,Net-(D50-CKO)*%
X106700000Y-154150000D03*
D13*
%TO.P,D51,6,GND*%
%TO.N,/strip_r/GND*%
X106110000Y-153300000D03*
D10*
X107600000Y-154150000D03*
%TD*%
%TO.P,D26,1,VDD*%
%TO.N,/strip_l/+5V*%
X102800000Y-105950000D03*
D11*
X102730000Y-106800000D03*
D12*
%TO.P,D26,2,CKO*%
%TO.N,Net-(D26-CKO)*%
X101900000Y-105950000D03*
D10*
%TO.P,D26,3,SDO*%
%TO.N,Net-(D26-SDO)*%
X101000000Y-105950000D03*
%TO.P,D26,4,SDI*%
%TO.N,Net-(D25-SDO)*%
X101000000Y-107650000D03*
D12*
%TO.P,D26,5,CKI*%
%TO.N,Net-(D25-CKO)*%
X101900000Y-107650000D03*
D13*
%TO.P,D26,6,GND*%
%TO.N,/strip_l/GND*%
X101310000Y-106800000D03*
D10*
X102800000Y-107650000D03*
%TD*%
%TO.P,D45,1,VDD*%
%TO.N,/strip_r/+5V*%
X107600000Y-171050000D03*
D11*
X107530000Y-171900000D03*
D12*
%TO.P,D45,2,CKO*%
%TO.N,Net-(D45-CKO)*%
X106700000Y-171050000D03*
D10*
%TO.P,D45,3,SDO*%
%TO.N,Net-(D45-SDO)*%
X105800000Y-171050000D03*
%TO.P,D45,4,SDI*%
%TO.N,Net-(D44-SDO)*%
X105800000Y-172750000D03*
D12*
%TO.P,D45,5,CKI*%
%TO.N,Net-(D44-CKO)*%
X106700000Y-172750000D03*
D13*
%TO.P,D45,6,GND*%
%TO.N,/strip_r/GND*%
X106110000Y-171900000D03*
D10*
X107600000Y-172750000D03*
%TD*%
%TO.P,D46,1,VDD*%
%TO.N,/strip_r/+5V*%
X107600000Y-167950000D03*
D11*
X107530000Y-168800000D03*
D12*
%TO.P,D46,2,CKO*%
%TO.N,Net-(D46-CKO)*%
X106700000Y-167950000D03*
D10*
%TO.P,D46,3,SDO*%
%TO.N,Net-(D46-SDO)*%
X105800000Y-167950000D03*
%TO.P,D46,4,SDI*%
%TO.N,Net-(D45-SDO)*%
X105800000Y-169650000D03*
D12*
%TO.P,D46,5,CKI*%
%TO.N,Net-(D45-CKO)*%
X106700000Y-169650000D03*
D13*
%TO.P,D46,6,GND*%
%TO.N,/strip_r/GND*%
X106110000Y-168800000D03*
D10*
X107600000Y-169650000D03*
%TD*%
%TO.P,D34,1,VDD*%
%TO.N,/strip_l/+5V*%
X102800000Y-81150000D03*
D11*
X102730000Y-82000000D03*
D12*
%TO.P,D34,2,CKO*%
%TO.N,Net-(D34-CKO)*%
X101900000Y-81150000D03*
D10*
%TO.P,D34,3,SDO*%
%TO.N,Net-(D34-SDO)*%
X101000000Y-81150000D03*
%TO.P,D34,4,SDI*%
%TO.N,Net-(D33-SDO)*%
X101000000Y-82850000D03*
D12*
%TO.P,D34,5,CKI*%
%TO.N,Net-(D33-CKO)*%
X101900000Y-82850000D03*
D13*
%TO.P,D34,6,GND*%
%TO.N,/strip_l/GND*%
X101310000Y-82000000D03*
D10*
X102800000Y-82850000D03*
%TD*%
%TO.P,D20,1,VDD*%
%TO.N,/strip_l/+5V*%
X102800000Y-124550000D03*
D11*
X102730000Y-125400000D03*
D12*
%TO.P,D20,2,CKO*%
%TO.N,Net-(D20-CKO)*%
X101900000Y-124550000D03*
D10*
%TO.P,D20,3,SDO*%
%TO.N,Net-(D20-SDO)*%
X101000000Y-124550000D03*
%TO.P,D20,4,SDI*%
%TO.N,Net-(D19-SDO)*%
X101000000Y-126250000D03*
D12*
%TO.P,D20,5,CKI*%
%TO.N,Net-(D19-CKO)*%
X101900000Y-126250000D03*
D13*
%TO.P,D20,6,GND*%
%TO.N,/strip_l/GND*%
X101310000Y-125400000D03*
D10*
X102800000Y-126250000D03*
%TD*%
%TO.P,D68,1,VDD*%
%TO.N,/strip_r/+5V*%
X107600000Y-99750000D03*
D11*
X107530000Y-100600000D03*
D12*
%TO.P,D68,2,CKO*%
%TO.N,Net-(D68-CKO)*%
X106700000Y-99750000D03*
D10*
%TO.P,D68,3,SDO*%
%TO.N,Net-(D68-SDO)*%
X105800000Y-99750000D03*
%TO.P,D68,4,SDI*%
%TO.N,Net-(D67-SDO)*%
X105800000Y-101450000D03*
D12*
%TO.P,D68,5,CKI*%
%TO.N,Net-(D67-CKO)*%
X106700000Y-101450000D03*
D13*
%TO.P,D68,6,GND*%
%TO.N,/strip_r/GND*%
X106110000Y-100600000D03*
D10*
X107600000Y-101450000D03*
%TD*%
%TO.P,D18,1,VDD*%
%TO.N,/strip_l/+5V*%
X102800000Y-130750000D03*
D11*
X102730000Y-131600000D03*
D12*
%TO.P,D18,2,CKO*%
%TO.N,Net-(D18-CKO)*%
X101900000Y-130750000D03*
D10*
%TO.P,D18,3,SDO*%
%TO.N,Net-(D18-SDO)*%
X101000000Y-130750000D03*
%TO.P,D18,4,SDI*%
%TO.N,Net-(D17-SDO)*%
X101000000Y-132450000D03*
D12*
%TO.P,D18,5,CKI*%
%TO.N,Net-(D17-CKO)*%
X101900000Y-132450000D03*
D13*
%TO.P,D18,6,GND*%
%TO.N,/strip_l/GND*%
X101310000Y-131600000D03*
D10*
X102800000Y-132450000D03*
%TD*%
%TO.P,D40,1,VDD*%
%TO.N,/strip_l/+5V*%
X102800000Y-62550000D03*
D11*
X102730000Y-63400000D03*
D12*
%TO.P,D40,2,CKO*%
%TO.N,unconnected-(D40-CKO-Pad2)*%
X101900000Y-62550000D03*
D10*
%TO.P,D40,3,SDO*%
%TO.N,unconnected-(D40-SDO-Pad3)*%
X101000000Y-62550000D03*
%TO.P,D40,4,SDI*%
%TO.N,Net-(D39-SDO)*%
X101000000Y-64250000D03*
D12*
%TO.P,D40,5,CKI*%
%TO.N,Net-(D39-CKO)*%
X101900000Y-64250000D03*
D13*
%TO.P,D40,6,GND*%
%TO.N,/strip_l/GND*%
X101310000Y-63400000D03*
D10*
X102800000Y-64250000D03*
%TD*%
%TO.P,D80,1,VDD*%
%TO.N,/strip_r/+5V*%
X107600000Y-62550000D03*
D11*
X107530000Y-63400000D03*
D12*
%TO.P,D80,2,CKO*%
%TO.N,unconnected-(D80-CKO-Pad2)*%
X106700000Y-62550000D03*
D10*
%TO.P,D80,3,SDO*%
%TO.N,unconnected-(D80-SDO-Pad3)*%
X105800000Y-62550000D03*
%TO.P,D80,4,SDI*%
%TO.N,Net-(D79-SDO)*%
X105800000Y-64250000D03*
D12*
%TO.P,D80,5,CKI*%
%TO.N,Net-(D79-CKO)*%
X106700000Y-64250000D03*
D13*
%TO.P,D80,6,GND*%
%TO.N,/strip_r/GND*%
X106110000Y-63400000D03*
D10*
X107600000Y-64250000D03*
%TD*%
%TO.P,D16,1,VDD*%
%TO.N,/strip_l/+5V*%
X102800000Y-136950000D03*
D11*
X102730000Y-137800000D03*
D12*
%TO.P,D16,2,CKO*%
%TO.N,Net-(D16-CKO)*%
X101900000Y-136950000D03*
D10*
%TO.P,D16,3,SDO*%
%TO.N,Net-(D16-SDO)*%
X101000000Y-136950000D03*
%TO.P,D16,4,SDI*%
%TO.N,Net-(D15-SDO)*%
X101000000Y-138650000D03*
D12*
%TO.P,D16,5,CKI*%
%TO.N,Net-(D15-CKO)*%
X101900000Y-138650000D03*
D13*
%TO.P,D16,6,GND*%
%TO.N,/strip_l/GND*%
X101310000Y-137800000D03*
D10*
X102800000Y-138650000D03*
%TD*%
%TO.P,D65,1,VDD*%
%TO.N,/strip_r/+5V*%
X107600000Y-109050000D03*
D11*
X107530000Y-109900000D03*
D12*
%TO.P,D65,2,CKO*%
%TO.N,Net-(D65-CKO)*%
X106700000Y-109050000D03*
D10*
%TO.P,D65,3,SDO*%
%TO.N,Net-(D65-SDO)*%
X105800000Y-109050000D03*
%TO.P,D65,4,SDI*%
%TO.N,Net-(D64-SDO)*%
X105800000Y-110750000D03*
D12*
%TO.P,D65,5,CKI*%
%TO.N,Net-(D64-CKO)*%
X106700000Y-110750000D03*
D13*
%TO.P,D65,6,GND*%
%TO.N,/strip_r/GND*%
X106110000Y-109900000D03*
D10*
X107600000Y-110750000D03*
%TD*%
%TO.P,D70,1,VDD*%
%TO.N,/strip_r/+5V*%
X107600000Y-93550000D03*
D11*
X107530000Y-94400000D03*
D12*
%TO.P,D70,2,CKO*%
%TO.N,Net-(D70-CKO)*%
X106700000Y-93550000D03*
D10*
%TO.P,D70,3,SDO*%
%TO.N,Net-(D70-SDO)*%
X105800000Y-93550000D03*
%TO.P,D70,4,SDI*%
%TO.N,Net-(D69-SDO)*%
X105800000Y-95250000D03*
D12*
%TO.P,D70,5,CKI*%
%TO.N,Net-(D69-CKO)*%
X106700000Y-95250000D03*
D13*
%TO.P,D70,6,GND*%
%TO.N,/strip_r/GND*%
X106110000Y-94400000D03*
D10*
X107600000Y-95250000D03*
%TD*%
%TO.P,D29,1,VDD*%
%TO.N,/strip_l/+5V*%
X102800000Y-96650000D03*
D11*
X102730000Y-97500000D03*
D12*
%TO.P,D29,2,CKO*%
%TO.N,Net-(D29-CKO)*%
X101900000Y-96650000D03*
D10*
%TO.P,D29,3,SDO*%
%TO.N,Net-(D29-SDO)*%
X101000000Y-96650000D03*
%TO.P,D29,4,SDI*%
%TO.N,Net-(D28-SDO)*%
X101000000Y-98350000D03*
D12*
%TO.P,D29,5,CKI*%
%TO.N,Net-(D28-CKO)*%
X101900000Y-98350000D03*
D13*
%TO.P,D29,6,GND*%
%TO.N,/strip_l/GND*%
X101310000Y-97500000D03*
D10*
X102800000Y-98350000D03*
%TD*%
%TO.P,D69,1,VDD*%
%TO.N,/strip_r/+5V*%
X107600000Y-96650000D03*
D11*
X107530000Y-97500000D03*
D12*
%TO.P,D69,2,CKO*%
%TO.N,Net-(D69-CKO)*%
X106700000Y-96650000D03*
D10*
%TO.P,D69,3,SDO*%
%TO.N,Net-(D69-SDO)*%
X105800000Y-96650000D03*
%TO.P,D69,4,SDI*%
%TO.N,Net-(D68-SDO)*%
X105800000Y-98350000D03*
D12*
%TO.P,D69,5,CKI*%
%TO.N,Net-(D68-CKO)*%
X106700000Y-98350000D03*
D13*
%TO.P,D69,6,GND*%
%TO.N,/strip_r/GND*%
X106110000Y-97500000D03*
D10*
X107600000Y-98350000D03*
%TD*%
%TO.P,D10,1,VDD*%
%TO.N,/strip_l/+5V*%
X102800000Y-155550000D03*
D11*
X102730000Y-156400000D03*
D12*
%TO.P,D10,2,CKO*%
%TO.N,Net-(D10-CKO)*%
X101900000Y-155550000D03*
D10*
%TO.P,D10,3,SDO*%
%TO.N,Net-(D10-SDO)*%
X101000000Y-155550000D03*
%TO.P,D10,4,SDI*%
%TO.N,Net-(D10-SDI)*%
X101000000Y-157250000D03*
D12*
%TO.P,D10,5,CKI*%
%TO.N,Net-(D10-CKI)*%
X101900000Y-157250000D03*
D13*
%TO.P,D10,6,GND*%
%TO.N,/strip_l/GND*%
X101310000Y-156400000D03*
D10*
X102800000Y-157250000D03*
%TD*%
%TO.P,D41,1,VDD*%
%TO.N,/strip_r/+5V*%
X107600000Y-183450000D03*
D11*
X107530000Y-184300000D03*
D12*
%TO.P,D41,2,CKO*%
%TO.N,Net-(D41-CKO)*%
X106700000Y-183450000D03*
D10*
%TO.P,D41,3,SDO*%
%TO.N,Net-(D41-SDO)*%
X105800000Y-183450000D03*
%TO.P,D41,4,SDI*%
%TO.N,/strip_r/SDI*%
X105800000Y-185150000D03*
D12*
%TO.P,D41,5,CKI*%
%TO.N,/strip_r/CKI*%
X106700000Y-185150000D03*
D13*
%TO.P,D41,6,GND*%
%TO.N,/strip_r/GND*%
X106110000Y-184300000D03*
D10*
X107600000Y-185150000D03*
%TD*%
%TO.P,D4,1,VDD*%
%TO.N,/strip_l/+5V*%
X102800000Y-174150000D03*
D11*
X102730000Y-175000000D03*
D12*
%TO.P,D4,2,CKO*%
%TO.N,Net-(D4-CKO)*%
X101900000Y-174150000D03*
D10*
%TO.P,D4,3,SDO*%
%TO.N,Net-(D4-SDO)*%
X101000000Y-174150000D03*
%TO.P,D4,4,SDI*%
%TO.N,Net-(D3-SDO)*%
X101000000Y-175850000D03*
D12*
%TO.P,D4,5,CKI*%
%TO.N,Net-(D3-CKO)*%
X101900000Y-175850000D03*
D13*
%TO.P,D4,6,GND*%
%TO.N,/strip_l/GND*%
X101310000Y-175000000D03*
D10*
X102800000Y-175850000D03*
%TD*%
%TO.P,D49,1,VDD*%
%TO.N,/strip_r/+5V*%
X107600000Y-158650000D03*
D11*
X107530000Y-159500000D03*
D12*
%TO.P,D49,2,CKO*%
%TO.N,Net-(D49-CKO)*%
X106700000Y-158650000D03*
D10*
%TO.P,D49,3,SDO*%
%TO.N,Net-(D49-SDO)*%
X105800000Y-158650000D03*
%TO.P,D49,4,SDI*%
%TO.N,Net-(D48-SDO)*%
X105800000Y-160350000D03*
D12*
%TO.P,D49,5,CKI*%
%TO.N,Net-(D48-CKO)*%
X106700000Y-160350000D03*
D13*
%TO.P,D49,6,GND*%
%TO.N,/strip_r/GND*%
X106110000Y-159500000D03*
D10*
X107600000Y-160350000D03*
%TD*%
%TO.P,D27,1,VDD*%
%TO.N,/strip_l/+5V*%
X102800000Y-102850000D03*
D11*
X102730000Y-103700000D03*
D12*
%TO.P,D27,2,CKO*%
%TO.N,Net-(D27-CKO)*%
X101900000Y-102850000D03*
D10*
%TO.P,D27,3,SDO*%
%TO.N,Net-(D27-SDO)*%
X101000000Y-102850000D03*
%TO.P,D27,4,SDI*%
%TO.N,Net-(D26-SDO)*%
X101000000Y-104550000D03*
D12*
%TO.P,D27,5,CKI*%
%TO.N,Net-(D26-CKO)*%
X101900000Y-104550000D03*
D13*
%TO.P,D27,6,GND*%
%TO.N,/strip_l/GND*%
X101310000Y-103700000D03*
D10*
X102800000Y-104550000D03*
%TD*%
%TO.P,D36,1,VDD*%
%TO.N,/strip_l/+5V*%
X102800000Y-74950000D03*
D11*
X102730000Y-75800000D03*
D12*
%TO.P,D36,2,CKO*%
%TO.N,Net-(D36-CKO)*%
X101900000Y-74950000D03*
D10*
%TO.P,D36,3,SDO*%
%TO.N,Net-(D36-SDO)*%
X101000000Y-74950000D03*
%TO.P,D36,4,SDI*%
%TO.N,Net-(D35-SDO)*%
X101000000Y-76650000D03*
D12*
%TO.P,D36,5,CKI*%
%TO.N,Net-(D35-CKO)*%
X101900000Y-76650000D03*
D13*
%TO.P,D36,6,GND*%
%TO.N,/strip_l/GND*%
X101310000Y-75800000D03*
D10*
X102800000Y-76650000D03*
%TD*%
%TO.P,D23,1,VDD*%
%TO.N,/strip_l/+5V*%
X102800000Y-115250000D03*
D11*
X102730000Y-116100000D03*
D12*
%TO.P,D23,2,CKO*%
%TO.N,Net-(D23-CKO)*%
X101900000Y-115250000D03*
D10*
%TO.P,D23,3,SDO*%
%TO.N,Net-(D23-SDO)*%
X101000000Y-115250000D03*
%TO.P,D23,4,SDI*%
%TO.N,Net-(D22-SDO)*%
X101000000Y-116950000D03*
D12*
%TO.P,D23,5,CKI*%
%TO.N,Net-(D22-CKO)*%
X101900000Y-116950000D03*
D13*
%TO.P,D23,6,GND*%
%TO.N,/strip_l/GND*%
X101310000Y-116100000D03*
D10*
X102800000Y-116950000D03*
%TD*%
%TO.P,D60,1,VDD*%
%TO.N,/strip_r/+5V*%
X107600000Y-124550000D03*
D11*
X107530000Y-125400000D03*
D12*
%TO.P,D60,2,CKO*%
%TO.N,Net-(D60-CKO)*%
X106700000Y-124550000D03*
D10*
%TO.P,D60,3,SDO*%
%TO.N,Net-(D60-SDO)*%
X105800000Y-124550000D03*
%TO.P,D60,4,SDI*%
%TO.N,Net-(D59-SDO)*%
X105800000Y-126250000D03*
D12*
%TO.P,D60,5,CKI*%
%TO.N,Net-(D59-CKO)*%
X106700000Y-126250000D03*
D13*
%TO.P,D60,6,GND*%
%TO.N,/strip_r/GND*%
X106110000Y-125400000D03*
D10*
X107600000Y-126250000D03*
%TD*%
%TO.P,D62,1,VDD*%
%TO.N,/strip_r/+5V*%
X107600000Y-118350000D03*
D11*
X107530000Y-119200000D03*
D12*
%TO.P,D62,2,CKO*%
%TO.N,Net-(D62-CKO)*%
X106700000Y-118350000D03*
D10*
%TO.P,D62,3,SDO*%
%TO.N,Net-(D62-SDO)*%
X105800000Y-118350000D03*
%TO.P,D62,4,SDI*%
%TO.N,Net-(D61-SDO)*%
X105800000Y-120050000D03*
D12*
%TO.P,D62,5,CKI*%
%TO.N,Net-(D61-CKO)*%
X106700000Y-120050000D03*
D13*
%TO.P,D62,6,GND*%
%TO.N,/strip_r/GND*%
X106110000Y-119200000D03*
D10*
X107600000Y-120050000D03*
%TD*%
%TO.P,D42,1,VDD*%
%TO.N,/strip_r/+5V*%
X107590000Y-180350000D03*
D11*
X107520000Y-181200000D03*
D12*
%TO.P,D42,2,CKO*%
%TO.N,Net-(D42-CKO)*%
X106690000Y-180350000D03*
D10*
%TO.P,D42,3,SDO*%
%TO.N,Net-(D42-SDO)*%
X105790000Y-180350000D03*
%TO.P,D42,4,SDI*%
%TO.N,Net-(D41-SDO)*%
X105790000Y-182050000D03*
D12*
%TO.P,D42,5,CKI*%
%TO.N,Net-(D41-CKO)*%
X106690000Y-182050000D03*
D13*
%TO.P,D42,6,GND*%
%TO.N,/strip_r/GND*%
X106100000Y-181200000D03*
D10*
X107590000Y-182050000D03*
%TD*%
%TO.P,D21,1,VDD*%
%TO.N,/strip_l/+5V*%
X102800000Y-121450000D03*
D11*
X102730000Y-122300000D03*
D12*
%TO.P,D21,2,CKO*%
%TO.N,Net-(D21-CKO)*%
X101900000Y-121450000D03*
D10*
%TO.P,D21,3,SDO*%
%TO.N,Net-(D21-SDO)*%
X101000000Y-121450000D03*
%TO.P,D21,4,SDI*%
%TO.N,Net-(D20-SDO)*%
X101000000Y-123150000D03*
D12*
%TO.P,D21,5,CKI*%
%TO.N,Net-(D20-CKO)*%
X101900000Y-123150000D03*
D13*
%TO.P,D21,6,GND*%
%TO.N,/strip_l/GND*%
X101310000Y-122300000D03*
D10*
X102800000Y-123150000D03*
%TD*%
%TO.P,D75,1,VDD*%
%TO.N,/strip_r/+5V*%
X107600000Y-78050000D03*
D11*
X107530000Y-78900000D03*
D12*
%TO.P,D75,2,CKO*%
%TO.N,Net-(D75-CKO)*%
X106700000Y-78050000D03*
D10*
%TO.P,D75,3,SDO*%
%TO.N,Net-(D75-SDO)*%
X105800000Y-78050000D03*
%TO.P,D75,4,SDI*%
%TO.N,Net-(D74-SDO)*%
X105800000Y-79750000D03*
D12*
%TO.P,D75,5,CKI*%
%TO.N,Net-(D74-CKO)*%
X106700000Y-79750000D03*
D13*
%TO.P,D75,6,GND*%
%TO.N,/strip_r/GND*%
X106110000Y-78900000D03*
D10*
X107600000Y-79750000D03*
%TD*%
%TO.P,D38,1,VDD*%
%TO.N,/strip_l/+5V*%
X102800000Y-68750000D03*
D11*
X102730000Y-69600000D03*
D12*
%TO.P,D38,2,CKO*%
%TO.N,Net-(D38-CKO)*%
X101900000Y-68750000D03*
D10*
%TO.P,D38,3,SDO*%
%TO.N,Net-(D38-SDO)*%
X101000000Y-68750000D03*
%TO.P,D38,4,SDI*%
%TO.N,Net-(D37-SDO)*%
X101000000Y-70450000D03*
D12*
%TO.P,D38,5,CKI*%
%TO.N,Net-(D37-CKO)*%
X101900000Y-70450000D03*
D13*
%TO.P,D38,6,GND*%
%TO.N,/strip_l/GND*%
X101310000Y-69600000D03*
D10*
X102800000Y-70450000D03*
%TD*%
%TO.P,D79,1,VDD*%
%TO.N,/strip_r/+5V*%
X107600000Y-65650000D03*
D11*
X107530000Y-66500000D03*
D12*
%TO.P,D79,2,CKO*%
%TO.N,Net-(D79-CKO)*%
X106700000Y-65650000D03*
D10*
%TO.P,D79,3,SDO*%
%TO.N,Net-(D79-SDO)*%
X105800000Y-65650000D03*
%TO.P,D79,4,SDI*%
%TO.N,Net-(D78-SDO)*%
X105800000Y-67350000D03*
D12*
%TO.P,D79,5,CKI*%
%TO.N,Net-(D78-CKO)*%
X106700000Y-67350000D03*
D13*
%TO.P,D79,6,GND*%
%TO.N,/strip_r/GND*%
X106110000Y-66500000D03*
D10*
X107600000Y-67350000D03*
%TD*%
%TO.P,D53,1,VDD*%
%TO.N,/strip_r/+5V*%
X107600000Y-146250000D03*
D11*
X107530000Y-147100000D03*
D12*
%TO.P,D53,2,CKO*%
%TO.N,Net-(D53-CKO)*%
X106700000Y-146250000D03*
D10*
%TO.P,D53,3,SDO*%
%TO.N,Net-(D53-SDO)*%
X105800000Y-146250000D03*
%TO.P,D53,4,SDI*%
%TO.N,Net-(D52-SDO)*%
X105800000Y-147950000D03*
D12*
%TO.P,D53,5,CKI*%
%TO.N,Net-(D52-CKO)*%
X106700000Y-147950000D03*
D13*
%TO.P,D53,6,GND*%
%TO.N,/strip_r/GND*%
X106110000Y-147100000D03*
D10*
X107600000Y-147950000D03*
%TD*%
%TO.P,D12,1,VDD*%
%TO.N,/strip_l/+5V*%
X102800000Y-149350000D03*
D11*
X102730000Y-150200000D03*
D12*
%TO.P,D12,2,CKO*%
%TO.N,Net-(D12-CKO)*%
X101900000Y-149350000D03*
D10*
%TO.P,D12,3,SDO*%
%TO.N,Net-(D12-SDO)*%
X101000000Y-149350000D03*
%TO.P,D12,4,SDI*%
%TO.N,Net-(D11-SDO)*%
X101000000Y-151050000D03*
D12*
%TO.P,D12,5,CKI*%
%TO.N,Net-(D11-CKO)*%
X101900000Y-151050000D03*
D13*
%TO.P,D12,6,GND*%
%TO.N,/strip_l/GND*%
X101310000Y-150200000D03*
D10*
X102800000Y-151050000D03*
%TD*%
%TO.P,D33,1,VDD*%
%TO.N,/strip_l/+5V*%
X102800000Y-84250000D03*
D11*
X102730000Y-85100000D03*
D12*
%TO.P,D33,2,CKO*%
%TO.N,Net-(D33-CKO)*%
X101900000Y-84250000D03*
D10*
%TO.P,D33,3,SDO*%
%TO.N,Net-(D33-SDO)*%
X101000000Y-84250000D03*
%TO.P,D33,4,SDI*%
%TO.N,Net-(D32-SDO)*%
X101000000Y-85950000D03*
D12*
%TO.P,D33,5,CKI*%
%TO.N,Net-(D32-CKO)*%
X101900000Y-85950000D03*
D13*
%TO.P,D33,6,GND*%
%TO.N,/strip_l/GND*%
X101310000Y-85100000D03*
D10*
X102800000Y-85950000D03*
%TD*%
%TO.P,D52,1,VDD*%
%TO.N,/strip_r/+5V*%
X107600000Y-149350000D03*
D11*
X107530000Y-150200000D03*
D12*
%TO.P,D52,2,CKO*%
%TO.N,Net-(D52-CKO)*%
X106700000Y-149350000D03*
D10*
%TO.P,D52,3,SDO*%
%TO.N,Net-(D52-SDO)*%
X105800000Y-149350000D03*
%TO.P,D52,4,SDI*%
%TO.N,Net-(D51-SDO)*%
X105800000Y-151050000D03*
D12*
%TO.P,D52,5,CKI*%
%TO.N,Net-(D51-CKO)*%
X106700000Y-151050000D03*
D13*
%TO.P,D52,6,GND*%
%TO.N,/strip_r/GND*%
X106110000Y-150200000D03*
D10*
X107600000Y-151050000D03*
%TD*%
%TO.P,D19,1,VDD*%
%TO.N,/strip_l/+5V*%
X102800000Y-127650000D03*
D11*
X102730000Y-128500000D03*
D12*
%TO.P,D19,2,CKO*%
%TO.N,Net-(D19-CKO)*%
X101900000Y-127650000D03*
D10*
%TO.P,D19,3,SDO*%
%TO.N,Net-(D19-SDO)*%
X101000000Y-127650000D03*
%TO.P,D19,4,SDI*%
%TO.N,Net-(D18-SDO)*%
X101000000Y-129350000D03*
D12*
%TO.P,D19,5,CKI*%
%TO.N,Net-(D18-CKO)*%
X101900000Y-129350000D03*
D13*
%TO.P,D19,6,GND*%
%TO.N,/strip_l/GND*%
X101310000Y-128500000D03*
D10*
X102800000Y-129350000D03*
%TD*%
%TO.P,D48,1,VDD*%
%TO.N,/strip_r/+5V*%
X107600000Y-161750000D03*
D11*
X107530000Y-162600000D03*
D12*
%TO.P,D48,2,CKO*%
%TO.N,Net-(D48-CKO)*%
X106700000Y-161750000D03*
D10*
%TO.P,D48,3,SDO*%
%TO.N,Net-(D48-SDO)*%
X105800000Y-161750000D03*
%TO.P,D48,4,SDI*%
%TO.N,Net-(D47-SDO)*%
X105800000Y-163450000D03*
D12*
%TO.P,D48,5,CKI*%
%TO.N,Net-(D47-CKO)*%
X106700000Y-163450000D03*
D13*
%TO.P,D48,6,GND*%
%TO.N,/strip_r/GND*%
X106110000Y-162600000D03*
D10*
X107600000Y-163450000D03*
%TD*%
%TO.P,D58,1,VDD*%
%TO.N,/strip_r/+5V*%
X107600000Y-130750000D03*
D11*
X107530000Y-131600000D03*
D12*
%TO.P,D58,2,CKO*%
%TO.N,Net-(D58-CKO)*%
X106700000Y-130750000D03*
D10*
%TO.P,D58,3,SDO*%
%TO.N,Net-(D58-SDO)*%
X105800000Y-130750000D03*
%TO.P,D58,4,SDI*%
%TO.N,Net-(D57-SDO)*%
X105800000Y-132450000D03*
D12*
%TO.P,D58,5,CKI*%
%TO.N,Net-(D57-CKO)*%
X106700000Y-132450000D03*
D13*
%TO.P,D58,6,GND*%
%TO.N,/strip_r/GND*%
X106110000Y-131600000D03*
D10*
X107600000Y-132450000D03*
%TD*%
%TO.P,D9,1,VDD*%
%TO.N,/strip_l/+5V*%
X102800000Y-158650000D03*
D11*
X102730000Y-159500000D03*
D12*
%TO.P,D9,2,CKO*%
%TO.N,Net-(D10-CKI)*%
X101900000Y-158650000D03*
D10*
%TO.P,D9,3,SDO*%
%TO.N,Net-(D10-SDI)*%
X101000000Y-158650000D03*
%TO.P,D9,4,SDI*%
%TO.N,Net-(D8-SDO)*%
X101000000Y-160350000D03*
D12*
%TO.P,D9,5,CKI*%
%TO.N,Net-(D8-CKO)*%
X101900000Y-160350000D03*
D13*
%TO.P,D9,6,GND*%
%TO.N,/strip_l/GND*%
X101310000Y-159500000D03*
D10*
X102800000Y-160350000D03*
%TD*%
%TO.P,D73,1,VDD*%
%TO.N,/strip_r/+5V*%
X107600000Y-84250000D03*
D11*
X107530000Y-85100000D03*
D12*
%TO.P,D73,2,CKO*%
%TO.N,Net-(D73-CKO)*%
X106700000Y-84250000D03*
D10*
%TO.P,D73,3,SDO*%
%TO.N,Net-(D73-SDO)*%
X105800000Y-84250000D03*
%TO.P,D73,4,SDI*%
%TO.N,Net-(D72-SDO)*%
X105800000Y-85950000D03*
D12*
%TO.P,D73,5,CKI*%
%TO.N,Net-(D72-CKO)*%
X106700000Y-85950000D03*
D13*
%TO.P,D73,6,GND*%
%TO.N,/strip_r/GND*%
X106110000Y-85100000D03*
D10*
X107600000Y-85950000D03*
%TD*%
%TO.P,D13,1,VDD*%
%TO.N,/strip_l/+5V*%
X102790000Y-146250000D03*
D11*
X102720000Y-147100000D03*
D12*
%TO.P,D13,2,CKO*%
%TO.N,Net-(D13-CKO)*%
X101890000Y-146250000D03*
D10*
%TO.P,D13,3,SDO*%
%TO.N,Net-(D13-SDO)*%
X100990000Y-146250000D03*
%TO.P,D13,4,SDI*%
%TO.N,Net-(D12-SDO)*%
X100990000Y-147950000D03*
D12*
%TO.P,D13,5,CKI*%
%TO.N,Net-(D12-CKO)*%
X101890000Y-147950000D03*
D13*
%TO.P,D13,6,GND*%
%TO.N,/strip_l/GND*%
X101300000Y-147100000D03*
D10*
X102790000Y-147950000D03*
%TD*%
%TO.P,D78,1,VDD*%
%TO.N,/strip_r/+5V*%
X107600000Y-68750000D03*
D11*
X107530000Y-69600000D03*
D12*
%TO.P,D78,2,CKO*%
%TO.N,Net-(D78-CKO)*%
X106700000Y-68750000D03*
D10*
%TO.P,D78,3,SDO*%
%TO.N,Net-(D78-SDO)*%
X105800000Y-68750000D03*
%TO.P,D78,4,SDI*%
%TO.N,Net-(D77-SDO)*%
X105800000Y-70450000D03*
D12*
%TO.P,D78,5,CKI*%
%TO.N,Net-(D77-CKO)*%
X106700000Y-70450000D03*
D13*
%TO.P,D78,6,GND*%
%TO.N,/strip_r/GND*%
X106110000Y-69600000D03*
D10*
X107600000Y-70450000D03*
%TD*%
%TO.P,D43,1,VDD*%
%TO.N,/strip_r/+5V*%
X107600000Y-177250000D03*
D11*
X107530000Y-178100000D03*
D12*
%TO.P,D43,2,CKO*%
%TO.N,Net-(D43-CKO)*%
X106700000Y-177250000D03*
D10*
%TO.P,D43,3,SDO*%
%TO.N,Net-(D43-SDO)*%
X105800000Y-177250000D03*
%TO.P,D43,4,SDI*%
%TO.N,Net-(D42-SDO)*%
X105800000Y-178950000D03*
D12*
%TO.P,D43,5,CKI*%
%TO.N,Net-(D42-CKO)*%
X106700000Y-178950000D03*
D13*
%TO.P,D43,6,GND*%
%TO.N,/strip_r/GND*%
X106110000Y-178100000D03*
D10*
X107600000Y-178950000D03*
%TD*%
%TO.P,D8,1,VDD*%
%TO.N,/strip_l/+5V*%
X102800000Y-161750000D03*
D11*
X102730000Y-162600000D03*
D12*
%TO.P,D8,2,CKO*%
%TO.N,Net-(D8-CKO)*%
X101900000Y-161750000D03*
D10*
%TO.P,D8,3,SDO*%
%TO.N,Net-(D8-SDO)*%
X101000000Y-161750000D03*
%TO.P,D8,4,SDI*%
%TO.N,Net-(D7-SDO)*%
X101000000Y-163450000D03*
D12*
%TO.P,D8,5,CKI*%
%TO.N,Net-(D7-CKO)*%
X101900000Y-163450000D03*
D13*
%TO.P,D8,6,GND*%
%TO.N,/strip_l/GND*%
X101310000Y-162600000D03*
D10*
X102800000Y-163450000D03*
%TD*%
%TO.P,D31,1,VDD*%
%TO.N,/strip_l/+5V*%
X102800000Y-90450000D03*
D11*
X102730000Y-91300000D03*
D12*
%TO.P,D31,2,CKO*%
%TO.N,Net-(D31-CKO)*%
X101900000Y-90450000D03*
D10*
%TO.P,D31,3,SDO*%
%TO.N,Net-(D31-SDO)*%
X101000000Y-90450000D03*
%TO.P,D31,4,SDI*%
%TO.N,Net-(D30-SDO)*%
X101000000Y-92150000D03*
D12*
%TO.P,D31,5,CKI*%
%TO.N,Net-(D30-CKO)*%
X101900000Y-92150000D03*
D13*
%TO.P,D31,6,GND*%
%TO.N,/strip_l/GND*%
X101310000Y-91300000D03*
D10*
X102800000Y-92150000D03*
%TD*%
%TO.P,D39,1,VDD*%
%TO.N,/strip_l/+5V*%
X102800000Y-65650000D03*
D11*
X102730000Y-66500000D03*
D12*
%TO.P,D39,2,CKO*%
%TO.N,Net-(D39-CKO)*%
X101900000Y-65650000D03*
D10*
%TO.P,D39,3,SDO*%
%TO.N,Net-(D39-SDO)*%
X101000000Y-65650000D03*
%TO.P,D39,4,SDI*%
%TO.N,Net-(D38-SDO)*%
X101000000Y-67350000D03*
D12*
%TO.P,D39,5,CKI*%
%TO.N,Net-(D38-CKO)*%
X101900000Y-67350000D03*
D13*
%TO.P,D39,6,GND*%
%TO.N,/strip_l/GND*%
X101310000Y-66500000D03*
D10*
X102800000Y-67350000D03*
%TD*%
%TO.P,D59,1,VDD*%
%TO.N,/strip_r/+5V*%
X107600000Y-127650000D03*
D11*
X107530000Y-128500000D03*
D12*
%TO.P,D59,2,CKO*%
%TO.N,Net-(D59-CKO)*%
X106700000Y-127650000D03*
D10*
%TO.P,D59,3,SDO*%
%TO.N,Net-(D59-SDO)*%
X105800000Y-127650000D03*
%TO.P,D59,4,SDI*%
%TO.N,Net-(D58-SDO)*%
X105800000Y-129350000D03*
D12*
%TO.P,D59,5,CKI*%
%TO.N,Net-(D58-CKO)*%
X106700000Y-129350000D03*
D13*
%TO.P,D59,6,GND*%
%TO.N,/strip_r/GND*%
X106110000Y-128500000D03*
D10*
X107600000Y-129350000D03*
%TD*%
%TO.P,D47,1,VDD*%
%TO.N,/strip_r/+5V*%
X107600000Y-164850000D03*
D11*
X107530000Y-165700000D03*
D12*
%TO.P,D47,2,CKO*%
%TO.N,Net-(D47-CKO)*%
X106700000Y-164850000D03*
D10*
%TO.P,D47,3,SDO*%
%TO.N,Net-(D47-SDO)*%
X105800000Y-164850000D03*
%TO.P,D47,4,SDI*%
%TO.N,Net-(D46-SDO)*%
X105800000Y-166550000D03*
D12*
%TO.P,D47,5,CKI*%
%TO.N,Net-(D46-CKO)*%
X106700000Y-166550000D03*
D13*
%TO.P,D47,6,GND*%
%TO.N,/strip_r/GND*%
X106110000Y-165700000D03*
D10*
X107600000Y-166550000D03*
%TD*%
%TO.P,D61,1,VDD*%
%TO.N,/strip_r/+5V*%
X107600000Y-121450000D03*
D11*
X107530000Y-122300000D03*
D12*
%TO.P,D61,2,CKO*%
%TO.N,Net-(D61-CKO)*%
X106700000Y-121450000D03*
D10*
%TO.P,D61,3,SDO*%
%TO.N,Net-(D61-SDO)*%
X105800000Y-121450000D03*
%TO.P,D61,4,SDI*%
%TO.N,Net-(D60-SDO)*%
X105800000Y-123150000D03*
D12*
%TO.P,D61,5,CKI*%
%TO.N,Net-(D60-CKO)*%
X106700000Y-123150000D03*
D13*
%TO.P,D61,6,GND*%
%TO.N,/strip_r/GND*%
X106110000Y-122300000D03*
D10*
X107600000Y-123150000D03*
%TD*%
%TO.P,D57,1,VDD*%
%TO.N,/strip_r/+5V*%
X107600000Y-133850000D03*
D11*
X107530000Y-134700000D03*
D12*
%TO.P,D57,2,CKO*%
%TO.N,Net-(D57-CKO)*%
X106700000Y-133850000D03*
D10*
%TO.P,D57,3,SDO*%
%TO.N,Net-(D57-SDO)*%
X105800000Y-133850000D03*
%TO.P,D57,4,SDI*%
%TO.N,Net-(D56-SDO)*%
X105800000Y-135550000D03*
D12*
%TO.P,D57,5,CKI*%
%TO.N,Net-(D56-CKO)*%
X106700000Y-135550000D03*
D13*
%TO.P,D57,6,GND*%
%TO.N,/strip_r/GND*%
X106110000Y-134700000D03*
D10*
X107600000Y-135550000D03*
%TD*%
%TO.P,D37,1,VDD*%
%TO.N,/strip_l/+5V*%
X102800000Y-71850000D03*
D11*
X102730000Y-72700000D03*
D12*
%TO.P,D37,2,CKO*%
%TO.N,Net-(D37-CKO)*%
X101900000Y-71850000D03*
D10*
%TO.P,D37,3,SDO*%
%TO.N,Net-(D37-SDO)*%
X101000000Y-71850000D03*
%TO.P,D37,4,SDI*%
%TO.N,Net-(D36-SDO)*%
X101000000Y-73550000D03*
D12*
%TO.P,D37,5,CKI*%
%TO.N,Net-(D36-CKO)*%
X101900000Y-73550000D03*
D13*
%TO.P,D37,6,GND*%
%TO.N,/strip_l/GND*%
X101310000Y-72700000D03*
D10*
X102800000Y-73550000D03*
%TD*%
%TO.P,D11,1,VDD*%
%TO.N,/strip_l/+5V*%
X102800000Y-152450000D03*
D11*
X102730000Y-153300000D03*
D12*
%TO.P,D11,2,CKO*%
%TO.N,Net-(D11-CKO)*%
X101900000Y-152450000D03*
D10*
%TO.P,D11,3,SDO*%
%TO.N,Net-(D11-SDO)*%
X101000000Y-152450000D03*
%TO.P,D11,4,SDI*%
%TO.N,Net-(D10-SDO)*%
X101000000Y-154150000D03*
D12*
%TO.P,D11,5,CKI*%
%TO.N,Net-(D10-CKO)*%
X101900000Y-154150000D03*
D13*
%TO.P,D11,6,GND*%
%TO.N,/strip_l/GND*%
X101310000Y-153300000D03*
D10*
X102800000Y-154150000D03*
%TD*%
%TO.P,D66,1,VDD*%
%TO.N,/strip_r/+5V*%
X107600000Y-105950000D03*
D11*
X107530000Y-106800000D03*
D12*
%TO.P,D66,2,CKO*%
%TO.N,Net-(D66-CKO)*%
X106700000Y-105950000D03*
D10*
%TO.P,D66,3,SDO*%
%TO.N,Net-(D66-SDO)*%
X105800000Y-105950000D03*
%TO.P,D66,4,SDI*%
%TO.N,Net-(D65-SDO)*%
X105800000Y-107650000D03*
D12*
%TO.P,D66,5,CKI*%
%TO.N,Net-(D65-CKO)*%
X106700000Y-107650000D03*
D13*
%TO.P,D66,6,GND*%
%TO.N,/strip_r/GND*%
X106110000Y-106800000D03*
D10*
X107600000Y-107650000D03*
%TD*%
%TO.P,D64,1,VDD*%
%TO.N,/strip_r/+5V*%
X107600000Y-112150000D03*
D11*
X107530000Y-113000000D03*
D12*
%TO.P,D64,2,CKO*%
%TO.N,Net-(D64-CKO)*%
X106700000Y-112150000D03*
D10*
%TO.P,D64,3,SDO*%
%TO.N,Net-(D64-SDO)*%
X105800000Y-112150000D03*
%TO.P,D64,4,SDI*%
%TO.N,Net-(D63-SDO)*%
X105800000Y-113850000D03*
D12*
%TO.P,D64,5,CKI*%
%TO.N,Net-(D63-CKO)*%
X106700000Y-113850000D03*
D13*
%TO.P,D64,6,GND*%
%TO.N,/strip_r/GND*%
X106110000Y-113000000D03*
D10*
X107600000Y-113850000D03*
%TD*%
%TO.P,D15,1,VDD*%
%TO.N,/strip_l/+5V*%
X102800000Y-140050000D03*
D11*
X102730000Y-140900000D03*
D12*
%TO.P,D15,2,CKO*%
%TO.N,Net-(D15-CKO)*%
X101900000Y-140050000D03*
D10*
%TO.P,D15,3,SDO*%
%TO.N,Net-(D15-SDO)*%
X101000000Y-140050000D03*
%TO.P,D15,4,SDI*%
%TO.N,Net-(D14-SDO)*%
X101000000Y-141750000D03*
D12*
%TO.P,D15,5,CKI*%
%TO.N,Net-(D14-CKO)*%
X101900000Y-141750000D03*
D13*
%TO.P,D15,6,GND*%
%TO.N,/strip_l/GND*%
X101310000Y-140900000D03*
D10*
X102800000Y-141750000D03*
%TD*%
%TO.P,D3,1,VDD*%
%TO.N,/strip_l/+5V*%
X102800000Y-177250000D03*
D11*
X102730000Y-178100000D03*
D12*
%TO.P,D3,2,CKO*%
%TO.N,Net-(D3-CKO)*%
X101900000Y-177250000D03*
D10*
%TO.P,D3,3,SDO*%
%TO.N,Net-(D3-SDO)*%
X101000000Y-177250000D03*
%TO.P,D3,4,SDI*%
%TO.N,Net-(D2-SDO)*%
X101000000Y-178950000D03*
D12*
%TO.P,D3,5,CKI*%
%TO.N,Net-(D2-CKO)*%
X101900000Y-178950000D03*
D13*
%TO.P,D3,6,GND*%
%TO.N,/strip_l/GND*%
X101310000Y-178100000D03*
D10*
X102800000Y-178950000D03*
%TD*%
%TO.P,D63,1,VDD*%
%TO.N,/strip_r/+5V*%
X107600000Y-115250000D03*
D11*
X107530000Y-116100000D03*
D12*
%TO.P,D63,2,CKO*%
%TO.N,Net-(D63-CKO)*%
X106700000Y-115250000D03*
D10*
%TO.P,D63,3,SDO*%
%TO.N,Net-(D63-SDO)*%
X105800000Y-115250000D03*
%TO.P,D63,4,SDI*%
%TO.N,Net-(D62-SDO)*%
X105800000Y-116950000D03*
D12*
%TO.P,D63,5,CKI*%
%TO.N,Net-(D62-CKO)*%
X106700000Y-116950000D03*
D13*
%TO.P,D63,6,GND*%
%TO.N,/strip_r/GND*%
X106110000Y-116100000D03*
D10*
X107600000Y-116950000D03*
%TD*%
%TO.P,D6,1,VDD*%
%TO.N,/strip_l/+5V*%
X102800000Y-167950000D03*
D11*
X102730000Y-168800000D03*
D12*
%TO.P,D6,2,CKO*%
%TO.N,Net-(D6-CKO)*%
X101900000Y-167950000D03*
D10*
%TO.P,D6,3,SDO*%
%TO.N,Net-(D6-SDO)*%
X101000000Y-167950000D03*
%TO.P,D6,4,SDI*%
%TO.N,Net-(D5-SDO)*%
X101000000Y-169650000D03*
D12*
%TO.P,D6,5,CKI*%
%TO.N,Net-(D5-CKO)*%
X101900000Y-169650000D03*
D13*
%TO.P,D6,6,GND*%
%TO.N,/strip_l/GND*%
X101310000Y-168800000D03*
D10*
X102800000Y-169650000D03*
%TD*%
%TO.P,D25,1,VDD*%
%TO.N,/strip_l/+5V*%
X102800000Y-109050000D03*
D11*
X102730000Y-109900000D03*
D12*
%TO.P,D25,2,CKO*%
%TO.N,Net-(D25-CKO)*%
X101900000Y-109050000D03*
D10*
%TO.P,D25,3,SDO*%
%TO.N,Net-(D25-SDO)*%
X101000000Y-109050000D03*
%TO.P,D25,4,SDI*%
%TO.N,Net-(D24-SDO)*%
X101000000Y-110750000D03*
D12*
%TO.P,D25,5,CKI*%
%TO.N,Net-(D24-CKO)*%
X101900000Y-110750000D03*
D13*
%TO.P,D25,6,GND*%
%TO.N,/strip_l/GND*%
X101310000Y-109900000D03*
D10*
X102800000Y-110750000D03*
%TD*%
%TO.P,D22,1,VDD*%
%TO.N,/strip_l/+5V*%
X102800000Y-118350000D03*
D11*
X102730000Y-119200000D03*
D12*
%TO.P,D22,2,CKO*%
%TO.N,Net-(D22-CKO)*%
X101900000Y-118350000D03*
D10*
%TO.P,D22,3,SDO*%
%TO.N,Net-(D22-SDO)*%
X101000000Y-118350000D03*
%TO.P,D22,4,SDI*%
%TO.N,Net-(D21-SDO)*%
X101000000Y-120050000D03*
D12*
%TO.P,D22,5,CKI*%
%TO.N,Net-(D21-CKO)*%
X101900000Y-120050000D03*
D13*
%TO.P,D22,6,GND*%
%TO.N,/strip_l/GND*%
X101310000Y-119200000D03*
D10*
X102800000Y-120050000D03*
%TD*%
%TO.P,D77,1,VDD*%
%TO.N,/strip_r/+5V*%
X107600000Y-71850000D03*
D11*
X107530000Y-72700000D03*
D12*
%TO.P,D77,2,CKO*%
%TO.N,Net-(D77-CKO)*%
X106700000Y-71850000D03*
D10*
%TO.P,D77,3,SDO*%
%TO.N,Net-(D77-SDO)*%
X105800000Y-71850000D03*
%TO.P,D77,4,SDI*%
%TO.N,Net-(D76-SDO)*%
X105800000Y-73550000D03*
D12*
%TO.P,D77,5,CKI*%
%TO.N,Net-(D76-CKO)*%
X106700000Y-73550000D03*
D13*
%TO.P,D77,6,GND*%
%TO.N,/strip_r/GND*%
X106110000Y-72700000D03*
D10*
X107600000Y-73550000D03*
%TD*%
%TO.P,D56,1,VDD*%
%TO.N,/strip_r/+5V*%
X107600000Y-136950000D03*
D11*
X107530000Y-137800000D03*
D12*
%TO.P,D56,2,CKO*%
%TO.N,Net-(D56-CKO)*%
X106700000Y-136950000D03*
D10*
%TO.P,D56,3,SDO*%
%TO.N,Net-(D56-SDO)*%
X105800000Y-136950000D03*
%TO.P,D56,4,SDI*%
%TO.N,Net-(D55-SDO)*%
X105800000Y-138650000D03*
D12*
%TO.P,D56,5,CKI*%
%TO.N,Net-(D55-CKO)*%
X106700000Y-138650000D03*
D13*
%TO.P,D56,6,GND*%
%TO.N,/strip_r/GND*%
X106110000Y-137800000D03*
D10*
X107600000Y-138650000D03*
%TD*%
%TO.P,D44,1,VDD*%
%TO.N,/strip_r/+5V*%
X107590000Y-174150000D03*
D11*
X107520000Y-175000000D03*
D12*
%TO.P,D44,2,CKO*%
%TO.N,Net-(D44-CKO)*%
X106690000Y-174150000D03*
D10*
%TO.P,D44,3,SDO*%
%TO.N,Net-(D44-SDO)*%
X105790000Y-174150000D03*
%TO.P,D44,4,SDI*%
%TO.N,Net-(D43-SDO)*%
X105790000Y-175850000D03*
D12*
%TO.P,D44,5,CKI*%
%TO.N,Net-(D43-CKO)*%
X106690000Y-175850000D03*
D13*
%TO.P,D44,6,GND*%
%TO.N,/strip_r/GND*%
X106100000Y-175000000D03*
D10*
X107590000Y-175850000D03*
%TD*%
%TO.P,D54,1,VDD*%
%TO.N,/strip_r/+5V*%
X107600000Y-143150000D03*
D11*
X107530000Y-144000000D03*
D12*
%TO.P,D54,2,CKO*%
%TO.N,Net-(D54-CKO)*%
X106700000Y-143150000D03*
D10*
%TO.P,D54,3,SDO*%
%TO.N,Net-(D54-SDO)*%
X105800000Y-143150000D03*
%TO.P,D54,4,SDI*%
%TO.N,Net-(D53-SDO)*%
X105800000Y-144850000D03*
D12*
%TO.P,D54,5,CKI*%
%TO.N,Net-(D53-CKO)*%
X106700000Y-144850000D03*
D13*
%TO.P,D54,6,GND*%
%TO.N,/strip_r/GND*%
X106110000Y-144000000D03*
D10*
X107600000Y-144850000D03*
%TD*%
%TO.P,D14,1,VDD*%
%TO.N,/strip_l/+5V*%
X102800000Y-143150000D03*
D11*
X102730000Y-144000000D03*
D12*
%TO.P,D14,2,CKO*%
%TO.N,Net-(D14-CKO)*%
X101900000Y-143150000D03*
D10*
%TO.P,D14,3,SDO*%
%TO.N,Net-(D14-SDO)*%
X101000000Y-143150000D03*
%TO.P,D14,4,SDI*%
%TO.N,Net-(D13-SDO)*%
X101000000Y-144850000D03*
D12*
%TO.P,D14,5,CKI*%
%TO.N,Net-(D13-CKO)*%
X101900000Y-144850000D03*
D13*
%TO.P,D14,6,GND*%
%TO.N,/strip_l/GND*%
X101310000Y-144000000D03*
D10*
X102800000Y-144850000D03*
%TD*%
%TO.P,D35,1,VDD*%
%TO.N,/strip_l/+5V*%
X102800000Y-78050000D03*
D11*
X102730000Y-78900000D03*
D12*
%TO.P,D35,2,CKO*%
%TO.N,Net-(D35-CKO)*%
X101900000Y-78050000D03*
D10*
%TO.P,D35,3,SDO*%
%TO.N,Net-(D35-SDO)*%
X101000000Y-78050000D03*
%TO.P,D35,4,SDI*%
%TO.N,Net-(D34-SDO)*%
X101000000Y-79750000D03*
D12*
%TO.P,D35,5,CKI*%
%TO.N,Net-(D34-CKO)*%
X101900000Y-79750000D03*
D13*
%TO.P,D35,6,GND*%
%TO.N,/strip_l/GND*%
X101310000Y-78900000D03*
D10*
X102800000Y-79750000D03*
%TD*%
%TO.P,D28,1,VDD*%
%TO.N,/strip_l/+5V*%
X102800000Y-99750000D03*
D11*
X102730000Y-100600000D03*
D12*
%TO.P,D28,2,CKO*%
%TO.N,Net-(D28-CKO)*%
X101900000Y-99750000D03*
D10*
%TO.P,D28,3,SDO*%
%TO.N,Net-(D28-SDO)*%
X101000000Y-99750000D03*
%TO.P,D28,4,SDI*%
%TO.N,Net-(D27-SDO)*%
X101000000Y-101450000D03*
D12*
%TO.P,D28,5,CKI*%
%TO.N,Net-(D27-CKO)*%
X101900000Y-101450000D03*
D13*
%TO.P,D28,6,GND*%
%TO.N,/strip_l/GND*%
X101310000Y-100600000D03*
D10*
X102800000Y-101450000D03*
%TD*%
%TO.P,D5,1,VDD*%
%TO.N,/strip_l/+5V*%
X102800000Y-171050000D03*
D11*
X102730000Y-171900000D03*
D12*
%TO.P,D5,2,CKO*%
%TO.N,Net-(D5-CKO)*%
X101900000Y-171050000D03*
D10*
%TO.P,D5,3,SDO*%
%TO.N,Net-(D5-SDO)*%
X101000000Y-171050000D03*
%TO.P,D5,4,SDI*%
%TO.N,Net-(D4-SDO)*%
X101000000Y-172750000D03*
D12*
%TO.P,D5,5,CKI*%
%TO.N,Net-(D4-CKO)*%
X101900000Y-172750000D03*
D13*
%TO.P,D5,6,GND*%
%TO.N,/strip_l/GND*%
X101310000Y-171900000D03*
D10*
X102800000Y-172750000D03*
%TD*%
%TO.P,D74,1,VDD*%
%TO.N,/strip_r/+5V*%
X107600000Y-81150000D03*
D11*
X107530000Y-82000000D03*
D12*
%TO.P,D74,2,CKO*%
%TO.N,Net-(D74-CKO)*%
X106700000Y-81150000D03*
D10*
%TO.P,D74,3,SDO*%
%TO.N,Net-(D74-SDO)*%
X105800000Y-81150000D03*
%TO.P,D74,4,SDI*%
%TO.N,Net-(D73-SDO)*%
X105800000Y-82850000D03*
D12*
%TO.P,D74,5,CKI*%
%TO.N,Net-(D73-CKO)*%
X106700000Y-82850000D03*
D13*
%TO.P,D74,6,GND*%
%TO.N,/strip_r/GND*%
X106110000Y-82000000D03*
D10*
X107600000Y-82850000D03*
%TD*%
%TO.P,D76,1,VDD*%
%TO.N,/strip_r/+5V*%
X107600000Y-74950000D03*
D11*
X107530000Y-75800000D03*
D12*
%TO.P,D76,2,CKO*%
%TO.N,Net-(D76-CKO)*%
X106700000Y-74950000D03*
D10*
%TO.P,D76,3,SDO*%
%TO.N,Net-(D76-SDO)*%
X105800000Y-74950000D03*
%TO.P,D76,4,SDI*%
%TO.N,Net-(D75-SDO)*%
X105800000Y-76650000D03*
D12*
%TO.P,D76,5,CKI*%
%TO.N,Net-(D75-CKO)*%
X106700000Y-76650000D03*
D13*
%TO.P,D76,6,GND*%
%TO.N,/strip_r/GND*%
X106110000Y-75800000D03*
D10*
X107600000Y-76650000D03*
%TD*%
%TO.P,D1,1,VDD*%
%TO.N,/strip_l/+5V*%
X102800000Y-183450000D03*
D11*
X102730000Y-184300000D03*
D12*
%TO.P,D1,2,CKO*%
%TO.N,Net-(D1-CKO)*%
X101900000Y-183450000D03*
D10*
%TO.P,D1,3,SDO*%
%TO.N,Net-(D1-SDO)*%
X101000000Y-183450000D03*
%TO.P,D1,4,SDI*%
%TO.N,/strip_l/SDI*%
X101000000Y-185150000D03*
D12*
%TO.P,D1,5,CKI*%
%TO.N,/strip_l/CKI*%
X101900000Y-185150000D03*
D13*
%TO.P,D1,6,GND*%
%TO.N,/strip_l/GND*%
X101310000Y-184300000D03*
D10*
X102800000Y-185150000D03*
%TD*%
%TO.P,D17,1,VDD*%
%TO.N,/strip_l/+5V*%
X102800000Y-133850000D03*
D11*
X102730000Y-134700000D03*
D12*
%TO.P,D17,2,CKO*%
%TO.N,Net-(D17-CKO)*%
X101900000Y-133850000D03*
D10*
%TO.P,D17,3,SDO*%
%TO.N,Net-(D17-SDO)*%
X101000000Y-133850000D03*
%TO.P,D17,4,SDI*%
%TO.N,Net-(D16-SDO)*%
X101000000Y-135550000D03*
D12*
%TO.P,D17,5,CKI*%
%TO.N,Net-(D16-CKO)*%
X101900000Y-135550000D03*
D13*
%TO.P,D17,6,GND*%
%TO.N,/strip_l/GND*%
X101310000Y-134700000D03*
D10*
X102800000Y-135550000D03*
%TD*%
%TO.P,D30,1,VDD*%
%TO.N,/strip_l/+5V*%
X102800000Y-93550000D03*
D11*
X102730000Y-94400000D03*
D12*
%TO.P,D30,2,CKO*%
%TO.N,Net-(D30-CKO)*%
X101900000Y-93550000D03*
D10*
%TO.P,D30,3,SDO*%
%TO.N,Net-(D30-SDO)*%
X101000000Y-93550000D03*
%TO.P,D30,4,SDI*%
%TO.N,Net-(D29-SDO)*%
X101000000Y-95250000D03*
D12*
%TO.P,D30,5,CKI*%
%TO.N,Net-(D29-CKO)*%
X101900000Y-95250000D03*
D13*
%TO.P,D30,6,GND*%
%TO.N,/strip_l/GND*%
X101310000Y-94400000D03*
D10*
X102800000Y-95250000D03*
%TD*%
%TO.P,D55,1,VDD*%
%TO.N,/strip_r/+5V*%
X107600000Y-140050000D03*
D11*
X107530000Y-140900000D03*
D12*
%TO.P,D55,2,CKO*%
%TO.N,Net-(D55-CKO)*%
X106700000Y-140050000D03*
D10*
%TO.P,D55,3,SDO*%
%TO.N,Net-(D55-SDO)*%
X105800000Y-140050000D03*
%TO.P,D55,4,SDI*%
%TO.N,Net-(D54-SDO)*%
X105800000Y-141750000D03*
D12*
%TO.P,D55,5,CKI*%
%TO.N,Net-(D54-CKO)*%
X106700000Y-141750000D03*
D13*
%TO.P,D55,6,GND*%
%TO.N,/strip_r/GND*%
X106110000Y-140900000D03*
D10*
X107600000Y-141750000D03*
%TD*%
%TO.P,D50,1,VDD*%
%TO.N,/strip_r/+5V*%
X107600000Y-155550000D03*
D11*
X107530000Y-156400000D03*
D12*
%TO.P,D50,2,CKO*%
%TO.N,Net-(D50-CKO)*%
X106700000Y-155550000D03*
D10*
%TO.P,D50,3,SDO*%
%TO.N,Net-(D50-SDO)*%
X105800000Y-155550000D03*
%TO.P,D50,4,SDI*%
%TO.N,Net-(D49-SDO)*%
X105800000Y-157250000D03*
D12*
%TO.P,D50,5,CKI*%
%TO.N,Net-(D49-CKO)*%
X106700000Y-157250000D03*
D13*
%TO.P,D50,6,GND*%
%TO.N,/strip_r/GND*%
X106110000Y-156400000D03*
D10*
X107600000Y-157250000D03*
%TD*%
%TO.P,D7,1,VDD*%
%TO.N,/strip_l/+5V*%
X102800000Y-164850000D03*
D11*
X102730000Y-165700000D03*
D12*
%TO.P,D7,2,CKO*%
%TO.N,Net-(D7-CKO)*%
X101900000Y-164850000D03*
D10*
%TO.P,D7,3,SDO*%
%TO.N,Net-(D7-SDO)*%
X101000000Y-164850000D03*
%TO.P,D7,4,SDI*%
%TO.N,Net-(D6-SDO)*%
X101000000Y-166550000D03*
D12*
%TO.P,D7,5,CKI*%
%TO.N,Net-(D6-CKO)*%
X101900000Y-166550000D03*
D13*
%TO.P,D7,6,GND*%
%TO.N,/strip_l/GND*%
X101310000Y-165700000D03*
D10*
X102800000Y-166550000D03*
%TD*%
%TO.P,D2,1,VDD*%
%TO.N,/strip_l/+5V*%
X102800000Y-180350000D03*
D11*
X102730000Y-181200000D03*
D12*
%TO.P,D2,2,CKO*%
%TO.N,Net-(D2-CKO)*%
X101900000Y-180350000D03*
D10*
%TO.P,D2,3,SDO*%
%TO.N,Net-(D2-SDO)*%
X101000000Y-180350000D03*
%TO.P,D2,4,SDI*%
%TO.N,Net-(D1-SDO)*%
X101000000Y-182050000D03*
D12*
%TO.P,D2,5,CKI*%
%TO.N,Net-(D1-CKO)*%
X101900000Y-182050000D03*
D13*
%TO.P,D2,6,GND*%
%TO.N,/strip_l/GND*%
X101310000Y-181200000D03*
D10*
X102800000Y-182050000D03*
%TD*%
%TO.P,D71,1,VDD*%
%TO.N,/strip_r/+5V*%
X107600000Y-90450000D03*
D11*
X107530000Y-91300000D03*
D12*
%TO.P,D71,2,CKO*%
%TO.N,Net-(D71-CKO)*%
X106700000Y-90450000D03*
D10*
%TO.P,D71,3,SDO*%
%TO.N,Net-(D71-SDO)*%
X105800000Y-90450000D03*
%TO.P,D71,4,SDI*%
%TO.N,Net-(D70-SDO)*%
X105800000Y-92150000D03*
D12*
%TO.P,D71,5,CKI*%
%TO.N,Net-(D70-CKO)*%
X106700000Y-92150000D03*
D13*
%TO.P,D71,6,GND*%
%TO.N,/strip_r/GND*%
X106110000Y-91300000D03*
D10*
X107600000Y-92150000D03*
%TD*%
%TO.P,D24,1,VDD*%
%TO.N,/strip_l/+5V*%
X102800000Y-112150000D03*
D11*
X102730000Y-113000000D03*
D12*
%TO.P,D24,2,CKO*%
%TO.N,Net-(D24-CKO)*%
X101900000Y-112150000D03*
D10*
%TO.P,D24,3,SDO*%
%TO.N,Net-(D24-SDO)*%
X101000000Y-112150000D03*
%TO.P,D24,4,SDI*%
%TO.N,Net-(D23-SDO)*%
X101000000Y-113850000D03*
D12*
%TO.P,D24,5,CKI*%
%TO.N,Net-(D23-CKO)*%
X101900000Y-113850000D03*
D13*
%TO.P,D24,6,GND*%
%TO.N,/strip_l/GND*%
X101310000Y-113000000D03*
D10*
X102800000Y-113850000D03*
%TD*%
%TO.P,D72,1,VDD*%
%TO.N,/strip_r/+5V*%
X107600000Y-87350000D03*
D11*
X107530000Y-88200000D03*
D12*
%TO.P,D72,2,CKO*%
%TO.N,Net-(D72-CKO)*%
X106700000Y-87350000D03*
D10*
%TO.P,D72,3,SDO*%
%TO.N,Net-(D72-SDO)*%
X105800000Y-87350000D03*
%TO.P,D72,4,SDI*%
%TO.N,Net-(D71-SDO)*%
X105800000Y-89050000D03*
D12*
%TO.P,D72,5,CKI*%
%TO.N,Net-(D71-CKO)*%
X106700000Y-89050000D03*
D13*
%TO.P,D72,6,GND*%
%TO.N,/strip_r/GND*%
X106110000Y-88200000D03*
D10*
X107600000Y-89050000D03*
%TD*%
%TO.P,D32,1,VDD*%
%TO.N,/strip_l/+5V*%
X102800000Y-87350000D03*
D11*
X102730000Y-88200000D03*
D12*
%TO.P,D32,2,CKO*%
%TO.N,Net-(D32-CKO)*%
X101900000Y-87350000D03*
D10*
%TO.P,D32,3,SDO*%
%TO.N,Net-(D32-SDO)*%
X101000000Y-87350000D03*
%TO.P,D32,4,SDI*%
%TO.N,Net-(D31-SDO)*%
X101000000Y-89050000D03*
D12*
%TO.P,D32,5,CKI*%
%TO.N,Net-(D31-CKO)*%
X101900000Y-89050000D03*
D13*
%TO.P,D32,6,GND*%
%TO.N,/strip_l/GND*%
X101310000Y-88200000D03*
D10*
X102800000Y-89050000D03*
%TD*%
%TO.P,D67,1,VDD*%
%TO.N,/strip_r/+5V*%
X107600000Y-102850000D03*
D11*
X107530000Y-103700000D03*
D12*
%TO.P,D67,2,CKO*%
%TO.N,Net-(D67-CKO)*%
X106700000Y-102850000D03*
D10*
%TO.P,D67,3,SDO*%
%TO.N,Net-(D67-SDO)*%
X105800000Y-102850000D03*
%TO.P,D67,4,SDI*%
%TO.N,Net-(D66-SDO)*%
X105800000Y-104550000D03*
D12*
%TO.P,D67,5,CKI*%
%TO.N,Net-(D66-CKO)*%
X106700000Y-104550000D03*
D13*
%TO.P,D67,6,GND*%
%TO.N,/strip_r/GND*%
X106110000Y-103700000D03*
D10*
X107600000Y-104550000D03*
%TD*%
D14*
%TO.N,/strip_l/GND*%
X100500000Y-120750000D03*
X102161356Y-120750001D03*
X102161356Y-64950001D03*
X100500000Y-92850000D03*
X102161356Y-139350001D03*
X102161356Y-83550001D03*
X100500000Y-151750000D03*
X102161356Y-108350001D03*
X102161356Y-161050001D03*
X102161356Y-179650001D03*
X102327103Y-185710046D03*
X102161356Y-111450001D03*
X102161356Y-173450001D03*
X100500000Y-179650000D03*
X100500000Y-164150000D03*
X102161356Y-77350001D03*
X100500000Y-145550000D03*
X102161356Y-148650001D03*
X102161356Y-167250001D03*
X100500000Y-167250000D03*
X102161356Y-68050001D03*
X100500000Y-130050000D03*
X102161356Y-71150001D03*
X102161356Y-136250001D03*
X102161356Y-117650001D03*
X102161356Y-145550001D03*
X100500000Y-105250000D03*
X102161356Y-80450001D03*
X100500000Y-136250000D03*
X102161356Y-74250001D03*
X102161356Y-89750001D03*
X100500000Y-126950000D03*
X102161356Y-142450001D03*
X100500000Y-142450000D03*
X100500000Y-170350000D03*
X100500000Y-154850000D03*
X102161356Y-130050001D03*
X102161356Y-86650001D03*
X100500000Y-182750000D03*
X102161356Y-170350001D03*
X102161356Y-99050001D03*
X102161356Y-123850001D03*
X102161356Y-176550001D03*
X102161356Y-182750001D03*
X100500000Y-64950000D03*
X100500000Y-157950000D03*
X100500000Y-95950000D03*
X102161356Y-95950001D03*
X100500000Y-68050000D03*
X100500000Y-77350000D03*
X100500000Y-89750000D03*
X100500000Y-86650000D03*
X102161356Y-105250001D03*
X102161356Y-157950001D03*
X100500000Y-114550000D03*
X102161356Y-164150001D03*
X102161356Y-114550001D03*
X102161356Y-133150001D03*
X102161356Y-126950001D03*
X100500000Y-74250000D03*
X100500000Y-83550000D03*
X102161356Y-154850001D03*
X102161356Y-151750001D03*
X102161356Y-92850001D03*
X100500000Y-111450000D03*
X100700000Y-186750000D03*
X100500000Y-99050000D03*
X100500000Y-117650000D03*
X100500000Y-71150000D03*
X100500000Y-173450000D03*
X100500000Y-161050000D03*
X100500000Y-108350000D03*
X100500000Y-102150000D03*
X100500000Y-139350000D03*
X100500000Y-148650000D03*
X100500000Y-176550000D03*
X102161356Y-102150001D03*
X100500000Y-123850000D03*
%TO.N,/strip_l/+5V*%
X103340000Y-121450000D03*
X103340000Y-164850000D03*
X103340000Y-102850000D03*
X103340000Y-177250000D03*
X103340000Y-171050000D03*
X103340000Y-118350000D03*
X103340000Y-143150000D03*
X103340000Y-87350000D03*
X103340000Y-115250000D03*
X103340000Y-124550000D03*
X103100000Y-186750000D03*
X103340000Y-146250000D03*
X103340000Y-149350000D03*
X103340000Y-84250000D03*
X103340000Y-112150000D03*
X103340000Y-105950000D03*
X103340000Y-180350000D03*
X103340000Y-71850000D03*
X103340000Y-136950000D03*
X103340000Y-99750000D03*
X103340000Y-65650000D03*
X103340000Y-96650000D03*
X103340000Y-109050000D03*
X103340000Y-183450000D03*
X103340000Y-167950000D03*
X103340000Y-158650000D03*
X103340000Y-155550000D03*
X103340000Y-74950000D03*
X103340000Y-152450000D03*
X103340000Y-133850000D03*
X103340000Y-140050000D03*
X103340000Y-93550000D03*
X103340000Y-78050000D03*
X103340000Y-81150000D03*
X103340000Y-174150000D03*
X103340000Y-90450000D03*
X103340000Y-62550000D03*
X103340000Y-161750000D03*
X103340000Y-68750000D03*
X103340000Y-130750000D03*
X103340000Y-127650000D03*
%TO.N,/strip_r/GND*%
X106300000Y-176550000D03*
X108140000Y-163450000D03*
X108140000Y-76650000D03*
X108140000Y-79550000D03*
X108140000Y-185150000D03*
X106300000Y-151750000D03*
X108140000Y-182050000D03*
X106300000Y-173450000D03*
X108140000Y-175850000D03*
X106300000Y-126950000D03*
X108140000Y-95250000D03*
X106300000Y-89750000D03*
X108140000Y-172750000D03*
X106300000Y-182750000D03*
X108140000Y-169650000D03*
X108140000Y-101450000D03*
X108140000Y-113850000D03*
X108140000Y-92150000D03*
X108140000Y-98350000D03*
X108140000Y-157250000D03*
X106300000Y-74250000D03*
X108140000Y-89050000D03*
X106300000Y-170350000D03*
X106300000Y-133150000D03*
X106300000Y-123850000D03*
X106300000Y-99050000D03*
X108140000Y-138650000D03*
X108140000Y-166550000D03*
X108140000Y-107650000D03*
X106300000Y-154850000D03*
X106300000Y-71150000D03*
X108140000Y-64250000D03*
X106300000Y-102150000D03*
X108140000Y-160350000D03*
X107900000Y-186700000D03*
X108140000Y-126250000D03*
X106300000Y-105250000D03*
X108140000Y-73550000D03*
X106300000Y-179650000D03*
X108140000Y-67350000D03*
X108140000Y-82850000D03*
X106300000Y-86650000D03*
X108140000Y-110750000D03*
X106300000Y-114550000D03*
X106300000Y-142450000D03*
X108140000Y-147950000D03*
X106300000Y-139350000D03*
X106300000Y-61850000D03*
X106300000Y-117650000D03*
X106300000Y-164150000D03*
X108140000Y-85950000D03*
X108140000Y-132350000D03*
X106300000Y-64950000D03*
X106300000Y-108350000D03*
X108140000Y-104550000D03*
X108140000Y-116950000D03*
X106300000Y-80450000D03*
X106300000Y-167250000D03*
X106300000Y-77350000D03*
X106300000Y-145550000D03*
X106300000Y-68050000D03*
X106300000Y-157950000D03*
X108140000Y-70450000D03*
X108140000Y-144850000D03*
X106300000Y-130050000D03*
X108140000Y-120050000D03*
X106300000Y-136250000D03*
X106300000Y-120750000D03*
X108140000Y-135550000D03*
X108140000Y-178950000D03*
X106300000Y-148650000D03*
X106300000Y-83550000D03*
X106300000Y-111450000D03*
X108140000Y-129350000D03*
X106300000Y-95950000D03*
X108140000Y-151050000D03*
X106300000Y-92850000D03*
X108140000Y-123150000D03*
X108140000Y-141750000D03*
X106300000Y-161050000D03*
X108140000Y-154150000D03*
%TO.N,/strip_r/+5V*%
X107075000Y-77343280D03*
X107075000Y-83543280D03*
X107075000Y-176543280D03*
X107075000Y-161043280D03*
X105500000Y-186700000D03*
X107075000Y-99043280D03*
X107075000Y-64943280D03*
X107075000Y-179643280D03*
X107075000Y-86643280D03*
X107075000Y-151743280D03*
X107075000Y-117643280D03*
X107075000Y-182743280D03*
X107075000Y-164143280D03*
X107075000Y-95943280D03*
X107075000Y-92843280D03*
X107075000Y-126943280D03*
X107075000Y-173443280D03*
X107075000Y-120743280D03*
X107075000Y-148643280D03*
X107075000Y-170343280D03*
X107075000Y-68043280D03*
X107075000Y-133143280D03*
X107075000Y-108343280D03*
X107075000Y-61843280D03*
X107075000Y-114543280D03*
X107075000Y-142443280D03*
X107075000Y-157943280D03*
X107075000Y-89743280D03*
X107075000Y-130043280D03*
X107075000Y-123843280D03*
X107075000Y-145543280D03*
X107075000Y-139343280D03*
X107075000Y-167243280D03*
X107075000Y-80443280D03*
X107075000Y-105243280D03*
X107075000Y-111443280D03*
X107075000Y-74243280D03*
X107075000Y-154843280D03*
X107075000Y-136243280D03*
X107075000Y-71143280D03*
X107075000Y-102143280D03*
%TO.N,/strip_l/CKI*%
X102300000Y-186250000D03*
%TO.N,/strip_l/SDI*%
X101500000Y-186250000D03*
%TO.N,/strip_r/SDI*%
X107000000Y-186200000D03*
%TO.N,/strip_r/CKI*%
X106400000Y-186200000D03*
%TD*%
D15*
%TO.N,Net-(D1-SDO)*%
X101000000Y-183450000D02*
X101000000Y-182050000D01*
%TO.N,Net-(D1-CKO)*%
X101785356Y-182594256D02*
X101900000Y-182479612D01*
X101900000Y-183450000D02*
X101900000Y-183020390D01*
X101900000Y-183020390D02*
X101785356Y-182905746D01*
X101900000Y-182479612D02*
X101900000Y-182050000D01*
X101785356Y-182905746D02*
X101785356Y-182594256D01*
%TO.N,Net-(D2-CKO)*%
X101785356Y-179494256D02*
X101900000Y-179379612D01*
X101900000Y-179920390D02*
X101785356Y-179805746D01*
X101900000Y-180350000D02*
X101900000Y-179920390D01*
X101900000Y-179379612D02*
X101900000Y-178950000D01*
X101785356Y-179805746D02*
X101785356Y-179494256D01*
%TO.N,Net-(D2-SDO)*%
X101000000Y-180350000D02*
X101000000Y-178950000D01*
%TO.N,Net-(D3-CKO)*%
X101900000Y-177250000D02*
X101900000Y-176820390D01*
X101785356Y-176394256D02*
X101900000Y-176279612D01*
X101900000Y-176820390D02*
X101785356Y-176705746D01*
X101900000Y-176279612D02*
X101900000Y-175850000D01*
X101785356Y-176705746D02*
X101785356Y-176394256D01*
%TO.N,Net-(D3-SDO)*%
X101000000Y-177250000D02*
X101000000Y-175850000D01*
%TO.N,Net-(D4-CKO)*%
X101785356Y-173605746D02*
X101785356Y-173294256D01*
X101785356Y-173294256D02*
X101900000Y-173179612D01*
X101900000Y-173179612D02*
X101900000Y-172750000D01*
X101900000Y-174150000D02*
X101900000Y-173720390D01*
X101900000Y-173720390D02*
X101785356Y-173605746D01*
%TO.N,Net-(D4-SDO)*%
X101000000Y-174150000D02*
X101000000Y-172750000D01*
%TO.N,Net-(D5-CKO)*%
X101900000Y-170079612D02*
X101900000Y-169650000D01*
X101785356Y-170505746D02*
X101785356Y-170194256D01*
X101900000Y-170620390D02*
X101785356Y-170505746D01*
X101785356Y-170194256D02*
X101900000Y-170079612D01*
X101900000Y-171050000D02*
X101900000Y-170620390D01*
%TO.N,Net-(D5-SDO)*%
X101000000Y-171050000D02*
X101000000Y-169650000D01*
%TO.N,Net-(D6-CKO)*%
X101900000Y-166979612D02*
X101900000Y-166550000D01*
X101785356Y-167405746D02*
X101785356Y-167094256D01*
X101900000Y-167520390D02*
X101785356Y-167405746D01*
X101900000Y-167950000D02*
X101900000Y-167520390D01*
X101785356Y-167094256D02*
X101900000Y-166979612D01*
%TO.N,Net-(D6-SDO)*%
X101000000Y-167950000D02*
X101000000Y-166550000D01*
%TO.N,Net-(D7-SDO)*%
X101000000Y-164850000D02*
X101000000Y-163450000D01*
%TO.N,Net-(D7-CKO)*%
X101900000Y-164420390D02*
X101785356Y-164305746D01*
X101900000Y-163879612D02*
X101900000Y-163450000D01*
X101900000Y-164850000D02*
X101900000Y-164420390D01*
X101785356Y-163994256D02*
X101900000Y-163879612D01*
X101785356Y-164305746D02*
X101785356Y-163994256D01*
%TO.N,Net-(D8-SDO)*%
X101000000Y-161750000D02*
X101000000Y-160350000D01*
%TO.N,Net-(D8-CKO)*%
X101900000Y-160779612D02*
X101900000Y-160350000D01*
X101900000Y-161320390D02*
X101785356Y-161205746D01*
X101785356Y-161205746D02*
X101785356Y-160894256D01*
X101785356Y-160894256D02*
X101900000Y-160779612D01*
X101900000Y-161750000D02*
X101900000Y-161320390D01*
%TO.N,Net-(D10-SDI)*%
X101000000Y-158650000D02*
X101000000Y-157250000D01*
%TO.N,Net-(D10-CKI)*%
X101900000Y-158650000D02*
X101900000Y-158220390D01*
X101785356Y-158105746D02*
X101785356Y-157794256D01*
X101785356Y-157794256D02*
X101900000Y-157679612D01*
X101900000Y-157679612D02*
X101900000Y-157250000D01*
X101900000Y-158220390D02*
X101785356Y-158105746D01*
%TO.N,Net-(D10-CKO)*%
X101785356Y-154694256D02*
X101900000Y-154579612D01*
X101900000Y-155550000D02*
X101900000Y-155120390D01*
X101900000Y-155120390D02*
X101785356Y-155005746D01*
X101900000Y-154579612D02*
X101900000Y-154150000D01*
X101785356Y-155005746D02*
X101785356Y-154694256D01*
%TO.N,Net-(D10-SDO)*%
X101000000Y-155550000D02*
X101000000Y-154150000D01*
%TO.N,Net-(D11-SDO)*%
X101000000Y-152450000D02*
X101000000Y-151050000D01*
%TO.N,Net-(D11-CKO)*%
X101900000Y-152020390D02*
X101785356Y-151905746D01*
X101900000Y-152450000D02*
X101900000Y-152020390D01*
X101785356Y-151594256D02*
X101900000Y-151479612D01*
X101900000Y-151479612D02*
X101900000Y-151050000D01*
X101785356Y-151905746D02*
X101785356Y-151594256D01*
%TO.N,Net-(D12-CKO)*%
X101900000Y-149350000D02*
X101900000Y-148920390D01*
X101785356Y-148805746D02*
X101785356Y-148494256D01*
X101900000Y-148920390D02*
X101785356Y-148805746D01*
X101785356Y-148494256D02*
X101900000Y-148379612D01*
X101900000Y-148379612D02*
X101900000Y-147950000D01*
%TO.N,Net-(D12-SDO)*%
X101000000Y-149350000D02*
X101000000Y-147950000D01*
%TO.N,Net-(D13-SDO)*%
X101000000Y-146250000D02*
X101000000Y-144850000D01*
%TO.N,Net-(D13-CKO)*%
X101900000Y-146250000D02*
X101900000Y-145820390D01*
X101785356Y-145705746D02*
X101785356Y-145394256D01*
X101785356Y-145394256D02*
X101900000Y-145279612D01*
X101900000Y-145279612D02*
X101900000Y-144850000D01*
X101900000Y-145820390D02*
X101785356Y-145705746D01*
%TO.N,Net-(D14-SDO)*%
X101000000Y-143150000D02*
X101000000Y-141750000D01*
%TO.N,Net-(D14-CKO)*%
X101900000Y-142179612D02*
X101900000Y-141750000D01*
X101785356Y-142605746D02*
X101785356Y-142294256D01*
X101900000Y-142720390D02*
X101785356Y-142605746D01*
X101900000Y-143150000D02*
X101900000Y-142720390D01*
X101785356Y-142294256D02*
X101900000Y-142179612D01*
%TO.N,Net-(D15-SDO)*%
X101000000Y-140050000D02*
X101000000Y-138650000D01*
%TO.N,Net-(D15-CKO)*%
X101900000Y-139079612D02*
X101900000Y-138650000D01*
X101785356Y-139194256D02*
X101900000Y-139079612D01*
X101900000Y-139620390D02*
X101785356Y-139505746D01*
X101785356Y-139505746D02*
X101785356Y-139194256D01*
X101900000Y-140050000D02*
X101900000Y-139620390D01*
%TO.N,Net-(D16-CKO)*%
X101900000Y-136950000D02*
X101900000Y-136520390D01*
X101785356Y-136405746D02*
X101785356Y-136094256D01*
X101900000Y-136520390D02*
X101785356Y-136405746D01*
X101900000Y-135979612D02*
X101900000Y-135550000D01*
X101785356Y-136094256D02*
X101900000Y-135979612D01*
%TO.N,Net-(D16-SDO)*%
X101000000Y-136950000D02*
X101000000Y-135550000D01*
%TO.N,Net-(D17-SDO)*%
X101000000Y-133850000D02*
X101000000Y-132450000D01*
%TO.N,Net-(D17-CKO)*%
X101900000Y-132879612D02*
X101900000Y-132450000D01*
X101785356Y-133305746D02*
X101785356Y-132994256D01*
X101785356Y-132994256D02*
X101900000Y-132879612D01*
X101900000Y-133850000D02*
X101900000Y-133420390D01*
X101900000Y-133420390D02*
X101785356Y-133305746D01*
%TO.N,Net-(D18-CKO)*%
X101785356Y-130205746D02*
X101785356Y-129894256D01*
X101900000Y-130320390D02*
X101785356Y-130205746D01*
X101785356Y-129894256D02*
X101900000Y-129779612D01*
X101900000Y-129779612D02*
X101900000Y-129350000D01*
X101900000Y-130750000D02*
X101900000Y-130320390D01*
%TO.N,Net-(D18-SDO)*%
X101000000Y-130750000D02*
X101000000Y-129350000D01*
%TO.N,Net-(D19-SDO)*%
X101000000Y-127650000D02*
X101000000Y-126250000D01*
%TO.N,Net-(D19-CKO)*%
X101785356Y-126794256D02*
X101900000Y-126679612D01*
X101785356Y-127105746D02*
X101785356Y-126794256D01*
X101900000Y-127650000D02*
X101900000Y-127220390D01*
X101900000Y-126679612D02*
X101900000Y-126250000D01*
X101900000Y-127220390D02*
X101785356Y-127105746D01*
%TO.N,Net-(D20-SDO)*%
X101000000Y-124550000D02*
X101000000Y-123150000D01*
%TO.N,Net-(D20-CKO)*%
X101785356Y-124005746D02*
X101785356Y-123694256D01*
X101900000Y-124550000D02*
X101900000Y-124120390D01*
X101900000Y-123579612D02*
X101900000Y-123150000D01*
X101900000Y-124120390D02*
X101785356Y-124005746D01*
X101785356Y-123694256D02*
X101900000Y-123579612D01*
%TO.N,Net-(D21-SDO)*%
X101000000Y-121450000D02*
X101000000Y-120050000D01*
%TO.N,Net-(D21-CKO)*%
X101785356Y-120594256D02*
X101900000Y-120479612D01*
X101785356Y-120905746D02*
X101785356Y-120594256D01*
X101900000Y-121450000D02*
X101900000Y-121020390D01*
X101900000Y-121020390D02*
X101785356Y-120905746D01*
X101900000Y-120479612D02*
X101900000Y-120050000D01*
%TO.N,Net-(D22-CKO)*%
X101900000Y-117379612D02*
X101900000Y-116950000D01*
X101785356Y-117805746D02*
X101785356Y-117494256D01*
X101900000Y-118350000D02*
X101900000Y-117920390D01*
X101785356Y-117494256D02*
X101900000Y-117379612D01*
X101900000Y-117920390D02*
X101785356Y-117805746D01*
%TO.N,Net-(D22-SDO)*%
X101000000Y-118350000D02*
X101000000Y-116950000D01*
%TO.N,Net-(D23-SDO)*%
X101000000Y-115250000D02*
X101000000Y-113850000D01*
%TO.N,Net-(D23-CKO)*%
X101900000Y-114279612D02*
X101900000Y-113850000D01*
X101900000Y-115250000D02*
X101900000Y-114820390D01*
X101900000Y-114820390D02*
X101785356Y-114705746D01*
X101785356Y-114705746D02*
X101785356Y-114394256D01*
X101785356Y-114394256D02*
X101900000Y-114279612D01*
%TO.N,Net-(D24-CKO)*%
X101785356Y-111294256D02*
X101900000Y-111179612D01*
X101785356Y-111605746D02*
X101785356Y-111294256D01*
X101900000Y-112150000D02*
X101900000Y-111720390D01*
X101900000Y-111179612D02*
X101900000Y-110750000D01*
X101900000Y-111720390D02*
X101785356Y-111605746D01*
%TO.N,Net-(D24-SDO)*%
X101000000Y-112150000D02*
X101000000Y-110750000D01*
%TO.N,Net-(D25-CKO)*%
X101785356Y-108505746D02*
X101785356Y-108194256D01*
X101900000Y-108620390D02*
X101785356Y-108505746D01*
X101785356Y-108194256D02*
X101900000Y-108079612D01*
X101900000Y-108079612D02*
X101900000Y-107650000D01*
X101900000Y-109050000D02*
X101900000Y-108620390D01*
%TO.N,Net-(D25-SDO)*%
X101000000Y-109050000D02*
X101000000Y-107650000D01*
%TO.N,Net-(D26-CKO)*%
X101900000Y-105520390D02*
X101785356Y-105405746D01*
X101785356Y-105405746D02*
X101785356Y-105094256D01*
X101785356Y-105094256D02*
X101900000Y-104979612D01*
X101900000Y-105950000D02*
X101900000Y-105520390D01*
X101900000Y-104979612D02*
X101900000Y-104550000D01*
%TO.N,Net-(D26-SDO)*%
X101000000Y-105950000D02*
X101000000Y-104550000D01*
%TO.N,Net-(D27-SDO)*%
X101000000Y-102850000D02*
X101000000Y-101450000D01*
%TO.N,Net-(D27-CKO)*%
X101900000Y-101879612D02*
X101900000Y-101450000D01*
X101785356Y-102305746D02*
X101785356Y-101994256D01*
X101900000Y-102420390D02*
X101785356Y-102305746D01*
X101900000Y-102850000D02*
X101900000Y-102420390D01*
X101785356Y-101994256D02*
X101900000Y-101879612D01*
%TO.N,Net-(D28-CKO)*%
X101900000Y-99320390D02*
X101785356Y-99205746D01*
X101785356Y-98894256D02*
X101900000Y-98779612D01*
X101900000Y-99750000D02*
X101900000Y-99320390D01*
X101785356Y-99205746D02*
X101785356Y-98894256D01*
X101900000Y-98779612D02*
X101900000Y-98350000D01*
%TO.N,Net-(D28-SDO)*%
X101000000Y-99750000D02*
X101000000Y-98350000D01*
%TO.N,Net-(D29-CKO)*%
X101785356Y-95794256D02*
X101900000Y-95679612D01*
X101900000Y-96220390D02*
X101785356Y-96105746D01*
X101785356Y-96105746D02*
X101785356Y-95794256D01*
X101900000Y-96650000D02*
X101900000Y-96220390D01*
X101900000Y-95679612D02*
X101900000Y-95250000D01*
%TO.N,Net-(D29-SDO)*%
X101000000Y-96650000D02*
X101000000Y-95250000D01*
%TO.N,Net-(D30-SDO)*%
X101000000Y-93550000D02*
X101000000Y-92150000D01*
%TO.N,Net-(D30-CKO)*%
X101785356Y-93005746D02*
X101785356Y-92694256D01*
X101900000Y-92579612D02*
X101900000Y-92150000D01*
X101785356Y-92694256D02*
X101900000Y-92579612D01*
X101900000Y-93120390D02*
X101785356Y-93005746D01*
X101900000Y-93550000D02*
X101900000Y-93120390D01*
%TO.N,Net-(D31-SDO)*%
X101000000Y-90450000D02*
X101000000Y-89050000D01*
%TO.N,Net-(D31-CKO)*%
X101900000Y-89479612D02*
X101900000Y-89050000D01*
X101900000Y-90020390D02*
X101785356Y-89905746D01*
X101900000Y-90450000D02*
X101900000Y-90020390D01*
X101785356Y-89594256D02*
X101900000Y-89479612D01*
X101785356Y-89905746D02*
X101785356Y-89594256D01*
%TO.N,Net-(D32-CKO)*%
X101900000Y-86379612D02*
X101900000Y-85950000D01*
X101785356Y-86805746D02*
X101785356Y-86494256D01*
X101900000Y-87350000D02*
X101900000Y-86920390D01*
X101900000Y-86920390D02*
X101785356Y-86805746D01*
X101785356Y-86494256D02*
X101900000Y-86379612D01*
%TO.N,Net-(D32-SDO)*%
X101000000Y-87350000D02*
X101000000Y-85950000D01*
%TO.N,Net-(D33-SDO)*%
X101000000Y-84250000D02*
X101000000Y-82850000D01*
%TO.N,Net-(D33-CKO)*%
X101900000Y-84250000D02*
X101900000Y-83820390D01*
X101900000Y-83279612D02*
X101900000Y-82850000D01*
X101785356Y-83705746D02*
X101785356Y-83394256D01*
X101900000Y-83820390D02*
X101785356Y-83705746D01*
X101785356Y-83394256D02*
X101900000Y-83279612D01*
%TO.N,Net-(D34-SDO)*%
X101000000Y-81150000D02*
X101000000Y-79750000D01*
%TO.N,Net-(D34-CKO)*%
X101900000Y-80720390D02*
X101785356Y-80605746D01*
X101785356Y-80294256D02*
X101900000Y-80179612D01*
X101900000Y-81150000D02*
X101900000Y-80720390D01*
X101900000Y-80179612D02*
X101900000Y-79750000D01*
X101785356Y-80605746D02*
X101785356Y-80294256D01*
%TO.N,Net-(D35-SDO)*%
X101000000Y-78050000D02*
X101000000Y-76650000D01*
%TO.N,Net-(D35-CKO)*%
X101900000Y-78050000D02*
X101900000Y-77620390D01*
X101785356Y-77505746D02*
X101785356Y-77194256D01*
X101900000Y-77620390D02*
X101785356Y-77505746D01*
X101900000Y-77079612D02*
X101900000Y-76650000D01*
X101785356Y-77194256D02*
X101900000Y-77079612D01*
%TO.N,Net-(D36-SDO)*%
X101000000Y-74950000D02*
X101000000Y-73550000D01*
%TO.N,Net-(D36-CKO)*%
X101785356Y-74094256D02*
X101900000Y-73979612D01*
X101900000Y-74520390D02*
X101785356Y-74405746D01*
X101900000Y-73979612D02*
X101900000Y-73550000D01*
X101785356Y-74405746D02*
X101785356Y-74094256D01*
X101900000Y-74950000D02*
X101900000Y-74520390D01*
%TO.N,Net-(D37-CKO)*%
X101900000Y-70879612D02*
X101900000Y-70450000D01*
X101785356Y-70994256D02*
X101900000Y-70879612D01*
X101900000Y-71850000D02*
X101900000Y-71420390D01*
X101785356Y-71305746D02*
X101785356Y-70994256D01*
X101900000Y-71420390D02*
X101785356Y-71305746D01*
%TO.N,Net-(D37-SDO)*%
X101000000Y-71850000D02*
X101000000Y-70450000D01*
%TO.N,Net-(D38-SDO)*%
X101000000Y-68750000D02*
X101000000Y-67350000D01*
%TO.N,Net-(D38-CKO)*%
X101785356Y-68205746D02*
X101785356Y-67894256D01*
X101900000Y-68320390D02*
X101785356Y-68205746D01*
X101900000Y-68750000D02*
X101900000Y-68320390D01*
X101785356Y-67894256D02*
X101900000Y-67779612D01*
X101900000Y-67779612D02*
X101900000Y-67350000D01*
%TO.N,Net-(D39-CKO)*%
X101900000Y-65650000D02*
X101900000Y-65220390D01*
X101900000Y-64679612D02*
X101900000Y-64250000D01*
X101900000Y-65220390D02*
X101785356Y-65105746D01*
X101785356Y-65105746D02*
X101785356Y-64794256D01*
X101785356Y-64794256D02*
X101900000Y-64679612D01*
%TO.N,Net-(D39-SDO)*%
X101000000Y-65650000D02*
X101000000Y-64250000D01*
%TO.N,Net-(D41-SDO)*%
X105800000Y-182060000D02*
X105790000Y-182050000D01*
X105800000Y-183450000D02*
X105800000Y-182060000D01*
%TO.N,Net-(D41-CKO)*%
X106700000Y-182060000D02*
X106690000Y-182050000D01*
X106700000Y-183450000D02*
X106700000Y-182060000D01*
%TO.N,Net-(D42-CKO)*%
X106700000Y-180350000D02*
X106700000Y-178960000D01*
X106700000Y-178960000D02*
X106690000Y-178950000D01*
%TO.N,Net-(D42-SDO)*%
X105800000Y-180350000D02*
X105800000Y-178960000D01*
X105800000Y-178960000D02*
X105790000Y-178950000D01*
%TO.N,Net-(D43-CKO)*%
X106700000Y-175860000D02*
X106690000Y-175850000D01*
X106700000Y-177250000D02*
X106700000Y-175860000D01*
%TO.N,Net-(D43-SDO)*%
X105800000Y-177250000D02*
X105800000Y-175860000D01*
X105800000Y-175860000D02*
X105790000Y-175850000D01*
%TO.N,Net-(D44-SDO)*%
X105800000Y-174150000D02*
X105800000Y-172760000D01*
X105800000Y-172760000D02*
X105790000Y-172750000D01*
%TO.N,Net-(D44-CKO)*%
X106700000Y-172760000D02*
X106690000Y-172750000D01*
X106700000Y-174150000D02*
X106700000Y-172760000D01*
%TO.N,Net-(D45-SDO)*%
X105800000Y-171050000D02*
X105800000Y-169660000D01*
X105800000Y-169660000D02*
X105790000Y-169650000D01*
%TO.N,Net-(D45-CKO)*%
X106700000Y-171050000D02*
X106700000Y-169660000D01*
X106700000Y-169660000D02*
X106690000Y-169650000D01*
%TO.N,Net-(D46-SDO)*%
X105800000Y-166560000D02*
X105790000Y-166550000D01*
X105800000Y-167950000D02*
X105800000Y-166560000D01*
%TO.N,Net-(D46-CKO)*%
X106700000Y-166560000D02*
X106690000Y-166550000D01*
X106700000Y-167950000D02*
X106700000Y-166560000D01*
%TO.N,Net-(D47-SDO)*%
X105800000Y-163460000D02*
X105790000Y-163450000D01*
X105800000Y-164850000D02*
X105800000Y-163460000D01*
%TO.N,Net-(D47-CKO)*%
X106700000Y-163460000D02*
X106690000Y-163450000D01*
X106700000Y-164850000D02*
X106700000Y-163460000D01*
%TO.N,Net-(D48-SDO)*%
X105800000Y-160360000D02*
X105790000Y-160350000D01*
X105800000Y-161750000D02*
X105800000Y-160360000D01*
%TO.N,Net-(D48-CKO)*%
X106700000Y-160360000D02*
X106690000Y-160350000D01*
X106700000Y-161750000D02*
X106700000Y-160360000D01*
%TO.N,Net-(D49-SDO)*%
X105800000Y-158650000D02*
X105800000Y-157260000D01*
X105800000Y-157260000D02*
X105790000Y-157250000D01*
%TO.N,Net-(D49-CKO)*%
X106700000Y-157260000D02*
X106690000Y-157250000D01*
X106700000Y-158650000D02*
X106700000Y-157260000D01*
%TO.N,Net-(D50-CKO)*%
X106700000Y-154160000D02*
X106690000Y-154150000D01*
X106700000Y-155550000D02*
X106700000Y-154160000D01*
%TO.N,Net-(D50-SDO)*%
X105800000Y-155550000D02*
X105800000Y-154160000D01*
X105800000Y-154160000D02*
X105790000Y-154150000D01*
%TO.N,Net-(D51-CKO)*%
X106700000Y-152450000D02*
X106700000Y-151060000D01*
X106700000Y-151060000D02*
X106690000Y-151050000D01*
%TO.N,Net-(D51-SDO)*%
X105800000Y-151060000D02*
X105790000Y-151050000D01*
X105800000Y-152450000D02*
X105800000Y-151060000D01*
%TO.N,Net-(D52-CKO)*%
X106700000Y-149350000D02*
X106700000Y-147960000D01*
X106700000Y-147960000D02*
X106690000Y-147950000D01*
%TO.N,Net-(D52-SDO)*%
X105800000Y-149350000D02*
X105800000Y-147960000D01*
X105800000Y-147960000D02*
X105790000Y-147950000D01*
%TO.N,Net-(D53-CKO)*%
X106700000Y-144860000D02*
X106690000Y-144850000D01*
X106700000Y-146250000D02*
X106700000Y-144860000D01*
%TO.N,Net-(D53-SDO)*%
X105800000Y-144860000D02*
X105790000Y-144850000D01*
X105800000Y-146250000D02*
X105800000Y-144860000D01*
%TO.N,Net-(D54-CKO)*%
X106700000Y-141760000D02*
X106690000Y-141750000D01*
X106700000Y-143150000D02*
X106700000Y-141760000D01*
%TO.N,Net-(D54-SDO)*%
X105800000Y-141760000D02*
X105790000Y-141750000D01*
X105800000Y-143150000D02*
X105800000Y-141760000D01*
%TO.N,Net-(D55-CKO)*%
X106700000Y-140050000D02*
X106700000Y-138660000D01*
X106700000Y-138660000D02*
X106690000Y-138650000D01*
%TO.N,Net-(D55-SDO)*%
X105800000Y-138660000D02*
X105790000Y-138650000D01*
X105800000Y-140050000D02*
X105800000Y-138660000D01*
%TO.N,Net-(D56-SDO)*%
X105800000Y-135560000D02*
X105790000Y-135550000D01*
X105800000Y-136950000D02*
X105800000Y-135560000D01*
%TO.N,Net-(D56-CKO)*%
X106700000Y-135560000D02*
X106690000Y-135550000D01*
X106700000Y-136950000D02*
X106700000Y-135560000D01*
%TO.N,Net-(D57-SDO)*%
X105800000Y-133850000D02*
X105800000Y-132460000D01*
X105800000Y-132460000D02*
X105790000Y-132450000D01*
%TO.N,Net-(D57-CKO)*%
X106700000Y-132460000D02*
X106690000Y-132450000D01*
X106700000Y-133850000D02*
X106700000Y-132460000D01*
%TO.N,Net-(D58-SDO)*%
X105800000Y-129360000D02*
X105790000Y-129350000D01*
X105800000Y-130750000D02*
X105800000Y-129360000D01*
%TO.N,Net-(D58-CKO)*%
X106700000Y-129360000D02*
X106690000Y-129350000D01*
X106700000Y-130750000D02*
X106700000Y-129360000D01*
%TO.N,Net-(D59-SDO)*%
X105800000Y-127650000D02*
X105800000Y-126260000D01*
X105800000Y-126260000D02*
X105790000Y-126250000D01*
%TO.N,Net-(D59-CKO)*%
X106700000Y-126260000D02*
X106690000Y-126250000D01*
X106700000Y-127650000D02*
X106700000Y-126260000D01*
%TO.N,Net-(D60-SDO)*%
X105800000Y-123160000D02*
X105790000Y-123150000D01*
X105800000Y-124550000D02*
X105800000Y-123160000D01*
%TO.N,Net-(D60-CKO)*%
X106700000Y-123160000D02*
X106690000Y-123150000D01*
X106700000Y-124550000D02*
X106700000Y-123160000D01*
%TO.N,Net-(D61-CKO)*%
X106700000Y-121450000D02*
X106700000Y-120060000D01*
X106700000Y-120060000D02*
X106690000Y-120050000D01*
%TO.N,Net-(D61-SDO)*%
X105800000Y-121450000D02*
X105800000Y-120060000D01*
X105800000Y-120060000D02*
X105790000Y-120050000D01*
%TO.N,Net-(D62-SDO)*%
X105800000Y-118350000D02*
X105800000Y-116960000D01*
X105800000Y-116960000D02*
X105790000Y-116950000D01*
%TO.N,Net-(D62-CKO)*%
X106700000Y-118350000D02*
X106700000Y-116960000D01*
X106700000Y-116960000D02*
X106690000Y-116950000D01*
%TO.N,Net-(D63-SDO)*%
X105800000Y-115250000D02*
X105800000Y-113860000D01*
X105800000Y-113860000D02*
X105790000Y-113850000D01*
%TO.N,Net-(D63-CKO)*%
X106700000Y-113860000D02*
X106690000Y-113850000D01*
X106700000Y-115250000D02*
X106700000Y-113860000D01*
%TO.N,Net-(D64-CKO)*%
X106700000Y-110760000D02*
X106690000Y-110750000D01*
X106700000Y-112150000D02*
X106700000Y-110760000D01*
%TO.N,Net-(D64-SDO)*%
X105800000Y-112150000D02*
X105800000Y-110760000D01*
X105800000Y-110760000D02*
X105790000Y-110750000D01*
%TO.N,Net-(D65-SDO)*%
X105800000Y-109050000D02*
X105800000Y-107660000D01*
X105800000Y-107660000D02*
X105790000Y-107650000D01*
%TO.N,Net-(D65-CKO)*%
X106700000Y-109050000D02*
X106700000Y-107660000D01*
X106700000Y-107660000D02*
X106690000Y-107650000D01*
%TO.N,Net-(D66-SDO)*%
X105800000Y-105950000D02*
X105800000Y-104560000D01*
X105800000Y-104560000D02*
X105790000Y-104550000D01*
%TO.N,Net-(D66-CKO)*%
X106700000Y-105950000D02*
X106700000Y-104560000D01*
X106700000Y-104560000D02*
X106690000Y-104550000D01*
%TO.N,Net-(D67-SDO)*%
X105800000Y-101460000D02*
X105790000Y-101450000D01*
X105800000Y-102850000D02*
X105800000Y-101460000D01*
%TO.N,Net-(D67-CKO)*%
X106700000Y-102850000D02*
X106700000Y-101460000D01*
X106700000Y-101460000D02*
X106690000Y-101450000D01*
%TO.N,Net-(D68-SDO)*%
X105800000Y-99750000D02*
X105800000Y-98360000D01*
X105800000Y-98360000D02*
X105790000Y-98350000D01*
%TO.N,Net-(D68-CKO)*%
X106700000Y-98360000D02*
X106690000Y-98350000D01*
X106700000Y-99750000D02*
X106700000Y-98360000D01*
%TO.N,Net-(D69-CKO)*%
X106700000Y-95260000D02*
X106690000Y-95250000D01*
X106700000Y-96650000D02*
X106700000Y-95260000D01*
%TO.N,Net-(D69-SDO)*%
X105800000Y-96650000D02*
X105800000Y-95260000D01*
X105800000Y-95260000D02*
X105790000Y-95250000D01*
%TO.N,Net-(D70-CKO)*%
X106700000Y-93550000D02*
X106700000Y-92160000D01*
X106700000Y-92160000D02*
X106690000Y-92150000D01*
%TO.N,Net-(D70-SDO)*%
X105800000Y-92160000D02*
X105790000Y-92150000D01*
X105800000Y-93550000D02*
X105800000Y-92160000D01*
%TO.N,Net-(D71-SDO)*%
X105800000Y-89060000D02*
X105790000Y-89050000D01*
X105800000Y-90450000D02*
X105800000Y-89060000D01*
%TO.N,Net-(D71-CKO)*%
X106700000Y-89060000D02*
X106690000Y-89050000D01*
X106700000Y-90450000D02*
X106700000Y-89060000D01*
%TO.N,Net-(D72-CKO)*%
X106700000Y-87350000D02*
X106700000Y-85960000D01*
X106700000Y-85960000D02*
X106690000Y-85950000D01*
%TO.N,Net-(D72-SDO)*%
X105800000Y-85960000D02*
X105790000Y-85950000D01*
X105800000Y-87350000D02*
X105800000Y-85960000D01*
%TO.N,Net-(D73-CKO)*%
X106700000Y-84250000D02*
X106700000Y-82860000D01*
X106700000Y-82860000D02*
X106690000Y-82850000D01*
%TO.N,Net-(D73-SDO)*%
X105800000Y-84250000D02*
X105800000Y-82860000D01*
X105800000Y-82860000D02*
X105790000Y-82850000D01*
%TO.N,Net-(D74-SDO)*%
X105800000Y-79760000D02*
X105790000Y-79750000D01*
X105800000Y-81150000D02*
X105800000Y-79760000D01*
%TO.N,Net-(D74-CKO)*%
X106700000Y-81150000D02*
X106700000Y-79760000D01*
X106700000Y-79760000D02*
X106690000Y-79750000D01*
%TO.N,Net-(D75-CKO)*%
X106700000Y-78050000D02*
X106700000Y-76660000D01*
X106700000Y-76660000D02*
X106690000Y-76650000D01*
%TO.N,Net-(D75-SDO)*%
X105800000Y-76660000D02*
X105790000Y-76650000D01*
X105800000Y-78050000D02*
X105800000Y-76660000D01*
%TO.N,Net-(D76-SDO)*%
X105800000Y-74950000D02*
X105800000Y-73560000D01*
X105800000Y-73560000D02*
X105790000Y-73550000D01*
%TO.N,Net-(D76-CKO)*%
X106700000Y-74950000D02*
X106700000Y-73560000D01*
X106700000Y-73560000D02*
X106690000Y-73550000D01*
%TO.N,Net-(D77-SDO)*%
X105800000Y-70460000D02*
X105790000Y-70450000D01*
X105800000Y-71850000D02*
X105800000Y-70460000D01*
%TO.N,Net-(D77-CKO)*%
X106700000Y-71850000D02*
X106700000Y-70460000D01*
X106700000Y-70460000D02*
X106690000Y-70450000D01*
%TO.N,Net-(D78-CKO)*%
X106700000Y-68750000D02*
X106700000Y-67360000D01*
X106700000Y-67360000D02*
X106690000Y-67350000D01*
%TO.N,Net-(D78-SDO)*%
X105800000Y-67360000D02*
X105790000Y-67350000D01*
X105800000Y-68750000D02*
X105800000Y-67360000D01*
%TO.N,Net-(D79-CKO)*%
X106700000Y-65650000D02*
X106700000Y-64260000D01*
X106700000Y-64260000D02*
X106690000Y-64250000D01*
%TO.N,Net-(D79-SDO)*%
X105800000Y-65650000D02*
X105800000Y-64260000D01*
X105800000Y-64260000D02*
X105790000Y-64250000D01*
%TO.N,/strip_l/GND*%
X100306000Y-167444000D02*
X100306000Y-168800000D01*
X101310000Y-69600000D02*
X100306000Y-69600000D01*
X101310000Y-116100000D02*
X100306000Y-116100000D01*
X100306000Y-144000000D02*
X100306000Y-145356000D01*
X100500000Y-126950000D02*
X100306000Y-127144000D01*
X102800000Y-120550000D02*
X102600000Y-120750000D01*
X102800000Y-79750000D02*
X102800000Y-80250000D01*
X102800000Y-163450000D02*
X102800000Y-163950000D01*
X100306000Y-136444000D02*
X100306000Y-137800000D01*
X100500000Y-77350000D02*
X100306000Y-77544000D01*
X100306000Y-114356000D02*
X100500000Y-114550000D01*
X101310000Y-178100000D02*
X100306000Y-178100000D01*
X102800000Y-126750000D02*
X102600000Y-126950000D01*
X100306000Y-176744000D02*
X100306000Y-178100000D01*
X100500000Y-99050000D02*
X100306000Y-99244000D01*
X102800000Y-67850000D02*
X102600000Y-68050000D01*
X100306000Y-148456000D02*
X100500000Y-148650000D01*
X102800000Y-98850000D02*
X102600000Y-99050000D01*
X100500000Y-182750000D02*
X100306000Y-182944000D01*
X100306000Y-70956000D02*
X100500000Y-71150000D01*
X100500000Y-173450000D02*
X100306000Y-173644000D01*
X100306000Y-117844000D02*
X100306000Y-119200000D01*
X100306000Y-83744000D02*
X100306000Y-85100000D01*
X102600000Y-145550000D02*
X102161356Y-145550001D01*
X101310000Y-72700000D02*
X100306000Y-72700000D01*
X100306000Y-99244000D02*
X100306000Y-100600000D01*
X100500000Y-170350000D02*
X100306000Y-170544000D01*
X100306000Y-182944000D02*
X100306000Y-184300000D01*
X102600000Y-179650000D02*
X102161356Y-179650001D01*
X102600000Y-123850000D02*
X102161356Y-123850001D01*
X100500000Y-176550000D02*
X100306000Y-176744000D01*
X102800000Y-129850000D02*
X102600000Y-130050000D01*
X101310000Y-134700000D02*
X100306000Y-134700000D01*
X100500000Y-114550000D02*
X100306000Y-114744000D01*
X101310000Y-165700000D02*
X100306000Y-165700000D01*
X102600000Y-64950000D02*
X102161356Y-64950001D01*
X100500000Y-164150000D02*
X100306000Y-164344000D01*
X100500000Y-136250000D02*
X100306000Y-136444000D01*
X100306000Y-106800000D02*
X100306000Y-108156000D01*
X100306000Y-86844000D02*
X100306000Y-88200000D01*
X102600000Y-130050000D02*
X102161356Y-130050001D01*
X100306000Y-89556000D02*
X100500000Y-89750000D01*
X102800000Y-105050000D02*
X102600000Y-105250000D01*
X102800000Y-169650000D02*
X102800000Y-170150000D01*
X100306000Y-173644000D02*
X100306000Y-175000000D01*
X100306000Y-128500000D02*
X100306000Y-129856000D01*
X100500000Y-139350000D02*
X100306000Y-139544000D01*
X102600000Y-95950000D02*
X102161356Y-95950001D01*
X100306000Y-65144000D02*
X100306000Y-66500000D01*
X100500000Y-151750000D02*
X100306000Y-151944000D01*
X100306000Y-109900000D02*
X100306000Y-111256000D01*
X102600000Y-105250000D02*
X102161356Y-105250001D01*
X102800000Y-179450000D02*
X102600000Y-179650000D01*
X102800000Y-101950000D02*
X102600000Y-102150000D01*
X101310000Y-156400000D02*
X100306000Y-156400000D01*
X100306000Y-100600000D02*
X100306000Y-101956000D01*
X102800000Y-108150000D02*
X102600000Y-108350000D01*
X100306000Y-162600000D02*
X100306000Y-163956000D01*
X102600000Y-99050000D02*
X102161356Y-99050001D01*
X100306000Y-75800000D02*
X100306000Y-77156000D01*
X102800000Y-86450000D02*
X102600000Y-86650000D01*
X101310000Y-147100000D02*
X100306000Y-147100000D01*
X100306000Y-77544000D02*
X100306000Y-78900000D01*
X100306000Y-148844000D02*
X100306000Y-150200000D01*
X101310000Y-122300000D02*
X100306000Y-122300000D01*
X102800000Y-126250000D02*
X102800000Y-126750000D01*
X102800000Y-185150000D02*
X102800000Y-185237149D01*
X102800000Y-138650000D02*
X102800000Y-139150000D01*
X100306000Y-155044000D02*
X100306000Y-156400000D01*
X100306000Y-170156000D02*
X100500000Y-170350000D01*
X102800000Y-89550000D02*
X102600000Y-89750000D01*
X101310000Y-106800000D02*
X100306000Y-106800000D01*
X100306000Y-145744000D02*
X100306000Y-147100000D01*
X102800000Y-182550000D02*
X102600000Y-182750000D01*
X102800000Y-148450000D02*
X102600000Y-148650000D01*
X100306000Y-142644000D02*
X100306000Y-144000000D01*
X102600000Y-154850000D02*
X102161356Y-154850001D01*
X102800000Y-160350000D02*
X102800000Y-160850000D01*
X102800000Y-83350000D02*
X102600000Y-83550000D01*
X100306000Y-139156000D02*
X100500000Y-139350000D01*
X102800000Y-163950000D02*
X102600000Y-164150000D01*
X102600000Y-164150000D02*
X102161356Y-164150001D01*
X102600000Y-157950000D02*
X102161356Y-157950001D01*
X102600000Y-71150000D02*
X102161356Y-71150001D01*
X101310000Y-128500000D02*
X100306000Y-128500000D01*
X100500000Y-74250000D02*
X100306000Y-74444000D01*
X102800000Y-117450000D02*
X102600000Y-117650000D01*
X100306000Y-83356000D02*
X100500000Y-83550000D01*
X100306000Y-101956000D02*
X100500000Y-102150000D01*
X102600000Y-173450000D02*
X102161356Y-173450001D01*
X100306000Y-123656000D02*
X100500000Y-123850000D01*
X101310000Y-171900000D02*
X100306000Y-171900000D01*
X102600000Y-102150000D02*
X102161356Y-102150001D01*
X100306000Y-156400000D02*
X100306000Y-157756000D01*
X102800000Y-85950000D02*
X102800000Y-86450000D01*
X100306000Y-108156000D02*
X100500000Y-108350000D01*
X102800000Y-89050000D02*
X102800000Y-89550000D01*
X100500000Y-117650000D02*
X100306000Y-117844000D01*
X100306000Y-93044000D02*
X100306000Y-94400000D01*
X102600000Y-182750000D02*
X102161356Y-182750001D01*
X102800000Y-77150000D02*
X102600000Y-77350000D01*
X100306000Y-96144000D02*
X100306000Y-97500000D01*
X100500000Y-120750000D02*
X100306000Y-120944000D01*
X100500000Y-179650000D02*
X100306000Y-179844000D01*
X101310000Y-140900000D02*
X100306000Y-140900000D01*
X102800000Y-144850000D02*
X102800000Y-145350000D01*
X100306000Y-69600000D02*
X100306000Y-70956000D01*
X102800000Y-114350000D02*
X102600000Y-114550000D01*
X101310000Y-153300000D02*
X100306000Y-153300000D01*
X100500000Y-157950000D02*
X100306000Y-158144000D01*
X101310000Y-82000000D02*
X100306000Y-82000000D01*
X100306000Y-142256000D02*
X100500000Y-142450000D01*
X100306000Y-66500000D02*
X100306000Y-67856000D01*
X100306000Y-164344000D02*
X100306000Y-165700000D01*
X100306000Y-67856000D02*
X100500000Y-68050000D01*
X101310000Y-137800000D02*
X100306000Y-137800000D01*
X100306000Y-182556000D02*
X100500000Y-182750000D01*
X100306000Y-74056000D02*
X100500000Y-74250000D01*
X100306000Y-170544000D02*
X100306000Y-171900000D01*
X102800000Y-111250000D02*
X102600000Y-111450000D01*
X100306000Y-63400000D02*
X100306000Y-64756000D01*
X102800000Y-132950000D02*
X102600000Y-133150000D01*
X102600000Y-142450000D02*
X102161356Y-142450001D01*
X100306000Y-120944000D02*
X100306000Y-122300000D01*
X101310000Y-119200000D02*
X100306000Y-119200000D01*
X102600000Y-117650000D02*
X102161356Y-117650001D01*
X100306000Y-92656000D02*
X100500000Y-92850000D01*
X100306000Y-94400000D02*
X100306000Y-95756000D01*
X100500000Y-105250000D02*
X100306000Y-105444000D01*
X100500000Y-161050000D02*
X100306000Y-161244000D01*
X100306000Y-178100000D02*
X100306000Y-179456000D01*
X101310000Y-88200000D02*
X100306000Y-88200000D01*
X102800000Y-136050000D02*
X102600000Y-136250000D01*
X100306000Y-134700000D02*
X100306000Y-136056000D01*
X102800000Y-157250000D02*
X102800000Y-157750000D01*
X102600000Y-133150000D02*
X102161356Y-133150001D01*
X100306000Y-136056000D02*
X100500000Y-136250000D01*
X100306000Y-120556000D02*
X100500000Y-120750000D01*
X100306000Y-154656000D02*
X100500000Y-154850000D01*
X100306000Y-77156000D02*
X100500000Y-77350000D01*
X102800000Y-104550000D02*
X102800000Y-105050000D01*
X102800000Y-139150000D02*
X102600000Y-139350000D01*
X102600000Y-92850000D02*
X102161356Y-92850001D01*
X101310000Y-103700000D02*
X100306000Y-103700000D01*
X102600000Y-114550000D02*
X102161356Y-114550001D01*
X102800000Y-132450000D02*
X102800000Y-132950000D01*
X102600000Y-108350000D02*
X102161356Y-108350001D01*
X101310000Y-131600000D02*
X100306000Y-131600000D01*
X100306000Y-111644000D02*
X100306000Y-113000000D01*
X102800000Y-166550000D02*
X102800000Y-167050000D01*
X100500000Y-95950000D02*
X100306000Y-96144000D01*
X101310000Y-125400000D02*
X100306000Y-125400000D01*
X100306000Y-117456000D02*
X100500000Y-117650000D01*
X102800000Y-123150000D02*
X102800000Y-123650000D01*
X100306000Y-160856000D02*
X100500000Y-161050000D01*
X102800000Y-64250000D02*
X102800000Y-64750000D01*
X101310000Y-91300000D02*
X100306000Y-91300000D01*
X100306000Y-151944000D02*
X100306000Y-153300000D01*
X102800000Y-107650000D02*
X102800000Y-108150000D01*
X100306000Y-147100000D02*
X100306000Y-148456000D01*
X100306000Y-157756000D02*
X100500000Y-157950000D01*
X101310000Y-66500000D02*
X100306000Y-66500000D01*
X100306000Y-86456000D02*
X100500000Y-86650000D01*
X100306000Y-91300000D02*
X100306000Y-92656000D01*
X100306000Y-176356000D02*
X100500000Y-176550000D01*
X102800000Y-101450000D02*
X102800000Y-101950000D01*
X100306000Y-125400000D02*
X100306000Y-126756000D01*
X100306000Y-71344000D02*
X100306000Y-72700000D01*
X102800000Y-98350000D02*
X102800000Y-98850000D01*
X100306000Y-88200000D02*
X100306000Y-89556000D01*
X100306000Y-163956000D02*
X100500000Y-164150000D01*
X100306000Y-72700000D02*
X100306000Y-74056000D01*
X102800000Y-154150000D02*
X102800000Y-154650000D01*
X100500000Y-89750000D02*
X100306000Y-89944000D01*
X100306000Y-108544000D02*
X100306000Y-109900000D01*
X101310000Y-144000000D02*
X100306000Y-144000000D01*
X102800000Y-113850000D02*
X102800000Y-114350000D01*
X102600000Y-148650000D02*
X102161356Y-148650001D01*
X102600000Y-111450000D02*
X102161356Y-111450001D01*
X102800000Y-120050000D02*
X102800000Y-120550000D01*
X101310000Y-162600000D02*
X100306000Y-162600000D01*
X100306000Y-173256000D02*
X100500000Y-173450000D01*
X101310000Y-184300000D02*
X100306000Y-184300000D01*
X101310000Y-78900000D02*
X100306000Y-78900000D01*
X100306000Y-159500000D02*
X100306000Y-160856000D01*
X102800000Y-67350000D02*
X102800000Y-67850000D01*
X102800000Y-170150000D02*
X102600000Y-170350000D01*
X102600000Y-74250000D02*
X102161356Y-74250001D01*
X100306000Y-153300000D02*
X100306000Y-154656000D01*
X102800000Y-178950000D02*
X102800000Y-179450000D01*
X100306000Y-102344000D02*
X100306000Y-103700000D01*
X101310000Y-168800000D02*
X100306000Y-168800000D01*
X100306000Y-85100000D02*
X100306000Y-86456000D01*
X100306000Y-158144000D02*
X100306000Y-159500000D01*
X101310000Y-150200000D02*
X100306000Y-150200000D01*
X102800000Y-95750000D02*
X102600000Y-95950000D01*
X102600000Y-120750000D02*
X102161356Y-120750001D01*
X102600000Y-176550000D02*
X102161356Y-176550001D01*
X102600000Y-89750000D02*
X102161356Y-89750001D01*
X100306000Y-161244000D02*
X100306000Y-162600000D01*
X100306000Y-168800000D02*
X100306000Y-170156000D01*
X100500000Y-111450000D02*
X100306000Y-111644000D01*
X100306000Y-151556000D02*
X100500000Y-151750000D01*
X100306000Y-97500000D02*
X100306000Y-98856000D01*
X100306000Y-124044000D02*
X100306000Y-125400000D01*
X102800000Y-182050000D02*
X102800000Y-182550000D01*
X102600000Y-83550000D02*
X102161356Y-83550001D01*
X100500000Y-167250000D02*
X100306000Y-167444000D01*
X100306000Y-95756000D02*
X100500000Y-95950000D01*
X101310000Y-109900000D02*
X100306000Y-109900000D01*
X100306000Y-103700000D02*
X100306000Y-105056000D01*
X100306000Y-82000000D02*
X100306000Y-83356000D01*
X102800000Y-142250000D02*
X102600000Y-142450000D01*
X102600000Y-161050000D02*
X102161356Y-161050001D01*
X100500000Y-68050000D02*
X100306000Y-68244000D01*
X100500000Y-154850000D02*
X100306000Y-155044000D01*
X100306000Y-179456000D02*
X100500000Y-179650000D01*
X102800000Y-147950000D02*
X102800000Y-148450000D01*
X100500000Y-83550000D02*
X100306000Y-83744000D01*
X100306000Y-89944000D02*
X100306000Y-91300000D01*
X100500000Y-142450000D02*
X100306000Y-142644000D01*
X102800000Y-160850000D02*
X102600000Y-161050000D01*
X102800000Y-154650000D02*
X102600000Y-154850000D01*
X102600000Y-80450000D02*
X102161356Y-80450001D01*
X100306000Y-119200000D02*
X100306000Y-120556000D01*
X102800000Y-129350000D02*
X102800000Y-129850000D01*
X101310000Y-75800000D02*
X100306000Y-75800000D01*
X102800000Y-82850000D02*
X102800000Y-83350000D01*
X100306000Y-116100000D02*
X100306000Y-117456000D01*
X102600000Y-139350000D02*
X102161356Y-139350001D01*
X100306000Y-74444000D02*
X100306000Y-75800000D01*
X102800000Y-92650000D02*
X102600000Y-92850000D01*
X100500000Y-64950000D02*
X100306000Y-65144000D01*
X100306000Y-140900000D02*
X100306000Y-142256000D01*
X102600000Y-167250000D02*
X102161356Y-167250001D01*
X102800000Y-151050000D02*
X102800000Y-151550000D01*
X100500000Y-123850000D02*
X100306000Y-124044000D01*
X100306000Y-139544000D02*
X100306000Y-140900000D01*
X101310000Y-181200000D02*
X100306000Y-181200000D01*
X102600000Y-77350000D02*
X102161356Y-77350001D01*
X101310000Y-100600000D02*
X100306000Y-100600000D01*
X102800000Y-95250000D02*
X102800000Y-95750000D01*
X102800000Y-157750000D02*
X102600000Y-157950000D01*
X100306000Y-98856000D02*
X100500000Y-99050000D01*
X102800000Y-167050000D02*
X102600000Y-167250000D01*
X102800000Y-176350000D02*
X102600000Y-176550000D01*
X102600000Y-68050000D02*
X102161356Y-68050001D01*
X102800000Y-70950000D02*
X102600000Y-71150000D01*
X100500000Y-130050000D02*
X100306000Y-130244000D01*
X102800000Y-172750000D02*
X102800000Y-173250000D01*
X101310000Y-94400000D02*
X100306000Y-94400000D01*
X102800000Y-116950000D02*
X102800000Y-117450000D01*
X102600000Y-151750000D02*
X102161356Y-151750001D01*
X100306000Y-114744000D02*
X100306000Y-116100000D01*
X102800000Y-185237149D02*
X102327103Y-185710046D01*
X100306000Y-167056000D02*
X100500000Y-167250000D01*
X102600000Y-170350000D02*
X102161356Y-170350001D01*
X100306000Y-113000000D02*
X100306000Y-114356000D01*
X102800000Y-80250000D02*
X102600000Y-80450000D01*
X100306000Y-68244000D02*
X100306000Y-69600000D01*
X100500000Y-86650000D02*
X100306000Y-86844000D01*
X100500000Y-145550000D02*
X100306000Y-145744000D01*
X100500000Y-148650000D02*
X100306000Y-148844000D01*
X100306000Y-179844000D02*
X100306000Y-181200000D01*
X102800000Y-73550000D02*
X102800000Y-74050000D01*
X102800000Y-175850000D02*
X102800000Y-176350000D01*
X102600000Y-86650000D02*
X102161356Y-86650001D01*
X100306000Y-111256000D02*
X100500000Y-111450000D01*
X101310000Y-97500000D02*
X100306000Y-97500000D01*
X102800000Y-151550000D02*
X102600000Y-151750000D01*
X100306000Y-130244000D02*
X100306000Y-131600000D01*
X100306000Y-122300000D02*
X100306000Y-123656000D01*
X101310000Y-113000000D02*
X100306000Y-113000000D01*
X100306000Y-137800000D02*
X100306000Y-139156000D01*
X100306000Y-64756000D02*
X100500000Y-64950000D01*
X101310000Y-159500000D02*
X100306000Y-159500000D01*
X100306000Y-181200000D02*
X100306000Y-182556000D01*
X100306000Y-171900000D02*
X100306000Y-173256000D01*
X102600000Y-126950000D02*
X102161356Y-126950001D01*
X102800000Y-76650000D02*
X102800000Y-77150000D01*
X101310000Y-63400000D02*
X100306000Y-63400000D01*
X100306000Y-127144000D02*
X100306000Y-128500000D01*
X100500000Y-92850000D02*
X100306000Y-93044000D01*
X100306000Y-105444000D02*
X100306000Y-106800000D01*
X100306000Y-105056000D02*
X100500000Y-105250000D01*
X101310000Y-175000000D02*
X100306000Y-175000000D01*
X102800000Y-173250000D02*
X102600000Y-173450000D01*
X100500000Y-71150000D02*
X100306000Y-71344000D01*
X102800000Y-92150000D02*
X102800000Y-92650000D01*
X102600000Y-136250000D02*
X102161356Y-136250001D01*
X100306000Y-175000000D02*
X100306000Y-176356000D01*
X100306000Y-165700000D02*
X100306000Y-167056000D01*
X100500000Y-102150000D02*
X100306000Y-102344000D01*
X102800000Y-64750000D02*
X102600000Y-64950000D01*
X100306000Y-145356000D02*
X100500000Y-145550000D01*
X100500000Y-108350000D02*
X100306000Y-108544000D01*
X101310000Y-85100000D02*
X100306000Y-85100000D01*
X102800000Y-141750000D02*
X102800000Y-142250000D01*
X102800000Y-74050000D02*
X102600000Y-74250000D01*
X102800000Y-110750000D02*
X102800000Y-111250000D01*
X102800000Y-123650000D02*
X102600000Y-123850000D01*
X102800000Y-145350000D02*
X102600000Y-145550000D01*
X102800000Y-135550000D02*
X102800000Y-136050000D01*
X100306000Y-129856000D02*
X100500000Y-130050000D01*
X100306000Y-126756000D02*
X100500000Y-126950000D01*
X102800000Y-70450000D02*
X102800000Y-70950000D01*
X100306000Y-150200000D02*
X100306000Y-151556000D01*
%TO.N,/strip_l/+5V*%
X102800000Y-174150000D02*
X103340000Y-174150000D01*
X102800000Y-130750000D02*
X102800000Y-131530000D01*
X103340000Y-174150000D02*
X103400000Y-174090000D01*
X102800000Y-78830000D02*
X102730000Y-78900000D01*
X103340000Y-130750000D02*
X103400000Y-130690000D01*
X102800000Y-90450000D02*
X102800000Y-91230000D01*
X102800000Y-81150000D02*
X102800000Y-81930000D01*
X103400000Y-65590000D02*
X103340000Y-65650000D01*
X102800000Y-103630000D02*
X102730000Y-103700000D01*
X102800000Y-105950000D02*
X102800000Y-106730000D01*
X103340000Y-171050000D02*
X103400000Y-170990000D01*
X102800000Y-134630000D02*
X102730000Y-134700000D01*
X102800000Y-78050000D02*
X103340000Y-78050000D01*
X102800000Y-128430000D02*
X102730000Y-128500000D01*
X103400000Y-146310000D02*
X103340000Y-146250000D01*
X102800000Y-155550000D02*
X103340000Y-155550000D01*
X103400000Y-112090000D02*
X103400000Y-109110000D01*
X103400000Y-140110000D02*
X103340000Y-140050000D01*
X103340000Y-118350000D02*
X103400000Y-118290000D01*
X102800000Y-118350000D02*
X102800000Y-119130000D01*
X103400000Y-180290000D02*
X103400000Y-177310000D01*
X103340000Y-149350000D02*
X103400000Y-149290000D01*
X102800000Y-118350000D02*
X103340000Y-118350000D01*
X103340000Y-65650000D02*
X103400000Y-65710000D01*
X103340000Y-81150000D02*
X103400000Y-81210000D01*
X102800000Y-81930000D02*
X102730000Y-82000000D01*
X102800000Y-167950000D02*
X103340000Y-167950000D01*
X103340000Y-93550000D02*
X103400000Y-93490000D01*
X102800000Y-102850000D02*
X102800000Y-103630000D01*
X103340000Y-102850000D02*
X103400000Y-102790000D01*
X103400000Y-124610000D02*
X103340000Y-124550000D01*
X103400000Y-177190000D02*
X103400000Y-174210000D01*
X103400000Y-118290000D02*
X103400000Y-115310000D01*
X103400000Y-155610000D02*
X103340000Y-155550000D01*
X103400000Y-133790000D02*
X103400000Y-130810000D01*
X102800000Y-150130000D02*
X102730000Y-150200000D01*
X103400000Y-115310000D02*
X103340000Y-115250000D01*
X102800000Y-116030000D02*
X102730000Y-116100000D01*
X103400000Y-170990000D02*
X103400000Y-168010000D01*
X102800000Y-99750000D02*
X103340000Y-99750000D01*
X102800000Y-69530000D02*
X102730000Y-69600000D01*
X103340000Y-152450000D02*
X103400000Y-152390000D01*
X103400000Y-99690000D02*
X103400000Y-96710000D01*
X102800000Y-112930000D02*
X102730000Y-113000000D01*
X103400000Y-96710000D02*
X103340000Y-96650000D01*
X102800000Y-65650000D02*
X102800000Y-66430000D01*
X102800000Y-74950000D02*
X102800000Y-75730000D01*
X102800000Y-99750000D02*
X102800000Y-100530000D01*
X103340000Y-105950000D02*
X103400000Y-105890000D01*
X103400000Y-93610000D02*
X103340000Y-93550000D01*
X103400000Y-106010000D02*
X103340000Y-105950000D01*
X102800000Y-115250000D02*
X103340000Y-115250000D01*
X103400000Y-168010000D02*
X103340000Y-167950000D01*
X102800000Y-106730000D02*
X102730000Y-106800000D01*
X103400000Y-137010000D02*
X103340000Y-136950000D01*
X102800000Y-159430000D02*
X102730000Y-159500000D01*
X102800000Y-109830000D02*
X102730000Y-109900000D01*
X102800000Y-81150000D02*
X103340000Y-81150000D01*
X103400000Y-102790000D02*
X103400000Y-99810000D01*
X102800000Y-87350000D02*
X103340000Y-87350000D01*
X103400000Y-62610000D02*
X103400000Y-65590000D01*
X102800000Y-91230000D02*
X102730000Y-91300000D01*
X102800000Y-119130000D02*
X102730000Y-119200000D01*
X103400000Y-143090000D02*
X103400000Y-140110000D01*
X103400000Y-171110000D02*
X103340000Y-171050000D01*
X103400000Y-130810000D02*
X103340000Y-130750000D01*
X103340000Y-121450000D02*
X103400000Y-121390000D01*
X102800000Y-137730000D02*
X102730000Y-137800000D01*
X103400000Y-133910000D02*
X103340000Y-133850000D01*
X103340000Y-109050000D02*
X103400000Y-108990000D01*
X103400000Y-136890000D02*
X103400000Y-133910000D01*
X102800000Y-183450000D02*
X103340000Y-183450000D01*
X103400000Y-139990000D02*
X103400000Y-137010000D01*
X102800000Y-93550000D02*
X102800000Y-94330000D01*
X102800000Y-84250000D02*
X103340000Y-84250000D01*
X102800000Y-105950000D02*
X103340000Y-105950000D01*
X103400000Y-158710000D02*
X103400000Y-161690000D01*
X102800000Y-71850000D02*
X103340000Y-71850000D01*
X102800000Y-174930000D02*
X102730000Y-175000000D01*
X103400000Y-93490000D02*
X103400000Y-90510000D01*
X103400000Y-149410000D02*
X103340000Y-149350000D01*
X103340000Y-177250000D02*
X103400000Y-177190000D01*
X103340000Y-143150000D02*
X103400000Y-143090000D01*
X102800000Y-171050000D02*
X102800000Y-171830000D01*
X102800000Y-171830000D02*
X102730000Y-171900000D01*
X103400000Y-105890000D02*
X103400000Y-102910000D01*
X103400000Y-158590000D02*
X103400000Y-155610000D01*
X103400000Y-68690000D02*
X103340000Y-68750000D01*
X103400000Y-164790000D02*
X103400000Y-161810000D01*
X102800000Y-93550000D02*
X103340000Y-93550000D01*
X102800000Y-156330000D02*
X102730000Y-156400000D01*
X103340000Y-78050000D02*
X103400000Y-78110000D01*
X102800000Y-112150000D02*
X102800000Y-112930000D01*
X103400000Y-84310000D02*
X103400000Y-87290000D01*
X102800000Y-168730000D02*
X102730000Y-168800000D01*
X103400000Y-96590000D02*
X103400000Y-93610000D01*
X103400000Y-65710000D02*
X103400000Y-68690000D01*
X102800000Y-87350000D02*
X102800000Y-88130000D01*
X103400000Y-84190000D02*
X103340000Y-84250000D01*
X103400000Y-121390000D02*
X103400000Y-118410000D01*
X103400000Y-174090000D02*
X103400000Y-171110000D01*
X102800000Y-133850000D02*
X103340000Y-133850000D01*
X103400000Y-149290000D02*
X103400000Y-146310000D01*
X102800000Y-164850000D02*
X102800000Y-165630000D01*
X103400000Y-87290000D02*
X103340000Y-87350000D01*
X103400000Y-180410000D02*
X103340000Y-180350000D01*
X102800000Y-72630000D02*
X102730000Y-72700000D01*
X103400000Y-118410000D02*
X103340000Y-118350000D01*
X102800000Y-153230000D02*
X102730000Y-153300000D01*
X102800000Y-147030000D02*
X102730000Y-147100000D01*
X102800000Y-181130000D02*
X102730000Y-181200000D01*
X103400000Y-78110000D02*
X103400000Y-81090000D01*
X103340000Y-136950000D02*
X103400000Y-136890000D01*
X103400000Y-164910000D02*
X103340000Y-164850000D01*
X102800000Y-131530000D02*
X102730000Y-131600000D01*
X103340000Y-140050000D02*
X103400000Y-139990000D01*
X102800000Y-140050000D02*
X102800000Y-140830000D01*
X102800000Y-127650000D02*
X102800000Y-128430000D01*
X103340000Y-112150000D02*
X103400000Y-112090000D01*
X102800000Y-162530000D02*
X102730000Y-162600000D01*
X102800000Y-146250000D02*
X103340000Y-146250000D01*
X102800000Y-85030000D02*
X102730000Y-85100000D01*
X102800000Y-184230000D02*
X102730000Y-184300000D01*
X102800000Y-125330000D02*
X102730000Y-125400000D01*
X103400000Y-143210000D02*
X103340000Y-143150000D01*
X103340000Y-146250000D02*
X103400000Y-146190000D01*
X102800000Y-180350000D02*
X103340000Y-180350000D01*
X102800000Y-109050000D02*
X102800000Y-109830000D01*
X102800000Y-180350000D02*
X102800000Y-181130000D01*
X102800000Y-143150000D02*
X103340000Y-143150000D01*
X103400000Y-108990000D02*
X103400000Y-106010000D01*
X102800000Y-115250000D02*
X102800000Y-116030000D01*
X103340000Y-167950000D02*
X103400000Y-167890000D01*
X103400000Y-87410000D02*
X103340000Y-87350000D01*
X102800000Y-158650000D02*
X102800000Y-159430000D01*
X102800000Y-62550000D02*
X103340000Y-62550000D01*
X102800000Y-124550000D02*
X102800000Y-125330000D01*
X102800000Y-96650000D02*
X103340000Y-96650000D01*
X103400000Y-174210000D02*
X103340000Y-174150000D01*
X102800000Y-112150000D02*
X103340000Y-112150000D01*
X102800000Y-136950000D02*
X102800000Y-137730000D01*
X102800000Y-97430000D02*
X102730000Y-97500000D01*
X103400000Y-124490000D02*
X103400000Y-121510000D01*
X103400000Y-75010000D02*
X103400000Y-77990000D01*
X103400000Y-81090000D02*
X103340000Y-81150000D01*
X103400000Y-127710000D02*
X103340000Y-127650000D01*
X102800000Y-94330000D02*
X102730000Y-94400000D01*
X103400000Y-121510000D02*
X103340000Y-121450000D01*
X102800000Y-171050000D02*
X103340000Y-171050000D01*
X103340000Y-68750000D02*
X103400000Y-68810000D01*
X102800000Y-96650000D02*
X102800000Y-97430000D01*
X102800000Y-143150000D02*
X102800000Y-143930000D01*
X102800000Y-109050000D02*
X103340000Y-109050000D01*
X102800000Y-130750000D02*
X103340000Y-130750000D01*
X103400000Y-102910000D02*
X103340000Y-102850000D01*
X103400000Y-99810000D02*
X103340000Y-99750000D01*
X103340000Y-71850000D02*
X103400000Y-71910000D01*
X103400000Y-71790000D02*
X103340000Y-71850000D01*
X103400000Y-115190000D02*
X103400000Y-112210000D01*
X103340000Y-127650000D02*
X103400000Y-127590000D01*
X102800000Y-122230000D02*
X102730000Y-122300000D01*
X102800000Y-164850000D02*
X103340000Y-164850000D01*
X102800000Y-155550000D02*
X102800000Y-156330000D01*
X102800000Y-84250000D02*
X102800000Y-85030000D01*
X103400000Y-68810000D02*
X103400000Y-71790000D01*
X103400000Y-81210000D02*
X103400000Y-84190000D01*
X102800000Y-90450000D02*
X103340000Y-90450000D01*
X102800000Y-121450000D02*
X103340000Y-121450000D01*
X103400000Y-146190000D02*
X103400000Y-143210000D01*
X103400000Y-90390000D02*
X103400000Y-87410000D01*
X103340000Y-115250000D02*
X103400000Y-115190000D01*
X103400000Y-74890000D02*
X103340000Y-74950000D01*
X102800000Y-74950000D02*
X103340000Y-74950000D01*
X102800000Y-149350000D02*
X102800000Y-150130000D01*
X103340000Y-158650000D02*
X103400000Y-158710000D01*
X102800000Y-183450000D02*
X102800000Y-184230000D01*
X103340000Y-99750000D02*
X103400000Y-99690000D01*
X103340000Y-155550000D02*
X103400000Y-155490000D01*
X102800000Y-68750000D02*
X103340000Y-68750000D01*
X102800000Y-158650000D02*
X103340000Y-158650000D01*
X103400000Y-152390000D02*
X103400000Y-149410000D01*
X103340000Y-158650000D02*
X103400000Y-158590000D01*
X103400000Y-127590000D02*
X103400000Y-124610000D01*
X102800000Y-102850000D02*
X103340000Y-102850000D01*
X102800000Y-146250000D02*
X102800000Y-147030000D01*
X102800000Y-100530000D02*
X102730000Y-100600000D01*
X102800000Y-78050000D02*
X102800000Y-78830000D01*
X102800000Y-152450000D02*
X103340000Y-152450000D01*
X103400000Y-161690000D02*
X103340000Y-161750000D01*
X102800000Y-136950000D02*
X103340000Y-136950000D01*
X103400000Y-109110000D02*
X103340000Y-109050000D01*
X102800000Y-149350000D02*
X103340000Y-149350000D01*
X102800000Y-68750000D02*
X102800000Y-69530000D01*
X103400000Y-177310000D02*
X103340000Y-177250000D01*
X102800000Y-75730000D02*
X102730000Y-75800000D01*
X103400000Y-71910000D02*
X103400000Y-74890000D01*
X103400000Y-130690000D02*
X103400000Y-127710000D01*
X103400000Y-152510000D02*
X103340000Y-152450000D01*
X103400000Y-90510000D02*
X103340000Y-90450000D01*
X102800000Y-174150000D02*
X102800000Y-174930000D01*
X103340000Y-164850000D02*
X103400000Y-164790000D01*
X102800000Y-66430000D02*
X102730000Y-66500000D01*
X102800000Y-165630000D02*
X102730000Y-165700000D01*
X102800000Y-178030000D02*
X102730000Y-178100000D01*
X102800000Y-133850000D02*
X102800000Y-134630000D01*
X103400000Y-155490000D02*
X103400000Y-152510000D01*
X103400000Y-77990000D02*
X103340000Y-78050000D01*
X102800000Y-161750000D02*
X103340000Y-161750000D01*
X103340000Y-180350000D02*
X103400000Y-180290000D01*
X103400000Y-161810000D02*
X103340000Y-161750000D01*
X103340000Y-84250000D02*
X103400000Y-84310000D01*
X103340000Y-62550000D02*
X103400000Y-62610000D01*
X102800000Y-121450000D02*
X102800000Y-122230000D01*
X102800000Y-161750000D02*
X102800000Y-162530000D01*
X103400000Y-112210000D02*
X103340000Y-112150000D01*
X103340000Y-96650000D02*
X103400000Y-96590000D01*
X103340000Y-74950000D02*
X103400000Y-75010000D01*
X102800000Y-88130000D02*
X102730000Y-88200000D01*
X103400000Y-183390000D02*
X103400000Y-180410000D01*
X103340000Y-90450000D02*
X103400000Y-90390000D01*
X103400000Y-167890000D02*
X103400000Y-164910000D01*
X102800000Y-167950000D02*
X102800000Y-168730000D01*
X102800000Y-124550000D02*
X103340000Y-124550000D01*
X103340000Y-133850000D02*
X103400000Y-133790000D01*
X102800000Y-65650000D02*
X103340000Y-65650000D01*
X102800000Y-177250000D02*
X103340000Y-177250000D01*
X102800000Y-127650000D02*
X103340000Y-127650000D01*
X102800000Y-62550000D02*
X102800000Y-63330000D01*
X102800000Y-140050000D02*
X103340000Y-140050000D01*
X102800000Y-143930000D02*
X102730000Y-144000000D01*
X102800000Y-152450000D02*
X102800000Y-153230000D01*
X103340000Y-124550000D02*
X103400000Y-124490000D01*
X102800000Y-177250000D02*
X102800000Y-178030000D01*
X103340000Y-183450000D02*
X103400000Y-183390000D01*
X102800000Y-140830000D02*
X102730000Y-140900000D01*
X102800000Y-71850000D02*
X102800000Y-72630000D01*
%TO.N,/strip_r/GND*%
X106300000Y-175200000D02*
X106100000Y-175000000D01*
X107590000Y-113850000D02*
X108140000Y-113850000D01*
X106300000Y-178290000D02*
X106110000Y-178100000D01*
X107590000Y-154150000D02*
X108140000Y-154150000D01*
X106300000Y-130050000D02*
X106300000Y-128690000D01*
X106110000Y-63400000D02*
X106300000Y-63210000D01*
X106300000Y-128690000D02*
X106110000Y-128500000D01*
X106300000Y-83550000D02*
X106300000Y-82190000D01*
X107590000Y-76650000D02*
X108140000Y-76650000D01*
X106300000Y-89750000D02*
X106300000Y-88390000D01*
X106300000Y-165510000D02*
X106300000Y-164150000D01*
X107590000Y-163450000D02*
X108140000Y-163450000D01*
X107590000Y-85950000D02*
X108140000Y-85950000D01*
X106300000Y-71150000D02*
X106300000Y-69790000D01*
X106110000Y-109900000D02*
X106300000Y-109710000D01*
X106300000Y-176550000D02*
X106300000Y-175200000D01*
X106300000Y-109710000D02*
X106300000Y-108350000D01*
X106300000Y-156210000D02*
X106300000Y-154850000D01*
X106300000Y-142450000D02*
X106300000Y-141090000D01*
X106110000Y-131600000D02*
X106300000Y-131410000D01*
X106300000Y-173450000D02*
X106300000Y-172090000D01*
X107590000Y-175850000D02*
X108140000Y-175850000D01*
X106300000Y-125590000D02*
X106110000Y-125400000D01*
X106300000Y-92850000D02*
X106300000Y-91490000D01*
X106300000Y-168610000D02*
X106300000Y-167250000D01*
X107590000Y-116950000D02*
X108140000Y-116950000D01*
X106300000Y-153110000D02*
X106300000Y-151750000D01*
X106300000Y-126950000D02*
X106300000Y-125590000D01*
X106300000Y-137990000D02*
X106300000Y-139350000D01*
X107590000Y-107650000D02*
X108140000Y-107650000D01*
X106300000Y-95950000D02*
X106300000Y-94590000D01*
X106300000Y-94210000D02*
X106300000Y-92850000D01*
X106300000Y-144190000D02*
X106110000Y-144000000D01*
X107590000Y-110750000D02*
X108140000Y-110750000D01*
X106300000Y-99050000D02*
X106300000Y-97690000D01*
X106300000Y-133150000D02*
X106300000Y-131790000D01*
X106300000Y-131790000D02*
X106110000Y-131600000D01*
X107590000Y-135550000D02*
X108140000Y-135550000D01*
X106300000Y-162790000D02*
X106110000Y-162600000D01*
X106300000Y-181010000D02*
X106300000Y-179650000D01*
X106110000Y-153300000D02*
X106300000Y-153110000D01*
X106300000Y-103890000D02*
X106110000Y-103700000D01*
X106110000Y-78900000D02*
X106300000Y-78710000D01*
X106300000Y-97690000D02*
X106110000Y-97500000D01*
X106110000Y-178100000D02*
X106300000Y-177910000D01*
X106300000Y-119390000D02*
X106110000Y-119200000D01*
X106300000Y-150390000D02*
X106110000Y-150200000D01*
X106300000Y-100790000D02*
X106110000Y-100600000D01*
X106110000Y-85100000D02*
X106300000Y-84910000D01*
X106300000Y-122110000D02*
X106300000Y-120750000D01*
X107590000Y-98350000D02*
X108140000Y-98350000D01*
X106300000Y-74250000D02*
X106300000Y-72890000D01*
X106110000Y-171900000D02*
X106300000Y-171710000D01*
X106110000Y-94400000D02*
X106300000Y-94210000D01*
X107590000Y-79750000D02*
X107940000Y-79750000D01*
X106300000Y-102150000D02*
X106300000Y-100790000D01*
X106110000Y-184300000D02*
X106300000Y-184110000D01*
X106110000Y-150200000D02*
X106300000Y-150010000D01*
X108140000Y-132350000D02*
X108040000Y-132450000D01*
X107590000Y-151050000D02*
X108140000Y-151050000D01*
X106110000Y-66500000D02*
X106300000Y-66310000D01*
X106110000Y-106800000D02*
X106300000Y-106610000D01*
X106300000Y-120750000D02*
X106300000Y-119390000D01*
X106300000Y-97310000D02*
X106300000Y-95950000D01*
X106300000Y-179650000D02*
X106300000Y-178290000D01*
X106110000Y-116100000D02*
X106300000Y-115910000D01*
X106300000Y-137610000D02*
X106300000Y-136250000D01*
X107590000Y-178950000D02*
X108140000Y-178950000D01*
X106300000Y-122490000D02*
X106110000Y-122300000D01*
X107590000Y-129350000D02*
X108140000Y-129350000D01*
X106300000Y-106610000D02*
X106300000Y-105250000D01*
X107590000Y-89050000D02*
X108140000Y-89050000D01*
X106300000Y-147290000D02*
X106110000Y-147100000D01*
X106300000Y-111450000D02*
X106300000Y-110090000D01*
X106110000Y-140900000D02*
X106300000Y-140710000D01*
X106110000Y-137800000D02*
X106300000Y-137610000D01*
X106300000Y-156590000D02*
X106110000Y-156400000D01*
X106110000Y-82000000D02*
X106300000Y-81810000D01*
X106110000Y-125400000D02*
X106300000Y-125210000D01*
X106300000Y-72510000D02*
X106300000Y-71150000D01*
X106300000Y-81810000D02*
X106300000Y-80450000D01*
X106300000Y-116290000D02*
X106110000Y-116100000D01*
X106110000Y-137800000D02*
X106300000Y-137990000D01*
X106300000Y-177910000D02*
X106300000Y-176550000D01*
X107590000Y-138650000D02*
X108140000Y-138650000D01*
X106300000Y-108350000D02*
X106300000Y-106990000D01*
X106300000Y-151750000D02*
X106300000Y-150390000D01*
X106110000Y-181200000D02*
X106300000Y-181010000D01*
X106300000Y-148650000D02*
X106300000Y-147290000D01*
X106110000Y-162600000D02*
X106300000Y-162410000D01*
X106110000Y-113000000D02*
X106300000Y-112810000D01*
X106300000Y-103510000D02*
X106300000Y-102150000D01*
X106300000Y-140710000D02*
X106300000Y-139350000D01*
X106110000Y-75800000D02*
X106300000Y-75610000D01*
X106300000Y-112810000D02*
X106300000Y-111450000D01*
X106300000Y-164150000D02*
X106300000Y-162790000D01*
X106300000Y-69790000D02*
X106110000Y-69600000D01*
X106300000Y-79090000D02*
X106110000Y-78900000D01*
X106300000Y-128310000D02*
X106300000Y-126950000D01*
X107590000Y-157250000D02*
X108140000Y-157250000D01*
X106300000Y-75610000D02*
X106300000Y-74250000D01*
X106300000Y-114550000D02*
X106300000Y-113190000D01*
X107590000Y-172750000D02*
X108140000Y-172750000D01*
X106300000Y-63210000D02*
X106300000Y-61850000D01*
X106300000Y-171710000D02*
X106300000Y-170350000D01*
X106300000Y-91110000D02*
X106300000Y-89750000D01*
X106110000Y-144000000D02*
X106300000Y-143810000D01*
X106300000Y-141090000D02*
X106110000Y-140900000D01*
X106300000Y-162410000D02*
X106300000Y-161050000D01*
X106110000Y-72700000D02*
X106300000Y-72510000D01*
X106300000Y-117650000D02*
X106300000Y-116290000D01*
X106110000Y-69600000D02*
X106300000Y-69410000D01*
X106300000Y-161050000D02*
X106300000Y-159690000D01*
X107590000Y-101450000D02*
X108140000Y-101450000D01*
X106300000Y-105250000D02*
X106300000Y-103890000D01*
X107590000Y-141750000D02*
X108140000Y-141750000D01*
X106110000Y-100600000D02*
X106300000Y-100410000D01*
X106110000Y-156400000D02*
X106300000Y-156210000D01*
X106300000Y-80450000D02*
X106300000Y-79090000D01*
X106300000Y-119010000D02*
X106300000Y-117650000D01*
X106300000Y-170350000D02*
X106300000Y-168990000D01*
X106300000Y-100410000D02*
X106300000Y-99050000D01*
X106300000Y-85290000D02*
X106110000Y-85100000D01*
X106300000Y-146910000D02*
X106300000Y-145550000D01*
X106300000Y-181400000D02*
X106100000Y-181200000D01*
X106300000Y-115910000D02*
X106300000Y-114550000D01*
X106300000Y-106990000D02*
X106110000Y-106800000D01*
X107590000Y-169650000D02*
X108140000Y-169650000D01*
X106300000Y-174810000D02*
X106300000Y-173450000D01*
X106110000Y-175000000D02*
X106300000Y-174810000D01*
X106110000Y-97500000D02*
X106300000Y-97310000D01*
X106300000Y-72890000D02*
X106110000Y-72700000D01*
X106300000Y-64950000D02*
X106300000Y-63590000D01*
X106300000Y-94590000D02*
X106110000Y-94400000D01*
X106300000Y-63590000D02*
X106110000Y-63400000D01*
X106110000Y-103700000D02*
X106300000Y-103510000D01*
X106300000Y-153490000D02*
X106110000Y-153300000D01*
X107590000Y-92150000D02*
X108140000Y-92150000D01*
X106300000Y-75990000D02*
X106110000Y-75800000D01*
X107590000Y-95250000D02*
X108140000Y-95250000D01*
X106300000Y-68050000D02*
X106300000Y-66690000D01*
X106300000Y-134510000D02*
X106300000Y-133150000D01*
X107590000Y-82850000D02*
X108140000Y-82850000D01*
X106300000Y-145550000D02*
X106300000Y-144190000D01*
X106300000Y-184110000D02*
X106300000Y-182750000D01*
X106300000Y-88010000D02*
X106300000Y-86650000D01*
X106300000Y-91490000D02*
X106110000Y-91300000D01*
X106300000Y-82190000D02*
X106110000Y-82000000D01*
X106110000Y-128500000D02*
X106300000Y-128310000D01*
X106110000Y-122300000D02*
X106300000Y-122110000D01*
X106300000Y-78710000D02*
X106300000Y-77350000D01*
X106300000Y-165890000D02*
X106110000Y-165700000D01*
X107590000Y-166550000D02*
X108140000Y-166550000D01*
X107590000Y-70450000D02*
X108140000Y-70450000D01*
X107590000Y-64250000D02*
X108140000Y-64250000D01*
X107590000Y-144850000D02*
X108140000Y-144850000D01*
X106300000Y-131410000D02*
X106300000Y-130050000D01*
X107590000Y-182050000D02*
X108140000Y-182050000D01*
X106300000Y-69410000D02*
X106300000Y-68050000D01*
X106300000Y-66310000D02*
X106300000Y-64950000D01*
X106300000Y-84910000D02*
X106300000Y-83550000D01*
X106300000Y-125210000D02*
X106300000Y-123850000D01*
X106110000Y-159500000D02*
X106300000Y-159310000D01*
X106110000Y-168800000D02*
X106300000Y-168610000D01*
X106300000Y-167250000D02*
X106300000Y-165890000D01*
X106300000Y-159310000D02*
X106300000Y-157950000D01*
X106300000Y-88390000D02*
X106110000Y-88200000D01*
X106300000Y-66690000D02*
X106110000Y-66500000D01*
X106300000Y-168990000D02*
X106110000Y-168800000D01*
X106300000Y-77350000D02*
X106300000Y-75990000D01*
X107600000Y-185150000D02*
X108140000Y-185150000D01*
X108040000Y-132450000D02*
X107590000Y-132450000D01*
X107590000Y-104550000D02*
X108140000Y-104550000D01*
X106300000Y-154850000D02*
X106300000Y-153490000D01*
X106300000Y-182750000D02*
X106300000Y-181400000D01*
X107590000Y-160350000D02*
X108140000Y-160350000D01*
X106300000Y-86650000D02*
X106300000Y-85290000D01*
X106300000Y-143810000D02*
X106300000Y-142450000D01*
X107590000Y-120050000D02*
X108140000Y-120050000D01*
X106300000Y-123850000D02*
X106300000Y-122490000D01*
X106110000Y-88200000D02*
X106300000Y-88010000D01*
X106110000Y-165700000D02*
X106300000Y-165510000D01*
X106110000Y-147100000D02*
X106300000Y-146910000D01*
X106300000Y-159690000D02*
X106110000Y-159500000D01*
X106300000Y-110090000D02*
X106110000Y-109900000D01*
X107590000Y-73550000D02*
X108140000Y-73550000D01*
X106300000Y-136250000D02*
X106300000Y-134890000D01*
X106110000Y-119200000D02*
X106300000Y-119010000D01*
X107940000Y-79750000D02*
X108140000Y-79550000D01*
X107590000Y-126250000D02*
X108140000Y-126250000D01*
X106300000Y-113190000D02*
X106110000Y-113000000D01*
X107590000Y-67350000D02*
X108140000Y-67350000D01*
X106300000Y-150010000D02*
X106300000Y-148650000D01*
X106110000Y-91300000D02*
X106300000Y-91110000D01*
X106300000Y-172090000D02*
X106110000Y-171900000D01*
X106110000Y-134700000D02*
X106300000Y-134510000D01*
X107590000Y-123150000D02*
X108140000Y-123150000D01*
X106300000Y-157950000D02*
X106300000Y-156590000D01*
X107590000Y-147950000D02*
X108140000Y-147950000D01*
X106300000Y-134890000D02*
X106110000Y-134700000D01*
%TO.N,/strip_r/+5V*%
X107200000Y-121450000D02*
X107600000Y-121450000D01*
X107151000Y-139419280D02*
X107151000Y-140001000D01*
X107200000Y-71850000D02*
X107600000Y-71850000D01*
X107075000Y-173443280D02*
X107151000Y-173519280D01*
X107600000Y-116030000D02*
X107530000Y-116100000D01*
X107151000Y-157867280D02*
X107151000Y-156769000D01*
X107151000Y-155501000D02*
X107200000Y-155550000D01*
X107075000Y-74243280D02*
X107151000Y-74167280D01*
X107200000Y-84250000D02*
X107600000Y-84250000D01*
X107151000Y-71219280D02*
X107151000Y-71801000D01*
X107600000Y-85030000D02*
X107530000Y-85100000D01*
X107075000Y-133143280D02*
X107151000Y-133067280D01*
X107151000Y-96601000D02*
X107200000Y-96650000D01*
X107600000Y-140050000D02*
X107600000Y-140830000D01*
X107151000Y-131969000D02*
X107520000Y-131600000D01*
X107075000Y-111443280D02*
X107151000Y-111367280D01*
X107200000Y-177250000D02*
X107600000Y-177250000D01*
X107151000Y-76169000D02*
X107520000Y-75800000D01*
X107600000Y-100530000D02*
X107530000Y-100600000D01*
X107151000Y-68119280D02*
X107151000Y-68701000D01*
X107075000Y-77343280D02*
X107151000Y-77267280D01*
X107200000Y-164850000D02*
X107600000Y-164850000D01*
X107151000Y-161119280D02*
X107151000Y-161701000D01*
X107075000Y-179643280D02*
X107151000Y-179719280D01*
X107151000Y-98967280D02*
X107151000Y-97869000D01*
X107200000Y-136950000D02*
X107600000Y-136950000D01*
X107075000Y-86643280D02*
X107151000Y-86719280D01*
X107200000Y-62550000D02*
X107600000Y-62550000D01*
X107151000Y-133219280D02*
X107151000Y-133801000D01*
X107200000Y-127650000D02*
X107600000Y-127650000D01*
X107075000Y-120743280D02*
X107151000Y-120819280D01*
X107151000Y-73069000D02*
X107520000Y-72700000D01*
X107151000Y-93501000D02*
X107200000Y-93550000D01*
X107075000Y-173443280D02*
X107151000Y-173367280D01*
X107151000Y-105167280D02*
X107151000Y-104069000D01*
X107200000Y-161750000D02*
X107600000Y-161750000D01*
X107075000Y-111443280D02*
X107151000Y-111519280D01*
X107200000Y-133850000D02*
X107600000Y-133850000D01*
X107600000Y-162530000D02*
X107530000Y-162600000D01*
X107600000Y-78830000D02*
X107530000Y-78900000D01*
X107600000Y-84250000D02*
X107600000Y-85030000D01*
X107151000Y-65601000D02*
X107200000Y-65650000D01*
X107600000Y-155550000D02*
X107600000Y-156330000D01*
X107151000Y-125769000D02*
X107520000Y-125400000D01*
X107600000Y-127650000D02*
X107600000Y-128430000D01*
X107600000Y-115250000D02*
X107600000Y-116030000D01*
X107151000Y-164067280D02*
X107151000Y-162969000D01*
X107200000Y-99750000D02*
X107600000Y-99750000D01*
X107600000Y-183450000D02*
X107600000Y-184230000D01*
X107151000Y-105319280D02*
X107151000Y-105901000D01*
X107075000Y-61843280D02*
X107151000Y-61767280D01*
X107075000Y-92843280D02*
X107151000Y-92767280D01*
X107600000Y-119130000D02*
X107530000Y-119200000D01*
X107151000Y-77267280D02*
X107151000Y-76169000D01*
X107600000Y-156330000D02*
X107530000Y-156400000D01*
X107151000Y-77419280D02*
X107151000Y-78001000D01*
X107151000Y-83619280D02*
X107151000Y-84201000D01*
X107600000Y-66430000D02*
X107530000Y-66500000D01*
X107075000Y-114543280D02*
X107151000Y-114619280D01*
X107200000Y-74950000D02*
X107600000Y-74950000D01*
X107151000Y-78001000D02*
X107200000Y-78050000D01*
X107151000Y-179719280D02*
X107151000Y-180301000D01*
X107151000Y-171001000D02*
X107200000Y-171050000D01*
X107600000Y-124550000D02*
X107600000Y-125330000D01*
X107200000Y-112150000D02*
X107600000Y-112150000D01*
X107075000Y-130043280D02*
X107151000Y-129967280D01*
X107151000Y-170419280D02*
X107151000Y-171001000D01*
X107075000Y-61843280D02*
X107151000Y-61919280D01*
X107600000Y-88130000D02*
X107530000Y-88200000D01*
X107151000Y-114467280D02*
X107151000Y-113369000D01*
X107075000Y-89743280D02*
X107151000Y-89667280D01*
X107151000Y-167901000D02*
X107200000Y-167950000D01*
X107600000Y-149350000D02*
X107600000Y-150130000D01*
X107600000Y-71850000D02*
X107600000Y-72630000D01*
X107151000Y-136167280D02*
X107151000Y-135069000D01*
X107075000Y-154843280D02*
X107151000Y-154767280D01*
X107600000Y-159430000D02*
X107530000Y-159500000D01*
X107151000Y-162969000D02*
X107520000Y-162600000D01*
X107151000Y-83467280D02*
X107151000Y-82369000D01*
X107151000Y-153669000D02*
X107520000Y-153300000D01*
X107151000Y-62501000D02*
X107200000Y-62550000D01*
X107151000Y-96019280D02*
X107151000Y-96601000D01*
X107600000Y-143930000D02*
X107530000Y-144000000D01*
X107151000Y-102067280D02*
X107151000Y-100969000D01*
X107151000Y-179567280D02*
X107151000Y-178469000D01*
X107075000Y-105243280D02*
X107151000Y-105167280D01*
X107151000Y-107169000D02*
X107520000Y-106800000D01*
X107151000Y-74901000D02*
X107200000Y-74950000D01*
X107151000Y-136901000D02*
X107200000Y-136950000D01*
X107075000Y-182743280D02*
X107151000Y-182819280D01*
X107600000Y-63330000D02*
X107530000Y-63400000D01*
X107075000Y-102143280D02*
X107151000Y-102067280D01*
X107075000Y-80443280D02*
X107151000Y-80519280D01*
X107151000Y-164801000D02*
X107200000Y-164850000D01*
X107600000Y-146250000D02*
X107600000Y-147030000D01*
X107075000Y-83543280D02*
X107151000Y-83467280D01*
X107151000Y-158601000D02*
X107200000Y-158650000D01*
X107075000Y-102143280D02*
X107151000Y-102219280D01*
X107151000Y-173519280D02*
X107151000Y-174101000D01*
X107151000Y-141269000D02*
X107520000Y-140900000D01*
X107151000Y-150569000D02*
X107520000Y-150200000D01*
X107075000Y-92843280D02*
X107151000Y-92919280D01*
X107151000Y-160967280D02*
X107151000Y-159869000D01*
X107151000Y-136319280D02*
X107151000Y-136901000D01*
X107600000Y-153230000D02*
X107530000Y-153300000D01*
X107600000Y-62550000D02*
X107600000Y-63330000D01*
X107151000Y-102801000D02*
X107200000Y-102850000D01*
X107200000Y-171050000D02*
X107600000Y-171050000D01*
X107151000Y-109001000D02*
X107200000Y-109050000D01*
X107075000Y-77343280D02*
X107151000Y-77419280D01*
X107151000Y-173367280D02*
X107151000Y-172269000D01*
X107151000Y-89667280D02*
X107151000Y-88569000D01*
X107151000Y-156769000D02*
X107520000Y-156400000D01*
X107151000Y-81101000D02*
X107200000Y-81150000D01*
X107075000Y-130043280D02*
X107151000Y-130119280D01*
X107151000Y-105901000D02*
X107200000Y-105950000D01*
X107151000Y-181569000D02*
X107520000Y-181200000D01*
X107151000Y-117719280D02*
X107151000Y-118301000D01*
X107075000Y-95943280D02*
X107151000Y-95867280D01*
X107200000Y-68750000D02*
X107600000Y-68750000D01*
X107600000Y-174930000D02*
X107530000Y-175000000D01*
X107075000Y-105243280D02*
X107151000Y-105319280D01*
X107075000Y-145543280D02*
X107151000Y-145467280D01*
X107151000Y-133801000D02*
X107200000Y-133850000D01*
X107600000Y-178030000D02*
X107530000Y-178100000D01*
X107075000Y-148643280D02*
X107151000Y-148719280D01*
X107151000Y-80519280D02*
X107151000Y-81101000D01*
X107600000Y-99750000D02*
X107600000Y-100530000D01*
X107151000Y-113369000D02*
X107520000Y-113000000D01*
X107151000Y-161701000D02*
X107200000Y-161750000D01*
X107200000Y-140050000D02*
X107600000Y-140050000D01*
X107075000Y-142443280D02*
X107151000Y-142519280D01*
X107600000Y-75730000D02*
X107530000Y-75800000D01*
X107600000Y-131530000D02*
X107530000Y-131600000D01*
X107200000Y-149350000D02*
X107600000Y-149350000D01*
X107600000Y-69530000D02*
X107530000Y-69600000D01*
X107600000Y-78050000D02*
X107600000Y-78830000D01*
X107151000Y-130701000D02*
X107200000Y-130750000D01*
X107151000Y-64867280D02*
X107151000Y-63769000D01*
X107600000Y-130750000D02*
X107600000Y-131530000D01*
X107600000Y-181130000D02*
X107530000Y-181200000D01*
X107151000Y-182667280D02*
X107151000Y-181569000D01*
X107151000Y-121401000D02*
X107200000Y-121450000D01*
X107600000Y-94330000D02*
X107530000Y-94400000D01*
X107200000Y-130750000D02*
X107600000Y-130750000D01*
X107151000Y-145619280D02*
X107151000Y-146201000D01*
X107151000Y-63769000D02*
X107520000Y-63400000D01*
X107151000Y-177201000D02*
X107200000Y-177250000D01*
X107600000Y-96650000D02*
X107600000Y-97430000D01*
X107151000Y-123919280D02*
X107151000Y-124501000D01*
X107151000Y-180301000D02*
X107200000Y-180350000D01*
X107151000Y-85469000D02*
X107520000Y-85100000D01*
X107151000Y-175369000D02*
X107520000Y-175000000D01*
X107151000Y-169169000D02*
X107520000Y-168800000D01*
X107151000Y-128869000D02*
X107520000Y-128500000D01*
X107151000Y-99119280D02*
X107151000Y-99701000D01*
X107200000Y-158650000D02*
X107600000Y-158650000D01*
X107200000Y-81150000D02*
X107600000Y-81150000D01*
X107075000Y-133143280D02*
X107151000Y-133219280D01*
X107151000Y-182819280D02*
X107151000Y-183401000D01*
X107151000Y-159869000D02*
X107520000Y-159500000D01*
X107151000Y-138169000D02*
X107520000Y-137800000D01*
X107200000Y-105950000D02*
X107600000Y-105950000D01*
X107075000Y-164143280D02*
X107151000Y-164067280D01*
X107151000Y-143101000D02*
X107200000Y-143150000D01*
X107075000Y-176543280D02*
X107151000Y-176619280D01*
X107600000Y-143150000D02*
X107600000Y-143930000D01*
X107075000Y-117643280D02*
X107151000Y-117567280D01*
X107600000Y-137730000D02*
X107530000Y-137800000D01*
X107151000Y-120819280D02*
X107151000Y-121401000D01*
X107151000Y-147469000D02*
X107520000Y-147100000D01*
X107600000Y-158650000D02*
X107600000Y-159430000D01*
X107151000Y-118301000D02*
X107200000Y-118350000D01*
X107600000Y-91230000D02*
X107530000Y-91300000D01*
X107151000Y-114619280D02*
X107151000Y-115201000D01*
X107200000Y-167950000D02*
X107600000Y-167950000D01*
X107151000Y-127019280D02*
X107151000Y-127601000D01*
X107600000Y-72630000D02*
X107530000Y-72700000D01*
X107151000Y-84201000D02*
X107200000Y-84250000D01*
X107600000Y-140830000D02*
X107530000Y-140900000D01*
X107075000Y-139343280D02*
X107151000Y-139267280D01*
X107151000Y-124501000D02*
X107200000Y-124550000D01*
X107151000Y-117567280D02*
X107151000Y-116469000D01*
X107151000Y-183401000D02*
X107200000Y-183450000D01*
X107151000Y-164219280D02*
X107151000Y-164801000D01*
X107151000Y-178469000D02*
X107520000Y-178100000D01*
X107075000Y-157943280D02*
X107151000Y-158019280D01*
X107075000Y-170343280D02*
X107151000Y-170267280D01*
X107600000Y-177250000D02*
X107600000Y-178030000D01*
X107151000Y-104069000D02*
X107520000Y-103700000D01*
X107600000Y-171830000D02*
X107530000Y-171900000D01*
X107151000Y-144369000D02*
X107520000Y-144000000D01*
X107600000Y-184230000D02*
X107530000Y-184300000D01*
X107075000Y-167243280D02*
X107151000Y-167167280D01*
X107200000Y-115250000D02*
X107600000Y-115250000D01*
X107151000Y-99701000D02*
X107200000Y-99750000D01*
X107151000Y-112101000D02*
X107200000Y-112150000D01*
X107600000Y-174150000D02*
X107600000Y-174930000D01*
X107075000Y-68043280D02*
X107151000Y-67967280D01*
X107075000Y-126943280D02*
X107151000Y-127019280D01*
X107600000Y-122230000D02*
X107530000Y-122300000D01*
X107075000Y-167243280D02*
X107151000Y-167319280D01*
X107151000Y-166069000D02*
X107520000Y-165700000D01*
X107600000Y-147030000D02*
X107530000Y-147100000D01*
X107151000Y-140001000D02*
X107200000Y-140050000D01*
X107151000Y-91669000D02*
X107520000Y-91300000D01*
X107151000Y-151819280D02*
X107151000Y-152401000D01*
X107075000Y-99043280D02*
X107151000Y-99119280D01*
X107075000Y-99043280D02*
X107151000Y-98967280D01*
X107600000Y-74950000D02*
X107600000Y-75730000D01*
X107075000Y-71143280D02*
X107151000Y-71219280D01*
X107600000Y-165630000D02*
X107530000Y-165700000D01*
X107075000Y-80443280D02*
X107151000Y-80367280D01*
X107151000Y-100969000D02*
X107520000Y-100600000D01*
X107151000Y-135069000D02*
X107520000Y-134700000D01*
X107151000Y-86719280D02*
X107151000Y-87301000D01*
X107151000Y-167319280D02*
X107151000Y-167901000D01*
X107151000Y-148567280D02*
X107151000Y-147469000D01*
X107151000Y-129967280D02*
X107151000Y-128869000D01*
X107151000Y-74319280D02*
X107151000Y-74901000D01*
X107151000Y-148719280D02*
X107151000Y-149301000D01*
X107151000Y-130119280D02*
X107151000Y-130701000D01*
X107200000Y-109050000D02*
X107600000Y-109050000D01*
X107600000Y-171050000D02*
X107600000Y-171830000D01*
X107151000Y-92767280D02*
X107151000Y-91669000D01*
X107151000Y-69969000D02*
X107520000Y-69600000D01*
X107151000Y-172269000D02*
X107520000Y-171900000D01*
X107151000Y-133067280D02*
X107151000Y-131969000D01*
X107151000Y-149301000D02*
X107200000Y-149350000D01*
X107600000Y-93550000D02*
X107600000Y-94330000D01*
X107075000Y-114543280D02*
X107151000Y-114467280D01*
X107200000Y-155550000D02*
X107600000Y-155550000D01*
X107151000Y-154919280D02*
X107151000Y-155501000D01*
X107200000Y-90450000D02*
X107600000Y-90450000D01*
X107600000Y-161750000D02*
X107600000Y-162530000D01*
X107151000Y-108267280D02*
X107151000Y-107169000D01*
X107600000Y-180350000D02*
X107600000Y-181130000D01*
X107075000Y-145543280D02*
X107151000Y-145619280D01*
X107151000Y-127601000D02*
X107200000Y-127650000D01*
X107075000Y-74243280D02*
X107151000Y-74319280D01*
X107200000Y-78050000D02*
X107600000Y-78050000D01*
X107151000Y-145467280D02*
X107151000Y-144369000D01*
X107151000Y-115201000D02*
X107200000Y-115250000D01*
X107600000Y-125330000D02*
X107530000Y-125400000D01*
X107151000Y-71801000D02*
X107200000Y-71850000D01*
X107151000Y-176467280D02*
X107151000Y-175369000D01*
X107151000Y-97869000D02*
X107520000Y-97500000D01*
X107151000Y-67967280D02*
X107151000Y-66869000D01*
X107075000Y-123843280D02*
X107151000Y-123767280D01*
X107075000Y-179643280D02*
X107151000Y-179567280D01*
X107151000Y-116469000D02*
X107520000Y-116100000D01*
X107151000Y-102219280D02*
X107151000Y-102801000D01*
X107200000Y-102850000D02*
X107600000Y-102850000D01*
X107075000Y-182743280D02*
X107151000Y-182667280D01*
X107600000Y-118350000D02*
X107600000Y-119130000D01*
X107151000Y-154767280D02*
X107151000Y-153669000D01*
X107600000Y-167950000D02*
X107600000Y-168730000D01*
X107600000Y-81150000D02*
X107600000Y-81930000D01*
X107600000Y-102850000D02*
X107600000Y-103630000D01*
X107075000Y-176543280D02*
X107151000Y-176467280D01*
X107151000Y-170267280D02*
X107151000Y-169169000D01*
X107151000Y-126867280D02*
X107151000Y-125769000D01*
X107151000Y-122669000D02*
X107520000Y-122300000D01*
X107075000Y-68043280D02*
X107151000Y-68119280D01*
X107200000Y-118350000D02*
X107600000Y-118350000D01*
X107075000Y-170343280D02*
X107151000Y-170419280D01*
X107151000Y-158019280D02*
X107151000Y-158601000D01*
X107151000Y-71067280D02*
X107151000Y-69969000D01*
X107151000Y-120667280D02*
X107151000Y-119569000D01*
X107151000Y-87301000D02*
X107200000Y-87350000D01*
X107075000Y-142443280D02*
X107151000Y-142367280D01*
X107151000Y-68701000D02*
X107200000Y-68750000D01*
X107151000Y-111519280D02*
X107151000Y-112101000D01*
X107200000Y-65650000D02*
X107600000Y-65650000D01*
X107600000Y-81930000D02*
X107530000Y-82000000D01*
X107151000Y-82369000D02*
X107520000Y-82000000D01*
X107075000Y-151743280D02*
X107151000Y-151819280D01*
X107200000Y-124550000D02*
X107600000Y-124550000D01*
X107075000Y-164143280D02*
X107151000Y-164219280D01*
X107151000Y-167167280D02*
X107151000Y-166069000D01*
X107151000Y-86567280D02*
X107151000Y-85469000D01*
X107200000Y-180350000D02*
X107600000Y-180350000D01*
X107075000Y-95943280D02*
X107151000Y-96019280D01*
X107151000Y-110269000D02*
X107520000Y-109900000D01*
X107151000Y-88569000D02*
X107520000Y-88200000D01*
X107075000Y-123843280D02*
X107151000Y-123919280D01*
X107151000Y-142367280D02*
X107151000Y-141269000D01*
X107075000Y-64943280D02*
X107151000Y-64867280D01*
X107075000Y-139343280D02*
X107151000Y-139419280D01*
X107075000Y-89743280D02*
X107151000Y-89819280D01*
X107075000Y-108343280D02*
X107151000Y-108267280D01*
X107200000Y-143150000D02*
X107600000Y-143150000D01*
X107151000Y-111367280D02*
X107151000Y-110269000D01*
X107600000Y-65650000D02*
X107600000Y-66430000D01*
X107075000Y-71143280D02*
X107151000Y-71067280D01*
X107600000Y-121450000D02*
X107600000Y-122230000D01*
X107600000Y-90450000D02*
X107600000Y-91230000D01*
X107600000Y-109050000D02*
X107600000Y-109830000D01*
X107151000Y-90401000D02*
X107200000Y-90450000D01*
X107075000Y-154843280D02*
X107151000Y-154919280D01*
X107151000Y-74167280D02*
X107151000Y-73069000D01*
X107075000Y-117643280D02*
X107151000Y-117719280D01*
X107151000Y-146201000D02*
X107200000Y-146250000D01*
X107075000Y-83543280D02*
X107151000Y-83619280D01*
X107600000Y-112930000D02*
X107530000Y-113000000D01*
X107600000Y-112150000D02*
X107600000Y-112930000D01*
X107600000Y-87350000D02*
X107600000Y-88130000D01*
X107200000Y-146250000D02*
X107600000Y-146250000D01*
X107075000Y-161043280D02*
X107151000Y-160967280D01*
X107151000Y-142519280D02*
X107151000Y-143101000D01*
X107151000Y-89819280D02*
X107151000Y-90401000D01*
X107075000Y-126943280D02*
X107151000Y-126867280D01*
X107151000Y-174101000D02*
X107200000Y-174150000D01*
X107600000Y-164850000D02*
X107600000Y-165630000D01*
X107075000Y-148643280D02*
X107151000Y-148567280D01*
X107600000Y-109830000D02*
X107530000Y-109900000D01*
X107151000Y-95867280D02*
X107151000Y-94769000D01*
X107600000Y-103630000D02*
X107530000Y-103700000D01*
X107200000Y-96650000D02*
X107600000Y-96650000D01*
X107075000Y-120743280D02*
X107151000Y-120667280D01*
X107600000Y-133850000D02*
X107600000Y-134630000D01*
X107151000Y-108419280D02*
X107151000Y-109001000D01*
X107600000Y-68750000D02*
X107600000Y-69530000D01*
X107600000Y-136950000D02*
X107600000Y-137730000D01*
X107151000Y-139267280D02*
X107151000Y-138169000D01*
X107075000Y-86643280D02*
X107151000Y-86567280D01*
X107151000Y-94769000D02*
X107520000Y-94400000D01*
X107600000Y-134630000D02*
X107530000Y-134700000D01*
X107151000Y-176619280D02*
X107151000Y-177201000D01*
X107600000Y-106730000D02*
X107530000Y-106800000D01*
X107075000Y-136243280D02*
X107151000Y-136167280D01*
X107200000Y-93550000D02*
X107600000Y-93550000D01*
X107151000Y-61919280D02*
X107151000Y-62501000D01*
X107075000Y-136243280D02*
X107151000Y-136319280D01*
X107600000Y-97430000D02*
X107530000Y-97500000D01*
X107151000Y-80367280D02*
X107151000Y-79269000D01*
X107075000Y-161043280D02*
X107151000Y-161119280D01*
X107075000Y-64943280D02*
X107151000Y-65019280D01*
X107075000Y-151743280D02*
X107151000Y-151667280D01*
X107151000Y-65019280D02*
X107151000Y-65601000D01*
X107200000Y-152450000D02*
X107600000Y-152450000D01*
X107600000Y-128430000D02*
X107530000Y-128500000D01*
X107200000Y-174150000D02*
X107600000Y-174150000D01*
X107151000Y-79269000D02*
X107520000Y-78900000D01*
X107600000Y-168730000D02*
X107530000Y-168800000D01*
X107600000Y-152450000D02*
X107600000Y-153230000D01*
X107151000Y-92919280D02*
X107151000Y-93501000D01*
X107600000Y-150130000D02*
X107530000Y-150200000D01*
X107151000Y-119569000D02*
X107520000Y-119200000D01*
X107151000Y-151667280D02*
X107151000Y-150569000D01*
X107200000Y-183450000D02*
X107600000Y-183450000D01*
X107075000Y-157943280D02*
X107151000Y-157867280D01*
X107151000Y-123767280D02*
X107151000Y-122669000D01*
X107151000Y-66869000D02*
X107520000Y-66500000D01*
X107151000Y-152401000D02*
X107200000Y-152450000D01*
X107600000Y-105950000D02*
X107600000Y-106730000D01*
X107200000Y-87350000D02*
X107600000Y-87350000D01*
X107075000Y-108343280D02*
X107151000Y-108419280D01*
%TO.N,/strip_l/CKI*%
X101900000Y-185850000D02*
X101900000Y-185150000D01*
X102300000Y-186250000D02*
X101900000Y-185850000D01*
%TO.N,/strip_l/SDI*%
X101000000Y-185750000D02*
X101000000Y-185150000D01*
X101500000Y-186250000D02*
X101000000Y-185750000D01*
%TO.N,/strip_r/SDI*%
X106244255Y-186576000D02*
X105800000Y-186131745D01*
X107000000Y-186200000D02*
X106624000Y-186576000D01*
X105800000Y-186131745D02*
X105800000Y-185150000D01*
X106624000Y-186576000D02*
X106244255Y-186576000D01*
%TO.N,/strip_r/CKI*%
X106700000Y-185900000D02*
X106700000Y-185150000D01*
X106400000Y-186200000D02*
X106700000Y-185900000D01*
%TD*%
M02*
