M48
; DRILL file {KiCad 9.0.1} date 2025-07-16T22:24:30-0400
; FORMAT={-:-/ absolute / metric / decimal}
; #@! TF.CreationDate,2025-07-16T22:24:30-04:00
; #@! TF.GenerationSoftware,Kicad,Pcbnew,9.0.1
; #@! TF.FileFunction,Plated,1,2,PTH
FMAT,2
METRIC
; #@! TA.AperFunction,Plated,PTH,ViaDrill
T1C0.200
%
G90
G05
T1
X100.5Y-64.95
X100.5Y-68.05
X100.5Y-71.15
X100.5Y-74.25
X100.5Y-77.35
X100.5Y-83.55
X100.5Y-86.65
X100.5Y-89.75
X100.5Y-92.85
X100.5Y-95.95
X100.5Y-99.05
X100.5Y-102.15
X100.5Y-105.25
X100.5Y-108.35
X100.5Y-111.45
X100.5Y-114.55
X100.5Y-117.65
X100.5Y-120.75
X100.5Y-123.85
X100.5Y-126.95
X100.5Y-130.05
X100.5Y-136.25
X100.5Y-139.35
X100.5Y-142.45
X100.5Y-145.55
X100.5Y-148.65
X100.5Y-151.75
X100.5Y-154.85
X100.5Y-157.95
X100.5Y-161.05
X100.5Y-164.15
X100.5Y-167.25
X100.5Y-170.35
X100.5Y-173.45
X100.5Y-176.55
X100.5Y-179.65
X100.5Y-182.75
X100.7Y-186.75
X101.5Y-186.25
X102.161Y-64.95
X102.161Y-68.05
X102.161Y-71.15
X102.161Y-74.25
X102.161Y-77.35
X102.161Y-80.45
X102.161Y-83.55
X102.161Y-86.65
X102.161Y-89.75
X102.161Y-92.85
X102.161Y-95.95
X102.161Y-99.05
X102.161Y-102.15
X102.161Y-105.25
X102.161Y-108.35
X102.161Y-111.45
X102.161Y-114.55
X102.161Y-117.65
X102.161Y-120.75
X102.161Y-123.85
X102.161Y-126.95
X102.161Y-130.05
X102.161Y-133.15
X102.161Y-136.25
X102.161Y-139.35
X102.161Y-142.45
X102.161Y-145.55
X102.161Y-148.65
X102.161Y-151.75
X102.161Y-154.85
X102.161Y-157.95
X102.161Y-161.05
X102.161Y-164.15
X102.161Y-167.25
X102.161Y-170.35
X102.161Y-173.45
X102.161Y-176.55
X102.161Y-179.65
X102.161Y-182.75
X102.3Y-186.25
X102.327Y-185.71
X103.1Y-186.75
X103.34Y-62.55
X103.34Y-65.65
X103.34Y-68.75
X103.34Y-71.85
X103.34Y-74.95
X103.34Y-78.05
X103.34Y-81.15
X103.34Y-84.25
X103.34Y-87.35
X103.34Y-90.45
X103.34Y-93.55
X103.34Y-96.65
X103.34Y-99.75
X103.34Y-102.85
X103.34Y-105.95
X103.34Y-109.05
X103.34Y-112.15
X103.34Y-115.25
X103.34Y-118.35
X103.34Y-121.45
X103.34Y-124.55
X103.34Y-127.65
X103.34Y-130.75
X103.34Y-133.85
X103.34Y-136.95
X103.34Y-140.05
X103.34Y-143.15
X103.34Y-146.25
X103.34Y-149.35
X103.34Y-152.45
X103.34Y-155.55
X103.34Y-158.65
X103.34Y-161.75
X103.34Y-164.85
X103.34Y-167.95
X103.34Y-171.05
X103.34Y-174.15
X103.34Y-177.25
X103.34Y-180.35
X103.34Y-183.45
X105.5Y-186.7
X106.3Y-61.85
X106.3Y-64.95
X106.3Y-68.05
X106.3Y-71.15
X106.3Y-74.25
X106.3Y-77.35
X106.3Y-80.45
X106.3Y-83.55
X106.3Y-86.65
X106.3Y-89.75
X106.3Y-92.85
X106.3Y-95.95
X106.3Y-99.05
X106.3Y-102.15
X106.3Y-105.25
X106.3Y-108.35
X106.3Y-111.45
X106.3Y-114.55
X106.3Y-117.65
X106.3Y-120.75
X106.3Y-123.85
X106.3Y-126.95
X106.3Y-130.05
X106.3Y-133.15
X106.3Y-136.25
X106.3Y-139.35
X106.3Y-142.45
X106.3Y-145.55
X106.3Y-148.65
X106.3Y-151.75
X106.3Y-154.85
X106.3Y-157.95
X106.3Y-161.05
X106.3Y-164.15
X106.3Y-167.25
X106.3Y-170.35
X106.3Y-173.45
X106.3Y-176.55
X106.3Y-179.65
X106.3Y-182.75
X106.4Y-186.2
X107.0Y-186.2
X107.075Y-61.843
X107.075Y-64.943
X107.075Y-68.043
X107.075Y-71.143
X107.075Y-74.243
X107.075Y-77.343
X107.075Y-80.443
X107.075Y-83.543
X107.075Y-86.643
X107.075Y-89.743
X107.075Y-92.843
X107.075Y-95.943
X107.075Y-99.043
X107.075Y-102.143
X107.075Y-105.243
X107.075Y-108.343
X107.075Y-111.443
X107.075Y-114.543
X107.075Y-117.643
X107.075Y-120.743
X107.075Y-123.843
X107.075Y-126.943
X107.075Y-130.043
X107.075Y-133.143
X107.075Y-136.243
X107.075Y-139.343
X107.075Y-142.443
X107.075Y-145.543
X107.075Y-148.643
X107.075Y-151.743
X107.075Y-154.843
X107.075Y-157.943
X107.075Y-161.043
X107.075Y-164.143
X107.075Y-167.243
X107.075Y-170.343
X107.075Y-173.443
X107.075Y-176.543
X107.075Y-179.643
X107.075Y-182.743
X107.9Y-186.7
X108.14Y-64.25
X108.14Y-67.35
X108.14Y-70.45
X108.14Y-73.55
X108.14Y-76.65
X108.14Y-79.55
X108.14Y-82.85
X108.14Y-85.95
X108.14Y-89.05
X108.14Y-92.15
X108.14Y-95.25
X108.14Y-98.35
X108.14Y-101.45
X108.14Y-104.55
X108.14Y-107.65
X108.14Y-110.75
X108.14Y-113.85
X108.14Y-116.95
X108.14Y-120.05
X108.14Y-123.15
X108.14Y-126.25
X108.14Y-129.35
X108.14Y-132.35
X108.14Y-135.55
X108.14Y-138.65
X108.14Y-141.75
X108.14Y-144.85
X108.14Y-147.95
X108.14Y-151.05
X108.14Y-154.15
X108.14Y-157.25
X108.14Y-160.35
X108.14Y-163.45
X108.14Y-166.55
X108.14Y-169.65
X108.14Y-172.75
X108.14Y-175.85
X108.14Y-178.95
X108.14Y-182.05
X108.14Y-185.15
M30
