M48
; DRILL file {KiCad 9.0.3} date 2025-08-19T12:25:50-0400
; FORMAT={-:-/ absolute / metric / decimal}
; #@! TF.CreationDate,2025-08-19T12:25:50-04:00
; #@! TF.GenerationSoftware,Kicad,Pcbnew,9.0.3
; #@! TF.FileFunction,Plated,1,2,PTH
FMAT,2
METRIC
; #@! TA.AperFunction,Plated,PTH,ViaDrill
T1C0.200
; #@! TA.AperFunction,Plated,PTH,ComponentDrill
T2C1.000
%
G90
G05
T1
X51.325Y-153.85
X51.726Y-152.57
X51.75Y-153.5
X52.3Y-152.57
X52.35Y-153.6
X52.7Y-29.661
X52.7Y-30.539
X52.7Y-32.761
X52.7Y-33.639
X52.7Y-35.861
X52.7Y-36.739
X52.7Y-38.961
X52.7Y-39.839
X52.7Y-42.061
X52.7Y-42.939
X52.7Y-45.161
X52.7Y-46.039
X52.7Y-48.261
X52.7Y-49.139
X52.7Y-51.361
X52.7Y-52.239
X52.7Y-54.461
X52.7Y-55.339
X52.7Y-57.561
X52.7Y-58.439
X52.7Y-60.661
X52.7Y-61.539
X52.7Y-63.761
X52.7Y-64.639
X52.7Y-66.861
X52.7Y-67.739
X52.7Y-69.961
X52.7Y-70.839
X52.7Y-73.061
X52.7Y-73.939
X52.7Y-76.161
X52.7Y-77.039
X52.7Y-79.261
X52.7Y-80.139
X52.7Y-82.361
X52.7Y-83.239
X52.7Y-85.461
X52.7Y-86.339
X52.7Y-88.561
X52.7Y-89.439
X52.7Y-91.661
X52.7Y-92.539
X52.7Y-94.761
X52.7Y-95.639
X52.7Y-97.861
X52.7Y-98.739
X52.7Y-100.961
X52.7Y-101.839
X52.7Y-104.061
X52.7Y-104.939
X52.7Y-107.161
X52.7Y-108.039
X52.7Y-110.261
X52.7Y-111.139
X52.7Y-113.361
X52.7Y-114.239
X52.7Y-116.461
X52.7Y-117.339
X52.7Y-119.561
X52.7Y-120.439
X52.7Y-122.661
X52.7Y-123.539
X52.7Y-125.761
X52.7Y-126.639
X52.7Y-128.861
X52.7Y-129.739
X52.7Y-131.961
X52.7Y-132.839
X52.7Y-135.061
X52.7Y-135.939
X52.7Y-138.161
X52.7Y-139.039
X52.7Y-141.261
X52.7Y-142.139
X52.7Y-144.361
X52.7Y-145.239
X52.7Y-147.461
X52.7Y-148.339
X52.7Y-150.561
X52.7Y-151.439
X53.05Y-153.6
X53.95Y-27.7
X53.95Y-28.7
X53.95Y-81.25
X53.95Y-133.95
X53.95Y-153.7
X55.8Y-157.7
X55.84Y-156.1
X56.85Y-27.7
X56.85Y-28.7
X56.85Y-81.25
X56.85Y-133.95
X56.85Y-153.7
X57.3Y-156.7
X57.5Y-155.4
X57.75Y-152.75
X57.753Y-153.626
X57.8Y-156.1
X58.1Y-29.661
X58.1Y-30.539
X58.1Y-32.761
X58.1Y-33.639
X58.1Y-35.861
X58.1Y-36.739
X58.1Y-38.961
X58.1Y-39.839
X58.1Y-42.061
X58.1Y-42.939
X58.1Y-45.161
X58.1Y-46.039
X58.1Y-48.261
X58.1Y-49.139
X58.1Y-51.361
X58.1Y-52.239
X58.1Y-54.461
X58.1Y-55.339
X58.1Y-57.561
X58.1Y-58.439
X58.1Y-60.661
X58.1Y-61.539
X58.1Y-63.761
X58.1Y-64.639
X58.1Y-66.861
X58.1Y-67.739
X58.1Y-69.961
X58.1Y-70.839
X58.1Y-73.061
X58.1Y-73.939
X58.1Y-76.161
X58.1Y-77.039
X58.1Y-79.261
X58.1Y-80.139
X58.1Y-82.361
X58.1Y-83.239
X58.1Y-85.461
X58.1Y-86.339
X58.1Y-88.561
X58.1Y-89.439
X58.1Y-91.661
X58.1Y-92.539
X58.1Y-94.761
X58.1Y-95.639
X58.1Y-97.861
X58.1Y-98.739
X58.1Y-100.961
X58.1Y-101.839
X58.1Y-104.061
X58.1Y-104.939
X58.1Y-107.161
X58.1Y-108.039
X58.1Y-110.261
X58.1Y-111.139
X58.1Y-113.361
X58.1Y-114.239
X58.1Y-116.461
X58.1Y-117.339
X58.1Y-119.561
X58.1Y-120.439
X58.1Y-122.661
X58.1Y-123.539
X58.1Y-125.761
X58.1Y-126.639
X58.1Y-128.861
X58.1Y-129.739
X58.1Y-131.961
X58.1Y-132.839
X58.1Y-135.061
X58.1Y-135.939
X58.1Y-138.161
X58.1Y-139.039
X58.1Y-141.261
X58.1Y-142.139
X58.1Y-144.361
X58.1Y-145.239
X58.1Y-147.461
X58.1Y-148.339
X58.1Y-150.561
X58.1Y-151.439
X58.3Y-155.4
X58.3Y-157.1
X58.4Y-152.6
X58.45Y-153.65
X58.7Y-157.7
X59.0Y-152.6
X59.079Y-153.44
X59.5Y-153.85
X62.125Y-153.85
X62.526Y-152.57
X62.55Y-153.5
X62.6Y-156.1
X63.1Y-152.57
X63.1Y-155.53
X63.15Y-153.6
X63.16Y-157.1
X63.5Y-29.661
X63.5Y-30.539
X63.5Y-32.761
X63.5Y-33.639
X63.5Y-35.861
X63.5Y-36.739
X63.5Y-38.961
X63.5Y-39.839
X63.5Y-42.061
X63.5Y-42.939
X63.5Y-45.161
X63.5Y-46.039
X63.5Y-48.261
X63.5Y-49.139
X63.5Y-51.361
X63.5Y-52.239
X63.5Y-54.461
X63.5Y-55.339
X63.5Y-57.561
X63.5Y-58.439
X63.5Y-60.661
X63.5Y-61.539
X63.5Y-63.761
X63.5Y-64.639
X63.5Y-66.861
X63.5Y-67.739
X63.5Y-69.961
X63.5Y-70.839
X63.5Y-73.061
X63.5Y-73.939
X63.5Y-76.161
X63.5Y-77.039
X63.5Y-79.261
X63.5Y-80.139
X63.5Y-82.361
X63.5Y-83.239
X63.5Y-85.461
X63.5Y-86.339
X63.5Y-88.561
X63.5Y-89.439
X63.5Y-91.661
X63.5Y-92.539
X63.5Y-94.761
X63.5Y-95.639
X63.5Y-97.861
X63.5Y-98.739
X63.5Y-100.961
X63.5Y-101.839
X63.5Y-104.061
X63.5Y-104.939
X63.5Y-107.161
X63.5Y-108.039
X63.5Y-110.261
X63.5Y-111.139
X63.5Y-113.361
X63.5Y-114.239
X63.5Y-116.461
X63.5Y-117.339
X63.5Y-119.561
X63.5Y-120.439
X63.5Y-122.661
X63.5Y-123.539
X63.5Y-125.761
X63.5Y-126.639
X63.5Y-128.861
X63.5Y-129.739
X63.5Y-131.961
X63.5Y-132.839
X63.5Y-135.061
X63.5Y-135.939
X63.5Y-138.161
X63.5Y-139.039
X63.5Y-141.261
X63.5Y-142.139
X63.5Y-144.361
X63.5Y-145.239
X63.5Y-147.461
X63.5Y-148.339
X63.5Y-150.561
X63.5Y-151.439
X63.6Y-157.7
X63.85Y-153.6
X63.9Y-155.5
X63.9Y-156.7
X64.3Y-156.1
X64.75Y-27.7
X64.75Y-28.7
X64.75Y-81.25
X64.75Y-133.95
X64.75Y-153.7
X65.1Y-156.7
X67.65Y-27.7
X67.65Y-28.7
X67.65Y-81.25
X67.65Y-133.95
X67.65Y-153.7
X67.7Y-157.1
X68.3Y-155.5
X68.3Y-156.7
X68.55Y-152.75
X68.553Y-153.626
X68.7Y-156.1
X68.9Y-29.661
X68.9Y-30.539
X68.9Y-32.761
X68.9Y-33.639
X68.9Y-35.861
X68.9Y-36.739
X68.9Y-38.961
X68.9Y-39.839
X68.9Y-42.061
X68.9Y-42.939
X68.9Y-45.161
X68.9Y-46.039
X68.9Y-48.261
X68.9Y-49.139
X68.9Y-51.361
X68.9Y-52.239
X68.9Y-54.461
X68.9Y-55.339
X68.9Y-57.561
X68.9Y-58.439
X68.9Y-60.661
X68.9Y-61.539
X68.9Y-63.761
X68.9Y-64.639
X68.9Y-66.861
X68.9Y-67.739
X68.9Y-69.961
X68.9Y-70.839
X68.9Y-73.061
X68.9Y-73.939
X68.9Y-76.161
X68.9Y-77.039
X68.9Y-79.261
X68.9Y-80.139
X68.9Y-82.361
X68.9Y-83.239
X68.9Y-85.461
X68.9Y-86.339
X68.9Y-88.561
X68.9Y-89.439
X68.9Y-91.661
X68.9Y-92.539
X68.9Y-94.761
X68.9Y-95.639
X68.9Y-97.861
X68.9Y-98.739
X68.9Y-100.961
X68.9Y-101.839
X68.9Y-104.061
X68.9Y-104.939
X68.9Y-107.161
X68.9Y-108.039
X68.9Y-110.261
X68.9Y-111.139
X68.9Y-113.361
X68.9Y-114.239
X68.9Y-116.461
X68.9Y-117.339
X68.9Y-119.561
X68.9Y-120.439
X68.9Y-122.661
X68.9Y-123.539
X68.9Y-125.761
X68.9Y-126.639
X68.9Y-128.861
X68.9Y-129.739
X68.9Y-131.961
X68.9Y-132.839
X68.9Y-135.061
X68.9Y-135.939
X68.9Y-138.161
X68.9Y-139.039
X68.9Y-141.261
X68.9Y-142.139
X68.9Y-144.361
X68.9Y-145.239
X68.9Y-147.461
X68.9Y-148.339
X68.9Y-150.561
X68.9Y-151.439
X69.1Y-155.5
X69.1Y-157.1
X69.2Y-152.6
X69.25Y-153.65
X69.5Y-157.7
X69.8Y-152.6
X69.879Y-153.44
X70.2Y-157.7
X70.3Y-153.85
X72.925Y-153.85
X73.326Y-152.57
X73.35Y-153.5
X73.9Y-152.57
X73.9Y-155.53
X73.9Y-157.1
X73.95Y-153.6
X74.3Y-157.7
X74.3Y-29.661
X74.3Y-30.539
X74.3Y-32.761
X74.3Y-33.639
X74.3Y-35.861
X74.3Y-36.739
X74.3Y-38.961
X74.3Y-39.839
X74.3Y-42.061
X74.3Y-42.939
X74.3Y-45.161
X74.3Y-46.039
X74.3Y-48.261
X74.3Y-49.139
X74.3Y-51.361
X74.3Y-52.239
X74.3Y-54.461
X74.3Y-55.339
X74.3Y-57.561
X74.3Y-58.439
X74.3Y-60.661
X74.3Y-61.539
X74.3Y-63.761
X74.3Y-64.639
X74.3Y-66.861
X74.3Y-67.739
X74.3Y-69.961
X74.3Y-70.839
X74.3Y-73.061
X74.3Y-73.939
X74.3Y-76.161
X74.3Y-77.039
X74.3Y-79.261
X74.3Y-80.139
X74.3Y-82.361
X74.3Y-83.239
X74.3Y-85.461
X74.3Y-86.339
X74.3Y-88.561
X74.3Y-89.439
X74.3Y-91.661
X74.3Y-92.539
X74.3Y-94.761
X74.3Y-95.639
X74.3Y-97.861
X74.3Y-98.739
X74.3Y-100.961
X74.3Y-101.839
X74.3Y-104.061
X74.3Y-104.939
X74.3Y-107.161
X74.3Y-108.039
X74.3Y-110.261
X74.3Y-111.139
X74.3Y-113.361
X74.3Y-114.239
X74.3Y-116.461
X74.3Y-117.339
X74.3Y-119.561
X74.3Y-120.439
X74.3Y-122.661
X74.3Y-123.539
X74.3Y-125.761
X74.3Y-126.639
X74.3Y-128.861
X74.3Y-129.739
X74.3Y-131.961
X74.3Y-132.839
X74.3Y-135.061
X74.3Y-135.939
X74.3Y-138.161
X74.3Y-139.039
X74.3Y-141.261
X74.3Y-142.139
X74.3Y-144.361
X74.3Y-145.239
X74.3Y-147.461
X74.3Y-148.339
X74.3Y-150.561
X74.3Y-151.439
X74.65Y-153.6
X74.7Y-155.5
X74.7Y-156.7
X75.1Y-156.1
X75.55Y-27.7
X75.55Y-28.7
X75.55Y-81.25
X75.55Y-133.95
X75.55Y-153.7
X78.45Y-27.7
X78.45Y-28.7
X78.45Y-81.25
X78.45Y-133.95
X78.45Y-153.7
X79.1Y-155.5
X79.1Y-156.7
X79.35Y-152.75
X79.353Y-153.626
X79.5Y-156.1
X79.7Y-29.661
X79.7Y-30.539
X79.7Y-32.761
X79.7Y-33.639
X79.7Y-35.861
X79.7Y-36.739
X79.7Y-38.961
X79.7Y-39.839
X79.7Y-42.061
X79.7Y-42.939
X79.7Y-45.161
X79.7Y-46.039
X79.7Y-48.261
X79.7Y-49.139
X79.7Y-51.361
X79.7Y-52.239
X79.7Y-54.461
X79.7Y-55.339
X79.7Y-57.561
X79.7Y-58.439
X79.7Y-60.661
X79.7Y-61.539
X79.7Y-63.761
X79.7Y-64.639
X79.7Y-66.861
X79.7Y-67.739
X79.7Y-69.961
X79.7Y-70.839
X79.7Y-73.061
X79.7Y-73.939
X79.7Y-76.161
X79.7Y-77.039
X79.7Y-79.261
X79.7Y-80.139
X79.7Y-82.361
X79.7Y-83.239
X79.7Y-85.461
X79.7Y-86.339
X79.7Y-88.561
X79.7Y-89.439
X79.7Y-91.661
X79.7Y-92.539
X79.7Y-94.761
X79.7Y-95.639
X79.7Y-97.861
X79.7Y-98.739
X79.7Y-100.961
X79.7Y-101.839
X79.7Y-104.061
X79.7Y-104.939
X79.7Y-107.161
X79.7Y-108.039
X79.7Y-110.261
X79.7Y-111.139
X79.7Y-113.361
X79.7Y-114.239
X79.7Y-116.461
X79.7Y-117.339
X79.7Y-119.561
X79.7Y-120.439
X79.7Y-122.661
X79.7Y-123.539
X79.7Y-125.761
X79.7Y-126.639
X79.7Y-128.861
X79.7Y-129.739
X79.7Y-131.961
X79.7Y-132.839
X79.7Y-135.061
X79.7Y-135.939
X79.7Y-138.161
X79.7Y-139.039
X79.7Y-141.261
X79.7Y-142.139
X79.7Y-144.361
X79.7Y-145.239
X79.7Y-147.461
X79.7Y-148.339
X79.7Y-150.561
X79.7Y-151.439
X79.9Y-155.5
X79.9Y-157.1
X80.0Y-152.6
X80.05Y-153.65
X80.3Y-157.7
X80.6Y-152.6
X80.679Y-153.44
X81.1Y-153.85
X83.725Y-153.85
X84.126Y-152.57
X84.15Y-153.5
X84.7Y-152.57
X84.7Y-155.53
X84.7Y-157.1
X84.75Y-153.6
X85.1Y-157.7
X85.1Y-29.661
X85.1Y-30.539
X85.1Y-32.761
X85.1Y-33.639
X85.1Y-35.861
X85.1Y-36.739
X85.1Y-38.961
X85.1Y-39.839
X85.1Y-42.061
X85.1Y-42.939
X85.1Y-45.161
X85.1Y-46.039
X85.1Y-48.261
X85.1Y-49.139
X85.1Y-51.361
X85.1Y-52.239
X85.1Y-54.461
X85.1Y-55.339
X85.1Y-57.561
X85.1Y-58.439
X85.1Y-60.661
X85.1Y-61.539
X85.1Y-63.761
X85.1Y-64.639
X85.1Y-66.861
X85.1Y-67.739
X85.1Y-69.961
X85.1Y-70.839
X85.1Y-73.061
X85.1Y-73.939
X85.1Y-76.161
X85.1Y-77.039
X85.1Y-79.261
X85.1Y-80.139
X85.1Y-82.361
X85.1Y-83.239
X85.1Y-85.461
X85.1Y-86.339
X85.1Y-88.561
X85.1Y-89.439
X85.1Y-91.661
X85.1Y-92.539
X85.1Y-94.761
X85.1Y-95.639
X85.1Y-97.861
X85.1Y-98.739
X85.1Y-100.961
X85.1Y-101.839
X85.1Y-104.061
X85.1Y-104.939
X85.1Y-107.161
X85.1Y-108.039
X85.1Y-110.261
X85.1Y-111.139
X85.1Y-113.361
X85.1Y-114.239
X85.1Y-116.461
X85.1Y-117.339
X85.1Y-119.561
X85.1Y-120.439
X85.1Y-122.661
X85.1Y-123.539
X85.1Y-125.761
X85.1Y-126.639
X85.1Y-128.861
X85.1Y-129.739
X85.1Y-131.961
X85.1Y-132.839
X85.1Y-135.061
X85.1Y-135.939
X85.1Y-138.161
X85.1Y-139.039
X85.1Y-141.261
X85.1Y-142.139
X85.1Y-144.361
X85.1Y-145.239
X85.1Y-147.461
X85.1Y-148.339
X85.1Y-150.561
X85.1Y-151.439
X85.45Y-153.6
X85.5Y-156.1
X85.876Y-155.53
X85.9Y-156.7
X86.35Y-27.7
X86.35Y-28.7
X86.35Y-81.25
X86.35Y-133.95
X86.35Y-153.7
X89.25Y-27.7
X89.25Y-28.7
X89.25Y-81.25
X89.25Y-133.95
X89.25Y-153.7
X89.9Y-155.5
X89.9Y-156.7
X90.15Y-152.75
X90.153Y-153.626
X90.3Y-156.1
X90.5Y-29.661
X90.5Y-30.539
X90.5Y-32.761
X90.5Y-33.639
X90.5Y-35.861
X90.5Y-36.739
X90.5Y-38.961
X90.5Y-39.839
X90.5Y-42.061
X90.5Y-42.939
X90.5Y-45.161
X90.5Y-46.039
X90.5Y-48.261
X90.5Y-49.139
X90.5Y-51.361
X90.5Y-52.239
X90.5Y-54.461
X90.5Y-55.339
X90.5Y-57.561
X90.5Y-58.439
X90.5Y-60.661
X90.5Y-61.539
X90.5Y-63.761
X90.5Y-64.639
X90.5Y-66.861
X90.5Y-67.739
X90.5Y-69.961
X90.5Y-70.839
X90.5Y-73.061
X90.5Y-73.939
X90.5Y-76.161
X90.5Y-77.039
X90.5Y-79.261
X90.5Y-80.139
X90.5Y-82.361
X90.5Y-83.239
X90.5Y-85.461
X90.5Y-86.339
X90.5Y-88.561
X90.5Y-89.439
X90.5Y-91.661
X90.5Y-92.539
X90.5Y-94.761
X90.5Y-95.639
X90.5Y-97.861
X90.5Y-98.739
X90.5Y-100.961
X90.5Y-101.839
X90.5Y-104.061
X90.5Y-104.939
X90.5Y-107.161
X90.5Y-108.039
X90.5Y-110.261
X90.5Y-111.139
X90.5Y-113.361
X90.5Y-114.239
X90.5Y-116.461
X90.5Y-117.339
X90.5Y-119.561
X90.5Y-120.439
X90.5Y-122.661
X90.5Y-123.539
X90.5Y-125.761
X90.5Y-126.639
X90.5Y-128.861
X90.5Y-129.739
X90.5Y-131.961
X90.5Y-132.839
X90.5Y-135.061
X90.5Y-135.939
X90.5Y-138.161
X90.5Y-139.039
X90.5Y-141.261
X90.5Y-142.139
X90.5Y-144.361
X90.5Y-145.239
X90.5Y-147.461
X90.5Y-148.339
X90.5Y-150.561
X90.5Y-151.439
X90.8Y-152.6
X90.85Y-153.65
X91.1Y-157.7
X91.4Y-152.6
X91.479Y-153.44
X91.9Y-153.85
X94.525Y-153.85
X94.926Y-152.57
X94.95Y-153.5
X95.5Y-152.57
X95.55Y-153.6
X95.9Y-157.7
X95.9Y-29.661
X95.9Y-30.539
X95.9Y-32.761
X95.9Y-33.639
X95.9Y-35.861
X95.9Y-36.739
X95.9Y-38.961
X95.9Y-39.839
X95.9Y-42.061
X95.9Y-42.939
X95.9Y-45.161
X95.9Y-46.039
X95.9Y-48.261
X95.9Y-49.139
X95.9Y-51.361
X95.9Y-52.239
X95.9Y-54.461
X95.9Y-55.339
X95.9Y-57.561
X95.9Y-58.439
X95.9Y-60.661
X95.9Y-61.539
X95.9Y-63.761
X95.9Y-64.639
X95.9Y-66.861
X95.9Y-67.739
X95.9Y-69.961
X95.9Y-70.839
X95.9Y-73.061
X95.9Y-73.939
X95.9Y-76.161
X95.9Y-77.039
X95.9Y-79.261
X95.9Y-80.139
X95.9Y-82.361
X95.9Y-83.239
X95.9Y-85.461
X95.9Y-86.339
X95.9Y-88.561
X95.9Y-89.439
X95.9Y-91.661
X95.9Y-92.539
X95.9Y-94.761
X95.9Y-95.639
X95.9Y-97.861
X95.9Y-98.739
X95.9Y-100.961
X95.9Y-101.839
X95.9Y-104.061
X95.9Y-104.939
X95.9Y-107.161
X95.9Y-108.039
X95.9Y-110.261
X95.9Y-111.139
X95.9Y-113.361
X95.9Y-114.239
X95.9Y-116.461
X95.9Y-117.339
X95.9Y-119.561
X95.9Y-120.439
X95.9Y-122.661
X95.9Y-123.539
X95.9Y-125.761
X95.9Y-126.639
X95.9Y-128.861
X95.9Y-129.739
X95.9Y-131.961
X95.9Y-132.839
X95.9Y-135.061
X95.9Y-135.939
X95.9Y-138.161
X95.9Y-139.039
X95.9Y-141.261
X95.9Y-142.139
X95.9Y-144.361
X95.9Y-145.239
X95.9Y-147.461
X95.9Y-148.339
X95.9Y-150.561
X95.9Y-151.439
X96.25Y-153.6
X97.0Y-156.1
X97.15Y-27.7
X97.15Y-28.7
X97.15Y-81.25
X97.15Y-133.95
X97.15Y-153.7
X100.05Y-27.7
X100.05Y-28.7
X100.05Y-81.25
X100.05Y-133.95
X100.05Y-153.7
X100.7Y-155.5
X100.7Y-156.7
X100.95Y-152.75
X100.953Y-153.626
X101.1Y-156.1
X101.3Y-29.661
X101.3Y-30.539
X101.3Y-32.761
X101.3Y-33.639
X101.3Y-35.861
X101.3Y-36.739
X101.3Y-38.961
X101.3Y-39.839
X101.3Y-42.061
X101.3Y-42.939
X101.3Y-45.161
X101.3Y-46.039
X101.3Y-48.261
X101.3Y-49.139
X101.3Y-51.361
X101.3Y-52.239
X101.3Y-54.461
X101.3Y-55.339
X101.3Y-57.561
X101.3Y-58.439
X101.3Y-60.661
X101.3Y-61.539
X101.3Y-63.761
X101.3Y-64.639
X101.3Y-66.861
X101.3Y-67.739
X101.3Y-69.961
X101.3Y-70.839
X101.3Y-73.061
X101.3Y-73.939
X101.3Y-76.161
X101.3Y-77.039
X101.3Y-79.261
X101.3Y-80.139
X101.3Y-82.361
X101.3Y-83.239
X101.3Y-85.461
X101.3Y-86.339
X101.3Y-88.561
X101.3Y-89.439
X101.3Y-91.661
X101.3Y-92.539
X101.3Y-94.761
X101.3Y-95.639
X101.3Y-97.861
X101.3Y-98.739
X101.3Y-100.961
X101.3Y-101.839
X101.3Y-104.061
X101.3Y-104.939
X101.3Y-107.161
X101.3Y-108.039
X101.3Y-110.261
X101.3Y-111.139
X101.3Y-113.361
X101.3Y-114.239
X101.3Y-116.461
X101.3Y-117.339
X101.3Y-119.561
X101.3Y-120.439
X101.3Y-122.661
X101.3Y-123.539
X101.3Y-125.761
X101.3Y-126.639
X101.3Y-128.861
X101.3Y-129.739
X101.3Y-131.961
X101.3Y-132.839
X101.3Y-135.061
X101.3Y-135.939
X101.3Y-138.161
X101.3Y-139.039
X101.3Y-141.261
X101.3Y-142.139
X101.3Y-144.361
X101.3Y-145.239
X101.3Y-147.461
X101.3Y-148.339
X101.3Y-150.561
X101.3Y-151.439
X101.5Y-155.5
X101.5Y-157.1
X101.6Y-152.6
X101.65Y-153.65
X101.9Y-157.7
X102.2Y-152.6
X102.279Y-153.44
X102.7Y-153.85
X103.01Y-156.1
X105.325Y-153.85
X105.51Y-156.7
X105.726Y-152.57
X105.75Y-153.5
X106.3Y-152.57
X106.3Y-155.53
X106.3Y-157.1
X106.35Y-153.6
X106.7Y-157.7
X106.7Y-29.661
X106.7Y-30.539
X106.7Y-32.761
X106.7Y-33.639
X106.7Y-35.861
X106.7Y-36.739
X106.7Y-38.961
X106.7Y-39.839
X106.7Y-42.061
X106.7Y-42.939
X106.7Y-45.161
X106.7Y-46.039
X106.7Y-48.261
X106.7Y-49.139
X106.7Y-51.361
X106.7Y-52.239
X106.7Y-54.461
X106.7Y-55.339
X106.7Y-57.561
X106.7Y-58.439
X106.7Y-60.661
X106.7Y-61.539
X106.7Y-63.761
X106.7Y-64.639
X106.7Y-66.861
X106.7Y-67.739
X106.7Y-69.961
X106.7Y-70.839
X106.7Y-73.061
X106.7Y-73.939
X106.7Y-76.161
X106.7Y-77.039
X106.7Y-79.261
X106.7Y-80.139
X106.7Y-82.361
X106.7Y-83.239
X106.7Y-85.461
X106.7Y-86.339
X106.7Y-88.561
X106.7Y-89.439
X106.7Y-91.661
X106.7Y-92.539
X106.7Y-94.761
X106.7Y-95.639
X106.7Y-97.861
X106.7Y-98.739
X106.7Y-100.961
X106.7Y-101.839
X106.7Y-104.061
X106.7Y-104.939
X106.7Y-107.161
X106.7Y-108.039
X106.7Y-110.261
X106.7Y-111.139
X106.7Y-113.361
X106.7Y-114.239
X106.7Y-116.461
X106.7Y-117.339
X106.7Y-119.561
X106.7Y-120.439
X106.7Y-122.661
X106.7Y-123.539
X106.7Y-125.761
X106.7Y-126.639
X106.7Y-128.861
X106.7Y-129.739
X106.7Y-131.961
X106.7Y-132.839
X106.7Y-135.061
X106.7Y-135.939
X106.7Y-138.161
X106.7Y-139.039
X106.7Y-141.261
X106.7Y-142.139
X106.7Y-144.361
X106.7Y-145.239
X106.7Y-147.461
X106.7Y-148.339
X106.7Y-150.561
X106.7Y-151.439
X107.05Y-153.6
X107.1Y-155.53
X107.1Y-156.7
X107.5Y-156.1
X107.95Y-27.7
X107.95Y-28.7
X107.95Y-81.25
X107.95Y-133.95
X107.95Y-153.7
X108.11Y-157.1
X110.61Y-157.7
X110.85Y-27.7
X110.85Y-28.7
X110.85Y-81.25
X110.85Y-133.95
X110.85Y-153.7
X111.5Y-155.5
X111.5Y-156.7
X111.75Y-152.75
X111.753Y-153.626
X111.9Y-156.1
X112.1Y-29.661
X112.1Y-30.539
X112.1Y-32.761
X112.1Y-33.639
X112.1Y-35.861
X112.1Y-36.739
X112.1Y-38.961
X112.1Y-39.839
X112.1Y-42.061
X112.1Y-42.939
X112.1Y-45.161
X112.1Y-46.039
X112.1Y-48.261
X112.1Y-49.139
X112.1Y-51.361
X112.1Y-52.239
X112.1Y-54.461
X112.1Y-55.339
X112.1Y-57.561
X112.1Y-58.439
X112.1Y-60.661
X112.1Y-61.539
X112.1Y-63.761
X112.1Y-64.639
X112.1Y-66.861
X112.1Y-67.739
X112.1Y-69.961
X112.1Y-70.839
X112.1Y-73.061
X112.1Y-73.939
X112.1Y-76.161
X112.1Y-77.039
X112.1Y-79.261
X112.1Y-80.139
X112.1Y-82.361
X112.1Y-83.239
X112.1Y-85.461
X112.1Y-86.339
X112.1Y-88.561
X112.1Y-89.439
X112.1Y-91.661
X112.1Y-92.539
X112.1Y-94.761
X112.1Y-95.639
X112.1Y-97.861
X112.1Y-98.739
X112.1Y-100.961
X112.1Y-101.839
X112.1Y-104.061
X112.1Y-104.939
X112.1Y-107.161
X112.1Y-108.039
X112.1Y-110.261
X112.1Y-111.139
X112.1Y-113.361
X112.1Y-114.239
X112.1Y-116.461
X112.1Y-117.339
X112.1Y-119.561
X112.1Y-120.439
X112.1Y-122.661
X112.1Y-123.539
X112.1Y-125.761
X112.1Y-126.639
X112.1Y-128.861
X112.1Y-129.739
X112.1Y-131.961
X112.1Y-132.839
X112.1Y-135.061
X112.1Y-135.939
X112.1Y-138.161
X112.1Y-139.039
X112.1Y-141.261
X112.1Y-142.139
X112.1Y-144.361
X112.1Y-145.239
X112.1Y-147.461
X112.1Y-148.339
X112.1Y-150.561
X112.1Y-151.439
X112.3Y-155.5
X112.3Y-157.1
X112.4Y-152.6
X112.45Y-153.65
X112.7Y-157.7
X113.0Y-152.6
X113.079Y-153.44
X113.5Y-153.85
X116.125Y-153.85
X116.526Y-152.57
X116.55Y-153.5
X117.1Y-152.57
X117.1Y-155.53
X117.1Y-157.1
X117.15Y-153.6
X117.5Y-157.7
X117.5Y-29.661
X117.5Y-30.539
X117.5Y-32.761
X117.5Y-33.639
X117.5Y-35.861
X117.5Y-36.739
X117.5Y-38.961
X117.5Y-39.839
X117.5Y-42.061
X117.5Y-42.939
X117.5Y-45.161
X117.5Y-46.039
X117.5Y-48.261
X117.5Y-49.139
X117.5Y-51.361
X117.5Y-52.239
X117.5Y-54.461
X117.5Y-55.339
X117.5Y-57.561
X117.5Y-58.439
X117.5Y-60.661
X117.5Y-61.539
X117.5Y-63.761
X117.5Y-64.639
X117.5Y-66.861
X117.5Y-67.739
X117.5Y-69.961
X117.5Y-70.839
X117.5Y-73.061
X117.5Y-73.939
X117.5Y-76.161
X117.5Y-77.039
X117.5Y-79.261
X117.5Y-80.139
X117.5Y-82.361
X117.5Y-83.239
X117.5Y-85.461
X117.5Y-86.339
X117.5Y-88.561
X117.5Y-89.439
X117.5Y-91.661
X117.5Y-92.539
X117.5Y-94.761
X117.5Y-95.639
X117.5Y-97.861
X117.5Y-98.739
X117.5Y-100.961
X117.5Y-101.839
X117.5Y-104.061
X117.5Y-104.939
X117.5Y-107.161
X117.5Y-108.039
X117.5Y-110.261
X117.5Y-111.139
X117.5Y-113.361
X117.5Y-114.239
X117.5Y-116.461
X117.5Y-117.339
X117.5Y-119.561
X117.5Y-120.439
X117.5Y-122.661
X117.5Y-123.539
X117.5Y-125.761
X117.5Y-126.639
X117.5Y-128.861
X117.5Y-129.739
X117.5Y-131.961
X117.5Y-132.839
X117.5Y-135.061
X117.5Y-135.939
X117.5Y-138.161
X117.5Y-139.039
X117.5Y-141.261
X117.5Y-142.139
X117.5Y-144.361
X117.5Y-145.239
X117.5Y-147.461
X117.5Y-148.339
X117.5Y-150.561
X117.5Y-151.439
X117.85Y-153.6
X117.9Y-155.5
X117.9Y-156.7
X118.3Y-156.1
X118.75Y-27.7
X118.75Y-28.7
X118.75Y-81.25
X118.75Y-133.95
X118.75Y-153.7
X121.65Y-27.7
X121.65Y-28.7
X121.65Y-81.25
X121.65Y-133.95
X121.65Y-153.7
X122.2Y-155.5
X122.2Y-156.7
X122.55Y-152.75
X122.553Y-153.626
X122.6Y-156.1
X122.9Y-29.661
X122.9Y-30.539
X122.9Y-32.761
X122.9Y-33.639
X122.9Y-35.861
X122.9Y-36.739
X122.9Y-38.961
X122.9Y-39.839
X122.9Y-42.061
X122.9Y-42.939
X122.9Y-45.161
X122.9Y-46.039
X122.9Y-48.261
X122.9Y-49.139
X122.9Y-51.361
X122.9Y-52.239
X122.9Y-54.461
X122.9Y-55.339
X122.9Y-57.561
X122.9Y-58.439
X122.9Y-60.661
X122.9Y-61.539
X122.9Y-63.761
X122.9Y-64.639
X122.9Y-66.861
X122.9Y-67.739
X122.9Y-69.961
X122.9Y-70.839
X122.9Y-73.061
X122.9Y-73.939
X122.9Y-76.161
X122.9Y-77.039
X122.9Y-79.261
X122.9Y-80.139
X122.9Y-82.361
X122.9Y-83.239
X122.9Y-85.461
X122.9Y-86.339
X122.9Y-88.561
X122.9Y-89.439
X122.9Y-91.661
X122.9Y-92.539
X122.9Y-94.761
X122.9Y-95.639
X122.9Y-97.861
X122.9Y-98.739
X122.9Y-100.961
X122.9Y-101.839
X122.9Y-104.061
X122.9Y-104.939
X122.9Y-107.161
X122.9Y-108.039
X122.9Y-110.261
X122.9Y-111.139
X122.9Y-113.361
X122.9Y-114.239
X122.9Y-116.461
X122.9Y-117.339
X122.9Y-119.561
X122.9Y-120.439
X122.9Y-122.661
X122.9Y-123.539
X122.9Y-125.761
X122.9Y-126.639
X122.9Y-128.861
X122.9Y-129.739
X122.9Y-131.961
X122.9Y-132.839
X122.9Y-135.061
X122.9Y-135.939
X122.9Y-138.161
X122.9Y-139.039
X122.9Y-141.261
X122.9Y-142.139
X122.9Y-144.361
X122.9Y-145.239
X122.9Y-147.461
X122.9Y-148.339
X122.9Y-150.561
X122.9Y-151.439
X123.0Y-155.5
X123.0Y-157.1
X123.2Y-152.6
X123.25Y-153.65
X123.5Y-157.7
X123.8Y-152.6
X123.879Y-153.44
X124.3Y-153.85
X126.925Y-153.85
X127.326Y-152.57
X127.35Y-153.5
X127.9Y-152.57
X127.9Y-155.53
X127.9Y-157.1
X127.95Y-153.6
X128.3Y-157.7
X128.3Y-29.661
X128.3Y-30.539
X128.3Y-32.761
X128.3Y-33.639
X128.3Y-35.861
X128.3Y-36.739
X128.3Y-38.961
X128.3Y-39.839
X128.3Y-42.061
X128.3Y-42.939
X128.3Y-45.161
X128.3Y-46.039
X128.3Y-48.261
X128.3Y-49.139
X128.3Y-51.361
X128.3Y-52.239
X128.3Y-54.461
X128.3Y-55.339
X128.3Y-57.561
X128.3Y-58.439
X128.3Y-60.661
X128.3Y-61.539
X128.3Y-63.761
X128.3Y-64.639
X128.3Y-66.861
X128.3Y-67.739
X128.3Y-69.961
X128.3Y-70.839
X128.3Y-73.061
X128.3Y-73.939
X128.3Y-76.161
X128.3Y-77.039
X128.3Y-79.261
X128.3Y-80.139
X128.3Y-82.361
X128.3Y-83.239
X128.3Y-85.461
X128.3Y-86.339
X128.3Y-88.561
X128.3Y-89.439
X128.3Y-91.661
X128.3Y-92.539
X128.3Y-94.761
X128.3Y-95.639
X128.3Y-97.861
X128.3Y-98.739
X128.3Y-100.961
X128.3Y-101.839
X128.3Y-104.061
X128.3Y-104.939
X128.3Y-107.161
X128.3Y-108.039
X128.3Y-110.261
X128.3Y-111.139
X128.3Y-113.361
X128.3Y-114.239
X128.3Y-116.461
X128.3Y-117.339
X128.3Y-119.561
X128.3Y-120.439
X128.3Y-122.661
X128.3Y-123.539
X128.3Y-125.761
X128.3Y-126.639
X128.3Y-128.861
X128.3Y-129.739
X128.3Y-131.961
X128.3Y-132.839
X128.3Y-135.061
X128.3Y-135.939
X128.3Y-138.161
X128.3Y-139.039
X128.3Y-141.261
X128.3Y-142.139
X128.3Y-144.361
X128.3Y-145.239
X128.3Y-147.461
X128.3Y-148.339
X128.3Y-150.561
X128.3Y-151.439
X128.65Y-153.6
X128.7Y-155.53
X128.7Y-156.7
X129.1Y-156.1
X129.55Y-27.7
X129.55Y-28.7
X129.55Y-81.25
X129.55Y-133.95
X129.55Y-153.7
X130.9Y-157.7
X131.4Y-156.1
X132.45Y-27.7
X132.45Y-28.7
X132.45Y-81.25
X132.45Y-133.95
X132.45Y-153.7
X133.35Y-152.75
X133.353Y-153.626
X133.7Y-29.661
X133.7Y-30.539
X133.7Y-32.761
X133.7Y-33.639
X133.7Y-35.861
X133.7Y-36.739
X133.7Y-38.961
X133.7Y-39.839
X133.7Y-42.061
X133.7Y-42.939
X133.7Y-45.161
X133.7Y-46.039
X133.7Y-48.261
X133.7Y-49.139
X133.7Y-51.361
X133.7Y-52.239
X133.7Y-54.461
X133.7Y-55.339
X133.7Y-57.561
X133.7Y-58.439
X133.7Y-60.661
X133.7Y-61.539
X133.7Y-63.761
X133.7Y-64.639
X133.7Y-66.861
X133.7Y-67.739
X133.7Y-69.961
X133.7Y-70.839
X133.7Y-73.061
X133.7Y-73.939
X133.7Y-76.161
X133.7Y-77.039
X133.7Y-79.261
X133.7Y-80.139
X133.7Y-82.361
X133.7Y-83.239
X133.7Y-85.461
X133.7Y-86.339
X133.7Y-88.561
X133.7Y-89.439
X133.7Y-91.661
X133.7Y-92.539
X133.7Y-94.761
X133.7Y-95.639
X133.7Y-97.861
X133.7Y-98.739
X133.7Y-100.961
X133.7Y-101.839
X133.7Y-104.061
X133.7Y-104.939
X133.7Y-107.161
X133.7Y-108.039
X133.7Y-110.261
X133.7Y-111.139
X133.7Y-113.361
X133.7Y-114.239
X133.7Y-116.461
X133.7Y-117.339
X133.7Y-119.561
X133.7Y-120.439
X133.7Y-122.661
X133.7Y-123.539
X133.7Y-125.761
X133.7Y-126.639
X133.7Y-128.861
X133.7Y-129.739
X133.7Y-131.961
X133.7Y-132.839
X133.7Y-135.061
X133.7Y-135.939
X133.7Y-138.161
X133.7Y-139.039
X133.7Y-141.261
X133.7Y-142.139
X133.7Y-144.361
X133.7Y-145.239
X133.7Y-147.461
X133.7Y-148.339
X133.7Y-150.561
X133.7Y-151.439
X134.0Y-152.6
X134.05Y-153.65
X134.6Y-152.6
X134.679Y-153.44
X135.1Y-153.85
T2
X62.59Y-160.0
X65.13Y-160.0
X67.67Y-160.0
X70.21Y-160.0
X103.0Y-160.0
X105.54Y-160.0
X108.08Y-160.0
X110.62Y-160.0
M30
