%TF.GenerationSoftware,KiCad,Pcbnew,9.0.3*%
%TF.CreationDate,2025-08-18T15:11:29-04:00*%
%TF.ProjectId,flowstick_led_strip_panel,666c6f77-7374-4696-936b-5f6c65645f73,rev?*%
%TF.SameCoordinates,Original*%
%TF.FileFunction,Legend,Bot*%
%TF.FilePolarity,Positive*%
%FSLAX46Y46*%
G04 Gerber Fmt 4.6, Leading zero omitted, Abs format (unit mm)*
G04 Created by KiCad (PCBNEW 9.0.3) date 2025-08-18 15:11:29*
%MOMM*%
%LPD*%
G01*
G04 APERTURE LIST*
%ADD10C,0.125000*%
%ADD11C,0.100000*%
%ADD12C,0.250000*%
%ADD13C,0.120000*%
G04 APERTURE END LIST*
D10*
X117043880Y-147538095D02*
X117710547Y-147538095D01*
X117520071Y-147538095D02*
X117615309Y-147490476D01*
X117615309Y-147490476D02*
X117662928Y-147442857D01*
X117662928Y-147442857D02*
X117710547Y-147347619D01*
X117710547Y-147347619D02*
X117710547Y-147252381D01*
X117091500Y-146538095D02*
X117043880Y-146633333D01*
X117043880Y-146633333D02*
X117043880Y-146823809D01*
X117043880Y-146823809D02*
X117091500Y-146919047D01*
X117091500Y-146919047D02*
X117186738Y-146966666D01*
X117186738Y-146966666D02*
X117567690Y-146966666D01*
X117567690Y-146966666D02*
X117662928Y-146919047D01*
X117662928Y-146919047D02*
X117710547Y-146823809D01*
X117710547Y-146823809D02*
X117710547Y-146633333D01*
X117710547Y-146633333D02*
X117662928Y-146538095D01*
X117662928Y-146538095D02*
X117567690Y-146490476D01*
X117567690Y-146490476D02*
X117472452Y-146490476D01*
X117472452Y-146490476D02*
X117377214Y-146966666D01*
X117710547Y-146157142D02*
X117043880Y-145919047D01*
X117043880Y-145919047D02*
X117710547Y-145680952D01*
X117948642Y-144585713D02*
X117996261Y-144538094D01*
X117996261Y-144538094D02*
X118043880Y-144442856D01*
X118043880Y-144442856D02*
X118043880Y-144204761D01*
X118043880Y-144204761D02*
X117996261Y-144109523D01*
X117996261Y-144109523D02*
X117948642Y-144061904D01*
X117948642Y-144061904D02*
X117853404Y-144014285D01*
X117853404Y-144014285D02*
X117758166Y-144014285D01*
X117758166Y-144014285D02*
X117615309Y-144061904D01*
X117615309Y-144061904D02*
X117043880Y-144633332D01*
X117043880Y-144633332D02*
X117043880Y-144014285D01*
D11*
X123700000Y-152500000D02*
X123700000Y-152900000D01*
X118900000Y-152400000D02*
G75*
G02*
X118500000Y-152400000I-200000J0D01*
G01*
X118500000Y-152400000D02*
G75*
G02*
X118900000Y-152400000I200000J0D01*
G01*
X121850000Y-152400000D02*
G75*
G02*
X121450000Y-152400000I-200000J0D01*
G01*
X121450000Y-152400000D02*
G75*
G02*
X121850000Y-152400000I200000J0D01*
G01*
X123600000Y-152100000D02*
X123800000Y-152100000D01*
D12*
X116587761Y-150080952D02*
X116587761Y-151033333D01*
X116587761Y-151033333D02*
X118587761Y-151033333D01*
D11*
X116700000Y-152500000D02*
X116700000Y-152900000D01*
X123500000Y-152300000D02*
X123900000Y-152300000D01*
X121650000Y-152900000D02*
X121650000Y-152600000D01*
X117600000Y-152900000D02*
X117850000Y-152500000D01*
X118700000Y-152900000D02*
X118700000Y-152600000D01*
X123400000Y-152500000D02*
X124000000Y-152500000D01*
X116500000Y-152300000D02*
X116900000Y-152300000D01*
X116600000Y-152100000D02*
X116800000Y-152100000D01*
X122300000Y-152700000D02*
X122550000Y-152300000D01*
X122550000Y-152300000D02*
X122800000Y-152700000D01*
D10*
X123356119Y-144061904D02*
X122689452Y-144061904D01*
X122879928Y-144061904D02*
X122784690Y-144109523D01*
X122784690Y-144109523D02*
X122737071Y-144157142D01*
X122737071Y-144157142D02*
X122689452Y-144252380D01*
X122689452Y-144252380D02*
X122689452Y-144347618D01*
X123308500Y-145061904D02*
X123356119Y-144966666D01*
X123356119Y-144966666D02*
X123356119Y-144776190D01*
X123356119Y-144776190D02*
X123308500Y-144680952D01*
X123308500Y-144680952D02*
X123213261Y-144633333D01*
X123213261Y-144633333D02*
X122832309Y-144633333D01*
X122832309Y-144633333D02*
X122737071Y-144680952D01*
X122737071Y-144680952D02*
X122689452Y-144776190D01*
X122689452Y-144776190D02*
X122689452Y-144966666D01*
X122689452Y-144966666D02*
X122737071Y-145061904D01*
X122737071Y-145061904D02*
X122832309Y-145109523D01*
X122832309Y-145109523D02*
X122927547Y-145109523D01*
X122927547Y-145109523D02*
X123022785Y-144633333D01*
X122689452Y-145442857D02*
X123356119Y-145680952D01*
X123356119Y-145680952D02*
X122689452Y-145919047D01*
X122451357Y-147014286D02*
X122403738Y-147061905D01*
X122403738Y-147061905D02*
X122356119Y-147157143D01*
X122356119Y-147157143D02*
X122356119Y-147395238D01*
X122356119Y-147395238D02*
X122403738Y-147490476D01*
X122403738Y-147490476D02*
X122451357Y-147538095D01*
X122451357Y-147538095D02*
X122546595Y-147585714D01*
X122546595Y-147585714D02*
X122641833Y-147585714D01*
X122641833Y-147585714D02*
X122784690Y-147538095D01*
X122784690Y-147538095D02*
X123356119Y-146966667D01*
X123356119Y-146966667D02*
X123356119Y-147585714D01*
D11*
X117850000Y-152500000D02*
X118100000Y-152900000D01*
D12*
X123812238Y-151319047D02*
X122859857Y-150652380D01*
X123812238Y-150176190D02*
X121812238Y-150176190D01*
X121812238Y-150176190D02*
X121812238Y-150938095D01*
X121812238Y-150938095D02*
X121907476Y-151128571D01*
X121907476Y-151128571D02*
X122002714Y-151223809D01*
X122002714Y-151223809D02*
X122193190Y-151319047D01*
X122193190Y-151319047D02*
X122478904Y-151319047D01*
X122478904Y-151319047D02*
X122669380Y-151223809D01*
X122669380Y-151223809D02*
X122764619Y-151128571D01*
X122764619Y-151128571D02*
X122859857Y-150938095D01*
X122859857Y-150938095D02*
X122859857Y-150176190D01*
D11*
X116400000Y-152500000D02*
X117000000Y-152500000D01*
X112800000Y-152100000D02*
X113000000Y-152100000D01*
X105600000Y-152500000D02*
X106200000Y-152500000D01*
X111050000Y-152400000D02*
G75*
G02*
X110650000Y-152400000I-200000J0D01*
G01*
X110650000Y-152400000D02*
G75*
G02*
X111050000Y-152400000I200000J0D01*
G01*
X111500000Y-152700000D02*
X111750000Y-152300000D01*
X105900000Y-152500000D02*
X105900000Y-152900000D01*
X112700000Y-152300000D02*
X113100000Y-152300000D01*
X107900000Y-152900000D02*
X107900000Y-152600000D01*
X110850000Y-152900000D02*
X110850000Y-152600000D01*
X106800000Y-152900000D02*
X107050000Y-152500000D01*
X112600000Y-152500000D02*
X113200000Y-152500000D01*
X105700000Y-152300000D02*
X106100000Y-152300000D01*
X108100000Y-152400000D02*
G75*
G02*
X107700000Y-152400000I-200000J0D01*
G01*
X107700000Y-152400000D02*
G75*
G02*
X108100000Y-152400000I200000J0D01*
G01*
X105800000Y-152100000D02*
X106000000Y-152100000D01*
X112900000Y-152500000D02*
X112900000Y-152900000D01*
D10*
X106243880Y-147538095D02*
X106910547Y-147538095D01*
X106720071Y-147538095D02*
X106815309Y-147490476D01*
X106815309Y-147490476D02*
X106862928Y-147442857D01*
X106862928Y-147442857D02*
X106910547Y-147347619D01*
X106910547Y-147347619D02*
X106910547Y-147252381D01*
X106291500Y-146538095D02*
X106243880Y-146633333D01*
X106243880Y-146633333D02*
X106243880Y-146823809D01*
X106243880Y-146823809D02*
X106291500Y-146919047D01*
X106291500Y-146919047D02*
X106386738Y-146966666D01*
X106386738Y-146966666D02*
X106767690Y-146966666D01*
X106767690Y-146966666D02*
X106862928Y-146919047D01*
X106862928Y-146919047D02*
X106910547Y-146823809D01*
X106910547Y-146823809D02*
X106910547Y-146633333D01*
X106910547Y-146633333D02*
X106862928Y-146538095D01*
X106862928Y-146538095D02*
X106767690Y-146490476D01*
X106767690Y-146490476D02*
X106672452Y-146490476D01*
X106672452Y-146490476D02*
X106577214Y-146966666D01*
X106910547Y-146157142D02*
X106243880Y-145919047D01*
X106243880Y-145919047D02*
X106910547Y-145680952D01*
X107148642Y-144585713D02*
X107196261Y-144538094D01*
X107196261Y-144538094D02*
X107243880Y-144442856D01*
X107243880Y-144442856D02*
X107243880Y-144204761D01*
X107243880Y-144204761D02*
X107196261Y-144109523D01*
X107196261Y-144109523D02*
X107148642Y-144061904D01*
X107148642Y-144061904D02*
X107053404Y-144014285D01*
X107053404Y-144014285D02*
X106958166Y-144014285D01*
X106958166Y-144014285D02*
X106815309Y-144061904D01*
X106815309Y-144061904D02*
X106243880Y-144633332D01*
X106243880Y-144633332D02*
X106243880Y-144014285D01*
D11*
X111750000Y-152300000D02*
X112000000Y-152700000D01*
D10*
X112556119Y-144061904D02*
X111889452Y-144061904D01*
X112079928Y-144061904D02*
X111984690Y-144109523D01*
X111984690Y-144109523D02*
X111937071Y-144157142D01*
X111937071Y-144157142D02*
X111889452Y-144252380D01*
X111889452Y-144252380D02*
X111889452Y-144347618D01*
X112508500Y-145061904D02*
X112556119Y-144966666D01*
X112556119Y-144966666D02*
X112556119Y-144776190D01*
X112556119Y-144776190D02*
X112508500Y-144680952D01*
X112508500Y-144680952D02*
X112413261Y-144633333D01*
X112413261Y-144633333D02*
X112032309Y-144633333D01*
X112032309Y-144633333D02*
X111937071Y-144680952D01*
X111937071Y-144680952D02*
X111889452Y-144776190D01*
X111889452Y-144776190D02*
X111889452Y-144966666D01*
X111889452Y-144966666D02*
X111937071Y-145061904D01*
X111937071Y-145061904D02*
X112032309Y-145109523D01*
X112032309Y-145109523D02*
X112127547Y-145109523D01*
X112127547Y-145109523D02*
X112222785Y-144633333D01*
X111889452Y-145442857D02*
X112556119Y-145680952D01*
X112556119Y-145680952D02*
X111889452Y-145919047D01*
X111651357Y-147014286D02*
X111603738Y-147061905D01*
X111603738Y-147061905D02*
X111556119Y-147157143D01*
X111556119Y-147157143D02*
X111556119Y-147395238D01*
X111556119Y-147395238D02*
X111603738Y-147490476D01*
X111603738Y-147490476D02*
X111651357Y-147538095D01*
X111651357Y-147538095D02*
X111746595Y-147585714D01*
X111746595Y-147585714D02*
X111841833Y-147585714D01*
X111841833Y-147585714D02*
X111984690Y-147538095D01*
X111984690Y-147538095D02*
X112556119Y-146966667D01*
X112556119Y-146966667D02*
X112556119Y-147585714D01*
D11*
X107050000Y-152500000D02*
X107300000Y-152900000D01*
D12*
X113012238Y-151319047D02*
X112059857Y-150652380D01*
X113012238Y-150176190D02*
X111012238Y-150176190D01*
X111012238Y-150176190D02*
X111012238Y-150938095D01*
X111012238Y-150938095D02*
X111107476Y-151128571D01*
X111107476Y-151128571D02*
X111202714Y-151223809D01*
X111202714Y-151223809D02*
X111393190Y-151319047D01*
X111393190Y-151319047D02*
X111678904Y-151319047D01*
X111678904Y-151319047D02*
X111869380Y-151223809D01*
X111869380Y-151223809D02*
X111964619Y-151128571D01*
X111964619Y-151128571D02*
X112059857Y-150938095D01*
X112059857Y-150938095D02*
X112059857Y-150176190D01*
X105787761Y-150080952D02*
X105787761Y-151033333D01*
X105787761Y-151033333D02*
X107787761Y-151033333D01*
D11*
X101800000Y-152500000D02*
X102400000Y-152500000D01*
X94800000Y-152500000D02*
X95400000Y-152500000D01*
D10*
X101756119Y-144061904D02*
X101089452Y-144061904D01*
X101279928Y-144061904D02*
X101184690Y-144109523D01*
X101184690Y-144109523D02*
X101137071Y-144157142D01*
X101137071Y-144157142D02*
X101089452Y-144252380D01*
X101089452Y-144252380D02*
X101089452Y-144347618D01*
X101708500Y-145061904D02*
X101756119Y-144966666D01*
X101756119Y-144966666D02*
X101756119Y-144776190D01*
X101756119Y-144776190D02*
X101708500Y-144680952D01*
X101708500Y-144680952D02*
X101613261Y-144633333D01*
X101613261Y-144633333D02*
X101232309Y-144633333D01*
X101232309Y-144633333D02*
X101137071Y-144680952D01*
X101137071Y-144680952D02*
X101089452Y-144776190D01*
X101089452Y-144776190D02*
X101089452Y-144966666D01*
X101089452Y-144966666D02*
X101137071Y-145061904D01*
X101137071Y-145061904D02*
X101232309Y-145109523D01*
X101232309Y-145109523D02*
X101327547Y-145109523D01*
X101327547Y-145109523D02*
X101422785Y-144633333D01*
X101089452Y-145442857D02*
X101756119Y-145680952D01*
X101756119Y-145680952D02*
X101089452Y-145919047D01*
X100851357Y-147014286D02*
X100803738Y-147061905D01*
X100803738Y-147061905D02*
X100756119Y-147157143D01*
X100756119Y-147157143D02*
X100756119Y-147395238D01*
X100756119Y-147395238D02*
X100803738Y-147490476D01*
X100803738Y-147490476D02*
X100851357Y-147538095D01*
X100851357Y-147538095D02*
X100946595Y-147585714D01*
X100946595Y-147585714D02*
X101041833Y-147585714D01*
X101041833Y-147585714D02*
X101184690Y-147538095D01*
X101184690Y-147538095D02*
X101756119Y-146966667D01*
X101756119Y-146966667D02*
X101756119Y-147585714D01*
D11*
X100250000Y-152400000D02*
G75*
G02*
X99850000Y-152400000I-200000J0D01*
G01*
X99850000Y-152400000D02*
G75*
G02*
X100250000Y-152400000I200000J0D01*
G01*
X97300000Y-152400000D02*
G75*
G02*
X96900000Y-152400000I-200000J0D01*
G01*
X96900000Y-152400000D02*
G75*
G02*
X97300000Y-152400000I200000J0D01*
G01*
X102000000Y-152100000D02*
X102200000Y-152100000D01*
X95100000Y-152500000D02*
X95100000Y-152900000D01*
X101900000Y-152300000D02*
X102300000Y-152300000D01*
X100050000Y-152900000D02*
X100050000Y-152600000D01*
X96000000Y-152900000D02*
X96250000Y-152500000D01*
X95000000Y-152100000D02*
X95200000Y-152100000D01*
D12*
X94987761Y-150080952D02*
X94987761Y-151033333D01*
X94987761Y-151033333D02*
X96987761Y-151033333D01*
D11*
X97100000Y-152900000D02*
X97100000Y-152600000D01*
X94900000Y-152300000D02*
X95300000Y-152300000D01*
X100700000Y-152700000D02*
X100950000Y-152300000D01*
X102100000Y-152500000D02*
X102100000Y-152900000D01*
D10*
X95443880Y-147538095D02*
X96110547Y-147538095D01*
X95920071Y-147538095D02*
X96015309Y-147490476D01*
X96015309Y-147490476D02*
X96062928Y-147442857D01*
X96062928Y-147442857D02*
X96110547Y-147347619D01*
X96110547Y-147347619D02*
X96110547Y-147252381D01*
X95491500Y-146538095D02*
X95443880Y-146633333D01*
X95443880Y-146633333D02*
X95443880Y-146823809D01*
X95443880Y-146823809D02*
X95491500Y-146919047D01*
X95491500Y-146919047D02*
X95586738Y-146966666D01*
X95586738Y-146966666D02*
X95967690Y-146966666D01*
X95967690Y-146966666D02*
X96062928Y-146919047D01*
X96062928Y-146919047D02*
X96110547Y-146823809D01*
X96110547Y-146823809D02*
X96110547Y-146633333D01*
X96110547Y-146633333D02*
X96062928Y-146538095D01*
X96062928Y-146538095D02*
X95967690Y-146490476D01*
X95967690Y-146490476D02*
X95872452Y-146490476D01*
X95872452Y-146490476D02*
X95777214Y-146966666D01*
X96110547Y-146157142D02*
X95443880Y-145919047D01*
X95443880Y-145919047D02*
X96110547Y-145680952D01*
X96348642Y-144585713D02*
X96396261Y-144538094D01*
X96396261Y-144538094D02*
X96443880Y-144442856D01*
X96443880Y-144442856D02*
X96443880Y-144204761D01*
X96443880Y-144204761D02*
X96396261Y-144109523D01*
X96396261Y-144109523D02*
X96348642Y-144061904D01*
X96348642Y-144061904D02*
X96253404Y-144014285D01*
X96253404Y-144014285D02*
X96158166Y-144014285D01*
X96158166Y-144014285D02*
X96015309Y-144061904D01*
X96015309Y-144061904D02*
X95443880Y-144633332D01*
X95443880Y-144633332D02*
X95443880Y-144014285D01*
D11*
X100950000Y-152300000D02*
X101200000Y-152700000D01*
D12*
X102212238Y-151319047D02*
X101259857Y-150652380D01*
X102212238Y-150176190D02*
X100212238Y-150176190D01*
X100212238Y-150176190D02*
X100212238Y-150938095D01*
X100212238Y-150938095D02*
X100307476Y-151128571D01*
X100307476Y-151128571D02*
X100402714Y-151223809D01*
X100402714Y-151223809D02*
X100593190Y-151319047D01*
X100593190Y-151319047D02*
X100878904Y-151319047D01*
X100878904Y-151319047D02*
X101069380Y-151223809D01*
X101069380Y-151223809D02*
X101164619Y-151128571D01*
X101164619Y-151128571D02*
X101259857Y-150938095D01*
X101259857Y-150938095D02*
X101259857Y-150176190D01*
D11*
X96250000Y-152500000D02*
X96500000Y-152900000D01*
D12*
X84187761Y-150080952D02*
X84187761Y-151033333D01*
X84187761Y-151033333D02*
X86187761Y-151033333D01*
D11*
X89900000Y-152700000D02*
X90150000Y-152300000D01*
X89450000Y-152400000D02*
G75*
G02*
X89050000Y-152400000I-200000J0D01*
G01*
X89050000Y-152400000D02*
G75*
G02*
X89450000Y-152400000I200000J0D01*
G01*
X86300000Y-152900000D02*
X86300000Y-152600000D01*
X91200000Y-152100000D02*
X91400000Y-152100000D01*
X84300000Y-152500000D02*
X84300000Y-152900000D01*
X91100000Y-152300000D02*
X91500000Y-152300000D01*
X89250000Y-152900000D02*
X89250000Y-152600000D01*
X85200000Y-152900000D02*
X85450000Y-152500000D01*
X91000000Y-152500000D02*
X91600000Y-152500000D01*
X84100000Y-152300000D02*
X84500000Y-152300000D01*
X84200000Y-152100000D02*
X84400000Y-152100000D01*
X91300000Y-152500000D02*
X91300000Y-152900000D01*
D10*
X84643880Y-147538095D02*
X85310547Y-147538095D01*
X85120071Y-147538095D02*
X85215309Y-147490476D01*
X85215309Y-147490476D02*
X85262928Y-147442857D01*
X85262928Y-147442857D02*
X85310547Y-147347619D01*
X85310547Y-147347619D02*
X85310547Y-147252381D01*
X84691500Y-146538095D02*
X84643880Y-146633333D01*
X84643880Y-146633333D02*
X84643880Y-146823809D01*
X84643880Y-146823809D02*
X84691500Y-146919047D01*
X84691500Y-146919047D02*
X84786738Y-146966666D01*
X84786738Y-146966666D02*
X85167690Y-146966666D01*
X85167690Y-146966666D02*
X85262928Y-146919047D01*
X85262928Y-146919047D02*
X85310547Y-146823809D01*
X85310547Y-146823809D02*
X85310547Y-146633333D01*
X85310547Y-146633333D02*
X85262928Y-146538095D01*
X85262928Y-146538095D02*
X85167690Y-146490476D01*
X85167690Y-146490476D02*
X85072452Y-146490476D01*
X85072452Y-146490476D02*
X84977214Y-146966666D01*
X85310547Y-146157142D02*
X84643880Y-145919047D01*
X84643880Y-145919047D02*
X85310547Y-145680952D01*
X85548642Y-144585713D02*
X85596261Y-144538094D01*
X85596261Y-144538094D02*
X85643880Y-144442856D01*
X85643880Y-144442856D02*
X85643880Y-144204761D01*
X85643880Y-144204761D02*
X85596261Y-144109523D01*
X85596261Y-144109523D02*
X85548642Y-144061904D01*
X85548642Y-144061904D02*
X85453404Y-144014285D01*
X85453404Y-144014285D02*
X85358166Y-144014285D01*
X85358166Y-144014285D02*
X85215309Y-144061904D01*
X85215309Y-144061904D02*
X84643880Y-144633332D01*
X84643880Y-144633332D02*
X84643880Y-144014285D01*
D11*
X90150000Y-152300000D02*
X90400000Y-152700000D01*
D10*
X90956119Y-144061904D02*
X90289452Y-144061904D01*
X90479928Y-144061904D02*
X90384690Y-144109523D01*
X90384690Y-144109523D02*
X90337071Y-144157142D01*
X90337071Y-144157142D02*
X90289452Y-144252380D01*
X90289452Y-144252380D02*
X90289452Y-144347618D01*
X90908500Y-145061904D02*
X90956119Y-144966666D01*
X90956119Y-144966666D02*
X90956119Y-144776190D01*
X90956119Y-144776190D02*
X90908500Y-144680952D01*
X90908500Y-144680952D02*
X90813261Y-144633333D01*
X90813261Y-144633333D02*
X90432309Y-144633333D01*
X90432309Y-144633333D02*
X90337071Y-144680952D01*
X90337071Y-144680952D02*
X90289452Y-144776190D01*
X90289452Y-144776190D02*
X90289452Y-144966666D01*
X90289452Y-144966666D02*
X90337071Y-145061904D01*
X90337071Y-145061904D02*
X90432309Y-145109523D01*
X90432309Y-145109523D02*
X90527547Y-145109523D01*
X90527547Y-145109523D02*
X90622785Y-144633333D01*
X90289452Y-145442857D02*
X90956119Y-145680952D01*
X90956119Y-145680952D02*
X90289452Y-145919047D01*
X90051357Y-147014286D02*
X90003738Y-147061905D01*
X90003738Y-147061905D02*
X89956119Y-147157143D01*
X89956119Y-147157143D02*
X89956119Y-147395238D01*
X89956119Y-147395238D02*
X90003738Y-147490476D01*
X90003738Y-147490476D02*
X90051357Y-147538095D01*
X90051357Y-147538095D02*
X90146595Y-147585714D01*
X90146595Y-147585714D02*
X90241833Y-147585714D01*
X90241833Y-147585714D02*
X90384690Y-147538095D01*
X90384690Y-147538095D02*
X90956119Y-146966667D01*
X90956119Y-146966667D02*
X90956119Y-147585714D01*
D11*
X85450000Y-152500000D02*
X85700000Y-152900000D01*
D12*
X91412238Y-151319047D02*
X90459857Y-150652380D01*
X91412238Y-150176190D02*
X89412238Y-150176190D01*
X89412238Y-150176190D02*
X89412238Y-150938095D01*
X89412238Y-150938095D02*
X89507476Y-151128571D01*
X89507476Y-151128571D02*
X89602714Y-151223809D01*
X89602714Y-151223809D02*
X89793190Y-151319047D01*
X89793190Y-151319047D02*
X90078904Y-151319047D01*
X90078904Y-151319047D02*
X90269380Y-151223809D01*
X90269380Y-151223809D02*
X90364619Y-151128571D01*
X90364619Y-151128571D02*
X90459857Y-150938095D01*
X90459857Y-150938095D02*
X90459857Y-150176190D01*
D11*
X84000000Y-152500000D02*
X84600000Y-152500000D01*
X86500000Y-152400000D02*
G75*
G02*
X86100000Y-152400000I-200000J0D01*
G01*
X86100000Y-152400000D02*
G75*
G02*
X86500000Y-152400000I200000J0D01*
G01*
D10*
X73843880Y-147538095D02*
X74510547Y-147538095D01*
X74320071Y-147538095D02*
X74415309Y-147490476D01*
X74415309Y-147490476D02*
X74462928Y-147442857D01*
X74462928Y-147442857D02*
X74510547Y-147347619D01*
X74510547Y-147347619D02*
X74510547Y-147252381D01*
X73891500Y-146538095D02*
X73843880Y-146633333D01*
X73843880Y-146633333D02*
X73843880Y-146823809D01*
X73843880Y-146823809D02*
X73891500Y-146919047D01*
X73891500Y-146919047D02*
X73986738Y-146966666D01*
X73986738Y-146966666D02*
X74367690Y-146966666D01*
X74367690Y-146966666D02*
X74462928Y-146919047D01*
X74462928Y-146919047D02*
X74510547Y-146823809D01*
X74510547Y-146823809D02*
X74510547Y-146633333D01*
X74510547Y-146633333D02*
X74462928Y-146538095D01*
X74462928Y-146538095D02*
X74367690Y-146490476D01*
X74367690Y-146490476D02*
X74272452Y-146490476D01*
X74272452Y-146490476D02*
X74177214Y-146966666D01*
X74510547Y-146157142D02*
X73843880Y-145919047D01*
X73843880Y-145919047D02*
X74510547Y-145680952D01*
X74748642Y-144585713D02*
X74796261Y-144538094D01*
X74796261Y-144538094D02*
X74843880Y-144442856D01*
X74843880Y-144442856D02*
X74843880Y-144204761D01*
X74843880Y-144204761D02*
X74796261Y-144109523D01*
X74796261Y-144109523D02*
X74748642Y-144061904D01*
X74748642Y-144061904D02*
X74653404Y-144014285D01*
X74653404Y-144014285D02*
X74558166Y-144014285D01*
X74558166Y-144014285D02*
X74415309Y-144061904D01*
X74415309Y-144061904D02*
X73843880Y-144633332D01*
X73843880Y-144633332D02*
X73843880Y-144014285D01*
D11*
X75500000Y-152900000D02*
X75500000Y-152600000D01*
X75700000Y-152400000D02*
G75*
G02*
X75300000Y-152400000I-200000J0D01*
G01*
X75300000Y-152400000D02*
G75*
G02*
X75700000Y-152400000I200000J0D01*
G01*
X80300000Y-152300000D02*
X80700000Y-152300000D01*
X78650000Y-152400000D02*
G75*
G02*
X78250000Y-152400000I-200000J0D01*
G01*
X78250000Y-152400000D02*
G75*
G02*
X78650000Y-152400000I200000J0D01*
G01*
X80400000Y-152100000D02*
X80600000Y-152100000D01*
X73500000Y-152500000D02*
X73500000Y-152900000D01*
D12*
X73387761Y-150080952D02*
X73387761Y-151033333D01*
X73387761Y-151033333D02*
X75387761Y-151033333D01*
D11*
X73400000Y-152100000D02*
X73600000Y-152100000D01*
X78450000Y-152900000D02*
X78450000Y-152600000D01*
X74400000Y-152900000D02*
X74650000Y-152500000D01*
X80200000Y-152500000D02*
X80800000Y-152500000D01*
X73300000Y-152300000D02*
X73700000Y-152300000D01*
X80500000Y-152500000D02*
X80500000Y-152900000D01*
X79100000Y-152700000D02*
X79350000Y-152300000D01*
X79350000Y-152300000D02*
X79600000Y-152700000D01*
D10*
X80156119Y-144061904D02*
X79489452Y-144061904D01*
X79679928Y-144061904D02*
X79584690Y-144109523D01*
X79584690Y-144109523D02*
X79537071Y-144157142D01*
X79537071Y-144157142D02*
X79489452Y-144252380D01*
X79489452Y-144252380D02*
X79489452Y-144347618D01*
X80108500Y-145061904D02*
X80156119Y-144966666D01*
X80156119Y-144966666D02*
X80156119Y-144776190D01*
X80156119Y-144776190D02*
X80108500Y-144680952D01*
X80108500Y-144680952D02*
X80013261Y-144633333D01*
X80013261Y-144633333D02*
X79632309Y-144633333D01*
X79632309Y-144633333D02*
X79537071Y-144680952D01*
X79537071Y-144680952D02*
X79489452Y-144776190D01*
X79489452Y-144776190D02*
X79489452Y-144966666D01*
X79489452Y-144966666D02*
X79537071Y-145061904D01*
X79537071Y-145061904D02*
X79632309Y-145109523D01*
X79632309Y-145109523D02*
X79727547Y-145109523D01*
X79727547Y-145109523D02*
X79822785Y-144633333D01*
X79489452Y-145442857D02*
X80156119Y-145680952D01*
X80156119Y-145680952D02*
X79489452Y-145919047D01*
X79251357Y-147014286D02*
X79203738Y-147061905D01*
X79203738Y-147061905D02*
X79156119Y-147157143D01*
X79156119Y-147157143D02*
X79156119Y-147395238D01*
X79156119Y-147395238D02*
X79203738Y-147490476D01*
X79203738Y-147490476D02*
X79251357Y-147538095D01*
X79251357Y-147538095D02*
X79346595Y-147585714D01*
X79346595Y-147585714D02*
X79441833Y-147585714D01*
X79441833Y-147585714D02*
X79584690Y-147538095D01*
X79584690Y-147538095D02*
X80156119Y-146966667D01*
X80156119Y-146966667D02*
X80156119Y-147585714D01*
D11*
X74650000Y-152500000D02*
X74900000Y-152900000D01*
D12*
X80612238Y-151319047D02*
X79659857Y-150652380D01*
X80612238Y-150176190D02*
X78612238Y-150176190D01*
X78612238Y-150176190D02*
X78612238Y-150938095D01*
X78612238Y-150938095D02*
X78707476Y-151128571D01*
X78707476Y-151128571D02*
X78802714Y-151223809D01*
X78802714Y-151223809D02*
X78993190Y-151319047D01*
X78993190Y-151319047D02*
X79278904Y-151319047D01*
X79278904Y-151319047D02*
X79469380Y-151223809D01*
X79469380Y-151223809D02*
X79564619Y-151128571D01*
X79564619Y-151128571D02*
X79659857Y-150938095D01*
X79659857Y-150938095D02*
X79659857Y-150176190D01*
D11*
X73200000Y-152500000D02*
X73800000Y-152500000D01*
X64900000Y-152400000D02*
G75*
G02*
X64500000Y-152400000I-200000J0D01*
G01*
X64500000Y-152400000D02*
G75*
G02*
X64900000Y-152400000I200000J0D01*
G01*
X62500000Y-152300000D02*
X62900000Y-152300000D01*
X67850000Y-152400000D02*
G75*
G02*
X67450000Y-152400000I-200000J0D01*
G01*
X67450000Y-152400000D02*
G75*
G02*
X67850000Y-152400000I200000J0D01*
G01*
X64700000Y-152900000D02*
X64700000Y-152600000D01*
X69600000Y-152100000D02*
X69800000Y-152100000D01*
X69400000Y-152500000D02*
X70000000Y-152500000D01*
X62700000Y-152500000D02*
X62700000Y-152900000D01*
X69500000Y-152300000D02*
X69900000Y-152300000D01*
X67650000Y-152900000D02*
X67650000Y-152600000D01*
X63600000Y-152900000D02*
X63850000Y-152500000D01*
X69700000Y-152500000D02*
X69700000Y-152900000D01*
X62600000Y-152100000D02*
X62800000Y-152100000D01*
X68300000Y-152700000D02*
X68550000Y-152300000D01*
D10*
X63043880Y-147538095D02*
X63710547Y-147538095D01*
X63520071Y-147538095D02*
X63615309Y-147490476D01*
X63615309Y-147490476D02*
X63662928Y-147442857D01*
X63662928Y-147442857D02*
X63710547Y-147347619D01*
X63710547Y-147347619D02*
X63710547Y-147252381D01*
X63091500Y-146538095D02*
X63043880Y-146633333D01*
X63043880Y-146633333D02*
X63043880Y-146823809D01*
X63043880Y-146823809D02*
X63091500Y-146919047D01*
X63091500Y-146919047D02*
X63186738Y-146966666D01*
X63186738Y-146966666D02*
X63567690Y-146966666D01*
X63567690Y-146966666D02*
X63662928Y-146919047D01*
X63662928Y-146919047D02*
X63710547Y-146823809D01*
X63710547Y-146823809D02*
X63710547Y-146633333D01*
X63710547Y-146633333D02*
X63662928Y-146538095D01*
X63662928Y-146538095D02*
X63567690Y-146490476D01*
X63567690Y-146490476D02*
X63472452Y-146490476D01*
X63472452Y-146490476D02*
X63377214Y-146966666D01*
X63710547Y-146157142D02*
X63043880Y-145919047D01*
X63043880Y-145919047D02*
X63710547Y-145680952D01*
X63948642Y-144585713D02*
X63996261Y-144538094D01*
X63996261Y-144538094D02*
X64043880Y-144442856D01*
X64043880Y-144442856D02*
X64043880Y-144204761D01*
X64043880Y-144204761D02*
X63996261Y-144109523D01*
X63996261Y-144109523D02*
X63948642Y-144061904D01*
X63948642Y-144061904D02*
X63853404Y-144014285D01*
X63853404Y-144014285D02*
X63758166Y-144014285D01*
X63758166Y-144014285D02*
X63615309Y-144061904D01*
X63615309Y-144061904D02*
X63043880Y-144633332D01*
X63043880Y-144633332D02*
X63043880Y-144014285D01*
D11*
X68550000Y-152300000D02*
X68800000Y-152700000D01*
D10*
X69356119Y-144061904D02*
X68689452Y-144061904D01*
X68879928Y-144061904D02*
X68784690Y-144109523D01*
X68784690Y-144109523D02*
X68737071Y-144157142D01*
X68737071Y-144157142D02*
X68689452Y-144252380D01*
X68689452Y-144252380D02*
X68689452Y-144347618D01*
X69308500Y-145061904D02*
X69356119Y-144966666D01*
X69356119Y-144966666D02*
X69356119Y-144776190D01*
X69356119Y-144776190D02*
X69308500Y-144680952D01*
X69308500Y-144680952D02*
X69213261Y-144633333D01*
X69213261Y-144633333D02*
X68832309Y-144633333D01*
X68832309Y-144633333D02*
X68737071Y-144680952D01*
X68737071Y-144680952D02*
X68689452Y-144776190D01*
X68689452Y-144776190D02*
X68689452Y-144966666D01*
X68689452Y-144966666D02*
X68737071Y-145061904D01*
X68737071Y-145061904D02*
X68832309Y-145109523D01*
X68832309Y-145109523D02*
X68927547Y-145109523D01*
X68927547Y-145109523D02*
X69022785Y-144633333D01*
X68689452Y-145442857D02*
X69356119Y-145680952D01*
X69356119Y-145680952D02*
X68689452Y-145919047D01*
X68451357Y-147014286D02*
X68403738Y-147061905D01*
X68403738Y-147061905D02*
X68356119Y-147157143D01*
X68356119Y-147157143D02*
X68356119Y-147395238D01*
X68356119Y-147395238D02*
X68403738Y-147490476D01*
X68403738Y-147490476D02*
X68451357Y-147538095D01*
X68451357Y-147538095D02*
X68546595Y-147585714D01*
X68546595Y-147585714D02*
X68641833Y-147585714D01*
X68641833Y-147585714D02*
X68784690Y-147538095D01*
X68784690Y-147538095D02*
X69356119Y-146966667D01*
X69356119Y-146966667D02*
X69356119Y-147585714D01*
D11*
X62400000Y-152500000D02*
X63000000Y-152500000D01*
X63850000Y-152500000D02*
X64100000Y-152900000D01*
D12*
X69812238Y-151319047D02*
X68859857Y-150652380D01*
X69812238Y-150176190D02*
X67812238Y-150176190D01*
X67812238Y-150176190D02*
X67812238Y-150938095D01*
X67812238Y-150938095D02*
X67907476Y-151128571D01*
X67907476Y-151128571D02*
X68002714Y-151223809D01*
X68002714Y-151223809D02*
X68193190Y-151319047D01*
X68193190Y-151319047D02*
X68478904Y-151319047D01*
X68478904Y-151319047D02*
X68669380Y-151223809D01*
X68669380Y-151223809D02*
X68764619Y-151128571D01*
X68764619Y-151128571D02*
X68859857Y-150938095D01*
X68859857Y-150938095D02*
X68859857Y-150176190D01*
X62587761Y-150080952D02*
X62587761Y-151033333D01*
X62587761Y-151033333D02*
X64587761Y-151033333D01*
D11*
X57050000Y-152400000D02*
G75*
G02*
X56650000Y-152400000I-200000J0D01*
G01*
X56650000Y-152400000D02*
G75*
G02*
X57050000Y-152400000I200000J0D01*
G01*
X51700000Y-152300000D02*
X52100000Y-152300000D01*
D12*
X59012238Y-151319047D02*
X58059857Y-150652380D01*
X59012238Y-150176190D02*
X57012238Y-150176190D01*
X57012238Y-150176190D02*
X57012238Y-150938095D01*
X57012238Y-150938095D02*
X57107476Y-151128571D01*
X57107476Y-151128571D02*
X57202714Y-151223809D01*
X57202714Y-151223809D02*
X57393190Y-151319047D01*
X57393190Y-151319047D02*
X57678904Y-151319047D01*
X57678904Y-151319047D02*
X57869380Y-151223809D01*
X57869380Y-151223809D02*
X57964619Y-151128571D01*
X57964619Y-151128571D02*
X58059857Y-150938095D01*
X58059857Y-150938095D02*
X58059857Y-150176190D01*
D11*
X58800000Y-152100000D02*
X59000000Y-152100000D01*
X51900000Y-152500000D02*
X51900000Y-152900000D01*
X58700000Y-152300000D02*
X59100000Y-152300000D01*
X56850000Y-152900000D02*
X56850000Y-152600000D01*
X52800000Y-152900000D02*
X53050000Y-152500000D01*
X57500000Y-152700000D02*
X57750000Y-152300000D01*
X53900000Y-152900000D02*
X53900000Y-152600000D01*
X58600000Y-152500000D02*
X59200000Y-152500000D01*
X53050000Y-152500000D02*
X53300000Y-152900000D01*
X51800000Y-152100000D02*
X52000000Y-152100000D01*
D12*
X51787761Y-150080952D02*
X51787761Y-151033333D01*
X51787761Y-151033333D02*
X53787761Y-151033333D01*
D11*
X58900000Y-152500000D02*
X58900000Y-152900000D01*
X51600000Y-152500000D02*
X52200000Y-152500000D01*
D10*
X52243880Y-147538095D02*
X52910547Y-147538095D01*
X52720071Y-147538095D02*
X52815309Y-147490476D01*
X52815309Y-147490476D02*
X52862928Y-147442857D01*
X52862928Y-147442857D02*
X52910547Y-147347619D01*
X52910547Y-147347619D02*
X52910547Y-147252381D01*
X52291500Y-146538095D02*
X52243880Y-146633333D01*
X52243880Y-146633333D02*
X52243880Y-146823809D01*
X52243880Y-146823809D02*
X52291500Y-146919047D01*
X52291500Y-146919047D02*
X52386738Y-146966666D01*
X52386738Y-146966666D02*
X52767690Y-146966666D01*
X52767690Y-146966666D02*
X52862928Y-146919047D01*
X52862928Y-146919047D02*
X52910547Y-146823809D01*
X52910547Y-146823809D02*
X52910547Y-146633333D01*
X52910547Y-146633333D02*
X52862928Y-146538095D01*
X52862928Y-146538095D02*
X52767690Y-146490476D01*
X52767690Y-146490476D02*
X52672452Y-146490476D01*
X52672452Y-146490476D02*
X52577214Y-146966666D01*
X52910547Y-146157142D02*
X52243880Y-145919047D01*
X52243880Y-145919047D02*
X52910547Y-145680952D01*
X53148642Y-144585713D02*
X53196261Y-144538094D01*
X53196261Y-144538094D02*
X53243880Y-144442856D01*
X53243880Y-144442856D02*
X53243880Y-144204761D01*
X53243880Y-144204761D02*
X53196261Y-144109523D01*
X53196261Y-144109523D02*
X53148642Y-144061904D01*
X53148642Y-144061904D02*
X53053404Y-144014285D01*
X53053404Y-144014285D02*
X52958166Y-144014285D01*
X52958166Y-144014285D02*
X52815309Y-144061904D01*
X52815309Y-144061904D02*
X52243880Y-144633332D01*
X52243880Y-144633332D02*
X52243880Y-144014285D01*
D11*
X57750000Y-152300000D02*
X58000000Y-152700000D01*
D10*
X58556119Y-144061904D02*
X57889452Y-144061904D01*
X58079928Y-144061904D02*
X57984690Y-144109523D01*
X57984690Y-144109523D02*
X57937071Y-144157142D01*
X57937071Y-144157142D02*
X57889452Y-144252380D01*
X57889452Y-144252380D02*
X57889452Y-144347618D01*
X58508500Y-145061904D02*
X58556119Y-144966666D01*
X58556119Y-144966666D02*
X58556119Y-144776190D01*
X58556119Y-144776190D02*
X58508500Y-144680952D01*
X58508500Y-144680952D02*
X58413261Y-144633333D01*
X58413261Y-144633333D02*
X58032309Y-144633333D01*
X58032309Y-144633333D02*
X57937071Y-144680952D01*
X57937071Y-144680952D02*
X57889452Y-144776190D01*
X57889452Y-144776190D02*
X57889452Y-144966666D01*
X57889452Y-144966666D02*
X57937071Y-145061904D01*
X57937071Y-145061904D02*
X58032309Y-145109523D01*
X58032309Y-145109523D02*
X58127547Y-145109523D01*
X58127547Y-145109523D02*
X58222785Y-144633333D01*
X57889452Y-145442857D02*
X58556119Y-145680952D01*
X58556119Y-145680952D02*
X57889452Y-145919047D01*
X57651357Y-147014286D02*
X57603738Y-147061905D01*
X57603738Y-147061905D02*
X57556119Y-147157143D01*
X57556119Y-147157143D02*
X57556119Y-147395238D01*
X57556119Y-147395238D02*
X57603738Y-147490476D01*
X57603738Y-147490476D02*
X57651357Y-147538095D01*
X57651357Y-147538095D02*
X57746595Y-147585714D01*
X57746595Y-147585714D02*
X57841833Y-147585714D01*
X57841833Y-147585714D02*
X57984690Y-147538095D01*
X57984690Y-147538095D02*
X58556119Y-146966667D01*
X58556119Y-146966667D02*
X58556119Y-147585714D01*
D11*
X54100000Y-152400000D02*
G75*
G02*
X53700000Y-152400000I-200000J0D01*
G01*
X53700000Y-152400000D02*
G75*
G02*
X54100000Y-152400000I200000J0D01*
G01*
X132650000Y-152400000D02*
G75*
G02*
X132250000Y-152400000I-200000J0D01*
G01*
X132250000Y-152400000D02*
G75*
G02*
X132650000Y-152400000I200000J0D01*
G01*
X134400000Y-152100000D02*
X134600000Y-152100000D01*
X127500000Y-152500000D02*
X127500000Y-152900000D01*
X134300000Y-152300000D02*
X134700000Y-152300000D01*
X132450000Y-152900000D02*
X132450000Y-152600000D01*
X128400000Y-152900000D02*
X128650000Y-152500000D01*
X129500000Y-152900000D02*
X129500000Y-152600000D01*
X134200000Y-152500000D02*
X134800000Y-152500000D01*
X127300000Y-152300000D02*
X127700000Y-152300000D01*
X127400000Y-152100000D02*
X127600000Y-152100000D01*
X134500000Y-152500000D02*
X134500000Y-152900000D01*
X133100000Y-152700000D02*
X133350000Y-152300000D01*
D10*
X127843880Y-147538095D02*
X128510547Y-147538095D01*
X128320071Y-147538095D02*
X128415309Y-147490476D01*
X128415309Y-147490476D02*
X128462928Y-147442857D01*
X128462928Y-147442857D02*
X128510547Y-147347619D01*
X128510547Y-147347619D02*
X128510547Y-147252381D01*
X127891500Y-146538095D02*
X127843880Y-146633333D01*
X127843880Y-146633333D02*
X127843880Y-146823809D01*
X127843880Y-146823809D02*
X127891500Y-146919047D01*
X127891500Y-146919047D02*
X127986738Y-146966666D01*
X127986738Y-146966666D02*
X128367690Y-146966666D01*
X128367690Y-146966666D02*
X128462928Y-146919047D01*
X128462928Y-146919047D02*
X128510547Y-146823809D01*
X128510547Y-146823809D02*
X128510547Y-146633333D01*
X128510547Y-146633333D02*
X128462928Y-146538095D01*
X128462928Y-146538095D02*
X128367690Y-146490476D01*
X128367690Y-146490476D02*
X128272452Y-146490476D01*
X128272452Y-146490476D02*
X128177214Y-146966666D01*
X128510547Y-146157142D02*
X127843880Y-145919047D01*
X127843880Y-145919047D02*
X128510547Y-145680952D01*
X128748642Y-144585713D02*
X128796261Y-144538094D01*
X128796261Y-144538094D02*
X128843880Y-144442856D01*
X128843880Y-144442856D02*
X128843880Y-144204761D01*
X128843880Y-144204761D02*
X128796261Y-144109523D01*
X128796261Y-144109523D02*
X128748642Y-144061904D01*
X128748642Y-144061904D02*
X128653404Y-144014285D01*
X128653404Y-144014285D02*
X128558166Y-144014285D01*
X128558166Y-144014285D02*
X128415309Y-144061904D01*
X128415309Y-144061904D02*
X127843880Y-144633332D01*
X127843880Y-144633332D02*
X127843880Y-144014285D01*
D11*
X133350000Y-152300000D02*
X133600000Y-152700000D01*
D10*
X134156119Y-144061904D02*
X133489452Y-144061904D01*
X133679928Y-144061904D02*
X133584690Y-144109523D01*
X133584690Y-144109523D02*
X133537071Y-144157142D01*
X133537071Y-144157142D02*
X133489452Y-144252380D01*
X133489452Y-144252380D02*
X133489452Y-144347618D01*
X134108500Y-145061904D02*
X134156119Y-144966666D01*
X134156119Y-144966666D02*
X134156119Y-144776190D01*
X134156119Y-144776190D02*
X134108500Y-144680952D01*
X134108500Y-144680952D02*
X134013261Y-144633333D01*
X134013261Y-144633333D02*
X133632309Y-144633333D01*
X133632309Y-144633333D02*
X133537071Y-144680952D01*
X133537071Y-144680952D02*
X133489452Y-144776190D01*
X133489452Y-144776190D02*
X133489452Y-144966666D01*
X133489452Y-144966666D02*
X133537071Y-145061904D01*
X133537071Y-145061904D02*
X133632309Y-145109523D01*
X133632309Y-145109523D02*
X133727547Y-145109523D01*
X133727547Y-145109523D02*
X133822785Y-144633333D01*
X133489452Y-145442857D02*
X134156119Y-145680952D01*
X134156119Y-145680952D02*
X133489452Y-145919047D01*
X133251357Y-147014286D02*
X133203738Y-147061905D01*
X133203738Y-147061905D02*
X133156119Y-147157143D01*
X133156119Y-147157143D02*
X133156119Y-147395238D01*
X133156119Y-147395238D02*
X133203738Y-147490476D01*
X133203738Y-147490476D02*
X133251357Y-147538095D01*
X133251357Y-147538095D02*
X133346595Y-147585714D01*
X133346595Y-147585714D02*
X133441833Y-147585714D01*
X133441833Y-147585714D02*
X133584690Y-147538095D01*
X133584690Y-147538095D02*
X134156119Y-146966667D01*
X134156119Y-146966667D02*
X134156119Y-147585714D01*
D11*
X128650000Y-152500000D02*
X128900000Y-152900000D01*
D12*
X134612238Y-151319047D02*
X133659857Y-150652380D01*
X134612238Y-150176190D02*
X132612238Y-150176190D01*
X132612238Y-150176190D02*
X132612238Y-150938095D01*
X132612238Y-150938095D02*
X132707476Y-151128571D01*
X132707476Y-151128571D02*
X132802714Y-151223809D01*
X132802714Y-151223809D02*
X132993190Y-151319047D01*
X132993190Y-151319047D02*
X133278904Y-151319047D01*
X133278904Y-151319047D02*
X133469380Y-151223809D01*
X133469380Y-151223809D02*
X133564619Y-151128571D01*
X133564619Y-151128571D02*
X133659857Y-150938095D01*
X133659857Y-150938095D02*
X133659857Y-150176190D01*
D11*
X127200000Y-152500000D02*
X127800000Y-152500000D01*
D12*
X127387761Y-150080952D02*
X127387761Y-151033333D01*
X127387761Y-151033333D02*
X129387761Y-151033333D01*
D11*
X129700000Y-152400000D02*
G75*
G02*
X129300000Y-152400000I-200000J0D01*
G01*
X129300000Y-152400000D02*
G75*
G02*
X129700000Y-152400000I200000J0D01*
G01*
D13*
%TO.C,C10*%
X122609420Y-31090000D02*
X122890580Y-31090000D01*
X122609420Y-32110000D02*
X122890580Y-32110000D01*
%TO.C,C5*%
X117640580Y-31090000D02*
X117359420Y-31090000D01*
X117640580Y-32110000D02*
X117359420Y-32110000D01*
%TO.C,C6*%
X122759420Y-142690000D02*
X123040580Y-142690000D01*
X122759420Y-143710000D02*
X123040580Y-143710000D01*
%TO.C,C9*%
X122609420Y-34190000D02*
X122890580Y-34190000D01*
X122609420Y-35210000D02*
X122890580Y-35210000D01*
%TO.C,C7*%
X122759420Y-102390000D02*
X123040580Y-102390000D01*
X122759420Y-103410000D02*
X123040580Y-103410000D01*
%TO.C,C4*%
X117640580Y-34190000D02*
X117359420Y-34190000D01*
X117640580Y-35210000D02*
X117359420Y-35210000D01*
%TO.C,C2*%
X117640580Y-102390000D02*
X117359420Y-102390000D01*
X117640580Y-103410000D02*
X117359420Y-103410000D01*
%TO.C,C1*%
X117640580Y-142690000D02*
X117359420Y-142690000D01*
X117640580Y-143710000D02*
X117359420Y-143710000D01*
%TO.C,C8*%
X122759420Y-66790000D02*
X123040580Y-66790000D01*
X122759420Y-67810000D02*
X123040580Y-67810000D01*
%TO.C,C3*%
X117640580Y-66790000D02*
X117359420Y-66790000D01*
X117640580Y-67810000D02*
X117359420Y-67810000D01*
%TO.C,C1*%
X106840580Y-142690000D02*
X106559420Y-142690000D01*
X106840580Y-143710000D02*
X106559420Y-143710000D01*
%TO.C,C10*%
X111809420Y-31090000D02*
X112090580Y-31090000D01*
X111809420Y-32110000D02*
X112090580Y-32110000D01*
%TO.C,C5*%
X106840580Y-31090000D02*
X106559420Y-31090000D01*
X106840580Y-32110000D02*
X106559420Y-32110000D01*
%TO.C,C9*%
X111809420Y-34190000D02*
X112090580Y-34190000D01*
X111809420Y-35210000D02*
X112090580Y-35210000D01*
%TO.C,C7*%
X111959420Y-102390000D02*
X112240580Y-102390000D01*
X111959420Y-103410000D02*
X112240580Y-103410000D01*
%TO.C,C6*%
X111959420Y-142690000D02*
X112240580Y-142690000D01*
X111959420Y-143710000D02*
X112240580Y-143710000D01*
%TO.C,C2*%
X106840580Y-102390000D02*
X106559420Y-102390000D01*
X106840580Y-103410000D02*
X106559420Y-103410000D01*
%TO.C,C3*%
X106840580Y-66790000D02*
X106559420Y-66790000D01*
X106840580Y-67810000D02*
X106559420Y-67810000D01*
%TO.C,C8*%
X111959420Y-66790000D02*
X112240580Y-66790000D01*
X111959420Y-67810000D02*
X112240580Y-67810000D01*
%TO.C,C4*%
X106840580Y-34190000D02*
X106559420Y-34190000D01*
X106840580Y-35210000D02*
X106559420Y-35210000D01*
%TO.C,C10*%
X101009420Y-31090000D02*
X101290580Y-31090000D01*
X101009420Y-32110000D02*
X101290580Y-32110000D01*
%TO.C,C5*%
X96040580Y-31090000D02*
X95759420Y-31090000D01*
X96040580Y-32110000D02*
X95759420Y-32110000D01*
%TO.C,C4*%
X96040580Y-34190000D02*
X95759420Y-34190000D01*
X96040580Y-35210000D02*
X95759420Y-35210000D01*
%TO.C,C9*%
X101009420Y-34190000D02*
X101290580Y-34190000D01*
X101009420Y-35210000D02*
X101290580Y-35210000D01*
%TO.C,C7*%
X101159420Y-102390000D02*
X101440580Y-102390000D01*
X101159420Y-103410000D02*
X101440580Y-103410000D01*
%TO.C,C6*%
X101159420Y-142690000D02*
X101440580Y-142690000D01*
X101159420Y-143710000D02*
X101440580Y-143710000D01*
%TO.C,C3*%
X96040580Y-66790000D02*
X95759420Y-66790000D01*
X96040580Y-67810000D02*
X95759420Y-67810000D01*
%TO.C,C2*%
X96040580Y-102390000D02*
X95759420Y-102390000D01*
X96040580Y-103410000D02*
X95759420Y-103410000D01*
%TO.C,C1*%
X96040580Y-142690000D02*
X95759420Y-142690000D01*
X96040580Y-143710000D02*
X95759420Y-143710000D01*
%TO.C,C8*%
X101159420Y-66790000D02*
X101440580Y-66790000D01*
X101159420Y-67810000D02*
X101440580Y-67810000D01*
%TO.C,C10*%
X90209420Y-31090000D02*
X90490580Y-31090000D01*
X90209420Y-32110000D02*
X90490580Y-32110000D01*
%TO.C,C5*%
X85240580Y-31090000D02*
X84959420Y-31090000D01*
X85240580Y-32110000D02*
X84959420Y-32110000D01*
%TO.C,C9*%
X90209420Y-34190000D02*
X90490580Y-34190000D01*
X90209420Y-35210000D02*
X90490580Y-35210000D01*
%TO.C,C7*%
X90359420Y-102390000D02*
X90640580Y-102390000D01*
X90359420Y-103410000D02*
X90640580Y-103410000D01*
%TO.C,C6*%
X90359420Y-142690000D02*
X90640580Y-142690000D01*
X90359420Y-143710000D02*
X90640580Y-143710000D01*
%TO.C,C2*%
X85240580Y-102390000D02*
X84959420Y-102390000D01*
X85240580Y-103410000D02*
X84959420Y-103410000D01*
%TO.C,C1*%
X85240580Y-142690000D02*
X84959420Y-142690000D01*
X85240580Y-143710000D02*
X84959420Y-143710000D01*
%TO.C,C8*%
X90359420Y-66790000D02*
X90640580Y-66790000D01*
X90359420Y-67810000D02*
X90640580Y-67810000D01*
%TO.C,C3*%
X85240580Y-66790000D02*
X84959420Y-66790000D01*
X85240580Y-67810000D02*
X84959420Y-67810000D01*
%TO.C,C4*%
X85240580Y-34190000D02*
X84959420Y-34190000D01*
X85240580Y-35210000D02*
X84959420Y-35210000D01*
%TO.C,C10*%
X79409420Y-31090000D02*
X79690580Y-31090000D01*
X79409420Y-32110000D02*
X79690580Y-32110000D01*
%TO.C,C5*%
X74440580Y-31090000D02*
X74159420Y-31090000D01*
X74440580Y-32110000D02*
X74159420Y-32110000D01*
%TO.C,C9*%
X79409420Y-34190000D02*
X79690580Y-34190000D01*
X79409420Y-35210000D02*
X79690580Y-35210000D01*
%TO.C,C7*%
X79559420Y-102390000D02*
X79840580Y-102390000D01*
X79559420Y-103410000D02*
X79840580Y-103410000D01*
%TO.C,C6*%
X79559420Y-142690000D02*
X79840580Y-142690000D01*
X79559420Y-143710000D02*
X79840580Y-143710000D01*
%TO.C,C1*%
X74440580Y-142690000D02*
X74159420Y-142690000D01*
X74440580Y-143710000D02*
X74159420Y-143710000D01*
%TO.C,C8*%
X79559420Y-66790000D02*
X79840580Y-66790000D01*
X79559420Y-67810000D02*
X79840580Y-67810000D01*
%TO.C,C2*%
X74440580Y-102390000D02*
X74159420Y-102390000D01*
X74440580Y-103410000D02*
X74159420Y-103410000D01*
%TO.C,C3*%
X74440580Y-66790000D02*
X74159420Y-66790000D01*
X74440580Y-67810000D02*
X74159420Y-67810000D01*
%TO.C,C4*%
X74440580Y-34190000D02*
X74159420Y-34190000D01*
X74440580Y-35210000D02*
X74159420Y-35210000D01*
%TO.C,C10*%
X68609420Y-31090000D02*
X68890580Y-31090000D01*
X68609420Y-32110000D02*
X68890580Y-32110000D01*
%TO.C,C5*%
X63640580Y-31090000D02*
X63359420Y-31090000D01*
X63640580Y-32110000D02*
X63359420Y-32110000D01*
%TO.C,C9*%
X68609420Y-34190000D02*
X68890580Y-34190000D01*
X68609420Y-35210000D02*
X68890580Y-35210000D01*
%TO.C,C7*%
X68759420Y-102390000D02*
X69040580Y-102390000D01*
X68759420Y-103410000D02*
X69040580Y-103410000D01*
%TO.C,C6*%
X68759420Y-142690000D02*
X69040580Y-142690000D01*
X68759420Y-143710000D02*
X69040580Y-143710000D01*
%TO.C,C8*%
X68759420Y-66790000D02*
X69040580Y-66790000D01*
X68759420Y-67810000D02*
X69040580Y-67810000D01*
%TO.C,C2*%
X63640580Y-102390000D02*
X63359420Y-102390000D01*
X63640580Y-103410000D02*
X63359420Y-103410000D01*
%TO.C,C1*%
X63640580Y-142690000D02*
X63359420Y-142690000D01*
X63640580Y-143710000D02*
X63359420Y-143710000D01*
%TO.C,C3*%
X63640580Y-66790000D02*
X63359420Y-66790000D01*
X63640580Y-67810000D02*
X63359420Y-67810000D01*
%TO.C,C4*%
X63640580Y-34190000D02*
X63359420Y-34190000D01*
X63640580Y-35210000D02*
X63359420Y-35210000D01*
%TO.C,C10*%
X57809420Y-31090000D02*
X58090580Y-31090000D01*
X57809420Y-32110000D02*
X58090580Y-32110000D01*
%TO.C,C5*%
X52840580Y-31090000D02*
X52559420Y-31090000D01*
X52840580Y-32110000D02*
X52559420Y-32110000D01*
%TO.C,C9*%
X57809420Y-34190000D02*
X58090580Y-34190000D01*
X57809420Y-35210000D02*
X58090580Y-35210000D01*
%TO.C,C7*%
X57959420Y-102390000D02*
X58240580Y-102390000D01*
X57959420Y-103410000D02*
X58240580Y-103410000D01*
%TO.C,C6*%
X57959420Y-142690000D02*
X58240580Y-142690000D01*
X57959420Y-143710000D02*
X58240580Y-143710000D01*
%TO.C,C8*%
X57959420Y-66790000D02*
X58240580Y-66790000D01*
X57959420Y-67810000D02*
X58240580Y-67810000D01*
%TO.C,C1*%
X52840580Y-142690000D02*
X52559420Y-142690000D01*
X52840580Y-143710000D02*
X52559420Y-143710000D01*
%TO.C,C2*%
X52840580Y-102390000D02*
X52559420Y-102390000D01*
X52840580Y-103410000D02*
X52559420Y-103410000D01*
%TO.C,C3*%
X52840580Y-66790000D02*
X52559420Y-66790000D01*
X52840580Y-67810000D02*
X52559420Y-67810000D01*
%TO.C,C4*%
X52840580Y-34190000D02*
X52559420Y-34190000D01*
X52840580Y-35210000D02*
X52559420Y-35210000D01*
%TO.C,C10*%
X133409420Y-31090000D02*
X133690580Y-31090000D01*
X133409420Y-32110000D02*
X133690580Y-32110000D01*
%TO.C,C5*%
X128440580Y-31090000D02*
X128159420Y-31090000D01*
X128440580Y-32110000D02*
X128159420Y-32110000D01*
%TO.C,C9*%
X133409420Y-34190000D02*
X133690580Y-34190000D01*
X133409420Y-35210000D02*
X133690580Y-35210000D01*
%TO.C,C7*%
X133559420Y-102390000D02*
X133840580Y-102390000D01*
X133559420Y-103410000D02*
X133840580Y-103410000D01*
%TO.C,C6*%
X133559420Y-142690000D02*
X133840580Y-142690000D01*
X133559420Y-143710000D02*
X133840580Y-143710000D01*
%TO.C,C2*%
X128440580Y-102390000D02*
X128159420Y-102390000D01*
X128440580Y-103410000D02*
X128159420Y-103410000D01*
%TO.C,C1*%
X128440580Y-142690000D02*
X128159420Y-142690000D01*
X128440580Y-143710000D02*
X128159420Y-143710000D01*
%TO.C,C8*%
X133559420Y-66790000D02*
X133840580Y-66790000D01*
X133559420Y-67810000D02*
X133840580Y-67810000D01*
%TO.C,C3*%
X128440580Y-66790000D02*
X128159420Y-66790000D01*
X128440580Y-67810000D02*
X128159420Y-67810000D01*
%TO.C,C4*%
X128440580Y-34190000D02*
X128159420Y-34190000D01*
X128440580Y-35210000D02*
X128159420Y-35210000D01*
%TD*%
M02*
