%TF.GenerationSoftware,KiCad,Pcbnew,9.0.1*%
%TF.CreationDate,2025-07-16T22:24:26-04:00*%
%TF.ProjectId,flowstick_led_strip_pcbs,666c6f77-7374-4696-936b-5f6c65645f73,rev?*%
%TF.SameCoordinates,Original*%
%TF.FileFunction,Legend,Bot*%
%TF.FilePolarity,Positive*%
%FSLAX46Y46*%
G04 Gerber Fmt 4.6, Leading zero omitted, Abs format (unit mm)*
G04 Created by KiCad (PCBNEW 9.0.1) date 2025-07-16 22:24:26*
%MOMM*%
%LPD*%
G01*
G04 APERTURE LIST*
%ADD10C,0.100000*%
%ADD11C,0.120000*%
G04 APERTURE END LIST*
D10*
X107500000Y-185800000D02*
X107500000Y-186200000D01*
X106100000Y-186000000D02*
X106350000Y-185600000D01*
X107300000Y-185600000D02*
X107700000Y-185600000D01*
X105450000Y-186100000D02*
X105450000Y-185800000D01*
X101100000Y-185800000D02*
X101100000Y-186200000D01*
X105650000Y-185600000D02*
G75*
G02*
X105250000Y-185600000I-200000J0D01*
G01*
X105250000Y-185600000D02*
G75*
G02*
X105650000Y-185600000I200000J0D01*
G01*
X100800000Y-185800000D02*
X101400000Y-185800000D01*
X103100000Y-186100000D02*
X103100000Y-185800000D01*
X102250000Y-185600000D02*
X102500000Y-186000000D01*
X102000000Y-186000000D02*
X102250000Y-185600000D01*
X103300000Y-185600000D02*
G75*
G02*
X102900000Y-185600000I-200000J0D01*
G01*
X102900000Y-185600000D02*
G75*
G02*
X103300000Y-185600000I200000J0D01*
G01*
X107200000Y-185800000D02*
X107800000Y-185800000D01*
X101000000Y-185400000D02*
X101200000Y-185400000D01*
X106350000Y-185600000D02*
X106600000Y-186000000D01*
X107400000Y-185400000D02*
X107600000Y-185400000D01*
X100900000Y-185600000D02*
X101300000Y-185600000D01*
D11*
%TO.C,C4*%
X102040580Y-66290000D02*
X101759420Y-66290000D01*
X102040580Y-67310000D02*
X101759420Y-67310000D01*
%TO.C,C7*%
X106559420Y-134190000D02*
X106840580Y-134190000D01*
X106559420Y-135210000D02*
X106840580Y-135210000D01*
%TO.C,C5*%
X102040580Y-63290000D02*
X101759420Y-63290000D01*
X102040580Y-64310000D02*
X101759420Y-64310000D01*
%TO.C,C2*%
X102040580Y-134290000D02*
X101759420Y-134290000D01*
X102040580Y-135310000D02*
X101759420Y-135310000D01*
%TO.C,C3*%
X102040580Y-100390000D02*
X101759420Y-100390000D01*
X102040580Y-101410000D02*
X101759420Y-101410000D01*
%TO.C,C6*%
X106559420Y-168290000D02*
X106840580Y-168290000D01*
X106559420Y-169310000D02*
X106840580Y-169310000D01*
%TO.C,C9*%
X106559420Y-65990000D02*
X106840580Y-65990000D01*
X106559420Y-67010000D02*
X106840580Y-67010000D01*
%TO.C,C1*%
X102040580Y-168590000D02*
X101759420Y-168590000D01*
X102040580Y-169610000D02*
X101759420Y-169610000D01*
%TO.C,C8*%
X106559420Y-100090000D02*
X106840580Y-100090000D01*
X106559420Y-101110000D02*
X106840580Y-101110000D01*
%TO.C,C10*%
X106559420Y-62490000D02*
X106840580Y-62490000D01*
X106559420Y-63510000D02*
X106840580Y-63510000D01*
%TD*%
M02*
