%TF.GenerationSoftware,KiCad,Pcbnew,9.0.3*%
%TF.CreationDate,2025-08-19T12:25:47-04:00*%
%TF.ProjectId,flowstick_led_strip_panel,666c6f77-7374-4696-936b-5f6c65645f73,rev?*%
%TF.SameCoordinates,Original*%
%TF.FileFunction,Paste,Top*%
%TF.FilePolarity,Positive*%
%FSLAX46Y46*%
G04 Gerber Fmt 4.6, Leading zero omitted, Abs format (unit mm)*
G04 Created by KiCad (PCBNEW 9.0.3) date 2025-08-19 12:25:47*
%MOMM*%
%LPD*%
G01*
G04 APERTURE LIST*
%ADD10R,0.900000X0.500000*%
G04 APERTURE END LIST*
D10*
%TO.C,D35*%
X116750000Y-45600000D03*
X118250000Y-46400000D03*
X116750000Y-46400000D03*
X116750000Y-44800000D03*
X118250000Y-44800000D03*
X118250000Y-45600000D03*
%TD*%
%TO.C,D57*%
X122150000Y-101400000D03*
X123650000Y-102200000D03*
X122150000Y-102200000D03*
X122150000Y-100600000D03*
X123650000Y-100600000D03*
X123650000Y-101400000D03*
%TD*%
%TO.C,D17*%
X116750000Y-101400000D03*
X118250000Y-102200000D03*
X116750000Y-102200000D03*
X116750000Y-100600000D03*
X118250000Y-100600000D03*
X118250000Y-101400000D03*
%TD*%
%TO.C,D75*%
X122150000Y-45600000D03*
X123650000Y-46400000D03*
X122150000Y-46400000D03*
X122150000Y-44800000D03*
X123650000Y-44800000D03*
X123650000Y-45600000D03*
%TD*%
%TO.C,D76*%
X122150000Y-42500000D03*
X123650000Y-43300000D03*
X122150000Y-43300000D03*
X122150000Y-41700000D03*
X123650000Y-41700000D03*
X123650000Y-42500000D03*
%TD*%
%TO.C,D47*%
X122150000Y-132400000D03*
X123650000Y-133200000D03*
X122150000Y-133200000D03*
X122150000Y-131600000D03*
X123650000Y-131600000D03*
X123650000Y-132400000D03*
%TD*%
%TO.C,D68*%
X122150000Y-67300000D03*
X123650000Y-68100000D03*
X122150000Y-68100000D03*
X122150000Y-66500000D03*
X123650000Y-66500000D03*
X123650000Y-67300000D03*
%TD*%
%TO.C,D34*%
X116750000Y-48700000D03*
X118250000Y-49500000D03*
X116750000Y-49500000D03*
X116750000Y-47900000D03*
X118250000Y-47900000D03*
X118250000Y-48700000D03*
%TD*%
%TO.C,D4*%
X116750000Y-141700000D03*
X118250000Y-142500000D03*
X116750000Y-142500000D03*
X116750000Y-140900000D03*
X118250000Y-140900000D03*
X118250000Y-141700000D03*
%TD*%
%TO.C,D79*%
X122150000Y-33200000D03*
X123650000Y-34000000D03*
X122150000Y-34000000D03*
X122150000Y-32400000D03*
X123650000Y-32400000D03*
X123650000Y-33200000D03*
%TD*%
%TO.C,D7*%
X116750000Y-132400000D03*
X118250000Y-133200000D03*
X116750000Y-133200000D03*
X116750000Y-131600000D03*
X118250000Y-131600000D03*
X118250000Y-132400000D03*
%TD*%
%TO.C,D54*%
X122150000Y-110700000D03*
X123650000Y-111500000D03*
X122150000Y-111500000D03*
X122150000Y-109900000D03*
X123650000Y-109900000D03*
X123650000Y-110700000D03*
%TD*%
%TO.C,D63*%
X122150000Y-82800000D03*
X123650000Y-83600000D03*
X122150000Y-83600000D03*
X122150000Y-82000000D03*
X123650000Y-82000000D03*
X123650000Y-82800000D03*
%TD*%
%TO.C,D24*%
X116750000Y-79700000D03*
X118250000Y-80500000D03*
X116750000Y-80500000D03*
X116750000Y-78900000D03*
X118250000Y-78900000D03*
X118250000Y-79700000D03*
%TD*%
%TO.C,D78*%
X122150000Y-36300000D03*
X123650000Y-37100000D03*
X122150000Y-37100000D03*
X122150000Y-35500000D03*
X123650000Y-35500000D03*
X123650000Y-36300000D03*
%TD*%
%TO.C,D55*%
X122150000Y-107600000D03*
X123650000Y-108400000D03*
X122150000Y-108400000D03*
X122150000Y-106800000D03*
X123650000Y-106800000D03*
X123650000Y-107600000D03*
%TD*%
%TO.C,D50*%
X122150000Y-123100000D03*
X123650000Y-123900000D03*
X122150000Y-123900000D03*
X122150000Y-122300000D03*
X123650000Y-122300000D03*
X123650000Y-123100000D03*
%TD*%
%TO.C,D15*%
X116750000Y-107600000D03*
X118250000Y-108400000D03*
X116750000Y-108400000D03*
X116750000Y-106800000D03*
X118250000Y-106800000D03*
X118250000Y-107600000D03*
%TD*%
%TO.C,D43*%
X122150000Y-144800000D03*
X123650000Y-145600000D03*
X122150000Y-145600000D03*
X122150000Y-144000000D03*
X123650000Y-144000000D03*
X123650000Y-144800000D03*
%TD*%
%TO.C,D67*%
X122150000Y-70400000D03*
X123650000Y-71200000D03*
X122150000Y-71200000D03*
X122150000Y-69600000D03*
X123650000Y-69600000D03*
X123650000Y-70400000D03*
%TD*%
%TO.C,D48*%
X122150000Y-129300000D03*
X123650000Y-130100000D03*
X122150000Y-130100000D03*
X122150000Y-128500000D03*
X123650000Y-128500000D03*
X123650000Y-129300000D03*
%TD*%
%TO.C,D11*%
X116750000Y-120000000D03*
X118250000Y-120800000D03*
X116750000Y-120800000D03*
X116750000Y-119200000D03*
X118250000Y-119200000D03*
X118250000Y-120000000D03*
%TD*%
%TO.C,D58*%
X122150000Y-98300000D03*
X123650000Y-99100000D03*
X122150000Y-99100000D03*
X122150000Y-97500000D03*
X123650000Y-97500000D03*
X123650000Y-98300000D03*
%TD*%
%TO.C,D41*%
X122150000Y-151000000D03*
X123650000Y-151800000D03*
X122150000Y-151800000D03*
X122150000Y-150200000D03*
X123650000Y-150200000D03*
X123650000Y-151000000D03*
%TD*%
%TO.C,D25*%
X116750000Y-76600000D03*
X118250000Y-77400000D03*
X116750000Y-77400000D03*
X116750000Y-75800000D03*
X118250000Y-75800000D03*
X118250000Y-76600000D03*
%TD*%
%TO.C,D46*%
X122150000Y-135500000D03*
X123650000Y-136300000D03*
X122150000Y-136300000D03*
X122150000Y-134700000D03*
X123650000Y-134700000D03*
X123650000Y-135500000D03*
%TD*%
%TO.C,D28*%
X116750000Y-67300000D03*
X118250000Y-68100000D03*
X116750000Y-68100000D03*
X116750000Y-66500000D03*
X118250000Y-66500000D03*
X118250000Y-67300000D03*
%TD*%
%TO.C,D31*%
X116750000Y-58000000D03*
X118250000Y-58800000D03*
X116750000Y-58800000D03*
X116750000Y-57200000D03*
X118250000Y-57200000D03*
X118250000Y-58000000D03*
%TD*%
%TO.C,D29*%
X116750000Y-64200000D03*
X118250000Y-65000000D03*
X116750000Y-65000000D03*
X116750000Y-63400000D03*
X118250000Y-63400000D03*
X118250000Y-64200000D03*
%TD*%
%TO.C,D27*%
X116750000Y-70400000D03*
X118250000Y-71200000D03*
X116750000Y-71200000D03*
X116750000Y-69600000D03*
X118250000Y-69600000D03*
X118250000Y-70400000D03*
%TD*%
%TO.C,D40*%
X116750000Y-30100000D03*
X118250000Y-30900000D03*
X116750000Y-30900000D03*
X116750000Y-29300000D03*
X118250000Y-29300000D03*
X118250000Y-30100000D03*
%TD*%
%TO.C,D38*%
X116750000Y-36300000D03*
X118250000Y-37100000D03*
X116750000Y-37100000D03*
X116750000Y-35500000D03*
X118250000Y-35500000D03*
X118250000Y-36300000D03*
%TD*%
%TO.C,D33*%
X116750000Y-51800000D03*
X118250000Y-52600000D03*
X116750000Y-52600000D03*
X116750000Y-51000000D03*
X118250000Y-51000000D03*
X118250000Y-51800000D03*
%TD*%
%TO.C,D80*%
X122150000Y-30100000D03*
X123650000Y-30900000D03*
X122150000Y-30900000D03*
X122150000Y-29300000D03*
X123650000Y-29300000D03*
X123650000Y-30100000D03*
%TD*%
%TO.C,D39*%
X116750000Y-33200000D03*
X118250000Y-34000000D03*
X116750000Y-34000000D03*
X116750000Y-32400000D03*
X118250000Y-32400000D03*
X118250000Y-33200000D03*
%TD*%
%TO.C,D62*%
X122150000Y-85900000D03*
X123650000Y-86700000D03*
X122150000Y-86700000D03*
X122150000Y-85100000D03*
X123650000Y-85100000D03*
X123650000Y-85900000D03*
%TD*%
%TO.C,D64*%
X122150000Y-79700000D03*
X123650000Y-80500000D03*
X122150000Y-80500000D03*
X122150000Y-78900000D03*
X123650000Y-78900000D03*
X123650000Y-79700000D03*
%TD*%
%TO.C,D30*%
X116750000Y-61100000D03*
X118250000Y-61900000D03*
X116750000Y-61900000D03*
X116750000Y-60300000D03*
X118250000Y-60300000D03*
X118250000Y-61100000D03*
%TD*%
%TO.C,D13*%
X116750000Y-113800000D03*
X118250000Y-114600000D03*
X116750000Y-114600000D03*
X116750000Y-113000000D03*
X118250000Y-113000000D03*
X118250000Y-113800000D03*
%TD*%
%TO.C,D16*%
X116750000Y-104500000D03*
X118250000Y-105300000D03*
X116750000Y-105300000D03*
X116750000Y-103700000D03*
X118250000Y-103700000D03*
X118250000Y-104500000D03*
%TD*%
%TO.C,D21*%
X116750000Y-89000000D03*
X118250000Y-89800000D03*
X116750000Y-89800000D03*
X116750000Y-88200000D03*
X118250000Y-88200000D03*
X118250000Y-89000000D03*
%TD*%
%TO.C,D66*%
X122150000Y-73500000D03*
X123650000Y-74300000D03*
X122150000Y-74300000D03*
X122150000Y-72700000D03*
X123650000Y-72700000D03*
X123650000Y-73500000D03*
%TD*%
%TO.C,D61*%
X122150000Y-89000000D03*
X123650000Y-89800000D03*
X122150000Y-89800000D03*
X122150000Y-88200000D03*
X123650000Y-88200000D03*
X123650000Y-89000000D03*
%TD*%
%TO.C,D12*%
X116750000Y-116900000D03*
X118250000Y-117700000D03*
X116750000Y-117700000D03*
X116750000Y-116100000D03*
X118250000Y-116100000D03*
X118250000Y-116900000D03*
%TD*%
%TO.C,D10*%
X116750000Y-123100000D03*
X118250000Y-123900000D03*
X116750000Y-123900000D03*
X116750000Y-122300000D03*
X118250000Y-122300000D03*
X118250000Y-123100000D03*
%TD*%
%TO.C,D56*%
X122150000Y-104500000D03*
X123650000Y-105300000D03*
X122150000Y-105300000D03*
X122150000Y-103700000D03*
X123650000Y-103700000D03*
X123650000Y-104500000D03*
%TD*%
%TO.C,D32*%
X116750000Y-54900000D03*
X118250000Y-55700000D03*
X116750000Y-55700000D03*
X116750000Y-54100000D03*
X118250000Y-54100000D03*
X118250000Y-54900000D03*
%TD*%
%TO.C,D18*%
X116750000Y-98300000D03*
X118250000Y-99100000D03*
X116750000Y-99100000D03*
X116750000Y-97500000D03*
X118250000Y-97500000D03*
X118250000Y-98300000D03*
%TD*%
%TO.C,D51*%
X122150000Y-120000000D03*
X123650000Y-120800000D03*
X122150000Y-120800000D03*
X122150000Y-119200000D03*
X123650000Y-119200000D03*
X123650000Y-120000000D03*
%TD*%
%TO.C,D72*%
X122150000Y-54900000D03*
X123650000Y-55700000D03*
X122150000Y-55700000D03*
X122150000Y-54100000D03*
X123650000Y-54100000D03*
X123650000Y-54900000D03*
%TD*%
%TO.C,D14*%
X116750000Y-110700000D03*
X118250000Y-111500000D03*
X116750000Y-111500000D03*
X116750000Y-109900000D03*
X118250000Y-109900000D03*
X118250000Y-110700000D03*
%TD*%
%TO.C,D6*%
X116750000Y-135500000D03*
X118250000Y-136300000D03*
X116750000Y-136300000D03*
X116750000Y-134700000D03*
X118250000Y-134700000D03*
X118250000Y-135500000D03*
%TD*%
%TO.C,D3*%
X116750000Y-144800000D03*
X118250000Y-145600000D03*
X116750000Y-145600000D03*
X116750000Y-144000000D03*
X118250000Y-144000000D03*
X118250000Y-144800000D03*
%TD*%
%TO.C,D69*%
X122150000Y-64200000D03*
X123650000Y-65000000D03*
X122150000Y-65000000D03*
X122150000Y-63400000D03*
X123650000Y-63400000D03*
X123650000Y-64200000D03*
%TD*%
%TO.C,D45*%
X122150000Y-138600000D03*
X123650000Y-139400000D03*
X122150000Y-139400000D03*
X122150000Y-137800000D03*
X123650000Y-137800000D03*
X123650000Y-138600000D03*
%TD*%
%TO.C,D49*%
X122150000Y-126200000D03*
X123650000Y-127000000D03*
X122150000Y-127000000D03*
X122150000Y-125400000D03*
X123650000Y-125400000D03*
X123650000Y-126200000D03*
%TD*%
%TO.C,D36*%
X116750000Y-42500000D03*
X118250000Y-43300000D03*
X116750000Y-43300000D03*
X116750000Y-41700000D03*
X118250000Y-41700000D03*
X118250000Y-42500000D03*
%TD*%
%TO.C,D37*%
X116750000Y-39400000D03*
X118250000Y-40200000D03*
X116750000Y-40200000D03*
X116750000Y-38600000D03*
X118250000Y-38600000D03*
X118250000Y-39400000D03*
%TD*%
%TO.C,D53*%
X122150000Y-113800000D03*
X123650000Y-114600000D03*
X122150000Y-114600000D03*
X122150000Y-113000000D03*
X123650000Y-113000000D03*
X123650000Y-113800000D03*
%TD*%
%TO.C,D70*%
X122150000Y-61100000D03*
X123650000Y-61900000D03*
X122150000Y-61900000D03*
X122150000Y-60300000D03*
X123650000Y-60300000D03*
X123650000Y-61100000D03*
%TD*%
%TO.C,D71*%
X122150000Y-58000000D03*
X123650000Y-58800000D03*
X122150000Y-58800000D03*
X122150000Y-57200000D03*
X123650000Y-57200000D03*
X123650000Y-58000000D03*
%TD*%
%TO.C,D19*%
X116750000Y-95200000D03*
X118250000Y-96000000D03*
X116750000Y-96000000D03*
X116750000Y-94400000D03*
X118250000Y-94400000D03*
X118250000Y-95200000D03*
%TD*%
%TO.C,D42*%
X122150000Y-147900000D03*
X123650000Y-148700000D03*
X122150000Y-148700000D03*
X122150000Y-147100000D03*
X123650000Y-147100000D03*
X123650000Y-147900000D03*
%TD*%
%TO.C,D9*%
X116750000Y-126200000D03*
X118250000Y-127000000D03*
X116750000Y-127000000D03*
X116750000Y-125400000D03*
X118250000Y-125400000D03*
X118250000Y-126200000D03*
%TD*%
%TO.C,D59*%
X122150000Y-95200000D03*
X123650000Y-96000000D03*
X122150000Y-96000000D03*
X122150000Y-94400000D03*
X123650000Y-94400000D03*
X123650000Y-95200000D03*
%TD*%
%TO.C,D52*%
X122150000Y-116900000D03*
X123650000Y-117700000D03*
X122150000Y-117700000D03*
X122150000Y-116100000D03*
X123650000Y-116100000D03*
X123650000Y-116900000D03*
%TD*%
%TO.C,D22*%
X116750000Y-85900000D03*
X118250000Y-86700000D03*
X116750000Y-86700000D03*
X116750000Y-85100000D03*
X118250000Y-85100000D03*
X118250000Y-85900000D03*
%TD*%
%TO.C,D8*%
X116750000Y-129300000D03*
X118250000Y-130100000D03*
X116750000Y-130100000D03*
X116750000Y-128500000D03*
X118250000Y-128500000D03*
X118250000Y-129300000D03*
%TD*%
%TO.C,D73*%
X122150000Y-51800000D03*
X123650000Y-52600000D03*
X122150000Y-52600000D03*
X122150000Y-51000000D03*
X123650000Y-51000000D03*
X123650000Y-51800000D03*
%TD*%
%TO.C,D74*%
X122150000Y-48700000D03*
X123650000Y-49500000D03*
X122150000Y-49500000D03*
X122150000Y-47900000D03*
X123650000Y-47900000D03*
X123650000Y-48700000D03*
%TD*%
%TO.C,D60*%
X122150000Y-92100000D03*
X123650000Y-92900000D03*
X122150000Y-92900000D03*
X122150000Y-91300000D03*
X123650000Y-91300000D03*
X123650000Y-92100000D03*
%TD*%
%TO.C,D23*%
X116750000Y-82800000D03*
X118250000Y-83600000D03*
X116750000Y-83600000D03*
X116750000Y-82000000D03*
X118250000Y-82000000D03*
X118250000Y-82800000D03*
%TD*%
%TO.C,D26*%
X116750000Y-73500000D03*
X118250000Y-74300000D03*
X116750000Y-74300000D03*
X116750000Y-72700000D03*
X118250000Y-72700000D03*
X118250000Y-73500000D03*
%TD*%
%TO.C,D65*%
X122150000Y-76600000D03*
X123650000Y-77400000D03*
X122150000Y-77400000D03*
X122150000Y-75800000D03*
X123650000Y-75800000D03*
X123650000Y-76600000D03*
%TD*%
%TO.C,D44*%
X122150000Y-141700000D03*
X123650000Y-142500000D03*
X122150000Y-142500000D03*
X122150000Y-140900000D03*
X123650000Y-140900000D03*
X123650000Y-141700000D03*
%TD*%
%TO.C,D2*%
X116750000Y-147900000D03*
X118250000Y-148700000D03*
X116750000Y-148700000D03*
X116750000Y-147100000D03*
X118250000Y-147100000D03*
X118250000Y-147900000D03*
%TD*%
%TO.C,D77*%
X122150000Y-39400000D03*
X123650000Y-40200000D03*
X122150000Y-40200000D03*
X122150000Y-38600000D03*
X123650000Y-38600000D03*
X123650000Y-39400000D03*
%TD*%
%TO.C,D5*%
X116750000Y-138600000D03*
X118250000Y-139400000D03*
X116750000Y-139400000D03*
X116750000Y-137800000D03*
X118250000Y-137800000D03*
X118250000Y-138600000D03*
%TD*%
%TO.C,D20*%
X116750000Y-92100000D03*
X118250000Y-92900000D03*
X116750000Y-92900000D03*
X116750000Y-91300000D03*
X118250000Y-91300000D03*
X118250000Y-92100000D03*
%TD*%
%TO.C,D1*%
X116750000Y-151000000D03*
X118250000Y-151800000D03*
X116750000Y-151800000D03*
X116750000Y-150200000D03*
X118250000Y-150200000D03*
X118250000Y-151000000D03*
%TD*%
%TO.C,D35*%
X105950000Y-45600000D03*
X107450000Y-46400000D03*
X105950000Y-46400000D03*
X105950000Y-44800000D03*
X107450000Y-44800000D03*
X107450000Y-45600000D03*
%TD*%
%TO.C,D17*%
X105950000Y-101400000D03*
X107450000Y-102200000D03*
X105950000Y-102200000D03*
X105950000Y-100600000D03*
X107450000Y-100600000D03*
X107450000Y-101400000D03*
%TD*%
%TO.C,D76*%
X111350000Y-42500000D03*
X112850000Y-43300000D03*
X111350000Y-43300000D03*
X111350000Y-41700000D03*
X112850000Y-41700000D03*
X112850000Y-42500000D03*
%TD*%
%TO.C,D68*%
X111350000Y-67300000D03*
X112850000Y-68100000D03*
X111350000Y-68100000D03*
X111350000Y-66500000D03*
X112850000Y-66500000D03*
X112850000Y-67300000D03*
%TD*%
%TO.C,D34*%
X105950000Y-48700000D03*
X107450000Y-49500000D03*
X105950000Y-49500000D03*
X105950000Y-47900000D03*
X107450000Y-47900000D03*
X107450000Y-48700000D03*
%TD*%
%TO.C,D4*%
X105950000Y-141700000D03*
X107450000Y-142500000D03*
X105950000Y-142500000D03*
X105950000Y-140900000D03*
X107450000Y-140900000D03*
X107450000Y-141700000D03*
%TD*%
%TO.C,D79*%
X111350000Y-33200000D03*
X112850000Y-34000000D03*
X111350000Y-34000000D03*
X111350000Y-32400000D03*
X112850000Y-32400000D03*
X112850000Y-33200000D03*
%TD*%
%TO.C,D75*%
X111350000Y-45600000D03*
X112850000Y-46400000D03*
X111350000Y-46400000D03*
X111350000Y-44800000D03*
X112850000Y-44800000D03*
X112850000Y-45600000D03*
%TD*%
%TO.C,D63*%
X111350000Y-82800000D03*
X112850000Y-83600000D03*
X111350000Y-83600000D03*
X111350000Y-82000000D03*
X112850000Y-82000000D03*
X112850000Y-82800000D03*
%TD*%
%TO.C,D39*%
X105950000Y-33200000D03*
X107450000Y-34000000D03*
X105950000Y-34000000D03*
X105950000Y-32400000D03*
X107450000Y-32400000D03*
X107450000Y-33200000D03*
%TD*%
%TO.C,D46*%
X111350000Y-135500000D03*
X112850000Y-136300000D03*
X111350000Y-136300000D03*
X111350000Y-134700000D03*
X112850000Y-134700000D03*
X112850000Y-135500000D03*
%TD*%
%TO.C,D78*%
X111350000Y-36300000D03*
X112850000Y-37100000D03*
X111350000Y-37100000D03*
X111350000Y-35500000D03*
X112850000Y-35500000D03*
X112850000Y-36300000D03*
%TD*%
%TO.C,D11*%
X105950000Y-120000000D03*
X107450000Y-120800000D03*
X105950000Y-120800000D03*
X105950000Y-119200000D03*
X107450000Y-119200000D03*
X107450000Y-120000000D03*
%TD*%
%TO.C,D55*%
X111350000Y-107600000D03*
X112850000Y-108400000D03*
X111350000Y-108400000D03*
X111350000Y-106800000D03*
X112850000Y-106800000D03*
X112850000Y-107600000D03*
%TD*%
%TO.C,D7*%
X105950000Y-132400000D03*
X107450000Y-133200000D03*
X105950000Y-133200000D03*
X105950000Y-131600000D03*
X107450000Y-131600000D03*
X107450000Y-132400000D03*
%TD*%
%TO.C,D50*%
X111350000Y-123100000D03*
X112850000Y-123900000D03*
X111350000Y-123900000D03*
X111350000Y-122300000D03*
X112850000Y-122300000D03*
X112850000Y-123100000D03*
%TD*%
%TO.C,D21*%
X105950000Y-89000000D03*
X107450000Y-89800000D03*
X105950000Y-89800000D03*
X105950000Y-88200000D03*
X107450000Y-88200000D03*
X107450000Y-89000000D03*
%TD*%
%TO.C,D73*%
X111350000Y-51800000D03*
X112850000Y-52600000D03*
X111350000Y-52600000D03*
X111350000Y-51000000D03*
X112850000Y-51000000D03*
X112850000Y-51800000D03*
%TD*%
%TO.C,D24*%
X105950000Y-79700000D03*
X107450000Y-80500000D03*
X105950000Y-80500000D03*
X105950000Y-78900000D03*
X107450000Y-78900000D03*
X107450000Y-79700000D03*
%TD*%
%TO.C,D67*%
X111350000Y-70400000D03*
X112850000Y-71200000D03*
X111350000Y-71200000D03*
X111350000Y-69600000D03*
X112850000Y-69600000D03*
X112850000Y-70400000D03*
%TD*%
%TO.C,D48*%
X111350000Y-129300000D03*
X112850000Y-130100000D03*
X111350000Y-130100000D03*
X111350000Y-128500000D03*
X112850000Y-128500000D03*
X112850000Y-129300000D03*
%TD*%
%TO.C,D58*%
X111350000Y-98300000D03*
X112850000Y-99100000D03*
X111350000Y-99100000D03*
X111350000Y-97500000D03*
X112850000Y-97500000D03*
X112850000Y-98300000D03*
%TD*%
%TO.C,D59*%
X111350000Y-95200000D03*
X112850000Y-96000000D03*
X111350000Y-96000000D03*
X111350000Y-94400000D03*
X112850000Y-94400000D03*
X112850000Y-95200000D03*
%TD*%
%TO.C,D41*%
X111350000Y-151000000D03*
X112850000Y-151800000D03*
X111350000Y-151800000D03*
X111350000Y-150200000D03*
X112850000Y-150200000D03*
X112850000Y-151000000D03*
%TD*%
%TO.C,D43*%
X111350000Y-144800000D03*
X112850000Y-145600000D03*
X111350000Y-145600000D03*
X111350000Y-144000000D03*
X112850000Y-144000000D03*
X112850000Y-144800000D03*
%TD*%
%TO.C,D69*%
X111350000Y-64200000D03*
X112850000Y-65000000D03*
X111350000Y-65000000D03*
X111350000Y-63400000D03*
X112850000Y-63400000D03*
X112850000Y-64200000D03*
%TD*%
%TO.C,D25*%
X105950000Y-76600000D03*
X107450000Y-77400000D03*
X105950000Y-77400000D03*
X105950000Y-75800000D03*
X107450000Y-75800000D03*
X107450000Y-76600000D03*
%TD*%
%TO.C,D31*%
X105950000Y-58000000D03*
X107450000Y-58800000D03*
X105950000Y-58800000D03*
X105950000Y-57200000D03*
X107450000Y-57200000D03*
X107450000Y-58000000D03*
%TD*%
%TO.C,D26*%
X105950000Y-73500000D03*
X107450000Y-74300000D03*
X105950000Y-74300000D03*
X105950000Y-72700000D03*
X107450000Y-72700000D03*
X107450000Y-73500000D03*
%TD*%
%TO.C,D53*%
X111350000Y-113800000D03*
X112850000Y-114600000D03*
X111350000Y-114600000D03*
X111350000Y-113000000D03*
X112850000Y-113000000D03*
X112850000Y-113800000D03*
%TD*%
%TO.C,D57*%
X111350000Y-101400000D03*
X112850000Y-102200000D03*
X111350000Y-102200000D03*
X111350000Y-100600000D03*
X112850000Y-100600000D03*
X112850000Y-101400000D03*
%TD*%
%TO.C,D29*%
X105950000Y-64200000D03*
X107450000Y-65000000D03*
X105950000Y-65000000D03*
X105950000Y-63400000D03*
X107450000Y-63400000D03*
X107450000Y-64200000D03*
%TD*%
%TO.C,D23*%
X105950000Y-82800000D03*
X107450000Y-83600000D03*
X105950000Y-83600000D03*
X105950000Y-82000000D03*
X107450000Y-82000000D03*
X107450000Y-82800000D03*
%TD*%
%TO.C,D54*%
X111350000Y-110700000D03*
X112850000Y-111500000D03*
X111350000Y-111500000D03*
X111350000Y-109900000D03*
X112850000Y-109900000D03*
X112850000Y-110700000D03*
%TD*%
%TO.C,D27*%
X105950000Y-70400000D03*
X107450000Y-71200000D03*
X105950000Y-71200000D03*
X105950000Y-69600000D03*
X107450000Y-69600000D03*
X107450000Y-70400000D03*
%TD*%
%TO.C,D40*%
X105950000Y-30100000D03*
X107450000Y-30900000D03*
X105950000Y-30900000D03*
X105950000Y-29300000D03*
X107450000Y-29300000D03*
X107450000Y-30100000D03*
%TD*%
%TO.C,D38*%
X105950000Y-36300000D03*
X107450000Y-37100000D03*
X105950000Y-37100000D03*
X105950000Y-35500000D03*
X107450000Y-35500000D03*
X107450000Y-36300000D03*
%TD*%
%TO.C,D72*%
X111350000Y-54900000D03*
X112850000Y-55700000D03*
X111350000Y-55700000D03*
X111350000Y-54100000D03*
X112850000Y-54100000D03*
X112850000Y-54900000D03*
%TD*%
%TO.C,D9*%
X105950000Y-126200000D03*
X107450000Y-127000000D03*
X105950000Y-127000000D03*
X105950000Y-125400000D03*
X107450000Y-125400000D03*
X107450000Y-126200000D03*
%TD*%
%TO.C,D33*%
X105950000Y-51800000D03*
X107450000Y-52600000D03*
X105950000Y-52600000D03*
X105950000Y-51000000D03*
X107450000Y-51000000D03*
X107450000Y-51800000D03*
%TD*%
%TO.C,D30*%
X105950000Y-61100000D03*
X107450000Y-61900000D03*
X105950000Y-61900000D03*
X105950000Y-60300000D03*
X107450000Y-60300000D03*
X107450000Y-61100000D03*
%TD*%
%TO.C,D64*%
X111350000Y-79700000D03*
X112850000Y-80500000D03*
X111350000Y-80500000D03*
X111350000Y-78900000D03*
X112850000Y-78900000D03*
X112850000Y-79700000D03*
%TD*%
%TO.C,D13*%
X105950000Y-113800000D03*
X107450000Y-114600000D03*
X105950000Y-114600000D03*
X105950000Y-113000000D03*
X107450000Y-113000000D03*
X107450000Y-113800000D03*
%TD*%
%TO.C,D80*%
X111350000Y-30100000D03*
X112850000Y-30900000D03*
X111350000Y-30900000D03*
X111350000Y-29300000D03*
X112850000Y-29300000D03*
X112850000Y-30100000D03*
%TD*%
%TO.C,D49*%
X111350000Y-126200000D03*
X112850000Y-127000000D03*
X111350000Y-127000000D03*
X111350000Y-125400000D03*
X112850000Y-125400000D03*
X112850000Y-126200000D03*
%TD*%
%TO.C,D10*%
X105950000Y-123100000D03*
X107450000Y-123900000D03*
X105950000Y-123900000D03*
X105950000Y-122300000D03*
X107450000Y-122300000D03*
X107450000Y-123100000D03*
%TD*%
%TO.C,D56*%
X111350000Y-104500000D03*
X112850000Y-105300000D03*
X111350000Y-105300000D03*
X111350000Y-103700000D03*
X112850000Y-103700000D03*
X112850000Y-104500000D03*
%TD*%
%TO.C,D32*%
X105950000Y-54900000D03*
X107450000Y-55700000D03*
X105950000Y-55700000D03*
X105950000Y-54100000D03*
X107450000Y-54100000D03*
X107450000Y-54900000D03*
%TD*%
%TO.C,D47*%
X111350000Y-132400000D03*
X112850000Y-133200000D03*
X111350000Y-133200000D03*
X111350000Y-131600000D03*
X112850000Y-131600000D03*
X112850000Y-132400000D03*
%TD*%
%TO.C,D18*%
X105950000Y-98300000D03*
X107450000Y-99100000D03*
X105950000Y-99100000D03*
X105950000Y-97500000D03*
X107450000Y-97500000D03*
X107450000Y-98300000D03*
%TD*%
%TO.C,D62*%
X111350000Y-85900000D03*
X112850000Y-86700000D03*
X111350000Y-86700000D03*
X111350000Y-85100000D03*
X112850000Y-85100000D03*
X112850000Y-85900000D03*
%TD*%
%TO.C,D51*%
X111350000Y-120000000D03*
X112850000Y-120800000D03*
X111350000Y-120800000D03*
X111350000Y-119200000D03*
X112850000Y-119200000D03*
X112850000Y-120000000D03*
%TD*%
%TO.C,D14*%
X105950000Y-110700000D03*
X107450000Y-111500000D03*
X105950000Y-111500000D03*
X105950000Y-109900000D03*
X107450000Y-109900000D03*
X107450000Y-110700000D03*
%TD*%
%TO.C,D16*%
X105950000Y-104500000D03*
X107450000Y-105300000D03*
X105950000Y-105300000D03*
X105950000Y-103700000D03*
X107450000Y-103700000D03*
X107450000Y-104500000D03*
%TD*%
%TO.C,D65*%
X111350000Y-76600000D03*
X112850000Y-77400000D03*
X111350000Y-77400000D03*
X111350000Y-75800000D03*
X112850000Y-75800000D03*
X112850000Y-76600000D03*
%TD*%
%TO.C,D6*%
X105950000Y-135500000D03*
X107450000Y-136300000D03*
X105950000Y-136300000D03*
X105950000Y-134700000D03*
X107450000Y-134700000D03*
X107450000Y-135500000D03*
%TD*%
%TO.C,D45*%
X111350000Y-138600000D03*
X112850000Y-139400000D03*
X111350000Y-139400000D03*
X111350000Y-137800000D03*
X112850000Y-137800000D03*
X112850000Y-138600000D03*
%TD*%
%TO.C,D66*%
X111350000Y-73500000D03*
X112850000Y-74300000D03*
X111350000Y-74300000D03*
X111350000Y-72700000D03*
X112850000Y-72700000D03*
X112850000Y-73500000D03*
%TD*%
%TO.C,D15*%
X105950000Y-107600000D03*
X107450000Y-108400000D03*
X105950000Y-108400000D03*
X105950000Y-106800000D03*
X107450000Y-106800000D03*
X107450000Y-107600000D03*
%TD*%
%TO.C,D36*%
X105950000Y-42500000D03*
X107450000Y-43300000D03*
X105950000Y-43300000D03*
X105950000Y-41700000D03*
X107450000Y-41700000D03*
X107450000Y-42500000D03*
%TD*%
%TO.C,D37*%
X105950000Y-39400000D03*
X107450000Y-40200000D03*
X105950000Y-40200000D03*
X105950000Y-38600000D03*
X107450000Y-38600000D03*
X107450000Y-39400000D03*
%TD*%
%TO.C,D71*%
X111350000Y-58000000D03*
X112850000Y-58800000D03*
X111350000Y-58800000D03*
X111350000Y-57200000D03*
X112850000Y-57200000D03*
X112850000Y-58000000D03*
%TD*%
%TO.C,D12*%
X105950000Y-116900000D03*
X107450000Y-117700000D03*
X105950000Y-117700000D03*
X105950000Y-116100000D03*
X107450000Y-116100000D03*
X107450000Y-116900000D03*
%TD*%
%TO.C,D19*%
X105950000Y-95200000D03*
X107450000Y-96000000D03*
X105950000Y-96000000D03*
X105950000Y-94400000D03*
X107450000Y-94400000D03*
X107450000Y-95200000D03*
%TD*%
%TO.C,D3*%
X105950000Y-144800000D03*
X107450000Y-145600000D03*
X105950000Y-145600000D03*
X105950000Y-144000000D03*
X107450000Y-144000000D03*
X107450000Y-144800000D03*
%TD*%
%TO.C,D28*%
X105950000Y-67300000D03*
X107450000Y-68100000D03*
X105950000Y-68100000D03*
X105950000Y-66500000D03*
X107450000Y-66500000D03*
X107450000Y-67300000D03*
%TD*%
%TO.C,D42*%
X111350000Y-147900000D03*
X112850000Y-148700000D03*
X111350000Y-148700000D03*
X111350000Y-147100000D03*
X112850000Y-147100000D03*
X112850000Y-147900000D03*
%TD*%
%TO.C,D52*%
X111350000Y-116900000D03*
X112850000Y-117700000D03*
X111350000Y-117700000D03*
X111350000Y-116100000D03*
X112850000Y-116100000D03*
X112850000Y-116900000D03*
%TD*%
%TO.C,D70*%
X111350000Y-61100000D03*
X112850000Y-61900000D03*
X111350000Y-61900000D03*
X111350000Y-60300000D03*
X112850000Y-60300000D03*
X112850000Y-61100000D03*
%TD*%
%TO.C,D60*%
X111350000Y-92100000D03*
X112850000Y-92900000D03*
X111350000Y-92900000D03*
X111350000Y-91300000D03*
X112850000Y-91300000D03*
X112850000Y-92100000D03*
%TD*%
%TO.C,D74*%
X111350000Y-48700000D03*
X112850000Y-49500000D03*
X111350000Y-49500000D03*
X111350000Y-47900000D03*
X112850000Y-47900000D03*
X112850000Y-48700000D03*
%TD*%
%TO.C,D44*%
X111350000Y-141700000D03*
X112850000Y-142500000D03*
X111350000Y-142500000D03*
X111350000Y-140900000D03*
X112850000Y-140900000D03*
X112850000Y-141700000D03*
%TD*%
%TO.C,D2*%
X105950000Y-147900000D03*
X107450000Y-148700000D03*
X105950000Y-148700000D03*
X105950000Y-147100000D03*
X107450000Y-147100000D03*
X107450000Y-147900000D03*
%TD*%
%TO.C,D61*%
X111350000Y-89000000D03*
X112850000Y-89800000D03*
X111350000Y-89800000D03*
X111350000Y-88200000D03*
X112850000Y-88200000D03*
X112850000Y-89000000D03*
%TD*%
%TO.C,D77*%
X111350000Y-39400000D03*
X112850000Y-40200000D03*
X111350000Y-40200000D03*
X111350000Y-38600000D03*
X112850000Y-38600000D03*
X112850000Y-39400000D03*
%TD*%
%TO.C,D5*%
X105950000Y-138600000D03*
X107450000Y-139400000D03*
X105950000Y-139400000D03*
X105950000Y-137800000D03*
X107450000Y-137800000D03*
X107450000Y-138600000D03*
%TD*%
%TO.C,D20*%
X105950000Y-92100000D03*
X107450000Y-92900000D03*
X105950000Y-92900000D03*
X105950000Y-91300000D03*
X107450000Y-91300000D03*
X107450000Y-92100000D03*
%TD*%
%TO.C,D22*%
X105950000Y-85900000D03*
X107450000Y-86700000D03*
X105950000Y-86700000D03*
X105950000Y-85100000D03*
X107450000Y-85100000D03*
X107450000Y-85900000D03*
%TD*%
%TO.C,D8*%
X105950000Y-129300000D03*
X107450000Y-130100000D03*
X105950000Y-130100000D03*
X105950000Y-128500000D03*
X107450000Y-128500000D03*
X107450000Y-129300000D03*
%TD*%
%TO.C,D1*%
X105950000Y-151000000D03*
X107450000Y-151800000D03*
X105950000Y-151800000D03*
X105950000Y-150200000D03*
X107450000Y-150200000D03*
X107450000Y-151000000D03*
%TD*%
%TO.C,D43*%
X100550000Y-144800000D03*
X102050000Y-145600000D03*
X100550000Y-145600000D03*
X100550000Y-144000000D03*
X102050000Y-144000000D03*
X102050000Y-144800000D03*
%TD*%
%TO.C,D35*%
X95150000Y-45600000D03*
X96650000Y-46400000D03*
X95150000Y-46400000D03*
X95150000Y-44800000D03*
X96650000Y-44800000D03*
X96650000Y-45600000D03*
%TD*%
%TO.C,D68*%
X100550000Y-67300000D03*
X102050000Y-68100000D03*
X100550000Y-68100000D03*
X100550000Y-66500000D03*
X102050000Y-66500000D03*
X102050000Y-67300000D03*
%TD*%
%TO.C,D45*%
X100550000Y-138600000D03*
X102050000Y-139400000D03*
X100550000Y-139400000D03*
X100550000Y-137800000D03*
X102050000Y-137800000D03*
X102050000Y-138600000D03*
%TD*%
%TO.C,D17*%
X95150000Y-101400000D03*
X96650000Y-102200000D03*
X95150000Y-102200000D03*
X95150000Y-100600000D03*
X96650000Y-100600000D03*
X96650000Y-101400000D03*
%TD*%
%TO.C,D1*%
X95150000Y-151000000D03*
X96650000Y-151800000D03*
X95150000Y-151800000D03*
X95150000Y-150200000D03*
X96650000Y-150200000D03*
X96650000Y-151000000D03*
%TD*%
%TO.C,D76*%
X100550000Y-42500000D03*
X102050000Y-43300000D03*
X100550000Y-43300000D03*
X100550000Y-41700000D03*
X102050000Y-41700000D03*
X102050000Y-42500000D03*
%TD*%
%TO.C,D73*%
X100550000Y-51800000D03*
X102050000Y-52600000D03*
X100550000Y-52600000D03*
X100550000Y-51000000D03*
X102050000Y-51000000D03*
X102050000Y-51800000D03*
%TD*%
%TO.C,D34*%
X95150000Y-48700000D03*
X96650000Y-49500000D03*
X95150000Y-49500000D03*
X95150000Y-47900000D03*
X96650000Y-47900000D03*
X96650000Y-48700000D03*
%TD*%
%TO.C,D59*%
X100550000Y-95200000D03*
X102050000Y-96000000D03*
X100550000Y-96000000D03*
X100550000Y-94400000D03*
X102050000Y-94400000D03*
X102050000Y-95200000D03*
%TD*%
%TO.C,D4*%
X95150000Y-141700000D03*
X96650000Y-142500000D03*
X95150000Y-142500000D03*
X95150000Y-140900000D03*
X96650000Y-140900000D03*
X96650000Y-141700000D03*
%TD*%
%TO.C,D79*%
X100550000Y-33200000D03*
X102050000Y-34000000D03*
X100550000Y-34000000D03*
X100550000Y-32400000D03*
X102050000Y-32400000D03*
X102050000Y-33200000D03*
%TD*%
%TO.C,D75*%
X100550000Y-45600000D03*
X102050000Y-46400000D03*
X100550000Y-46400000D03*
X100550000Y-44800000D03*
X102050000Y-44800000D03*
X102050000Y-45600000D03*
%TD*%
%TO.C,D63*%
X100550000Y-82800000D03*
X102050000Y-83600000D03*
X100550000Y-83600000D03*
X100550000Y-82000000D03*
X102050000Y-82000000D03*
X102050000Y-82800000D03*
%TD*%
%TO.C,D9*%
X95150000Y-126200000D03*
X96650000Y-127000000D03*
X95150000Y-127000000D03*
X95150000Y-125400000D03*
X96650000Y-125400000D03*
X96650000Y-126200000D03*
%TD*%
%TO.C,D78*%
X100550000Y-36300000D03*
X102050000Y-37100000D03*
X100550000Y-37100000D03*
X100550000Y-35500000D03*
X102050000Y-35500000D03*
X102050000Y-36300000D03*
%TD*%
%TO.C,D21*%
X95150000Y-89000000D03*
X96650000Y-89800000D03*
X95150000Y-89800000D03*
X95150000Y-88200000D03*
X96650000Y-88200000D03*
X96650000Y-89000000D03*
%TD*%
%TO.C,D19*%
X95150000Y-95200000D03*
X96650000Y-96000000D03*
X95150000Y-96000000D03*
X95150000Y-94400000D03*
X96650000Y-94400000D03*
X96650000Y-95200000D03*
%TD*%
%TO.C,D55*%
X100550000Y-107600000D03*
X102050000Y-108400000D03*
X100550000Y-108400000D03*
X100550000Y-106800000D03*
X102050000Y-106800000D03*
X102050000Y-107600000D03*
%TD*%
%TO.C,D7*%
X95150000Y-132400000D03*
X96650000Y-133200000D03*
X95150000Y-133200000D03*
X95150000Y-131600000D03*
X96650000Y-131600000D03*
X96650000Y-132400000D03*
%TD*%
%TO.C,D71*%
X100550000Y-58000000D03*
X102050000Y-58800000D03*
X100550000Y-58800000D03*
X100550000Y-57200000D03*
X102050000Y-57200000D03*
X102050000Y-58000000D03*
%TD*%
%TO.C,D50*%
X100550000Y-123100000D03*
X102050000Y-123900000D03*
X100550000Y-123900000D03*
X100550000Y-122300000D03*
X102050000Y-122300000D03*
X102050000Y-123100000D03*
%TD*%
%TO.C,D25*%
X95150000Y-76600000D03*
X96650000Y-77400000D03*
X95150000Y-77400000D03*
X95150000Y-75800000D03*
X96650000Y-75800000D03*
X96650000Y-76600000D03*
%TD*%
%TO.C,D24*%
X95150000Y-79700000D03*
X96650000Y-80500000D03*
X95150000Y-80500000D03*
X95150000Y-78900000D03*
X96650000Y-78900000D03*
X96650000Y-79700000D03*
%TD*%
%TO.C,D44*%
X100550000Y-141700000D03*
X102050000Y-142500000D03*
X100550000Y-142500000D03*
X100550000Y-140900000D03*
X102050000Y-140900000D03*
X102050000Y-141700000D03*
%TD*%
%TO.C,D67*%
X100550000Y-70400000D03*
X102050000Y-71200000D03*
X100550000Y-71200000D03*
X100550000Y-69600000D03*
X102050000Y-69600000D03*
X102050000Y-70400000D03*
%TD*%
%TO.C,D48*%
X100550000Y-129300000D03*
X102050000Y-130100000D03*
X100550000Y-130100000D03*
X100550000Y-128500000D03*
X102050000Y-128500000D03*
X102050000Y-129300000D03*
%TD*%
%TO.C,D11*%
X95150000Y-120000000D03*
X96650000Y-120800000D03*
X95150000Y-120800000D03*
X95150000Y-119200000D03*
X96650000Y-119200000D03*
X96650000Y-120000000D03*
%TD*%
%TO.C,D58*%
X100550000Y-98300000D03*
X102050000Y-99100000D03*
X100550000Y-99100000D03*
X100550000Y-97500000D03*
X102050000Y-97500000D03*
X102050000Y-98300000D03*
%TD*%
%TO.C,D41*%
X100550000Y-151000000D03*
X102050000Y-151800000D03*
X100550000Y-151800000D03*
X100550000Y-150200000D03*
X102050000Y-150200000D03*
X102050000Y-151000000D03*
%TD*%
%TO.C,D31*%
X95150000Y-58000000D03*
X96650000Y-58800000D03*
X95150000Y-58800000D03*
X95150000Y-57200000D03*
X96650000Y-57200000D03*
X96650000Y-58000000D03*
%TD*%
%TO.C,D29*%
X95150000Y-64200000D03*
X96650000Y-65000000D03*
X95150000Y-65000000D03*
X95150000Y-63400000D03*
X96650000Y-63400000D03*
X96650000Y-64200000D03*
%TD*%
%TO.C,D80*%
X100550000Y-30100000D03*
X102050000Y-30900000D03*
X100550000Y-30900000D03*
X100550000Y-29300000D03*
X102050000Y-29300000D03*
X102050000Y-30100000D03*
%TD*%
%TO.C,D27*%
X95150000Y-70400000D03*
X96650000Y-71200000D03*
X95150000Y-71200000D03*
X95150000Y-69600000D03*
X96650000Y-69600000D03*
X96650000Y-70400000D03*
%TD*%
%TO.C,D40*%
X95150000Y-30100000D03*
X96650000Y-30900000D03*
X95150000Y-30900000D03*
X95150000Y-29300000D03*
X96650000Y-29300000D03*
X96650000Y-30100000D03*
%TD*%
%TO.C,D38*%
X95150000Y-36300000D03*
X96650000Y-37100000D03*
X95150000Y-37100000D03*
X95150000Y-35500000D03*
X96650000Y-35500000D03*
X96650000Y-36300000D03*
%TD*%
%TO.C,D33*%
X95150000Y-51800000D03*
X96650000Y-52600000D03*
X95150000Y-52600000D03*
X95150000Y-51000000D03*
X96650000Y-51000000D03*
X96650000Y-51800000D03*
%TD*%
%TO.C,D64*%
X100550000Y-79700000D03*
X102050000Y-80500000D03*
X100550000Y-80500000D03*
X100550000Y-78900000D03*
X102050000Y-78900000D03*
X102050000Y-79700000D03*
%TD*%
%TO.C,D3*%
X95150000Y-144800000D03*
X96650000Y-145600000D03*
X95150000Y-145600000D03*
X95150000Y-144000000D03*
X96650000Y-144000000D03*
X96650000Y-144800000D03*
%TD*%
%TO.C,D13*%
X95150000Y-113800000D03*
X96650000Y-114600000D03*
X95150000Y-114600000D03*
X95150000Y-113000000D03*
X96650000Y-113000000D03*
X96650000Y-113800000D03*
%TD*%
%TO.C,D12*%
X95150000Y-116900000D03*
X96650000Y-117700000D03*
X95150000Y-117700000D03*
X95150000Y-116100000D03*
X96650000Y-116100000D03*
X96650000Y-116900000D03*
%TD*%
%TO.C,D26*%
X95150000Y-73500000D03*
X96650000Y-74300000D03*
X95150000Y-74300000D03*
X95150000Y-72700000D03*
X96650000Y-72700000D03*
X96650000Y-73500000D03*
%TD*%
%TO.C,D60*%
X100550000Y-92100000D03*
X102050000Y-92900000D03*
X100550000Y-92900000D03*
X100550000Y-91300000D03*
X102050000Y-91300000D03*
X102050000Y-92100000D03*
%TD*%
%TO.C,D10*%
X95150000Y-123100000D03*
X96650000Y-123900000D03*
X95150000Y-123900000D03*
X95150000Y-122300000D03*
X96650000Y-122300000D03*
X96650000Y-123100000D03*
%TD*%
%TO.C,D28*%
X95150000Y-67300000D03*
X96650000Y-68100000D03*
X95150000Y-68100000D03*
X95150000Y-66500000D03*
X96650000Y-66500000D03*
X96650000Y-67300000D03*
%TD*%
%TO.C,D56*%
X100550000Y-104500000D03*
X102050000Y-105300000D03*
X100550000Y-105300000D03*
X100550000Y-103700000D03*
X102050000Y-103700000D03*
X102050000Y-104500000D03*
%TD*%
%TO.C,D32*%
X95150000Y-54900000D03*
X96650000Y-55700000D03*
X95150000Y-55700000D03*
X95150000Y-54100000D03*
X96650000Y-54100000D03*
X96650000Y-54900000D03*
%TD*%
%TO.C,D47*%
X100550000Y-132400000D03*
X102050000Y-133200000D03*
X100550000Y-133200000D03*
X100550000Y-131600000D03*
X102050000Y-131600000D03*
X102050000Y-132400000D03*
%TD*%
%TO.C,D18*%
X95150000Y-98300000D03*
X96650000Y-99100000D03*
X95150000Y-99100000D03*
X95150000Y-97500000D03*
X96650000Y-97500000D03*
X96650000Y-98300000D03*
%TD*%
%TO.C,D62*%
X100550000Y-85900000D03*
X102050000Y-86700000D03*
X100550000Y-86700000D03*
X100550000Y-85100000D03*
X102050000Y-85100000D03*
X102050000Y-85900000D03*
%TD*%
%TO.C,D51*%
X100550000Y-120000000D03*
X102050000Y-120800000D03*
X100550000Y-120800000D03*
X100550000Y-119200000D03*
X102050000Y-119200000D03*
X102050000Y-120000000D03*
%TD*%
%TO.C,D72*%
X100550000Y-54900000D03*
X102050000Y-55700000D03*
X100550000Y-55700000D03*
X100550000Y-54100000D03*
X102050000Y-54100000D03*
X102050000Y-54900000D03*
%TD*%
%TO.C,D14*%
X95150000Y-110700000D03*
X96650000Y-111500000D03*
X95150000Y-111500000D03*
X95150000Y-109900000D03*
X96650000Y-109900000D03*
X96650000Y-110700000D03*
%TD*%
%TO.C,D6*%
X95150000Y-135500000D03*
X96650000Y-136300000D03*
X95150000Y-136300000D03*
X95150000Y-134700000D03*
X96650000Y-134700000D03*
X96650000Y-135500000D03*
%TD*%
%TO.C,D69*%
X100550000Y-64200000D03*
X102050000Y-65000000D03*
X100550000Y-65000000D03*
X100550000Y-63400000D03*
X102050000Y-63400000D03*
X102050000Y-64200000D03*
%TD*%
%TO.C,D39*%
X95150000Y-33200000D03*
X96650000Y-34000000D03*
X95150000Y-34000000D03*
X95150000Y-32400000D03*
X96650000Y-32400000D03*
X96650000Y-33200000D03*
%TD*%
%TO.C,D49*%
X100550000Y-126200000D03*
X102050000Y-127000000D03*
X100550000Y-127000000D03*
X100550000Y-125400000D03*
X102050000Y-125400000D03*
X102050000Y-126200000D03*
%TD*%
%TO.C,D66*%
X100550000Y-73500000D03*
X102050000Y-74300000D03*
X100550000Y-74300000D03*
X100550000Y-72700000D03*
X102050000Y-72700000D03*
X102050000Y-73500000D03*
%TD*%
%TO.C,D70*%
X100550000Y-61100000D03*
X102050000Y-61900000D03*
X100550000Y-61900000D03*
X100550000Y-60300000D03*
X102050000Y-60300000D03*
X102050000Y-61100000D03*
%TD*%
%TO.C,D15*%
X95150000Y-107600000D03*
X96650000Y-108400000D03*
X95150000Y-108400000D03*
X95150000Y-106800000D03*
X96650000Y-106800000D03*
X96650000Y-107600000D03*
%TD*%
%TO.C,D36*%
X95150000Y-42500000D03*
X96650000Y-43300000D03*
X95150000Y-43300000D03*
X95150000Y-41700000D03*
X96650000Y-41700000D03*
X96650000Y-42500000D03*
%TD*%
%TO.C,D37*%
X95150000Y-39400000D03*
X96650000Y-40200000D03*
X95150000Y-40200000D03*
X95150000Y-38600000D03*
X96650000Y-38600000D03*
X96650000Y-39400000D03*
%TD*%
%TO.C,D53*%
X100550000Y-113800000D03*
X102050000Y-114600000D03*
X100550000Y-114600000D03*
X100550000Y-113000000D03*
X102050000Y-113000000D03*
X102050000Y-113800000D03*
%TD*%
%TO.C,D57*%
X100550000Y-101400000D03*
X102050000Y-102200000D03*
X100550000Y-102200000D03*
X100550000Y-100600000D03*
X102050000Y-100600000D03*
X102050000Y-101400000D03*
%TD*%
%TO.C,D16*%
X95150000Y-104500000D03*
X96650000Y-105300000D03*
X95150000Y-105300000D03*
X95150000Y-103700000D03*
X96650000Y-103700000D03*
X96650000Y-104500000D03*
%TD*%
%TO.C,D42*%
X100550000Y-147900000D03*
X102050000Y-148700000D03*
X100550000Y-148700000D03*
X100550000Y-147100000D03*
X102050000Y-147100000D03*
X102050000Y-147900000D03*
%TD*%
%TO.C,D30*%
X95150000Y-61100000D03*
X96650000Y-61900000D03*
X95150000Y-61900000D03*
X95150000Y-60300000D03*
X96650000Y-60300000D03*
X96650000Y-61100000D03*
%TD*%
%TO.C,D52*%
X100550000Y-116900000D03*
X102050000Y-117700000D03*
X100550000Y-117700000D03*
X100550000Y-116100000D03*
X102050000Y-116100000D03*
X102050000Y-116900000D03*
%TD*%
%TO.C,D74*%
X100550000Y-48700000D03*
X102050000Y-49500000D03*
X100550000Y-49500000D03*
X100550000Y-47900000D03*
X102050000Y-47900000D03*
X102050000Y-48700000D03*
%TD*%
%TO.C,D65*%
X100550000Y-76600000D03*
X102050000Y-77400000D03*
X100550000Y-77400000D03*
X100550000Y-75800000D03*
X102050000Y-75800000D03*
X102050000Y-76600000D03*
%TD*%
%TO.C,D54*%
X100550000Y-110700000D03*
X102050000Y-111500000D03*
X100550000Y-111500000D03*
X100550000Y-109900000D03*
X102050000Y-109900000D03*
X102050000Y-110700000D03*
%TD*%
%TO.C,D2*%
X95150000Y-147900000D03*
X96650000Y-148700000D03*
X95150000Y-148700000D03*
X95150000Y-147100000D03*
X96650000Y-147100000D03*
X96650000Y-147900000D03*
%TD*%
%TO.C,D20*%
X95150000Y-92100000D03*
X96650000Y-92900000D03*
X95150000Y-92900000D03*
X95150000Y-91300000D03*
X96650000Y-91300000D03*
X96650000Y-92100000D03*
%TD*%
%TO.C,D61*%
X100550000Y-89000000D03*
X102050000Y-89800000D03*
X100550000Y-89800000D03*
X100550000Y-88200000D03*
X102050000Y-88200000D03*
X102050000Y-89000000D03*
%TD*%
%TO.C,D77*%
X100550000Y-39400000D03*
X102050000Y-40200000D03*
X100550000Y-40200000D03*
X100550000Y-38600000D03*
X102050000Y-38600000D03*
X102050000Y-39400000D03*
%TD*%
%TO.C,D5*%
X95150000Y-138600000D03*
X96650000Y-139400000D03*
X95150000Y-139400000D03*
X95150000Y-137800000D03*
X96650000Y-137800000D03*
X96650000Y-138600000D03*
%TD*%
%TO.C,D23*%
X95150000Y-82800000D03*
X96650000Y-83600000D03*
X95150000Y-83600000D03*
X95150000Y-82000000D03*
X96650000Y-82000000D03*
X96650000Y-82800000D03*
%TD*%
%TO.C,D22*%
X95150000Y-85900000D03*
X96650000Y-86700000D03*
X95150000Y-86700000D03*
X95150000Y-85100000D03*
X96650000Y-85100000D03*
X96650000Y-85900000D03*
%TD*%
%TO.C,D8*%
X95150000Y-129300000D03*
X96650000Y-130100000D03*
X95150000Y-130100000D03*
X95150000Y-128500000D03*
X96650000Y-128500000D03*
X96650000Y-129300000D03*
%TD*%
%TO.C,D46*%
X100550000Y-135500000D03*
X102050000Y-136300000D03*
X100550000Y-136300000D03*
X100550000Y-134700000D03*
X102050000Y-134700000D03*
X102050000Y-135500000D03*
%TD*%
%TO.C,D35*%
X84350000Y-45600000D03*
X85850000Y-46400000D03*
X84350000Y-46400000D03*
X84350000Y-44800000D03*
X85850000Y-44800000D03*
X85850000Y-45600000D03*
%TD*%
%TO.C,D17*%
X84350000Y-101400000D03*
X85850000Y-102200000D03*
X84350000Y-102200000D03*
X84350000Y-100600000D03*
X85850000Y-100600000D03*
X85850000Y-101400000D03*
%TD*%
%TO.C,D60*%
X89750000Y-92100000D03*
X91250000Y-92900000D03*
X89750000Y-92900000D03*
X89750000Y-91300000D03*
X91250000Y-91300000D03*
X91250000Y-92100000D03*
%TD*%
%TO.C,D76*%
X89750000Y-42500000D03*
X91250000Y-43300000D03*
X89750000Y-43300000D03*
X89750000Y-41700000D03*
X91250000Y-41700000D03*
X91250000Y-42500000D03*
%TD*%
%TO.C,D68*%
X89750000Y-67300000D03*
X91250000Y-68100000D03*
X89750000Y-68100000D03*
X89750000Y-66500000D03*
X91250000Y-66500000D03*
X91250000Y-67300000D03*
%TD*%
%TO.C,D34*%
X84350000Y-48700000D03*
X85850000Y-49500000D03*
X84350000Y-49500000D03*
X84350000Y-47900000D03*
X85850000Y-47900000D03*
X85850000Y-48700000D03*
%TD*%
%TO.C,D4*%
X84350000Y-141700000D03*
X85850000Y-142500000D03*
X84350000Y-142500000D03*
X84350000Y-140900000D03*
X85850000Y-140900000D03*
X85850000Y-141700000D03*
%TD*%
%TO.C,D79*%
X89750000Y-33200000D03*
X91250000Y-34000000D03*
X89750000Y-34000000D03*
X89750000Y-32400000D03*
X91250000Y-32400000D03*
X91250000Y-33200000D03*
%TD*%
%TO.C,D31*%
X84350000Y-58000000D03*
X85850000Y-58800000D03*
X84350000Y-58800000D03*
X84350000Y-57200000D03*
X85850000Y-57200000D03*
X85850000Y-58000000D03*
%TD*%
%TO.C,D75*%
X89750000Y-45600000D03*
X91250000Y-46400000D03*
X89750000Y-46400000D03*
X89750000Y-44800000D03*
X91250000Y-44800000D03*
X91250000Y-45600000D03*
%TD*%
%TO.C,D63*%
X89750000Y-82800000D03*
X91250000Y-83600000D03*
X89750000Y-83600000D03*
X89750000Y-82000000D03*
X91250000Y-82000000D03*
X91250000Y-82800000D03*
%TD*%
%TO.C,D78*%
X89750000Y-36300000D03*
X91250000Y-37100000D03*
X89750000Y-37100000D03*
X89750000Y-35500000D03*
X91250000Y-35500000D03*
X91250000Y-36300000D03*
%TD*%
%TO.C,D55*%
X89750000Y-107600000D03*
X91250000Y-108400000D03*
X89750000Y-108400000D03*
X89750000Y-106800000D03*
X91250000Y-106800000D03*
X91250000Y-107600000D03*
%TD*%
%TO.C,D7*%
X84350000Y-132400000D03*
X85850000Y-133200000D03*
X84350000Y-133200000D03*
X84350000Y-131600000D03*
X85850000Y-131600000D03*
X85850000Y-132400000D03*
%TD*%
%TO.C,D77*%
X89750000Y-39400000D03*
X91250000Y-40200000D03*
X89750000Y-40200000D03*
X89750000Y-38600000D03*
X91250000Y-38600000D03*
X91250000Y-39400000D03*
%TD*%
%TO.C,D41*%
X89750000Y-151000000D03*
X91250000Y-151800000D03*
X89750000Y-151800000D03*
X89750000Y-150200000D03*
X91250000Y-150200000D03*
X91250000Y-151000000D03*
%TD*%
%TO.C,D21*%
X84350000Y-89000000D03*
X85850000Y-89800000D03*
X84350000Y-89800000D03*
X84350000Y-88200000D03*
X85850000Y-88200000D03*
X85850000Y-89000000D03*
%TD*%
%TO.C,D50*%
X89750000Y-123100000D03*
X91250000Y-123900000D03*
X89750000Y-123900000D03*
X89750000Y-122300000D03*
X91250000Y-122300000D03*
X91250000Y-123100000D03*
%TD*%
%TO.C,D24*%
X84350000Y-79700000D03*
X85850000Y-80500000D03*
X84350000Y-80500000D03*
X84350000Y-78900000D03*
X85850000Y-78900000D03*
X85850000Y-79700000D03*
%TD*%
%TO.C,D67*%
X89750000Y-70400000D03*
X91250000Y-71200000D03*
X89750000Y-71200000D03*
X89750000Y-69600000D03*
X91250000Y-69600000D03*
X91250000Y-70400000D03*
%TD*%
%TO.C,D48*%
X89750000Y-129300000D03*
X91250000Y-130100000D03*
X89750000Y-130100000D03*
X89750000Y-128500000D03*
X91250000Y-128500000D03*
X91250000Y-129300000D03*
%TD*%
%TO.C,D11*%
X84350000Y-120000000D03*
X85850000Y-120800000D03*
X84350000Y-120800000D03*
X84350000Y-119200000D03*
X85850000Y-119200000D03*
X85850000Y-120000000D03*
%TD*%
%TO.C,D58*%
X89750000Y-98300000D03*
X91250000Y-99100000D03*
X89750000Y-99100000D03*
X89750000Y-97500000D03*
X91250000Y-97500000D03*
X91250000Y-98300000D03*
%TD*%
%TO.C,D43*%
X89750000Y-144800000D03*
X91250000Y-145600000D03*
X89750000Y-145600000D03*
X89750000Y-144000000D03*
X91250000Y-144000000D03*
X91250000Y-144800000D03*
%TD*%
%TO.C,D25*%
X84350000Y-76600000D03*
X85850000Y-77400000D03*
X84350000Y-77400000D03*
X84350000Y-75800000D03*
X85850000Y-75800000D03*
X85850000Y-76600000D03*
%TD*%
%TO.C,D69*%
X89750000Y-64200000D03*
X91250000Y-65000000D03*
X89750000Y-65000000D03*
X89750000Y-63400000D03*
X91250000Y-63400000D03*
X91250000Y-64200000D03*
%TD*%
%TO.C,D29*%
X84350000Y-64200000D03*
X85850000Y-65000000D03*
X84350000Y-65000000D03*
X84350000Y-63400000D03*
X85850000Y-63400000D03*
X85850000Y-64200000D03*
%TD*%
%TO.C,D47*%
X89750000Y-132400000D03*
X91250000Y-133200000D03*
X89750000Y-133200000D03*
X89750000Y-131600000D03*
X91250000Y-131600000D03*
X91250000Y-132400000D03*
%TD*%
%TO.C,D52*%
X89750000Y-116900000D03*
X91250000Y-117700000D03*
X89750000Y-117700000D03*
X89750000Y-116100000D03*
X91250000Y-116100000D03*
X91250000Y-116900000D03*
%TD*%
%TO.C,D27*%
X84350000Y-70400000D03*
X85850000Y-71200000D03*
X84350000Y-71200000D03*
X84350000Y-69600000D03*
X85850000Y-69600000D03*
X85850000Y-70400000D03*
%TD*%
%TO.C,D40*%
X84350000Y-30100000D03*
X85850000Y-30900000D03*
X84350000Y-30900000D03*
X84350000Y-29300000D03*
X85850000Y-29300000D03*
X85850000Y-30100000D03*
%TD*%
%TO.C,D38*%
X84350000Y-36300000D03*
X85850000Y-37100000D03*
X84350000Y-37100000D03*
X84350000Y-35500000D03*
X85850000Y-35500000D03*
X85850000Y-36300000D03*
%TD*%
%TO.C,D33*%
X84350000Y-51800000D03*
X85850000Y-52600000D03*
X84350000Y-52600000D03*
X84350000Y-51000000D03*
X85850000Y-51000000D03*
X85850000Y-51800000D03*
%TD*%
%TO.C,D73*%
X89750000Y-51800000D03*
X91250000Y-52600000D03*
X89750000Y-52600000D03*
X89750000Y-51000000D03*
X91250000Y-51000000D03*
X91250000Y-51800000D03*
%TD*%
%TO.C,D8*%
X84350000Y-129300000D03*
X85850000Y-130100000D03*
X84350000Y-130100000D03*
X84350000Y-128500000D03*
X85850000Y-128500000D03*
X85850000Y-129300000D03*
%TD*%
%TO.C,D64*%
X89750000Y-79700000D03*
X91250000Y-80500000D03*
X89750000Y-80500000D03*
X89750000Y-78900000D03*
X91250000Y-78900000D03*
X91250000Y-79700000D03*
%TD*%
%TO.C,D13*%
X84350000Y-113800000D03*
X85850000Y-114600000D03*
X84350000Y-114600000D03*
X84350000Y-113000000D03*
X85850000Y-113000000D03*
X85850000Y-113800000D03*
%TD*%
%TO.C,D80*%
X89750000Y-30100000D03*
X91250000Y-30900000D03*
X89750000Y-30900000D03*
X89750000Y-29300000D03*
X91250000Y-29300000D03*
X91250000Y-30100000D03*
%TD*%
%TO.C,D22*%
X84350000Y-85900000D03*
X85850000Y-86700000D03*
X84350000Y-86700000D03*
X84350000Y-85100000D03*
X85850000Y-85100000D03*
X85850000Y-85900000D03*
%TD*%
%TO.C,D10*%
X84350000Y-123100000D03*
X85850000Y-123900000D03*
X84350000Y-123900000D03*
X84350000Y-122300000D03*
X85850000Y-122300000D03*
X85850000Y-123100000D03*
%TD*%
%TO.C,D56*%
X89750000Y-104500000D03*
X91250000Y-105300000D03*
X89750000Y-105300000D03*
X89750000Y-103700000D03*
X91250000Y-103700000D03*
X91250000Y-104500000D03*
%TD*%
%TO.C,D32*%
X84350000Y-54900000D03*
X85850000Y-55700000D03*
X84350000Y-55700000D03*
X84350000Y-54100000D03*
X85850000Y-54100000D03*
X85850000Y-54900000D03*
%TD*%
%TO.C,D18*%
X84350000Y-98300000D03*
X85850000Y-99100000D03*
X84350000Y-99100000D03*
X84350000Y-97500000D03*
X85850000Y-97500000D03*
X85850000Y-98300000D03*
%TD*%
%TO.C,D62*%
X89750000Y-85900000D03*
X91250000Y-86700000D03*
X89750000Y-86700000D03*
X89750000Y-85100000D03*
X91250000Y-85100000D03*
X91250000Y-85900000D03*
%TD*%
%TO.C,D51*%
X89750000Y-120000000D03*
X91250000Y-120800000D03*
X89750000Y-120800000D03*
X89750000Y-119200000D03*
X91250000Y-119200000D03*
X91250000Y-120000000D03*
%TD*%
%TO.C,D72*%
X89750000Y-54900000D03*
X91250000Y-55700000D03*
X89750000Y-55700000D03*
X89750000Y-54100000D03*
X91250000Y-54100000D03*
X91250000Y-54900000D03*
%TD*%
%TO.C,D14*%
X84350000Y-110700000D03*
X85850000Y-111500000D03*
X84350000Y-111500000D03*
X84350000Y-109900000D03*
X85850000Y-109900000D03*
X85850000Y-110700000D03*
%TD*%
%TO.C,D6*%
X84350000Y-135500000D03*
X85850000Y-136300000D03*
X84350000Y-136300000D03*
X84350000Y-134700000D03*
X85850000Y-134700000D03*
X85850000Y-135500000D03*
%TD*%
%TO.C,D39*%
X84350000Y-33200000D03*
X85850000Y-34000000D03*
X84350000Y-34000000D03*
X84350000Y-32400000D03*
X85850000Y-32400000D03*
X85850000Y-33200000D03*
%TD*%
%TO.C,D45*%
X89750000Y-138600000D03*
X91250000Y-139400000D03*
X89750000Y-139400000D03*
X89750000Y-137800000D03*
X91250000Y-137800000D03*
X91250000Y-138600000D03*
%TD*%
%TO.C,D74*%
X89750000Y-48700000D03*
X91250000Y-49500000D03*
X89750000Y-49500000D03*
X89750000Y-47900000D03*
X91250000Y-47900000D03*
X91250000Y-48700000D03*
%TD*%
%TO.C,D49*%
X89750000Y-126200000D03*
X91250000Y-127000000D03*
X89750000Y-127000000D03*
X89750000Y-125400000D03*
X91250000Y-125400000D03*
X91250000Y-126200000D03*
%TD*%
%TO.C,D66*%
X89750000Y-73500000D03*
X91250000Y-74300000D03*
X89750000Y-74300000D03*
X89750000Y-72700000D03*
X91250000Y-72700000D03*
X91250000Y-73500000D03*
%TD*%
%TO.C,D15*%
X84350000Y-107600000D03*
X85850000Y-108400000D03*
X84350000Y-108400000D03*
X84350000Y-106800000D03*
X85850000Y-106800000D03*
X85850000Y-107600000D03*
%TD*%
%TO.C,D36*%
X84350000Y-42500000D03*
X85850000Y-43300000D03*
X84350000Y-43300000D03*
X84350000Y-41700000D03*
X85850000Y-41700000D03*
X85850000Y-42500000D03*
%TD*%
%TO.C,D37*%
X84350000Y-39400000D03*
X85850000Y-40200000D03*
X84350000Y-40200000D03*
X84350000Y-38600000D03*
X85850000Y-38600000D03*
X85850000Y-39400000D03*
%TD*%
%TO.C,D53*%
X89750000Y-113800000D03*
X91250000Y-114600000D03*
X89750000Y-114600000D03*
X89750000Y-113000000D03*
X91250000Y-113000000D03*
X91250000Y-113800000D03*
%TD*%
%TO.C,D65*%
X89750000Y-76600000D03*
X91250000Y-77400000D03*
X89750000Y-77400000D03*
X89750000Y-75800000D03*
X91250000Y-75800000D03*
X91250000Y-76600000D03*
%TD*%
%TO.C,D71*%
X89750000Y-58000000D03*
X91250000Y-58800000D03*
X89750000Y-58800000D03*
X89750000Y-57200000D03*
X91250000Y-57200000D03*
X91250000Y-58000000D03*
%TD*%
%TO.C,D12*%
X84350000Y-116900000D03*
X85850000Y-117700000D03*
X84350000Y-117700000D03*
X84350000Y-116100000D03*
X85850000Y-116100000D03*
X85850000Y-116900000D03*
%TD*%
%TO.C,D57*%
X89750000Y-101400000D03*
X91250000Y-102200000D03*
X89750000Y-102200000D03*
X89750000Y-100600000D03*
X91250000Y-100600000D03*
X91250000Y-101400000D03*
%TD*%
%TO.C,D26*%
X84350000Y-73500000D03*
X85850000Y-74300000D03*
X84350000Y-74300000D03*
X84350000Y-72700000D03*
X85850000Y-72700000D03*
X85850000Y-73500000D03*
%TD*%
%TO.C,D19*%
X84350000Y-95200000D03*
X85850000Y-96000000D03*
X84350000Y-96000000D03*
X84350000Y-94400000D03*
X85850000Y-94400000D03*
X85850000Y-95200000D03*
%TD*%
%TO.C,D3*%
X84350000Y-144800000D03*
X85850000Y-145600000D03*
X84350000Y-145600000D03*
X84350000Y-144000000D03*
X85850000Y-144000000D03*
X85850000Y-144800000D03*
%TD*%
%TO.C,D28*%
X84350000Y-67300000D03*
X85850000Y-68100000D03*
X84350000Y-68100000D03*
X84350000Y-66500000D03*
X85850000Y-66500000D03*
X85850000Y-67300000D03*
%TD*%
%TO.C,D42*%
X89750000Y-147900000D03*
X91250000Y-148700000D03*
X89750000Y-148700000D03*
X89750000Y-147100000D03*
X91250000Y-147100000D03*
X91250000Y-147900000D03*
%TD*%
%TO.C,D9*%
X84350000Y-126200000D03*
X85850000Y-127000000D03*
X84350000Y-127000000D03*
X84350000Y-125400000D03*
X85850000Y-125400000D03*
X85850000Y-126200000D03*
%TD*%
%TO.C,D30*%
X84350000Y-61100000D03*
X85850000Y-61900000D03*
X84350000Y-61900000D03*
X84350000Y-60300000D03*
X85850000Y-60300000D03*
X85850000Y-61100000D03*
%TD*%
%TO.C,D59*%
X89750000Y-95200000D03*
X91250000Y-96000000D03*
X89750000Y-96000000D03*
X89750000Y-94400000D03*
X91250000Y-94400000D03*
X91250000Y-95200000D03*
%TD*%
%TO.C,D20*%
X84350000Y-92100000D03*
X85850000Y-92900000D03*
X84350000Y-92900000D03*
X84350000Y-91300000D03*
X85850000Y-91300000D03*
X85850000Y-92100000D03*
%TD*%
%TO.C,D70*%
X89750000Y-61100000D03*
X91250000Y-61900000D03*
X89750000Y-61900000D03*
X89750000Y-60300000D03*
X91250000Y-60300000D03*
X91250000Y-61100000D03*
%TD*%
%TO.C,D44*%
X89750000Y-141700000D03*
X91250000Y-142500000D03*
X89750000Y-142500000D03*
X89750000Y-140900000D03*
X91250000Y-140900000D03*
X91250000Y-141700000D03*
%TD*%
%TO.C,D5*%
X84350000Y-138600000D03*
X85850000Y-139400000D03*
X84350000Y-139400000D03*
X84350000Y-137800000D03*
X85850000Y-137800000D03*
X85850000Y-138600000D03*
%TD*%
%TO.C,D54*%
X89750000Y-110700000D03*
X91250000Y-111500000D03*
X89750000Y-111500000D03*
X89750000Y-109900000D03*
X91250000Y-109900000D03*
X91250000Y-110700000D03*
%TD*%
%TO.C,D2*%
X84350000Y-147900000D03*
X85850000Y-148700000D03*
X84350000Y-148700000D03*
X84350000Y-147100000D03*
X85850000Y-147100000D03*
X85850000Y-147900000D03*
%TD*%
%TO.C,D61*%
X89750000Y-89000000D03*
X91250000Y-89800000D03*
X89750000Y-89800000D03*
X89750000Y-88200000D03*
X91250000Y-88200000D03*
X91250000Y-89000000D03*
%TD*%
%TO.C,D23*%
X84350000Y-82800000D03*
X85850000Y-83600000D03*
X84350000Y-83600000D03*
X84350000Y-82000000D03*
X85850000Y-82000000D03*
X85850000Y-82800000D03*
%TD*%
%TO.C,D46*%
X89750000Y-135500000D03*
X91250000Y-136300000D03*
X89750000Y-136300000D03*
X89750000Y-134700000D03*
X91250000Y-134700000D03*
X91250000Y-135500000D03*
%TD*%
%TO.C,D1*%
X84350000Y-151000000D03*
X85850000Y-151800000D03*
X84350000Y-151800000D03*
X84350000Y-150200000D03*
X85850000Y-150200000D03*
X85850000Y-151000000D03*
%TD*%
%TO.C,D16*%
X84350000Y-104500000D03*
X85850000Y-105300000D03*
X84350000Y-105300000D03*
X84350000Y-103700000D03*
X85850000Y-103700000D03*
X85850000Y-104500000D03*
%TD*%
%TO.C,D35*%
X73550000Y-45600000D03*
X75050000Y-46400000D03*
X73550000Y-46400000D03*
X73550000Y-44800000D03*
X75050000Y-44800000D03*
X75050000Y-45600000D03*
%TD*%
%TO.C,D54*%
X78950000Y-110700000D03*
X80450000Y-111500000D03*
X78950000Y-111500000D03*
X78950000Y-109900000D03*
X80450000Y-109900000D03*
X80450000Y-110700000D03*
%TD*%
%TO.C,D17*%
X73550000Y-101400000D03*
X75050000Y-102200000D03*
X73550000Y-102200000D03*
X73550000Y-100600000D03*
X75050000Y-100600000D03*
X75050000Y-101400000D03*
%TD*%
%TO.C,D76*%
X78950000Y-42500000D03*
X80450000Y-43300000D03*
X78950000Y-43300000D03*
X78950000Y-41700000D03*
X80450000Y-41700000D03*
X80450000Y-42500000D03*
%TD*%
%TO.C,D68*%
X78950000Y-67300000D03*
X80450000Y-68100000D03*
X78950000Y-68100000D03*
X78950000Y-66500000D03*
X80450000Y-66500000D03*
X80450000Y-67300000D03*
%TD*%
%TO.C,D34*%
X73550000Y-48700000D03*
X75050000Y-49500000D03*
X73550000Y-49500000D03*
X73550000Y-47900000D03*
X75050000Y-47900000D03*
X75050000Y-48700000D03*
%TD*%
%TO.C,D32*%
X73550000Y-54900000D03*
X75050000Y-55700000D03*
X73550000Y-55700000D03*
X73550000Y-54100000D03*
X75050000Y-54100000D03*
X75050000Y-54900000D03*
%TD*%
%TO.C,D4*%
X73550000Y-141700000D03*
X75050000Y-142500000D03*
X73550000Y-142500000D03*
X73550000Y-140900000D03*
X75050000Y-140900000D03*
X75050000Y-141700000D03*
%TD*%
%TO.C,D79*%
X78950000Y-33200000D03*
X80450000Y-34000000D03*
X78950000Y-34000000D03*
X78950000Y-32400000D03*
X80450000Y-32400000D03*
X80450000Y-33200000D03*
%TD*%
%TO.C,D75*%
X78950000Y-45600000D03*
X80450000Y-46400000D03*
X78950000Y-46400000D03*
X78950000Y-44800000D03*
X80450000Y-44800000D03*
X80450000Y-45600000D03*
%TD*%
%TO.C,D63*%
X78950000Y-82800000D03*
X80450000Y-83600000D03*
X78950000Y-83600000D03*
X78950000Y-82000000D03*
X80450000Y-82000000D03*
X80450000Y-82800000D03*
%TD*%
%TO.C,D78*%
X78950000Y-36300000D03*
X80450000Y-37100000D03*
X78950000Y-37100000D03*
X78950000Y-35500000D03*
X80450000Y-35500000D03*
X80450000Y-36300000D03*
%TD*%
%TO.C,D80*%
X78950000Y-30100000D03*
X80450000Y-30900000D03*
X78950000Y-30900000D03*
X78950000Y-29300000D03*
X80450000Y-29300000D03*
X80450000Y-30100000D03*
%TD*%
%TO.C,D55*%
X78950000Y-107600000D03*
X80450000Y-108400000D03*
X78950000Y-108400000D03*
X78950000Y-106800000D03*
X80450000Y-106800000D03*
X80450000Y-107600000D03*
%TD*%
%TO.C,D7*%
X73550000Y-132400000D03*
X75050000Y-133200000D03*
X73550000Y-133200000D03*
X73550000Y-131600000D03*
X75050000Y-131600000D03*
X75050000Y-132400000D03*
%TD*%
%TO.C,D51*%
X78950000Y-120000000D03*
X80450000Y-120800000D03*
X78950000Y-120800000D03*
X78950000Y-119200000D03*
X80450000Y-119200000D03*
X80450000Y-120000000D03*
%TD*%
%TO.C,D18*%
X73550000Y-98300000D03*
X75050000Y-99100000D03*
X73550000Y-99100000D03*
X73550000Y-97500000D03*
X75050000Y-97500000D03*
X75050000Y-98300000D03*
%TD*%
%TO.C,D50*%
X78950000Y-123100000D03*
X80450000Y-123900000D03*
X78950000Y-123900000D03*
X78950000Y-122300000D03*
X80450000Y-122300000D03*
X80450000Y-123100000D03*
%TD*%
%TO.C,D58*%
X78950000Y-98300000D03*
X80450000Y-99100000D03*
X78950000Y-99100000D03*
X78950000Y-97500000D03*
X80450000Y-97500000D03*
X80450000Y-98300000D03*
%TD*%
%TO.C,D24*%
X73550000Y-79700000D03*
X75050000Y-80500000D03*
X73550000Y-80500000D03*
X73550000Y-78900000D03*
X75050000Y-78900000D03*
X75050000Y-79700000D03*
%TD*%
%TO.C,D20*%
X73550000Y-92100000D03*
X75050000Y-92900000D03*
X73550000Y-92900000D03*
X73550000Y-91300000D03*
X75050000Y-91300000D03*
X75050000Y-92100000D03*
%TD*%
%TO.C,D67*%
X78950000Y-70400000D03*
X80450000Y-71200000D03*
X78950000Y-71200000D03*
X78950000Y-69600000D03*
X80450000Y-69600000D03*
X80450000Y-70400000D03*
%TD*%
%TO.C,D38*%
X73550000Y-36300000D03*
X75050000Y-37100000D03*
X73550000Y-37100000D03*
X73550000Y-35500000D03*
X75050000Y-35500000D03*
X75050000Y-36300000D03*
%TD*%
%TO.C,D48*%
X78950000Y-129300000D03*
X80450000Y-130100000D03*
X78950000Y-130100000D03*
X78950000Y-128500000D03*
X80450000Y-128500000D03*
X80450000Y-129300000D03*
%TD*%
%TO.C,D11*%
X73550000Y-120000000D03*
X75050000Y-120800000D03*
X73550000Y-120800000D03*
X73550000Y-119200000D03*
X75050000Y-119200000D03*
X75050000Y-120000000D03*
%TD*%
%TO.C,D3*%
X73550000Y-144800000D03*
X75050000Y-145600000D03*
X73550000Y-145600000D03*
X73550000Y-144000000D03*
X75050000Y-144000000D03*
X75050000Y-144800000D03*
%TD*%
%TO.C,D41*%
X78950000Y-151000000D03*
X80450000Y-151800000D03*
X78950000Y-151800000D03*
X78950000Y-150200000D03*
X80450000Y-150200000D03*
X80450000Y-151000000D03*
%TD*%
%TO.C,D43*%
X78950000Y-144800000D03*
X80450000Y-145600000D03*
X78950000Y-145600000D03*
X78950000Y-144000000D03*
X80450000Y-144000000D03*
X80450000Y-144800000D03*
%TD*%
%TO.C,D25*%
X73550000Y-76600000D03*
X75050000Y-77400000D03*
X73550000Y-77400000D03*
X73550000Y-75800000D03*
X75050000Y-75800000D03*
X75050000Y-76600000D03*
%TD*%
%TO.C,D31*%
X73550000Y-58000000D03*
X75050000Y-58800000D03*
X73550000Y-58800000D03*
X73550000Y-57200000D03*
X75050000Y-57200000D03*
X75050000Y-58000000D03*
%TD*%
%TO.C,D70*%
X78950000Y-61100000D03*
X80450000Y-61900000D03*
X78950000Y-61900000D03*
X78950000Y-60300000D03*
X80450000Y-60300000D03*
X80450000Y-61100000D03*
%TD*%
%TO.C,D39*%
X73550000Y-33200000D03*
X75050000Y-34000000D03*
X73550000Y-34000000D03*
X73550000Y-32400000D03*
X75050000Y-32400000D03*
X75050000Y-33200000D03*
%TD*%
%TO.C,D29*%
X73550000Y-64200000D03*
X75050000Y-65000000D03*
X73550000Y-65000000D03*
X73550000Y-63400000D03*
X75050000Y-63400000D03*
X75050000Y-64200000D03*
%TD*%
%TO.C,D14*%
X73550000Y-110700000D03*
X75050000Y-111500000D03*
X73550000Y-111500000D03*
X73550000Y-109900000D03*
X75050000Y-109900000D03*
X75050000Y-110700000D03*
%TD*%
%TO.C,D47*%
X78950000Y-132400000D03*
X80450000Y-133200000D03*
X78950000Y-133200000D03*
X78950000Y-131600000D03*
X80450000Y-131600000D03*
X80450000Y-132400000D03*
%TD*%
%TO.C,D60*%
X78950000Y-92100000D03*
X80450000Y-92900000D03*
X78950000Y-92900000D03*
X78950000Y-91300000D03*
X80450000Y-91300000D03*
X80450000Y-92100000D03*
%TD*%
%TO.C,D27*%
X73550000Y-70400000D03*
X75050000Y-71200000D03*
X73550000Y-71200000D03*
X73550000Y-69600000D03*
X75050000Y-69600000D03*
X75050000Y-70400000D03*
%TD*%
%TO.C,D40*%
X73550000Y-30100000D03*
X75050000Y-30900000D03*
X73550000Y-30900000D03*
X73550000Y-29300000D03*
X75050000Y-29300000D03*
X75050000Y-30100000D03*
%TD*%
%TO.C,D5*%
X73550000Y-138600000D03*
X75050000Y-139400000D03*
X73550000Y-139400000D03*
X73550000Y-137800000D03*
X75050000Y-137800000D03*
X75050000Y-138600000D03*
%TD*%
%TO.C,D33*%
X73550000Y-51800000D03*
X75050000Y-52600000D03*
X73550000Y-52600000D03*
X73550000Y-51000000D03*
X75050000Y-51000000D03*
X75050000Y-51800000D03*
%TD*%
%TO.C,D64*%
X78950000Y-79700000D03*
X80450000Y-80500000D03*
X78950000Y-80500000D03*
X78950000Y-78900000D03*
X80450000Y-78900000D03*
X80450000Y-79700000D03*
%TD*%
%TO.C,D73*%
X78950000Y-51800000D03*
X80450000Y-52600000D03*
X78950000Y-52600000D03*
X78950000Y-51000000D03*
X80450000Y-51000000D03*
X80450000Y-51800000D03*
%TD*%
%TO.C,D13*%
X73550000Y-113800000D03*
X75050000Y-114600000D03*
X73550000Y-114600000D03*
X73550000Y-113000000D03*
X75050000Y-113000000D03*
X75050000Y-113800000D03*
%TD*%
%TO.C,D8*%
X73550000Y-129300000D03*
X75050000Y-130100000D03*
X73550000Y-130100000D03*
X73550000Y-128500000D03*
X75050000Y-128500000D03*
X75050000Y-129300000D03*
%TD*%
%TO.C,D21*%
X73550000Y-89000000D03*
X75050000Y-89800000D03*
X73550000Y-89800000D03*
X73550000Y-88200000D03*
X75050000Y-88200000D03*
X75050000Y-89000000D03*
%TD*%
%TO.C,D10*%
X73550000Y-123100000D03*
X75050000Y-123900000D03*
X73550000Y-123900000D03*
X73550000Y-122300000D03*
X75050000Y-122300000D03*
X75050000Y-123100000D03*
%TD*%
%TO.C,D56*%
X78950000Y-104500000D03*
X80450000Y-105300000D03*
X78950000Y-105300000D03*
X78950000Y-103700000D03*
X80450000Y-103700000D03*
X80450000Y-104500000D03*
%TD*%
%TO.C,D62*%
X78950000Y-85900000D03*
X80450000Y-86700000D03*
X78950000Y-86700000D03*
X78950000Y-85100000D03*
X80450000Y-85100000D03*
X80450000Y-85900000D03*
%TD*%
%TO.C,D37*%
X73550000Y-39400000D03*
X75050000Y-40200000D03*
X73550000Y-40200000D03*
X73550000Y-38600000D03*
X75050000Y-38600000D03*
X75050000Y-39400000D03*
%TD*%
%TO.C,D72*%
X78950000Y-54900000D03*
X80450000Y-55700000D03*
X78950000Y-55700000D03*
X78950000Y-54100000D03*
X80450000Y-54100000D03*
X80450000Y-54900000D03*
%TD*%
%TO.C,D6*%
X73550000Y-135500000D03*
X75050000Y-136300000D03*
X73550000Y-136300000D03*
X73550000Y-134700000D03*
X75050000Y-134700000D03*
X75050000Y-135500000D03*
%TD*%
%TO.C,D69*%
X78950000Y-64200000D03*
X80450000Y-65000000D03*
X78950000Y-65000000D03*
X78950000Y-63400000D03*
X80450000Y-63400000D03*
X80450000Y-64200000D03*
%TD*%
%TO.C,D45*%
X78950000Y-138600000D03*
X80450000Y-139400000D03*
X78950000Y-139400000D03*
X78950000Y-137800000D03*
X80450000Y-137800000D03*
X80450000Y-138600000D03*
%TD*%
%TO.C,D49*%
X78950000Y-126200000D03*
X80450000Y-127000000D03*
X78950000Y-127000000D03*
X78950000Y-125400000D03*
X80450000Y-125400000D03*
X80450000Y-126200000D03*
%TD*%
%TO.C,D66*%
X78950000Y-73500000D03*
X80450000Y-74300000D03*
X78950000Y-74300000D03*
X78950000Y-72700000D03*
X80450000Y-72700000D03*
X80450000Y-73500000D03*
%TD*%
%TO.C,D30*%
X73550000Y-61100000D03*
X75050000Y-61900000D03*
X73550000Y-61900000D03*
X73550000Y-60300000D03*
X75050000Y-60300000D03*
X75050000Y-61100000D03*
%TD*%
%TO.C,D15*%
X73550000Y-107600000D03*
X75050000Y-108400000D03*
X73550000Y-108400000D03*
X73550000Y-106800000D03*
X75050000Y-106800000D03*
X75050000Y-107600000D03*
%TD*%
%TO.C,D36*%
X73550000Y-42500000D03*
X75050000Y-43300000D03*
X73550000Y-43300000D03*
X73550000Y-41700000D03*
X75050000Y-41700000D03*
X75050000Y-42500000D03*
%TD*%
%TO.C,D53*%
X78950000Y-113800000D03*
X80450000Y-114600000D03*
X78950000Y-114600000D03*
X78950000Y-113000000D03*
X80450000Y-113000000D03*
X80450000Y-113800000D03*
%TD*%
%TO.C,D46*%
X78950000Y-135500000D03*
X80450000Y-136300000D03*
X78950000Y-136300000D03*
X78950000Y-134700000D03*
X80450000Y-134700000D03*
X80450000Y-135500000D03*
%TD*%
%TO.C,D71*%
X78950000Y-58000000D03*
X80450000Y-58800000D03*
X78950000Y-58800000D03*
X78950000Y-57200000D03*
X80450000Y-57200000D03*
X80450000Y-58000000D03*
%TD*%
%TO.C,D12*%
X73550000Y-116900000D03*
X75050000Y-117700000D03*
X73550000Y-117700000D03*
X73550000Y-116100000D03*
X75050000Y-116100000D03*
X75050000Y-116900000D03*
%TD*%
%TO.C,D57*%
X78950000Y-101400000D03*
X80450000Y-102200000D03*
X78950000Y-102200000D03*
X78950000Y-100600000D03*
X80450000Y-100600000D03*
X80450000Y-101400000D03*
%TD*%
%TO.C,D74*%
X78950000Y-48700000D03*
X80450000Y-49500000D03*
X78950000Y-49500000D03*
X78950000Y-47900000D03*
X80450000Y-47900000D03*
X80450000Y-48700000D03*
%TD*%
%TO.C,D19*%
X73550000Y-95200000D03*
X75050000Y-96000000D03*
X73550000Y-96000000D03*
X73550000Y-94400000D03*
X75050000Y-94400000D03*
X75050000Y-95200000D03*
%TD*%
%TO.C,D28*%
X73550000Y-67300000D03*
X75050000Y-68100000D03*
X73550000Y-68100000D03*
X73550000Y-66500000D03*
X75050000Y-66500000D03*
X75050000Y-67300000D03*
%TD*%
%TO.C,D42*%
X78950000Y-147900000D03*
X80450000Y-148700000D03*
X78950000Y-148700000D03*
X78950000Y-147100000D03*
X80450000Y-147100000D03*
X80450000Y-147900000D03*
%TD*%
%TO.C,D9*%
X73550000Y-126200000D03*
X75050000Y-127000000D03*
X73550000Y-127000000D03*
X73550000Y-125400000D03*
X75050000Y-125400000D03*
X75050000Y-126200000D03*
%TD*%
%TO.C,D59*%
X78950000Y-95200000D03*
X80450000Y-96000000D03*
X78950000Y-96000000D03*
X78950000Y-94400000D03*
X80450000Y-94400000D03*
X80450000Y-95200000D03*
%TD*%
%TO.C,D52*%
X78950000Y-116900000D03*
X80450000Y-117700000D03*
X78950000Y-117700000D03*
X78950000Y-116100000D03*
X80450000Y-116100000D03*
X80450000Y-116900000D03*
%TD*%
%TO.C,D1*%
X73550000Y-151000000D03*
X75050000Y-151800000D03*
X73550000Y-151800000D03*
X73550000Y-150200000D03*
X75050000Y-150200000D03*
X75050000Y-151000000D03*
%TD*%
%TO.C,D26*%
X73550000Y-73500000D03*
X75050000Y-74300000D03*
X73550000Y-74300000D03*
X73550000Y-72700000D03*
X75050000Y-72700000D03*
X75050000Y-73500000D03*
%TD*%
%TO.C,D65*%
X78950000Y-76600000D03*
X80450000Y-77400000D03*
X78950000Y-77400000D03*
X78950000Y-75800000D03*
X80450000Y-75800000D03*
X80450000Y-76600000D03*
%TD*%
%TO.C,D44*%
X78950000Y-141700000D03*
X80450000Y-142500000D03*
X78950000Y-142500000D03*
X78950000Y-140900000D03*
X80450000Y-140900000D03*
X80450000Y-141700000D03*
%TD*%
%TO.C,D2*%
X73550000Y-147900000D03*
X75050000Y-148700000D03*
X73550000Y-148700000D03*
X73550000Y-147100000D03*
X75050000Y-147100000D03*
X75050000Y-147900000D03*
%TD*%
%TO.C,D61*%
X78950000Y-89000000D03*
X80450000Y-89800000D03*
X78950000Y-89800000D03*
X78950000Y-88200000D03*
X80450000Y-88200000D03*
X80450000Y-89000000D03*
%TD*%
%TO.C,D77*%
X78950000Y-39400000D03*
X80450000Y-40200000D03*
X78950000Y-40200000D03*
X78950000Y-38600000D03*
X80450000Y-38600000D03*
X80450000Y-39400000D03*
%TD*%
%TO.C,D23*%
X73550000Y-82800000D03*
X75050000Y-83600000D03*
X73550000Y-83600000D03*
X73550000Y-82000000D03*
X75050000Y-82000000D03*
X75050000Y-82800000D03*
%TD*%
%TO.C,D22*%
X73550000Y-85900000D03*
X75050000Y-86700000D03*
X73550000Y-86700000D03*
X73550000Y-85100000D03*
X75050000Y-85100000D03*
X75050000Y-85900000D03*
%TD*%
%TO.C,D16*%
X73550000Y-104500000D03*
X75050000Y-105300000D03*
X73550000Y-105300000D03*
X73550000Y-103700000D03*
X75050000Y-103700000D03*
X75050000Y-104500000D03*
%TD*%
%TO.C,D35*%
X62750000Y-45600000D03*
X64250000Y-46400000D03*
X62750000Y-46400000D03*
X62750000Y-44800000D03*
X64250000Y-44800000D03*
X64250000Y-45600000D03*
%TD*%
%TO.C,D76*%
X68150000Y-42500000D03*
X69650000Y-43300000D03*
X68150000Y-43300000D03*
X68150000Y-41700000D03*
X69650000Y-41700000D03*
X69650000Y-42500000D03*
%TD*%
%TO.C,D68*%
X68150000Y-67300000D03*
X69650000Y-68100000D03*
X68150000Y-68100000D03*
X68150000Y-66500000D03*
X69650000Y-66500000D03*
X69650000Y-67300000D03*
%TD*%
%TO.C,D26*%
X62750000Y-73500000D03*
X64250000Y-74300000D03*
X62750000Y-74300000D03*
X62750000Y-72700000D03*
X64250000Y-72700000D03*
X64250000Y-73500000D03*
%TD*%
%TO.C,D17*%
X62750000Y-101400000D03*
X64250000Y-102200000D03*
X62750000Y-102200000D03*
X62750000Y-100600000D03*
X64250000Y-100600000D03*
X64250000Y-101400000D03*
%TD*%
%TO.C,D34*%
X62750000Y-48700000D03*
X64250000Y-49500000D03*
X62750000Y-49500000D03*
X62750000Y-47900000D03*
X64250000Y-47900000D03*
X64250000Y-48700000D03*
%TD*%
%TO.C,D4*%
X62750000Y-141700000D03*
X64250000Y-142500000D03*
X62750000Y-142500000D03*
X62750000Y-140900000D03*
X64250000Y-140900000D03*
X64250000Y-141700000D03*
%TD*%
%TO.C,D79*%
X68150000Y-33200000D03*
X69650000Y-34000000D03*
X68150000Y-34000000D03*
X68150000Y-32400000D03*
X69650000Y-32400000D03*
X69650000Y-33200000D03*
%TD*%
%TO.C,D14*%
X62750000Y-110700000D03*
X64250000Y-111500000D03*
X62750000Y-111500000D03*
X62750000Y-109900000D03*
X64250000Y-109900000D03*
X64250000Y-110700000D03*
%TD*%
%TO.C,D47*%
X68150000Y-132400000D03*
X69650000Y-133200000D03*
X68150000Y-133200000D03*
X68150000Y-131600000D03*
X69650000Y-131600000D03*
X69650000Y-132400000D03*
%TD*%
%TO.C,D75*%
X68150000Y-45600000D03*
X69650000Y-46400000D03*
X68150000Y-46400000D03*
X68150000Y-44800000D03*
X69650000Y-44800000D03*
X69650000Y-45600000D03*
%TD*%
%TO.C,D71*%
X68150000Y-58000000D03*
X69650000Y-58800000D03*
X68150000Y-58800000D03*
X68150000Y-57200000D03*
X69650000Y-57200000D03*
X69650000Y-58000000D03*
%TD*%
%TO.C,D63*%
X68150000Y-82800000D03*
X69650000Y-83600000D03*
X68150000Y-83600000D03*
X68150000Y-82000000D03*
X69650000Y-82000000D03*
X69650000Y-82800000D03*
%TD*%
%TO.C,D78*%
X68150000Y-36300000D03*
X69650000Y-37100000D03*
X68150000Y-37100000D03*
X68150000Y-35500000D03*
X69650000Y-35500000D03*
X69650000Y-36300000D03*
%TD*%
%TO.C,D56*%
X68150000Y-104500000D03*
X69650000Y-105300000D03*
X68150000Y-105300000D03*
X68150000Y-103700000D03*
X69650000Y-103700000D03*
X69650000Y-104500000D03*
%TD*%
%TO.C,D55*%
X68150000Y-107600000D03*
X69650000Y-108400000D03*
X68150000Y-108400000D03*
X68150000Y-106800000D03*
X69650000Y-106800000D03*
X69650000Y-107600000D03*
%TD*%
%TO.C,D7*%
X62750000Y-132400000D03*
X64250000Y-133200000D03*
X62750000Y-133200000D03*
X62750000Y-131600000D03*
X64250000Y-131600000D03*
X64250000Y-132400000D03*
%TD*%
%TO.C,D31*%
X62750000Y-58000000D03*
X64250000Y-58800000D03*
X62750000Y-58800000D03*
X62750000Y-57200000D03*
X64250000Y-57200000D03*
X64250000Y-58000000D03*
%TD*%
%TO.C,D50*%
X68150000Y-123100000D03*
X69650000Y-123900000D03*
X68150000Y-123900000D03*
X68150000Y-122300000D03*
X69650000Y-122300000D03*
X69650000Y-123100000D03*
%TD*%
%TO.C,D42*%
X68150000Y-147900000D03*
X69650000Y-148700000D03*
X68150000Y-148700000D03*
X68150000Y-147100000D03*
X69650000Y-147100000D03*
X69650000Y-147900000D03*
%TD*%
%TO.C,D24*%
X62750000Y-79700000D03*
X64250000Y-80500000D03*
X62750000Y-80500000D03*
X62750000Y-78900000D03*
X64250000Y-78900000D03*
X64250000Y-79700000D03*
%TD*%
%TO.C,D67*%
X68150000Y-70400000D03*
X69650000Y-71200000D03*
X68150000Y-71200000D03*
X68150000Y-69600000D03*
X69650000Y-69600000D03*
X69650000Y-70400000D03*
%TD*%
%TO.C,D48*%
X68150000Y-129300000D03*
X69650000Y-130100000D03*
X68150000Y-130100000D03*
X68150000Y-128500000D03*
X69650000Y-128500000D03*
X69650000Y-129300000D03*
%TD*%
%TO.C,D11*%
X62750000Y-120000000D03*
X64250000Y-120800000D03*
X62750000Y-120800000D03*
X62750000Y-119200000D03*
X64250000Y-119200000D03*
X64250000Y-120000000D03*
%TD*%
%TO.C,D58*%
X68150000Y-98300000D03*
X69650000Y-99100000D03*
X68150000Y-99100000D03*
X68150000Y-97500000D03*
X69650000Y-97500000D03*
X69650000Y-98300000D03*
%TD*%
%TO.C,D41*%
X68150000Y-151000000D03*
X69650000Y-151800000D03*
X68150000Y-151800000D03*
X68150000Y-150200000D03*
X69650000Y-150200000D03*
X69650000Y-151000000D03*
%TD*%
%TO.C,D43*%
X68150000Y-144800000D03*
X69650000Y-145600000D03*
X68150000Y-145600000D03*
X68150000Y-144000000D03*
X69650000Y-144000000D03*
X69650000Y-144800000D03*
%TD*%
%TO.C,D25*%
X62750000Y-76600000D03*
X64250000Y-77400000D03*
X62750000Y-77400000D03*
X62750000Y-75800000D03*
X64250000Y-75800000D03*
X64250000Y-76600000D03*
%TD*%
%TO.C,D15*%
X62750000Y-107600000D03*
X64250000Y-108400000D03*
X62750000Y-108400000D03*
X62750000Y-106800000D03*
X64250000Y-106800000D03*
X64250000Y-107600000D03*
%TD*%
%TO.C,D29*%
X62750000Y-64200000D03*
X64250000Y-65000000D03*
X62750000Y-65000000D03*
X62750000Y-63400000D03*
X64250000Y-63400000D03*
X64250000Y-64200000D03*
%TD*%
%TO.C,D27*%
X62750000Y-70400000D03*
X64250000Y-71200000D03*
X62750000Y-71200000D03*
X62750000Y-69600000D03*
X64250000Y-69600000D03*
X64250000Y-70400000D03*
%TD*%
%TO.C,D40*%
X62750000Y-30100000D03*
X64250000Y-30900000D03*
X62750000Y-30900000D03*
X62750000Y-29300000D03*
X64250000Y-29300000D03*
X64250000Y-30100000D03*
%TD*%
%TO.C,D38*%
X62750000Y-36300000D03*
X64250000Y-37100000D03*
X62750000Y-37100000D03*
X62750000Y-35500000D03*
X64250000Y-35500000D03*
X64250000Y-36300000D03*
%TD*%
%TO.C,D36*%
X62750000Y-42500000D03*
X64250000Y-43300000D03*
X62750000Y-43300000D03*
X62750000Y-41700000D03*
X64250000Y-41700000D03*
X64250000Y-42500000D03*
%TD*%
%TO.C,D33*%
X62750000Y-51800000D03*
X64250000Y-52600000D03*
X62750000Y-52600000D03*
X62750000Y-51000000D03*
X64250000Y-51000000D03*
X64250000Y-51800000D03*
%TD*%
%TO.C,D65*%
X68150000Y-76600000D03*
X69650000Y-77400000D03*
X68150000Y-77400000D03*
X68150000Y-75800000D03*
X69650000Y-75800000D03*
X69650000Y-76600000D03*
%TD*%
%TO.C,D64*%
X68150000Y-79700000D03*
X69650000Y-80500000D03*
X68150000Y-80500000D03*
X68150000Y-78900000D03*
X69650000Y-78900000D03*
X69650000Y-79700000D03*
%TD*%
%TO.C,D13*%
X62750000Y-113800000D03*
X64250000Y-114600000D03*
X62750000Y-114600000D03*
X62750000Y-113000000D03*
X64250000Y-113000000D03*
X64250000Y-113800000D03*
%TD*%
%TO.C,D80*%
X68150000Y-30100000D03*
X69650000Y-30900000D03*
X68150000Y-30900000D03*
X68150000Y-29300000D03*
X69650000Y-29300000D03*
X69650000Y-30100000D03*
%TD*%
%TO.C,D21*%
X62750000Y-89000000D03*
X64250000Y-89800000D03*
X62750000Y-89800000D03*
X62750000Y-88200000D03*
X64250000Y-88200000D03*
X64250000Y-89000000D03*
%TD*%
%TO.C,D69*%
X68150000Y-64200000D03*
X69650000Y-65000000D03*
X68150000Y-65000000D03*
X68150000Y-63400000D03*
X69650000Y-63400000D03*
X69650000Y-64200000D03*
%TD*%
%TO.C,D51*%
X68150000Y-120000000D03*
X69650000Y-120800000D03*
X68150000Y-120800000D03*
X68150000Y-119200000D03*
X69650000Y-119200000D03*
X69650000Y-120000000D03*
%TD*%
%TO.C,D39*%
X62750000Y-33200000D03*
X64250000Y-34000000D03*
X62750000Y-34000000D03*
X62750000Y-32400000D03*
X64250000Y-32400000D03*
X64250000Y-33200000D03*
%TD*%
%TO.C,D60*%
X68150000Y-92100000D03*
X69650000Y-92900000D03*
X68150000Y-92900000D03*
X68150000Y-91300000D03*
X69650000Y-91300000D03*
X69650000Y-92100000D03*
%TD*%
%TO.C,D10*%
X62750000Y-123100000D03*
X64250000Y-123900000D03*
X62750000Y-123900000D03*
X62750000Y-122300000D03*
X64250000Y-122300000D03*
X64250000Y-123100000D03*
%TD*%
%TO.C,D32*%
X62750000Y-54900000D03*
X64250000Y-55700000D03*
X62750000Y-55700000D03*
X62750000Y-54100000D03*
X64250000Y-54100000D03*
X64250000Y-54900000D03*
%TD*%
%TO.C,D18*%
X62750000Y-98300000D03*
X64250000Y-99100000D03*
X62750000Y-99100000D03*
X62750000Y-97500000D03*
X64250000Y-97500000D03*
X64250000Y-98300000D03*
%TD*%
%TO.C,D6*%
X62750000Y-135500000D03*
X64250000Y-136300000D03*
X62750000Y-136300000D03*
X62750000Y-134700000D03*
X64250000Y-134700000D03*
X64250000Y-135500000D03*
%TD*%
%TO.C,D62*%
X68150000Y-85900000D03*
X69650000Y-86700000D03*
X68150000Y-86700000D03*
X68150000Y-85100000D03*
X69650000Y-85100000D03*
X69650000Y-85900000D03*
%TD*%
%TO.C,D72*%
X68150000Y-54900000D03*
X69650000Y-55700000D03*
X68150000Y-55700000D03*
X68150000Y-54100000D03*
X69650000Y-54100000D03*
X69650000Y-54900000D03*
%TD*%
%TO.C,D45*%
X68150000Y-138600000D03*
X69650000Y-139400000D03*
X68150000Y-139400000D03*
X68150000Y-137800000D03*
X69650000Y-137800000D03*
X69650000Y-138600000D03*
%TD*%
%TO.C,D49*%
X68150000Y-126200000D03*
X69650000Y-127000000D03*
X68150000Y-127000000D03*
X68150000Y-125400000D03*
X69650000Y-125400000D03*
X69650000Y-126200000D03*
%TD*%
%TO.C,D66*%
X68150000Y-73500000D03*
X69650000Y-74300000D03*
X68150000Y-74300000D03*
X68150000Y-72700000D03*
X69650000Y-72700000D03*
X69650000Y-73500000D03*
%TD*%
%TO.C,D37*%
X62750000Y-39400000D03*
X64250000Y-40200000D03*
X62750000Y-40200000D03*
X62750000Y-38600000D03*
X64250000Y-38600000D03*
X64250000Y-39400000D03*
%TD*%
%TO.C,D73*%
X68150000Y-51800000D03*
X69650000Y-52600000D03*
X68150000Y-52600000D03*
X68150000Y-51000000D03*
X69650000Y-51000000D03*
X69650000Y-51800000D03*
%TD*%
%TO.C,D53*%
X68150000Y-113800000D03*
X69650000Y-114600000D03*
X68150000Y-114600000D03*
X68150000Y-113000000D03*
X69650000Y-113000000D03*
X69650000Y-113800000D03*
%TD*%
%TO.C,D12*%
X62750000Y-116900000D03*
X64250000Y-117700000D03*
X62750000Y-117700000D03*
X62750000Y-116100000D03*
X64250000Y-116100000D03*
X64250000Y-116900000D03*
%TD*%
%TO.C,D57*%
X68150000Y-101400000D03*
X69650000Y-102200000D03*
X68150000Y-102200000D03*
X68150000Y-100600000D03*
X69650000Y-100600000D03*
X69650000Y-101400000D03*
%TD*%
%TO.C,D19*%
X62750000Y-95200000D03*
X64250000Y-96000000D03*
X62750000Y-96000000D03*
X62750000Y-94400000D03*
X64250000Y-94400000D03*
X64250000Y-95200000D03*
%TD*%
%TO.C,D61*%
X68150000Y-89000000D03*
X69650000Y-89800000D03*
X68150000Y-89800000D03*
X68150000Y-88200000D03*
X69650000Y-88200000D03*
X69650000Y-89000000D03*
%TD*%
%TO.C,D3*%
X62750000Y-144800000D03*
X64250000Y-145600000D03*
X62750000Y-145600000D03*
X62750000Y-144000000D03*
X64250000Y-144000000D03*
X64250000Y-144800000D03*
%TD*%
%TO.C,D28*%
X62750000Y-67300000D03*
X64250000Y-68100000D03*
X62750000Y-68100000D03*
X62750000Y-66500000D03*
X64250000Y-66500000D03*
X64250000Y-67300000D03*
%TD*%
%TO.C,D9*%
X62750000Y-126200000D03*
X64250000Y-127000000D03*
X62750000Y-127000000D03*
X62750000Y-125400000D03*
X64250000Y-125400000D03*
X64250000Y-126200000D03*
%TD*%
%TO.C,D30*%
X62750000Y-61100000D03*
X64250000Y-61900000D03*
X62750000Y-61900000D03*
X62750000Y-60300000D03*
X64250000Y-60300000D03*
X64250000Y-61100000D03*
%TD*%
%TO.C,D59*%
X68150000Y-95200000D03*
X69650000Y-96000000D03*
X68150000Y-96000000D03*
X68150000Y-94400000D03*
X69650000Y-94400000D03*
X69650000Y-95200000D03*
%TD*%
%TO.C,D52*%
X68150000Y-116900000D03*
X69650000Y-117700000D03*
X68150000Y-117700000D03*
X68150000Y-116100000D03*
X69650000Y-116100000D03*
X69650000Y-116900000D03*
%TD*%
%TO.C,D70*%
X68150000Y-61100000D03*
X69650000Y-61900000D03*
X68150000Y-61900000D03*
X68150000Y-60300000D03*
X69650000Y-60300000D03*
X69650000Y-61100000D03*
%TD*%
%TO.C,D74*%
X68150000Y-48700000D03*
X69650000Y-49500000D03*
X68150000Y-49500000D03*
X68150000Y-47900000D03*
X69650000Y-47900000D03*
X69650000Y-48700000D03*
%TD*%
%TO.C,D77*%
X68150000Y-39400000D03*
X69650000Y-40200000D03*
X68150000Y-40200000D03*
X68150000Y-38600000D03*
X69650000Y-38600000D03*
X69650000Y-39400000D03*
%TD*%
%TO.C,D44*%
X68150000Y-141700000D03*
X69650000Y-142500000D03*
X68150000Y-142500000D03*
X68150000Y-140900000D03*
X69650000Y-140900000D03*
X69650000Y-141700000D03*
%TD*%
%TO.C,D54*%
X68150000Y-110700000D03*
X69650000Y-111500000D03*
X68150000Y-111500000D03*
X68150000Y-109900000D03*
X69650000Y-109900000D03*
X69650000Y-110700000D03*
%TD*%
%TO.C,D2*%
X62750000Y-147900000D03*
X64250000Y-148700000D03*
X62750000Y-148700000D03*
X62750000Y-147100000D03*
X64250000Y-147100000D03*
X64250000Y-147900000D03*
%TD*%
%TO.C,D5*%
X62750000Y-138600000D03*
X64250000Y-139400000D03*
X62750000Y-139400000D03*
X62750000Y-137800000D03*
X64250000Y-137800000D03*
X64250000Y-138600000D03*
%TD*%
%TO.C,D23*%
X62750000Y-82800000D03*
X64250000Y-83600000D03*
X62750000Y-83600000D03*
X62750000Y-82000000D03*
X64250000Y-82000000D03*
X64250000Y-82800000D03*
%TD*%
%TO.C,D20*%
X62750000Y-92100000D03*
X64250000Y-92900000D03*
X62750000Y-92900000D03*
X62750000Y-91300000D03*
X64250000Y-91300000D03*
X64250000Y-92100000D03*
%TD*%
%TO.C,D22*%
X62750000Y-85900000D03*
X64250000Y-86700000D03*
X62750000Y-86700000D03*
X62750000Y-85100000D03*
X64250000Y-85100000D03*
X64250000Y-85900000D03*
%TD*%
%TO.C,D8*%
X62750000Y-129300000D03*
X64250000Y-130100000D03*
X62750000Y-130100000D03*
X62750000Y-128500000D03*
X64250000Y-128500000D03*
X64250000Y-129300000D03*
%TD*%
%TO.C,D46*%
X68150000Y-135500000D03*
X69650000Y-136300000D03*
X68150000Y-136300000D03*
X68150000Y-134700000D03*
X69650000Y-134700000D03*
X69650000Y-135500000D03*
%TD*%
%TO.C,D1*%
X62750000Y-151000000D03*
X64250000Y-151800000D03*
X62750000Y-151800000D03*
X62750000Y-150200000D03*
X64250000Y-150200000D03*
X64250000Y-151000000D03*
%TD*%
%TO.C,D16*%
X62750000Y-104500000D03*
X64250000Y-105300000D03*
X62750000Y-105300000D03*
X62750000Y-103700000D03*
X64250000Y-103700000D03*
X64250000Y-104500000D03*
%TD*%
%TO.C,D35*%
X51950000Y-45600000D03*
X53450000Y-46400000D03*
X51950000Y-46400000D03*
X51950000Y-44800000D03*
X53450000Y-44800000D03*
X53450000Y-45600000D03*
%TD*%
%TO.C,D17*%
X51950000Y-101400000D03*
X53450000Y-102200000D03*
X51950000Y-102200000D03*
X51950000Y-100600000D03*
X53450000Y-100600000D03*
X53450000Y-101400000D03*
%TD*%
%TO.C,D76*%
X57350000Y-42500000D03*
X58850000Y-43300000D03*
X57350000Y-43300000D03*
X57350000Y-41700000D03*
X58850000Y-41700000D03*
X58850000Y-42500000D03*
%TD*%
%TO.C,D68*%
X57350000Y-67300000D03*
X58850000Y-68100000D03*
X57350000Y-68100000D03*
X57350000Y-66500000D03*
X58850000Y-66500000D03*
X58850000Y-67300000D03*
%TD*%
%TO.C,D34*%
X51950000Y-48700000D03*
X53450000Y-49500000D03*
X51950000Y-49500000D03*
X51950000Y-47900000D03*
X53450000Y-47900000D03*
X53450000Y-48700000D03*
%TD*%
%TO.C,D40*%
X51950000Y-30100000D03*
X53450000Y-30900000D03*
X51950000Y-30900000D03*
X51950000Y-29300000D03*
X53450000Y-29300000D03*
X53450000Y-30100000D03*
%TD*%
%TO.C,D4*%
X51950000Y-141700000D03*
X53450000Y-142500000D03*
X51950000Y-142500000D03*
X51950000Y-140900000D03*
X53450000Y-140900000D03*
X53450000Y-141700000D03*
%TD*%
%TO.C,D79*%
X57350000Y-33200000D03*
X58850000Y-34000000D03*
X57350000Y-34000000D03*
X57350000Y-32400000D03*
X58850000Y-32400000D03*
X58850000Y-33200000D03*
%TD*%
%TO.C,D75*%
X57350000Y-45600000D03*
X58850000Y-46400000D03*
X57350000Y-46400000D03*
X57350000Y-44800000D03*
X58850000Y-44800000D03*
X58850000Y-45600000D03*
%TD*%
%TO.C,D26*%
X51950000Y-73500000D03*
X53450000Y-74300000D03*
X51950000Y-74300000D03*
X51950000Y-72700000D03*
X53450000Y-72700000D03*
X53450000Y-73500000D03*
%TD*%
%TO.C,D44*%
X57350000Y-141700000D03*
X58850000Y-142500000D03*
X57350000Y-142500000D03*
X57350000Y-140900000D03*
X58850000Y-140900000D03*
X58850000Y-141700000D03*
%TD*%
%TO.C,D63*%
X57350000Y-82800000D03*
X58850000Y-83600000D03*
X57350000Y-83600000D03*
X57350000Y-82000000D03*
X58850000Y-82000000D03*
X58850000Y-82800000D03*
%TD*%
%TO.C,D78*%
X57350000Y-36300000D03*
X58850000Y-37100000D03*
X57350000Y-37100000D03*
X57350000Y-35500000D03*
X58850000Y-35500000D03*
X58850000Y-36300000D03*
%TD*%
%TO.C,D73*%
X57350000Y-51800000D03*
X58850000Y-52600000D03*
X57350000Y-52600000D03*
X57350000Y-51000000D03*
X58850000Y-51000000D03*
X58850000Y-51800000D03*
%TD*%
%TO.C,D55*%
X57350000Y-107600000D03*
X58850000Y-108400000D03*
X57350000Y-108400000D03*
X57350000Y-106800000D03*
X58850000Y-106800000D03*
X58850000Y-107600000D03*
%TD*%
%TO.C,D7*%
X51950000Y-132400000D03*
X53450000Y-133200000D03*
X51950000Y-133200000D03*
X51950000Y-131600000D03*
X53450000Y-131600000D03*
X53450000Y-132400000D03*
%TD*%
%TO.C,D50*%
X57350000Y-123100000D03*
X58850000Y-123900000D03*
X57350000Y-123900000D03*
X57350000Y-122300000D03*
X58850000Y-122300000D03*
X58850000Y-123100000D03*
%TD*%
%TO.C,D24*%
X51950000Y-79700000D03*
X53450000Y-80500000D03*
X51950000Y-80500000D03*
X51950000Y-78900000D03*
X53450000Y-78900000D03*
X53450000Y-79700000D03*
%TD*%
%TO.C,D67*%
X57350000Y-70400000D03*
X58850000Y-71200000D03*
X57350000Y-71200000D03*
X57350000Y-69600000D03*
X58850000Y-69600000D03*
X58850000Y-70400000D03*
%TD*%
%TO.C,D32*%
X51950000Y-54900000D03*
X53450000Y-55700000D03*
X51950000Y-55700000D03*
X51950000Y-54100000D03*
X53450000Y-54100000D03*
X53450000Y-54900000D03*
%TD*%
%TO.C,D69*%
X57350000Y-64200000D03*
X58850000Y-65000000D03*
X57350000Y-65000000D03*
X57350000Y-63400000D03*
X58850000Y-63400000D03*
X58850000Y-64200000D03*
%TD*%
%TO.C,D48*%
X57350000Y-129300000D03*
X58850000Y-130100000D03*
X57350000Y-130100000D03*
X57350000Y-128500000D03*
X58850000Y-128500000D03*
X58850000Y-129300000D03*
%TD*%
%TO.C,D11*%
X51950000Y-120000000D03*
X53450000Y-120800000D03*
X51950000Y-120800000D03*
X51950000Y-119200000D03*
X53450000Y-119200000D03*
X53450000Y-120000000D03*
%TD*%
%TO.C,D58*%
X57350000Y-98300000D03*
X58850000Y-99100000D03*
X57350000Y-99100000D03*
X57350000Y-97500000D03*
X58850000Y-97500000D03*
X58850000Y-98300000D03*
%TD*%
%TO.C,D41*%
X57350000Y-151000000D03*
X58850000Y-151800000D03*
X57350000Y-151800000D03*
X57350000Y-150200000D03*
X58850000Y-150200000D03*
X58850000Y-151000000D03*
%TD*%
%TO.C,D43*%
X57350000Y-144800000D03*
X58850000Y-145600000D03*
X57350000Y-145600000D03*
X57350000Y-144000000D03*
X58850000Y-144000000D03*
X58850000Y-144800000D03*
%TD*%
%TO.C,D47*%
X57350000Y-132400000D03*
X58850000Y-133200000D03*
X57350000Y-133200000D03*
X57350000Y-131600000D03*
X58850000Y-131600000D03*
X58850000Y-132400000D03*
%TD*%
%TO.C,D25*%
X51950000Y-76600000D03*
X53450000Y-77400000D03*
X51950000Y-77400000D03*
X51950000Y-75800000D03*
X53450000Y-75800000D03*
X53450000Y-76600000D03*
%TD*%
%TO.C,D31*%
X51950000Y-58000000D03*
X53450000Y-58800000D03*
X51950000Y-58800000D03*
X51950000Y-57200000D03*
X53450000Y-57200000D03*
X53450000Y-58000000D03*
%TD*%
%TO.C,D29*%
X51950000Y-64200000D03*
X53450000Y-65000000D03*
X51950000Y-65000000D03*
X51950000Y-63400000D03*
X53450000Y-63400000D03*
X53450000Y-64200000D03*
%TD*%
%TO.C,D27*%
X51950000Y-70400000D03*
X53450000Y-71200000D03*
X51950000Y-71200000D03*
X51950000Y-69600000D03*
X53450000Y-69600000D03*
X53450000Y-70400000D03*
%TD*%
%TO.C,D38*%
X51950000Y-36300000D03*
X53450000Y-37100000D03*
X51950000Y-37100000D03*
X51950000Y-35500000D03*
X53450000Y-35500000D03*
X53450000Y-36300000D03*
%TD*%
%TO.C,D59*%
X57350000Y-95200000D03*
X58850000Y-96000000D03*
X57350000Y-96000000D03*
X57350000Y-94400000D03*
X58850000Y-94400000D03*
X58850000Y-95200000D03*
%TD*%
%TO.C,D74*%
X57350000Y-48700000D03*
X58850000Y-49500000D03*
X57350000Y-49500000D03*
X57350000Y-47900000D03*
X58850000Y-47900000D03*
X58850000Y-48700000D03*
%TD*%
%TO.C,D33*%
X51950000Y-51800000D03*
X53450000Y-52600000D03*
X51950000Y-52600000D03*
X51950000Y-51000000D03*
X53450000Y-51000000D03*
X53450000Y-51800000D03*
%TD*%
%TO.C,D64*%
X57350000Y-79700000D03*
X58850000Y-80500000D03*
X57350000Y-80500000D03*
X57350000Y-78900000D03*
X58850000Y-78900000D03*
X58850000Y-79700000D03*
%TD*%
%TO.C,D13*%
X51950000Y-113800000D03*
X53450000Y-114600000D03*
X51950000Y-114600000D03*
X51950000Y-113000000D03*
X53450000Y-113000000D03*
X53450000Y-113800000D03*
%TD*%
%TO.C,D51*%
X57350000Y-120000000D03*
X58850000Y-120800000D03*
X57350000Y-120800000D03*
X57350000Y-119200000D03*
X58850000Y-119200000D03*
X58850000Y-120000000D03*
%TD*%
%TO.C,D80*%
X57350000Y-30100000D03*
X58850000Y-30900000D03*
X57350000Y-30900000D03*
X57350000Y-29300000D03*
X58850000Y-29300000D03*
X58850000Y-30100000D03*
%TD*%
%TO.C,D20*%
X51950000Y-92100000D03*
X53450000Y-92900000D03*
X51950000Y-92900000D03*
X51950000Y-91300000D03*
X53450000Y-91300000D03*
X53450000Y-92100000D03*
%TD*%
%TO.C,D46*%
X57350000Y-135500000D03*
X58850000Y-136300000D03*
X57350000Y-136300000D03*
X57350000Y-134700000D03*
X58850000Y-134700000D03*
X58850000Y-135500000D03*
%TD*%
%TO.C,D21*%
X51950000Y-89000000D03*
X53450000Y-89800000D03*
X51950000Y-89800000D03*
X51950000Y-88200000D03*
X53450000Y-88200000D03*
X53450000Y-89000000D03*
%TD*%
%TO.C,D19*%
X51950000Y-95200000D03*
X53450000Y-96000000D03*
X51950000Y-96000000D03*
X51950000Y-94400000D03*
X53450000Y-94400000D03*
X53450000Y-95200000D03*
%TD*%
%TO.C,D66*%
X57350000Y-73500000D03*
X58850000Y-74300000D03*
X57350000Y-74300000D03*
X57350000Y-72700000D03*
X58850000Y-72700000D03*
X58850000Y-73500000D03*
%TD*%
%TO.C,D10*%
X51950000Y-123100000D03*
X53450000Y-123900000D03*
X51950000Y-123900000D03*
X51950000Y-122300000D03*
X53450000Y-122300000D03*
X53450000Y-123100000D03*
%TD*%
%TO.C,D56*%
X57350000Y-104500000D03*
X58850000Y-105300000D03*
X57350000Y-105300000D03*
X57350000Y-103700000D03*
X58850000Y-103700000D03*
X58850000Y-104500000D03*
%TD*%
%TO.C,D18*%
X51950000Y-98300000D03*
X53450000Y-99100000D03*
X51950000Y-99100000D03*
X51950000Y-97500000D03*
X53450000Y-97500000D03*
X53450000Y-98300000D03*
%TD*%
%TO.C,D62*%
X57350000Y-85900000D03*
X58850000Y-86700000D03*
X57350000Y-86700000D03*
X57350000Y-85100000D03*
X58850000Y-85100000D03*
X58850000Y-85900000D03*
%TD*%
%TO.C,D72*%
X57350000Y-54900000D03*
X58850000Y-55700000D03*
X57350000Y-55700000D03*
X57350000Y-54100000D03*
X58850000Y-54100000D03*
X58850000Y-54900000D03*
%TD*%
%TO.C,D71*%
X57350000Y-58000000D03*
X58850000Y-58800000D03*
X57350000Y-58800000D03*
X57350000Y-57200000D03*
X58850000Y-57200000D03*
X58850000Y-58000000D03*
%TD*%
%TO.C,D14*%
X51950000Y-110700000D03*
X53450000Y-111500000D03*
X51950000Y-111500000D03*
X51950000Y-109900000D03*
X53450000Y-109900000D03*
X53450000Y-110700000D03*
%TD*%
%TO.C,D6*%
X51950000Y-135500000D03*
X53450000Y-136300000D03*
X51950000Y-136300000D03*
X51950000Y-134700000D03*
X53450000Y-134700000D03*
X53450000Y-135500000D03*
%TD*%
%TO.C,D39*%
X51950000Y-33200000D03*
X53450000Y-34000000D03*
X51950000Y-34000000D03*
X51950000Y-32400000D03*
X53450000Y-32400000D03*
X53450000Y-33200000D03*
%TD*%
%TO.C,D45*%
X57350000Y-138600000D03*
X58850000Y-139400000D03*
X57350000Y-139400000D03*
X57350000Y-137800000D03*
X58850000Y-137800000D03*
X58850000Y-138600000D03*
%TD*%
%TO.C,D49*%
X57350000Y-126200000D03*
X58850000Y-127000000D03*
X57350000Y-127000000D03*
X57350000Y-125400000D03*
X58850000Y-125400000D03*
X58850000Y-126200000D03*
%TD*%
%TO.C,D15*%
X51950000Y-107600000D03*
X53450000Y-108400000D03*
X51950000Y-108400000D03*
X51950000Y-106800000D03*
X53450000Y-106800000D03*
X53450000Y-107600000D03*
%TD*%
%TO.C,D36*%
X51950000Y-42500000D03*
X53450000Y-43300000D03*
X51950000Y-43300000D03*
X51950000Y-41700000D03*
X53450000Y-41700000D03*
X53450000Y-42500000D03*
%TD*%
%TO.C,D37*%
X51950000Y-39400000D03*
X53450000Y-40200000D03*
X51950000Y-40200000D03*
X51950000Y-38600000D03*
X53450000Y-38600000D03*
X53450000Y-39400000D03*
%TD*%
%TO.C,D53*%
X57350000Y-113800000D03*
X58850000Y-114600000D03*
X57350000Y-114600000D03*
X57350000Y-113000000D03*
X58850000Y-113000000D03*
X58850000Y-113800000D03*
%TD*%
%TO.C,D12*%
X51950000Y-116900000D03*
X53450000Y-117700000D03*
X51950000Y-117700000D03*
X51950000Y-116100000D03*
X53450000Y-116100000D03*
X53450000Y-116900000D03*
%TD*%
%TO.C,D57*%
X57350000Y-101400000D03*
X58850000Y-102200000D03*
X57350000Y-102200000D03*
X57350000Y-100600000D03*
X58850000Y-100600000D03*
X58850000Y-101400000D03*
%TD*%
%TO.C,D3*%
X51950000Y-144800000D03*
X53450000Y-145600000D03*
X51950000Y-145600000D03*
X51950000Y-144000000D03*
X53450000Y-144000000D03*
X53450000Y-144800000D03*
%TD*%
%TO.C,D28*%
X51950000Y-67300000D03*
X53450000Y-68100000D03*
X51950000Y-68100000D03*
X51950000Y-66500000D03*
X53450000Y-66500000D03*
X53450000Y-67300000D03*
%TD*%
%TO.C,D42*%
X57350000Y-147900000D03*
X58850000Y-148700000D03*
X57350000Y-148700000D03*
X57350000Y-147100000D03*
X58850000Y-147100000D03*
X58850000Y-147900000D03*
%TD*%
%TO.C,D9*%
X51950000Y-126200000D03*
X53450000Y-127000000D03*
X51950000Y-127000000D03*
X51950000Y-125400000D03*
X53450000Y-125400000D03*
X53450000Y-126200000D03*
%TD*%
%TO.C,D30*%
X51950000Y-61100000D03*
X53450000Y-61900000D03*
X51950000Y-61900000D03*
X51950000Y-60300000D03*
X53450000Y-60300000D03*
X53450000Y-61100000D03*
%TD*%
%TO.C,D52*%
X57350000Y-116900000D03*
X58850000Y-117700000D03*
X57350000Y-117700000D03*
X57350000Y-116100000D03*
X58850000Y-116100000D03*
X58850000Y-116900000D03*
%TD*%
%TO.C,D70*%
X57350000Y-61100000D03*
X58850000Y-61900000D03*
X57350000Y-61900000D03*
X57350000Y-60300000D03*
X58850000Y-60300000D03*
X58850000Y-61100000D03*
%TD*%
%TO.C,D65*%
X57350000Y-76600000D03*
X58850000Y-77400000D03*
X57350000Y-77400000D03*
X57350000Y-75800000D03*
X58850000Y-75800000D03*
X58850000Y-76600000D03*
%TD*%
%TO.C,D54*%
X57350000Y-110700000D03*
X58850000Y-111500000D03*
X57350000Y-111500000D03*
X57350000Y-109900000D03*
X58850000Y-109900000D03*
X58850000Y-110700000D03*
%TD*%
%TO.C,D2*%
X51950000Y-147900000D03*
X53450000Y-148700000D03*
X51950000Y-148700000D03*
X51950000Y-147100000D03*
X53450000Y-147100000D03*
X53450000Y-147900000D03*
%TD*%
%TO.C,D61*%
X57350000Y-89000000D03*
X58850000Y-89800000D03*
X57350000Y-89800000D03*
X57350000Y-88200000D03*
X58850000Y-88200000D03*
X58850000Y-89000000D03*
%TD*%
%TO.C,D77*%
X57350000Y-39400000D03*
X58850000Y-40200000D03*
X57350000Y-40200000D03*
X57350000Y-38600000D03*
X58850000Y-38600000D03*
X58850000Y-39400000D03*
%TD*%
%TO.C,D5*%
X51950000Y-138600000D03*
X53450000Y-139400000D03*
X51950000Y-139400000D03*
X51950000Y-137800000D03*
X53450000Y-137800000D03*
X53450000Y-138600000D03*
%TD*%
%TO.C,D60*%
X57350000Y-92100000D03*
X58850000Y-92900000D03*
X57350000Y-92900000D03*
X57350000Y-91300000D03*
X58850000Y-91300000D03*
X58850000Y-92100000D03*
%TD*%
%TO.C,D23*%
X51950000Y-82800000D03*
X53450000Y-83600000D03*
X51950000Y-83600000D03*
X51950000Y-82000000D03*
X53450000Y-82000000D03*
X53450000Y-82800000D03*
%TD*%
%TO.C,D22*%
X51950000Y-85900000D03*
X53450000Y-86700000D03*
X51950000Y-86700000D03*
X51950000Y-85100000D03*
X53450000Y-85100000D03*
X53450000Y-85900000D03*
%TD*%
%TO.C,D8*%
X51950000Y-129300000D03*
X53450000Y-130100000D03*
X51950000Y-130100000D03*
X51950000Y-128500000D03*
X53450000Y-128500000D03*
X53450000Y-129300000D03*
%TD*%
%TO.C,D1*%
X51950000Y-151000000D03*
X53450000Y-151800000D03*
X51950000Y-151800000D03*
X51950000Y-150200000D03*
X53450000Y-150200000D03*
X53450000Y-151000000D03*
%TD*%
%TO.C,D16*%
X51950000Y-104500000D03*
X53450000Y-105300000D03*
X51950000Y-105300000D03*
X51950000Y-103700000D03*
X53450000Y-103700000D03*
X53450000Y-104500000D03*
%TD*%
%TO.C,D16*%
X127550000Y-104500000D03*
X129050000Y-105300000D03*
X127550000Y-105300000D03*
X127550000Y-103700000D03*
X129050000Y-103700000D03*
X129050000Y-104500000D03*
%TD*%
%TO.C,D1*%
X127550000Y-151000000D03*
X129050000Y-151800000D03*
X127550000Y-151800000D03*
X127550000Y-150200000D03*
X129050000Y-150200000D03*
X129050000Y-151000000D03*
%TD*%
%TO.C,D46*%
X132950000Y-135500000D03*
X134450000Y-136300000D03*
X132950000Y-136300000D03*
X132950000Y-134700000D03*
X134450000Y-134700000D03*
X134450000Y-135500000D03*
%TD*%
%TO.C,D8*%
X127550000Y-129300000D03*
X129050000Y-130100000D03*
X127550000Y-130100000D03*
X127550000Y-128500000D03*
X129050000Y-128500000D03*
X129050000Y-129300000D03*
%TD*%
%TO.C,D22*%
X127550000Y-85900000D03*
X129050000Y-86700000D03*
X127550000Y-86700000D03*
X127550000Y-85100000D03*
X129050000Y-85100000D03*
X129050000Y-85900000D03*
%TD*%
%TO.C,D20*%
X127550000Y-92100000D03*
X129050000Y-92900000D03*
X127550000Y-92900000D03*
X127550000Y-91300000D03*
X129050000Y-91300000D03*
X129050000Y-92100000D03*
%TD*%
%TO.C,D23*%
X127550000Y-82800000D03*
X129050000Y-83600000D03*
X127550000Y-83600000D03*
X127550000Y-82000000D03*
X129050000Y-82000000D03*
X129050000Y-82800000D03*
%TD*%
%TO.C,D60*%
X132950000Y-92100000D03*
X134450000Y-92900000D03*
X132950000Y-92900000D03*
X132950000Y-91300000D03*
X134450000Y-91300000D03*
X134450000Y-92100000D03*
%TD*%
%TO.C,D5*%
X127550000Y-138600000D03*
X129050000Y-139400000D03*
X127550000Y-139400000D03*
X127550000Y-137800000D03*
X129050000Y-137800000D03*
X129050000Y-138600000D03*
%TD*%
%TO.C,D77*%
X132950000Y-39400000D03*
X134450000Y-40200000D03*
X132950000Y-40200000D03*
X132950000Y-38600000D03*
X134450000Y-38600000D03*
X134450000Y-39400000D03*
%TD*%
%TO.C,D61*%
X132950000Y-89000000D03*
X134450000Y-89800000D03*
X132950000Y-89800000D03*
X132950000Y-88200000D03*
X134450000Y-88200000D03*
X134450000Y-89000000D03*
%TD*%
%TO.C,D2*%
X127550000Y-147900000D03*
X129050000Y-148700000D03*
X127550000Y-148700000D03*
X127550000Y-147100000D03*
X129050000Y-147100000D03*
X129050000Y-147900000D03*
%TD*%
%TO.C,D54*%
X132950000Y-110700000D03*
X134450000Y-111500000D03*
X132950000Y-111500000D03*
X132950000Y-109900000D03*
X134450000Y-109900000D03*
X134450000Y-110700000D03*
%TD*%
%TO.C,D44*%
X132950000Y-141700000D03*
X134450000Y-142500000D03*
X132950000Y-142500000D03*
X132950000Y-140900000D03*
X134450000Y-140900000D03*
X134450000Y-141700000D03*
%TD*%
%TO.C,D65*%
X132950000Y-76600000D03*
X134450000Y-77400000D03*
X132950000Y-77400000D03*
X132950000Y-75800000D03*
X134450000Y-75800000D03*
X134450000Y-76600000D03*
%TD*%
%TO.C,D26*%
X127550000Y-73500000D03*
X129050000Y-74300000D03*
X127550000Y-74300000D03*
X127550000Y-72700000D03*
X129050000Y-72700000D03*
X129050000Y-73500000D03*
%TD*%
%TO.C,D74*%
X132950000Y-48700000D03*
X134450000Y-49500000D03*
X132950000Y-49500000D03*
X132950000Y-47900000D03*
X134450000Y-47900000D03*
X134450000Y-48700000D03*
%TD*%
%TO.C,D70*%
X132950000Y-61100000D03*
X134450000Y-61900000D03*
X132950000Y-61900000D03*
X132950000Y-60300000D03*
X134450000Y-60300000D03*
X134450000Y-61100000D03*
%TD*%
%TO.C,D73*%
X132950000Y-51800000D03*
X134450000Y-52600000D03*
X132950000Y-52600000D03*
X132950000Y-51000000D03*
X134450000Y-51000000D03*
X134450000Y-51800000D03*
%TD*%
%TO.C,D52*%
X132950000Y-116900000D03*
X134450000Y-117700000D03*
X132950000Y-117700000D03*
X132950000Y-116100000D03*
X134450000Y-116100000D03*
X134450000Y-116900000D03*
%TD*%
%TO.C,D59*%
X132950000Y-95200000D03*
X134450000Y-96000000D03*
X132950000Y-96000000D03*
X132950000Y-94400000D03*
X134450000Y-94400000D03*
X134450000Y-95200000D03*
%TD*%
%TO.C,D30*%
X127550000Y-61100000D03*
X129050000Y-61900000D03*
X127550000Y-61900000D03*
X127550000Y-60300000D03*
X129050000Y-60300000D03*
X129050000Y-61100000D03*
%TD*%
%TO.C,D9*%
X127550000Y-126200000D03*
X129050000Y-127000000D03*
X127550000Y-127000000D03*
X127550000Y-125400000D03*
X129050000Y-125400000D03*
X129050000Y-126200000D03*
%TD*%
%TO.C,D42*%
X132950000Y-147900000D03*
X134450000Y-148700000D03*
X132950000Y-148700000D03*
X132950000Y-147100000D03*
X134450000Y-147100000D03*
X134450000Y-147900000D03*
%TD*%
%TO.C,D28*%
X127550000Y-67300000D03*
X129050000Y-68100000D03*
X127550000Y-68100000D03*
X127550000Y-66500000D03*
X129050000Y-66500000D03*
X129050000Y-67300000D03*
%TD*%
%TO.C,D3*%
X127550000Y-144800000D03*
X129050000Y-145600000D03*
X127550000Y-145600000D03*
X127550000Y-144000000D03*
X129050000Y-144000000D03*
X129050000Y-144800000D03*
%TD*%
%TO.C,D19*%
X127550000Y-95200000D03*
X129050000Y-96000000D03*
X127550000Y-96000000D03*
X127550000Y-94400000D03*
X129050000Y-94400000D03*
X129050000Y-95200000D03*
%TD*%
%TO.C,D57*%
X132950000Y-101400000D03*
X134450000Y-102200000D03*
X132950000Y-102200000D03*
X132950000Y-100600000D03*
X134450000Y-100600000D03*
X134450000Y-101400000D03*
%TD*%
%TO.C,D12*%
X127550000Y-116900000D03*
X129050000Y-117700000D03*
X127550000Y-117700000D03*
X127550000Y-116100000D03*
X129050000Y-116100000D03*
X129050000Y-116900000D03*
%TD*%
%TO.C,D71*%
X132950000Y-58000000D03*
X134450000Y-58800000D03*
X132950000Y-58800000D03*
X132950000Y-57200000D03*
X134450000Y-57200000D03*
X134450000Y-58000000D03*
%TD*%
%TO.C,D53*%
X132950000Y-113800000D03*
X134450000Y-114600000D03*
X132950000Y-114600000D03*
X132950000Y-113000000D03*
X134450000Y-113000000D03*
X134450000Y-113800000D03*
%TD*%
%TO.C,D37*%
X127550000Y-39400000D03*
X129050000Y-40200000D03*
X127550000Y-40200000D03*
X127550000Y-38600000D03*
X129050000Y-38600000D03*
X129050000Y-39400000D03*
%TD*%
%TO.C,D36*%
X127550000Y-42500000D03*
X129050000Y-43300000D03*
X127550000Y-43300000D03*
X127550000Y-41700000D03*
X129050000Y-41700000D03*
X129050000Y-42500000D03*
%TD*%
%TO.C,D15*%
X127550000Y-107600000D03*
X129050000Y-108400000D03*
X127550000Y-108400000D03*
X127550000Y-106800000D03*
X129050000Y-106800000D03*
X129050000Y-107600000D03*
%TD*%
%TO.C,D66*%
X132950000Y-73500000D03*
X134450000Y-74300000D03*
X132950000Y-74300000D03*
X132950000Y-72700000D03*
X134450000Y-72700000D03*
X134450000Y-73500000D03*
%TD*%
%TO.C,D49*%
X132950000Y-126200000D03*
X134450000Y-127000000D03*
X132950000Y-127000000D03*
X132950000Y-125400000D03*
X134450000Y-125400000D03*
X134450000Y-126200000D03*
%TD*%
%TO.C,D45*%
X132950000Y-138600000D03*
X134450000Y-139400000D03*
X132950000Y-139400000D03*
X132950000Y-137800000D03*
X134450000Y-137800000D03*
X134450000Y-138600000D03*
%TD*%
%TO.C,D39*%
X127550000Y-33200000D03*
X129050000Y-34000000D03*
X127550000Y-34000000D03*
X127550000Y-32400000D03*
X129050000Y-32400000D03*
X129050000Y-33200000D03*
%TD*%
%TO.C,D69*%
X132950000Y-64200000D03*
X134450000Y-65000000D03*
X132950000Y-65000000D03*
X132950000Y-63400000D03*
X134450000Y-63400000D03*
X134450000Y-64200000D03*
%TD*%
%TO.C,D6*%
X127550000Y-135500000D03*
X129050000Y-136300000D03*
X127550000Y-136300000D03*
X127550000Y-134700000D03*
X129050000Y-134700000D03*
X129050000Y-135500000D03*
%TD*%
%TO.C,D14*%
X127550000Y-110700000D03*
X129050000Y-111500000D03*
X127550000Y-111500000D03*
X127550000Y-109900000D03*
X129050000Y-109900000D03*
X129050000Y-110700000D03*
%TD*%
%TO.C,D72*%
X132950000Y-54900000D03*
X134450000Y-55700000D03*
X132950000Y-55700000D03*
X132950000Y-54100000D03*
X134450000Y-54100000D03*
X134450000Y-54900000D03*
%TD*%
%TO.C,D51*%
X132950000Y-120000000D03*
X134450000Y-120800000D03*
X132950000Y-120800000D03*
X132950000Y-119200000D03*
X134450000Y-119200000D03*
X134450000Y-120000000D03*
%TD*%
%TO.C,D62*%
X132950000Y-85900000D03*
X134450000Y-86700000D03*
X132950000Y-86700000D03*
X132950000Y-85100000D03*
X134450000Y-85100000D03*
X134450000Y-85900000D03*
%TD*%
%TO.C,D18*%
X127550000Y-98300000D03*
X129050000Y-99100000D03*
X127550000Y-99100000D03*
X127550000Y-97500000D03*
X129050000Y-97500000D03*
X129050000Y-98300000D03*
%TD*%
%TO.C,D47*%
X132950000Y-132400000D03*
X134450000Y-133200000D03*
X132950000Y-133200000D03*
X132950000Y-131600000D03*
X134450000Y-131600000D03*
X134450000Y-132400000D03*
%TD*%
%TO.C,D32*%
X127550000Y-54900000D03*
X129050000Y-55700000D03*
X127550000Y-55700000D03*
X127550000Y-54100000D03*
X129050000Y-54100000D03*
X129050000Y-54900000D03*
%TD*%
%TO.C,D56*%
X132950000Y-104500000D03*
X134450000Y-105300000D03*
X132950000Y-105300000D03*
X132950000Y-103700000D03*
X134450000Y-103700000D03*
X134450000Y-104500000D03*
%TD*%
%TO.C,D10*%
X127550000Y-123100000D03*
X129050000Y-123900000D03*
X127550000Y-123900000D03*
X127550000Y-122300000D03*
X129050000Y-122300000D03*
X129050000Y-123100000D03*
%TD*%
%TO.C,D21*%
X127550000Y-89000000D03*
X129050000Y-89800000D03*
X127550000Y-89800000D03*
X127550000Y-88200000D03*
X129050000Y-88200000D03*
X129050000Y-89000000D03*
%TD*%
%TO.C,D80*%
X132950000Y-30100000D03*
X134450000Y-30900000D03*
X132950000Y-30900000D03*
X132950000Y-29300000D03*
X134450000Y-29300000D03*
X134450000Y-30100000D03*
%TD*%
%TO.C,D13*%
X127550000Y-113800000D03*
X129050000Y-114600000D03*
X127550000Y-114600000D03*
X127550000Y-113000000D03*
X129050000Y-113000000D03*
X129050000Y-113800000D03*
%TD*%
%TO.C,D64*%
X132950000Y-79700000D03*
X134450000Y-80500000D03*
X132950000Y-80500000D03*
X132950000Y-78900000D03*
X134450000Y-78900000D03*
X134450000Y-79700000D03*
%TD*%
%TO.C,D33*%
X127550000Y-51800000D03*
X129050000Y-52600000D03*
X127550000Y-52600000D03*
X127550000Y-51000000D03*
X129050000Y-51000000D03*
X129050000Y-51800000D03*
%TD*%
%TO.C,D38*%
X127550000Y-36300000D03*
X129050000Y-37100000D03*
X127550000Y-37100000D03*
X127550000Y-35500000D03*
X129050000Y-35500000D03*
X129050000Y-36300000D03*
%TD*%
%TO.C,D40*%
X127550000Y-30100000D03*
X129050000Y-30900000D03*
X127550000Y-30900000D03*
X127550000Y-29300000D03*
X129050000Y-29300000D03*
X129050000Y-30100000D03*
%TD*%
%TO.C,D27*%
X127550000Y-70400000D03*
X129050000Y-71200000D03*
X127550000Y-71200000D03*
X127550000Y-69600000D03*
X129050000Y-69600000D03*
X129050000Y-70400000D03*
%TD*%
%TO.C,D29*%
X127550000Y-64200000D03*
X129050000Y-65000000D03*
X127550000Y-65000000D03*
X127550000Y-63400000D03*
X129050000Y-63400000D03*
X129050000Y-64200000D03*
%TD*%
%TO.C,D31*%
X127550000Y-58000000D03*
X129050000Y-58800000D03*
X127550000Y-58800000D03*
X127550000Y-57200000D03*
X129050000Y-57200000D03*
X129050000Y-58000000D03*
%TD*%
%TO.C,D25*%
X127550000Y-76600000D03*
X129050000Y-77400000D03*
X127550000Y-77400000D03*
X127550000Y-75800000D03*
X129050000Y-75800000D03*
X129050000Y-76600000D03*
%TD*%
%TO.C,D43*%
X132950000Y-144800000D03*
X134450000Y-145600000D03*
X132950000Y-145600000D03*
X132950000Y-144000000D03*
X134450000Y-144000000D03*
X134450000Y-144800000D03*
%TD*%
%TO.C,D41*%
X132950000Y-151000000D03*
X134450000Y-151800000D03*
X132950000Y-151800000D03*
X132950000Y-150200000D03*
X134450000Y-150200000D03*
X134450000Y-151000000D03*
%TD*%
%TO.C,D58*%
X132950000Y-98300000D03*
X134450000Y-99100000D03*
X132950000Y-99100000D03*
X132950000Y-97500000D03*
X134450000Y-97500000D03*
X134450000Y-98300000D03*
%TD*%
%TO.C,D11*%
X127550000Y-120000000D03*
X129050000Y-120800000D03*
X127550000Y-120800000D03*
X127550000Y-119200000D03*
X129050000Y-119200000D03*
X129050000Y-120000000D03*
%TD*%
%TO.C,D48*%
X132950000Y-129300000D03*
X134450000Y-130100000D03*
X132950000Y-130100000D03*
X132950000Y-128500000D03*
X134450000Y-128500000D03*
X134450000Y-129300000D03*
%TD*%
%TO.C,D67*%
X132950000Y-70400000D03*
X134450000Y-71200000D03*
X132950000Y-71200000D03*
X132950000Y-69600000D03*
X134450000Y-69600000D03*
X134450000Y-70400000D03*
%TD*%
%TO.C,D24*%
X127550000Y-79700000D03*
X129050000Y-80500000D03*
X127550000Y-80500000D03*
X127550000Y-78900000D03*
X129050000Y-78900000D03*
X129050000Y-79700000D03*
%TD*%
%TO.C,D50*%
X132950000Y-123100000D03*
X134450000Y-123900000D03*
X132950000Y-123900000D03*
X132950000Y-122300000D03*
X134450000Y-122300000D03*
X134450000Y-123100000D03*
%TD*%
%TO.C,D7*%
X127550000Y-132400000D03*
X129050000Y-133200000D03*
X127550000Y-133200000D03*
X127550000Y-131600000D03*
X129050000Y-131600000D03*
X129050000Y-132400000D03*
%TD*%
%TO.C,D55*%
X132950000Y-107600000D03*
X134450000Y-108400000D03*
X132950000Y-108400000D03*
X132950000Y-106800000D03*
X134450000Y-106800000D03*
X134450000Y-107600000D03*
%TD*%
%TO.C,D78*%
X132950000Y-36300000D03*
X134450000Y-37100000D03*
X132950000Y-37100000D03*
X132950000Y-35500000D03*
X134450000Y-35500000D03*
X134450000Y-36300000D03*
%TD*%
%TO.C,D63*%
X132950000Y-82800000D03*
X134450000Y-83600000D03*
X132950000Y-83600000D03*
X132950000Y-82000000D03*
X134450000Y-82000000D03*
X134450000Y-82800000D03*
%TD*%
%TO.C,D75*%
X132950000Y-45600000D03*
X134450000Y-46400000D03*
X132950000Y-46400000D03*
X132950000Y-44800000D03*
X134450000Y-44800000D03*
X134450000Y-45600000D03*
%TD*%
%TO.C,D79*%
X132950000Y-33200000D03*
X134450000Y-34000000D03*
X132950000Y-34000000D03*
X132950000Y-32400000D03*
X134450000Y-32400000D03*
X134450000Y-33200000D03*
%TD*%
%TO.C,D4*%
X127550000Y-141700000D03*
X129050000Y-142500000D03*
X127550000Y-142500000D03*
X127550000Y-140900000D03*
X129050000Y-140900000D03*
X129050000Y-141700000D03*
%TD*%
%TO.C,D34*%
X127550000Y-48700000D03*
X129050000Y-49500000D03*
X127550000Y-49500000D03*
X127550000Y-47900000D03*
X129050000Y-47900000D03*
X129050000Y-48700000D03*
%TD*%
%TO.C,D68*%
X132950000Y-67300000D03*
X134450000Y-68100000D03*
X132950000Y-68100000D03*
X132950000Y-66500000D03*
X134450000Y-66500000D03*
X134450000Y-67300000D03*
%TD*%
%TO.C,D76*%
X132950000Y-42500000D03*
X134450000Y-43300000D03*
X132950000Y-43300000D03*
X132950000Y-41700000D03*
X134450000Y-41700000D03*
X134450000Y-42500000D03*
%TD*%
%TO.C,D17*%
X127550000Y-101400000D03*
X129050000Y-102200000D03*
X127550000Y-102200000D03*
X127550000Y-100600000D03*
X129050000Y-100600000D03*
X129050000Y-101400000D03*
%TD*%
%TO.C,D35*%
X127550000Y-45600000D03*
X129050000Y-46400000D03*
X127550000Y-46400000D03*
X127550000Y-44800000D03*
X129050000Y-44800000D03*
X129050000Y-45600000D03*
%TD*%
M02*
