%TF.GenerationSoftware,KiCad,Pcbnew,9.0.3*%
%TF.CreationDate,2025-08-19T12:25:47-04:00*%
%TF.ProjectId,flowstick_led_strip_panel,666c6f77-7374-4696-936b-5f6c65645f73,rev?*%
%TF.SameCoordinates,Original*%
%TF.FileFunction,Paste,Bot*%
%TF.FilePolarity,Positive*%
%FSLAX46Y46*%
G04 Gerber Fmt 4.6, Leading zero omitted, Abs format (unit mm)*
G04 Created by KiCad (PCBNEW 9.0.3) date 2025-08-19 12:25:47*
%MOMM*%
%LPD*%
G01*
G04 APERTURE LIST*
G04 Aperture macros list*
%AMRoundRect*
0 Rectangle with rounded corners*
0 $1 Rounding radius*
0 $2 $3 $4 $5 $6 $7 $8 $9 X,Y pos of 4 corners*
0 Add a 4 corners polygon primitive as box body*
4,1,4,$2,$3,$4,$5,$6,$7,$8,$9,$2,$3,0*
0 Add four circle primitives for the rounded corners*
1,1,$1+$1,$2,$3*
1,1,$1+$1,$4,$5*
1,1,$1+$1,$6,$7*
1,1,$1+$1,$8,$9*
0 Add four rect primitives between the rounded corners*
20,1,$1+$1,$2,$3,$4,$5,0*
20,1,$1+$1,$4,$5,$6,$7,0*
20,1,$1+$1,$6,$7,$8,$9,0*
20,1,$1+$1,$8,$9,$2,$3,0*%
G04 Aperture macros list end*
%ADD10RoundRect,0.225000X-0.225000X-0.250000X0.225000X-0.250000X0.225000X0.250000X-0.225000X0.250000X0*%
%ADD11RoundRect,0.225000X0.225000X0.250000X-0.225000X0.250000X-0.225000X-0.250000X0.225000X-0.250000X0*%
G04 APERTURE END LIST*
D10*
%TO.C,C9*%
X123525000Y-34700000D03*
X121975000Y-34700000D03*
%TD*%
%TO.C,C6*%
X123675000Y-143200000D03*
X122125000Y-143200000D03*
%TD*%
%TO.C,C10*%
X123525000Y-31600000D03*
X121975000Y-31600000D03*
%TD*%
D11*
%TO.C,C3*%
X116725000Y-65700000D03*
X118275000Y-65700000D03*
%TD*%
%TO.C,C4*%
X116725000Y-34700000D03*
X118275000Y-34700000D03*
%TD*%
%TO.C,C2*%
X116725000Y-102900000D03*
X118275000Y-102900000D03*
%TD*%
D10*
%TO.C,C7*%
X123675000Y-102900000D03*
X122125000Y-102900000D03*
%TD*%
D11*
%TO.C,C5*%
X116725000Y-31600000D03*
X118275000Y-31600000D03*
%TD*%
%TO.C,C1*%
X116725000Y-143200000D03*
X118275000Y-143200000D03*
%TD*%
D10*
%TO.C,C8*%
X123675000Y-65700000D03*
X122125000Y-65700000D03*
%TD*%
%TO.C,C9*%
X112725000Y-34700000D03*
X111175000Y-34700000D03*
%TD*%
D11*
%TO.C,C1*%
X105925000Y-143200000D03*
X107475000Y-143200000D03*
%TD*%
D10*
%TO.C,C6*%
X112875000Y-143200000D03*
X111325000Y-143200000D03*
%TD*%
%TO.C,C10*%
X112725000Y-31600000D03*
X111175000Y-31600000D03*
%TD*%
D11*
%TO.C,C4*%
X105925000Y-34700000D03*
X107475000Y-34700000D03*
%TD*%
%TO.C,C5*%
X105925000Y-31600000D03*
X107475000Y-31600000D03*
%TD*%
%TO.C,C3*%
X105925000Y-65700000D03*
X107475000Y-65700000D03*
%TD*%
D10*
%TO.C,C7*%
X112875000Y-102900000D03*
X111325000Y-102900000D03*
%TD*%
%TO.C,C8*%
X112875000Y-65700000D03*
X111325000Y-65700000D03*
%TD*%
D11*
%TO.C,C2*%
X105925000Y-102900000D03*
X107475000Y-102900000D03*
%TD*%
D10*
%TO.C,C9*%
X101925000Y-34700000D03*
X100375000Y-34700000D03*
%TD*%
%TO.C,C6*%
X102075000Y-143200000D03*
X100525000Y-143200000D03*
%TD*%
%TO.C,C10*%
X101925000Y-31600000D03*
X100375000Y-31600000D03*
%TD*%
D11*
%TO.C,C4*%
X95125000Y-34700000D03*
X96675000Y-34700000D03*
%TD*%
%TO.C,C3*%
X95125000Y-65700000D03*
X96675000Y-65700000D03*
%TD*%
%TO.C,C2*%
X95125000Y-102900000D03*
X96675000Y-102900000D03*
%TD*%
D10*
%TO.C,C7*%
X102075000Y-102900000D03*
X100525000Y-102900000D03*
%TD*%
D11*
%TO.C,C1*%
X95125000Y-143200000D03*
X96675000Y-143200000D03*
%TD*%
%TO.C,C5*%
X95125000Y-31600000D03*
X96675000Y-31600000D03*
%TD*%
D10*
%TO.C,C8*%
X102075000Y-65700000D03*
X100525000Y-65700000D03*
%TD*%
%TO.C,C9*%
X91125000Y-34700000D03*
X89575000Y-34700000D03*
%TD*%
%TO.C,C6*%
X91275000Y-143200000D03*
X89725000Y-143200000D03*
%TD*%
%TO.C,C8*%
X91275000Y-65700000D03*
X89725000Y-65700000D03*
%TD*%
%TO.C,C10*%
X91125000Y-31600000D03*
X89575000Y-31600000D03*
%TD*%
D11*
%TO.C,C4*%
X84325000Y-34700000D03*
X85875000Y-34700000D03*
%TD*%
%TO.C,C3*%
X84325000Y-65700000D03*
X85875000Y-65700000D03*
%TD*%
D10*
%TO.C,C7*%
X91275000Y-102900000D03*
X89725000Y-102900000D03*
%TD*%
D11*
%TO.C,C5*%
X84325000Y-31600000D03*
X85875000Y-31600000D03*
%TD*%
%TO.C,C1*%
X84325000Y-143200000D03*
X85875000Y-143200000D03*
%TD*%
%TO.C,C2*%
X84325000Y-102900000D03*
X85875000Y-102900000D03*
%TD*%
D10*
%TO.C,C9*%
X80325000Y-34700000D03*
X78775000Y-34700000D03*
%TD*%
%TO.C,C6*%
X80475000Y-143200000D03*
X78925000Y-143200000D03*
%TD*%
%TO.C,C10*%
X80325000Y-31600000D03*
X78775000Y-31600000D03*
%TD*%
D11*
%TO.C,C4*%
X73525000Y-34700000D03*
X75075000Y-34700000D03*
%TD*%
%TO.C,C1*%
X73525000Y-143200000D03*
X75075000Y-143200000D03*
%TD*%
%TO.C,C3*%
X73525000Y-65700000D03*
X75075000Y-65700000D03*
%TD*%
D10*
%TO.C,C7*%
X80475000Y-102900000D03*
X78925000Y-102900000D03*
%TD*%
D11*
%TO.C,C5*%
X73525000Y-31600000D03*
X75075000Y-31600000D03*
%TD*%
D10*
%TO.C,C8*%
X80475000Y-65700000D03*
X78925000Y-65700000D03*
%TD*%
D11*
%TO.C,C2*%
X73525000Y-102900000D03*
X75075000Y-102900000D03*
%TD*%
D10*
%TO.C,C9*%
X69525000Y-34700000D03*
X67975000Y-34700000D03*
%TD*%
%TO.C,C6*%
X69675000Y-143200000D03*
X68125000Y-143200000D03*
%TD*%
%TO.C,C10*%
X69525000Y-31600000D03*
X67975000Y-31600000D03*
%TD*%
D11*
%TO.C,C4*%
X62725000Y-34700000D03*
X64275000Y-34700000D03*
%TD*%
%TO.C,C3*%
X62725000Y-65700000D03*
X64275000Y-65700000D03*
%TD*%
D10*
%TO.C,C7*%
X69675000Y-102900000D03*
X68125000Y-102900000D03*
%TD*%
%TO.C,C8*%
X69675000Y-65700000D03*
X68125000Y-65700000D03*
%TD*%
D11*
%TO.C,C1*%
X62725000Y-143200000D03*
X64275000Y-143200000D03*
%TD*%
%TO.C,C5*%
X62725000Y-31600000D03*
X64275000Y-31600000D03*
%TD*%
%TO.C,C2*%
X62725000Y-102900000D03*
X64275000Y-102900000D03*
%TD*%
D10*
%TO.C,C9*%
X58725000Y-34700000D03*
X57175000Y-34700000D03*
%TD*%
%TO.C,C6*%
X58875000Y-143200000D03*
X57325000Y-143200000D03*
%TD*%
D11*
%TO.C,C3*%
X51925000Y-65700000D03*
X53475000Y-65700000D03*
%TD*%
D10*
%TO.C,C10*%
X58725000Y-31600000D03*
X57175000Y-31600000D03*
%TD*%
D11*
%TO.C,C4*%
X51925000Y-34700000D03*
X53475000Y-34700000D03*
%TD*%
%TO.C,C5*%
X51925000Y-31600000D03*
X53475000Y-31600000D03*
%TD*%
D10*
%TO.C,C7*%
X58875000Y-102900000D03*
X57325000Y-102900000D03*
%TD*%
D11*
%TO.C,C1*%
X51925000Y-143200000D03*
X53475000Y-143200000D03*
%TD*%
D10*
%TO.C,C8*%
X58875000Y-65700000D03*
X57325000Y-65700000D03*
%TD*%
D11*
%TO.C,C2*%
X51925000Y-102900000D03*
X53475000Y-102900000D03*
%TD*%
%TO.C,C2*%
X127525000Y-102900000D03*
X129075000Y-102900000D03*
%TD*%
D10*
%TO.C,C8*%
X134475000Y-65700000D03*
X132925000Y-65700000D03*
%TD*%
D11*
%TO.C,C1*%
X127525000Y-143200000D03*
X129075000Y-143200000D03*
%TD*%
%TO.C,C5*%
X127525000Y-31600000D03*
X129075000Y-31600000D03*
%TD*%
D10*
%TO.C,C7*%
X134475000Y-102900000D03*
X132925000Y-102900000D03*
%TD*%
D11*
%TO.C,C3*%
X127525000Y-65700000D03*
X129075000Y-65700000D03*
%TD*%
%TO.C,C4*%
X127525000Y-34700000D03*
X129075000Y-34700000D03*
%TD*%
D10*
%TO.C,C10*%
X134325000Y-31600000D03*
X132775000Y-31600000D03*
%TD*%
%TO.C,C6*%
X134475000Y-143200000D03*
X132925000Y-143200000D03*
%TD*%
%TO.C,C9*%
X134325000Y-34700000D03*
X132775000Y-34700000D03*
%TD*%
M02*
