%TF.GenerationSoftware,KiCad,Pcbnew,9.0.3*%
%TF.CreationDate,2025-08-19T12:25:47-04:00*%
%TF.ProjectId,flowstick_led_strip_panel,666c6f77-7374-4696-936b-5f6c65645f73,rev?*%
%TF.SameCoordinates,Original*%
%TF.FileFunction,Profile,NP*%
%FSLAX46Y46*%
G04 Gerber Fmt 4.6, Leading zero omitted, Abs format (unit mm)*
G04 Created by KiCad (PCBNEW 9.0.3) date 2025-08-19 12:25:47*
%MOMM*%
%LPD*%
G01*
G04 APERTURE LIST*
%TA.AperFunction,Profile*%
%ADD10C,0.050000*%
%TD*%
G04 APERTURE END LIST*
D10*
X121400000Y-154400000D02*
G75*
G02*
X121400000Y-155400000I0J-500000D01*
G01*
X119000000Y-27000000D02*
G75*
G02*
X119000000Y-26000000I0J500000D01*
G01*
X116170000Y-81220001D02*
G75*
G02*
X115770002Y-81620000I-400000J1D01*
G01*
X115600000Y-71800000D02*
X115600000Y-80780000D01*
X115600000Y-134420000D02*
X115770002Y-134420000D01*
X115600000Y-134420000D02*
X115600000Y-152580000D01*
X115600000Y-27980000D02*
X115770001Y-27980000D01*
X115600000Y-80780000D02*
X115770001Y-80780000D01*
X115600000Y-27000000D02*
X115600000Y-27980000D01*
X115600000Y-112100000D02*
X115600000Y-133580000D01*
X116170000Y-133979999D02*
X116170000Y-134020001D01*
X119400000Y-112100000D02*
X119400000Y-154400000D01*
X116170000Y-28379999D02*
X116170000Y-28420001D01*
X119400000Y-71800000D02*
X119400018Y-108494634D01*
X116170000Y-152979999D02*
X116170000Y-153020001D01*
X115600000Y-28820000D02*
X115600000Y-68200000D01*
X119400000Y-27000000D02*
X119400000Y-68200000D01*
X115770001Y-27980000D02*
G75*
G02*
X116170000Y-28379999I-1J-400000D01*
G01*
X116170000Y-81179999D02*
X116170000Y-81220001D01*
X115770001Y-152580000D02*
G75*
G02*
X116170000Y-152979999I-1J-400000D01*
G01*
X115770001Y-80780000D02*
G75*
G02*
X116170000Y-81179999I-1J-400000D01*
G01*
X115600000Y-153420000D02*
X115770002Y-153420000D01*
X115600000Y-133580000D02*
X115770001Y-133580000D01*
X115600000Y-28820000D02*
X115770002Y-28820000D01*
X115770001Y-133580000D02*
G75*
G02*
X116170000Y-133979999I-1J-400000D01*
G01*
X115600000Y-152580000D02*
X115770001Y-152580000D01*
X116170000Y-134020001D02*
G75*
G02*
X115770002Y-134420000I-400000J1D01*
G01*
X116170000Y-28420001D02*
G75*
G02*
X115770002Y-28820000I-400000J1D01*
G01*
X115600000Y-153420000D02*
X115600000Y-154400000D01*
X115600000Y-81620000D02*
X115600000Y-108500000D01*
X116170000Y-153020001D02*
G75*
G02*
X115770002Y-153420000I-400000J1D01*
G01*
X115600000Y-81620000D02*
X115770002Y-81620000D01*
X124400000Y-155400000D02*
G75*
G02*
X124400000Y-154400000I0J500000D01*
G01*
X124800000Y-134420000D02*
X124800000Y-152580000D01*
X124629999Y-134420000D02*
G75*
G02*
X124230000Y-134020000I1J400000D01*
G01*
X124800000Y-153420000D02*
X124629999Y-153420000D01*
X124629999Y-28820000D02*
G75*
G02*
X124230000Y-28420000I1J400000D01*
G01*
X124230000Y-152979999D02*
G75*
G02*
X124629999Y-152580000I400000J-1D01*
G01*
X121000000Y-27000000D02*
X121000000Y-68200000D01*
X124230000Y-81179999D02*
G75*
G02*
X124629999Y-80780000I400000J-1D01*
G01*
X124800000Y-80780000D02*
X124629999Y-80780000D01*
X124800000Y-27000000D02*
X124800000Y-27980000D01*
X124800000Y-134420000D02*
X124629999Y-134420000D01*
X124230000Y-28379999D02*
X124230000Y-28420000D01*
X124230000Y-133979999D02*
X124230000Y-134020000D01*
X124800000Y-81620000D02*
X124629999Y-81620000D01*
X121000000Y-112100000D02*
X121000000Y-154400000D01*
X124800000Y-71800000D02*
X124800000Y-80780000D01*
X124800000Y-28820000D02*
X124800000Y-68200000D01*
X124800000Y-28820000D02*
X124629999Y-28820000D01*
X124629999Y-81620000D02*
G75*
G02*
X124230000Y-81220000I1J400000D01*
G01*
X124230000Y-28379999D02*
G75*
G02*
X124629999Y-27980000I400000J-1D01*
G01*
X124230000Y-133979999D02*
G75*
G02*
X124629999Y-133580000I400000J-1D01*
G01*
X124800000Y-27980000D02*
X124629999Y-27980000D01*
X121000000Y-71800000D02*
X121000000Y-108500000D01*
X124800000Y-133580000D02*
X124629999Y-133580000D01*
X124230000Y-81179999D02*
X124230000Y-81220000D01*
X124230000Y-152979999D02*
X124230000Y-153020000D01*
X124800000Y-153420000D02*
X124800000Y-154400000D01*
X124800000Y-81620000D02*
X124800000Y-108500000D01*
X124800000Y-152580000D02*
X124629999Y-152580000D01*
X124800000Y-112100000D02*
X124800000Y-133580000D01*
X124629999Y-153420000D02*
G75*
G02*
X124230000Y-153020000I1J400000D01*
G01*
X121400000Y-26000000D02*
G75*
G02*
X121400000Y-27000000I0J-500000D01*
G01*
X116000000Y-27000000D02*
X115600000Y-27000000D01*
X115600000Y-154400000D02*
X116000000Y-154400000D01*
X121000000Y-154400000D02*
X121400000Y-154400000D01*
X119000000Y-27000000D02*
X119400000Y-27000000D01*
X119000000Y-155400000D02*
G75*
G02*
X119000000Y-154400000I0J500000D01*
G01*
X116000000Y-154400000D02*
G75*
G02*
X116000000Y-155400000I0J-500000D01*
G01*
X124400000Y-27000000D02*
G75*
G02*
X124400000Y-26000000I0J500000D01*
G01*
X121400000Y-27000000D02*
X121000000Y-27000000D01*
X124400000Y-154400000D02*
X124800000Y-154400000D01*
X116000000Y-26000000D02*
G75*
G02*
X116000000Y-27000000I0J-500000D01*
G01*
X119000000Y-154400000D02*
X119400000Y-154400000D01*
X124400000Y-27000000D02*
X124800000Y-27000000D01*
X108200000Y-27000000D02*
G75*
G02*
X108200000Y-26000000I0J500000D01*
G01*
X108200000Y-154400000D02*
X108600000Y-154400000D01*
X105370000Y-81220001D02*
G75*
G02*
X104970002Y-81620000I-400000J1D01*
G01*
X104800000Y-71800000D02*
X104800000Y-80780000D01*
X104800000Y-134420000D02*
X104970002Y-134420000D01*
X104800000Y-134420000D02*
X104800000Y-152580000D01*
X104800000Y-27980000D02*
X104970001Y-27980000D01*
X104800000Y-80780000D02*
X104970001Y-80780000D01*
X104800000Y-27000000D02*
X104800000Y-27980000D01*
X104800000Y-112100000D02*
X104800000Y-133580000D01*
X105370000Y-133979999D02*
X105370000Y-134020001D01*
X108600000Y-112100000D02*
X108600000Y-154400000D01*
X105370000Y-28379999D02*
X105370000Y-28420001D01*
X108600000Y-71800000D02*
X108600018Y-108494634D01*
X105370000Y-152979999D02*
X105370000Y-153020001D01*
X104800000Y-28820000D02*
X104800000Y-68200000D01*
X108600000Y-27000000D02*
X108600000Y-68200000D01*
X104970001Y-27980000D02*
G75*
G02*
X105370000Y-28379999I-1J-400000D01*
G01*
X105370000Y-81179999D02*
X105370000Y-81220001D01*
X104970001Y-152580000D02*
G75*
G02*
X105370000Y-152979999I-1J-400000D01*
G01*
X104970001Y-80780000D02*
G75*
G02*
X105370000Y-81179999I-1J-400000D01*
G01*
X104800000Y-153420000D02*
X104970002Y-153420000D01*
X104800000Y-133580000D02*
X104970001Y-133580000D01*
X104800000Y-28820000D02*
X104970002Y-28820000D01*
X104970001Y-133580000D02*
G75*
G02*
X105370000Y-133979999I-1J-400000D01*
G01*
X104800000Y-152580000D02*
X104970001Y-152580000D01*
X105370000Y-134020001D02*
G75*
G02*
X104970002Y-134420000I-400000J1D01*
G01*
X105370000Y-28420001D02*
G75*
G02*
X104970002Y-28820000I-400000J1D01*
G01*
X104800000Y-153420000D02*
X104800000Y-154400000D01*
X104800000Y-81620000D02*
X104800000Y-108500000D01*
X105370000Y-153020001D02*
G75*
G02*
X104970002Y-153420000I-400000J1D01*
G01*
X104800000Y-81620000D02*
X104970002Y-81620000D01*
X113600000Y-155400000D02*
G75*
G02*
X113600000Y-154400000I0J500000D01*
G01*
X110200000Y-154400000D02*
X110600000Y-154400000D01*
X110600000Y-26000000D02*
G75*
G02*
X110600000Y-27000000I0J-500000D01*
G01*
X105200000Y-27000000D02*
X104800000Y-27000000D01*
X114000000Y-134420000D02*
X114000000Y-152580000D01*
X113829999Y-134420000D02*
G75*
G02*
X113430000Y-134020000I1J400000D01*
G01*
X114000000Y-153420000D02*
X113829999Y-153420000D01*
X113829999Y-28820000D02*
G75*
G02*
X113430000Y-28420000I1J400000D01*
G01*
X113430000Y-152979999D02*
G75*
G02*
X113829999Y-152580000I400000J-1D01*
G01*
X110200000Y-27000000D02*
X110200000Y-68200000D01*
X113430000Y-81179999D02*
G75*
G02*
X113829999Y-80780000I400000J-1D01*
G01*
X114000000Y-80780000D02*
X113829999Y-80780000D01*
X114000000Y-27000000D02*
X114000000Y-27980000D01*
X114000000Y-134420000D02*
X113829999Y-134420000D01*
X113430000Y-28379999D02*
X113430000Y-28420000D01*
X113430000Y-133979999D02*
X113430000Y-134020000D01*
X114000000Y-81620000D02*
X113829999Y-81620000D01*
X110200000Y-112100000D02*
X110200000Y-154400000D01*
X114000000Y-71800000D02*
X114000000Y-80780000D01*
X114000000Y-28820000D02*
X114000000Y-68200000D01*
X114000000Y-28820000D02*
X113829999Y-28820000D01*
X113829999Y-81620000D02*
G75*
G02*
X113430000Y-81220000I1J400000D01*
G01*
X113430000Y-28379999D02*
G75*
G02*
X113829999Y-27980000I400000J-1D01*
G01*
X113430000Y-133979999D02*
G75*
G02*
X113829999Y-133580000I400000J-1D01*
G01*
X114000000Y-27980000D02*
X113829999Y-27980000D01*
X110200000Y-71800000D02*
X110200000Y-108500000D01*
X114000000Y-133580000D02*
X113829999Y-133580000D01*
X113430000Y-81179999D02*
X113430000Y-81220000D01*
X113430000Y-152979999D02*
X113430000Y-153020000D01*
X114000000Y-153420000D02*
X114000000Y-154400000D01*
X114000000Y-81620000D02*
X114000000Y-108500000D01*
X114000000Y-152580000D02*
X113829999Y-152580000D01*
X114000000Y-112100000D02*
X114000000Y-133580000D01*
X113829999Y-153420000D02*
G75*
G02*
X113430000Y-153020000I1J400000D01*
G01*
X108200000Y-27000000D02*
X108600000Y-27000000D01*
X110600000Y-27000000D02*
X110200000Y-27000000D01*
X108200000Y-155400000D02*
G75*
G02*
X108200000Y-154400000I0J500000D01*
G01*
X105200000Y-154400000D02*
G75*
G02*
X105200000Y-155400000I0J-500000D01*
G01*
X113600000Y-27000000D02*
G75*
G02*
X113600000Y-26000000I0J500000D01*
G01*
X113600000Y-154400000D02*
X114000000Y-154400000D01*
X104800000Y-154400000D02*
X105200000Y-154400000D01*
X105200000Y-26000000D02*
G75*
G02*
X105200000Y-27000000I0J-500000D01*
G01*
X110600000Y-154400000D02*
G75*
G02*
X110600000Y-155400000I0J-500000D01*
G01*
X113600000Y-27000000D02*
X114000000Y-27000000D01*
X97400000Y-27000000D02*
G75*
G02*
X97400000Y-26000000I0J500000D01*
G01*
X94570000Y-81220001D02*
G75*
G02*
X94170002Y-81620000I-400000J1D01*
G01*
X94000000Y-71800000D02*
X94000000Y-80780000D01*
X94000000Y-134420000D02*
X94170002Y-134420000D01*
X94000000Y-134420000D02*
X94000000Y-152580000D01*
X94000000Y-27980000D02*
X94170001Y-27980000D01*
X94000000Y-80780000D02*
X94170001Y-80780000D01*
X94000000Y-27000000D02*
X94000000Y-27980000D01*
X94000000Y-112100000D02*
X94000000Y-133580000D01*
X94570000Y-133979999D02*
X94570000Y-134020001D01*
X97800000Y-112100000D02*
X97800000Y-154400000D01*
X94570000Y-28379999D02*
X94570000Y-28420001D01*
X97800000Y-71800000D02*
X97800018Y-108494634D01*
X94570000Y-152979999D02*
X94570000Y-153020001D01*
X94000000Y-28820000D02*
X94000000Y-68200000D01*
X97800000Y-27000000D02*
X97800000Y-68200000D01*
X94170001Y-27980000D02*
G75*
G02*
X94570000Y-28379999I-1J-400000D01*
G01*
X94570000Y-81179999D02*
X94570000Y-81220001D01*
X94170001Y-152580000D02*
G75*
G02*
X94570000Y-152979999I-1J-400000D01*
G01*
X94170001Y-80780000D02*
G75*
G02*
X94570000Y-81179999I-1J-400000D01*
G01*
X94000000Y-153420000D02*
X94170002Y-153420000D01*
X94000000Y-133580000D02*
X94170001Y-133580000D01*
X94000000Y-28820000D02*
X94170002Y-28820000D01*
X94170001Y-133580000D02*
G75*
G02*
X94570000Y-133979999I-1J-400000D01*
G01*
X94000000Y-152580000D02*
X94170001Y-152580000D01*
X94570000Y-134020001D02*
G75*
G02*
X94170002Y-134420000I-400000J1D01*
G01*
X94570000Y-28420001D02*
G75*
G02*
X94170002Y-28820000I-400000J1D01*
G01*
X94000000Y-153420000D02*
X94000000Y-154400000D01*
X94000000Y-81620000D02*
X94000000Y-108500000D01*
X94570000Y-153020001D02*
G75*
G02*
X94170002Y-153420000I-400000J1D01*
G01*
X94000000Y-81620000D02*
X94170002Y-81620000D01*
X102800000Y-27000000D02*
X103200000Y-27000000D01*
X102800000Y-155400000D02*
G75*
G02*
X102800000Y-154400000I0J500000D01*
G01*
X94400000Y-27000000D02*
X94000000Y-27000000D01*
X99800000Y-154400000D02*
G75*
G02*
X99800000Y-155400000I0J-500000D01*
G01*
X99800000Y-26000000D02*
G75*
G02*
X99800000Y-27000000I0J-500000D01*
G01*
X103200000Y-134420000D02*
X103200000Y-152580000D01*
X103029999Y-134420000D02*
G75*
G02*
X102630000Y-134020000I1J400000D01*
G01*
X103200000Y-153420000D02*
X103029999Y-153420000D01*
X103029999Y-28820000D02*
G75*
G02*
X102630000Y-28420000I1J400000D01*
G01*
X102630000Y-152979999D02*
G75*
G02*
X103029999Y-152580000I400000J-1D01*
G01*
X99400000Y-27000000D02*
X99400000Y-68200000D01*
X102630000Y-81179999D02*
G75*
G02*
X103029999Y-80780000I400000J-1D01*
G01*
X103200000Y-80780000D02*
X103029999Y-80780000D01*
X103200000Y-27000000D02*
X103200000Y-27980000D01*
X103200000Y-134420000D02*
X103029999Y-134420000D01*
X102630000Y-28379999D02*
X102630000Y-28420000D01*
X102630000Y-133979999D02*
X102630000Y-134020000D01*
X103200000Y-81620000D02*
X103029999Y-81620000D01*
X99400000Y-112100000D02*
X99400000Y-154400000D01*
X103200000Y-71800000D02*
X103200000Y-80780000D01*
X103200000Y-28820000D02*
X103200000Y-68200000D01*
X103200000Y-28820000D02*
X103029999Y-28820000D01*
X103029999Y-81620000D02*
G75*
G02*
X102630000Y-81220000I1J400000D01*
G01*
X102630000Y-28379999D02*
G75*
G02*
X103029999Y-27980000I400000J-1D01*
G01*
X102630000Y-133979999D02*
G75*
G02*
X103029999Y-133580000I400000J-1D01*
G01*
X103200000Y-27980000D02*
X103029999Y-27980000D01*
X99400000Y-71800000D02*
X99400000Y-108500000D01*
X103200000Y-133580000D02*
X103029999Y-133580000D01*
X102630000Y-81179999D02*
X102630000Y-81220000D01*
X102630000Y-152979999D02*
X102630000Y-153020000D01*
X103200000Y-153420000D02*
X103200000Y-154400000D01*
X103200000Y-81620000D02*
X103200000Y-108500000D01*
X103200000Y-152580000D02*
X103029999Y-152580000D01*
X103200000Y-112100000D02*
X103200000Y-133580000D01*
X103029999Y-153420000D02*
G75*
G02*
X102630000Y-153020000I1J400000D01*
G01*
X99400000Y-154400000D02*
X99800000Y-154400000D01*
X97400000Y-27000000D02*
X97800000Y-27000000D01*
X97400000Y-155400000D02*
G75*
G02*
X97400000Y-154400000I0J500000D01*
G01*
X94400000Y-154400000D02*
G75*
G02*
X94400000Y-155400000I0J-500000D01*
G01*
X102800000Y-27000000D02*
G75*
G02*
X102800000Y-26000000I0J500000D01*
G01*
X99800000Y-27000000D02*
X99400000Y-27000000D01*
X102800000Y-154400000D02*
X103200000Y-154400000D01*
X94000000Y-154400000D02*
X94400000Y-154400000D01*
X94400000Y-26000000D02*
G75*
G02*
X94400000Y-27000000I0J-500000D01*
G01*
X97400000Y-154400000D02*
X97800000Y-154400000D01*
X92000000Y-154400000D02*
X92400000Y-154400000D01*
X86600000Y-27000000D02*
G75*
G02*
X86600000Y-26000000I0J500000D01*
G01*
X83770000Y-81220001D02*
G75*
G02*
X83370002Y-81620000I-400000J1D01*
G01*
X83200000Y-71800000D02*
X83200000Y-80780000D01*
X83200000Y-134420000D02*
X83370002Y-134420000D01*
X83200000Y-134420000D02*
X83200000Y-152580000D01*
X83200000Y-27980000D02*
X83370001Y-27980000D01*
X83200000Y-80780000D02*
X83370001Y-80780000D01*
X83200000Y-27000000D02*
X83200000Y-27980000D01*
X83200000Y-112100000D02*
X83200000Y-133580000D01*
X83770000Y-133979999D02*
X83770000Y-134020001D01*
X87000000Y-112100000D02*
X87000000Y-154400000D01*
X83770000Y-28379999D02*
X83770000Y-28420001D01*
X87000000Y-71800000D02*
X87000018Y-108494634D01*
X83770000Y-152979999D02*
X83770000Y-153020001D01*
X83200000Y-28820000D02*
X83200000Y-68200000D01*
X87000000Y-27000000D02*
X87000000Y-68200000D01*
X83370001Y-27980000D02*
G75*
G02*
X83770000Y-28379999I-1J-400000D01*
G01*
X83770000Y-81179999D02*
X83770000Y-81220001D01*
X83370001Y-152580000D02*
G75*
G02*
X83770000Y-152979999I-1J-400000D01*
G01*
X83370001Y-80780000D02*
G75*
G02*
X83770000Y-81179999I-1J-400000D01*
G01*
X83200000Y-153420000D02*
X83370002Y-153420000D01*
X83200000Y-133580000D02*
X83370001Y-133580000D01*
X83200000Y-28820000D02*
X83370002Y-28820000D01*
X83370001Y-133580000D02*
G75*
G02*
X83770000Y-133979999I-1J-400000D01*
G01*
X83200000Y-152580000D02*
X83370001Y-152580000D01*
X83770000Y-134020001D02*
G75*
G02*
X83370002Y-134420000I-400000J1D01*
G01*
X83770000Y-28420001D02*
G75*
G02*
X83370002Y-28820000I-400000J1D01*
G01*
X83200000Y-153420000D02*
X83200000Y-154400000D01*
X83200000Y-81620000D02*
X83200000Y-108500000D01*
X83770000Y-153020001D02*
G75*
G02*
X83370002Y-153420000I-400000J1D01*
G01*
X83200000Y-81620000D02*
X83370002Y-81620000D01*
X92400000Y-134420000D02*
X92400000Y-152580000D01*
X92229999Y-134420000D02*
G75*
G02*
X91830000Y-134020000I1J400000D01*
G01*
X92400000Y-153420000D02*
X92229999Y-153420000D01*
X92229999Y-28820000D02*
G75*
G02*
X91830000Y-28420000I1J400000D01*
G01*
X91830000Y-152979999D02*
G75*
G02*
X92229999Y-152580000I400000J-1D01*
G01*
X88600000Y-27000000D02*
X88600000Y-68200000D01*
X91830000Y-81179999D02*
G75*
G02*
X92229999Y-80780000I400000J-1D01*
G01*
X92400000Y-80780000D02*
X92229999Y-80780000D01*
X92400000Y-27000000D02*
X92400000Y-27980000D01*
X92400000Y-134420000D02*
X92229999Y-134420000D01*
X91830000Y-28379999D02*
X91830000Y-28420000D01*
X91830000Y-133979999D02*
X91830000Y-134020000D01*
X92400000Y-81620000D02*
X92229999Y-81620000D01*
X88600000Y-112100000D02*
X88600000Y-154400000D01*
X92400000Y-71800000D02*
X92400000Y-80780000D01*
X92400000Y-28820000D02*
X92400000Y-68200000D01*
X92400000Y-28820000D02*
X92229999Y-28820000D01*
X92229999Y-81620000D02*
G75*
G02*
X91830000Y-81220000I1J400000D01*
G01*
X91830000Y-28379999D02*
G75*
G02*
X92229999Y-27980000I400000J-1D01*
G01*
X91830000Y-133979999D02*
G75*
G02*
X92229999Y-133580000I400000J-1D01*
G01*
X92400000Y-27980000D02*
X92229999Y-27980000D01*
X88600000Y-71800000D02*
X88600000Y-108500000D01*
X92400000Y-133580000D02*
X92229999Y-133580000D01*
X91830000Y-81179999D02*
X91830000Y-81220000D01*
X91830000Y-152979999D02*
X91830000Y-153020000D01*
X92400000Y-153420000D02*
X92400000Y-154400000D01*
X92400000Y-81620000D02*
X92400000Y-108500000D01*
X92400000Y-152580000D02*
X92229999Y-152580000D01*
X92400000Y-112100000D02*
X92400000Y-133580000D01*
X92229999Y-153420000D02*
G75*
G02*
X91830000Y-153020000I1J400000D01*
G01*
X92000000Y-155400000D02*
G75*
G02*
X92000000Y-154400000I0J500000D01*
G01*
X89000000Y-26000000D02*
G75*
G02*
X89000000Y-27000000I0J-500000D01*
G01*
X83600000Y-27000000D02*
X83200000Y-27000000D01*
X88600000Y-154400000D02*
X89000000Y-154400000D01*
X92000000Y-27000000D02*
G75*
G02*
X92000000Y-26000000I0J500000D01*
G01*
X86600000Y-27000000D02*
X87000000Y-27000000D01*
X86600000Y-155400000D02*
G75*
G02*
X86600000Y-154400000I0J500000D01*
G01*
X83600000Y-154400000D02*
G75*
G02*
X83600000Y-155400000I0J-500000D01*
G01*
X83600000Y-26000000D02*
G75*
G02*
X83600000Y-27000000I0J-500000D01*
G01*
X89000000Y-27000000D02*
X88600000Y-27000000D01*
X83200000Y-154400000D02*
X83600000Y-154400000D01*
X86600000Y-154400000D02*
X87000000Y-154400000D01*
X89000000Y-154400000D02*
G75*
G02*
X89000000Y-155400000I0J-500000D01*
G01*
X92000000Y-27000000D02*
X92400000Y-27000000D01*
X75800000Y-27000000D02*
G75*
G02*
X75800000Y-26000000I0J500000D01*
G01*
X75800000Y-155400000D02*
G75*
G02*
X75800000Y-154400000I0J500000D01*
G01*
X81600000Y-134420000D02*
X81600000Y-152580000D01*
X81429999Y-134420000D02*
G75*
G02*
X81030000Y-134020000I1J400000D01*
G01*
X81600000Y-153420000D02*
X81429999Y-153420000D01*
X81429999Y-28820000D02*
G75*
G02*
X81030000Y-28420000I1J400000D01*
G01*
X81600000Y-134420000D02*
X81429999Y-134420000D01*
X81030000Y-152979999D02*
G75*
G02*
X81429999Y-152580000I400000J-1D01*
G01*
X81030000Y-28379999D02*
X81030000Y-28420000D01*
X77800000Y-27000000D02*
X77800000Y-68200000D01*
X81030000Y-133979999D02*
X81030000Y-134020000D01*
X81030000Y-81179999D02*
G75*
G02*
X81429999Y-80780000I400000J-1D01*
G01*
X81600000Y-81620000D02*
X81429999Y-81620000D01*
X81600000Y-80780000D02*
X81429999Y-80780000D01*
X77800000Y-112100000D02*
X77800000Y-154400000D01*
X81600000Y-27000000D02*
X81600000Y-27980000D01*
X81600000Y-71800000D02*
X81600000Y-80780000D01*
X81600000Y-28820000D02*
X81600000Y-68200000D01*
X81600000Y-28820000D02*
X81429999Y-28820000D01*
X81429999Y-81620000D02*
G75*
G02*
X81030000Y-81220000I1J400000D01*
G01*
X81429999Y-153420000D02*
G75*
G02*
X81030000Y-153020000I1J400000D01*
G01*
X81030000Y-28379999D02*
G75*
G02*
X81429999Y-27980000I400000J-1D01*
G01*
X81030000Y-133979999D02*
G75*
G02*
X81429999Y-133580000I400000J-1D01*
G01*
X81600000Y-27980000D02*
X81429999Y-27980000D01*
X77800000Y-71800000D02*
X77800000Y-108500000D01*
X81600000Y-133580000D02*
X81429999Y-133580000D01*
X81030000Y-81179999D02*
X81030000Y-81220000D01*
X81030000Y-152979999D02*
X81030000Y-153020000D01*
X81600000Y-153420000D02*
X81600000Y-154400000D01*
X81600000Y-81620000D02*
X81600000Y-108500000D01*
X81600000Y-152580000D02*
X81429999Y-152580000D01*
X81600000Y-112100000D02*
X81600000Y-133580000D01*
X72970000Y-81220001D02*
G75*
G02*
X72570002Y-81620000I-400000J1D01*
G01*
X76200000Y-71800000D02*
X76200018Y-108494634D01*
X72400000Y-71800000D02*
X72400000Y-80780000D01*
X72970000Y-152979999D02*
X72970000Y-153020001D01*
X72400000Y-134420000D02*
X72570002Y-134420000D01*
X72400000Y-28820000D02*
X72400000Y-68200000D01*
X72400000Y-134420000D02*
X72400000Y-152580000D01*
X76200000Y-27000000D02*
X76200000Y-68200000D01*
X72970000Y-153020001D02*
G75*
G02*
X72570002Y-153420000I-400000J1D01*
G01*
X72400000Y-27980000D02*
X72570001Y-27980000D01*
X72400000Y-80780000D02*
X72570001Y-80780000D01*
X72400000Y-27000000D02*
X72400000Y-27980000D01*
X72400000Y-112100000D02*
X72400000Y-133580000D01*
X72970000Y-133979999D02*
X72970000Y-134020001D01*
X76200000Y-112100000D02*
X76200000Y-154400000D01*
X72970000Y-28379999D02*
X72970000Y-28420001D01*
X72570001Y-27980000D02*
G75*
G02*
X72970000Y-28379999I-1J-400000D01*
G01*
X72400000Y-81620000D02*
X72570002Y-81620000D01*
X72970000Y-81179999D02*
X72970000Y-81220001D01*
X72570001Y-152580000D02*
G75*
G02*
X72970000Y-152979999I-1J-400000D01*
G01*
X72570001Y-80780000D02*
G75*
G02*
X72970000Y-81179999I-1J-400000D01*
G01*
X72400000Y-153420000D02*
X72570002Y-153420000D01*
X72400000Y-133580000D02*
X72570001Y-133580000D01*
X72400000Y-28820000D02*
X72570002Y-28820000D01*
X72570001Y-133580000D02*
G75*
G02*
X72970000Y-133979999I-1J-400000D01*
G01*
X72400000Y-152580000D02*
X72570001Y-152580000D01*
X72970000Y-134020001D02*
G75*
G02*
X72570002Y-134420000I-400000J1D01*
G01*
X72970000Y-28420001D02*
G75*
G02*
X72570002Y-28820000I-400000J1D01*
G01*
X72400000Y-153420000D02*
X72400000Y-154400000D01*
X72400000Y-81620000D02*
X72400000Y-108500000D01*
X81200000Y-155400000D02*
G75*
G02*
X81200000Y-154400000I0J500000D01*
G01*
X78200000Y-26000000D02*
G75*
G02*
X78200000Y-27000000I0J-500000D01*
G01*
X81200000Y-27000000D02*
G75*
G02*
X81200000Y-26000000I0J500000D01*
G01*
X81200000Y-27000000D02*
X81600000Y-27000000D01*
X78200000Y-154400000D02*
G75*
G02*
X78200000Y-155400000I0J-500000D01*
G01*
X72800000Y-27000000D02*
X72400000Y-27000000D01*
X77800000Y-154400000D02*
X78200000Y-154400000D01*
X75800000Y-27000000D02*
X76200000Y-27000000D01*
X72800000Y-154400000D02*
G75*
G02*
X72800000Y-155400000I0J-500000D01*
G01*
X75800000Y-154400000D02*
X76200000Y-154400000D01*
X78200000Y-27000000D02*
X77800000Y-27000000D01*
X81200000Y-154400000D02*
X81600000Y-154400000D01*
X72400000Y-154400000D02*
X72800000Y-154400000D01*
X72800000Y-26000000D02*
G75*
G02*
X72800000Y-27000000I0J-500000D01*
G01*
X65000000Y-27000000D02*
G75*
G02*
X65000000Y-26000000I0J500000D01*
G01*
X61600000Y-154400000D02*
X62000000Y-154400000D01*
X62170000Y-81220001D02*
G75*
G02*
X61770002Y-81620000I-400000J1D01*
G01*
X61600000Y-71800000D02*
X61600000Y-80780000D01*
X61600000Y-134420000D02*
X61770002Y-134420000D01*
X61600000Y-134420000D02*
X61600000Y-152580000D01*
X61600000Y-112100000D02*
X61600000Y-133580000D01*
X61600000Y-27980000D02*
X61770001Y-27980000D01*
X62170000Y-152979999D02*
X62170000Y-153020001D01*
X61600000Y-80780000D02*
X61770001Y-80780000D01*
X61600000Y-27000000D02*
X61600000Y-27980000D01*
X61600000Y-152580000D02*
X61770001Y-152580000D01*
X62170000Y-133979999D02*
X62170000Y-134020001D01*
X65400000Y-112100000D02*
X65400000Y-154400000D01*
X62170000Y-28379999D02*
X62170000Y-28420001D01*
X65400000Y-71800000D02*
X65400018Y-108494634D01*
X61600000Y-28820000D02*
X61600000Y-68200000D01*
X65400000Y-27000000D02*
X65400000Y-68200000D01*
X61770001Y-80780000D02*
G75*
G02*
X62170000Y-81179999I-1J-400000D01*
G01*
X61770001Y-27980000D02*
G75*
G02*
X62170000Y-28379999I-1J-400000D01*
G01*
X62170000Y-81179999D02*
X62170000Y-81220001D01*
X61770001Y-152580000D02*
G75*
G02*
X62170000Y-152979999I-1J-400000D01*
G01*
X61600000Y-153420000D02*
X61770002Y-153420000D01*
X61600000Y-133580000D02*
X61770001Y-133580000D01*
X61600000Y-28820000D02*
X61770002Y-28820000D01*
X61770001Y-133580000D02*
G75*
G02*
X62170000Y-133979999I-1J-400000D01*
G01*
X61600000Y-153420000D02*
X61600000Y-154400000D01*
X62170000Y-134020001D02*
G75*
G02*
X61770002Y-134420000I-400000J1D01*
G01*
X62170000Y-28420001D02*
G75*
G02*
X61770002Y-28820000I-400000J1D01*
G01*
X62170000Y-153020001D02*
G75*
G02*
X61770002Y-153420000I-400000J1D01*
G01*
X61600000Y-81620000D02*
X61600000Y-108500000D01*
X61600000Y-81620000D02*
X61770002Y-81620000D01*
X70400000Y-155400000D02*
G75*
G02*
X70400000Y-154400000I0J500000D01*
G01*
X65000000Y-155400000D02*
G75*
G02*
X65000000Y-154400000I0J500000D01*
G01*
X67400000Y-26000000D02*
G75*
G02*
X67400000Y-27000000I0J-500000D01*
G01*
X70400000Y-154400000D02*
X70800000Y-154400000D01*
X62000000Y-27000000D02*
X61600000Y-27000000D01*
X70800000Y-134420000D02*
X70800000Y-152580000D01*
X70800000Y-27980000D02*
X70629999Y-27980000D01*
X70629999Y-134420000D02*
G75*
G02*
X70230000Y-134020000I1J400000D01*
G01*
X70800000Y-153420000D02*
X70629999Y-153420000D01*
X70629999Y-28820000D02*
G75*
G02*
X70230000Y-28420000I1J400000D01*
G01*
X70230000Y-152979999D02*
G75*
G02*
X70629999Y-152580000I400000J-1D01*
G01*
X70800000Y-112100000D02*
X70800000Y-133580000D01*
X67000000Y-27000000D02*
X67000000Y-68200000D01*
X70230000Y-28379999D02*
X70230000Y-28420000D01*
X70230000Y-81179999D02*
G75*
G02*
X70629999Y-80780000I400000J-1D01*
G01*
X67000000Y-112100000D02*
X67000000Y-154400000D01*
X70800000Y-80780000D02*
X70629999Y-80780000D01*
X70800000Y-27000000D02*
X70800000Y-27980000D01*
X70800000Y-134420000D02*
X70629999Y-134420000D01*
X70800000Y-133580000D02*
X70629999Y-133580000D01*
X70230000Y-133979999D02*
X70230000Y-134020000D01*
X70800000Y-81620000D02*
X70629999Y-81620000D01*
X70800000Y-71800000D02*
X70800000Y-80780000D01*
X70800000Y-28820000D02*
X70800000Y-68200000D01*
X70800000Y-28820000D02*
X70629999Y-28820000D01*
X70629999Y-81620000D02*
G75*
G02*
X70230000Y-81220000I1J400000D01*
G01*
X70230000Y-28379999D02*
G75*
G02*
X70629999Y-27980000I400000J-1D01*
G01*
X70230000Y-133979999D02*
G75*
G02*
X70629999Y-133580000I400000J-1D01*
G01*
X67000000Y-71800000D02*
X67000000Y-108500000D01*
X70230000Y-81179999D02*
X70230000Y-81220000D01*
X70230000Y-152979999D02*
X70230000Y-153020000D01*
X70800000Y-152580000D02*
X70629999Y-152580000D01*
X70800000Y-153420000D02*
X70800000Y-154400000D01*
X70800000Y-81620000D02*
X70800000Y-108500000D01*
X70629999Y-153420000D02*
G75*
G02*
X70230000Y-153020000I1J400000D01*
G01*
X67000000Y-154400000D02*
X67400000Y-154400000D01*
X65000000Y-27000000D02*
X65400000Y-27000000D01*
X70400000Y-27000000D02*
X70800000Y-27000000D01*
X62000000Y-154400000D02*
G75*
G02*
X62000000Y-155400000I0J-500000D01*
G01*
X70400000Y-27000000D02*
G75*
G02*
X70400000Y-26000000I0J500000D01*
G01*
X65000000Y-154400000D02*
X65400000Y-154400000D01*
X67400000Y-27000000D02*
X67000000Y-27000000D01*
X62000000Y-26000000D02*
G75*
G02*
X62000000Y-27000000I0J-500000D01*
G01*
X67400000Y-154400000D02*
G75*
G02*
X67400000Y-155400000I0J-500000D01*
G01*
X54200000Y-27000000D02*
G75*
G02*
X54200000Y-26000000I0J500000D01*
G01*
X59600000Y-27000000D02*
G75*
G02*
X59600000Y-26000000I0J500000D01*
G01*
X59600000Y-155400000D02*
G75*
G02*
X59600000Y-154400000I0J500000D01*
G01*
X51370000Y-81220001D02*
G75*
G02*
X50970002Y-81620000I-400000J1D01*
G01*
X50800000Y-71800000D02*
X50800000Y-80780000D01*
X50800000Y-134420000D02*
X50970002Y-134420000D01*
X50800000Y-134420000D02*
X50800000Y-152580000D01*
X50800000Y-27980000D02*
X50970001Y-27980000D01*
X51370000Y-152979999D02*
X51370000Y-153020001D01*
X51370000Y-81179999D02*
X51370000Y-81220001D01*
X50800000Y-80780000D02*
X50970001Y-80780000D01*
X50800000Y-27000000D02*
X50800000Y-27980000D01*
X50800000Y-112100000D02*
X50800000Y-133580000D01*
X50800000Y-153420000D02*
X50970002Y-153420000D01*
X51370000Y-133979999D02*
X51370000Y-134020001D01*
X54600000Y-112100000D02*
X54600000Y-154400000D01*
X51370000Y-28379999D02*
X51370000Y-28420001D01*
X54600000Y-71800000D02*
X54600018Y-108494634D01*
X50800000Y-28820000D02*
X50800000Y-71800000D01*
X54600000Y-27000000D02*
X54600000Y-68200000D01*
X50970001Y-27980000D02*
G75*
G02*
X51370000Y-28379999I-1J-400000D01*
G01*
X50970001Y-152580000D02*
G75*
G02*
X51370000Y-152979999I-1J-400000D01*
G01*
X50970001Y-80780000D02*
G75*
G02*
X51370000Y-81179999I-1J-400000D01*
G01*
X50800000Y-133580000D02*
X50970001Y-133580000D01*
X50800000Y-28820000D02*
X50970002Y-28820000D01*
X50970001Y-133580000D02*
G75*
G02*
X51370000Y-133979999I-1J-400000D01*
G01*
X50800000Y-152580000D02*
X50970001Y-152580000D01*
X51370000Y-134020001D02*
G75*
G02*
X50970002Y-134420000I-400000J1D01*
G01*
X51370000Y-28420001D02*
G75*
G02*
X50970002Y-28820000I-400000J1D01*
G01*
X50800000Y-81620000D02*
X50800000Y-112100000D01*
X51370000Y-153020001D02*
G75*
G02*
X50970002Y-153420000I-400000J1D01*
G01*
X50800000Y-153420000D02*
X50800000Y-154400000D01*
X50800000Y-81620000D02*
X50970002Y-81620000D01*
X54200000Y-154400000D02*
X54600000Y-154400000D01*
X56600000Y-26000000D02*
G75*
G02*
X56600000Y-27000000I0J-500000D01*
G01*
X51200000Y-27000000D02*
X50800000Y-27000000D01*
X60000000Y-134420000D02*
X60000000Y-152580000D01*
X59430000Y-81179999D02*
X59430000Y-81220000D01*
X59829999Y-134420000D02*
G75*
G02*
X59430000Y-134020000I1J400000D01*
G01*
X60000000Y-27000000D02*
X60000000Y-27980000D01*
X60000000Y-153420000D02*
X59829999Y-153420000D01*
X59829999Y-28820000D02*
G75*
G02*
X59430000Y-28420000I1J400000D01*
G01*
X59430000Y-152979999D02*
G75*
G02*
X59829999Y-152580000I400000J-1D01*
G01*
X56200000Y-27000000D02*
X56200000Y-68200000D01*
X60000000Y-81620000D02*
X59829999Y-81620000D01*
X59430000Y-81179999D02*
G75*
G02*
X59829999Y-80780000I400000J-1D01*
G01*
X60000000Y-80780000D02*
X59829999Y-80780000D01*
X60000000Y-134420000D02*
X59829999Y-134420000D01*
X59430000Y-28379999D02*
X59430000Y-28420000D01*
X59430000Y-133979999D02*
X59430000Y-134020000D01*
X56200000Y-112100000D02*
X56200000Y-154400000D01*
X60000000Y-71800000D02*
X60000000Y-80780000D01*
X59430000Y-133979999D02*
G75*
G02*
X59829999Y-133580000I400000J-1D01*
G01*
X60000000Y-28820000D02*
X60000000Y-68200000D01*
X60000000Y-28820000D02*
X59829999Y-28820000D01*
X59829999Y-81620000D02*
G75*
G02*
X59430000Y-81220000I1J400000D01*
G01*
X59430000Y-28379999D02*
G75*
G02*
X59829999Y-27980000I400000J-1D01*
G01*
X60000000Y-27980000D02*
X59829999Y-27980000D01*
X56200000Y-71800000D02*
X56200000Y-108500000D01*
X60000000Y-133580000D02*
X59829999Y-133580000D01*
X59430000Y-152979999D02*
X59430000Y-153020000D01*
X60000000Y-112100000D02*
X60000000Y-133580000D01*
X60000000Y-153420000D02*
X60000000Y-154400000D01*
X60000000Y-81620000D02*
X60000000Y-108500000D01*
X60000000Y-152580000D02*
X59829999Y-152580000D01*
X59829999Y-153420000D02*
G75*
G02*
X59430000Y-153020000I1J400000D01*
G01*
X56200000Y-154400000D02*
X56600000Y-154400000D01*
X54200000Y-27000000D02*
X54600000Y-27000000D01*
X54200000Y-155400000D02*
G75*
G02*
X54200000Y-154400000I0J500000D01*
G01*
X51200000Y-154400000D02*
G75*
G02*
X51200000Y-155400000I0J-500000D01*
G01*
X51200000Y-26000000D02*
G75*
G02*
X51200000Y-27000000I0J-500000D01*
G01*
X59600000Y-27000000D02*
X60000000Y-27000000D01*
X56600000Y-27000000D02*
X56200000Y-27000000D01*
X59600000Y-154400000D02*
X60000000Y-154400000D01*
X50800000Y-154400000D02*
X51200000Y-154400000D01*
X56600000Y-154400000D02*
G75*
G02*
X56600000Y-155400000I0J-500000D01*
G01*
X125600000Y-26000000D02*
X124400000Y-26000000D01*
X67400000Y-26000000D02*
X66200000Y-26000000D01*
X77000000Y-155400000D02*
X78200000Y-155400000D01*
X99800000Y-26000000D02*
X98600000Y-26000000D01*
X62000000Y-26000000D02*
X60800000Y-26000000D01*
X66200000Y-26000000D02*
X65000000Y-26000000D01*
X65000000Y-155400000D02*
X66200000Y-155400000D01*
X135200000Y-155400000D02*
X136400000Y-155400000D01*
X82400000Y-155400000D02*
X83600000Y-155400000D01*
X126800000Y-26000000D02*
X125600000Y-26000000D01*
X104000000Y-155400000D02*
X105200000Y-155400000D01*
X97400000Y-155400000D02*
X98600000Y-155400000D01*
X113600000Y-155400000D02*
X114800000Y-155400000D01*
X82400000Y-26000000D02*
X81200000Y-26000000D01*
X108200000Y-155400000D02*
X109400000Y-155400000D01*
X60800000Y-26000000D02*
X59600000Y-26000000D01*
X70400000Y-155400000D02*
X71600000Y-155400000D01*
X89000000Y-26000000D02*
X87800000Y-26000000D01*
X94400000Y-26000000D02*
X93200000Y-26000000D01*
X109400000Y-155400000D02*
X110600000Y-155400000D01*
X92000000Y-155400000D02*
X93200000Y-155400000D01*
X104000000Y-26000000D02*
X102800000Y-26000000D01*
X105200000Y-26000000D02*
X104000000Y-26000000D01*
X66200000Y-155400000D02*
X67400000Y-155400000D01*
X56600000Y-26000000D02*
X55400000Y-26000000D01*
X93200000Y-26000000D02*
X92000000Y-26000000D01*
X131000000Y-155400000D02*
X132200000Y-155400000D01*
X93200000Y-155400000D02*
X94400000Y-155400000D01*
X51200000Y-26000000D02*
X50000000Y-26000000D01*
X121400000Y-26000000D02*
X120200000Y-26000000D01*
X110600000Y-26000000D02*
X109400000Y-26000000D01*
X120200000Y-26000000D02*
X119000000Y-26000000D01*
X71600000Y-155400000D02*
X72800000Y-155400000D01*
X136400000Y-161400000D02*
X60800000Y-161400000D01*
X98600000Y-26000000D02*
X97400000Y-26000000D01*
X50000000Y-161400000D02*
X60800000Y-161400000D01*
X71600000Y-26000000D02*
X70400000Y-26000000D01*
X59600000Y-155400000D02*
X60800000Y-155400000D01*
X136400000Y-155400000D02*
X136400000Y-161400000D01*
X131000000Y-26000000D02*
X129800000Y-26000000D01*
X129800000Y-155400000D02*
X131000000Y-155400000D01*
X125600000Y-155400000D02*
X126800000Y-155400000D01*
X114800000Y-155400000D02*
X116000000Y-155400000D01*
X109400000Y-26000000D02*
X108200000Y-26000000D01*
X120200000Y-155400000D02*
X121400000Y-155400000D01*
X98600000Y-155400000D02*
X99800000Y-155400000D01*
X77000000Y-26000000D02*
X75800000Y-26000000D01*
X50000000Y-20000000D02*
X50000000Y-26000000D01*
X124400000Y-155400000D02*
X125600000Y-155400000D01*
X132200000Y-26000000D02*
X131000000Y-26000000D01*
X116000000Y-26000000D02*
X114800000Y-26000000D01*
X55400000Y-155400000D02*
X56600000Y-155400000D01*
X50000000Y-20000000D02*
X136400000Y-20000000D01*
X119000000Y-155400000D02*
X120200000Y-155400000D01*
X87800000Y-26000000D02*
X86600000Y-26000000D01*
X102800000Y-155400000D02*
X104000000Y-155400000D01*
X50000000Y-155400000D02*
X51200000Y-155400000D01*
X114800000Y-26000000D02*
X113600000Y-26000000D01*
X60800000Y-155400000D02*
X62000000Y-155400000D01*
X87800000Y-155400000D02*
X89000000Y-155400000D01*
X54200000Y-155400000D02*
X55400000Y-155400000D01*
X55400000Y-26000000D02*
X54200000Y-26000000D01*
X75800000Y-155400000D02*
X77000000Y-155400000D01*
X136400000Y-20000000D02*
X136400000Y-26000000D01*
X78200000Y-26000000D02*
X77000000Y-26000000D01*
X81200000Y-155400000D02*
X82400000Y-155400000D01*
X86600000Y-155400000D02*
X87800000Y-155400000D01*
X72800000Y-26000000D02*
X71600000Y-26000000D01*
X50000000Y-155400000D02*
X50000000Y-161400000D01*
X83600000Y-26000000D02*
X82400000Y-26000000D01*
X136400000Y-26000000D02*
X135200000Y-26000000D01*
X135200000Y-27000000D02*
X135600000Y-27000000D01*
X129800000Y-154400000D02*
X130200000Y-154400000D01*
X132200000Y-154400000D02*
G75*
G02*
X132200000Y-155400000I0J-500000D01*
G01*
X126800000Y-26000000D02*
G75*
G02*
X126800000Y-27000000I0J-500000D01*
G01*
X126400000Y-154400000D02*
X126800000Y-154400000D01*
X135200000Y-154400000D02*
X135600000Y-154400000D01*
X132200000Y-27000000D02*
X131800000Y-27000000D01*
X135200000Y-27000000D02*
G75*
G02*
X135200000Y-26000000I0J500000D01*
G01*
X126800000Y-154400000D02*
G75*
G02*
X126800000Y-155400000I0J-500000D01*
G01*
X129800000Y-155400000D02*
G75*
G02*
X129800000Y-154400000I0J500000D01*
G01*
X129800000Y-27000000D02*
X130200000Y-27000000D01*
X131800000Y-154400000D02*
X132200000Y-154400000D01*
X135429999Y-153420000D02*
G75*
G02*
X135030000Y-153020000I1J400000D01*
G01*
X135600000Y-112100000D02*
X135600000Y-133580000D01*
X135600000Y-152580000D02*
X135429999Y-152580000D01*
X135600000Y-81620000D02*
X135600000Y-112100000D01*
X135600000Y-153420000D02*
X135600000Y-154400000D01*
X135030000Y-152979999D02*
X135030000Y-153020000D01*
X135030000Y-81179999D02*
X135030000Y-81220000D01*
X135600000Y-133580000D02*
X135429999Y-133580000D01*
X131800000Y-71800000D02*
X131800000Y-108500000D01*
X135600000Y-27980000D02*
X135429999Y-27980000D01*
X135030000Y-133979999D02*
G75*
G02*
X135429999Y-133580000I400000J-1D01*
G01*
X135030000Y-28379999D02*
G75*
G02*
X135429999Y-27980000I400000J-1D01*
G01*
X135429999Y-81620000D02*
G75*
G02*
X135030000Y-81220000I1J400000D01*
G01*
X135600000Y-28820000D02*
X135429999Y-28820000D01*
X135600000Y-28820000D02*
X135600000Y-71800000D01*
X135600000Y-71800000D02*
X135600000Y-80780000D01*
X131800000Y-112100000D02*
X131800000Y-154400000D01*
X135600000Y-81620000D02*
X135429999Y-81620000D01*
X135030000Y-133979999D02*
X135030000Y-134020000D01*
X135030000Y-28379999D02*
X135030000Y-28420000D01*
X135600000Y-134420000D02*
X135429999Y-134420000D01*
X135600000Y-27000000D02*
X135600000Y-27980000D01*
X135600000Y-80780000D02*
X135429999Y-80780000D01*
X135030000Y-81179999D02*
G75*
G02*
X135429999Y-80780000I400000J-1D01*
G01*
X131800000Y-27000000D02*
X131800000Y-68200000D01*
X135030000Y-152979999D02*
G75*
G02*
X135429999Y-152580000I400000J-1D01*
G01*
X135429999Y-28820000D02*
G75*
G02*
X135030000Y-28420000I1J400000D01*
G01*
X135600000Y-153420000D02*
X135429999Y-153420000D01*
X135429999Y-134420000D02*
G75*
G02*
X135030000Y-134020000I1J400000D01*
G01*
X135600000Y-134420000D02*
X135600000Y-152580000D01*
X126800000Y-27000000D02*
X126400000Y-27000000D01*
X132200000Y-26000000D02*
G75*
G02*
X132200000Y-27000000I0J-500000D01*
G01*
X135200000Y-155400000D02*
G75*
G02*
X135200000Y-154400000I0J500000D01*
G01*
X126400000Y-81620000D02*
X126570002Y-81620000D01*
X126970000Y-153020001D02*
G75*
G02*
X126570002Y-153420000I-400000J1D01*
G01*
X126400000Y-81620000D02*
X126400000Y-108500000D01*
X126400000Y-153420000D02*
X126400000Y-154400000D01*
X126970000Y-28420001D02*
G75*
G02*
X126570002Y-28820000I-400000J1D01*
G01*
X126970000Y-134020001D02*
G75*
G02*
X126570002Y-134420000I-400000J1D01*
G01*
X126400000Y-152580000D02*
X126570001Y-152580000D01*
X126570001Y-133580000D02*
G75*
G02*
X126970000Y-133979999I-1J-400000D01*
G01*
X126400000Y-28820000D02*
X126570002Y-28820000D01*
X126400000Y-133580000D02*
X126570001Y-133580000D01*
X126400000Y-153420000D02*
X126570002Y-153420000D01*
X126570001Y-80780000D02*
G75*
G02*
X126970000Y-81179999I-1J-400000D01*
G01*
X126570001Y-152580000D02*
G75*
G02*
X126970000Y-152979999I-1J-400000D01*
G01*
X126970000Y-81179999D02*
X126970000Y-81220001D01*
X126570001Y-27980000D02*
G75*
G02*
X126970000Y-28379999I-1J-400000D01*
G01*
X130200000Y-27000000D02*
X130200000Y-68200000D01*
X126400000Y-28820000D02*
X126400000Y-68200000D01*
X126970000Y-152979999D02*
X126970000Y-153020001D01*
X130200000Y-71800000D02*
X130200018Y-108494634D01*
X126970000Y-28379999D02*
X126970000Y-28420001D01*
X130200000Y-112100000D02*
X130200000Y-154400000D01*
X126970000Y-133979999D02*
X126970000Y-134020001D01*
X126400000Y-112100000D02*
X126400000Y-133580000D01*
X126400000Y-27000000D02*
X126400000Y-27980000D01*
X126400000Y-80780000D02*
X126570001Y-80780000D01*
X126400000Y-27980000D02*
X126570001Y-27980000D01*
X126400000Y-134420000D02*
X126400000Y-152580000D01*
X126400000Y-134420000D02*
X126570002Y-134420000D01*
X126400000Y-71800000D02*
X126400000Y-80780000D01*
X126970000Y-81220001D02*
G75*
G02*
X126570002Y-81620000I-400000J1D01*
G01*
X129800000Y-27000000D02*
G75*
G02*
X129800000Y-26000000I0J500000D01*
G01*
%TO.C,REF\u002A\u002A*%
X115600000Y-108500000D02*
G75*
G02*
X114800000Y-109300000I-800000J0D01*
G01*
X114800000Y-111300000D02*
G75*
G02*
X115600000Y-112100000I-1J-800001D01*
G01*
X121000000Y-108500000D02*
G75*
G02*
X120200000Y-109300000I-800000J0D01*
G01*
X120200000Y-111300000D02*
G75*
G02*
X121000000Y-112100000I-1J-800001D01*
G01*
X120200000Y-109300000D02*
G75*
G02*
X119400000Y-108500000I1J800001D01*
G01*
X119400000Y-112100000D02*
G75*
G02*
X120200000Y-111300000I800000J0D01*
G01*
X121000000Y-68200000D02*
G75*
G02*
X120200000Y-69000000I-800000J0D01*
G01*
X120200000Y-71000000D02*
G75*
G02*
X121000000Y-71800000I-1J-800001D01*
G01*
X120200000Y-69000000D02*
G75*
G02*
X119400000Y-68200000I1J800001D01*
G01*
X119400000Y-71800000D02*
G75*
G02*
X120200000Y-71000000I800000J0D01*
G01*
X125600000Y-109300000D02*
G75*
G02*
X124800000Y-108500000I1J800001D01*
G01*
X124800000Y-112100000D02*
G75*
G02*
X125600000Y-111300000I800000J0D01*
G01*
X125600000Y-69000000D02*
G75*
G02*
X124800000Y-68200000I1J800001D01*
G01*
X124800000Y-71800000D02*
G75*
G02*
X125600000Y-71000000I800000J0D01*
G01*
X115600000Y-68200000D02*
G75*
G02*
X114800000Y-69000000I-800000J0D01*
G01*
X114800000Y-71000000D02*
G75*
G02*
X115600000Y-71800000I-1J-800001D01*
G01*
X110200000Y-68200000D02*
G75*
G02*
X109400000Y-69000000I-800000J0D01*
G01*
X109400000Y-71000000D02*
G75*
G02*
X110200000Y-71800000I-1J-800001D01*
G01*
X110200000Y-108500000D02*
G75*
G02*
X109400000Y-109300000I-800000J0D01*
G01*
X109400000Y-111300000D02*
G75*
G02*
X110200000Y-112100000I-1J-800001D01*
G01*
X109400000Y-109300000D02*
G75*
G02*
X108600000Y-108500000I1J800001D01*
G01*
X108600000Y-112100000D02*
G75*
G02*
X109400000Y-111300000I800000J0D01*
G01*
X104800000Y-108500000D02*
G75*
G02*
X104000000Y-109300000I-800000J0D01*
G01*
X104000000Y-111300000D02*
G75*
G02*
X104800000Y-112100000I-1J-800001D01*
G01*
X114800000Y-109300000D02*
G75*
G02*
X114000000Y-108500000I1J800001D01*
G01*
X114000000Y-112100000D02*
G75*
G02*
X114800000Y-111300000I800000J0D01*
G01*
X109400000Y-69000000D02*
G75*
G02*
X108600000Y-68200000I1J800001D01*
G01*
X108600000Y-71800000D02*
G75*
G02*
X109400000Y-71000000I800000J0D01*
G01*
X114800000Y-69000000D02*
G75*
G02*
X114000000Y-68200000I1J800001D01*
G01*
X114000000Y-71800000D02*
G75*
G02*
X114800000Y-71000000I800000J0D01*
G01*
X104800000Y-68200000D02*
G75*
G02*
X104000000Y-69000000I-800000J0D01*
G01*
X104000000Y-71000000D02*
G75*
G02*
X104800000Y-71800000I-1J-800001D01*
G01*
X99400000Y-108500000D02*
G75*
G02*
X98600000Y-109300000I-800000J0D01*
G01*
X98600000Y-111300000D02*
G75*
G02*
X99400000Y-112100000I-1J-800001D01*
G01*
X98600000Y-109300000D02*
G75*
G02*
X97800000Y-108500000I1J800001D01*
G01*
X97800000Y-112100000D02*
G75*
G02*
X98600000Y-111300000I800000J0D01*
G01*
X99400000Y-68200000D02*
G75*
G02*
X98600000Y-69000000I-800000J0D01*
G01*
X98600000Y-71000000D02*
G75*
G02*
X99400000Y-71800000I-1J-800001D01*
G01*
X98600000Y-69000000D02*
G75*
G02*
X97800000Y-68200000I1J800001D01*
G01*
X97800000Y-71800000D02*
G75*
G02*
X98600000Y-71000000I800000J0D01*
G01*
X94000000Y-108500000D02*
G75*
G02*
X93200000Y-109300000I-800000J0D01*
G01*
X93200000Y-111300000D02*
G75*
G02*
X94000000Y-112100000I-1J-800001D01*
G01*
X104000000Y-109300000D02*
G75*
G02*
X103200000Y-108500000I1J800001D01*
G01*
X103200000Y-112100000D02*
G75*
G02*
X104000000Y-111300000I800000J0D01*
G01*
X94000000Y-68200000D02*
G75*
G02*
X93200000Y-69000000I-800000J0D01*
G01*
X93200000Y-71000000D02*
G75*
G02*
X94000000Y-71800000I-1J-800001D01*
G01*
X88600000Y-108500000D02*
G75*
G02*
X87800000Y-109300000I-800000J0D01*
G01*
X87800000Y-111300000D02*
G75*
G02*
X88600000Y-112100000I-1J-800001D01*
G01*
X87800000Y-109300000D02*
G75*
G02*
X87000000Y-108500000I1J800001D01*
G01*
X87000000Y-112100000D02*
G75*
G02*
X87800000Y-111300000I800000J0D01*
G01*
X88600000Y-68200000D02*
G75*
G02*
X87800000Y-69000000I-800000J0D01*
G01*
X87800000Y-71000000D02*
G75*
G02*
X88600000Y-71800000I-1J-800001D01*
G01*
X83200000Y-108500000D02*
G75*
G02*
X82400000Y-109300000I-800000J0D01*
G01*
X82400000Y-111300000D02*
G75*
G02*
X83200000Y-112100000I-1J-800001D01*
G01*
X93200000Y-109300000D02*
G75*
G02*
X92400000Y-108500000I1J800001D01*
G01*
X92400000Y-112100000D02*
G75*
G02*
X93200000Y-111300000I800000J0D01*
G01*
X87800000Y-69000000D02*
G75*
G02*
X87000000Y-68200000I1J800001D01*
G01*
X87000000Y-71800000D02*
G75*
G02*
X87800000Y-71000000I800000J0D01*
G01*
X93200000Y-69000000D02*
G75*
G02*
X92400000Y-68200000I1J800001D01*
G01*
X92400000Y-71800000D02*
G75*
G02*
X93200000Y-71000000I800000J0D01*
G01*
X83200000Y-68200000D02*
G75*
G02*
X82400000Y-69000000I-800000J0D01*
G01*
X82400000Y-71000000D02*
G75*
G02*
X83200000Y-71800000I-1J-800001D01*
G01*
X77000000Y-69000000D02*
G75*
G02*
X76200000Y-68200000I1J800001D01*
G01*
X76200000Y-71800000D02*
G75*
G02*
X77000000Y-71000000I800000J0D01*
G01*
X77800000Y-108500000D02*
G75*
G02*
X77000000Y-109300000I-800000J0D01*
G01*
X77000000Y-111300000D02*
G75*
G02*
X77800000Y-112100000I-1J-800001D01*
G01*
X77000000Y-109300000D02*
G75*
G02*
X76200000Y-108500000I1J800001D01*
G01*
X76200000Y-112100000D02*
G75*
G02*
X77000000Y-111300000I800000J0D01*
G01*
X77800000Y-68200000D02*
G75*
G02*
X77000000Y-69000000I-800000J0D01*
G01*
X77000000Y-71000000D02*
G75*
G02*
X77800000Y-71800000I-1J-800001D01*
G01*
X72400000Y-108500000D02*
G75*
G02*
X71600000Y-109300000I-800000J0D01*
G01*
X71600000Y-111300000D02*
G75*
G02*
X72400000Y-112100000I-1J-800001D01*
G01*
X72400000Y-68200000D02*
G75*
G02*
X71600000Y-69000000I-800000J0D01*
G01*
X71600000Y-71000000D02*
G75*
G02*
X72400000Y-71800000I-1J-800001D01*
G01*
X82400000Y-109300000D02*
G75*
G02*
X81600000Y-108500000I1J800001D01*
G01*
X81600000Y-112100000D02*
G75*
G02*
X82400000Y-111300000I800000J0D01*
G01*
X82400000Y-69000000D02*
G75*
G02*
X81600000Y-68200000I1J800001D01*
G01*
X81600000Y-71800000D02*
G75*
G02*
X82400000Y-71000000I800000J0D01*
G01*
X67000000Y-108500000D02*
G75*
G02*
X66200000Y-109300000I-800000J0D01*
G01*
X66200000Y-111300000D02*
G75*
G02*
X67000000Y-112100000I-1J-800001D01*
G01*
X66200000Y-109300000D02*
G75*
G02*
X65400000Y-108500000I1J800001D01*
G01*
X65400000Y-112100000D02*
G75*
G02*
X66200000Y-111300000I800000J0D01*
G01*
X67000000Y-68200000D02*
G75*
G02*
X66200000Y-69000000I-800000J0D01*
G01*
X66200000Y-71000000D02*
G75*
G02*
X67000000Y-71800000I-1J-800001D01*
G01*
X61600000Y-108500000D02*
G75*
G02*
X60800000Y-109300000I-800000J0D01*
G01*
X60800000Y-111300000D02*
G75*
G02*
X61600000Y-112100000I-1J-800001D01*
G01*
X71600000Y-109300000D02*
G75*
G02*
X70800000Y-108500000I1J800001D01*
G01*
X70800000Y-112100000D02*
G75*
G02*
X71600000Y-111300000I800000J0D01*
G01*
X66200000Y-69000000D02*
G75*
G02*
X65400000Y-68200000I1J800001D01*
G01*
X65400000Y-71800000D02*
G75*
G02*
X66200000Y-71000000I800000J0D01*
G01*
X71600000Y-69000000D02*
G75*
G02*
X70800000Y-68200000I1J800001D01*
G01*
X70800000Y-71800000D02*
G75*
G02*
X71600000Y-71000000I800000J0D01*
G01*
X61600000Y-68200000D02*
G75*
G02*
X60800000Y-69000000I-800000J0D01*
G01*
X60800000Y-71000000D02*
G75*
G02*
X61600000Y-71800000I-1J-800001D01*
G01*
X56200000Y-108500000D02*
G75*
G02*
X55400000Y-109300000I-800000J0D01*
G01*
X55400000Y-111300000D02*
G75*
G02*
X56200000Y-112100000I-1J-800001D01*
G01*
X55400000Y-109300000D02*
G75*
G02*
X54600000Y-108500000I1J800001D01*
G01*
X54600000Y-112100000D02*
G75*
G02*
X55400000Y-111300000I800000J0D01*
G01*
X56200000Y-68200000D02*
G75*
G02*
X55400000Y-69000000I-800000J0D01*
G01*
X55400000Y-71000000D02*
G75*
G02*
X56200000Y-71800000I-1J-800001D01*
G01*
X60800000Y-109300000D02*
G75*
G02*
X60000000Y-108500000I1J800001D01*
G01*
X60000000Y-112100000D02*
G75*
G02*
X60800000Y-111300000I800000J0D01*
G01*
X55400000Y-69000000D02*
G75*
G02*
X54600000Y-68200000I1J800001D01*
G01*
X54600000Y-71800000D02*
G75*
G02*
X55400000Y-71000000I800000J0D01*
G01*
X60800000Y-69000000D02*
G75*
G02*
X60000000Y-68200000I1J800001D01*
G01*
X60000000Y-71800000D02*
G75*
G02*
X60800000Y-71000000I800000J0D01*
G01*
X104000000Y-69000000D02*
G75*
G02*
X103200000Y-68200000I1J800001D01*
G01*
X103200000Y-71800000D02*
G75*
G02*
X104000000Y-71000000I800000J0D01*
G01*
X126400000Y-68200000D02*
G75*
G02*
X125600000Y-69000000I-800000J0D01*
G01*
X125600000Y-71000000D02*
G75*
G02*
X126400000Y-71800000I-1J-800001D01*
G01*
X131000000Y-69000000D02*
G75*
G02*
X130200000Y-68200000I1J800001D01*
G01*
X130200000Y-71800000D02*
G75*
G02*
X131000000Y-71000000I800000J0D01*
G01*
X126400000Y-108500000D02*
G75*
G02*
X125600000Y-109300000I-800000J0D01*
G01*
X125600000Y-111300000D02*
G75*
G02*
X126400000Y-112100000I-1J-800001D01*
G01*
X131800000Y-68200000D02*
G75*
G02*
X131000000Y-69000000I-800000J0D01*
G01*
X131000000Y-71000000D02*
G75*
G02*
X131800000Y-71800000I-1J-800001D01*
G01*
X131000000Y-109300000D02*
G75*
G02*
X130200000Y-108500000I1J800001D01*
G01*
X130200000Y-112100000D02*
G75*
G02*
X131000000Y-111300000I800000J0D01*
G01*
X131800000Y-108500000D02*
G75*
G02*
X131000000Y-109300000I-800000J0D01*
G01*
X131000000Y-111300000D02*
G75*
G02*
X131800000Y-112100000I-1J-800001D01*
G01*
%TD*%
M02*
