%TF.GenerationSoftware,KiCad,Pcbnew,9.0.3*%
%TF.CreationDate,2025-08-19T12:25:47-04:00*%
%TF.ProjectId,flowstick_led_strip_panel,666c6f77-7374-4696-936b-5f6c65645f73,rev?*%
%TF.SameCoordinates,Original*%
%TF.FileFunction,Legend,Top*%
%TF.FilePolarity,Positive*%
%FSLAX46Y46*%
G04 Gerber Fmt 4.6, Leading zero omitted, Abs format (unit mm)*
G04 Created by KiCad (PCBNEW 9.0.3) date 2025-08-19 12:25:47*
%MOMM*%
%LPD*%
G01*
G04 APERTURE LIST*
%ADD10C,0.300000*%
%ADD11C,0.200000*%
%ADD12C,0.100000*%
%ADD13C,0.120000*%
G04 APERTURE END LIST*
D10*
X93200000Y-155600000D02*
X93200000Y-161200000D01*
D11*
X113355863Y-157547331D02*
X112879673Y-157547331D01*
X112879673Y-157547331D02*
X112879673Y-156547331D01*
X113689197Y-157023521D02*
X114022530Y-157023521D01*
X114165387Y-157547331D02*
X113689197Y-157547331D01*
X113689197Y-157547331D02*
X113689197Y-156547331D01*
X113689197Y-156547331D02*
X114165387Y-156547331D01*
X114593959Y-157547331D02*
X114593959Y-156547331D01*
X114593959Y-156547331D02*
X114832054Y-156547331D01*
X114832054Y-156547331D02*
X114974911Y-156594950D01*
X114974911Y-156594950D02*
X115070149Y-156690188D01*
X115070149Y-156690188D02*
X115117768Y-156785426D01*
X115117768Y-156785426D02*
X115165387Y-156975902D01*
X115165387Y-156975902D02*
X115165387Y-157118759D01*
X115165387Y-157118759D02*
X115117768Y-157309235D01*
X115117768Y-157309235D02*
X115070149Y-157404473D01*
X115070149Y-157404473D02*
X114974911Y-157499712D01*
X114974911Y-157499712D02*
X114832054Y-157547331D01*
X114832054Y-157547331D02*
X114593959Y-157547331D01*
X116689197Y-157023521D02*
X116355864Y-157023521D01*
X116355864Y-157547331D02*
X116355864Y-156547331D01*
X116355864Y-156547331D02*
X116832054Y-156547331D01*
X117165388Y-157261616D02*
X117641578Y-157261616D01*
X117070150Y-157547331D02*
X117403483Y-156547331D01*
X117403483Y-156547331D02*
X117736816Y-157547331D01*
X118641578Y-157452092D02*
X118593959Y-157499712D01*
X118593959Y-157499712D02*
X118451102Y-157547331D01*
X118451102Y-157547331D02*
X118355864Y-157547331D01*
X118355864Y-157547331D02*
X118213007Y-157499712D01*
X118213007Y-157499712D02*
X118117769Y-157404473D01*
X118117769Y-157404473D02*
X118070150Y-157309235D01*
X118070150Y-157309235D02*
X118022531Y-157118759D01*
X118022531Y-157118759D02*
X118022531Y-156975902D01*
X118022531Y-156975902D02*
X118070150Y-156785426D01*
X118070150Y-156785426D02*
X118117769Y-156690188D01*
X118117769Y-156690188D02*
X118213007Y-156594950D01*
X118213007Y-156594950D02*
X118355864Y-156547331D01*
X118355864Y-156547331D02*
X118451102Y-156547331D01*
X118451102Y-156547331D02*
X118593959Y-156594950D01*
X118593959Y-156594950D02*
X118641578Y-156642569D01*
X118927293Y-156547331D02*
X119498721Y-156547331D01*
X119213007Y-157547331D02*
X119213007Y-156547331D01*
X120022531Y-156547331D02*
X120213007Y-156547331D01*
X120213007Y-156547331D02*
X120308245Y-156594950D01*
X120308245Y-156594950D02*
X120403483Y-156690188D01*
X120403483Y-156690188D02*
X120451102Y-156880664D01*
X120451102Y-156880664D02*
X120451102Y-157213997D01*
X120451102Y-157213997D02*
X120403483Y-157404473D01*
X120403483Y-157404473D02*
X120308245Y-157499712D01*
X120308245Y-157499712D02*
X120213007Y-157547331D01*
X120213007Y-157547331D02*
X120022531Y-157547331D01*
X120022531Y-157547331D02*
X119927293Y-157499712D01*
X119927293Y-157499712D02*
X119832055Y-157404473D01*
X119832055Y-157404473D02*
X119784436Y-157213997D01*
X119784436Y-157213997D02*
X119784436Y-156880664D01*
X119784436Y-156880664D02*
X119832055Y-156690188D01*
X119832055Y-156690188D02*
X119927293Y-156594950D01*
X119927293Y-156594950D02*
X120022531Y-156547331D01*
X121451102Y-157547331D02*
X121117769Y-157071140D01*
X120879674Y-157547331D02*
X120879674Y-156547331D01*
X120879674Y-156547331D02*
X121260626Y-156547331D01*
X121260626Y-156547331D02*
X121355864Y-156594950D01*
X121355864Y-156594950D02*
X121403483Y-156642569D01*
X121403483Y-156642569D02*
X121451102Y-156737807D01*
X121451102Y-156737807D02*
X121451102Y-156880664D01*
X121451102Y-156880664D02*
X121403483Y-156975902D01*
X121403483Y-156975902D02*
X121355864Y-157023521D01*
X121355864Y-157023521D02*
X121260626Y-157071140D01*
X121260626Y-157071140D02*
X120879674Y-157071140D01*
X122070150Y-157071140D02*
X122070150Y-157547331D01*
X121736817Y-156547331D02*
X122070150Y-157071140D01*
X122070150Y-157071140D02*
X122403483Y-156547331D01*
X123355865Y-156547331D02*
X123927293Y-156547331D01*
X123641579Y-157547331D02*
X123641579Y-156547331D01*
X124260627Y-157023521D02*
X124593960Y-157023521D01*
X124736817Y-157547331D02*
X124260627Y-157547331D01*
X124260627Y-157547331D02*
X124260627Y-156547331D01*
X124260627Y-156547331D02*
X124736817Y-156547331D01*
X125117770Y-157499712D02*
X125260627Y-157547331D01*
X125260627Y-157547331D02*
X125498722Y-157547331D01*
X125498722Y-157547331D02*
X125593960Y-157499712D01*
X125593960Y-157499712D02*
X125641579Y-157452092D01*
X125641579Y-157452092D02*
X125689198Y-157356854D01*
X125689198Y-157356854D02*
X125689198Y-157261616D01*
X125689198Y-157261616D02*
X125641579Y-157166378D01*
X125641579Y-157166378D02*
X125593960Y-157118759D01*
X125593960Y-157118759D02*
X125498722Y-157071140D01*
X125498722Y-157071140D02*
X125308246Y-157023521D01*
X125308246Y-157023521D02*
X125213008Y-156975902D01*
X125213008Y-156975902D02*
X125165389Y-156928283D01*
X125165389Y-156928283D02*
X125117770Y-156833045D01*
X125117770Y-156833045D02*
X125117770Y-156737807D01*
X125117770Y-156737807D02*
X125165389Y-156642569D01*
X125165389Y-156642569D02*
X125213008Y-156594950D01*
X125213008Y-156594950D02*
X125308246Y-156547331D01*
X125308246Y-156547331D02*
X125546341Y-156547331D01*
X125546341Y-156547331D02*
X125689198Y-156594950D01*
X125974913Y-156547331D02*
X126546341Y-156547331D01*
X126260627Y-157547331D02*
X126260627Y-156547331D01*
X112879673Y-159157275D02*
X112879673Y-158157275D01*
X113927291Y-159062036D02*
X113879672Y-159109656D01*
X113879672Y-159109656D02*
X113736815Y-159157275D01*
X113736815Y-159157275D02*
X113641577Y-159157275D01*
X113641577Y-159157275D02*
X113498720Y-159109656D01*
X113498720Y-159109656D02*
X113403482Y-159014417D01*
X113403482Y-159014417D02*
X113355863Y-158919179D01*
X113355863Y-158919179D02*
X113308244Y-158728703D01*
X113308244Y-158728703D02*
X113308244Y-158585846D01*
X113308244Y-158585846D02*
X113355863Y-158395370D01*
X113355863Y-158395370D02*
X113403482Y-158300132D01*
X113403482Y-158300132D02*
X113498720Y-158204894D01*
X113498720Y-158204894D02*
X113641577Y-158157275D01*
X113641577Y-158157275D02*
X113736815Y-158157275D01*
X113736815Y-158157275D02*
X113879672Y-158204894D01*
X113879672Y-158204894D02*
X113927291Y-158252513D01*
X114355863Y-159062036D02*
X114403482Y-159109656D01*
X114403482Y-159109656D02*
X114355863Y-159157275D01*
X114355863Y-159157275D02*
X114308244Y-159109656D01*
X114308244Y-159109656D02*
X114355863Y-159062036D01*
X114355863Y-159062036D02*
X114355863Y-159157275D01*
X114355863Y-158538227D02*
X114403482Y-158585846D01*
X114403482Y-158585846D02*
X114355863Y-158633465D01*
X114355863Y-158633465D02*
X114308244Y-158585846D01*
X114308244Y-158585846D02*
X114355863Y-158538227D01*
X114355863Y-158538227D02*
X114355863Y-158633465D01*
X115546339Y-158871560D02*
X116022529Y-158871560D01*
X115451101Y-159157275D02*
X115784434Y-158157275D01*
X115784434Y-158157275D02*
X116117767Y-159157275D01*
X116451101Y-159157275D02*
X116451101Y-158157275D01*
X116451101Y-158157275D02*
X116832053Y-158157275D01*
X116832053Y-158157275D02*
X116927291Y-158204894D01*
X116927291Y-158204894D02*
X116974910Y-158252513D01*
X116974910Y-158252513D02*
X117022529Y-158347751D01*
X117022529Y-158347751D02*
X117022529Y-158490608D01*
X117022529Y-158490608D02*
X116974910Y-158585846D01*
X116974910Y-158585846D02*
X116927291Y-158633465D01*
X116927291Y-158633465D02*
X116832053Y-158681084D01*
X116832053Y-158681084D02*
X116451101Y-158681084D01*
X117403482Y-158871560D02*
X117879672Y-158871560D01*
X117308244Y-159157275D02*
X117641577Y-158157275D01*
X117641577Y-158157275D02*
X117974910Y-159157275D01*
X118832053Y-159157275D02*
X118260625Y-159157275D01*
X118546339Y-159157275D02*
X118546339Y-158157275D01*
X118546339Y-158157275D02*
X118451101Y-158300132D01*
X118451101Y-158300132D02*
X118355863Y-158395370D01*
X118355863Y-158395370D02*
X118260625Y-158442989D01*
X119451101Y-158157275D02*
X119546339Y-158157275D01*
X119546339Y-158157275D02*
X119641577Y-158204894D01*
X119641577Y-158204894D02*
X119689196Y-158252513D01*
X119689196Y-158252513D02*
X119736815Y-158347751D01*
X119736815Y-158347751D02*
X119784434Y-158538227D01*
X119784434Y-158538227D02*
X119784434Y-158776322D01*
X119784434Y-158776322D02*
X119736815Y-158966798D01*
X119736815Y-158966798D02*
X119689196Y-159062036D01*
X119689196Y-159062036D02*
X119641577Y-159109656D01*
X119641577Y-159109656D02*
X119546339Y-159157275D01*
X119546339Y-159157275D02*
X119451101Y-159157275D01*
X119451101Y-159157275D02*
X119355863Y-159109656D01*
X119355863Y-159109656D02*
X119308244Y-159062036D01*
X119308244Y-159062036D02*
X119260625Y-158966798D01*
X119260625Y-158966798D02*
X119213006Y-158776322D01*
X119213006Y-158776322D02*
X119213006Y-158538227D01*
X119213006Y-158538227D02*
X119260625Y-158347751D01*
X119260625Y-158347751D02*
X119308244Y-158252513D01*
X119308244Y-158252513D02*
X119355863Y-158204894D01*
X119355863Y-158204894D02*
X119451101Y-158157275D01*
X120165387Y-158252513D02*
X120213006Y-158204894D01*
X120213006Y-158204894D02*
X120308244Y-158157275D01*
X120308244Y-158157275D02*
X120546339Y-158157275D01*
X120546339Y-158157275D02*
X120641577Y-158204894D01*
X120641577Y-158204894D02*
X120689196Y-158252513D01*
X120689196Y-158252513D02*
X120736815Y-158347751D01*
X120736815Y-158347751D02*
X120736815Y-158442989D01*
X120736815Y-158442989D02*
X120689196Y-158585846D01*
X120689196Y-158585846D02*
X120117768Y-159157275D01*
X120117768Y-159157275D02*
X120736815Y-159157275D01*
X121165387Y-158776322D02*
X121927292Y-158776322D01*
X122355863Y-158252513D02*
X122403482Y-158204894D01*
X122403482Y-158204894D02*
X122498720Y-158157275D01*
X122498720Y-158157275D02*
X122736815Y-158157275D01*
X122736815Y-158157275D02*
X122832053Y-158204894D01*
X122832053Y-158204894D02*
X122879672Y-158252513D01*
X122879672Y-158252513D02*
X122927291Y-158347751D01*
X122927291Y-158347751D02*
X122927291Y-158442989D01*
X122927291Y-158442989D02*
X122879672Y-158585846D01*
X122879672Y-158585846D02*
X122308244Y-159157275D01*
X122308244Y-159157275D02*
X122927291Y-159157275D01*
X123546339Y-158157275D02*
X123641577Y-158157275D01*
X123641577Y-158157275D02*
X123736815Y-158204894D01*
X123736815Y-158204894D02*
X123784434Y-158252513D01*
X123784434Y-158252513D02*
X123832053Y-158347751D01*
X123832053Y-158347751D02*
X123879672Y-158538227D01*
X123879672Y-158538227D02*
X123879672Y-158776322D01*
X123879672Y-158776322D02*
X123832053Y-158966798D01*
X123832053Y-158966798D02*
X123784434Y-159062036D01*
X123784434Y-159062036D02*
X123736815Y-159109656D01*
X123736815Y-159109656D02*
X123641577Y-159157275D01*
X123641577Y-159157275D02*
X123546339Y-159157275D01*
X123546339Y-159157275D02*
X123451101Y-159109656D01*
X123451101Y-159109656D02*
X123403482Y-159062036D01*
X123403482Y-159062036D02*
X123355863Y-158966798D01*
X123355863Y-158966798D02*
X123308244Y-158776322D01*
X123308244Y-158776322D02*
X123308244Y-158538227D01*
X123308244Y-158538227D02*
X123355863Y-158347751D01*
X123355863Y-158347751D02*
X123403482Y-158252513D01*
X123403482Y-158252513D02*
X123451101Y-158204894D01*
X123451101Y-158204894D02*
X123546339Y-158157275D01*
X124260625Y-158252513D02*
X124308244Y-158204894D01*
X124308244Y-158204894D02*
X124403482Y-158157275D01*
X124403482Y-158157275D02*
X124641577Y-158157275D01*
X124641577Y-158157275D02*
X124736815Y-158204894D01*
X124736815Y-158204894D02*
X124784434Y-158252513D01*
X124784434Y-158252513D02*
X124832053Y-158347751D01*
X124832053Y-158347751D02*
X124832053Y-158442989D01*
X124832053Y-158442989D02*
X124784434Y-158585846D01*
X124784434Y-158585846D02*
X124213006Y-159157275D01*
X124213006Y-159157275D02*
X124832053Y-159157275D01*
X125451101Y-158157275D02*
X125546339Y-158157275D01*
X125546339Y-158157275D02*
X125641577Y-158204894D01*
X125641577Y-158204894D02*
X125689196Y-158252513D01*
X125689196Y-158252513D02*
X125736815Y-158347751D01*
X125736815Y-158347751D02*
X125784434Y-158538227D01*
X125784434Y-158538227D02*
X125784434Y-158776322D01*
X125784434Y-158776322D02*
X125736815Y-158966798D01*
X125736815Y-158966798D02*
X125689196Y-159062036D01*
X125689196Y-159062036D02*
X125641577Y-159109656D01*
X125641577Y-159109656D02*
X125546339Y-159157275D01*
X125546339Y-159157275D02*
X125451101Y-159157275D01*
X125451101Y-159157275D02*
X125355863Y-159109656D01*
X125355863Y-159109656D02*
X125308244Y-159062036D01*
X125308244Y-159062036D02*
X125260625Y-158966798D01*
X125260625Y-158966798D02*
X125213006Y-158776322D01*
X125213006Y-158776322D02*
X125213006Y-158538227D01*
X125213006Y-158538227D02*
X125260625Y-158347751D01*
X125260625Y-158347751D02*
X125308244Y-158252513D01*
X125308244Y-158252513D02*
X125355863Y-158204894D01*
X125355863Y-158204894D02*
X125451101Y-158157275D01*
X113355863Y-160767219D02*
X112879673Y-160767219D01*
X112879673Y-160767219D02*
X112879673Y-159767219D01*
X113689197Y-160243409D02*
X114022530Y-160243409D01*
X114165387Y-160767219D02*
X113689197Y-160767219D01*
X113689197Y-160767219D02*
X113689197Y-159767219D01*
X113689197Y-159767219D02*
X114165387Y-159767219D01*
X114593959Y-160767219D02*
X114593959Y-159767219D01*
X114593959Y-159767219D02*
X115165387Y-160767219D01*
X115165387Y-160767219D02*
X115165387Y-159767219D01*
X116165387Y-159814838D02*
X116070149Y-159767219D01*
X116070149Y-159767219D02*
X115927292Y-159767219D01*
X115927292Y-159767219D02*
X115784435Y-159814838D01*
X115784435Y-159814838D02*
X115689197Y-159910076D01*
X115689197Y-159910076D02*
X115641578Y-160005314D01*
X115641578Y-160005314D02*
X115593959Y-160195790D01*
X115593959Y-160195790D02*
X115593959Y-160338647D01*
X115593959Y-160338647D02*
X115641578Y-160529123D01*
X115641578Y-160529123D02*
X115689197Y-160624361D01*
X115689197Y-160624361D02*
X115784435Y-160719600D01*
X115784435Y-160719600D02*
X115927292Y-160767219D01*
X115927292Y-160767219D02*
X116022530Y-160767219D01*
X116022530Y-160767219D02*
X116165387Y-160719600D01*
X116165387Y-160719600D02*
X116213006Y-160671980D01*
X116213006Y-160671980D02*
X116213006Y-160338647D01*
X116213006Y-160338647D02*
X116022530Y-160338647D01*
X116498721Y-159767219D02*
X117070149Y-159767219D01*
X116784435Y-160767219D02*
X116784435Y-159767219D01*
X117403483Y-160767219D02*
X117403483Y-159767219D01*
X117403483Y-160243409D02*
X117974911Y-160243409D01*
X117974911Y-160767219D02*
X117974911Y-159767219D01*
X118451102Y-160671980D02*
X118498721Y-160719600D01*
X118498721Y-160719600D02*
X118451102Y-160767219D01*
X118451102Y-160767219D02*
X118403483Y-160719600D01*
X118403483Y-160719600D02*
X118451102Y-160671980D01*
X118451102Y-160671980D02*
X118451102Y-160767219D01*
X118451102Y-160148171D02*
X118498721Y-160195790D01*
X118498721Y-160195790D02*
X118451102Y-160243409D01*
X118451102Y-160243409D02*
X118403483Y-160195790D01*
X118403483Y-160195790D02*
X118451102Y-160148171D01*
X118451102Y-160148171D02*
X118451102Y-160243409D01*
X120117768Y-160100552D02*
X120117768Y-160767219D01*
X119879673Y-159719600D02*
X119641578Y-160433885D01*
X119641578Y-160433885D02*
X120260625Y-160433885D01*
X120832054Y-159767219D02*
X120927292Y-159767219D01*
X120927292Y-159767219D02*
X121022530Y-159814838D01*
X121022530Y-159814838D02*
X121070149Y-159862457D01*
X121070149Y-159862457D02*
X121117768Y-159957695D01*
X121117768Y-159957695D02*
X121165387Y-160148171D01*
X121165387Y-160148171D02*
X121165387Y-160386266D01*
X121165387Y-160386266D02*
X121117768Y-160576742D01*
X121117768Y-160576742D02*
X121070149Y-160671980D01*
X121070149Y-160671980D02*
X121022530Y-160719600D01*
X121022530Y-160719600D02*
X120927292Y-160767219D01*
X120927292Y-160767219D02*
X120832054Y-160767219D01*
X120832054Y-160767219D02*
X120736816Y-160719600D01*
X120736816Y-160719600D02*
X120689197Y-160671980D01*
X120689197Y-160671980D02*
X120641578Y-160576742D01*
X120641578Y-160576742D02*
X120593959Y-160386266D01*
X120593959Y-160386266D02*
X120593959Y-160148171D01*
X120593959Y-160148171D02*
X120641578Y-159957695D01*
X120641578Y-159957695D02*
X120689197Y-159862457D01*
X120689197Y-159862457D02*
X120736816Y-159814838D01*
X120736816Y-159814838D02*
X120832054Y-159767219D01*
X72945863Y-157547331D02*
X72469673Y-157547331D01*
X72469673Y-157547331D02*
X72469673Y-156547331D01*
X73279197Y-157023521D02*
X73612530Y-157023521D01*
X73755387Y-157547331D02*
X73279197Y-157547331D01*
X73279197Y-157547331D02*
X73279197Y-156547331D01*
X73279197Y-156547331D02*
X73755387Y-156547331D01*
X74183959Y-157547331D02*
X74183959Y-156547331D01*
X74183959Y-156547331D02*
X74422054Y-156547331D01*
X74422054Y-156547331D02*
X74564911Y-156594950D01*
X74564911Y-156594950D02*
X74660149Y-156690188D01*
X74660149Y-156690188D02*
X74707768Y-156785426D01*
X74707768Y-156785426D02*
X74755387Y-156975902D01*
X74755387Y-156975902D02*
X74755387Y-157118759D01*
X74755387Y-157118759D02*
X74707768Y-157309235D01*
X74707768Y-157309235D02*
X74660149Y-157404473D01*
X74660149Y-157404473D02*
X74564911Y-157499712D01*
X74564911Y-157499712D02*
X74422054Y-157547331D01*
X74422054Y-157547331D02*
X74183959Y-157547331D01*
X76279197Y-157023521D02*
X75945864Y-157023521D01*
X75945864Y-157547331D02*
X75945864Y-156547331D01*
X75945864Y-156547331D02*
X76422054Y-156547331D01*
X76755388Y-157261616D02*
X77231578Y-157261616D01*
X76660150Y-157547331D02*
X76993483Y-156547331D01*
X76993483Y-156547331D02*
X77326816Y-157547331D01*
X78231578Y-157452092D02*
X78183959Y-157499712D01*
X78183959Y-157499712D02*
X78041102Y-157547331D01*
X78041102Y-157547331D02*
X77945864Y-157547331D01*
X77945864Y-157547331D02*
X77803007Y-157499712D01*
X77803007Y-157499712D02*
X77707769Y-157404473D01*
X77707769Y-157404473D02*
X77660150Y-157309235D01*
X77660150Y-157309235D02*
X77612531Y-157118759D01*
X77612531Y-157118759D02*
X77612531Y-156975902D01*
X77612531Y-156975902D02*
X77660150Y-156785426D01*
X77660150Y-156785426D02*
X77707769Y-156690188D01*
X77707769Y-156690188D02*
X77803007Y-156594950D01*
X77803007Y-156594950D02*
X77945864Y-156547331D01*
X77945864Y-156547331D02*
X78041102Y-156547331D01*
X78041102Y-156547331D02*
X78183959Y-156594950D01*
X78183959Y-156594950D02*
X78231578Y-156642569D01*
X78517293Y-156547331D02*
X79088721Y-156547331D01*
X78803007Y-157547331D02*
X78803007Y-156547331D01*
X79612531Y-156547331D02*
X79803007Y-156547331D01*
X79803007Y-156547331D02*
X79898245Y-156594950D01*
X79898245Y-156594950D02*
X79993483Y-156690188D01*
X79993483Y-156690188D02*
X80041102Y-156880664D01*
X80041102Y-156880664D02*
X80041102Y-157213997D01*
X80041102Y-157213997D02*
X79993483Y-157404473D01*
X79993483Y-157404473D02*
X79898245Y-157499712D01*
X79898245Y-157499712D02*
X79803007Y-157547331D01*
X79803007Y-157547331D02*
X79612531Y-157547331D01*
X79612531Y-157547331D02*
X79517293Y-157499712D01*
X79517293Y-157499712D02*
X79422055Y-157404473D01*
X79422055Y-157404473D02*
X79374436Y-157213997D01*
X79374436Y-157213997D02*
X79374436Y-156880664D01*
X79374436Y-156880664D02*
X79422055Y-156690188D01*
X79422055Y-156690188D02*
X79517293Y-156594950D01*
X79517293Y-156594950D02*
X79612531Y-156547331D01*
X81041102Y-157547331D02*
X80707769Y-157071140D01*
X80469674Y-157547331D02*
X80469674Y-156547331D01*
X80469674Y-156547331D02*
X80850626Y-156547331D01*
X80850626Y-156547331D02*
X80945864Y-156594950D01*
X80945864Y-156594950D02*
X80993483Y-156642569D01*
X80993483Y-156642569D02*
X81041102Y-156737807D01*
X81041102Y-156737807D02*
X81041102Y-156880664D01*
X81041102Y-156880664D02*
X80993483Y-156975902D01*
X80993483Y-156975902D02*
X80945864Y-157023521D01*
X80945864Y-157023521D02*
X80850626Y-157071140D01*
X80850626Y-157071140D02*
X80469674Y-157071140D01*
X81660150Y-157071140D02*
X81660150Y-157547331D01*
X81326817Y-156547331D02*
X81660150Y-157071140D01*
X81660150Y-157071140D02*
X81993483Y-156547331D01*
X82945865Y-156547331D02*
X83517293Y-156547331D01*
X83231579Y-157547331D02*
X83231579Y-156547331D01*
X83850627Y-157023521D02*
X84183960Y-157023521D01*
X84326817Y-157547331D02*
X83850627Y-157547331D01*
X83850627Y-157547331D02*
X83850627Y-156547331D01*
X83850627Y-156547331D02*
X84326817Y-156547331D01*
X84707770Y-157499712D02*
X84850627Y-157547331D01*
X84850627Y-157547331D02*
X85088722Y-157547331D01*
X85088722Y-157547331D02*
X85183960Y-157499712D01*
X85183960Y-157499712D02*
X85231579Y-157452092D01*
X85231579Y-157452092D02*
X85279198Y-157356854D01*
X85279198Y-157356854D02*
X85279198Y-157261616D01*
X85279198Y-157261616D02*
X85231579Y-157166378D01*
X85231579Y-157166378D02*
X85183960Y-157118759D01*
X85183960Y-157118759D02*
X85088722Y-157071140D01*
X85088722Y-157071140D02*
X84898246Y-157023521D01*
X84898246Y-157023521D02*
X84803008Y-156975902D01*
X84803008Y-156975902D02*
X84755389Y-156928283D01*
X84755389Y-156928283D02*
X84707770Y-156833045D01*
X84707770Y-156833045D02*
X84707770Y-156737807D01*
X84707770Y-156737807D02*
X84755389Y-156642569D01*
X84755389Y-156642569D02*
X84803008Y-156594950D01*
X84803008Y-156594950D02*
X84898246Y-156547331D01*
X84898246Y-156547331D02*
X85136341Y-156547331D01*
X85136341Y-156547331D02*
X85279198Y-156594950D01*
X85564913Y-156547331D02*
X86136341Y-156547331D01*
X85850627Y-157547331D02*
X85850627Y-156547331D01*
X72469673Y-159157275D02*
X72469673Y-158157275D01*
X73517291Y-159062036D02*
X73469672Y-159109656D01*
X73469672Y-159109656D02*
X73326815Y-159157275D01*
X73326815Y-159157275D02*
X73231577Y-159157275D01*
X73231577Y-159157275D02*
X73088720Y-159109656D01*
X73088720Y-159109656D02*
X72993482Y-159014417D01*
X72993482Y-159014417D02*
X72945863Y-158919179D01*
X72945863Y-158919179D02*
X72898244Y-158728703D01*
X72898244Y-158728703D02*
X72898244Y-158585846D01*
X72898244Y-158585846D02*
X72945863Y-158395370D01*
X72945863Y-158395370D02*
X72993482Y-158300132D01*
X72993482Y-158300132D02*
X73088720Y-158204894D01*
X73088720Y-158204894D02*
X73231577Y-158157275D01*
X73231577Y-158157275D02*
X73326815Y-158157275D01*
X73326815Y-158157275D02*
X73469672Y-158204894D01*
X73469672Y-158204894D02*
X73517291Y-158252513D01*
X73945863Y-159062036D02*
X73993482Y-159109656D01*
X73993482Y-159109656D02*
X73945863Y-159157275D01*
X73945863Y-159157275D02*
X73898244Y-159109656D01*
X73898244Y-159109656D02*
X73945863Y-159062036D01*
X73945863Y-159062036D02*
X73945863Y-159157275D01*
X73945863Y-158538227D02*
X73993482Y-158585846D01*
X73993482Y-158585846D02*
X73945863Y-158633465D01*
X73945863Y-158633465D02*
X73898244Y-158585846D01*
X73898244Y-158585846D02*
X73945863Y-158538227D01*
X73945863Y-158538227D02*
X73945863Y-158633465D01*
X75136339Y-158871560D02*
X75612529Y-158871560D01*
X75041101Y-159157275D02*
X75374434Y-158157275D01*
X75374434Y-158157275D02*
X75707767Y-159157275D01*
X76041101Y-159157275D02*
X76041101Y-158157275D01*
X76041101Y-158157275D02*
X76422053Y-158157275D01*
X76422053Y-158157275D02*
X76517291Y-158204894D01*
X76517291Y-158204894D02*
X76564910Y-158252513D01*
X76564910Y-158252513D02*
X76612529Y-158347751D01*
X76612529Y-158347751D02*
X76612529Y-158490608D01*
X76612529Y-158490608D02*
X76564910Y-158585846D01*
X76564910Y-158585846D02*
X76517291Y-158633465D01*
X76517291Y-158633465D02*
X76422053Y-158681084D01*
X76422053Y-158681084D02*
X76041101Y-158681084D01*
X76993482Y-158871560D02*
X77469672Y-158871560D01*
X76898244Y-159157275D02*
X77231577Y-158157275D01*
X77231577Y-158157275D02*
X77564910Y-159157275D01*
X78422053Y-159157275D02*
X77850625Y-159157275D01*
X78136339Y-159157275D02*
X78136339Y-158157275D01*
X78136339Y-158157275D02*
X78041101Y-158300132D01*
X78041101Y-158300132D02*
X77945863Y-158395370D01*
X77945863Y-158395370D02*
X77850625Y-158442989D01*
X79041101Y-158157275D02*
X79136339Y-158157275D01*
X79136339Y-158157275D02*
X79231577Y-158204894D01*
X79231577Y-158204894D02*
X79279196Y-158252513D01*
X79279196Y-158252513D02*
X79326815Y-158347751D01*
X79326815Y-158347751D02*
X79374434Y-158538227D01*
X79374434Y-158538227D02*
X79374434Y-158776322D01*
X79374434Y-158776322D02*
X79326815Y-158966798D01*
X79326815Y-158966798D02*
X79279196Y-159062036D01*
X79279196Y-159062036D02*
X79231577Y-159109656D01*
X79231577Y-159109656D02*
X79136339Y-159157275D01*
X79136339Y-159157275D02*
X79041101Y-159157275D01*
X79041101Y-159157275D02*
X78945863Y-159109656D01*
X78945863Y-159109656D02*
X78898244Y-159062036D01*
X78898244Y-159062036D02*
X78850625Y-158966798D01*
X78850625Y-158966798D02*
X78803006Y-158776322D01*
X78803006Y-158776322D02*
X78803006Y-158538227D01*
X78803006Y-158538227D02*
X78850625Y-158347751D01*
X78850625Y-158347751D02*
X78898244Y-158252513D01*
X78898244Y-158252513D02*
X78945863Y-158204894D01*
X78945863Y-158204894D02*
X79041101Y-158157275D01*
X79755387Y-158252513D02*
X79803006Y-158204894D01*
X79803006Y-158204894D02*
X79898244Y-158157275D01*
X79898244Y-158157275D02*
X80136339Y-158157275D01*
X80136339Y-158157275D02*
X80231577Y-158204894D01*
X80231577Y-158204894D02*
X80279196Y-158252513D01*
X80279196Y-158252513D02*
X80326815Y-158347751D01*
X80326815Y-158347751D02*
X80326815Y-158442989D01*
X80326815Y-158442989D02*
X80279196Y-158585846D01*
X80279196Y-158585846D02*
X79707768Y-159157275D01*
X79707768Y-159157275D02*
X80326815Y-159157275D01*
X80755387Y-158776322D02*
X81517292Y-158776322D01*
X81945863Y-158252513D02*
X81993482Y-158204894D01*
X81993482Y-158204894D02*
X82088720Y-158157275D01*
X82088720Y-158157275D02*
X82326815Y-158157275D01*
X82326815Y-158157275D02*
X82422053Y-158204894D01*
X82422053Y-158204894D02*
X82469672Y-158252513D01*
X82469672Y-158252513D02*
X82517291Y-158347751D01*
X82517291Y-158347751D02*
X82517291Y-158442989D01*
X82517291Y-158442989D02*
X82469672Y-158585846D01*
X82469672Y-158585846D02*
X81898244Y-159157275D01*
X81898244Y-159157275D02*
X82517291Y-159157275D01*
X83136339Y-158157275D02*
X83231577Y-158157275D01*
X83231577Y-158157275D02*
X83326815Y-158204894D01*
X83326815Y-158204894D02*
X83374434Y-158252513D01*
X83374434Y-158252513D02*
X83422053Y-158347751D01*
X83422053Y-158347751D02*
X83469672Y-158538227D01*
X83469672Y-158538227D02*
X83469672Y-158776322D01*
X83469672Y-158776322D02*
X83422053Y-158966798D01*
X83422053Y-158966798D02*
X83374434Y-159062036D01*
X83374434Y-159062036D02*
X83326815Y-159109656D01*
X83326815Y-159109656D02*
X83231577Y-159157275D01*
X83231577Y-159157275D02*
X83136339Y-159157275D01*
X83136339Y-159157275D02*
X83041101Y-159109656D01*
X83041101Y-159109656D02*
X82993482Y-159062036D01*
X82993482Y-159062036D02*
X82945863Y-158966798D01*
X82945863Y-158966798D02*
X82898244Y-158776322D01*
X82898244Y-158776322D02*
X82898244Y-158538227D01*
X82898244Y-158538227D02*
X82945863Y-158347751D01*
X82945863Y-158347751D02*
X82993482Y-158252513D01*
X82993482Y-158252513D02*
X83041101Y-158204894D01*
X83041101Y-158204894D02*
X83136339Y-158157275D01*
X83850625Y-158252513D02*
X83898244Y-158204894D01*
X83898244Y-158204894D02*
X83993482Y-158157275D01*
X83993482Y-158157275D02*
X84231577Y-158157275D01*
X84231577Y-158157275D02*
X84326815Y-158204894D01*
X84326815Y-158204894D02*
X84374434Y-158252513D01*
X84374434Y-158252513D02*
X84422053Y-158347751D01*
X84422053Y-158347751D02*
X84422053Y-158442989D01*
X84422053Y-158442989D02*
X84374434Y-158585846D01*
X84374434Y-158585846D02*
X83803006Y-159157275D01*
X83803006Y-159157275D02*
X84422053Y-159157275D01*
X85041101Y-158157275D02*
X85136339Y-158157275D01*
X85136339Y-158157275D02*
X85231577Y-158204894D01*
X85231577Y-158204894D02*
X85279196Y-158252513D01*
X85279196Y-158252513D02*
X85326815Y-158347751D01*
X85326815Y-158347751D02*
X85374434Y-158538227D01*
X85374434Y-158538227D02*
X85374434Y-158776322D01*
X85374434Y-158776322D02*
X85326815Y-158966798D01*
X85326815Y-158966798D02*
X85279196Y-159062036D01*
X85279196Y-159062036D02*
X85231577Y-159109656D01*
X85231577Y-159109656D02*
X85136339Y-159157275D01*
X85136339Y-159157275D02*
X85041101Y-159157275D01*
X85041101Y-159157275D02*
X84945863Y-159109656D01*
X84945863Y-159109656D02*
X84898244Y-159062036D01*
X84898244Y-159062036D02*
X84850625Y-158966798D01*
X84850625Y-158966798D02*
X84803006Y-158776322D01*
X84803006Y-158776322D02*
X84803006Y-158538227D01*
X84803006Y-158538227D02*
X84850625Y-158347751D01*
X84850625Y-158347751D02*
X84898244Y-158252513D01*
X84898244Y-158252513D02*
X84945863Y-158204894D01*
X84945863Y-158204894D02*
X85041101Y-158157275D01*
X72945863Y-160767219D02*
X72469673Y-160767219D01*
X72469673Y-160767219D02*
X72469673Y-159767219D01*
X73279197Y-160243409D02*
X73612530Y-160243409D01*
X73755387Y-160767219D02*
X73279197Y-160767219D01*
X73279197Y-160767219D02*
X73279197Y-159767219D01*
X73279197Y-159767219D02*
X73755387Y-159767219D01*
X74183959Y-160767219D02*
X74183959Y-159767219D01*
X74183959Y-159767219D02*
X74755387Y-160767219D01*
X74755387Y-160767219D02*
X74755387Y-159767219D01*
X75755387Y-159814838D02*
X75660149Y-159767219D01*
X75660149Y-159767219D02*
X75517292Y-159767219D01*
X75517292Y-159767219D02*
X75374435Y-159814838D01*
X75374435Y-159814838D02*
X75279197Y-159910076D01*
X75279197Y-159910076D02*
X75231578Y-160005314D01*
X75231578Y-160005314D02*
X75183959Y-160195790D01*
X75183959Y-160195790D02*
X75183959Y-160338647D01*
X75183959Y-160338647D02*
X75231578Y-160529123D01*
X75231578Y-160529123D02*
X75279197Y-160624361D01*
X75279197Y-160624361D02*
X75374435Y-160719600D01*
X75374435Y-160719600D02*
X75517292Y-160767219D01*
X75517292Y-160767219D02*
X75612530Y-160767219D01*
X75612530Y-160767219D02*
X75755387Y-160719600D01*
X75755387Y-160719600D02*
X75803006Y-160671980D01*
X75803006Y-160671980D02*
X75803006Y-160338647D01*
X75803006Y-160338647D02*
X75612530Y-160338647D01*
X76088721Y-159767219D02*
X76660149Y-159767219D01*
X76374435Y-160767219D02*
X76374435Y-159767219D01*
X76993483Y-160767219D02*
X76993483Y-159767219D01*
X76993483Y-160243409D02*
X77564911Y-160243409D01*
X77564911Y-160767219D02*
X77564911Y-159767219D01*
X78041102Y-160671980D02*
X78088721Y-160719600D01*
X78088721Y-160719600D02*
X78041102Y-160767219D01*
X78041102Y-160767219D02*
X77993483Y-160719600D01*
X77993483Y-160719600D02*
X78041102Y-160671980D01*
X78041102Y-160671980D02*
X78041102Y-160767219D01*
X78041102Y-160148171D02*
X78088721Y-160195790D01*
X78088721Y-160195790D02*
X78041102Y-160243409D01*
X78041102Y-160243409D02*
X77993483Y-160195790D01*
X77993483Y-160195790D02*
X78041102Y-160148171D01*
X78041102Y-160148171D02*
X78041102Y-160243409D01*
X79707768Y-160100552D02*
X79707768Y-160767219D01*
X79469673Y-159719600D02*
X79231578Y-160433885D01*
X79231578Y-160433885D02*
X79850625Y-160433885D01*
X80422054Y-159767219D02*
X80517292Y-159767219D01*
X80517292Y-159767219D02*
X80612530Y-159814838D01*
X80612530Y-159814838D02*
X80660149Y-159862457D01*
X80660149Y-159862457D02*
X80707768Y-159957695D01*
X80707768Y-159957695D02*
X80755387Y-160148171D01*
X80755387Y-160148171D02*
X80755387Y-160386266D01*
X80755387Y-160386266D02*
X80707768Y-160576742D01*
X80707768Y-160576742D02*
X80660149Y-160671980D01*
X80660149Y-160671980D02*
X80612530Y-160719600D01*
X80612530Y-160719600D02*
X80517292Y-160767219D01*
X80517292Y-160767219D02*
X80422054Y-160767219D01*
X80422054Y-160767219D02*
X80326816Y-160719600D01*
X80326816Y-160719600D02*
X80279197Y-160671980D01*
X80279197Y-160671980D02*
X80231578Y-160576742D01*
X80231578Y-160576742D02*
X80183959Y-160386266D01*
X80183959Y-160386266D02*
X80183959Y-160148171D01*
X80183959Y-160148171D02*
X80231578Y-159957695D01*
X80231578Y-159957695D02*
X80279197Y-159862457D01*
X80279197Y-159862457D02*
X80326816Y-159814838D01*
X80326816Y-159814838D02*
X80422054Y-159767219D01*
X108414600Y-158277945D02*
X108462219Y-158135088D01*
X108462219Y-158135088D02*
X108462219Y-157896993D01*
X108462219Y-157896993D02*
X108414600Y-157801755D01*
X108414600Y-157801755D02*
X108366980Y-157754136D01*
X108366980Y-157754136D02*
X108271742Y-157706517D01*
X108271742Y-157706517D02*
X108176504Y-157706517D01*
X108176504Y-157706517D02*
X108081266Y-157754136D01*
X108081266Y-157754136D02*
X108033647Y-157801755D01*
X108033647Y-157801755D02*
X107986028Y-157896993D01*
X107986028Y-157896993D02*
X107938409Y-158087469D01*
X107938409Y-158087469D02*
X107890790Y-158182707D01*
X107890790Y-158182707D02*
X107843171Y-158230326D01*
X107843171Y-158230326D02*
X107747933Y-158277945D01*
X107747933Y-158277945D02*
X107652695Y-158277945D01*
X107652695Y-158277945D02*
X107557457Y-158230326D01*
X107557457Y-158230326D02*
X107509838Y-158182707D01*
X107509838Y-158182707D02*
X107462219Y-158087469D01*
X107462219Y-158087469D02*
X107462219Y-157849374D01*
X107462219Y-157849374D02*
X107509838Y-157706517D01*
X108462219Y-157277945D02*
X107462219Y-157277945D01*
X107462219Y-157277945D02*
X107462219Y-157039850D01*
X107462219Y-157039850D02*
X107509838Y-156896993D01*
X107509838Y-156896993D02*
X107605076Y-156801755D01*
X107605076Y-156801755D02*
X107700314Y-156754136D01*
X107700314Y-156754136D02*
X107890790Y-156706517D01*
X107890790Y-156706517D02*
X108033647Y-156706517D01*
X108033647Y-156706517D02*
X108224123Y-156754136D01*
X108224123Y-156754136D02*
X108319361Y-156801755D01*
X108319361Y-156801755D02*
X108414600Y-156896993D01*
X108414600Y-156896993D02*
X108462219Y-157039850D01*
X108462219Y-157039850D02*
X108462219Y-157277945D01*
X108462219Y-156277945D02*
X107462219Y-156277945D01*
X65456980Y-157658898D02*
X65504600Y-157706517D01*
X65504600Y-157706517D02*
X65552219Y-157849374D01*
X65552219Y-157849374D02*
X65552219Y-157944612D01*
X65552219Y-157944612D02*
X65504600Y-158087469D01*
X65504600Y-158087469D02*
X65409361Y-158182707D01*
X65409361Y-158182707D02*
X65314123Y-158230326D01*
X65314123Y-158230326D02*
X65123647Y-158277945D01*
X65123647Y-158277945D02*
X64980790Y-158277945D01*
X64980790Y-158277945D02*
X64790314Y-158230326D01*
X64790314Y-158230326D02*
X64695076Y-158182707D01*
X64695076Y-158182707D02*
X64599838Y-158087469D01*
X64599838Y-158087469D02*
X64552219Y-157944612D01*
X64552219Y-157944612D02*
X64552219Y-157849374D01*
X64552219Y-157849374D02*
X64599838Y-157706517D01*
X64599838Y-157706517D02*
X64647457Y-157658898D01*
X65552219Y-157230326D02*
X64552219Y-157230326D01*
X65552219Y-156658898D02*
X64980790Y-157087469D01*
X64552219Y-156658898D02*
X65123647Y-157230326D01*
X65552219Y-156230326D02*
X64552219Y-156230326D01*
X110109838Y-157806517D02*
X110062219Y-157901755D01*
X110062219Y-157901755D02*
X110062219Y-158044612D01*
X110062219Y-158044612D02*
X110109838Y-158187469D01*
X110109838Y-158187469D02*
X110205076Y-158282707D01*
X110205076Y-158282707D02*
X110300314Y-158330326D01*
X110300314Y-158330326D02*
X110490790Y-158377945D01*
X110490790Y-158377945D02*
X110633647Y-158377945D01*
X110633647Y-158377945D02*
X110824123Y-158330326D01*
X110824123Y-158330326D02*
X110919361Y-158282707D01*
X110919361Y-158282707D02*
X111014600Y-158187469D01*
X111014600Y-158187469D02*
X111062219Y-158044612D01*
X111062219Y-158044612D02*
X111062219Y-157949374D01*
X111062219Y-157949374D02*
X111014600Y-157806517D01*
X111014600Y-157806517D02*
X110966980Y-157758898D01*
X110966980Y-157758898D02*
X110633647Y-157758898D01*
X110633647Y-157758898D02*
X110633647Y-157949374D01*
X111062219Y-157330326D02*
X110062219Y-157330326D01*
X110062219Y-157330326D02*
X111062219Y-156758898D01*
X111062219Y-156758898D02*
X110062219Y-156758898D01*
X111062219Y-156282707D02*
X110062219Y-156282707D01*
X110062219Y-156282707D02*
X110062219Y-156044612D01*
X110062219Y-156044612D02*
X110109838Y-155901755D01*
X110109838Y-155901755D02*
X110205076Y-155806517D01*
X110205076Y-155806517D02*
X110300314Y-155758898D01*
X110300314Y-155758898D02*
X110490790Y-155711279D01*
X110490790Y-155711279D02*
X110633647Y-155711279D01*
X110633647Y-155711279D02*
X110824123Y-155758898D01*
X110824123Y-155758898D02*
X110919361Y-155806517D01*
X110919361Y-155806517D02*
X111014600Y-155901755D01*
X111014600Y-155901755D02*
X111062219Y-156044612D01*
X111062219Y-156044612D02*
X111062219Y-156282707D01*
X68004600Y-158277945D02*
X68052219Y-158135088D01*
X68052219Y-158135088D02*
X68052219Y-157896993D01*
X68052219Y-157896993D02*
X68004600Y-157801755D01*
X68004600Y-157801755D02*
X67956980Y-157754136D01*
X67956980Y-157754136D02*
X67861742Y-157706517D01*
X67861742Y-157706517D02*
X67766504Y-157706517D01*
X67766504Y-157706517D02*
X67671266Y-157754136D01*
X67671266Y-157754136D02*
X67623647Y-157801755D01*
X67623647Y-157801755D02*
X67576028Y-157896993D01*
X67576028Y-157896993D02*
X67528409Y-158087469D01*
X67528409Y-158087469D02*
X67480790Y-158182707D01*
X67480790Y-158182707D02*
X67433171Y-158230326D01*
X67433171Y-158230326D02*
X67337933Y-158277945D01*
X67337933Y-158277945D02*
X67242695Y-158277945D01*
X67242695Y-158277945D02*
X67147457Y-158230326D01*
X67147457Y-158230326D02*
X67099838Y-158182707D01*
X67099838Y-158182707D02*
X67052219Y-158087469D01*
X67052219Y-158087469D02*
X67052219Y-157849374D01*
X67052219Y-157849374D02*
X67099838Y-157706517D01*
X68052219Y-157277945D02*
X67052219Y-157277945D01*
X67052219Y-157277945D02*
X67052219Y-157039850D01*
X67052219Y-157039850D02*
X67099838Y-156896993D01*
X67099838Y-156896993D02*
X67195076Y-156801755D01*
X67195076Y-156801755D02*
X67290314Y-156754136D01*
X67290314Y-156754136D02*
X67480790Y-156706517D01*
X67480790Y-156706517D02*
X67623647Y-156706517D01*
X67623647Y-156706517D02*
X67814123Y-156754136D01*
X67814123Y-156754136D02*
X67909361Y-156801755D01*
X67909361Y-156801755D02*
X68004600Y-156896993D01*
X68004600Y-156896993D02*
X68052219Y-157039850D01*
X68052219Y-157039850D02*
X68052219Y-157277945D01*
X68052219Y-156277945D02*
X67052219Y-156277945D01*
X62052219Y-157754136D02*
X62052219Y-158230326D01*
X62052219Y-158230326D02*
X62528409Y-158277945D01*
X62528409Y-158277945D02*
X62480790Y-158230326D01*
X62480790Y-158230326D02*
X62433171Y-158135088D01*
X62433171Y-158135088D02*
X62433171Y-157896993D01*
X62433171Y-157896993D02*
X62480790Y-157801755D01*
X62480790Y-157801755D02*
X62528409Y-157754136D01*
X62528409Y-157754136D02*
X62623647Y-157706517D01*
X62623647Y-157706517D02*
X62861742Y-157706517D01*
X62861742Y-157706517D02*
X62956980Y-157754136D01*
X62956980Y-157754136D02*
X63004600Y-157801755D01*
X63004600Y-157801755D02*
X63052219Y-157896993D01*
X63052219Y-157896993D02*
X63052219Y-158135088D01*
X63052219Y-158135088D02*
X63004600Y-158230326D01*
X63004600Y-158230326D02*
X62956980Y-158277945D01*
X62052219Y-157420802D02*
X63052219Y-157087469D01*
X63052219Y-157087469D02*
X62052219Y-156754136D01*
X69699838Y-157806517D02*
X69652219Y-157901755D01*
X69652219Y-157901755D02*
X69652219Y-158044612D01*
X69652219Y-158044612D02*
X69699838Y-158187469D01*
X69699838Y-158187469D02*
X69795076Y-158282707D01*
X69795076Y-158282707D02*
X69890314Y-158330326D01*
X69890314Y-158330326D02*
X70080790Y-158377945D01*
X70080790Y-158377945D02*
X70223647Y-158377945D01*
X70223647Y-158377945D02*
X70414123Y-158330326D01*
X70414123Y-158330326D02*
X70509361Y-158282707D01*
X70509361Y-158282707D02*
X70604600Y-158187469D01*
X70604600Y-158187469D02*
X70652219Y-158044612D01*
X70652219Y-158044612D02*
X70652219Y-157949374D01*
X70652219Y-157949374D02*
X70604600Y-157806517D01*
X70604600Y-157806517D02*
X70556980Y-157758898D01*
X70556980Y-157758898D02*
X70223647Y-157758898D01*
X70223647Y-157758898D02*
X70223647Y-157949374D01*
X70652219Y-157330326D02*
X69652219Y-157330326D01*
X69652219Y-157330326D02*
X70652219Y-156758898D01*
X70652219Y-156758898D02*
X69652219Y-156758898D01*
X70652219Y-156282707D02*
X69652219Y-156282707D01*
X69652219Y-156282707D02*
X69652219Y-156044612D01*
X69652219Y-156044612D02*
X69699838Y-155901755D01*
X69699838Y-155901755D02*
X69795076Y-155806517D01*
X69795076Y-155806517D02*
X69890314Y-155758898D01*
X69890314Y-155758898D02*
X70080790Y-155711279D01*
X70080790Y-155711279D02*
X70223647Y-155711279D01*
X70223647Y-155711279D02*
X70414123Y-155758898D01*
X70414123Y-155758898D02*
X70509361Y-155806517D01*
X70509361Y-155806517D02*
X70604600Y-155901755D01*
X70604600Y-155901755D02*
X70652219Y-156044612D01*
X70652219Y-156044612D02*
X70652219Y-156282707D01*
X105866980Y-157658898D02*
X105914600Y-157706517D01*
X105914600Y-157706517D02*
X105962219Y-157849374D01*
X105962219Y-157849374D02*
X105962219Y-157944612D01*
X105962219Y-157944612D02*
X105914600Y-158087469D01*
X105914600Y-158087469D02*
X105819361Y-158182707D01*
X105819361Y-158182707D02*
X105724123Y-158230326D01*
X105724123Y-158230326D02*
X105533647Y-158277945D01*
X105533647Y-158277945D02*
X105390790Y-158277945D01*
X105390790Y-158277945D02*
X105200314Y-158230326D01*
X105200314Y-158230326D02*
X105105076Y-158182707D01*
X105105076Y-158182707D02*
X105009838Y-158087469D01*
X105009838Y-158087469D02*
X104962219Y-157944612D01*
X104962219Y-157944612D02*
X104962219Y-157849374D01*
X104962219Y-157849374D02*
X105009838Y-157706517D01*
X105009838Y-157706517D02*
X105057457Y-157658898D01*
X105962219Y-157230326D02*
X104962219Y-157230326D01*
X105962219Y-156658898D02*
X105390790Y-157087469D01*
X104962219Y-156658898D02*
X105533647Y-157230326D01*
X105962219Y-156230326D02*
X104962219Y-156230326D01*
X102462219Y-157754136D02*
X102462219Y-158230326D01*
X102462219Y-158230326D02*
X102938409Y-158277945D01*
X102938409Y-158277945D02*
X102890790Y-158230326D01*
X102890790Y-158230326D02*
X102843171Y-158135088D01*
X102843171Y-158135088D02*
X102843171Y-157896993D01*
X102843171Y-157896993D02*
X102890790Y-157801755D01*
X102890790Y-157801755D02*
X102938409Y-157754136D01*
X102938409Y-157754136D02*
X103033647Y-157706517D01*
X103033647Y-157706517D02*
X103271742Y-157706517D01*
X103271742Y-157706517D02*
X103366980Y-157754136D01*
X103366980Y-157754136D02*
X103414600Y-157801755D01*
X103414600Y-157801755D02*
X103462219Y-157896993D01*
X103462219Y-157896993D02*
X103462219Y-158135088D01*
X103462219Y-158135088D02*
X103414600Y-158230326D01*
X103414600Y-158230326D02*
X103366980Y-158277945D01*
X102462219Y-157420802D02*
X103462219Y-157087469D01*
X103462219Y-157087469D02*
X102462219Y-156754136D01*
D12*
X116921428Y-28622371D02*
X116578571Y-28622371D01*
X116750000Y-28622371D02*
X116750000Y-28022371D01*
X116750000Y-28022371D02*
X116692857Y-28108085D01*
X116692857Y-28108085D02*
X116635714Y-28165228D01*
X116635714Y-28165228D02*
X116578571Y-28193800D01*
X122321428Y-28622371D02*
X121978571Y-28622371D01*
X122150000Y-28622371D02*
X122150000Y-28022371D01*
X122150000Y-28022371D02*
X122092857Y-28108085D01*
X122092857Y-28108085D02*
X122035714Y-28165228D01*
X122035714Y-28165228D02*
X121978571Y-28193800D01*
X106121428Y-28622371D02*
X105778571Y-28622371D01*
X105950000Y-28622371D02*
X105950000Y-28022371D01*
X105950000Y-28022371D02*
X105892857Y-28108085D01*
X105892857Y-28108085D02*
X105835714Y-28165228D01*
X105835714Y-28165228D02*
X105778571Y-28193800D01*
X111521428Y-28622371D02*
X111178571Y-28622371D01*
X111350000Y-28622371D02*
X111350000Y-28022371D01*
X111350000Y-28022371D02*
X111292857Y-28108085D01*
X111292857Y-28108085D02*
X111235714Y-28165228D01*
X111235714Y-28165228D02*
X111178571Y-28193800D01*
X100721428Y-28622371D02*
X100378571Y-28622371D01*
X100550000Y-28622371D02*
X100550000Y-28022371D01*
X100550000Y-28022371D02*
X100492857Y-28108085D01*
X100492857Y-28108085D02*
X100435714Y-28165228D01*
X100435714Y-28165228D02*
X100378571Y-28193800D01*
X95321428Y-28622371D02*
X94978571Y-28622371D01*
X95150000Y-28622371D02*
X95150000Y-28022371D01*
X95150000Y-28022371D02*
X95092857Y-28108085D01*
X95092857Y-28108085D02*
X95035714Y-28165228D01*
X95035714Y-28165228D02*
X94978571Y-28193800D01*
X84521428Y-28622371D02*
X84178571Y-28622371D01*
X84350000Y-28622371D02*
X84350000Y-28022371D01*
X84350000Y-28022371D02*
X84292857Y-28108085D01*
X84292857Y-28108085D02*
X84235714Y-28165228D01*
X84235714Y-28165228D02*
X84178571Y-28193800D01*
X89921428Y-28622371D02*
X89578571Y-28622371D01*
X89750000Y-28622371D02*
X89750000Y-28022371D01*
X89750000Y-28022371D02*
X89692857Y-28108085D01*
X89692857Y-28108085D02*
X89635714Y-28165228D01*
X89635714Y-28165228D02*
X89578571Y-28193800D01*
X79121428Y-28622371D02*
X78778571Y-28622371D01*
X78950000Y-28622371D02*
X78950000Y-28022371D01*
X78950000Y-28022371D02*
X78892857Y-28108085D01*
X78892857Y-28108085D02*
X78835714Y-28165228D01*
X78835714Y-28165228D02*
X78778571Y-28193800D01*
X73721428Y-28622371D02*
X73378571Y-28622371D01*
X73550000Y-28622371D02*
X73550000Y-28022371D01*
X73550000Y-28022371D02*
X73492857Y-28108085D01*
X73492857Y-28108085D02*
X73435714Y-28165228D01*
X73435714Y-28165228D02*
X73378571Y-28193800D01*
X62921428Y-28622371D02*
X62578571Y-28622371D01*
X62750000Y-28622371D02*
X62750000Y-28022371D01*
X62750000Y-28022371D02*
X62692857Y-28108085D01*
X62692857Y-28108085D02*
X62635714Y-28165228D01*
X62635714Y-28165228D02*
X62578571Y-28193800D01*
X68321428Y-28622371D02*
X67978571Y-28622371D01*
X68150000Y-28622371D02*
X68150000Y-28022371D01*
X68150000Y-28022371D02*
X68092857Y-28108085D01*
X68092857Y-28108085D02*
X68035714Y-28165228D01*
X68035714Y-28165228D02*
X67978571Y-28193800D01*
X52121428Y-28622371D02*
X51778571Y-28622371D01*
X51950000Y-28622371D02*
X51950000Y-28022371D01*
X51950000Y-28022371D02*
X51892857Y-28108085D01*
X51892857Y-28108085D02*
X51835714Y-28165228D01*
X51835714Y-28165228D02*
X51778571Y-28193800D01*
X57521428Y-28622371D02*
X57178571Y-28622371D01*
X57350000Y-28622371D02*
X57350000Y-28022371D01*
X57350000Y-28022371D02*
X57292857Y-28108085D01*
X57292857Y-28108085D02*
X57235714Y-28165228D01*
X57235714Y-28165228D02*
X57178571Y-28193800D01*
X133121428Y-28622371D02*
X132778571Y-28622371D01*
X132950000Y-28622371D02*
X132950000Y-28022371D01*
X132950000Y-28022371D02*
X132892857Y-28108085D01*
X132892857Y-28108085D02*
X132835714Y-28165228D01*
X132835714Y-28165228D02*
X132778571Y-28193800D01*
X127721428Y-28622371D02*
X127378571Y-28622371D01*
X127550000Y-28622371D02*
X127550000Y-28022371D01*
X127550000Y-28022371D02*
X127492857Y-28108085D01*
X127492857Y-28108085D02*
X127435714Y-28165228D01*
X127435714Y-28165228D02*
X127378571Y-28193800D01*
D13*
%TO.C,D35*%
X116300000Y-47000000D02*
X117000000Y-47000000D01*
%TO.C,D57*%
X121700000Y-102800000D02*
X122400000Y-102800000D01*
%TO.C,D17*%
X116300000Y-102800000D02*
X117000000Y-102800000D01*
%TO.C,D75*%
X121700000Y-47000000D02*
X122400000Y-47000000D01*
%TO.C,D76*%
X121700000Y-43900000D02*
X122400000Y-43900000D01*
%TO.C,D47*%
X121700000Y-133800000D02*
X122400000Y-133800000D01*
%TO.C,D68*%
X121700000Y-68700000D02*
X122400000Y-68700000D01*
%TO.C,D34*%
X116300000Y-50100000D02*
X117000000Y-50100000D01*
%TO.C,D4*%
X116300000Y-143100000D02*
X117000000Y-143100000D01*
%TO.C,D79*%
X121700000Y-34600000D02*
X122400000Y-34600000D01*
%TO.C,D7*%
X116300000Y-133800000D02*
X117000000Y-133800000D01*
%TO.C,D54*%
X121700000Y-112100000D02*
X122400000Y-112100000D01*
%TO.C,D63*%
X121700000Y-84200000D02*
X122400000Y-84200000D01*
%TO.C,D24*%
X116300000Y-81100000D02*
X117000000Y-81100000D01*
%TO.C,D78*%
X121700000Y-37700000D02*
X122400000Y-37700000D01*
%TO.C,D55*%
X121700000Y-109000000D02*
X122400000Y-109000000D01*
%TO.C,D50*%
X121700000Y-124500000D02*
X122400000Y-124500000D01*
%TO.C,D15*%
X116300000Y-109000000D02*
X117000000Y-109000000D01*
%TO.C,D43*%
X121700000Y-146200000D02*
X122400000Y-146200000D01*
%TO.C,D67*%
X121700000Y-71800000D02*
X122400000Y-71800000D01*
%TO.C,D48*%
X121700000Y-130700000D02*
X122400000Y-130700000D01*
%TO.C,D11*%
X116300000Y-121400000D02*
X117000000Y-121400000D01*
%TO.C,D58*%
X121700000Y-99700000D02*
X122400000Y-99700000D01*
%TO.C,D41*%
X121700000Y-152400000D02*
X122400000Y-152400000D01*
%TO.C,D25*%
X116300000Y-78000000D02*
X117000000Y-78000000D01*
%TO.C,D46*%
X121700000Y-136900000D02*
X122400000Y-136900000D01*
%TO.C,D28*%
X116300000Y-68700000D02*
X117000000Y-68700000D01*
%TO.C,D31*%
X116300000Y-59400000D02*
X117000000Y-59400000D01*
%TO.C,D29*%
X116300000Y-65600000D02*
X117000000Y-65600000D01*
%TO.C,D27*%
X116300000Y-71800000D02*
X117000000Y-71800000D01*
%TO.C,D40*%
X116300000Y-31500000D02*
X117000000Y-31500000D01*
%TO.C,D38*%
X116300000Y-37700000D02*
X117000000Y-37700000D01*
%TO.C,D33*%
X116300000Y-53200000D02*
X117000000Y-53200000D01*
%TO.C,D80*%
X121700000Y-31500000D02*
X122400000Y-31500000D01*
%TO.C,D39*%
X116300000Y-34600000D02*
X117000000Y-34600000D01*
%TO.C,D62*%
X121700000Y-87300000D02*
X122400000Y-87300000D01*
%TO.C,D64*%
X121700000Y-81100000D02*
X122400000Y-81100000D01*
%TO.C,D30*%
X116300000Y-62500000D02*
X117000000Y-62500000D01*
%TO.C,D13*%
X116300000Y-115200000D02*
X117000000Y-115200000D01*
%TO.C,D16*%
X116300000Y-105900000D02*
X117000000Y-105900000D01*
%TO.C,D21*%
X116300000Y-90400000D02*
X117000000Y-90400000D01*
%TO.C,D66*%
X121700000Y-74900000D02*
X122400000Y-74900000D01*
%TO.C,D61*%
X121700000Y-90400000D02*
X122400000Y-90400000D01*
%TO.C,D12*%
X116300000Y-118300000D02*
X117000000Y-118300000D01*
%TO.C,D10*%
X116300000Y-124500000D02*
X117000000Y-124500000D01*
%TO.C,D56*%
X121700000Y-105900000D02*
X122400000Y-105900000D01*
%TO.C,D32*%
X116300000Y-56300000D02*
X117000000Y-56300000D01*
%TO.C,D18*%
X116300000Y-99700000D02*
X117000000Y-99700000D01*
%TO.C,D51*%
X121700000Y-121400000D02*
X122400000Y-121400000D01*
%TO.C,D72*%
X121700000Y-56300000D02*
X122400000Y-56300000D01*
%TO.C,D14*%
X116300000Y-112100000D02*
X117000000Y-112100000D01*
%TO.C,D6*%
X116300000Y-136900000D02*
X117000000Y-136900000D01*
%TO.C,D3*%
X116300000Y-146200000D02*
X117000000Y-146200000D01*
%TO.C,D69*%
X121700000Y-65600000D02*
X122400000Y-65600000D01*
%TO.C,D45*%
X121700000Y-140000000D02*
X122400000Y-140000000D01*
%TO.C,D49*%
X121700000Y-127600000D02*
X122400000Y-127600000D01*
%TO.C,D36*%
X116300000Y-43900000D02*
X117000000Y-43900000D01*
%TO.C,D37*%
X116300000Y-40800000D02*
X117000000Y-40800000D01*
%TO.C,D53*%
X121700000Y-115200000D02*
X122400000Y-115200000D01*
%TO.C,D70*%
X121700000Y-62500000D02*
X122400000Y-62500000D01*
%TO.C,D71*%
X121700000Y-59400000D02*
X122400000Y-59400000D01*
%TO.C,D19*%
X116300000Y-96600000D02*
X117000000Y-96600000D01*
%TO.C,D42*%
X121700000Y-149300000D02*
X122400000Y-149300000D01*
%TO.C,D9*%
X116300000Y-127600000D02*
X117000000Y-127600000D01*
%TO.C,D59*%
X121700000Y-96600000D02*
X122400000Y-96600000D01*
%TO.C,D52*%
X121700000Y-118300000D02*
X122400000Y-118300000D01*
%TO.C,D22*%
X116300000Y-87300000D02*
X117000000Y-87300000D01*
%TO.C,D8*%
X116300000Y-130700000D02*
X117000000Y-130700000D01*
%TO.C,D73*%
X121700000Y-53200000D02*
X122400000Y-53200000D01*
%TO.C,D74*%
X121700000Y-50100000D02*
X122400000Y-50100000D01*
%TO.C,D60*%
X121700000Y-93500000D02*
X122400000Y-93500000D01*
%TO.C,D23*%
X116300000Y-84200000D02*
X117000000Y-84200000D01*
%TO.C,D26*%
X116300000Y-74900000D02*
X117000000Y-74900000D01*
%TO.C,D65*%
X121700000Y-78000000D02*
X122400000Y-78000000D01*
%TO.C,D44*%
X121700000Y-143100000D02*
X122400000Y-143100000D01*
%TO.C,D2*%
X116300000Y-149300000D02*
X117000000Y-149300000D01*
%TO.C,D77*%
X121700000Y-40800000D02*
X122400000Y-40800000D01*
%TO.C,D5*%
X116300000Y-140000000D02*
X117000000Y-140000000D01*
%TO.C,D20*%
X116300000Y-93500000D02*
X117000000Y-93500000D01*
%TO.C,D1*%
X116300000Y-152400000D02*
X117000000Y-152400000D01*
%TO.C,D35*%
X105500000Y-47000000D02*
X106200000Y-47000000D01*
%TO.C,D17*%
X105500000Y-102800000D02*
X106200000Y-102800000D01*
%TO.C,D76*%
X110900000Y-43900000D02*
X111600000Y-43900000D01*
%TO.C,D68*%
X110900000Y-68700000D02*
X111600000Y-68700000D01*
%TO.C,D34*%
X105500000Y-50100000D02*
X106200000Y-50100000D01*
%TO.C,D4*%
X105500000Y-143100000D02*
X106200000Y-143100000D01*
%TO.C,D79*%
X110900000Y-34600000D02*
X111600000Y-34600000D01*
%TO.C,D75*%
X110900000Y-47000000D02*
X111600000Y-47000000D01*
%TO.C,D63*%
X110900000Y-84200000D02*
X111600000Y-84200000D01*
%TO.C,D39*%
X105500000Y-34600000D02*
X106200000Y-34600000D01*
%TO.C,D46*%
X110900000Y-136900000D02*
X111600000Y-136900000D01*
%TO.C,D78*%
X110900000Y-37700000D02*
X111600000Y-37700000D01*
%TO.C,D11*%
X105500000Y-121400000D02*
X106200000Y-121400000D01*
%TO.C,D55*%
X110900000Y-109000000D02*
X111600000Y-109000000D01*
%TO.C,D7*%
X105500000Y-133800000D02*
X106200000Y-133800000D01*
%TO.C,D50*%
X110900000Y-124500000D02*
X111600000Y-124500000D01*
%TO.C,D21*%
X105500000Y-90400000D02*
X106200000Y-90400000D01*
%TO.C,D73*%
X110900000Y-53200000D02*
X111600000Y-53200000D01*
%TO.C,D24*%
X105500000Y-81100000D02*
X106200000Y-81100000D01*
%TO.C,D67*%
X110900000Y-71800000D02*
X111600000Y-71800000D01*
%TO.C,D48*%
X110900000Y-130700000D02*
X111600000Y-130700000D01*
%TO.C,D58*%
X110900000Y-99700000D02*
X111600000Y-99700000D01*
%TO.C,D59*%
X110900000Y-96600000D02*
X111600000Y-96600000D01*
%TO.C,D41*%
X110900000Y-152400000D02*
X111600000Y-152400000D01*
%TO.C,D43*%
X110900000Y-146200000D02*
X111600000Y-146200000D01*
%TO.C,D69*%
X110900000Y-65600000D02*
X111600000Y-65600000D01*
%TO.C,D25*%
X105500000Y-78000000D02*
X106200000Y-78000000D01*
%TO.C,D31*%
X105500000Y-59400000D02*
X106200000Y-59400000D01*
%TO.C,D26*%
X105500000Y-74900000D02*
X106200000Y-74900000D01*
%TO.C,D53*%
X110900000Y-115200000D02*
X111600000Y-115200000D01*
%TO.C,D57*%
X110900000Y-102800000D02*
X111600000Y-102800000D01*
%TO.C,D29*%
X105500000Y-65600000D02*
X106200000Y-65600000D01*
%TO.C,D23*%
X105500000Y-84200000D02*
X106200000Y-84200000D01*
%TO.C,D54*%
X110900000Y-112100000D02*
X111600000Y-112100000D01*
%TO.C,D27*%
X105500000Y-71800000D02*
X106200000Y-71800000D01*
%TO.C,D40*%
X105500000Y-31500000D02*
X106200000Y-31500000D01*
%TO.C,D38*%
X105500000Y-37700000D02*
X106200000Y-37700000D01*
%TO.C,D72*%
X110900000Y-56300000D02*
X111600000Y-56300000D01*
%TO.C,D9*%
X105500000Y-127600000D02*
X106200000Y-127600000D01*
%TO.C,D33*%
X105500000Y-53200000D02*
X106200000Y-53200000D01*
%TO.C,D30*%
X105500000Y-62500000D02*
X106200000Y-62500000D01*
%TO.C,D64*%
X110900000Y-81100000D02*
X111600000Y-81100000D01*
%TO.C,D13*%
X105500000Y-115200000D02*
X106200000Y-115200000D01*
%TO.C,D80*%
X110900000Y-31500000D02*
X111600000Y-31500000D01*
%TO.C,D49*%
X110900000Y-127600000D02*
X111600000Y-127600000D01*
%TO.C,D10*%
X105500000Y-124500000D02*
X106200000Y-124500000D01*
%TO.C,D56*%
X110900000Y-105900000D02*
X111600000Y-105900000D01*
%TO.C,D32*%
X105500000Y-56300000D02*
X106200000Y-56300000D01*
%TO.C,D47*%
X110900000Y-133800000D02*
X111600000Y-133800000D01*
%TO.C,D18*%
X105500000Y-99700000D02*
X106200000Y-99700000D01*
%TO.C,D62*%
X110900000Y-87300000D02*
X111600000Y-87300000D01*
%TO.C,D51*%
X110900000Y-121400000D02*
X111600000Y-121400000D01*
%TO.C,D14*%
X105500000Y-112100000D02*
X106200000Y-112100000D01*
%TO.C,D16*%
X105500000Y-105900000D02*
X106200000Y-105900000D01*
%TO.C,D65*%
X110900000Y-78000000D02*
X111600000Y-78000000D01*
%TO.C,D6*%
X105500000Y-136900000D02*
X106200000Y-136900000D01*
%TO.C,D45*%
X110900000Y-140000000D02*
X111600000Y-140000000D01*
%TO.C,D66*%
X110900000Y-74900000D02*
X111600000Y-74900000D01*
%TO.C,D15*%
X105500000Y-109000000D02*
X106200000Y-109000000D01*
%TO.C,D36*%
X105500000Y-43900000D02*
X106200000Y-43900000D01*
%TO.C,D37*%
X105500000Y-40800000D02*
X106200000Y-40800000D01*
%TO.C,D71*%
X110900000Y-59400000D02*
X111600000Y-59400000D01*
%TO.C,D12*%
X105500000Y-118300000D02*
X106200000Y-118300000D01*
%TO.C,D19*%
X105500000Y-96600000D02*
X106200000Y-96600000D01*
%TO.C,D3*%
X105500000Y-146200000D02*
X106200000Y-146200000D01*
%TO.C,D28*%
X105500000Y-68700000D02*
X106200000Y-68700000D01*
%TO.C,D42*%
X110900000Y-149300000D02*
X111600000Y-149300000D01*
%TO.C,D52*%
X110900000Y-118300000D02*
X111600000Y-118300000D01*
%TO.C,D70*%
X110900000Y-62500000D02*
X111600000Y-62500000D01*
%TO.C,D60*%
X110900000Y-93500000D02*
X111600000Y-93500000D01*
%TO.C,D74*%
X110900000Y-50100000D02*
X111600000Y-50100000D01*
%TO.C,D44*%
X110900000Y-143100000D02*
X111600000Y-143100000D01*
%TO.C,D2*%
X105500000Y-149300000D02*
X106200000Y-149300000D01*
%TO.C,D61*%
X110900000Y-90400000D02*
X111600000Y-90400000D01*
%TO.C,D77*%
X110900000Y-40800000D02*
X111600000Y-40800000D01*
%TO.C,D5*%
X105500000Y-140000000D02*
X106200000Y-140000000D01*
%TO.C,D20*%
X105500000Y-93500000D02*
X106200000Y-93500000D01*
%TO.C,D22*%
X105500000Y-87300000D02*
X106200000Y-87300000D01*
%TO.C,D8*%
X105500000Y-130700000D02*
X106200000Y-130700000D01*
%TO.C,D1*%
X105500000Y-152400000D02*
X106200000Y-152400000D01*
%TO.C,D43*%
X100100000Y-146200000D02*
X100800000Y-146200000D01*
%TO.C,D35*%
X94700000Y-47000000D02*
X95400000Y-47000000D01*
%TO.C,D68*%
X100100000Y-68700000D02*
X100800000Y-68700000D01*
%TO.C,D45*%
X100100000Y-140000000D02*
X100800000Y-140000000D01*
%TO.C,D17*%
X94700000Y-102800000D02*
X95400000Y-102800000D01*
%TO.C,D1*%
X94700000Y-152400000D02*
X95400000Y-152400000D01*
%TO.C,D76*%
X100100000Y-43900000D02*
X100800000Y-43900000D01*
%TO.C,D73*%
X100100000Y-53200000D02*
X100800000Y-53200000D01*
%TO.C,D34*%
X94700000Y-50100000D02*
X95400000Y-50100000D01*
%TO.C,D59*%
X100100000Y-96600000D02*
X100800000Y-96600000D01*
%TO.C,D4*%
X94700000Y-143100000D02*
X95400000Y-143100000D01*
%TO.C,D79*%
X100100000Y-34600000D02*
X100800000Y-34600000D01*
%TO.C,D75*%
X100100000Y-47000000D02*
X100800000Y-47000000D01*
%TO.C,D63*%
X100100000Y-84200000D02*
X100800000Y-84200000D01*
%TO.C,D9*%
X94700000Y-127600000D02*
X95400000Y-127600000D01*
%TO.C,D78*%
X100100000Y-37700000D02*
X100800000Y-37700000D01*
%TO.C,D21*%
X94700000Y-90400000D02*
X95400000Y-90400000D01*
%TO.C,D19*%
X94700000Y-96600000D02*
X95400000Y-96600000D01*
%TO.C,D55*%
X100100000Y-109000000D02*
X100800000Y-109000000D01*
%TO.C,D7*%
X94700000Y-133800000D02*
X95400000Y-133800000D01*
%TO.C,D71*%
X100100000Y-59400000D02*
X100800000Y-59400000D01*
%TO.C,D50*%
X100100000Y-124500000D02*
X100800000Y-124500000D01*
%TO.C,D25*%
X94700000Y-78000000D02*
X95400000Y-78000000D01*
%TO.C,D24*%
X94700000Y-81100000D02*
X95400000Y-81100000D01*
%TO.C,D44*%
X100100000Y-143100000D02*
X100800000Y-143100000D01*
%TO.C,D67*%
X100100000Y-71800000D02*
X100800000Y-71800000D01*
%TO.C,D48*%
X100100000Y-130700000D02*
X100800000Y-130700000D01*
%TO.C,D11*%
X94700000Y-121400000D02*
X95400000Y-121400000D01*
%TO.C,D58*%
X100100000Y-99700000D02*
X100800000Y-99700000D01*
%TO.C,D41*%
X100100000Y-152400000D02*
X100800000Y-152400000D01*
%TO.C,D31*%
X94700000Y-59400000D02*
X95400000Y-59400000D01*
%TO.C,D29*%
X94700000Y-65600000D02*
X95400000Y-65600000D01*
%TO.C,D80*%
X100100000Y-31500000D02*
X100800000Y-31500000D01*
%TO.C,D27*%
X94700000Y-71800000D02*
X95400000Y-71800000D01*
%TO.C,D40*%
X94700000Y-31500000D02*
X95400000Y-31500000D01*
%TO.C,D38*%
X94700000Y-37700000D02*
X95400000Y-37700000D01*
%TO.C,D33*%
X94700000Y-53200000D02*
X95400000Y-53200000D01*
%TO.C,D64*%
X100100000Y-81100000D02*
X100800000Y-81100000D01*
%TO.C,D3*%
X94700000Y-146200000D02*
X95400000Y-146200000D01*
%TO.C,D13*%
X94700000Y-115200000D02*
X95400000Y-115200000D01*
%TO.C,D12*%
X94700000Y-118300000D02*
X95400000Y-118300000D01*
%TO.C,D26*%
X94700000Y-74900000D02*
X95400000Y-74900000D01*
%TO.C,D60*%
X100100000Y-93500000D02*
X100800000Y-93500000D01*
%TO.C,D10*%
X94700000Y-124500000D02*
X95400000Y-124500000D01*
%TO.C,D28*%
X94700000Y-68700000D02*
X95400000Y-68700000D01*
%TO.C,D56*%
X100100000Y-105900000D02*
X100800000Y-105900000D01*
%TO.C,D32*%
X94700000Y-56300000D02*
X95400000Y-56300000D01*
%TO.C,D47*%
X100100000Y-133800000D02*
X100800000Y-133800000D01*
%TO.C,D18*%
X94700000Y-99700000D02*
X95400000Y-99700000D01*
%TO.C,D62*%
X100100000Y-87300000D02*
X100800000Y-87300000D01*
%TO.C,D51*%
X100100000Y-121400000D02*
X100800000Y-121400000D01*
%TO.C,D72*%
X100100000Y-56300000D02*
X100800000Y-56300000D01*
%TO.C,D14*%
X94700000Y-112100000D02*
X95400000Y-112100000D01*
%TO.C,D6*%
X94700000Y-136900000D02*
X95400000Y-136900000D01*
%TO.C,D69*%
X100100000Y-65600000D02*
X100800000Y-65600000D01*
%TO.C,D39*%
X94700000Y-34600000D02*
X95400000Y-34600000D01*
%TO.C,D49*%
X100100000Y-127600000D02*
X100800000Y-127600000D01*
%TO.C,D66*%
X100100000Y-74900000D02*
X100800000Y-74900000D01*
%TO.C,D70*%
X100100000Y-62500000D02*
X100800000Y-62500000D01*
%TO.C,D15*%
X94700000Y-109000000D02*
X95400000Y-109000000D01*
%TO.C,D36*%
X94700000Y-43900000D02*
X95400000Y-43900000D01*
%TO.C,D37*%
X94700000Y-40800000D02*
X95400000Y-40800000D01*
%TO.C,D53*%
X100100000Y-115200000D02*
X100800000Y-115200000D01*
%TO.C,D57*%
X100100000Y-102800000D02*
X100800000Y-102800000D01*
%TO.C,D16*%
X94700000Y-105900000D02*
X95400000Y-105900000D01*
%TO.C,D42*%
X100100000Y-149300000D02*
X100800000Y-149300000D01*
%TO.C,D30*%
X94700000Y-62500000D02*
X95400000Y-62500000D01*
%TO.C,D52*%
X100100000Y-118300000D02*
X100800000Y-118300000D01*
%TO.C,D74*%
X100100000Y-50100000D02*
X100800000Y-50100000D01*
%TO.C,D65*%
X100100000Y-78000000D02*
X100800000Y-78000000D01*
%TO.C,D54*%
X100100000Y-112100000D02*
X100800000Y-112100000D01*
%TO.C,D2*%
X94700000Y-149300000D02*
X95400000Y-149300000D01*
%TO.C,D20*%
X94700000Y-93500000D02*
X95400000Y-93500000D01*
%TO.C,D61*%
X100100000Y-90400000D02*
X100800000Y-90400000D01*
%TO.C,D77*%
X100100000Y-40800000D02*
X100800000Y-40800000D01*
%TO.C,D5*%
X94700000Y-140000000D02*
X95400000Y-140000000D01*
%TO.C,D23*%
X94700000Y-84200000D02*
X95400000Y-84200000D01*
%TO.C,D22*%
X94700000Y-87300000D02*
X95400000Y-87300000D01*
%TO.C,D8*%
X94700000Y-130700000D02*
X95400000Y-130700000D01*
%TO.C,D46*%
X100100000Y-136900000D02*
X100800000Y-136900000D01*
%TO.C,D35*%
X83900000Y-47000000D02*
X84600000Y-47000000D01*
%TO.C,D17*%
X83900000Y-102800000D02*
X84600000Y-102800000D01*
%TO.C,D60*%
X89300000Y-93500000D02*
X90000000Y-93500000D01*
%TO.C,D76*%
X89300000Y-43900000D02*
X90000000Y-43900000D01*
%TO.C,D68*%
X89300000Y-68700000D02*
X90000000Y-68700000D01*
%TO.C,D34*%
X83900000Y-50100000D02*
X84600000Y-50100000D01*
%TO.C,D4*%
X83900000Y-143100000D02*
X84600000Y-143100000D01*
%TO.C,D79*%
X89300000Y-34600000D02*
X90000000Y-34600000D01*
%TO.C,D31*%
X83900000Y-59400000D02*
X84600000Y-59400000D01*
%TO.C,D75*%
X89300000Y-47000000D02*
X90000000Y-47000000D01*
%TO.C,D63*%
X89300000Y-84200000D02*
X90000000Y-84200000D01*
%TO.C,D78*%
X89300000Y-37700000D02*
X90000000Y-37700000D01*
%TO.C,D55*%
X89300000Y-109000000D02*
X90000000Y-109000000D01*
%TO.C,D7*%
X83900000Y-133800000D02*
X84600000Y-133800000D01*
%TO.C,D77*%
X89300000Y-40800000D02*
X90000000Y-40800000D01*
%TO.C,D41*%
X89300000Y-152400000D02*
X90000000Y-152400000D01*
%TO.C,D21*%
X83900000Y-90400000D02*
X84600000Y-90400000D01*
%TO.C,D50*%
X89300000Y-124500000D02*
X90000000Y-124500000D01*
%TO.C,D24*%
X83900000Y-81100000D02*
X84600000Y-81100000D01*
%TO.C,D67*%
X89300000Y-71800000D02*
X90000000Y-71800000D01*
%TO.C,D48*%
X89300000Y-130700000D02*
X90000000Y-130700000D01*
%TO.C,D11*%
X83900000Y-121400000D02*
X84600000Y-121400000D01*
%TO.C,D58*%
X89300000Y-99700000D02*
X90000000Y-99700000D01*
%TO.C,D43*%
X89300000Y-146200000D02*
X90000000Y-146200000D01*
%TO.C,D25*%
X83900000Y-78000000D02*
X84600000Y-78000000D01*
%TO.C,D69*%
X89300000Y-65600000D02*
X90000000Y-65600000D01*
%TO.C,D29*%
X83900000Y-65600000D02*
X84600000Y-65600000D01*
%TO.C,D47*%
X89300000Y-133800000D02*
X90000000Y-133800000D01*
%TO.C,D52*%
X89300000Y-118300000D02*
X90000000Y-118300000D01*
%TO.C,D27*%
X83900000Y-71800000D02*
X84600000Y-71800000D01*
%TO.C,D40*%
X83900000Y-31500000D02*
X84600000Y-31500000D01*
%TO.C,D38*%
X83900000Y-37700000D02*
X84600000Y-37700000D01*
%TO.C,D33*%
X83900000Y-53200000D02*
X84600000Y-53200000D01*
%TO.C,D73*%
X89300000Y-53200000D02*
X90000000Y-53200000D01*
%TO.C,D8*%
X83900000Y-130700000D02*
X84600000Y-130700000D01*
%TO.C,D64*%
X89300000Y-81100000D02*
X90000000Y-81100000D01*
%TO.C,D13*%
X83900000Y-115200000D02*
X84600000Y-115200000D01*
%TO.C,D80*%
X89300000Y-31500000D02*
X90000000Y-31500000D01*
%TO.C,D22*%
X83900000Y-87300000D02*
X84600000Y-87300000D01*
%TO.C,D10*%
X83900000Y-124500000D02*
X84600000Y-124500000D01*
%TO.C,D56*%
X89300000Y-105900000D02*
X90000000Y-105900000D01*
%TO.C,D32*%
X83900000Y-56300000D02*
X84600000Y-56300000D01*
%TO.C,D18*%
X83900000Y-99700000D02*
X84600000Y-99700000D01*
%TO.C,D62*%
X89300000Y-87300000D02*
X90000000Y-87300000D01*
%TO.C,D51*%
X89300000Y-121400000D02*
X90000000Y-121400000D01*
%TO.C,D72*%
X89300000Y-56300000D02*
X90000000Y-56300000D01*
%TO.C,D14*%
X83900000Y-112100000D02*
X84600000Y-112100000D01*
%TO.C,D6*%
X83900000Y-136900000D02*
X84600000Y-136900000D01*
%TO.C,D39*%
X83900000Y-34600000D02*
X84600000Y-34600000D01*
%TO.C,D45*%
X89300000Y-140000000D02*
X90000000Y-140000000D01*
%TO.C,D74*%
X89300000Y-50100000D02*
X90000000Y-50100000D01*
%TO.C,D49*%
X89300000Y-127600000D02*
X90000000Y-127600000D01*
%TO.C,D66*%
X89300000Y-74900000D02*
X90000000Y-74900000D01*
%TO.C,D15*%
X83900000Y-109000000D02*
X84600000Y-109000000D01*
%TO.C,D36*%
X83900000Y-43900000D02*
X84600000Y-43900000D01*
%TO.C,D37*%
X83900000Y-40800000D02*
X84600000Y-40800000D01*
%TO.C,D53*%
X89300000Y-115200000D02*
X90000000Y-115200000D01*
%TO.C,D65*%
X89300000Y-78000000D02*
X90000000Y-78000000D01*
%TO.C,D71*%
X89300000Y-59400000D02*
X90000000Y-59400000D01*
%TO.C,D12*%
X83900000Y-118300000D02*
X84600000Y-118300000D01*
%TO.C,D57*%
X89300000Y-102800000D02*
X90000000Y-102800000D01*
%TO.C,D26*%
X83900000Y-74900000D02*
X84600000Y-74900000D01*
%TO.C,D19*%
X83900000Y-96600000D02*
X84600000Y-96600000D01*
%TO.C,D3*%
X83900000Y-146200000D02*
X84600000Y-146200000D01*
%TO.C,D28*%
X83900000Y-68700000D02*
X84600000Y-68700000D01*
%TO.C,D42*%
X89300000Y-149300000D02*
X90000000Y-149300000D01*
%TO.C,D9*%
X83900000Y-127600000D02*
X84600000Y-127600000D01*
%TO.C,D30*%
X83900000Y-62500000D02*
X84600000Y-62500000D01*
%TO.C,D59*%
X89300000Y-96600000D02*
X90000000Y-96600000D01*
%TO.C,D20*%
X83900000Y-93500000D02*
X84600000Y-93500000D01*
%TO.C,D70*%
X89300000Y-62500000D02*
X90000000Y-62500000D01*
%TO.C,D44*%
X89300000Y-143100000D02*
X90000000Y-143100000D01*
%TO.C,D5*%
X83900000Y-140000000D02*
X84600000Y-140000000D01*
%TO.C,D54*%
X89300000Y-112100000D02*
X90000000Y-112100000D01*
%TO.C,D2*%
X83900000Y-149300000D02*
X84600000Y-149300000D01*
%TO.C,D61*%
X89300000Y-90400000D02*
X90000000Y-90400000D01*
%TO.C,D23*%
X83900000Y-84200000D02*
X84600000Y-84200000D01*
%TO.C,D46*%
X89300000Y-136900000D02*
X90000000Y-136900000D01*
%TO.C,D1*%
X83900000Y-152400000D02*
X84600000Y-152400000D01*
%TO.C,D16*%
X83900000Y-105900000D02*
X84600000Y-105900000D01*
%TO.C,D35*%
X73100000Y-47000000D02*
X73800000Y-47000000D01*
%TO.C,D54*%
X78500000Y-112100000D02*
X79200000Y-112100000D01*
%TO.C,D17*%
X73100000Y-102800000D02*
X73800000Y-102800000D01*
%TO.C,D76*%
X78500000Y-43900000D02*
X79200000Y-43900000D01*
%TO.C,D68*%
X78500000Y-68700000D02*
X79200000Y-68700000D01*
%TO.C,D34*%
X73100000Y-50100000D02*
X73800000Y-50100000D01*
%TO.C,D32*%
X73100000Y-56300000D02*
X73800000Y-56300000D01*
%TO.C,D4*%
X73100000Y-143100000D02*
X73800000Y-143100000D01*
%TO.C,D79*%
X78500000Y-34600000D02*
X79200000Y-34600000D01*
%TO.C,D75*%
X78500000Y-47000000D02*
X79200000Y-47000000D01*
%TO.C,D63*%
X78500000Y-84200000D02*
X79200000Y-84200000D01*
%TO.C,D78*%
X78500000Y-37700000D02*
X79200000Y-37700000D01*
%TO.C,D80*%
X78500000Y-31500000D02*
X79200000Y-31500000D01*
%TO.C,D55*%
X78500000Y-109000000D02*
X79200000Y-109000000D01*
%TO.C,D7*%
X73100000Y-133800000D02*
X73800000Y-133800000D01*
%TO.C,D51*%
X78500000Y-121400000D02*
X79200000Y-121400000D01*
%TO.C,D18*%
X73100000Y-99700000D02*
X73800000Y-99700000D01*
%TO.C,D50*%
X78500000Y-124500000D02*
X79200000Y-124500000D01*
%TO.C,D58*%
X78500000Y-99700000D02*
X79200000Y-99700000D01*
%TO.C,D24*%
X73100000Y-81100000D02*
X73800000Y-81100000D01*
%TO.C,D20*%
X73100000Y-93500000D02*
X73800000Y-93500000D01*
%TO.C,D67*%
X78500000Y-71800000D02*
X79200000Y-71800000D01*
%TO.C,D38*%
X73100000Y-37700000D02*
X73800000Y-37700000D01*
%TO.C,D48*%
X78500000Y-130700000D02*
X79200000Y-130700000D01*
%TO.C,D11*%
X73100000Y-121400000D02*
X73800000Y-121400000D01*
%TO.C,D3*%
X73100000Y-146200000D02*
X73800000Y-146200000D01*
%TO.C,D41*%
X78500000Y-152400000D02*
X79200000Y-152400000D01*
%TO.C,D43*%
X78500000Y-146200000D02*
X79200000Y-146200000D01*
%TO.C,D25*%
X73100000Y-78000000D02*
X73800000Y-78000000D01*
%TO.C,D31*%
X73100000Y-59400000D02*
X73800000Y-59400000D01*
%TO.C,D70*%
X78500000Y-62500000D02*
X79200000Y-62500000D01*
%TO.C,D39*%
X73100000Y-34600000D02*
X73800000Y-34600000D01*
%TO.C,D29*%
X73100000Y-65600000D02*
X73800000Y-65600000D01*
%TO.C,D14*%
X73100000Y-112100000D02*
X73800000Y-112100000D01*
%TO.C,D47*%
X78500000Y-133800000D02*
X79200000Y-133800000D01*
%TO.C,D60*%
X78500000Y-93500000D02*
X79200000Y-93500000D01*
%TO.C,D27*%
X73100000Y-71800000D02*
X73800000Y-71800000D01*
%TO.C,D40*%
X73100000Y-31500000D02*
X73800000Y-31500000D01*
%TO.C,D5*%
X73100000Y-140000000D02*
X73800000Y-140000000D01*
%TO.C,D33*%
X73100000Y-53200000D02*
X73800000Y-53200000D01*
%TO.C,D64*%
X78500000Y-81100000D02*
X79200000Y-81100000D01*
%TO.C,D73*%
X78500000Y-53200000D02*
X79200000Y-53200000D01*
%TO.C,D13*%
X73100000Y-115200000D02*
X73800000Y-115200000D01*
%TO.C,D8*%
X73100000Y-130700000D02*
X73800000Y-130700000D01*
%TO.C,D21*%
X73100000Y-90400000D02*
X73800000Y-90400000D01*
%TO.C,D10*%
X73100000Y-124500000D02*
X73800000Y-124500000D01*
%TO.C,D56*%
X78500000Y-105900000D02*
X79200000Y-105900000D01*
%TO.C,D62*%
X78500000Y-87300000D02*
X79200000Y-87300000D01*
%TO.C,D37*%
X73100000Y-40800000D02*
X73800000Y-40800000D01*
%TO.C,D72*%
X78500000Y-56300000D02*
X79200000Y-56300000D01*
%TO.C,D6*%
X73100000Y-136900000D02*
X73800000Y-136900000D01*
%TO.C,D69*%
X78500000Y-65600000D02*
X79200000Y-65600000D01*
%TO.C,D45*%
X78500000Y-140000000D02*
X79200000Y-140000000D01*
%TO.C,D49*%
X78500000Y-127600000D02*
X79200000Y-127600000D01*
%TO.C,D66*%
X78500000Y-74900000D02*
X79200000Y-74900000D01*
%TO.C,D30*%
X73100000Y-62500000D02*
X73800000Y-62500000D01*
%TO.C,D15*%
X73100000Y-109000000D02*
X73800000Y-109000000D01*
%TO.C,D36*%
X73100000Y-43900000D02*
X73800000Y-43900000D01*
%TO.C,D53*%
X78500000Y-115200000D02*
X79200000Y-115200000D01*
%TO.C,D46*%
X78500000Y-136900000D02*
X79200000Y-136900000D01*
%TO.C,D71*%
X78500000Y-59400000D02*
X79200000Y-59400000D01*
%TO.C,D12*%
X73100000Y-118300000D02*
X73800000Y-118300000D01*
%TO.C,D57*%
X78500000Y-102800000D02*
X79200000Y-102800000D01*
%TO.C,D74*%
X78500000Y-50100000D02*
X79200000Y-50100000D01*
%TO.C,D19*%
X73100000Y-96600000D02*
X73800000Y-96600000D01*
%TO.C,D28*%
X73100000Y-68700000D02*
X73800000Y-68700000D01*
%TO.C,D42*%
X78500000Y-149300000D02*
X79200000Y-149300000D01*
%TO.C,D9*%
X73100000Y-127600000D02*
X73800000Y-127600000D01*
%TO.C,D59*%
X78500000Y-96600000D02*
X79200000Y-96600000D01*
%TO.C,D52*%
X78500000Y-118300000D02*
X79200000Y-118300000D01*
%TO.C,D1*%
X73100000Y-152400000D02*
X73800000Y-152400000D01*
%TO.C,D26*%
X73100000Y-74900000D02*
X73800000Y-74900000D01*
%TO.C,D65*%
X78500000Y-78000000D02*
X79200000Y-78000000D01*
%TO.C,D44*%
X78500000Y-143100000D02*
X79200000Y-143100000D01*
%TO.C,D2*%
X73100000Y-149300000D02*
X73800000Y-149300000D01*
%TO.C,D61*%
X78500000Y-90400000D02*
X79200000Y-90400000D01*
%TO.C,D77*%
X78500000Y-40800000D02*
X79200000Y-40800000D01*
%TO.C,D23*%
X73100000Y-84200000D02*
X73800000Y-84200000D01*
%TO.C,D22*%
X73100000Y-87300000D02*
X73800000Y-87300000D01*
%TO.C,D16*%
X73100000Y-105900000D02*
X73800000Y-105900000D01*
%TO.C,D35*%
X62300000Y-47000000D02*
X63000000Y-47000000D01*
%TO.C,D76*%
X67700000Y-43900000D02*
X68400000Y-43900000D01*
%TO.C,D68*%
X67700000Y-68700000D02*
X68400000Y-68700000D01*
%TO.C,D26*%
X62300000Y-74900000D02*
X63000000Y-74900000D01*
%TO.C,D17*%
X62300000Y-102800000D02*
X63000000Y-102800000D01*
%TO.C,D34*%
X62300000Y-50100000D02*
X63000000Y-50100000D01*
%TO.C,D4*%
X62300000Y-143100000D02*
X63000000Y-143100000D01*
%TO.C,D79*%
X67700000Y-34600000D02*
X68400000Y-34600000D01*
%TO.C,D14*%
X62300000Y-112100000D02*
X63000000Y-112100000D01*
%TO.C,D47*%
X67700000Y-133800000D02*
X68400000Y-133800000D01*
%TO.C,D75*%
X67700000Y-47000000D02*
X68400000Y-47000000D01*
%TO.C,D71*%
X67700000Y-59400000D02*
X68400000Y-59400000D01*
%TO.C,D63*%
X67700000Y-84200000D02*
X68400000Y-84200000D01*
%TO.C,D78*%
X67700000Y-37700000D02*
X68400000Y-37700000D01*
%TO.C,D56*%
X67700000Y-105900000D02*
X68400000Y-105900000D01*
%TO.C,D55*%
X67700000Y-109000000D02*
X68400000Y-109000000D01*
%TO.C,D7*%
X62300000Y-133800000D02*
X63000000Y-133800000D01*
%TO.C,D31*%
X62300000Y-59400000D02*
X63000000Y-59400000D01*
%TO.C,D50*%
X67700000Y-124500000D02*
X68400000Y-124500000D01*
%TO.C,D42*%
X67700000Y-149300000D02*
X68400000Y-149300000D01*
%TO.C,D24*%
X62300000Y-81100000D02*
X63000000Y-81100000D01*
%TO.C,D67*%
X67700000Y-71800000D02*
X68400000Y-71800000D01*
%TO.C,D48*%
X67700000Y-130700000D02*
X68400000Y-130700000D01*
%TO.C,D11*%
X62300000Y-121400000D02*
X63000000Y-121400000D01*
%TO.C,D58*%
X67700000Y-99700000D02*
X68400000Y-99700000D01*
%TO.C,D41*%
X67700000Y-152400000D02*
X68400000Y-152400000D01*
%TO.C,D43*%
X67700000Y-146200000D02*
X68400000Y-146200000D01*
%TO.C,D25*%
X62300000Y-78000000D02*
X63000000Y-78000000D01*
%TO.C,D15*%
X62300000Y-109000000D02*
X63000000Y-109000000D01*
%TO.C,D29*%
X62300000Y-65600000D02*
X63000000Y-65600000D01*
%TO.C,D27*%
X62300000Y-71800000D02*
X63000000Y-71800000D01*
%TO.C,D40*%
X62300000Y-31500000D02*
X63000000Y-31500000D01*
%TO.C,D38*%
X62300000Y-37700000D02*
X63000000Y-37700000D01*
%TO.C,D36*%
X62300000Y-43900000D02*
X63000000Y-43900000D01*
%TO.C,D33*%
X62300000Y-53200000D02*
X63000000Y-53200000D01*
%TO.C,D65*%
X67700000Y-78000000D02*
X68400000Y-78000000D01*
%TO.C,D64*%
X67700000Y-81100000D02*
X68400000Y-81100000D01*
%TO.C,D13*%
X62300000Y-115200000D02*
X63000000Y-115200000D01*
%TO.C,D80*%
X67700000Y-31500000D02*
X68400000Y-31500000D01*
%TO.C,D21*%
X62300000Y-90400000D02*
X63000000Y-90400000D01*
%TO.C,D69*%
X67700000Y-65600000D02*
X68400000Y-65600000D01*
%TO.C,D51*%
X67700000Y-121400000D02*
X68400000Y-121400000D01*
%TO.C,D39*%
X62300000Y-34600000D02*
X63000000Y-34600000D01*
%TO.C,D60*%
X67700000Y-93500000D02*
X68400000Y-93500000D01*
%TO.C,D10*%
X62300000Y-124500000D02*
X63000000Y-124500000D01*
%TO.C,D32*%
X62300000Y-56300000D02*
X63000000Y-56300000D01*
%TO.C,D18*%
X62300000Y-99700000D02*
X63000000Y-99700000D01*
%TO.C,D6*%
X62300000Y-136900000D02*
X63000000Y-136900000D01*
%TO.C,D62*%
X67700000Y-87300000D02*
X68400000Y-87300000D01*
%TO.C,D72*%
X67700000Y-56300000D02*
X68400000Y-56300000D01*
%TO.C,D45*%
X67700000Y-140000000D02*
X68400000Y-140000000D01*
%TO.C,D49*%
X67700000Y-127600000D02*
X68400000Y-127600000D01*
%TO.C,D66*%
X67700000Y-74900000D02*
X68400000Y-74900000D01*
%TO.C,D37*%
X62300000Y-40800000D02*
X63000000Y-40800000D01*
%TO.C,D73*%
X67700000Y-53200000D02*
X68400000Y-53200000D01*
%TO.C,D53*%
X67700000Y-115200000D02*
X68400000Y-115200000D01*
%TO.C,D12*%
X62300000Y-118300000D02*
X63000000Y-118300000D01*
%TO.C,D57*%
X67700000Y-102800000D02*
X68400000Y-102800000D01*
%TO.C,D19*%
X62300000Y-96600000D02*
X63000000Y-96600000D01*
%TO.C,D61*%
X67700000Y-90400000D02*
X68400000Y-90400000D01*
%TO.C,D3*%
X62300000Y-146200000D02*
X63000000Y-146200000D01*
%TO.C,D28*%
X62300000Y-68700000D02*
X63000000Y-68700000D01*
%TO.C,D9*%
X62300000Y-127600000D02*
X63000000Y-127600000D01*
%TO.C,D30*%
X62300000Y-62500000D02*
X63000000Y-62500000D01*
%TO.C,D59*%
X67700000Y-96600000D02*
X68400000Y-96600000D01*
%TO.C,D52*%
X67700000Y-118300000D02*
X68400000Y-118300000D01*
%TO.C,D70*%
X67700000Y-62500000D02*
X68400000Y-62500000D01*
%TO.C,D74*%
X67700000Y-50100000D02*
X68400000Y-50100000D01*
%TO.C,D77*%
X67700000Y-40800000D02*
X68400000Y-40800000D01*
%TO.C,D44*%
X67700000Y-143100000D02*
X68400000Y-143100000D01*
%TO.C,D54*%
X67700000Y-112100000D02*
X68400000Y-112100000D01*
%TO.C,D2*%
X62300000Y-149300000D02*
X63000000Y-149300000D01*
%TO.C,D5*%
X62300000Y-140000000D02*
X63000000Y-140000000D01*
%TO.C,D23*%
X62300000Y-84200000D02*
X63000000Y-84200000D01*
%TO.C,D20*%
X62300000Y-93500000D02*
X63000000Y-93500000D01*
%TO.C,D22*%
X62300000Y-87300000D02*
X63000000Y-87300000D01*
%TO.C,D8*%
X62300000Y-130700000D02*
X63000000Y-130700000D01*
%TO.C,D46*%
X67700000Y-136900000D02*
X68400000Y-136900000D01*
%TO.C,D1*%
X62300000Y-152400000D02*
X63000000Y-152400000D01*
%TO.C,D16*%
X62300000Y-105900000D02*
X63000000Y-105900000D01*
%TO.C,D35*%
X51500000Y-47000000D02*
X52200000Y-47000000D01*
%TO.C,D17*%
X51500000Y-102800000D02*
X52200000Y-102800000D01*
%TO.C,D76*%
X56900000Y-43900000D02*
X57600000Y-43900000D01*
%TO.C,D68*%
X56900000Y-68700000D02*
X57600000Y-68700000D01*
%TO.C,D34*%
X51500000Y-50100000D02*
X52200000Y-50100000D01*
%TO.C,D40*%
X51500000Y-31500000D02*
X52200000Y-31500000D01*
%TO.C,D4*%
X51500000Y-143100000D02*
X52200000Y-143100000D01*
%TO.C,D79*%
X56900000Y-34600000D02*
X57600000Y-34600000D01*
%TO.C,D75*%
X56900000Y-47000000D02*
X57600000Y-47000000D01*
%TO.C,D26*%
X51500000Y-74900000D02*
X52200000Y-74900000D01*
%TO.C,D44*%
X56900000Y-143100000D02*
X57600000Y-143100000D01*
%TO.C,D63*%
X56900000Y-84200000D02*
X57600000Y-84200000D01*
%TO.C,D78*%
X56900000Y-37700000D02*
X57600000Y-37700000D01*
%TO.C,D73*%
X56900000Y-53200000D02*
X57600000Y-53200000D01*
%TO.C,D55*%
X56900000Y-109000000D02*
X57600000Y-109000000D01*
%TO.C,D7*%
X51500000Y-133800000D02*
X52200000Y-133800000D01*
%TO.C,D50*%
X56900000Y-124500000D02*
X57600000Y-124500000D01*
%TO.C,D24*%
X51500000Y-81100000D02*
X52200000Y-81100000D01*
%TO.C,D67*%
X56900000Y-71800000D02*
X57600000Y-71800000D01*
%TO.C,D32*%
X51500000Y-56300000D02*
X52200000Y-56300000D01*
%TO.C,D69*%
X56900000Y-65600000D02*
X57600000Y-65600000D01*
%TO.C,D48*%
X56900000Y-130700000D02*
X57600000Y-130700000D01*
%TO.C,D11*%
X51500000Y-121400000D02*
X52200000Y-121400000D01*
%TO.C,D58*%
X56900000Y-99700000D02*
X57600000Y-99700000D01*
%TO.C,D41*%
X56900000Y-152400000D02*
X57600000Y-152400000D01*
%TO.C,D43*%
X56900000Y-146200000D02*
X57600000Y-146200000D01*
%TO.C,D47*%
X56900000Y-133800000D02*
X57600000Y-133800000D01*
%TO.C,D25*%
X51500000Y-78000000D02*
X52200000Y-78000000D01*
%TO.C,D31*%
X51500000Y-59400000D02*
X52200000Y-59400000D01*
%TO.C,D29*%
X51500000Y-65600000D02*
X52200000Y-65600000D01*
%TO.C,D27*%
X51500000Y-71800000D02*
X52200000Y-71800000D01*
%TO.C,D38*%
X51500000Y-37700000D02*
X52200000Y-37700000D01*
%TO.C,D59*%
X56900000Y-96600000D02*
X57600000Y-96600000D01*
%TO.C,D74*%
X56900000Y-50100000D02*
X57600000Y-50100000D01*
%TO.C,D33*%
X51500000Y-53200000D02*
X52200000Y-53200000D01*
%TO.C,D64*%
X56900000Y-81100000D02*
X57600000Y-81100000D01*
%TO.C,D13*%
X51500000Y-115200000D02*
X52200000Y-115200000D01*
%TO.C,D51*%
X56900000Y-121400000D02*
X57600000Y-121400000D01*
%TO.C,D80*%
X56900000Y-31500000D02*
X57600000Y-31500000D01*
%TO.C,D20*%
X51500000Y-93500000D02*
X52200000Y-93500000D01*
%TO.C,D46*%
X56900000Y-136900000D02*
X57600000Y-136900000D01*
%TO.C,D21*%
X51500000Y-90400000D02*
X52200000Y-90400000D01*
%TO.C,D19*%
X51500000Y-96600000D02*
X52200000Y-96600000D01*
%TO.C,D66*%
X56900000Y-74900000D02*
X57600000Y-74900000D01*
%TO.C,D10*%
X51500000Y-124500000D02*
X52200000Y-124500000D01*
%TO.C,D56*%
X56900000Y-105900000D02*
X57600000Y-105900000D01*
%TO.C,D18*%
X51500000Y-99700000D02*
X52200000Y-99700000D01*
%TO.C,D62*%
X56900000Y-87300000D02*
X57600000Y-87300000D01*
%TO.C,D72*%
X56900000Y-56300000D02*
X57600000Y-56300000D01*
%TO.C,D71*%
X56900000Y-59400000D02*
X57600000Y-59400000D01*
%TO.C,D14*%
X51500000Y-112100000D02*
X52200000Y-112100000D01*
%TO.C,D6*%
X51500000Y-136900000D02*
X52200000Y-136900000D01*
%TO.C,D39*%
X51500000Y-34600000D02*
X52200000Y-34600000D01*
%TO.C,D45*%
X56900000Y-140000000D02*
X57600000Y-140000000D01*
%TO.C,D49*%
X56900000Y-127600000D02*
X57600000Y-127600000D01*
%TO.C,D15*%
X51500000Y-109000000D02*
X52200000Y-109000000D01*
%TO.C,D36*%
X51500000Y-43900000D02*
X52200000Y-43900000D01*
%TO.C,D37*%
X51500000Y-40800000D02*
X52200000Y-40800000D01*
%TO.C,D53*%
X56900000Y-115200000D02*
X57600000Y-115200000D01*
%TO.C,D12*%
X51500000Y-118300000D02*
X52200000Y-118300000D01*
%TO.C,D57*%
X56900000Y-102800000D02*
X57600000Y-102800000D01*
%TO.C,D3*%
X51500000Y-146200000D02*
X52200000Y-146200000D01*
%TO.C,D28*%
X51500000Y-68700000D02*
X52200000Y-68700000D01*
%TO.C,D42*%
X56900000Y-149300000D02*
X57600000Y-149300000D01*
%TO.C,D9*%
X51500000Y-127600000D02*
X52200000Y-127600000D01*
%TO.C,D30*%
X51500000Y-62500000D02*
X52200000Y-62500000D01*
%TO.C,D52*%
X56900000Y-118300000D02*
X57600000Y-118300000D01*
%TO.C,D70*%
X56900000Y-62500000D02*
X57600000Y-62500000D01*
%TO.C,D65*%
X56900000Y-78000000D02*
X57600000Y-78000000D01*
%TO.C,D54*%
X56900000Y-112100000D02*
X57600000Y-112100000D01*
%TO.C,D2*%
X51500000Y-149300000D02*
X52200000Y-149300000D01*
%TO.C,D61*%
X56900000Y-90400000D02*
X57600000Y-90400000D01*
%TO.C,D77*%
X56900000Y-40800000D02*
X57600000Y-40800000D01*
%TO.C,D5*%
X51500000Y-140000000D02*
X52200000Y-140000000D01*
%TO.C,D60*%
X56900000Y-93500000D02*
X57600000Y-93500000D01*
%TO.C,D23*%
X51500000Y-84200000D02*
X52200000Y-84200000D01*
%TO.C,D22*%
X51500000Y-87300000D02*
X52200000Y-87300000D01*
%TO.C,D8*%
X51500000Y-130700000D02*
X52200000Y-130700000D01*
%TO.C,D1*%
X51500000Y-152400000D02*
X52200000Y-152400000D01*
%TO.C,D16*%
X51500000Y-105900000D02*
X52200000Y-105900000D01*
%TO.C,J3*%
X101620000Y-161380000D02*
X101620000Y-160000000D01*
X103000000Y-161380000D02*
X101620000Y-161380000D01*
X104270000Y-158620000D02*
X112000000Y-158620000D01*
X104270000Y-161380000D02*
X104270000Y-158620000D01*
X104270000Y-161380000D02*
X112000000Y-161380000D01*
X112000000Y-161380000D02*
X112000000Y-158620000D01*
X61210000Y-161380000D02*
X61210000Y-160000000D01*
X62590000Y-161380000D02*
X61210000Y-161380000D01*
X63860000Y-158620000D02*
X71590000Y-158620000D01*
X63860000Y-161380000D02*
X63860000Y-158620000D01*
X63860000Y-161380000D02*
X71590000Y-161380000D01*
X71590000Y-161380000D02*
X71590000Y-158620000D01*
%TO.C,D16*%
X127100000Y-105900000D02*
X127800000Y-105900000D01*
%TO.C,D1*%
X127100000Y-152400000D02*
X127800000Y-152400000D01*
%TO.C,D46*%
X132500000Y-136900000D02*
X133200000Y-136900000D01*
%TO.C,D8*%
X127100000Y-130700000D02*
X127800000Y-130700000D01*
%TO.C,D22*%
X127100000Y-87300000D02*
X127800000Y-87300000D01*
%TO.C,D20*%
X127100000Y-93500000D02*
X127800000Y-93500000D01*
%TO.C,D23*%
X127100000Y-84200000D02*
X127800000Y-84200000D01*
%TO.C,D60*%
X132500000Y-93500000D02*
X133200000Y-93500000D01*
%TO.C,D5*%
X127100000Y-140000000D02*
X127800000Y-140000000D01*
%TO.C,D77*%
X132500000Y-40800000D02*
X133200000Y-40800000D01*
%TO.C,D61*%
X132500000Y-90400000D02*
X133200000Y-90400000D01*
%TO.C,D2*%
X127100000Y-149300000D02*
X127800000Y-149300000D01*
%TO.C,D54*%
X132500000Y-112100000D02*
X133200000Y-112100000D01*
%TO.C,D44*%
X132500000Y-143100000D02*
X133200000Y-143100000D01*
%TO.C,D65*%
X132500000Y-78000000D02*
X133200000Y-78000000D01*
%TO.C,D26*%
X127100000Y-74900000D02*
X127800000Y-74900000D01*
%TO.C,D74*%
X132500000Y-50100000D02*
X133200000Y-50100000D01*
%TO.C,D70*%
X132500000Y-62500000D02*
X133200000Y-62500000D01*
%TO.C,D73*%
X132500000Y-53200000D02*
X133200000Y-53200000D01*
%TO.C,D52*%
X132500000Y-118300000D02*
X133200000Y-118300000D01*
%TO.C,D59*%
X132500000Y-96600000D02*
X133200000Y-96600000D01*
%TO.C,D30*%
X127100000Y-62500000D02*
X127800000Y-62500000D01*
%TO.C,D9*%
X127100000Y-127600000D02*
X127800000Y-127600000D01*
%TO.C,D42*%
X132500000Y-149300000D02*
X133200000Y-149300000D01*
%TO.C,D28*%
X127100000Y-68700000D02*
X127800000Y-68700000D01*
%TO.C,D3*%
X127100000Y-146200000D02*
X127800000Y-146200000D01*
%TO.C,D19*%
X127100000Y-96600000D02*
X127800000Y-96600000D01*
%TO.C,D57*%
X132500000Y-102800000D02*
X133200000Y-102800000D01*
%TO.C,D12*%
X127100000Y-118300000D02*
X127800000Y-118300000D01*
%TO.C,D71*%
X132500000Y-59400000D02*
X133200000Y-59400000D01*
%TO.C,D53*%
X132500000Y-115200000D02*
X133200000Y-115200000D01*
%TO.C,D37*%
X127100000Y-40800000D02*
X127800000Y-40800000D01*
%TO.C,D36*%
X127100000Y-43900000D02*
X127800000Y-43900000D01*
%TO.C,D15*%
X127100000Y-109000000D02*
X127800000Y-109000000D01*
%TO.C,D66*%
X132500000Y-74900000D02*
X133200000Y-74900000D01*
%TO.C,D49*%
X132500000Y-127600000D02*
X133200000Y-127600000D01*
%TO.C,D45*%
X132500000Y-140000000D02*
X133200000Y-140000000D01*
%TO.C,D39*%
X127100000Y-34600000D02*
X127800000Y-34600000D01*
%TO.C,D69*%
X132500000Y-65600000D02*
X133200000Y-65600000D01*
%TO.C,D6*%
X127100000Y-136900000D02*
X127800000Y-136900000D01*
%TO.C,D14*%
X127100000Y-112100000D02*
X127800000Y-112100000D01*
%TO.C,D72*%
X132500000Y-56300000D02*
X133200000Y-56300000D01*
%TO.C,D51*%
X132500000Y-121400000D02*
X133200000Y-121400000D01*
%TO.C,D62*%
X132500000Y-87300000D02*
X133200000Y-87300000D01*
%TO.C,D18*%
X127100000Y-99700000D02*
X127800000Y-99700000D01*
%TO.C,D47*%
X132500000Y-133800000D02*
X133200000Y-133800000D01*
%TO.C,D32*%
X127100000Y-56300000D02*
X127800000Y-56300000D01*
%TO.C,D56*%
X132500000Y-105900000D02*
X133200000Y-105900000D01*
%TO.C,D10*%
X127100000Y-124500000D02*
X127800000Y-124500000D01*
%TO.C,D21*%
X127100000Y-90400000D02*
X127800000Y-90400000D01*
%TO.C,D80*%
X132500000Y-31500000D02*
X133200000Y-31500000D01*
%TO.C,D13*%
X127100000Y-115200000D02*
X127800000Y-115200000D01*
%TO.C,D64*%
X132500000Y-81100000D02*
X133200000Y-81100000D01*
%TO.C,D33*%
X127100000Y-53200000D02*
X127800000Y-53200000D01*
%TO.C,D38*%
X127100000Y-37700000D02*
X127800000Y-37700000D01*
%TO.C,D40*%
X127100000Y-31500000D02*
X127800000Y-31500000D01*
%TO.C,D27*%
X127100000Y-71800000D02*
X127800000Y-71800000D01*
%TO.C,D29*%
X127100000Y-65600000D02*
X127800000Y-65600000D01*
%TO.C,D31*%
X127100000Y-59400000D02*
X127800000Y-59400000D01*
%TO.C,D25*%
X127100000Y-78000000D02*
X127800000Y-78000000D01*
%TO.C,D43*%
X132500000Y-146200000D02*
X133200000Y-146200000D01*
%TO.C,D41*%
X132500000Y-152400000D02*
X133200000Y-152400000D01*
%TO.C,D58*%
X132500000Y-99700000D02*
X133200000Y-99700000D01*
%TO.C,D11*%
X127100000Y-121400000D02*
X127800000Y-121400000D01*
%TO.C,D48*%
X132500000Y-130700000D02*
X133200000Y-130700000D01*
%TO.C,D67*%
X132500000Y-71800000D02*
X133200000Y-71800000D01*
%TO.C,D24*%
X127100000Y-81100000D02*
X127800000Y-81100000D01*
%TO.C,D50*%
X132500000Y-124500000D02*
X133200000Y-124500000D01*
%TO.C,D7*%
X127100000Y-133800000D02*
X127800000Y-133800000D01*
%TO.C,D55*%
X132500000Y-109000000D02*
X133200000Y-109000000D01*
%TO.C,D78*%
X132500000Y-37700000D02*
X133200000Y-37700000D01*
%TO.C,D63*%
X132500000Y-84200000D02*
X133200000Y-84200000D01*
%TO.C,D75*%
X132500000Y-47000000D02*
X133200000Y-47000000D01*
%TO.C,D79*%
X132500000Y-34600000D02*
X133200000Y-34600000D01*
%TO.C,D4*%
X127100000Y-143100000D02*
X127800000Y-143100000D01*
%TO.C,D34*%
X127100000Y-50100000D02*
X127800000Y-50100000D01*
%TO.C,D68*%
X132500000Y-68700000D02*
X133200000Y-68700000D01*
%TO.C,D76*%
X132500000Y-43900000D02*
X133200000Y-43900000D01*
%TO.C,D17*%
X127100000Y-102800000D02*
X127800000Y-102800000D01*
%TO.C,D35*%
X127100000Y-47000000D02*
X127800000Y-47000000D01*
%TD*%
M02*
