%TF.GenerationSoftware,KiCad,Pcbnew,9.0.3*%
%TF.CreationDate,2025-08-08T13:36:56-04:00*%
%TF.ProjectId,flowstick_led_strip_panel,666c6f77-7374-4696-936b-5f6c65645f73,rev?*%
%TF.SameCoordinates,Original*%
%TF.FileFunction,Legend,Top*%
%TF.FilePolarity,Positive*%
%FSLAX46Y46*%
G04 Gerber Fmt 4.6, Leading zero omitted, Abs format (unit mm)*
G04 Created by KiCad (PCBNEW 9.0.3) date 2025-08-08 13:36:56*
%MOMM*%
%LPD*%
G01*
G04 APERTURE LIST*
%ADD10C,0.300000*%
%ADD11C,0.200000*%
%ADD12C,0.120000*%
G04 APERTURE END LIST*
D10*
X93200000Y-155600000D02*
X93200000Y-161200000D01*
D11*
X113355863Y-157547331D02*
X112879673Y-157547331D01*
X112879673Y-157547331D02*
X112879673Y-156547331D01*
X113689197Y-157023521D02*
X114022530Y-157023521D01*
X114165387Y-157547331D02*
X113689197Y-157547331D01*
X113689197Y-157547331D02*
X113689197Y-156547331D01*
X113689197Y-156547331D02*
X114165387Y-156547331D01*
X114593959Y-157547331D02*
X114593959Y-156547331D01*
X114593959Y-156547331D02*
X114832054Y-156547331D01*
X114832054Y-156547331D02*
X114974911Y-156594950D01*
X114974911Y-156594950D02*
X115070149Y-156690188D01*
X115070149Y-156690188D02*
X115117768Y-156785426D01*
X115117768Y-156785426D02*
X115165387Y-156975902D01*
X115165387Y-156975902D02*
X115165387Y-157118759D01*
X115165387Y-157118759D02*
X115117768Y-157309235D01*
X115117768Y-157309235D02*
X115070149Y-157404473D01*
X115070149Y-157404473D02*
X114974911Y-157499712D01*
X114974911Y-157499712D02*
X114832054Y-157547331D01*
X114832054Y-157547331D02*
X114593959Y-157547331D01*
X116689197Y-157023521D02*
X116355864Y-157023521D01*
X116355864Y-157547331D02*
X116355864Y-156547331D01*
X116355864Y-156547331D02*
X116832054Y-156547331D01*
X117165388Y-157261616D02*
X117641578Y-157261616D01*
X117070150Y-157547331D02*
X117403483Y-156547331D01*
X117403483Y-156547331D02*
X117736816Y-157547331D01*
X118641578Y-157452092D02*
X118593959Y-157499712D01*
X118593959Y-157499712D02*
X118451102Y-157547331D01*
X118451102Y-157547331D02*
X118355864Y-157547331D01*
X118355864Y-157547331D02*
X118213007Y-157499712D01*
X118213007Y-157499712D02*
X118117769Y-157404473D01*
X118117769Y-157404473D02*
X118070150Y-157309235D01*
X118070150Y-157309235D02*
X118022531Y-157118759D01*
X118022531Y-157118759D02*
X118022531Y-156975902D01*
X118022531Y-156975902D02*
X118070150Y-156785426D01*
X118070150Y-156785426D02*
X118117769Y-156690188D01*
X118117769Y-156690188D02*
X118213007Y-156594950D01*
X118213007Y-156594950D02*
X118355864Y-156547331D01*
X118355864Y-156547331D02*
X118451102Y-156547331D01*
X118451102Y-156547331D02*
X118593959Y-156594950D01*
X118593959Y-156594950D02*
X118641578Y-156642569D01*
X118927293Y-156547331D02*
X119498721Y-156547331D01*
X119213007Y-157547331D02*
X119213007Y-156547331D01*
X120022531Y-156547331D02*
X120213007Y-156547331D01*
X120213007Y-156547331D02*
X120308245Y-156594950D01*
X120308245Y-156594950D02*
X120403483Y-156690188D01*
X120403483Y-156690188D02*
X120451102Y-156880664D01*
X120451102Y-156880664D02*
X120451102Y-157213997D01*
X120451102Y-157213997D02*
X120403483Y-157404473D01*
X120403483Y-157404473D02*
X120308245Y-157499712D01*
X120308245Y-157499712D02*
X120213007Y-157547331D01*
X120213007Y-157547331D02*
X120022531Y-157547331D01*
X120022531Y-157547331D02*
X119927293Y-157499712D01*
X119927293Y-157499712D02*
X119832055Y-157404473D01*
X119832055Y-157404473D02*
X119784436Y-157213997D01*
X119784436Y-157213997D02*
X119784436Y-156880664D01*
X119784436Y-156880664D02*
X119832055Y-156690188D01*
X119832055Y-156690188D02*
X119927293Y-156594950D01*
X119927293Y-156594950D02*
X120022531Y-156547331D01*
X121451102Y-157547331D02*
X121117769Y-157071140D01*
X120879674Y-157547331D02*
X120879674Y-156547331D01*
X120879674Y-156547331D02*
X121260626Y-156547331D01*
X121260626Y-156547331D02*
X121355864Y-156594950D01*
X121355864Y-156594950D02*
X121403483Y-156642569D01*
X121403483Y-156642569D02*
X121451102Y-156737807D01*
X121451102Y-156737807D02*
X121451102Y-156880664D01*
X121451102Y-156880664D02*
X121403483Y-156975902D01*
X121403483Y-156975902D02*
X121355864Y-157023521D01*
X121355864Y-157023521D02*
X121260626Y-157071140D01*
X121260626Y-157071140D02*
X120879674Y-157071140D01*
X122070150Y-157071140D02*
X122070150Y-157547331D01*
X121736817Y-156547331D02*
X122070150Y-157071140D01*
X122070150Y-157071140D02*
X122403483Y-156547331D01*
X123355865Y-156547331D02*
X123927293Y-156547331D01*
X123641579Y-157547331D02*
X123641579Y-156547331D01*
X124260627Y-157023521D02*
X124593960Y-157023521D01*
X124736817Y-157547331D02*
X124260627Y-157547331D01*
X124260627Y-157547331D02*
X124260627Y-156547331D01*
X124260627Y-156547331D02*
X124736817Y-156547331D01*
X125117770Y-157499712D02*
X125260627Y-157547331D01*
X125260627Y-157547331D02*
X125498722Y-157547331D01*
X125498722Y-157547331D02*
X125593960Y-157499712D01*
X125593960Y-157499712D02*
X125641579Y-157452092D01*
X125641579Y-157452092D02*
X125689198Y-157356854D01*
X125689198Y-157356854D02*
X125689198Y-157261616D01*
X125689198Y-157261616D02*
X125641579Y-157166378D01*
X125641579Y-157166378D02*
X125593960Y-157118759D01*
X125593960Y-157118759D02*
X125498722Y-157071140D01*
X125498722Y-157071140D02*
X125308246Y-157023521D01*
X125308246Y-157023521D02*
X125213008Y-156975902D01*
X125213008Y-156975902D02*
X125165389Y-156928283D01*
X125165389Y-156928283D02*
X125117770Y-156833045D01*
X125117770Y-156833045D02*
X125117770Y-156737807D01*
X125117770Y-156737807D02*
X125165389Y-156642569D01*
X125165389Y-156642569D02*
X125213008Y-156594950D01*
X125213008Y-156594950D02*
X125308246Y-156547331D01*
X125308246Y-156547331D02*
X125546341Y-156547331D01*
X125546341Y-156547331D02*
X125689198Y-156594950D01*
X125974913Y-156547331D02*
X126546341Y-156547331D01*
X126260627Y-157547331D02*
X126260627Y-156547331D01*
X112879673Y-159157275D02*
X112879673Y-158157275D01*
X113927291Y-159062036D02*
X113879672Y-159109656D01*
X113879672Y-159109656D02*
X113736815Y-159157275D01*
X113736815Y-159157275D02*
X113641577Y-159157275D01*
X113641577Y-159157275D02*
X113498720Y-159109656D01*
X113498720Y-159109656D02*
X113403482Y-159014417D01*
X113403482Y-159014417D02*
X113355863Y-158919179D01*
X113355863Y-158919179D02*
X113308244Y-158728703D01*
X113308244Y-158728703D02*
X113308244Y-158585846D01*
X113308244Y-158585846D02*
X113355863Y-158395370D01*
X113355863Y-158395370D02*
X113403482Y-158300132D01*
X113403482Y-158300132D02*
X113498720Y-158204894D01*
X113498720Y-158204894D02*
X113641577Y-158157275D01*
X113641577Y-158157275D02*
X113736815Y-158157275D01*
X113736815Y-158157275D02*
X113879672Y-158204894D01*
X113879672Y-158204894D02*
X113927291Y-158252513D01*
X114355863Y-159062036D02*
X114403482Y-159109656D01*
X114403482Y-159109656D02*
X114355863Y-159157275D01*
X114355863Y-159157275D02*
X114308244Y-159109656D01*
X114308244Y-159109656D02*
X114355863Y-159062036D01*
X114355863Y-159062036D02*
X114355863Y-159157275D01*
X114355863Y-158538227D02*
X114403482Y-158585846D01*
X114403482Y-158585846D02*
X114355863Y-158633465D01*
X114355863Y-158633465D02*
X114308244Y-158585846D01*
X114308244Y-158585846D02*
X114355863Y-158538227D01*
X114355863Y-158538227D02*
X114355863Y-158633465D01*
X115546339Y-158871560D02*
X116022529Y-158871560D01*
X115451101Y-159157275D02*
X115784434Y-158157275D01*
X115784434Y-158157275D02*
X116117767Y-159157275D01*
X116451101Y-159157275D02*
X116451101Y-158157275D01*
X116451101Y-158157275D02*
X116832053Y-158157275D01*
X116832053Y-158157275D02*
X116927291Y-158204894D01*
X116927291Y-158204894D02*
X116974910Y-158252513D01*
X116974910Y-158252513D02*
X117022529Y-158347751D01*
X117022529Y-158347751D02*
X117022529Y-158490608D01*
X117022529Y-158490608D02*
X116974910Y-158585846D01*
X116974910Y-158585846D02*
X116927291Y-158633465D01*
X116927291Y-158633465D02*
X116832053Y-158681084D01*
X116832053Y-158681084D02*
X116451101Y-158681084D01*
X117403482Y-158871560D02*
X117879672Y-158871560D01*
X117308244Y-159157275D02*
X117641577Y-158157275D01*
X117641577Y-158157275D02*
X117974910Y-159157275D01*
X118832053Y-159157275D02*
X118260625Y-159157275D01*
X118546339Y-159157275D02*
X118546339Y-158157275D01*
X118546339Y-158157275D02*
X118451101Y-158300132D01*
X118451101Y-158300132D02*
X118355863Y-158395370D01*
X118355863Y-158395370D02*
X118260625Y-158442989D01*
X119451101Y-158157275D02*
X119546339Y-158157275D01*
X119546339Y-158157275D02*
X119641577Y-158204894D01*
X119641577Y-158204894D02*
X119689196Y-158252513D01*
X119689196Y-158252513D02*
X119736815Y-158347751D01*
X119736815Y-158347751D02*
X119784434Y-158538227D01*
X119784434Y-158538227D02*
X119784434Y-158776322D01*
X119784434Y-158776322D02*
X119736815Y-158966798D01*
X119736815Y-158966798D02*
X119689196Y-159062036D01*
X119689196Y-159062036D02*
X119641577Y-159109656D01*
X119641577Y-159109656D02*
X119546339Y-159157275D01*
X119546339Y-159157275D02*
X119451101Y-159157275D01*
X119451101Y-159157275D02*
X119355863Y-159109656D01*
X119355863Y-159109656D02*
X119308244Y-159062036D01*
X119308244Y-159062036D02*
X119260625Y-158966798D01*
X119260625Y-158966798D02*
X119213006Y-158776322D01*
X119213006Y-158776322D02*
X119213006Y-158538227D01*
X119213006Y-158538227D02*
X119260625Y-158347751D01*
X119260625Y-158347751D02*
X119308244Y-158252513D01*
X119308244Y-158252513D02*
X119355863Y-158204894D01*
X119355863Y-158204894D02*
X119451101Y-158157275D01*
X120165387Y-158252513D02*
X120213006Y-158204894D01*
X120213006Y-158204894D02*
X120308244Y-158157275D01*
X120308244Y-158157275D02*
X120546339Y-158157275D01*
X120546339Y-158157275D02*
X120641577Y-158204894D01*
X120641577Y-158204894D02*
X120689196Y-158252513D01*
X120689196Y-158252513D02*
X120736815Y-158347751D01*
X120736815Y-158347751D02*
X120736815Y-158442989D01*
X120736815Y-158442989D02*
X120689196Y-158585846D01*
X120689196Y-158585846D02*
X120117768Y-159157275D01*
X120117768Y-159157275D02*
X120736815Y-159157275D01*
X121165387Y-158776322D02*
X121927292Y-158776322D01*
X122355863Y-158252513D02*
X122403482Y-158204894D01*
X122403482Y-158204894D02*
X122498720Y-158157275D01*
X122498720Y-158157275D02*
X122736815Y-158157275D01*
X122736815Y-158157275D02*
X122832053Y-158204894D01*
X122832053Y-158204894D02*
X122879672Y-158252513D01*
X122879672Y-158252513D02*
X122927291Y-158347751D01*
X122927291Y-158347751D02*
X122927291Y-158442989D01*
X122927291Y-158442989D02*
X122879672Y-158585846D01*
X122879672Y-158585846D02*
X122308244Y-159157275D01*
X122308244Y-159157275D02*
X122927291Y-159157275D01*
X123546339Y-158157275D02*
X123641577Y-158157275D01*
X123641577Y-158157275D02*
X123736815Y-158204894D01*
X123736815Y-158204894D02*
X123784434Y-158252513D01*
X123784434Y-158252513D02*
X123832053Y-158347751D01*
X123832053Y-158347751D02*
X123879672Y-158538227D01*
X123879672Y-158538227D02*
X123879672Y-158776322D01*
X123879672Y-158776322D02*
X123832053Y-158966798D01*
X123832053Y-158966798D02*
X123784434Y-159062036D01*
X123784434Y-159062036D02*
X123736815Y-159109656D01*
X123736815Y-159109656D02*
X123641577Y-159157275D01*
X123641577Y-159157275D02*
X123546339Y-159157275D01*
X123546339Y-159157275D02*
X123451101Y-159109656D01*
X123451101Y-159109656D02*
X123403482Y-159062036D01*
X123403482Y-159062036D02*
X123355863Y-158966798D01*
X123355863Y-158966798D02*
X123308244Y-158776322D01*
X123308244Y-158776322D02*
X123308244Y-158538227D01*
X123308244Y-158538227D02*
X123355863Y-158347751D01*
X123355863Y-158347751D02*
X123403482Y-158252513D01*
X123403482Y-158252513D02*
X123451101Y-158204894D01*
X123451101Y-158204894D02*
X123546339Y-158157275D01*
X124260625Y-158252513D02*
X124308244Y-158204894D01*
X124308244Y-158204894D02*
X124403482Y-158157275D01*
X124403482Y-158157275D02*
X124641577Y-158157275D01*
X124641577Y-158157275D02*
X124736815Y-158204894D01*
X124736815Y-158204894D02*
X124784434Y-158252513D01*
X124784434Y-158252513D02*
X124832053Y-158347751D01*
X124832053Y-158347751D02*
X124832053Y-158442989D01*
X124832053Y-158442989D02*
X124784434Y-158585846D01*
X124784434Y-158585846D02*
X124213006Y-159157275D01*
X124213006Y-159157275D02*
X124832053Y-159157275D01*
X125451101Y-158157275D02*
X125546339Y-158157275D01*
X125546339Y-158157275D02*
X125641577Y-158204894D01*
X125641577Y-158204894D02*
X125689196Y-158252513D01*
X125689196Y-158252513D02*
X125736815Y-158347751D01*
X125736815Y-158347751D02*
X125784434Y-158538227D01*
X125784434Y-158538227D02*
X125784434Y-158776322D01*
X125784434Y-158776322D02*
X125736815Y-158966798D01*
X125736815Y-158966798D02*
X125689196Y-159062036D01*
X125689196Y-159062036D02*
X125641577Y-159109656D01*
X125641577Y-159109656D02*
X125546339Y-159157275D01*
X125546339Y-159157275D02*
X125451101Y-159157275D01*
X125451101Y-159157275D02*
X125355863Y-159109656D01*
X125355863Y-159109656D02*
X125308244Y-159062036D01*
X125308244Y-159062036D02*
X125260625Y-158966798D01*
X125260625Y-158966798D02*
X125213006Y-158776322D01*
X125213006Y-158776322D02*
X125213006Y-158538227D01*
X125213006Y-158538227D02*
X125260625Y-158347751D01*
X125260625Y-158347751D02*
X125308244Y-158252513D01*
X125308244Y-158252513D02*
X125355863Y-158204894D01*
X125355863Y-158204894D02*
X125451101Y-158157275D01*
X113355863Y-160767219D02*
X112879673Y-160767219D01*
X112879673Y-160767219D02*
X112879673Y-159767219D01*
X113689197Y-160243409D02*
X114022530Y-160243409D01*
X114165387Y-160767219D02*
X113689197Y-160767219D01*
X113689197Y-160767219D02*
X113689197Y-159767219D01*
X113689197Y-159767219D02*
X114165387Y-159767219D01*
X114593959Y-160767219D02*
X114593959Y-159767219D01*
X114593959Y-159767219D02*
X115165387Y-160767219D01*
X115165387Y-160767219D02*
X115165387Y-159767219D01*
X116165387Y-159814838D02*
X116070149Y-159767219D01*
X116070149Y-159767219D02*
X115927292Y-159767219D01*
X115927292Y-159767219D02*
X115784435Y-159814838D01*
X115784435Y-159814838D02*
X115689197Y-159910076D01*
X115689197Y-159910076D02*
X115641578Y-160005314D01*
X115641578Y-160005314D02*
X115593959Y-160195790D01*
X115593959Y-160195790D02*
X115593959Y-160338647D01*
X115593959Y-160338647D02*
X115641578Y-160529123D01*
X115641578Y-160529123D02*
X115689197Y-160624361D01*
X115689197Y-160624361D02*
X115784435Y-160719600D01*
X115784435Y-160719600D02*
X115927292Y-160767219D01*
X115927292Y-160767219D02*
X116022530Y-160767219D01*
X116022530Y-160767219D02*
X116165387Y-160719600D01*
X116165387Y-160719600D02*
X116213006Y-160671980D01*
X116213006Y-160671980D02*
X116213006Y-160338647D01*
X116213006Y-160338647D02*
X116022530Y-160338647D01*
X116498721Y-159767219D02*
X117070149Y-159767219D01*
X116784435Y-160767219D02*
X116784435Y-159767219D01*
X117403483Y-160767219D02*
X117403483Y-159767219D01*
X117403483Y-160243409D02*
X117974911Y-160243409D01*
X117974911Y-160767219D02*
X117974911Y-159767219D01*
X118451102Y-160671980D02*
X118498721Y-160719600D01*
X118498721Y-160719600D02*
X118451102Y-160767219D01*
X118451102Y-160767219D02*
X118403483Y-160719600D01*
X118403483Y-160719600D02*
X118451102Y-160671980D01*
X118451102Y-160671980D02*
X118451102Y-160767219D01*
X118451102Y-160148171D02*
X118498721Y-160195790D01*
X118498721Y-160195790D02*
X118451102Y-160243409D01*
X118451102Y-160243409D02*
X118403483Y-160195790D01*
X118403483Y-160195790D02*
X118451102Y-160148171D01*
X118451102Y-160148171D02*
X118451102Y-160243409D01*
X120117768Y-160100552D02*
X120117768Y-160767219D01*
X119879673Y-159719600D02*
X119641578Y-160433885D01*
X119641578Y-160433885D02*
X120260625Y-160433885D01*
X120832054Y-159767219D02*
X120927292Y-159767219D01*
X120927292Y-159767219D02*
X121022530Y-159814838D01*
X121022530Y-159814838D02*
X121070149Y-159862457D01*
X121070149Y-159862457D02*
X121117768Y-159957695D01*
X121117768Y-159957695D02*
X121165387Y-160148171D01*
X121165387Y-160148171D02*
X121165387Y-160386266D01*
X121165387Y-160386266D02*
X121117768Y-160576742D01*
X121117768Y-160576742D02*
X121070149Y-160671980D01*
X121070149Y-160671980D02*
X121022530Y-160719600D01*
X121022530Y-160719600D02*
X120927292Y-160767219D01*
X120927292Y-160767219D02*
X120832054Y-160767219D01*
X120832054Y-160767219D02*
X120736816Y-160719600D01*
X120736816Y-160719600D02*
X120689197Y-160671980D01*
X120689197Y-160671980D02*
X120641578Y-160576742D01*
X120641578Y-160576742D02*
X120593959Y-160386266D01*
X120593959Y-160386266D02*
X120593959Y-160148171D01*
X120593959Y-160148171D02*
X120641578Y-159957695D01*
X120641578Y-159957695D02*
X120689197Y-159862457D01*
X120689197Y-159862457D02*
X120736816Y-159814838D01*
X120736816Y-159814838D02*
X120832054Y-159767219D01*
X72945863Y-157547331D02*
X72469673Y-157547331D01*
X72469673Y-157547331D02*
X72469673Y-156547331D01*
X73279197Y-157023521D02*
X73612530Y-157023521D01*
X73755387Y-157547331D02*
X73279197Y-157547331D01*
X73279197Y-157547331D02*
X73279197Y-156547331D01*
X73279197Y-156547331D02*
X73755387Y-156547331D01*
X74183959Y-157547331D02*
X74183959Y-156547331D01*
X74183959Y-156547331D02*
X74422054Y-156547331D01*
X74422054Y-156547331D02*
X74564911Y-156594950D01*
X74564911Y-156594950D02*
X74660149Y-156690188D01*
X74660149Y-156690188D02*
X74707768Y-156785426D01*
X74707768Y-156785426D02*
X74755387Y-156975902D01*
X74755387Y-156975902D02*
X74755387Y-157118759D01*
X74755387Y-157118759D02*
X74707768Y-157309235D01*
X74707768Y-157309235D02*
X74660149Y-157404473D01*
X74660149Y-157404473D02*
X74564911Y-157499712D01*
X74564911Y-157499712D02*
X74422054Y-157547331D01*
X74422054Y-157547331D02*
X74183959Y-157547331D01*
X76279197Y-157023521D02*
X75945864Y-157023521D01*
X75945864Y-157547331D02*
X75945864Y-156547331D01*
X75945864Y-156547331D02*
X76422054Y-156547331D01*
X76755388Y-157261616D02*
X77231578Y-157261616D01*
X76660150Y-157547331D02*
X76993483Y-156547331D01*
X76993483Y-156547331D02*
X77326816Y-157547331D01*
X78231578Y-157452092D02*
X78183959Y-157499712D01*
X78183959Y-157499712D02*
X78041102Y-157547331D01*
X78041102Y-157547331D02*
X77945864Y-157547331D01*
X77945864Y-157547331D02*
X77803007Y-157499712D01*
X77803007Y-157499712D02*
X77707769Y-157404473D01*
X77707769Y-157404473D02*
X77660150Y-157309235D01*
X77660150Y-157309235D02*
X77612531Y-157118759D01*
X77612531Y-157118759D02*
X77612531Y-156975902D01*
X77612531Y-156975902D02*
X77660150Y-156785426D01*
X77660150Y-156785426D02*
X77707769Y-156690188D01*
X77707769Y-156690188D02*
X77803007Y-156594950D01*
X77803007Y-156594950D02*
X77945864Y-156547331D01*
X77945864Y-156547331D02*
X78041102Y-156547331D01*
X78041102Y-156547331D02*
X78183959Y-156594950D01*
X78183959Y-156594950D02*
X78231578Y-156642569D01*
X78517293Y-156547331D02*
X79088721Y-156547331D01*
X78803007Y-157547331D02*
X78803007Y-156547331D01*
X79612531Y-156547331D02*
X79803007Y-156547331D01*
X79803007Y-156547331D02*
X79898245Y-156594950D01*
X79898245Y-156594950D02*
X79993483Y-156690188D01*
X79993483Y-156690188D02*
X80041102Y-156880664D01*
X80041102Y-156880664D02*
X80041102Y-157213997D01*
X80041102Y-157213997D02*
X79993483Y-157404473D01*
X79993483Y-157404473D02*
X79898245Y-157499712D01*
X79898245Y-157499712D02*
X79803007Y-157547331D01*
X79803007Y-157547331D02*
X79612531Y-157547331D01*
X79612531Y-157547331D02*
X79517293Y-157499712D01*
X79517293Y-157499712D02*
X79422055Y-157404473D01*
X79422055Y-157404473D02*
X79374436Y-157213997D01*
X79374436Y-157213997D02*
X79374436Y-156880664D01*
X79374436Y-156880664D02*
X79422055Y-156690188D01*
X79422055Y-156690188D02*
X79517293Y-156594950D01*
X79517293Y-156594950D02*
X79612531Y-156547331D01*
X81041102Y-157547331D02*
X80707769Y-157071140D01*
X80469674Y-157547331D02*
X80469674Y-156547331D01*
X80469674Y-156547331D02*
X80850626Y-156547331D01*
X80850626Y-156547331D02*
X80945864Y-156594950D01*
X80945864Y-156594950D02*
X80993483Y-156642569D01*
X80993483Y-156642569D02*
X81041102Y-156737807D01*
X81041102Y-156737807D02*
X81041102Y-156880664D01*
X81041102Y-156880664D02*
X80993483Y-156975902D01*
X80993483Y-156975902D02*
X80945864Y-157023521D01*
X80945864Y-157023521D02*
X80850626Y-157071140D01*
X80850626Y-157071140D02*
X80469674Y-157071140D01*
X81660150Y-157071140D02*
X81660150Y-157547331D01*
X81326817Y-156547331D02*
X81660150Y-157071140D01*
X81660150Y-157071140D02*
X81993483Y-156547331D01*
X82945865Y-156547331D02*
X83517293Y-156547331D01*
X83231579Y-157547331D02*
X83231579Y-156547331D01*
X83850627Y-157023521D02*
X84183960Y-157023521D01*
X84326817Y-157547331D02*
X83850627Y-157547331D01*
X83850627Y-157547331D02*
X83850627Y-156547331D01*
X83850627Y-156547331D02*
X84326817Y-156547331D01*
X84707770Y-157499712D02*
X84850627Y-157547331D01*
X84850627Y-157547331D02*
X85088722Y-157547331D01*
X85088722Y-157547331D02*
X85183960Y-157499712D01*
X85183960Y-157499712D02*
X85231579Y-157452092D01*
X85231579Y-157452092D02*
X85279198Y-157356854D01*
X85279198Y-157356854D02*
X85279198Y-157261616D01*
X85279198Y-157261616D02*
X85231579Y-157166378D01*
X85231579Y-157166378D02*
X85183960Y-157118759D01*
X85183960Y-157118759D02*
X85088722Y-157071140D01*
X85088722Y-157071140D02*
X84898246Y-157023521D01*
X84898246Y-157023521D02*
X84803008Y-156975902D01*
X84803008Y-156975902D02*
X84755389Y-156928283D01*
X84755389Y-156928283D02*
X84707770Y-156833045D01*
X84707770Y-156833045D02*
X84707770Y-156737807D01*
X84707770Y-156737807D02*
X84755389Y-156642569D01*
X84755389Y-156642569D02*
X84803008Y-156594950D01*
X84803008Y-156594950D02*
X84898246Y-156547331D01*
X84898246Y-156547331D02*
X85136341Y-156547331D01*
X85136341Y-156547331D02*
X85279198Y-156594950D01*
X85564913Y-156547331D02*
X86136341Y-156547331D01*
X85850627Y-157547331D02*
X85850627Y-156547331D01*
X72469673Y-159157275D02*
X72469673Y-158157275D01*
X73517291Y-159062036D02*
X73469672Y-159109656D01*
X73469672Y-159109656D02*
X73326815Y-159157275D01*
X73326815Y-159157275D02*
X73231577Y-159157275D01*
X73231577Y-159157275D02*
X73088720Y-159109656D01*
X73088720Y-159109656D02*
X72993482Y-159014417D01*
X72993482Y-159014417D02*
X72945863Y-158919179D01*
X72945863Y-158919179D02*
X72898244Y-158728703D01*
X72898244Y-158728703D02*
X72898244Y-158585846D01*
X72898244Y-158585846D02*
X72945863Y-158395370D01*
X72945863Y-158395370D02*
X72993482Y-158300132D01*
X72993482Y-158300132D02*
X73088720Y-158204894D01*
X73088720Y-158204894D02*
X73231577Y-158157275D01*
X73231577Y-158157275D02*
X73326815Y-158157275D01*
X73326815Y-158157275D02*
X73469672Y-158204894D01*
X73469672Y-158204894D02*
X73517291Y-158252513D01*
X73945863Y-159062036D02*
X73993482Y-159109656D01*
X73993482Y-159109656D02*
X73945863Y-159157275D01*
X73945863Y-159157275D02*
X73898244Y-159109656D01*
X73898244Y-159109656D02*
X73945863Y-159062036D01*
X73945863Y-159062036D02*
X73945863Y-159157275D01*
X73945863Y-158538227D02*
X73993482Y-158585846D01*
X73993482Y-158585846D02*
X73945863Y-158633465D01*
X73945863Y-158633465D02*
X73898244Y-158585846D01*
X73898244Y-158585846D02*
X73945863Y-158538227D01*
X73945863Y-158538227D02*
X73945863Y-158633465D01*
X75136339Y-158871560D02*
X75612529Y-158871560D01*
X75041101Y-159157275D02*
X75374434Y-158157275D01*
X75374434Y-158157275D02*
X75707767Y-159157275D01*
X76041101Y-159157275D02*
X76041101Y-158157275D01*
X76041101Y-158157275D02*
X76422053Y-158157275D01*
X76422053Y-158157275D02*
X76517291Y-158204894D01*
X76517291Y-158204894D02*
X76564910Y-158252513D01*
X76564910Y-158252513D02*
X76612529Y-158347751D01*
X76612529Y-158347751D02*
X76612529Y-158490608D01*
X76612529Y-158490608D02*
X76564910Y-158585846D01*
X76564910Y-158585846D02*
X76517291Y-158633465D01*
X76517291Y-158633465D02*
X76422053Y-158681084D01*
X76422053Y-158681084D02*
X76041101Y-158681084D01*
X76993482Y-158871560D02*
X77469672Y-158871560D01*
X76898244Y-159157275D02*
X77231577Y-158157275D01*
X77231577Y-158157275D02*
X77564910Y-159157275D01*
X78422053Y-159157275D02*
X77850625Y-159157275D01*
X78136339Y-159157275D02*
X78136339Y-158157275D01*
X78136339Y-158157275D02*
X78041101Y-158300132D01*
X78041101Y-158300132D02*
X77945863Y-158395370D01*
X77945863Y-158395370D02*
X77850625Y-158442989D01*
X79041101Y-158157275D02*
X79136339Y-158157275D01*
X79136339Y-158157275D02*
X79231577Y-158204894D01*
X79231577Y-158204894D02*
X79279196Y-158252513D01*
X79279196Y-158252513D02*
X79326815Y-158347751D01*
X79326815Y-158347751D02*
X79374434Y-158538227D01*
X79374434Y-158538227D02*
X79374434Y-158776322D01*
X79374434Y-158776322D02*
X79326815Y-158966798D01*
X79326815Y-158966798D02*
X79279196Y-159062036D01*
X79279196Y-159062036D02*
X79231577Y-159109656D01*
X79231577Y-159109656D02*
X79136339Y-159157275D01*
X79136339Y-159157275D02*
X79041101Y-159157275D01*
X79041101Y-159157275D02*
X78945863Y-159109656D01*
X78945863Y-159109656D02*
X78898244Y-159062036D01*
X78898244Y-159062036D02*
X78850625Y-158966798D01*
X78850625Y-158966798D02*
X78803006Y-158776322D01*
X78803006Y-158776322D02*
X78803006Y-158538227D01*
X78803006Y-158538227D02*
X78850625Y-158347751D01*
X78850625Y-158347751D02*
X78898244Y-158252513D01*
X78898244Y-158252513D02*
X78945863Y-158204894D01*
X78945863Y-158204894D02*
X79041101Y-158157275D01*
X79755387Y-158252513D02*
X79803006Y-158204894D01*
X79803006Y-158204894D02*
X79898244Y-158157275D01*
X79898244Y-158157275D02*
X80136339Y-158157275D01*
X80136339Y-158157275D02*
X80231577Y-158204894D01*
X80231577Y-158204894D02*
X80279196Y-158252513D01*
X80279196Y-158252513D02*
X80326815Y-158347751D01*
X80326815Y-158347751D02*
X80326815Y-158442989D01*
X80326815Y-158442989D02*
X80279196Y-158585846D01*
X80279196Y-158585846D02*
X79707768Y-159157275D01*
X79707768Y-159157275D02*
X80326815Y-159157275D01*
X80755387Y-158776322D02*
X81517292Y-158776322D01*
X81945863Y-158252513D02*
X81993482Y-158204894D01*
X81993482Y-158204894D02*
X82088720Y-158157275D01*
X82088720Y-158157275D02*
X82326815Y-158157275D01*
X82326815Y-158157275D02*
X82422053Y-158204894D01*
X82422053Y-158204894D02*
X82469672Y-158252513D01*
X82469672Y-158252513D02*
X82517291Y-158347751D01*
X82517291Y-158347751D02*
X82517291Y-158442989D01*
X82517291Y-158442989D02*
X82469672Y-158585846D01*
X82469672Y-158585846D02*
X81898244Y-159157275D01*
X81898244Y-159157275D02*
X82517291Y-159157275D01*
X83136339Y-158157275D02*
X83231577Y-158157275D01*
X83231577Y-158157275D02*
X83326815Y-158204894D01*
X83326815Y-158204894D02*
X83374434Y-158252513D01*
X83374434Y-158252513D02*
X83422053Y-158347751D01*
X83422053Y-158347751D02*
X83469672Y-158538227D01*
X83469672Y-158538227D02*
X83469672Y-158776322D01*
X83469672Y-158776322D02*
X83422053Y-158966798D01*
X83422053Y-158966798D02*
X83374434Y-159062036D01*
X83374434Y-159062036D02*
X83326815Y-159109656D01*
X83326815Y-159109656D02*
X83231577Y-159157275D01*
X83231577Y-159157275D02*
X83136339Y-159157275D01*
X83136339Y-159157275D02*
X83041101Y-159109656D01*
X83041101Y-159109656D02*
X82993482Y-159062036D01*
X82993482Y-159062036D02*
X82945863Y-158966798D01*
X82945863Y-158966798D02*
X82898244Y-158776322D01*
X82898244Y-158776322D02*
X82898244Y-158538227D01*
X82898244Y-158538227D02*
X82945863Y-158347751D01*
X82945863Y-158347751D02*
X82993482Y-158252513D01*
X82993482Y-158252513D02*
X83041101Y-158204894D01*
X83041101Y-158204894D02*
X83136339Y-158157275D01*
X83850625Y-158252513D02*
X83898244Y-158204894D01*
X83898244Y-158204894D02*
X83993482Y-158157275D01*
X83993482Y-158157275D02*
X84231577Y-158157275D01*
X84231577Y-158157275D02*
X84326815Y-158204894D01*
X84326815Y-158204894D02*
X84374434Y-158252513D01*
X84374434Y-158252513D02*
X84422053Y-158347751D01*
X84422053Y-158347751D02*
X84422053Y-158442989D01*
X84422053Y-158442989D02*
X84374434Y-158585846D01*
X84374434Y-158585846D02*
X83803006Y-159157275D01*
X83803006Y-159157275D02*
X84422053Y-159157275D01*
X85041101Y-158157275D02*
X85136339Y-158157275D01*
X85136339Y-158157275D02*
X85231577Y-158204894D01*
X85231577Y-158204894D02*
X85279196Y-158252513D01*
X85279196Y-158252513D02*
X85326815Y-158347751D01*
X85326815Y-158347751D02*
X85374434Y-158538227D01*
X85374434Y-158538227D02*
X85374434Y-158776322D01*
X85374434Y-158776322D02*
X85326815Y-158966798D01*
X85326815Y-158966798D02*
X85279196Y-159062036D01*
X85279196Y-159062036D02*
X85231577Y-159109656D01*
X85231577Y-159109656D02*
X85136339Y-159157275D01*
X85136339Y-159157275D02*
X85041101Y-159157275D01*
X85041101Y-159157275D02*
X84945863Y-159109656D01*
X84945863Y-159109656D02*
X84898244Y-159062036D01*
X84898244Y-159062036D02*
X84850625Y-158966798D01*
X84850625Y-158966798D02*
X84803006Y-158776322D01*
X84803006Y-158776322D02*
X84803006Y-158538227D01*
X84803006Y-158538227D02*
X84850625Y-158347751D01*
X84850625Y-158347751D02*
X84898244Y-158252513D01*
X84898244Y-158252513D02*
X84945863Y-158204894D01*
X84945863Y-158204894D02*
X85041101Y-158157275D01*
X72945863Y-160767219D02*
X72469673Y-160767219D01*
X72469673Y-160767219D02*
X72469673Y-159767219D01*
X73279197Y-160243409D02*
X73612530Y-160243409D01*
X73755387Y-160767219D02*
X73279197Y-160767219D01*
X73279197Y-160767219D02*
X73279197Y-159767219D01*
X73279197Y-159767219D02*
X73755387Y-159767219D01*
X74183959Y-160767219D02*
X74183959Y-159767219D01*
X74183959Y-159767219D02*
X74755387Y-160767219D01*
X74755387Y-160767219D02*
X74755387Y-159767219D01*
X75755387Y-159814838D02*
X75660149Y-159767219D01*
X75660149Y-159767219D02*
X75517292Y-159767219D01*
X75517292Y-159767219D02*
X75374435Y-159814838D01*
X75374435Y-159814838D02*
X75279197Y-159910076D01*
X75279197Y-159910076D02*
X75231578Y-160005314D01*
X75231578Y-160005314D02*
X75183959Y-160195790D01*
X75183959Y-160195790D02*
X75183959Y-160338647D01*
X75183959Y-160338647D02*
X75231578Y-160529123D01*
X75231578Y-160529123D02*
X75279197Y-160624361D01*
X75279197Y-160624361D02*
X75374435Y-160719600D01*
X75374435Y-160719600D02*
X75517292Y-160767219D01*
X75517292Y-160767219D02*
X75612530Y-160767219D01*
X75612530Y-160767219D02*
X75755387Y-160719600D01*
X75755387Y-160719600D02*
X75803006Y-160671980D01*
X75803006Y-160671980D02*
X75803006Y-160338647D01*
X75803006Y-160338647D02*
X75612530Y-160338647D01*
X76088721Y-159767219D02*
X76660149Y-159767219D01*
X76374435Y-160767219D02*
X76374435Y-159767219D01*
X76993483Y-160767219D02*
X76993483Y-159767219D01*
X76993483Y-160243409D02*
X77564911Y-160243409D01*
X77564911Y-160767219D02*
X77564911Y-159767219D01*
X78041102Y-160671980D02*
X78088721Y-160719600D01*
X78088721Y-160719600D02*
X78041102Y-160767219D01*
X78041102Y-160767219D02*
X77993483Y-160719600D01*
X77993483Y-160719600D02*
X78041102Y-160671980D01*
X78041102Y-160671980D02*
X78041102Y-160767219D01*
X78041102Y-160148171D02*
X78088721Y-160195790D01*
X78088721Y-160195790D02*
X78041102Y-160243409D01*
X78041102Y-160243409D02*
X77993483Y-160195790D01*
X77993483Y-160195790D02*
X78041102Y-160148171D01*
X78041102Y-160148171D02*
X78041102Y-160243409D01*
X79707768Y-160100552D02*
X79707768Y-160767219D01*
X79469673Y-159719600D02*
X79231578Y-160433885D01*
X79231578Y-160433885D02*
X79850625Y-160433885D01*
X80422054Y-159767219D02*
X80517292Y-159767219D01*
X80517292Y-159767219D02*
X80612530Y-159814838D01*
X80612530Y-159814838D02*
X80660149Y-159862457D01*
X80660149Y-159862457D02*
X80707768Y-159957695D01*
X80707768Y-159957695D02*
X80755387Y-160148171D01*
X80755387Y-160148171D02*
X80755387Y-160386266D01*
X80755387Y-160386266D02*
X80707768Y-160576742D01*
X80707768Y-160576742D02*
X80660149Y-160671980D01*
X80660149Y-160671980D02*
X80612530Y-160719600D01*
X80612530Y-160719600D02*
X80517292Y-160767219D01*
X80517292Y-160767219D02*
X80422054Y-160767219D01*
X80422054Y-160767219D02*
X80326816Y-160719600D01*
X80326816Y-160719600D02*
X80279197Y-160671980D01*
X80279197Y-160671980D02*
X80231578Y-160576742D01*
X80231578Y-160576742D02*
X80183959Y-160386266D01*
X80183959Y-160386266D02*
X80183959Y-160148171D01*
X80183959Y-160148171D02*
X80231578Y-159957695D01*
X80231578Y-159957695D02*
X80279197Y-159862457D01*
X80279197Y-159862457D02*
X80326816Y-159814838D01*
X80326816Y-159814838D02*
X80422054Y-159767219D01*
X108414600Y-158277945D02*
X108462219Y-158135088D01*
X108462219Y-158135088D02*
X108462219Y-157896993D01*
X108462219Y-157896993D02*
X108414600Y-157801755D01*
X108414600Y-157801755D02*
X108366980Y-157754136D01*
X108366980Y-157754136D02*
X108271742Y-157706517D01*
X108271742Y-157706517D02*
X108176504Y-157706517D01*
X108176504Y-157706517D02*
X108081266Y-157754136D01*
X108081266Y-157754136D02*
X108033647Y-157801755D01*
X108033647Y-157801755D02*
X107986028Y-157896993D01*
X107986028Y-157896993D02*
X107938409Y-158087469D01*
X107938409Y-158087469D02*
X107890790Y-158182707D01*
X107890790Y-158182707D02*
X107843171Y-158230326D01*
X107843171Y-158230326D02*
X107747933Y-158277945D01*
X107747933Y-158277945D02*
X107652695Y-158277945D01*
X107652695Y-158277945D02*
X107557457Y-158230326D01*
X107557457Y-158230326D02*
X107509838Y-158182707D01*
X107509838Y-158182707D02*
X107462219Y-158087469D01*
X107462219Y-158087469D02*
X107462219Y-157849374D01*
X107462219Y-157849374D02*
X107509838Y-157706517D01*
X108462219Y-157277945D02*
X107462219Y-157277945D01*
X107462219Y-157277945D02*
X107462219Y-157039850D01*
X107462219Y-157039850D02*
X107509838Y-156896993D01*
X107509838Y-156896993D02*
X107605076Y-156801755D01*
X107605076Y-156801755D02*
X107700314Y-156754136D01*
X107700314Y-156754136D02*
X107890790Y-156706517D01*
X107890790Y-156706517D02*
X108033647Y-156706517D01*
X108033647Y-156706517D02*
X108224123Y-156754136D01*
X108224123Y-156754136D02*
X108319361Y-156801755D01*
X108319361Y-156801755D02*
X108414600Y-156896993D01*
X108414600Y-156896993D02*
X108462219Y-157039850D01*
X108462219Y-157039850D02*
X108462219Y-157277945D01*
X108462219Y-156277945D02*
X107462219Y-156277945D01*
X65456980Y-157658898D02*
X65504600Y-157706517D01*
X65504600Y-157706517D02*
X65552219Y-157849374D01*
X65552219Y-157849374D02*
X65552219Y-157944612D01*
X65552219Y-157944612D02*
X65504600Y-158087469D01*
X65504600Y-158087469D02*
X65409361Y-158182707D01*
X65409361Y-158182707D02*
X65314123Y-158230326D01*
X65314123Y-158230326D02*
X65123647Y-158277945D01*
X65123647Y-158277945D02*
X64980790Y-158277945D01*
X64980790Y-158277945D02*
X64790314Y-158230326D01*
X64790314Y-158230326D02*
X64695076Y-158182707D01*
X64695076Y-158182707D02*
X64599838Y-158087469D01*
X64599838Y-158087469D02*
X64552219Y-157944612D01*
X64552219Y-157944612D02*
X64552219Y-157849374D01*
X64552219Y-157849374D02*
X64599838Y-157706517D01*
X64599838Y-157706517D02*
X64647457Y-157658898D01*
X65552219Y-157230326D02*
X64552219Y-157230326D01*
X65552219Y-156658898D02*
X64980790Y-157087469D01*
X64552219Y-156658898D02*
X65123647Y-157230326D01*
X65552219Y-156230326D02*
X64552219Y-156230326D01*
X110109838Y-157806517D02*
X110062219Y-157901755D01*
X110062219Y-157901755D02*
X110062219Y-158044612D01*
X110062219Y-158044612D02*
X110109838Y-158187469D01*
X110109838Y-158187469D02*
X110205076Y-158282707D01*
X110205076Y-158282707D02*
X110300314Y-158330326D01*
X110300314Y-158330326D02*
X110490790Y-158377945D01*
X110490790Y-158377945D02*
X110633647Y-158377945D01*
X110633647Y-158377945D02*
X110824123Y-158330326D01*
X110824123Y-158330326D02*
X110919361Y-158282707D01*
X110919361Y-158282707D02*
X111014600Y-158187469D01*
X111014600Y-158187469D02*
X111062219Y-158044612D01*
X111062219Y-158044612D02*
X111062219Y-157949374D01*
X111062219Y-157949374D02*
X111014600Y-157806517D01*
X111014600Y-157806517D02*
X110966980Y-157758898D01*
X110966980Y-157758898D02*
X110633647Y-157758898D01*
X110633647Y-157758898D02*
X110633647Y-157949374D01*
X111062219Y-157330326D02*
X110062219Y-157330326D01*
X110062219Y-157330326D02*
X111062219Y-156758898D01*
X111062219Y-156758898D02*
X110062219Y-156758898D01*
X111062219Y-156282707D02*
X110062219Y-156282707D01*
X110062219Y-156282707D02*
X110062219Y-156044612D01*
X110062219Y-156044612D02*
X110109838Y-155901755D01*
X110109838Y-155901755D02*
X110205076Y-155806517D01*
X110205076Y-155806517D02*
X110300314Y-155758898D01*
X110300314Y-155758898D02*
X110490790Y-155711279D01*
X110490790Y-155711279D02*
X110633647Y-155711279D01*
X110633647Y-155711279D02*
X110824123Y-155758898D01*
X110824123Y-155758898D02*
X110919361Y-155806517D01*
X110919361Y-155806517D02*
X111014600Y-155901755D01*
X111014600Y-155901755D02*
X111062219Y-156044612D01*
X111062219Y-156044612D02*
X111062219Y-156282707D01*
X68004600Y-158277945D02*
X68052219Y-158135088D01*
X68052219Y-158135088D02*
X68052219Y-157896993D01*
X68052219Y-157896993D02*
X68004600Y-157801755D01*
X68004600Y-157801755D02*
X67956980Y-157754136D01*
X67956980Y-157754136D02*
X67861742Y-157706517D01*
X67861742Y-157706517D02*
X67766504Y-157706517D01*
X67766504Y-157706517D02*
X67671266Y-157754136D01*
X67671266Y-157754136D02*
X67623647Y-157801755D01*
X67623647Y-157801755D02*
X67576028Y-157896993D01*
X67576028Y-157896993D02*
X67528409Y-158087469D01*
X67528409Y-158087469D02*
X67480790Y-158182707D01*
X67480790Y-158182707D02*
X67433171Y-158230326D01*
X67433171Y-158230326D02*
X67337933Y-158277945D01*
X67337933Y-158277945D02*
X67242695Y-158277945D01*
X67242695Y-158277945D02*
X67147457Y-158230326D01*
X67147457Y-158230326D02*
X67099838Y-158182707D01*
X67099838Y-158182707D02*
X67052219Y-158087469D01*
X67052219Y-158087469D02*
X67052219Y-157849374D01*
X67052219Y-157849374D02*
X67099838Y-157706517D01*
X68052219Y-157277945D02*
X67052219Y-157277945D01*
X67052219Y-157277945D02*
X67052219Y-157039850D01*
X67052219Y-157039850D02*
X67099838Y-156896993D01*
X67099838Y-156896993D02*
X67195076Y-156801755D01*
X67195076Y-156801755D02*
X67290314Y-156754136D01*
X67290314Y-156754136D02*
X67480790Y-156706517D01*
X67480790Y-156706517D02*
X67623647Y-156706517D01*
X67623647Y-156706517D02*
X67814123Y-156754136D01*
X67814123Y-156754136D02*
X67909361Y-156801755D01*
X67909361Y-156801755D02*
X68004600Y-156896993D01*
X68004600Y-156896993D02*
X68052219Y-157039850D01*
X68052219Y-157039850D02*
X68052219Y-157277945D01*
X68052219Y-156277945D02*
X67052219Y-156277945D01*
X62052219Y-157754136D02*
X62052219Y-158230326D01*
X62052219Y-158230326D02*
X62528409Y-158277945D01*
X62528409Y-158277945D02*
X62480790Y-158230326D01*
X62480790Y-158230326D02*
X62433171Y-158135088D01*
X62433171Y-158135088D02*
X62433171Y-157896993D01*
X62433171Y-157896993D02*
X62480790Y-157801755D01*
X62480790Y-157801755D02*
X62528409Y-157754136D01*
X62528409Y-157754136D02*
X62623647Y-157706517D01*
X62623647Y-157706517D02*
X62861742Y-157706517D01*
X62861742Y-157706517D02*
X62956980Y-157754136D01*
X62956980Y-157754136D02*
X63004600Y-157801755D01*
X63004600Y-157801755D02*
X63052219Y-157896993D01*
X63052219Y-157896993D02*
X63052219Y-158135088D01*
X63052219Y-158135088D02*
X63004600Y-158230326D01*
X63004600Y-158230326D02*
X62956980Y-158277945D01*
X62052219Y-157420802D02*
X63052219Y-157087469D01*
X63052219Y-157087469D02*
X62052219Y-156754136D01*
X69699838Y-157806517D02*
X69652219Y-157901755D01*
X69652219Y-157901755D02*
X69652219Y-158044612D01*
X69652219Y-158044612D02*
X69699838Y-158187469D01*
X69699838Y-158187469D02*
X69795076Y-158282707D01*
X69795076Y-158282707D02*
X69890314Y-158330326D01*
X69890314Y-158330326D02*
X70080790Y-158377945D01*
X70080790Y-158377945D02*
X70223647Y-158377945D01*
X70223647Y-158377945D02*
X70414123Y-158330326D01*
X70414123Y-158330326D02*
X70509361Y-158282707D01*
X70509361Y-158282707D02*
X70604600Y-158187469D01*
X70604600Y-158187469D02*
X70652219Y-158044612D01*
X70652219Y-158044612D02*
X70652219Y-157949374D01*
X70652219Y-157949374D02*
X70604600Y-157806517D01*
X70604600Y-157806517D02*
X70556980Y-157758898D01*
X70556980Y-157758898D02*
X70223647Y-157758898D01*
X70223647Y-157758898D02*
X70223647Y-157949374D01*
X70652219Y-157330326D02*
X69652219Y-157330326D01*
X69652219Y-157330326D02*
X70652219Y-156758898D01*
X70652219Y-156758898D02*
X69652219Y-156758898D01*
X70652219Y-156282707D02*
X69652219Y-156282707D01*
X69652219Y-156282707D02*
X69652219Y-156044612D01*
X69652219Y-156044612D02*
X69699838Y-155901755D01*
X69699838Y-155901755D02*
X69795076Y-155806517D01*
X69795076Y-155806517D02*
X69890314Y-155758898D01*
X69890314Y-155758898D02*
X70080790Y-155711279D01*
X70080790Y-155711279D02*
X70223647Y-155711279D01*
X70223647Y-155711279D02*
X70414123Y-155758898D01*
X70414123Y-155758898D02*
X70509361Y-155806517D01*
X70509361Y-155806517D02*
X70604600Y-155901755D01*
X70604600Y-155901755D02*
X70652219Y-156044612D01*
X70652219Y-156044612D02*
X70652219Y-156282707D01*
X105866980Y-157658898D02*
X105914600Y-157706517D01*
X105914600Y-157706517D02*
X105962219Y-157849374D01*
X105962219Y-157849374D02*
X105962219Y-157944612D01*
X105962219Y-157944612D02*
X105914600Y-158087469D01*
X105914600Y-158087469D02*
X105819361Y-158182707D01*
X105819361Y-158182707D02*
X105724123Y-158230326D01*
X105724123Y-158230326D02*
X105533647Y-158277945D01*
X105533647Y-158277945D02*
X105390790Y-158277945D01*
X105390790Y-158277945D02*
X105200314Y-158230326D01*
X105200314Y-158230326D02*
X105105076Y-158182707D01*
X105105076Y-158182707D02*
X105009838Y-158087469D01*
X105009838Y-158087469D02*
X104962219Y-157944612D01*
X104962219Y-157944612D02*
X104962219Y-157849374D01*
X104962219Y-157849374D02*
X105009838Y-157706517D01*
X105009838Y-157706517D02*
X105057457Y-157658898D01*
X105962219Y-157230326D02*
X104962219Y-157230326D01*
X105962219Y-156658898D02*
X105390790Y-157087469D01*
X104962219Y-156658898D02*
X105533647Y-157230326D01*
X105962219Y-156230326D02*
X104962219Y-156230326D01*
X102462219Y-157754136D02*
X102462219Y-158230326D01*
X102462219Y-158230326D02*
X102938409Y-158277945D01*
X102938409Y-158277945D02*
X102890790Y-158230326D01*
X102890790Y-158230326D02*
X102843171Y-158135088D01*
X102843171Y-158135088D02*
X102843171Y-157896993D01*
X102843171Y-157896993D02*
X102890790Y-157801755D01*
X102890790Y-157801755D02*
X102938409Y-157754136D01*
X102938409Y-157754136D02*
X103033647Y-157706517D01*
X103033647Y-157706517D02*
X103271742Y-157706517D01*
X103271742Y-157706517D02*
X103366980Y-157754136D01*
X103366980Y-157754136D02*
X103414600Y-157801755D01*
X103414600Y-157801755D02*
X103462219Y-157896993D01*
X103462219Y-157896993D02*
X103462219Y-158135088D01*
X103462219Y-158135088D02*
X103414600Y-158230326D01*
X103414600Y-158230326D02*
X103366980Y-158277945D01*
X102462219Y-157420802D02*
X103462219Y-157087469D01*
X103462219Y-157087469D02*
X102462219Y-156754136D01*
D12*
%TO.C,D78*%
X78300000Y-35100000D02*
X78300000Y-35800000D01*
%TO.C,D70*%
X110700000Y-59900000D02*
X110700000Y-60600000D01*
%TO.C,D21*%
X126900000Y-87800000D02*
X126900000Y-88500000D01*
%TO.C,D72*%
X89100000Y-53700000D02*
X89100000Y-54400000D01*
%TO.C,D40*%
X72900000Y-28900000D02*
X72900000Y-29600000D01*
%TO.C,D77*%
X121500000Y-38200000D02*
X121500000Y-38900000D01*
%TO.C,D26*%
X62100000Y-72300000D02*
X62100000Y-73000000D01*
%TO.C,D6*%
X83700000Y-134300000D02*
X83700000Y-135000000D01*
%TO.C,D79*%
X121500000Y-32000000D02*
X121500000Y-32700000D01*
%TO.C,D44*%
X132290000Y-140500000D02*
X132290000Y-141200000D01*
%TO.C,D62*%
X110700000Y-84700000D02*
X110700000Y-85400000D01*
%TO.C,D17*%
X72900000Y-100200000D02*
X72900000Y-100900000D01*
%TO.C,D68*%
X78300000Y-66100000D02*
X78300000Y-66800000D01*
%TO.C,D10*%
X116100000Y-121900000D02*
X116100000Y-122600000D01*
%TO.C,D23*%
X116100000Y-81600000D02*
X116100000Y-82300000D01*
%TO.C,D9*%
X72900000Y-125000000D02*
X72900000Y-125700000D01*
%TO.C,D28*%
X94500000Y-66100000D02*
X94500000Y-66800000D01*
%TO.C,D55*%
X78300000Y-106400000D02*
X78300000Y-107100000D01*
%TO.C,D51*%
X110700000Y-118800000D02*
X110700000Y-119500000D01*
%TO.C,D24*%
X72900000Y-78500000D02*
X72900000Y-79200000D01*
%TO.C,D62*%
X132300000Y-84700000D02*
X132300000Y-85400000D01*
%TO.C,D10*%
X72900000Y-121900000D02*
X72900000Y-122600000D01*
%TO.C,D60*%
X132300000Y-90900000D02*
X132300000Y-91600000D01*
%TO.C,D47*%
X99900000Y-131200000D02*
X99900000Y-131900000D01*
%TO.C,D32*%
X51300000Y-53700000D02*
X51300000Y-54400000D01*
%TO.C,D52*%
X110700000Y-115700000D02*
X110700000Y-116400000D01*
%TO.C,D59*%
X67500000Y-94000000D02*
X67500000Y-94700000D01*
%TO.C,D31*%
X83700000Y-56800000D02*
X83700000Y-57500000D01*
%TO.C,D19*%
X51300000Y-94000000D02*
X51300000Y-94700000D01*
%TO.C,D25*%
X83700000Y-75400000D02*
X83700000Y-76100000D01*
%TO.C,D65*%
X110700000Y-75400000D02*
X110700000Y-76100000D01*
%TO.C,D30*%
X94500000Y-59900000D02*
X94500000Y-60600000D01*
%TO.C,D37*%
X83700000Y-38200000D02*
X83700000Y-38900000D01*
%TO.C,D35*%
X116100000Y-44400000D02*
X116100000Y-45100000D01*
%TO.C,D44*%
X89090000Y-140500000D02*
X89090000Y-141200000D01*
%TO.C,D57*%
X110700000Y-100200000D02*
X110700000Y-100900000D01*
%TO.C,D26*%
X105300000Y-72300000D02*
X105300000Y-73000000D01*
%TO.C,D34*%
X51300000Y-47500000D02*
X51300000Y-48200000D01*
%TO.C,D80*%
X56700000Y-28900000D02*
X56700000Y-29600000D01*
%TO.C,D14*%
X94500000Y-109500000D02*
X94500000Y-110200000D01*
%TO.C,D63*%
X56700000Y-81600000D02*
X56700000Y-82300000D01*
%TO.C,D80*%
X78300000Y-28900000D02*
X78300000Y-29600000D01*
%TO.C,D31*%
X105300000Y-56800000D02*
X105300000Y-57500000D01*
%TO.C,D65*%
X78300000Y-75400000D02*
X78300000Y-76100000D01*
%TO.C,D45*%
X56700000Y-137400000D02*
X56700000Y-138100000D01*
%TO.C,D37*%
X62100000Y-38200000D02*
X62100000Y-38900000D01*
%TO.C,D62*%
X78300000Y-84700000D02*
X78300000Y-85400000D01*
%TO.C,D29*%
X116100000Y-63000000D02*
X116100000Y-63700000D01*
%TO.C,D31*%
X51300000Y-56800000D02*
X51300000Y-57500000D01*
%TO.C,D42*%
X56690000Y-146700000D02*
X56690000Y-147400000D01*
%TO.C,D66*%
X110700000Y-72300000D02*
X110700000Y-73000000D01*
%TO.C,D25*%
X51300000Y-75400000D02*
X51300000Y-76100000D01*
%TO.C,D24*%
X126900000Y-78500000D02*
X126900000Y-79200000D01*
%TO.C,D80*%
X99900000Y-28900000D02*
X99900000Y-29600000D01*
%TO.C,D5*%
X83700000Y-137400000D02*
X83700000Y-138100000D01*
%TO.C,D53*%
X67500000Y-112600000D02*
X67500000Y-113300000D01*
%TO.C,D19*%
X94500000Y-94000000D02*
X94500000Y-94700000D01*
%TO.C,D38*%
X83700000Y-35100000D02*
X83700000Y-35800000D01*
%TO.C,D34*%
X62100000Y-47500000D02*
X62100000Y-48200000D01*
%TO.C,D65*%
X132300000Y-75400000D02*
X132300000Y-76100000D01*
%TO.C,D39*%
X126900000Y-32000000D02*
X126900000Y-32700000D01*
%TO.C,D64*%
X121500000Y-78500000D02*
X121500000Y-79200000D01*
%TO.C,D66*%
X78300000Y-72300000D02*
X78300000Y-73000000D01*
%TO.C,D26*%
X116100000Y-72300000D02*
X116100000Y-73000000D01*
%TO.C,D7*%
X62100000Y-131200000D02*
X62100000Y-131900000D01*
%TO.C,D72*%
X99900000Y-53700000D02*
X99900000Y-54400000D01*
%TO.C,D35*%
X126900000Y-44400000D02*
X126900000Y-45100000D01*
%TO.C,D21*%
X116100000Y-87800000D02*
X116100000Y-88500000D01*
%TO.C,D26*%
X72900000Y-72300000D02*
X72900000Y-73000000D01*
%TO.C,D4*%
X72900000Y-140500000D02*
X72900000Y-141200000D01*
%TO.C,D54*%
X121500000Y-109500000D02*
X121500000Y-110200000D01*
%TO.C,D55*%
X89100000Y-106400000D02*
X89100000Y-107100000D01*
%TO.C,D42*%
X78290000Y-146700000D02*
X78290000Y-147400000D01*
%TO.C,D63*%
X110700000Y-81600000D02*
X110700000Y-82300000D01*
%TO.C,D13*%
X94490000Y-112600000D02*
X94490000Y-113300000D01*
%TO.C,D18*%
X94500000Y-97100000D02*
X94500000Y-97800000D01*
%TO.C,D63*%
X121500000Y-81600000D02*
X121500000Y-82300000D01*
%TO.C,D51*%
X99900000Y-118800000D02*
X99900000Y-119500000D01*
%TO.C,D6*%
X51300000Y-134300000D02*
X51300000Y-135000000D01*
%TO.C,D41*%
X99900000Y-149800000D02*
X99900000Y-150500000D01*
%TO.C,D20*%
X94500000Y-90900000D02*
X94500000Y-91600000D01*
%TO.C,D74*%
X56700000Y-47500000D02*
X56700000Y-48200000D01*
%TO.C,D2*%
X126900000Y-146700000D02*
X126900000Y-147400000D01*
%TO.C,D75*%
X132300000Y-44400000D02*
X132300000Y-45100000D01*
%TO.C,D9*%
X51300000Y-125000000D02*
X51300000Y-125700000D01*
%TO.C,D33*%
X51300000Y-50600000D02*
X51300000Y-51300000D01*
%TO.C,D75*%
X110700000Y-44400000D02*
X110700000Y-45100000D01*
%TO.C,D44*%
X56690000Y-140500000D02*
X56690000Y-141200000D01*
%TO.C,D56*%
X99900000Y-103300000D02*
X99900000Y-104000000D01*
%TO.C,D62*%
X121500000Y-84700000D02*
X121500000Y-85400000D01*
%TO.C,D48*%
X67500000Y-128100000D02*
X67500000Y-128800000D01*
%TO.C,D8*%
X83700000Y-128100000D02*
X83700000Y-128800000D01*
%TO.C,D13*%
X62090000Y-112600000D02*
X62090000Y-113300000D01*
%TO.C,D22*%
X116100000Y-84700000D02*
X116100000Y-85400000D01*
%TO.C,D43*%
X132300000Y-143600000D02*
X132300000Y-144300000D01*
%TO.C,D16*%
X51300000Y-103300000D02*
X51300000Y-104000000D01*
%TO.C,D20*%
X83700000Y-90900000D02*
X83700000Y-91600000D01*
%TO.C,D18*%
X83700000Y-97100000D02*
X83700000Y-97800000D01*
%TO.C,D38*%
X105300000Y-35100000D02*
X105300000Y-35800000D01*
%TO.C,D43*%
X121500000Y-143600000D02*
X121500000Y-144300000D01*
%TO.C,D60*%
X110700000Y-90900000D02*
X110700000Y-91600000D01*
%TO.C,D44*%
X121490000Y-140500000D02*
X121490000Y-141200000D01*
%TO.C,D71*%
X121500000Y-56800000D02*
X121500000Y-57500000D01*
%TO.C,D61*%
X56700000Y-87800000D02*
X56700000Y-88500000D01*
%TO.C,D32*%
X94500000Y-53700000D02*
X94500000Y-54400000D01*
%TO.C,D55*%
X110700000Y-106400000D02*
X110700000Y-107100000D01*
%TO.C,D30*%
X126900000Y-59900000D02*
X126900000Y-60600000D01*
%TO.C,D36*%
X116100000Y-41300000D02*
X116100000Y-42000000D01*
%TO.C,D41*%
X89100000Y-149800000D02*
X89100000Y-150500000D01*
%TO.C,D3*%
X62100000Y-143600000D02*
X62100000Y-144300000D01*
%TO.C,D68*%
X56700000Y-66100000D02*
X56700000Y-66800000D01*
%TO.C,D80*%
X89100000Y-28900000D02*
X89100000Y-29600000D01*
%TO.C,D45*%
X78300000Y-137400000D02*
X78300000Y-138100000D01*
%TO.C,D40*%
X126900000Y-28900000D02*
X126900000Y-29600000D01*
%TO.C,D76*%
X99900000Y-41300000D02*
X99900000Y-42000000D01*
%TO.C,D36*%
X51300000Y-41300000D02*
X51300000Y-42000000D01*
%TO.C,D32*%
X83700000Y-53700000D02*
X83700000Y-54400000D01*
%TO.C,D76*%
X78300000Y-41300000D02*
X78300000Y-42000000D01*
%TO.C,D68*%
X67500000Y-66100000D02*
X67500000Y-66800000D01*
%TO.C,D64*%
X78300000Y-78500000D02*
X78300000Y-79200000D01*
%TO.C,D56*%
X56700000Y-103300000D02*
X56700000Y-104000000D01*
%TO.C,D76*%
X56700000Y-41300000D02*
X56700000Y-42000000D01*
%TO.C,D18*%
X105300000Y-97100000D02*
X105300000Y-97800000D01*
%TO.C,D78*%
X89100000Y-35100000D02*
X89100000Y-35800000D01*
%TO.C,D53*%
X89100000Y-112600000D02*
X89100000Y-113300000D01*
%TO.C,D20*%
X51300000Y-90900000D02*
X51300000Y-91600000D01*
%TO.C,D80*%
X67500000Y-28900000D02*
X67500000Y-29600000D01*
%TO.C,D65*%
X67500000Y-75400000D02*
X67500000Y-76100000D01*
%TO.C,D44*%
X99890000Y-140500000D02*
X99890000Y-141200000D01*
%TO.C,D48*%
X89100000Y-128100000D02*
X89100000Y-128800000D01*
%TO.C,D1*%
X62100000Y-149800000D02*
X62100000Y-150500000D01*
%TO.C,D52*%
X121500000Y-115700000D02*
X121500000Y-116400000D01*
%TO.C,D13*%
X83690000Y-112600000D02*
X83690000Y-113300000D01*
%TO.C,D37*%
X116100000Y-38200000D02*
X116100000Y-38900000D01*
%TO.C,D50*%
X78300000Y-121900000D02*
X78300000Y-122600000D01*
%TO.C,D14*%
X72900000Y-109500000D02*
X72900000Y-110200000D01*
%TO.C,D39*%
X83700000Y-32000000D02*
X83700000Y-32700000D01*
%TO.C,D37*%
X72900000Y-38200000D02*
X72900000Y-38900000D01*
%TO.C,D6*%
X116100000Y-134300000D02*
X116100000Y-135000000D01*
%TO.C,D3*%
X51300000Y-143600000D02*
X51300000Y-144300000D01*
%TO.C,D19*%
X62100000Y-94000000D02*
X62100000Y-94700000D01*
%TO.C,D71*%
X78300000Y-56800000D02*
X78300000Y-57500000D01*
%TO.C,D14*%
X116100000Y-109500000D02*
X116100000Y-110200000D01*
%TO.C,D8*%
X116100000Y-128100000D02*
X116100000Y-128800000D01*
%TO.C,D76*%
X67500000Y-41300000D02*
X67500000Y-42000000D01*
%TO.C,D38*%
X126900000Y-35100000D02*
X126900000Y-35800000D01*
%TO.C,D7*%
X94500000Y-131200000D02*
X94500000Y-131900000D01*
%TO.C,D29*%
X51300000Y-63000000D02*
X51300000Y-63700000D01*
%TO.C,D52*%
X99900000Y-115700000D02*
X99900000Y-116400000D01*
%TO.C,D31*%
X94500000Y-56800000D02*
X94500000Y-57500000D01*
%TO.C,D5*%
X126900000Y-137400000D02*
X126900000Y-138100000D01*
%TO.C,D72*%
X121500000Y-53700000D02*
X121500000Y-54400000D01*
%TO.C,D47*%
X110700000Y-131200000D02*
X110700000Y-131900000D01*
%TO.C,D51*%
X78300000Y-118800000D02*
X78300000Y-119500000D01*
%TO.C,D40*%
X51300000Y-28900000D02*
X51300000Y-29600000D01*
%TO.C,D15*%
X62100000Y-106400000D02*
X62100000Y-107100000D01*
%TO.C,D4*%
X94500000Y-140500000D02*
X94500000Y-141200000D01*
%TO.C,D53*%
X99900000Y-112600000D02*
X99900000Y-113300000D01*
%TO.C,D17*%
X94500000Y-100200000D02*
X94500000Y-100900000D01*
%TO.C,D7*%
X116100000Y-131200000D02*
X116100000Y-131900000D01*
%TO.C,D77*%
X56700000Y-38200000D02*
X56700000Y-38900000D01*
%TO.C,D6*%
X94500000Y-134300000D02*
X94500000Y-135000000D01*
%TO.C,D61*%
X78300000Y-87800000D02*
X78300000Y-88500000D01*
%TO.C,D63*%
X132300000Y-81600000D02*
X132300000Y-82300000D01*
%TO.C,D78*%
X56700000Y-35100000D02*
X56700000Y-35800000D01*
%TO.C,D70*%
X121500000Y-59900000D02*
X121500000Y-60600000D01*
%TO.C,D29*%
X105300000Y-63000000D02*
X105300000Y-63700000D01*
%TO.C,D69*%
X110700000Y-63000000D02*
X110700000Y-63700000D01*
%TO.C,D67*%
X67500000Y-69200000D02*
X67500000Y-69900000D01*
%TO.C,D45*%
X132300000Y-137400000D02*
X132300000Y-138100000D01*
%TO.C,D57*%
X89100000Y-100200000D02*
X89100000Y-100900000D01*
%TO.C,D53*%
X121500000Y-112600000D02*
X121500000Y-113300000D01*
%TO.C,D72*%
X67500000Y-53700000D02*
X67500000Y-54400000D01*
%TO.C,D35*%
X94500000Y-44400000D02*
X94500000Y-45100000D01*
%TO.C,D71*%
X99900000Y-56800000D02*
X99900000Y-57500000D01*
%TO.C,D67*%
X110700000Y-69200000D02*
X110700000Y-69900000D01*
%TO.C,D54*%
X56700000Y-109500000D02*
X56700000Y-110200000D01*
%TO.C,D73*%
X89100000Y-50600000D02*
X89100000Y-51300000D01*
%TO.C,D49*%
X56700000Y-125000000D02*
X56700000Y-125700000D01*
%TO.C,D70*%
X132300000Y-59900000D02*
X132300000Y-60600000D01*
%TO.C,D28*%
X83700000Y-66100000D02*
X83700000Y-66800000D01*
%TO.C,D32*%
X62100000Y-53700000D02*
X62100000Y-54400000D01*
X116100000Y-53700000D02*
X116100000Y-54400000D01*
%TO.C,D13*%
X116090000Y-112600000D02*
X116090000Y-113300000D01*
%TO.C,D73*%
X132300000Y-50600000D02*
X132300000Y-51300000D01*
%TO.C,D60*%
X67500000Y-90900000D02*
X67500000Y-91600000D01*
%TO.C,D52*%
X78300000Y-115700000D02*
X78300000Y-116400000D01*
%TO.C,D38*%
X62100000Y-35100000D02*
X62100000Y-35800000D01*
%TO.C,D49*%
X89100000Y-125000000D02*
X89100000Y-125700000D01*
%TO.C,D19*%
X105300000Y-94000000D02*
X105300000Y-94700000D01*
%TO.C,D33*%
X116100000Y-50600000D02*
X116100000Y-51300000D01*
%TO.C,D64*%
X56700000Y-78500000D02*
X56700000Y-79200000D01*
%TO.C,D60*%
X56700000Y-90900000D02*
X56700000Y-91600000D01*
%TO.C,D9*%
X105300000Y-125000000D02*
X105300000Y-125700000D01*
%TO.C,D49*%
X132300000Y-125000000D02*
X132300000Y-125700000D01*
%TO.C,D16*%
X83700000Y-103300000D02*
X83700000Y-104000000D01*
%TO.C,D11*%
X105300000Y-118800000D02*
X105300000Y-119500000D01*
%TO.C,D71*%
X132300000Y-56800000D02*
X132300000Y-57500000D01*
%TO.C,D51*%
X89100000Y-118800000D02*
X89100000Y-119500000D01*
%TO.C,D21*%
X62100000Y-87800000D02*
X62100000Y-88500000D01*
%TO.C,D69*%
X89100000Y-63000000D02*
X89100000Y-63700000D01*
%TO.C,D68*%
X89100000Y-66100000D02*
X89100000Y-66800000D01*
%TO.C,D69*%
X56700000Y-63000000D02*
X56700000Y-63700000D01*
%TO.C,D61*%
X67500000Y-87800000D02*
X67500000Y-88500000D01*
%TO.C,D59*%
X110700000Y-94000000D02*
X110700000Y-94700000D01*
%TO.C,D28*%
X51300000Y-66100000D02*
X51300000Y-66800000D01*
%TO.C,D25*%
X62100000Y-75400000D02*
X62100000Y-76100000D01*
%TO.C,D77*%
X99900000Y-38200000D02*
X99900000Y-38900000D01*
%TO.C,D39*%
X62100000Y-32000000D02*
X62100000Y-32700000D01*
%TO.C,D24*%
X83700000Y-78500000D02*
X83700000Y-79200000D01*
%TO.C,D42*%
X132290000Y-146700000D02*
X132290000Y-147400000D01*
%TO.C,D49*%
X121500000Y-125000000D02*
X121500000Y-125700000D01*
%TO.C,D24*%
X105300000Y-78500000D02*
X105300000Y-79200000D01*
%TO.C,D74*%
X121500000Y-47500000D02*
X121500000Y-48200000D01*
%TO.C,D33*%
X72900000Y-50600000D02*
X72900000Y-51300000D01*
%TO.C,D58*%
X99900000Y-97100000D02*
X99900000Y-97800000D01*
%TO.C,D54*%
X78300000Y-109500000D02*
X78300000Y-110200000D01*
%TO.C,D21*%
X105300000Y-87800000D02*
X105300000Y-88500000D01*
%TO.C,D1*%
X94500000Y-149800000D02*
X94500000Y-150500000D01*
%TO.C,D67*%
X78300000Y-69200000D02*
X78300000Y-69900000D01*
%TO.C,D55*%
X99900000Y-106400000D02*
X99900000Y-107100000D01*
%TO.C,D45*%
X121500000Y-137400000D02*
X121500000Y-138100000D01*
%TO.C,D63*%
X67500000Y-81600000D02*
X67500000Y-82300000D01*
%TO.C,D17*%
X116100000Y-100200000D02*
X116100000Y-100900000D01*
%TO.C,D11*%
X62100000Y-118800000D02*
X62100000Y-119500000D01*
%TO.C,D12*%
X105300000Y-115700000D02*
X105300000Y-116400000D01*
%TO.C,D44*%
X110690000Y-140500000D02*
X110690000Y-141200000D01*
%TO.C,D66*%
X56700000Y-72300000D02*
X56700000Y-73000000D01*
%TO.C,D43*%
X89100000Y-143600000D02*
X89100000Y-144300000D01*
%TO.C,D40*%
X94500000Y-28900000D02*
X94500000Y-29600000D01*
%TO.C,D24*%
X51300000Y-78500000D02*
X51300000Y-79200000D01*
%TO.C,D11*%
X83700000Y-118800000D02*
X83700000Y-119500000D01*
%TO.C,D77*%
X110700000Y-38200000D02*
X110700000Y-38900000D01*
%TO.C,D56*%
X132300000Y-103300000D02*
X132300000Y-104000000D01*
%TO.C,D47*%
X132300000Y-131200000D02*
X132300000Y-131900000D01*
%TO.C,D56*%
X121500000Y-103300000D02*
X121500000Y-104000000D01*
%TO.C,D43*%
X78300000Y-143600000D02*
X78300000Y-144300000D01*
%TO.C,D39*%
X116100000Y-32000000D02*
X116100000Y-32700000D01*
%TO.C,D32*%
X126900000Y-53700000D02*
X126900000Y-54400000D01*
%TO.C,D18*%
X51300000Y-97100000D02*
X51300000Y-97800000D01*
%TO.C,D27*%
X62100000Y-69200000D02*
X62100000Y-69900000D01*
%TO.C,D60*%
X99900000Y-90900000D02*
X99900000Y-91600000D01*
%TO.C,D42*%
X121490000Y-146700000D02*
X121490000Y-147400000D01*
%TO.C,D22*%
X94500000Y-84700000D02*
X94500000Y-85400000D01*
%TO.C,D71*%
X67500000Y-56800000D02*
X67500000Y-57500000D01*
%TO.C,D3*%
X72900000Y-143600000D02*
X72900000Y-144300000D01*
%TO.C,D63*%
X89100000Y-81600000D02*
X89100000Y-82300000D01*
%TO.C,D33*%
X62100000Y-50600000D02*
X62100000Y-51300000D01*
%TO.C,D72*%
X110700000Y-53700000D02*
X110700000Y-54400000D01*
%TO.C,D8*%
X126900000Y-128100000D02*
X126900000Y-128800000D01*
%TO.C,D41*%
X56700000Y-149800000D02*
X56700000Y-150500000D01*
%TO.C,D17*%
X83700000Y-100200000D02*
X83700000Y-100900000D01*
%TO.C,D50*%
X110700000Y-121900000D02*
X110700000Y-122600000D01*
%TO.C,D79*%
X110700000Y-32000000D02*
X110700000Y-32700000D01*
%TO.C,D73*%
X67500000Y-50600000D02*
X67500000Y-51300000D01*
%TO.C,D57*%
X78300000Y-100200000D02*
X78300000Y-100900000D01*
%TO.C,D58*%
X121500000Y-97100000D02*
X121500000Y-97800000D01*
%TO.C,D11*%
X94500000Y-118800000D02*
X94500000Y-119500000D01*
%TO.C,D57*%
X121500000Y-100200000D02*
X121500000Y-100900000D01*
%TO.C,D64*%
X89100000Y-78500000D02*
X89100000Y-79200000D01*
%TO.C,D48*%
X121500000Y-128100000D02*
X121500000Y-128800000D01*
%TO.C,D47*%
X89100000Y-131200000D02*
X89100000Y-131900000D01*
%TO.C,D50*%
X56700000Y-121900000D02*
X56700000Y-122600000D01*
%TO.C,D43*%
X99900000Y-143600000D02*
X99900000Y-144300000D01*
%TO.C,D47*%
X56700000Y-131200000D02*
X56700000Y-131900000D01*
%TO.C,D52*%
X132300000Y-115700000D02*
X132300000Y-116400000D01*
%TO.C,D6*%
X126900000Y-134300000D02*
X126900000Y-135000000D01*
%TO.C,D56*%
X89100000Y-103300000D02*
X89100000Y-104000000D01*
%TO.C,D69*%
X121500000Y-63000000D02*
X121500000Y-63700000D01*
%TO.C,D51*%
X56700000Y-118800000D02*
X56700000Y-119500000D01*
%TO.C,D20*%
X126900000Y-90900000D02*
X126900000Y-91600000D01*
%TO.C,D47*%
X121500000Y-131200000D02*
X121500000Y-131900000D01*
%TO.C,D30*%
X51300000Y-59900000D02*
X51300000Y-60600000D01*
%TO.C,D65*%
X56700000Y-75400000D02*
X56700000Y-76100000D01*
%TO.C,D76*%
X110700000Y-41300000D02*
X110700000Y-42000000D01*
%TO.C,D61*%
X99900000Y-87800000D02*
X99900000Y-88500000D01*
%TO.C,D75*%
X121500000Y-44400000D02*
X121500000Y-45100000D01*
%TO.C,D8*%
X51300000Y-128100000D02*
X51300000Y-128800000D01*
%TO.C,D20*%
X116100000Y-90900000D02*
X116100000Y-91600000D01*
%TO.C,D66*%
X121500000Y-72300000D02*
X121500000Y-73000000D01*
%TO.C,D40*%
X105300000Y-28900000D02*
X105300000Y-29600000D01*
%TO.C,D74*%
X110700000Y-47500000D02*
X110700000Y-48200000D01*
%TO.C,D5*%
X94500000Y-137400000D02*
X94500000Y-138100000D01*
%TO.C,D26*%
X94500000Y-72300000D02*
X94500000Y-73000000D01*
X51300000Y-72300000D02*
X51300000Y-73000000D01*
%TO.C,D70*%
X99900000Y-59900000D02*
X99900000Y-60600000D01*
%TO.C,D60*%
X89100000Y-90900000D02*
X89100000Y-91600000D01*
%TO.C,D77*%
X67500000Y-38200000D02*
X67500000Y-38900000D01*
%TO.C,D29*%
X126900000Y-63000000D02*
X126900000Y-63700000D01*
%TO.C,D27*%
X116100000Y-69200000D02*
X116100000Y-69900000D01*
%TO.C,J3*%
X101620000Y-161380000D02*
X101620000Y-160000000D01*
X103000000Y-161380000D02*
X101620000Y-161380000D01*
X104270000Y-158620000D02*
X112000000Y-158620000D01*
X104270000Y-161380000D02*
X104270000Y-158620000D01*
X104270000Y-161380000D02*
X112000000Y-161380000D01*
X112000000Y-161380000D02*
X112000000Y-158620000D01*
%TO.C,D49*%
X78300000Y-125000000D02*
X78300000Y-125700000D01*
%TO.C,D2*%
X62100000Y-146700000D02*
X62100000Y-147400000D01*
%TO.C,D1*%
X116100000Y-149800000D02*
X116100000Y-150500000D01*
%TO.C,D73*%
X56700000Y-50600000D02*
X56700000Y-51300000D01*
X121500000Y-50600000D02*
X121500000Y-51300000D01*
%TO.C,D42*%
X89090000Y-146700000D02*
X89090000Y-147400000D01*
%TO.C,D72*%
X132300000Y-53700000D02*
X132300000Y-54400000D01*
%TO.C,D8*%
X62100000Y-128100000D02*
X62100000Y-128800000D01*
%TO.C,D28*%
X105300000Y-66100000D02*
X105300000Y-66800000D01*
%TO.C,D50*%
X99900000Y-121900000D02*
X99900000Y-122600000D01*
%TO.C,D17*%
X62100000Y-100200000D02*
X62100000Y-100900000D01*
%TO.C,D35*%
X51300000Y-44400000D02*
X51300000Y-45100000D01*
%TO.C,D18*%
X62100000Y-97100000D02*
X62100000Y-97800000D01*
%TO.C,D17*%
X105300000Y-100200000D02*
X105300000Y-100900000D01*
%TO.C,D12*%
X94500000Y-115700000D02*
X94500000Y-116400000D01*
%TO.C,D3*%
X83700000Y-143600000D02*
X83700000Y-144300000D01*
%TO.C,D36*%
X83700000Y-41300000D02*
X83700000Y-42000000D01*
%TO.C,D55*%
X132300000Y-106400000D02*
X132300000Y-107100000D01*
%TO.C,D54*%
X67500000Y-109500000D02*
X67500000Y-110200000D01*
%TO.C,D74*%
X78300000Y-47500000D02*
X78300000Y-48200000D01*
%TO.C,D46*%
X89100000Y-134300000D02*
X89100000Y-135000000D01*
%TO.C,D9*%
X83700000Y-125000000D02*
X83700000Y-125700000D01*
%TO.C,D4*%
X83700000Y-140500000D02*
X83700000Y-141200000D01*
%TO.C,D67*%
X99900000Y-69200000D02*
X99900000Y-69900000D01*
%TO.C,D28*%
X116100000Y-66100000D02*
X116100000Y-66800000D01*
%TO.C,D25*%
X105300000Y-75400000D02*
X105300000Y-76100000D01*
%TO.C,D5*%
X62100000Y-137400000D02*
X62100000Y-138100000D01*
%TO.C,D14*%
X51300000Y-109500000D02*
X51300000Y-110200000D01*
%TO.C,D53*%
X78300000Y-112600000D02*
X78300000Y-113300000D01*
%TO.C,D65*%
X99900000Y-75400000D02*
X99900000Y-76100000D01*
%TO.C,D40*%
X62100000Y-28900000D02*
X62100000Y-29600000D01*
%TO.C,D44*%
X78290000Y-140500000D02*
X78290000Y-141200000D01*
%TO.C,D7*%
X126900000Y-131200000D02*
X126900000Y-131900000D01*
%TO.C,D67*%
X89100000Y-69200000D02*
X89100000Y-69900000D01*
%TO.C,D29*%
X72900000Y-63000000D02*
X72900000Y-63700000D01*
%TO.C,D23*%
X105300000Y-81600000D02*
X105300000Y-82300000D01*
%TO.C,D2*%
X105300000Y-146700000D02*
X105300000Y-147400000D01*
%TO.C,D26*%
X83700000Y-72300000D02*
X83700000Y-73000000D01*
%TO.C,D10*%
X94500000Y-121900000D02*
X94500000Y-122600000D01*
%TO.C,D65*%
X89100000Y-75400000D02*
X89100000Y-76100000D01*
%TO.C,D41*%
X121500000Y-149800000D02*
X121500000Y-150500000D01*
%TO.C,D46*%
X78300000Y-134300000D02*
X78300000Y-135000000D01*
%TO.C,D9*%
X62100000Y-125000000D02*
X62100000Y-125700000D01*
%TO.C,D35*%
X105300000Y-44400000D02*
X105300000Y-45100000D01*
%TO.C,D20*%
X72900000Y-90900000D02*
X72900000Y-91600000D01*
%TO.C,D55*%
X121500000Y-106400000D02*
X121500000Y-107100000D01*
%TO.C,D5*%
X116100000Y-137400000D02*
X116100000Y-138100000D01*
%TO.C,D2*%
X72900000Y-146700000D02*
X72900000Y-147400000D01*
%TO.C,D38*%
X116100000Y-35100000D02*
X116100000Y-35800000D01*
%TO.C,D14*%
X126900000Y-109500000D02*
X126900000Y-110200000D01*
%TO.C,D27*%
X72900000Y-69200000D02*
X72900000Y-69900000D01*
%TO.C,D78*%
X99900000Y-35100000D02*
X99900000Y-35800000D01*
%TO.C,D75*%
X56700000Y-44400000D02*
X56700000Y-45100000D01*
%TO.C,D79*%
X56700000Y-32000000D02*
X56700000Y-32700000D01*
%TO.C,D64*%
X110700000Y-78500000D02*
X110700000Y-79200000D01*
%TO.C,D1*%
X105300000Y-149800000D02*
X105300000Y-150500000D01*
%TO.C,D58*%
X78300000Y-97100000D02*
X78300000Y-97800000D01*
%TO.C,D8*%
X105300000Y-128100000D02*
X105300000Y-128800000D01*
%TO.C,D54*%
X110700000Y-109500000D02*
X110700000Y-110200000D01*
%TO.C,D18*%
X72900000Y-97100000D02*
X72900000Y-97800000D01*
%TO.C,D48*%
X99900000Y-128100000D02*
X99900000Y-128800000D01*
%TO.C,D27*%
X105300000Y-69200000D02*
X105300000Y-69900000D01*
%TO.C,D47*%
X67500000Y-131200000D02*
X67500000Y-131900000D01*
%TO.C,D64*%
X99900000Y-78500000D02*
X99900000Y-79200000D01*
%TO.C,D22*%
X126900000Y-84700000D02*
X126900000Y-85400000D01*
%TO.C,D45*%
X99900000Y-137400000D02*
X99900000Y-138100000D01*
%TO.C,D1*%
X51300000Y-149800000D02*
X51300000Y-150500000D01*
%TO.C,D12*%
X62100000Y-115700000D02*
X62100000Y-116400000D01*
%TO.C,D4*%
X126900000Y-140500000D02*
X126900000Y-141200000D01*
%TO.C,D69*%
X78300000Y-63000000D02*
X78300000Y-63700000D01*
%TO.C,D1*%
X72900000Y-149800000D02*
X72900000Y-150500000D01*
%TO.C,D4*%
X62100000Y-140500000D02*
X62100000Y-141200000D01*
%TO.C,J3*%
X61210000Y-161380000D02*
X61210000Y-160000000D01*
X62590000Y-161380000D02*
X61210000Y-161380000D01*
X63860000Y-158620000D02*
X71590000Y-158620000D01*
X63860000Y-161380000D02*
X63860000Y-158620000D01*
X63860000Y-161380000D02*
X71590000Y-161380000D01*
X71590000Y-161380000D02*
X71590000Y-158620000D01*
%TO.C,D29*%
X94500000Y-63000000D02*
X94500000Y-63700000D01*
%TO.C,D52*%
X56700000Y-115700000D02*
X56700000Y-116400000D01*
%TO.C,D31*%
X72900000Y-56800000D02*
X72900000Y-57500000D01*
%TO.C,D75*%
X78300000Y-44400000D02*
X78300000Y-45100000D01*
%TO.C,D25*%
X126900000Y-75400000D02*
X126900000Y-76100000D01*
%TO.C,D22*%
X72900000Y-84700000D02*
X72900000Y-85400000D01*
%TO.C,D13*%
X126890000Y-112600000D02*
X126890000Y-113300000D01*
%TO.C,D68*%
X121500000Y-66100000D02*
X121500000Y-66800000D01*
%TO.C,D18*%
X116100000Y-97100000D02*
X116100000Y-97800000D01*
%TO.C,D46*%
X56700000Y-134300000D02*
X56700000Y-135000000D01*
%TO.C,D62*%
X89100000Y-84700000D02*
X89100000Y-85400000D01*
%TO.C,D36*%
X72900000Y-41300000D02*
X72900000Y-42000000D01*
%TO.C,D10*%
X83700000Y-121900000D02*
X83700000Y-122600000D01*
%TO.C,D34*%
X72900000Y-47500000D02*
X72900000Y-48200000D01*
%TO.C,D20*%
X62100000Y-90900000D02*
X62100000Y-91600000D01*
%TO.C,D45*%
X67500000Y-137400000D02*
X67500000Y-138100000D01*
%TO.C,D34*%
X105300000Y-47500000D02*
X105300000Y-48200000D01*
%TO.C,D70*%
X89100000Y-59900000D02*
X89100000Y-60600000D01*
%TO.C,D15*%
X105300000Y-106400000D02*
X105300000Y-107100000D01*
%TO.C,D48*%
X78300000Y-128100000D02*
X78300000Y-128800000D01*
%TO.C,D67*%
X56700000Y-69200000D02*
X56700000Y-69900000D01*
%TO.C,D23*%
X94500000Y-81600000D02*
X94500000Y-82300000D01*
%TO.C,D73*%
X99900000Y-50600000D02*
X99900000Y-51300000D01*
%TO.C,D63*%
X78300000Y-81600000D02*
X78300000Y-82300000D01*
%TO.C,D23*%
X83700000Y-81600000D02*
X83700000Y-82300000D01*
%TO.C,D32*%
X105300000Y-53700000D02*
X105300000Y-54400000D01*
%TO.C,D58*%
X132300000Y-97100000D02*
X132300000Y-97800000D01*
%TO.C,D48*%
X132300000Y-128100000D02*
X132300000Y-128800000D01*
%TO.C,D29*%
X83700000Y-63000000D02*
X83700000Y-63700000D01*
%TO.C,D5*%
X51300000Y-137400000D02*
X51300000Y-138100000D01*
%TO.C,D13*%
X105290000Y-112600000D02*
X105290000Y-113300000D01*
%TO.C,D48*%
X110700000Y-128100000D02*
X110700000Y-128800000D01*
%TO.C,D53*%
X110700000Y-112600000D02*
X110700000Y-113300000D01*
%TO.C,D73*%
X78300000Y-50600000D02*
X78300000Y-51300000D01*
%TO.C,D6*%
X62100000Y-134300000D02*
X62100000Y-135000000D01*
%TO.C,D22*%
X62100000Y-84700000D02*
X62100000Y-85400000D01*
%TO.C,D15*%
X72900000Y-106400000D02*
X72900000Y-107100000D01*
%TO.C,D28*%
X72900000Y-66100000D02*
X72900000Y-66800000D01*
%TO.C,D54*%
X132300000Y-109500000D02*
X132300000Y-110200000D01*
%TO.C,D37*%
X51300000Y-38200000D02*
X51300000Y-38900000D01*
%TO.C,D15*%
X51300000Y-106400000D02*
X51300000Y-107100000D01*
%TO.C,D12*%
X126900000Y-115700000D02*
X126900000Y-116400000D01*
%TO.C,D74*%
X67500000Y-47500000D02*
X67500000Y-48200000D01*
X132300000Y-47500000D02*
X132300000Y-48200000D01*
%TO.C,D34*%
X126900000Y-47500000D02*
X126900000Y-48200000D01*
%TO.C,D80*%
X132300000Y-28900000D02*
X132300000Y-29600000D01*
%TO.C,D51*%
X67500000Y-118800000D02*
X67500000Y-119500000D01*
%TO.C,D66*%
X132300000Y-72300000D02*
X132300000Y-73000000D01*
%TO.C,D7*%
X51300000Y-131200000D02*
X51300000Y-131900000D01*
%TO.C,D37*%
X105300000Y-38200000D02*
X105300000Y-38900000D01*
%TO.C,D12*%
X83700000Y-115700000D02*
X83700000Y-116400000D01*
%TO.C,D64*%
X132300000Y-78500000D02*
X132300000Y-79200000D01*
%TO.C,D28*%
X62100000Y-66100000D02*
X62100000Y-66800000D01*
%TO.C,D35*%
X72900000Y-44400000D02*
X72900000Y-45100000D01*
%TO.C,D45*%
X110700000Y-137400000D02*
X110700000Y-138100000D01*
%TO.C,D77*%
X78300000Y-38200000D02*
X78300000Y-38900000D01*
%TO.C,D49*%
X110700000Y-125000000D02*
X110700000Y-125700000D01*
%TO.C,D70*%
X67500000Y-59900000D02*
X67500000Y-60600000D01*
%TO.C,D25*%
X116100000Y-75400000D02*
X116100000Y-76100000D01*
%TO.C,D20*%
X105300000Y-90900000D02*
X105300000Y-91600000D01*
%TO.C,D31*%
X116100000Y-56800000D02*
X116100000Y-57500000D01*
%TO.C,D38*%
X94500000Y-35100000D02*
X94500000Y-35800000D01*
%TO.C,D61*%
X110700000Y-87800000D02*
X110700000Y-88500000D01*
%TO.C,D66*%
X67500000Y-72300000D02*
X67500000Y-73000000D01*
%TO.C,D13*%
X51290000Y-112600000D02*
X51290000Y-113300000D01*
%TO.C,D70*%
X78300000Y-59900000D02*
X78300000Y-60600000D01*
%TO.C,D15*%
X116100000Y-106400000D02*
X116100000Y-107100000D01*
%TO.C,D1*%
X83700000Y-149800000D02*
X83700000Y-150500000D01*
%TO.C,D37*%
X94500000Y-38200000D02*
X94500000Y-38900000D01*
%TO.C,D23*%
X126900000Y-81600000D02*
X126900000Y-82300000D01*
%TO.C,D32*%
X72900000Y-53700000D02*
X72900000Y-54400000D01*
%TO.C,D19*%
X72900000Y-94000000D02*
X72900000Y-94700000D01*
%TO.C,D30*%
X116100000Y-59900000D02*
X116100000Y-60600000D01*
%TO.C,D75*%
X67500000Y-44400000D02*
X67500000Y-45100000D01*
%TO.C,D34*%
X116100000Y-47500000D02*
X116100000Y-48200000D01*
%TO.C,D17*%
X51300000Y-100200000D02*
X51300000Y-100900000D01*
%TO.C,D16*%
X105300000Y-103300000D02*
X105300000Y-104000000D01*
%TO.C,D79*%
X99900000Y-32000000D02*
X99900000Y-32700000D01*
%TO.C,D22*%
X105300000Y-84700000D02*
X105300000Y-85400000D01*
%TO.C,D36*%
X62100000Y-41300000D02*
X62100000Y-42000000D01*
%TO.C,D58*%
X89100000Y-97100000D02*
X89100000Y-97800000D01*
%TO.C,D27*%
X126900000Y-69200000D02*
X126900000Y-69900000D01*
%TO.C,D69*%
X67500000Y-63000000D02*
X67500000Y-63700000D01*
%TO.C,D43*%
X56700000Y-143600000D02*
X56700000Y-144300000D01*
%TO.C,D66*%
X89100000Y-72300000D02*
X89100000Y-73000000D01*
%TO.C,D76*%
X121500000Y-41300000D02*
X121500000Y-42000000D01*
%TO.C,D7*%
X105300000Y-131200000D02*
X105300000Y-131900000D01*
%TO.C,D80*%
X121500000Y-28900000D02*
X121500000Y-29600000D01*
%TO.C,D69*%
X99900000Y-63000000D02*
X99900000Y-63700000D01*
%TO.C,D59*%
X56700000Y-94000000D02*
X56700000Y-94700000D01*
%TO.C,D6*%
X72900000Y-134300000D02*
X72900000Y-135000000D01*
%TO.C,D57*%
X67500000Y-100200000D02*
X67500000Y-100900000D01*
%TO.C,D34*%
X83700000Y-47500000D02*
X83700000Y-48200000D01*
%TO.C,D53*%
X56700000Y-112600000D02*
X56700000Y-113300000D01*
%TO.C,D72*%
X78300000Y-53700000D02*
X78300000Y-54400000D01*
%TO.C,D50*%
X89100000Y-121900000D02*
X89100000Y-122600000D01*
%TO.C,D7*%
X72900000Y-131200000D02*
X72900000Y-131900000D01*
%TO.C,D65*%
X121500000Y-75400000D02*
X121500000Y-76100000D01*
%TO.C,D33*%
X83700000Y-50600000D02*
X83700000Y-51300000D01*
%TO.C,D24*%
X116100000Y-78500000D02*
X116100000Y-79200000D01*
%TO.C,D10*%
X126900000Y-121900000D02*
X126900000Y-122600000D01*
%TO.C,D28*%
X126900000Y-66100000D02*
X126900000Y-66800000D01*
%TO.C,D15*%
X126900000Y-106400000D02*
X126900000Y-107100000D01*
%TO.C,D5*%
X72900000Y-137400000D02*
X72900000Y-138100000D01*
%TO.C,D41*%
X132300000Y-149800000D02*
X132300000Y-150500000D01*
%TO.C,D22*%
X83700000Y-84700000D02*
X83700000Y-85400000D01*
%TO.C,D16*%
X126900000Y-103300000D02*
X126900000Y-104000000D01*
%TO.C,D35*%
X83700000Y-44400000D02*
X83700000Y-45100000D01*
%TO.C,D70*%
X56700000Y-59900000D02*
X56700000Y-60600000D01*
%TO.C,D56*%
X67500000Y-103300000D02*
X67500000Y-104000000D01*
%TO.C,D30*%
X105300000Y-59900000D02*
X105300000Y-60600000D01*
%TO.C,D72*%
X56700000Y-53700000D02*
X56700000Y-54400000D01*
%TO.C,D27*%
X51300000Y-69200000D02*
X51300000Y-69900000D01*
%TO.C,D9*%
X126900000Y-125000000D02*
X126900000Y-125700000D01*
%TO.C,D2*%
X116100000Y-146700000D02*
X116100000Y-147400000D01*
%TO.C,D66*%
X99900000Y-72300000D02*
X99900000Y-73000000D01*
%TO.C,D16*%
X62100000Y-103300000D02*
X62100000Y-104000000D01*
%TO.C,D80*%
X110700000Y-28900000D02*
X110700000Y-29600000D01*
%TO.C,D71*%
X110700000Y-56800000D02*
X110700000Y-57500000D01*
%TO.C,D21*%
X72900000Y-87800000D02*
X72900000Y-88500000D01*
%TO.C,D18*%
X126900000Y-97100000D02*
X126900000Y-97800000D01*
%TO.C,D58*%
X67500000Y-97100000D02*
X67500000Y-97800000D01*
%TO.C,D40*%
X116100000Y-28900000D02*
X116100000Y-29600000D01*
%TO.C,D79*%
X132300000Y-32000000D02*
X132300000Y-32700000D01*
%TO.C,D76*%
X89100000Y-41300000D02*
X89100000Y-42000000D01*
%TO.C,D59*%
X99900000Y-94000000D02*
X99900000Y-94700000D01*
%TO.C,D63*%
X99900000Y-81600000D02*
X99900000Y-82300000D01*
%TO.C,D19*%
X83700000Y-94000000D02*
X83700000Y-94700000D01*
%TO.C,D10*%
X62100000Y-121900000D02*
X62100000Y-122600000D01*
%TO.C,D36*%
X105300000Y-41300000D02*
X105300000Y-42000000D01*
%TO.C,D41*%
X78300000Y-149800000D02*
X78300000Y-150500000D01*
%TO.C,D7*%
X83700000Y-131200000D02*
X83700000Y-131900000D01*
%TO.C,D51*%
X121500000Y-118800000D02*
X121500000Y-119500000D01*
%TO.C,D16*%
X94500000Y-103300000D02*
X94500000Y-104000000D01*
%TO.C,D62*%
X67500000Y-84700000D02*
X67500000Y-85400000D01*
%TO.C,D10*%
X105300000Y-121900000D02*
X105300000Y-122600000D01*
%TO.C,D56*%
X78300000Y-103300000D02*
X78300000Y-104000000D01*
%TO.C,D74*%
X99900000Y-47500000D02*
X99900000Y-48200000D01*
%TO.C,D35*%
X62100000Y-44400000D02*
X62100000Y-45100000D01*
%TO.C,D44*%
X67490000Y-140500000D02*
X67490000Y-141200000D01*
%TO.C,D46*%
X67500000Y-134300000D02*
X67500000Y-135000000D01*
%TO.C,D40*%
X83700000Y-28900000D02*
X83700000Y-29600000D01*
%TO.C,D49*%
X67500000Y-125000000D02*
X67500000Y-125700000D01*
%TO.C,D23*%
X72900000Y-81600000D02*
X72900000Y-82300000D01*
%TO.C,D58*%
X56700000Y-97100000D02*
X56700000Y-97800000D01*
%TO.C,D64*%
X67500000Y-78500000D02*
X67500000Y-79200000D01*
%TO.C,D60*%
X78300000Y-90900000D02*
X78300000Y-91600000D01*
%TO.C,D6*%
X105300000Y-134300000D02*
X105300000Y-135000000D01*
%TO.C,D30*%
X62100000Y-59900000D02*
X62100000Y-60600000D01*
%TO.C,D24*%
X94500000Y-78500000D02*
X94500000Y-79200000D01*
%TO.C,D50*%
X67500000Y-121900000D02*
X67500000Y-122600000D01*
%TO.C,D26*%
X126900000Y-72300000D02*
X126900000Y-73000000D01*
%TO.C,D14*%
X83700000Y-109500000D02*
X83700000Y-110200000D01*
%TO.C,D33*%
X94500000Y-50600000D02*
X94500000Y-51300000D01*
%TO.C,D8*%
X94500000Y-128100000D02*
X94500000Y-128800000D01*
%TO.C,D3*%
X105300000Y-143600000D02*
X105300000Y-144300000D01*
%TO.C,D24*%
X62100000Y-78500000D02*
X62100000Y-79200000D01*
%TO.C,D42*%
X67490000Y-146700000D02*
X67490000Y-147400000D01*
%TO.C,D12*%
X51300000Y-115700000D02*
X51300000Y-116400000D01*
%TO.C,D48*%
X56700000Y-128100000D02*
X56700000Y-128800000D01*
%TO.C,D34*%
X94500000Y-47500000D02*
X94500000Y-48200000D01*
%TO.C,D36*%
X126900000Y-41300000D02*
X126900000Y-42000000D01*
%TO.C,D11*%
X51300000Y-118800000D02*
X51300000Y-119500000D01*
%TO.C,D3*%
X116100000Y-143600000D02*
X116100000Y-144300000D01*
%TO.C,D9*%
X94500000Y-125000000D02*
X94500000Y-125700000D01*
%TO.C,D31*%
X62100000Y-56800000D02*
X62100000Y-57500000D01*
%TO.C,D21*%
X94500000Y-87800000D02*
X94500000Y-88500000D01*
%TO.C,D69*%
X132300000Y-63000000D02*
X132300000Y-63700000D01*
%TO.C,D74*%
X89100000Y-47500000D02*
X89100000Y-48200000D01*
%TO.C,D68*%
X99900000Y-66100000D02*
X99900000Y-66800000D01*
%TO.C,D54*%
X89100000Y-109500000D02*
X89100000Y-110200000D01*
%TO.C,D11*%
X116100000Y-118800000D02*
X116100000Y-119500000D01*
%TO.C,D4*%
X116100000Y-140500000D02*
X116100000Y-141200000D01*
%TO.C,D15*%
X94500000Y-106400000D02*
X94500000Y-107100000D01*
%TO.C,D78*%
X67500000Y-35100000D02*
X67500000Y-35800000D01*
%TO.C,D58*%
X110700000Y-97100000D02*
X110700000Y-97800000D01*
%TO.C,D46*%
X99900000Y-134300000D02*
X99900000Y-135000000D01*
%TO.C,D25*%
X94500000Y-75400000D02*
X94500000Y-76100000D01*
%TO.C,D78*%
X121500000Y-35100000D02*
X121500000Y-35800000D01*
%TO.C,D60*%
X121500000Y-90900000D02*
X121500000Y-91600000D01*
%TO.C,D59*%
X78300000Y-94000000D02*
X78300000Y-94700000D01*
X132300000Y-94000000D02*
X132300000Y-94700000D01*
%TO.C,D27*%
X83700000Y-69200000D02*
X83700000Y-69900000D01*
%TO.C,D68*%
X110700000Y-66100000D02*
X110700000Y-66800000D01*
%TO.C,D55*%
X67500000Y-106400000D02*
X67500000Y-107100000D01*
%TO.C,D39*%
X94500000Y-32000000D02*
X94500000Y-32700000D01*
%TO.C,D37*%
X126900000Y-38200000D02*
X126900000Y-38900000D01*
%TO.C,D17*%
X126900000Y-100200000D02*
X126900000Y-100900000D01*
%TO.C,D29*%
X62100000Y-63000000D02*
X62100000Y-63700000D01*
%TO.C,D30*%
X83700000Y-59900000D02*
X83700000Y-60600000D01*
%TO.C,D67*%
X132300000Y-69200000D02*
X132300000Y-69900000D01*
%TO.C,D46*%
X121500000Y-134300000D02*
X121500000Y-135000000D01*
%TO.C,D43*%
X67500000Y-143600000D02*
X67500000Y-144300000D01*
%TO.C,D39*%
X72900000Y-32000000D02*
X72900000Y-32700000D01*
%TO.C,D2*%
X51300000Y-146700000D02*
X51300000Y-147400000D01*
%TO.C,D77*%
X132300000Y-38200000D02*
X132300000Y-38900000D01*
%TO.C,D57*%
X132300000Y-100200000D02*
X132300000Y-100900000D01*
%TO.C,D62*%
X99900000Y-84700000D02*
X99900000Y-85400000D01*
%TO.C,D52*%
X67500000Y-115700000D02*
X67500000Y-116400000D01*
%TO.C,D36*%
X94500000Y-41300000D02*
X94500000Y-42000000D01*
%TO.C,D5*%
X105300000Y-137400000D02*
X105300000Y-138100000D01*
%TO.C,D19*%
X126900000Y-94000000D02*
X126900000Y-94700000D01*
%TO.C,D79*%
X67500000Y-32000000D02*
X67500000Y-32700000D01*
%TO.C,D45*%
X89100000Y-137400000D02*
X89100000Y-138100000D01*
%TO.C,D30*%
X72900000Y-59900000D02*
X72900000Y-60600000D01*
%TO.C,D43*%
X110700000Y-143600000D02*
X110700000Y-144300000D01*
%TO.C,D33*%
X105300000Y-50600000D02*
X105300000Y-51300000D01*
%TO.C,D79*%
X89100000Y-32000000D02*
X89100000Y-32700000D01*
%TO.C,D9*%
X116100000Y-125000000D02*
X116100000Y-125700000D01*
%TO.C,D4*%
X105300000Y-140500000D02*
X105300000Y-141200000D01*
%TO.C,D3*%
X126900000Y-143600000D02*
X126900000Y-144300000D01*
%TO.C,D21*%
X83700000Y-87800000D02*
X83700000Y-88500000D01*
%TO.C,D11*%
X126900000Y-118800000D02*
X126900000Y-119500000D01*
%TO.C,D14*%
X62100000Y-109500000D02*
X62100000Y-110200000D01*
%TO.C,D50*%
X121500000Y-121900000D02*
X121500000Y-122600000D01*
%TO.C,D62*%
X56700000Y-84700000D02*
X56700000Y-85400000D01*
%TO.C,D59*%
X89100000Y-94000000D02*
X89100000Y-94700000D01*
%TO.C,D33*%
X126900000Y-50600000D02*
X126900000Y-51300000D01*
%TO.C,D51*%
X132300000Y-118800000D02*
X132300000Y-119500000D01*
%TO.C,D15*%
X83700000Y-106400000D02*
X83700000Y-107100000D01*
%TO.C,D1*%
X126900000Y-149800000D02*
X126900000Y-150500000D01*
%TO.C,D25*%
X72900000Y-75400000D02*
X72900000Y-76100000D01*
%TO.C,D75*%
X89100000Y-44400000D02*
X89100000Y-45100000D01*
%TO.C,D55*%
X56700000Y-106400000D02*
X56700000Y-107100000D01*
%TO.C,D3*%
X94500000Y-143600000D02*
X94500000Y-144300000D01*
%TO.C,D49*%
X99900000Y-125000000D02*
X99900000Y-125700000D01*
%TO.C,D73*%
X110700000Y-50600000D02*
X110700000Y-51300000D01*
%TO.C,D75*%
X99900000Y-44400000D02*
X99900000Y-45100000D01*
%TO.C,D54*%
X99900000Y-109500000D02*
X99900000Y-110200000D01*
%TO.C,D23*%
X51300000Y-81600000D02*
X51300000Y-82300000D01*
%TO.C,D11*%
X72900000Y-118800000D02*
X72900000Y-119500000D01*
%TO.C,D61*%
X132300000Y-87800000D02*
X132300000Y-88500000D01*
%TO.C,D57*%
X99900000Y-100200000D02*
X99900000Y-100900000D01*
%TO.C,D14*%
X105300000Y-109500000D02*
X105300000Y-110200000D01*
%TO.C,D12*%
X116100000Y-115700000D02*
X116100000Y-116400000D01*
%TO.C,D53*%
X132300000Y-112600000D02*
X132300000Y-113300000D01*
%TO.C,D61*%
X89100000Y-87800000D02*
X89100000Y-88500000D01*
%TO.C,D68*%
X132300000Y-66100000D02*
X132300000Y-66800000D01*
%TO.C,D13*%
X72890000Y-112600000D02*
X72890000Y-113300000D01*
%TO.C,D56*%
X110700000Y-103300000D02*
X110700000Y-104000000D01*
%TO.C,D76*%
X132300000Y-41300000D02*
X132300000Y-42000000D01*
%TO.C,D41*%
X67500000Y-149800000D02*
X67500000Y-150500000D01*
%TO.C,D12*%
X72900000Y-115700000D02*
X72900000Y-116400000D01*
%TO.C,D2*%
X83700000Y-146700000D02*
X83700000Y-147400000D01*
%TO.C,D46*%
X110700000Y-134300000D02*
X110700000Y-135000000D01*
%TO.C,D8*%
X72900000Y-128100000D02*
X72900000Y-128800000D01*
%TO.C,D38*%
X51300000Y-35100000D02*
X51300000Y-35800000D01*
%TO.C,D79*%
X78300000Y-32000000D02*
X78300000Y-32700000D01*
%TO.C,D31*%
X126900000Y-56800000D02*
X126900000Y-57500000D01*
%TO.C,D77*%
X89100000Y-38200000D02*
X89100000Y-38900000D01*
%TO.C,D16*%
X116100000Y-103300000D02*
X116100000Y-104000000D01*
%TO.C,D39*%
X51300000Y-32000000D02*
X51300000Y-32700000D01*
%TO.C,D42*%
X110690000Y-146700000D02*
X110690000Y-147400000D01*
%TO.C,D41*%
X110700000Y-149800000D02*
X110700000Y-150500000D01*
%TO.C,D22*%
X51300000Y-84700000D02*
X51300000Y-85400000D01*
%TO.C,D19*%
X116100000Y-94000000D02*
X116100000Y-94700000D01*
%TO.C,D67*%
X121500000Y-69200000D02*
X121500000Y-69900000D01*
%TO.C,D10*%
X51300000Y-121900000D02*
X51300000Y-122600000D01*
%TO.C,D78*%
X110700000Y-35100000D02*
X110700000Y-35800000D01*
%TO.C,D42*%
X99890000Y-146700000D02*
X99890000Y-147400000D01*
%TO.C,D27*%
X94500000Y-69200000D02*
X94500000Y-69900000D01*
%TO.C,D16*%
X72900000Y-103300000D02*
X72900000Y-104000000D01*
%TO.C,D78*%
X132300000Y-35100000D02*
X132300000Y-35800000D01*
%TO.C,D21*%
X51300000Y-87800000D02*
X51300000Y-88500000D01*
%TO.C,D50*%
X132300000Y-121900000D02*
X132300000Y-122600000D01*
%TO.C,D61*%
X121500000Y-87800000D02*
X121500000Y-88500000D01*
%TO.C,D2*%
X94500000Y-146700000D02*
X94500000Y-147400000D01*
%TO.C,D4*%
X51300000Y-140500000D02*
X51300000Y-141200000D01*
%TO.C,D57*%
X56700000Y-100200000D02*
X56700000Y-100900000D01*
%TO.C,D46*%
X132300000Y-134300000D02*
X132300000Y-135000000D01*
%TO.C,D38*%
X72900000Y-35100000D02*
X72900000Y-35800000D01*
%TO.C,D52*%
X89100000Y-115700000D02*
X89100000Y-116400000D01*
%TO.C,D39*%
X105300000Y-32000000D02*
X105300000Y-32700000D01*
%TO.C,D59*%
X121500000Y-94000000D02*
X121500000Y-94700000D01*
%TO.C,D71*%
X56700000Y-56800000D02*
X56700000Y-57500000D01*
X89100000Y-56800000D02*
X89100000Y-57500000D01*
%TO.C,D47*%
X78300000Y-131200000D02*
X78300000Y-131900000D01*
%TO.C,D23*%
X62100000Y-81600000D02*
X62100000Y-82300000D01*
%TD*%
M02*
