%TF.GenerationSoftware,KiCad,Pcbnew,9.0.3*%
%TF.CreationDate,2025-08-18T15:11:30-04:00*%
%TF.ProjectId,flowstick_led_strip_panel,666c6f77-7374-4696-936b-5f6c65645f73,rev?*%
%TF.SameCoordinates,Original*%
%TF.FileFunction,Soldermask,Top*%
%TF.FilePolarity,Negative*%
%FSLAX46Y46*%
G04 Gerber Fmt 4.6, Leading zero omitted, Abs format (unit mm)*
G04 Created by KiCad (PCBNEW 9.0.3) date 2025-08-18 15:11:30*
%MOMM*%
%LPD*%
G01*
G04 APERTURE LIST*
%ADD10R,0.500000X0.900000*%
%ADD11C,2.000000*%
%ADD12R,1.700000X1.700000*%
%ADD13C,1.700000*%
G04 APERTURE END LIST*
D10*
%TO.C,D13*%
X118290000Y-113050000D03*
X117490000Y-113050000D03*
X116690000Y-113050000D03*
X116690000Y-114550000D03*
X117490000Y-114550000D03*
X118290000Y-114550000D03*
%TD*%
%TO.C,D36*%
X118300000Y-41750000D03*
X117500000Y-41750000D03*
X116700000Y-41750000D03*
X116700000Y-43250000D03*
X117500000Y-43250000D03*
X118300000Y-43250000D03*
%TD*%
%TO.C,D71*%
X123700000Y-57250000D03*
X122900000Y-57250000D03*
X122100000Y-57250000D03*
X122100000Y-58750000D03*
X122900000Y-58750000D03*
X123700000Y-58750000D03*
%TD*%
%TO.C,D16*%
X118300000Y-103750000D03*
X117500000Y-103750000D03*
X116700000Y-103750000D03*
X116700000Y-105250000D03*
X117500000Y-105250000D03*
X118300000Y-105250000D03*
%TD*%
%TO.C,D38*%
X118300000Y-35550000D03*
X117500000Y-35550000D03*
X116700000Y-35550000D03*
X116700000Y-37050000D03*
X117500000Y-37050000D03*
X118300000Y-37050000D03*
%TD*%
%TO.C,D31*%
X118300000Y-57250000D03*
X117500000Y-57250000D03*
X116700000Y-57250000D03*
X116700000Y-58750000D03*
X117500000Y-58750000D03*
X118300000Y-58750000D03*
%TD*%
%TO.C,D74*%
X123700000Y-47950000D03*
X122900000Y-47950000D03*
X122100000Y-47950000D03*
X122100000Y-49450000D03*
X122900000Y-49450000D03*
X123700000Y-49450000D03*
%TD*%
%TO.C,D53*%
X123700000Y-113050000D03*
X122900000Y-113050000D03*
X122100000Y-113050000D03*
X122100000Y-114550000D03*
X122900000Y-114550000D03*
X123700000Y-114550000D03*
%TD*%
%TO.C,D41*%
X123700000Y-150250000D03*
X122900000Y-150250000D03*
X122100000Y-150250000D03*
X122100000Y-151750000D03*
X122900000Y-151750000D03*
X123700000Y-151750000D03*
%TD*%
%TO.C,D6*%
X118300000Y-134750000D03*
X117500000Y-134750000D03*
X116700000Y-134750000D03*
X116700000Y-136250000D03*
X117500000Y-136250000D03*
X118300000Y-136250000D03*
%TD*%
%TO.C,D63*%
X123700000Y-82050000D03*
X122900000Y-82050000D03*
X122100000Y-82050000D03*
X122100000Y-83550000D03*
X122900000Y-83550000D03*
X123700000Y-83550000D03*
%TD*%
%TO.C,D15*%
X118300000Y-106850000D03*
X117500000Y-106850000D03*
X116700000Y-106850000D03*
X116700000Y-108350000D03*
X117500000Y-108350000D03*
X118300000Y-108350000D03*
%TD*%
%TO.C,D1*%
X118300000Y-150250000D03*
X117500000Y-150250000D03*
X116700000Y-150250000D03*
X116700000Y-151750000D03*
X117500000Y-151750000D03*
X118300000Y-151750000D03*
%TD*%
%TO.C,D11*%
X118300000Y-119250000D03*
X117500000Y-119250000D03*
X116700000Y-119250000D03*
X116700000Y-120750000D03*
X117500000Y-120750000D03*
X118300000Y-120750000D03*
%TD*%
%TO.C,D58*%
X123700000Y-97550000D03*
X122900000Y-97550000D03*
X122100000Y-97550000D03*
X122100000Y-99050000D03*
X122900000Y-99050000D03*
X123700000Y-99050000D03*
%TD*%
%TO.C,D26*%
X118300000Y-72750000D03*
X117500000Y-72750000D03*
X116700000Y-72750000D03*
X116700000Y-74250000D03*
X117500000Y-74250000D03*
X118300000Y-74250000D03*
%TD*%
%TO.C,D9*%
X118300000Y-125450000D03*
X117500000Y-125450000D03*
X116700000Y-125450000D03*
X116700000Y-126950000D03*
X117500000Y-126950000D03*
X118300000Y-126950000D03*
%TD*%
%TO.C,D62*%
X123700000Y-85150000D03*
X122900000Y-85150000D03*
X122100000Y-85150000D03*
X122100000Y-86650000D03*
X122900000Y-86650000D03*
X123700000Y-86650000D03*
%TD*%
%TO.C,D25*%
X118300000Y-75850000D03*
X117500000Y-75850000D03*
X116700000Y-75850000D03*
X116700000Y-77350000D03*
X117500000Y-77350000D03*
X118300000Y-77350000D03*
%TD*%
%TO.C,D75*%
X123700000Y-44850000D03*
X122900000Y-44850000D03*
X122100000Y-44850000D03*
X122100000Y-46350000D03*
X122900000Y-46350000D03*
X123700000Y-46350000D03*
%TD*%
%TO.C,D22*%
X118300000Y-85150000D03*
X117500000Y-85150000D03*
X116700000Y-85150000D03*
X116700000Y-86650000D03*
X117500000Y-86650000D03*
X118300000Y-86650000D03*
%TD*%
%TO.C,D32*%
X118300000Y-54150000D03*
X117500000Y-54150000D03*
X116700000Y-54150000D03*
X116700000Y-55650000D03*
X117500000Y-55650000D03*
X118300000Y-55650000D03*
%TD*%
%TO.C,D51*%
X123700000Y-119250000D03*
X122900000Y-119250000D03*
X122100000Y-119250000D03*
X122100000Y-120750000D03*
X122900000Y-120750000D03*
X123700000Y-120750000D03*
%TD*%
%TO.C,D70*%
X123700000Y-60350000D03*
X122900000Y-60350000D03*
X122100000Y-60350000D03*
X122100000Y-61850000D03*
X122900000Y-61850000D03*
X123700000Y-61850000D03*
%TD*%
%TO.C,D78*%
X123700000Y-35550000D03*
X122900000Y-35550000D03*
X122100000Y-35550000D03*
X122100000Y-37050000D03*
X122900000Y-37050000D03*
X123700000Y-37050000D03*
%TD*%
%TO.C,D56*%
X123700000Y-103750000D03*
X122900000Y-103750000D03*
X122100000Y-103750000D03*
X122100000Y-105250000D03*
X122900000Y-105250000D03*
X123700000Y-105250000D03*
%TD*%
%TO.C,D7*%
X118300000Y-131650000D03*
X117500000Y-131650000D03*
X116700000Y-131650000D03*
X116700000Y-133150000D03*
X117500000Y-133150000D03*
X118300000Y-133150000D03*
%TD*%
%TO.C,D80*%
X123700000Y-29350000D03*
X122900000Y-29350000D03*
X122100000Y-29350000D03*
X122100000Y-30850000D03*
X122900000Y-30850000D03*
X123700000Y-30850000D03*
%TD*%
%TO.C,D37*%
X118300000Y-38650000D03*
X117500000Y-38650000D03*
X116700000Y-38650000D03*
X116700000Y-40150000D03*
X117500000Y-40150000D03*
X118300000Y-40150000D03*
%TD*%
%TO.C,D48*%
X123700000Y-128550000D03*
X122900000Y-128550000D03*
X122100000Y-128550000D03*
X122100000Y-130050000D03*
X122900000Y-130050000D03*
X123700000Y-130050000D03*
%TD*%
%TO.C,D46*%
X123700000Y-134750000D03*
X122900000Y-134750000D03*
X122100000Y-134750000D03*
X122100000Y-136250000D03*
X122900000Y-136250000D03*
X123700000Y-136250000D03*
%TD*%
%TO.C,D29*%
X118300000Y-63450000D03*
X117500000Y-63450000D03*
X116700000Y-63450000D03*
X116700000Y-64950000D03*
X117500000Y-64950000D03*
X118300000Y-64950000D03*
%TD*%
%TO.C,D10*%
X118300000Y-122350000D03*
X117500000Y-122350000D03*
X116700000Y-122350000D03*
X116700000Y-123850000D03*
X117500000Y-123850000D03*
X118300000Y-123850000D03*
%TD*%
%TO.C,D76*%
X123700000Y-41750000D03*
X122900000Y-41750000D03*
X122100000Y-41750000D03*
X122100000Y-43250000D03*
X122900000Y-43250000D03*
X123700000Y-43250000D03*
%TD*%
%TO.C,D27*%
X118300000Y-69650000D03*
X117500000Y-69650000D03*
X116700000Y-69650000D03*
X116700000Y-71150000D03*
X117500000Y-71150000D03*
X118300000Y-71150000D03*
%TD*%
%TO.C,D64*%
X123700000Y-78950000D03*
X122900000Y-78950000D03*
X122100000Y-78950000D03*
X122100000Y-80450000D03*
X122900000Y-80450000D03*
X123700000Y-80450000D03*
%TD*%
%TO.C,D39*%
X118300000Y-32450000D03*
X117500000Y-32450000D03*
X116700000Y-32450000D03*
X116700000Y-33950000D03*
X117500000Y-33950000D03*
X118300000Y-33950000D03*
%TD*%
%TO.C,D8*%
X118300000Y-128550000D03*
X117500000Y-128550000D03*
X116700000Y-128550000D03*
X116700000Y-130050000D03*
X117500000Y-130050000D03*
X118300000Y-130050000D03*
%TD*%
%TO.C,D65*%
X123700000Y-75850000D03*
X122900000Y-75850000D03*
X122100000Y-75850000D03*
X122100000Y-77350000D03*
X122900000Y-77350000D03*
X123700000Y-77350000D03*
%TD*%
%TO.C,D61*%
X123700000Y-88250000D03*
X122900000Y-88250000D03*
X122100000Y-88250000D03*
X122100000Y-89750000D03*
X122900000Y-89750000D03*
X123700000Y-89750000D03*
%TD*%
%TO.C,D77*%
X123700000Y-38650000D03*
X122900000Y-38650000D03*
X122100000Y-38650000D03*
X122100000Y-40150000D03*
X122900000Y-40150000D03*
X123700000Y-40150000D03*
%TD*%
%TO.C,D50*%
X123700000Y-122350000D03*
X122900000Y-122350000D03*
X122100000Y-122350000D03*
X122100000Y-123850000D03*
X122900000Y-123850000D03*
X123700000Y-123850000D03*
%TD*%
%TO.C,D33*%
X118300000Y-51050000D03*
X117500000Y-51050000D03*
X116700000Y-51050000D03*
X116700000Y-52550000D03*
X117500000Y-52550000D03*
X118300000Y-52550000D03*
%TD*%
%TO.C,D47*%
X123700000Y-131650000D03*
X122900000Y-131650000D03*
X122100000Y-131650000D03*
X122100000Y-133150000D03*
X122900000Y-133150000D03*
X123700000Y-133150000D03*
%TD*%
%TO.C,D18*%
X118300000Y-97550000D03*
X117500000Y-97550000D03*
X116700000Y-97550000D03*
X116700000Y-99050000D03*
X117500000Y-99050000D03*
X118300000Y-99050000D03*
%TD*%
%TO.C,D3*%
X118300000Y-144050000D03*
X117500000Y-144050000D03*
X116700000Y-144050000D03*
X116700000Y-145550000D03*
X117500000Y-145550000D03*
X118300000Y-145550000D03*
%TD*%
%TO.C,D59*%
X123700000Y-94450000D03*
X122900000Y-94450000D03*
X122100000Y-94450000D03*
X122100000Y-95950000D03*
X122900000Y-95950000D03*
X123700000Y-95950000D03*
%TD*%
%TO.C,D67*%
X123700000Y-69650000D03*
X122900000Y-69650000D03*
X122100000Y-69650000D03*
X122100000Y-71150000D03*
X122900000Y-71150000D03*
X123700000Y-71150000D03*
%TD*%
%TO.C,D12*%
X118300000Y-116150000D03*
X117500000Y-116150000D03*
X116700000Y-116150000D03*
X116700000Y-117650000D03*
X117500000Y-117650000D03*
X118300000Y-117650000D03*
%TD*%
%TO.C,D49*%
X123700000Y-125450000D03*
X122900000Y-125450000D03*
X122100000Y-125450000D03*
X122100000Y-126950000D03*
X122900000Y-126950000D03*
X123700000Y-126950000D03*
%TD*%
%TO.C,D68*%
X123700000Y-66550000D03*
X122900000Y-66550000D03*
X122100000Y-66550000D03*
X122100000Y-68050000D03*
X122900000Y-68050000D03*
X123700000Y-68050000D03*
%TD*%
%TO.C,D30*%
X118300000Y-60350000D03*
X117500000Y-60350000D03*
X116700000Y-60350000D03*
X116700000Y-61850000D03*
X117500000Y-61850000D03*
X118300000Y-61850000D03*
%TD*%
%TO.C,D72*%
X123700000Y-54150000D03*
X122900000Y-54150000D03*
X122100000Y-54150000D03*
X122100000Y-55650000D03*
X122900000Y-55650000D03*
X123700000Y-55650000D03*
%TD*%
%TO.C,D69*%
X123700000Y-63450000D03*
X122900000Y-63450000D03*
X122100000Y-63450000D03*
X122100000Y-64950000D03*
X122900000Y-64950000D03*
X123700000Y-64950000D03*
%TD*%
%TO.C,D24*%
X118300000Y-78950000D03*
X117500000Y-78950000D03*
X116700000Y-78950000D03*
X116700000Y-80450000D03*
X117500000Y-80450000D03*
X118300000Y-80450000D03*
%TD*%
%TO.C,D73*%
X123700000Y-51050000D03*
X122900000Y-51050000D03*
X122100000Y-51050000D03*
X122100000Y-52550000D03*
X122900000Y-52550000D03*
X123700000Y-52550000D03*
%TD*%
%TO.C,D57*%
X123700000Y-100650000D03*
X122900000Y-100650000D03*
X122100000Y-100650000D03*
X122100000Y-102150000D03*
X122900000Y-102150000D03*
X123700000Y-102150000D03*
%TD*%
%TO.C,D4*%
X118300000Y-140950000D03*
X117500000Y-140950000D03*
X116700000Y-140950000D03*
X116700000Y-142450000D03*
X117500000Y-142450000D03*
X118300000Y-142450000D03*
%TD*%
%TO.C,D55*%
X123700000Y-106850000D03*
X122900000Y-106850000D03*
X122100000Y-106850000D03*
X122100000Y-108350000D03*
X122900000Y-108350000D03*
X123700000Y-108350000D03*
%TD*%
%TO.C,D17*%
X118300000Y-100650000D03*
X117500000Y-100650000D03*
X116700000Y-100650000D03*
X116700000Y-102150000D03*
X117500000Y-102150000D03*
X118300000Y-102150000D03*
%TD*%
%TO.C,D79*%
X123700000Y-32450000D03*
X122900000Y-32450000D03*
X122100000Y-32450000D03*
X122100000Y-33950000D03*
X122900000Y-33950000D03*
X123700000Y-33950000D03*
%TD*%
%TO.C,D44*%
X123690000Y-140950000D03*
X122890000Y-140950000D03*
X122090000Y-140950000D03*
X122090000Y-142450000D03*
X122890000Y-142450000D03*
X123690000Y-142450000D03*
%TD*%
%TO.C,D2*%
X118300000Y-147150000D03*
X117500000Y-147150000D03*
X116700000Y-147150000D03*
X116700000Y-148650000D03*
X117500000Y-148650000D03*
X118300000Y-148650000D03*
%TD*%
%TO.C,D66*%
X123700000Y-72750000D03*
X122900000Y-72750000D03*
X122100000Y-72750000D03*
X122100000Y-74250000D03*
X122900000Y-74250000D03*
X123700000Y-74250000D03*
%TD*%
%TO.C,D43*%
X123700000Y-144050000D03*
X122900000Y-144050000D03*
X122100000Y-144050000D03*
X122100000Y-145550000D03*
X122900000Y-145550000D03*
X123700000Y-145550000D03*
%TD*%
%TO.C,D45*%
X123700000Y-137850000D03*
X122900000Y-137850000D03*
X122100000Y-137850000D03*
X122100000Y-139350000D03*
X122900000Y-139350000D03*
X123700000Y-139350000D03*
%TD*%
%TO.C,D28*%
X118300000Y-66550000D03*
X117500000Y-66550000D03*
X116700000Y-66550000D03*
X116700000Y-68050000D03*
X117500000Y-68050000D03*
X118300000Y-68050000D03*
%TD*%
%TO.C,D5*%
X118300000Y-137850000D03*
X117500000Y-137850000D03*
X116700000Y-137850000D03*
X116700000Y-139350000D03*
X117500000Y-139350000D03*
X118300000Y-139350000D03*
%TD*%
%TO.C,D34*%
X118300000Y-47950000D03*
X117500000Y-47950000D03*
X116700000Y-47950000D03*
X116700000Y-49450000D03*
X117500000Y-49450000D03*
X118300000Y-49450000D03*
%TD*%
%TO.C,D54*%
X123700000Y-109950000D03*
X122900000Y-109950000D03*
X122100000Y-109950000D03*
X122100000Y-111450000D03*
X122900000Y-111450000D03*
X123700000Y-111450000D03*
%TD*%
%TO.C,D40*%
X118300000Y-29350000D03*
X117500000Y-29350000D03*
X116700000Y-29350000D03*
X116700000Y-30850000D03*
X117500000Y-30850000D03*
X118300000Y-30850000D03*
%TD*%
%TO.C,D35*%
X118300000Y-44850000D03*
X117500000Y-44850000D03*
X116700000Y-44850000D03*
X116700000Y-46350000D03*
X117500000Y-46350000D03*
X118300000Y-46350000D03*
%TD*%
%TO.C,D14*%
X118300000Y-109950000D03*
X117500000Y-109950000D03*
X116700000Y-109950000D03*
X116700000Y-111450000D03*
X117500000Y-111450000D03*
X118300000Y-111450000D03*
%TD*%
%TO.C,D19*%
X118300000Y-94450000D03*
X117500000Y-94450000D03*
X116700000Y-94450000D03*
X116700000Y-95950000D03*
X117500000Y-95950000D03*
X118300000Y-95950000D03*
%TD*%
%TO.C,D42*%
X123690000Y-147150000D03*
X122890000Y-147150000D03*
X122090000Y-147150000D03*
X122090000Y-148650000D03*
X122890000Y-148650000D03*
X123690000Y-148650000D03*
%TD*%
%TO.C,D52*%
X123700000Y-116150000D03*
X122900000Y-116150000D03*
X122100000Y-116150000D03*
X122100000Y-117650000D03*
X122900000Y-117650000D03*
X123700000Y-117650000D03*
%TD*%
%TO.C,D20*%
X118300000Y-91350000D03*
X117500000Y-91350000D03*
X116700000Y-91350000D03*
X116700000Y-92850000D03*
X117500000Y-92850000D03*
X118300000Y-92850000D03*
%TD*%
%TO.C,D21*%
X118300000Y-88250000D03*
X117500000Y-88250000D03*
X116700000Y-88250000D03*
X116700000Y-89750000D03*
X117500000Y-89750000D03*
X118300000Y-89750000D03*
%TD*%
%TO.C,D23*%
X118300000Y-82050000D03*
X117500000Y-82050000D03*
X116700000Y-82050000D03*
X116700000Y-83550000D03*
X117500000Y-83550000D03*
X118300000Y-83550000D03*
%TD*%
%TO.C,D60*%
X123700000Y-91350000D03*
X122900000Y-91350000D03*
X122100000Y-91350000D03*
X122100000Y-92850000D03*
X122900000Y-92850000D03*
X123700000Y-92850000D03*
%TD*%
%TO.C,D49*%
X112900000Y-125450000D03*
X112100000Y-125450000D03*
X111300000Y-125450000D03*
X111300000Y-126950000D03*
X112100000Y-126950000D03*
X112900000Y-126950000D03*
%TD*%
%TO.C,D36*%
X107500000Y-41750000D03*
X106700000Y-41750000D03*
X105900000Y-41750000D03*
X105900000Y-43250000D03*
X106700000Y-43250000D03*
X107500000Y-43250000D03*
%TD*%
%TO.C,D16*%
X107500000Y-103750000D03*
X106700000Y-103750000D03*
X105900000Y-103750000D03*
X105900000Y-105250000D03*
X106700000Y-105250000D03*
X107500000Y-105250000D03*
%TD*%
%TO.C,D38*%
X107500000Y-35550000D03*
X106700000Y-35550000D03*
X105900000Y-35550000D03*
X105900000Y-37050000D03*
X106700000Y-37050000D03*
X107500000Y-37050000D03*
%TD*%
%TO.C,D31*%
X107500000Y-57250000D03*
X106700000Y-57250000D03*
X105900000Y-57250000D03*
X105900000Y-58750000D03*
X106700000Y-58750000D03*
X107500000Y-58750000D03*
%TD*%
%TO.C,D74*%
X112900000Y-47950000D03*
X112100000Y-47950000D03*
X111300000Y-47950000D03*
X111300000Y-49450000D03*
X112100000Y-49450000D03*
X112900000Y-49450000D03*
%TD*%
%TO.C,D41*%
X112900000Y-150250000D03*
X112100000Y-150250000D03*
X111300000Y-150250000D03*
X111300000Y-151750000D03*
X112100000Y-151750000D03*
X112900000Y-151750000D03*
%TD*%
%TO.C,D6*%
X107500000Y-134750000D03*
X106700000Y-134750000D03*
X105900000Y-134750000D03*
X105900000Y-136250000D03*
X106700000Y-136250000D03*
X107500000Y-136250000D03*
%TD*%
%TO.C,D28*%
X107500000Y-66550000D03*
X106700000Y-66550000D03*
X105900000Y-66550000D03*
X105900000Y-68050000D03*
X106700000Y-68050000D03*
X107500000Y-68050000D03*
%TD*%
%TO.C,D4*%
X107500000Y-140950000D03*
X106700000Y-140950000D03*
X105900000Y-140950000D03*
X105900000Y-142450000D03*
X106700000Y-142450000D03*
X107500000Y-142450000D03*
%TD*%
%TO.C,D15*%
X107500000Y-106850000D03*
X106700000Y-106850000D03*
X105900000Y-106850000D03*
X105900000Y-108350000D03*
X106700000Y-108350000D03*
X107500000Y-108350000D03*
%TD*%
%TO.C,D1*%
X107500000Y-150250000D03*
X106700000Y-150250000D03*
X105900000Y-150250000D03*
X105900000Y-151750000D03*
X106700000Y-151750000D03*
X107500000Y-151750000D03*
%TD*%
%TO.C,D11*%
X107500000Y-119250000D03*
X106700000Y-119250000D03*
X105900000Y-119250000D03*
X105900000Y-120750000D03*
X106700000Y-120750000D03*
X107500000Y-120750000D03*
%TD*%
%TO.C,D58*%
X112900000Y-97550000D03*
X112100000Y-97550000D03*
X111300000Y-97550000D03*
X111300000Y-99050000D03*
X112100000Y-99050000D03*
X112900000Y-99050000D03*
%TD*%
%TO.C,D26*%
X107500000Y-72750000D03*
X106700000Y-72750000D03*
X105900000Y-72750000D03*
X105900000Y-74250000D03*
X106700000Y-74250000D03*
X107500000Y-74250000D03*
%TD*%
%TO.C,D9*%
X107500000Y-125450000D03*
X106700000Y-125450000D03*
X105900000Y-125450000D03*
X105900000Y-126950000D03*
X106700000Y-126950000D03*
X107500000Y-126950000D03*
%TD*%
%TO.C,D75*%
X112900000Y-44850000D03*
X112100000Y-44850000D03*
X111300000Y-44850000D03*
X111300000Y-46350000D03*
X112100000Y-46350000D03*
X112900000Y-46350000D03*
%TD*%
%TO.C,D22*%
X107500000Y-85150000D03*
X106700000Y-85150000D03*
X105900000Y-85150000D03*
X105900000Y-86650000D03*
X106700000Y-86650000D03*
X107500000Y-86650000D03*
%TD*%
%TO.C,D32*%
X107500000Y-54150000D03*
X106700000Y-54150000D03*
X105900000Y-54150000D03*
X105900000Y-55650000D03*
X106700000Y-55650000D03*
X107500000Y-55650000D03*
%TD*%
%TO.C,D8*%
X107500000Y-128550000D03*
X106700000Y-128550000D03*
X105900000Y-128550000D03*
X105900000Y-130050000D03*
X106700000Y-130050000D03*
X107500000Y-130050000D03*
%TD*%
%TO.C,D34*%
X107500000Y-47950000D03*
X106700000Y-47950000D03*
X105900000Y-47950000D03*
X105900000Y-49450000D03*
X106700000Y-49450000D03*
X107500000Y-49450000D03*
%TD*%
%TO.C,D78*%
X112900000Y-35550000D03*
X112100000Y-35550000D03*
X111300000Y-35550000D03*
X111300000Y-37050000D03*
X112100000Y-37050000D03*
X112900000Y-37050000D03*
%TD*%
%TO.C,D27*%
X107500000Y-69650000D03*
X106700000Y-69650000D03*
X105900000Y-69650000D03*
X105900000Y-71150000D03*
X106700000Y-71150000D03*
X107500000Y-71150000D03*
%TD*%
%TO.C,D56*%
X112900000Y-103750000D03*
X112100000Y-103750000D03*
X111300000Y-103750000D03*
X111300000Y-105250000D03*
X112100000Y-105250000D03*
X112900000Y-105250000D03*
%TD*%
%TO.C,D66*%
X112900000Y-72750000D03*
X112100000Y-72750000D03*
X111300000Y-72750000D03*
X111300000Y-74250000D03*
X112100000Y-74250000D03*
X112900000Y-74250000D03*
%TD*%
%TO.C,D80*%
X112900000Y-29350000D03*
X112100000Y-29350000D03*
X111300000Y-29350000D03*
X111300000Y-30850000D03*
X112100000Y-30850000D03*
X112900000Y-30850000D03*
%TD*%
%TO.C,D37*%
X107500000Y-38650000D03*
X106700000Y-38650000D03*
X105900000Y-38650000D03*
X105900000Y-40150000D03*
X106700000Y-40150000D03*
X107500000Y-40150000D03*
%TD*%
%TO.C,D25*%
X107500000Y-75850000D03*
X106700000Y-75850000D03*
X105900000Y-75850000D03*
X105900000Y-77350000D03*
X106700000Y-77350000D03*
X107500000Y-77350000D03*
%TD*%
%TO.C,D46*%
X112900000Y-134750000D03*
X112100000Y-134750000D03*
X111300000Y-134750000D03*
X111300000Y-136250000D03*
X112100000Y-136250000D03*
X112900000Y-136250000D03*
%TD*%
%TO.C,D29*%
X107500000Y-63450000D03*
X106700000Y-63450000D03*
X105900000Y-63450000D03*
X105900000Y-64950000D03*
X106700000Y-64950000D03*
X107500000Y-64950000D03*
%TD*%
%TO.C,D63*%
X112900000Y-82050000D03*
X112100000Y-82050000D03*
X111300000Y-82050000D03*
X111300000Y-83550000D03*
X112100000Y-83550000D03*
X112900000Y-83550000D03*
%TD*%
%TO.C,D10*%
X107500000Y-122350000D03*
X106700000Y-122350000D03*
X105900000Y-122350000D03*
X105900000Y-123850000D03*
X106700000Y-123850000D03*
X107500000Y-123850000D03*
%TD*%
%TO.C,D51*%
X112900000Y-119250000D03*
X112100000Y-119250000D03*
X111300000Y-119250000D03*
X111300000Y-120750000D03*
X112100000Y-120750000D03*
X112900000Y-120750000D03*
%TD*%
%TO.C,D7*%
X107500000Y-131650000D03*
X106700000Y-131650000D03*
X105900000Y-131650000D03*
X105900000Y-133150000D03*
X106700000Y-133150000D03*
X107500000Y-133150000D03*
%TD*%
%TO.C,D13*%
X107490000Y-113050000D03*
X106690000Y-113050000D03*
X105890000Y-113050000D03*
X105890000Y-114550000D03*
X106690000Y-114550000D03*
X107490000Y-114550000D03*
%TD*%
%TO.C,D64*%
X112900000Y-78950000D03*
X112100000Y-78950000D03*
X111300000Y-78950000D03*
X111300000Y-80450000D03*
X112100000Y-80450000D03*
X112900000Y-80450000D03*
%TD*%
%TO.C,D60*%
X112900000Y-91350000D03*
X112100000Y-91350000D03*
X111300000Y-91350000D03*
X111300000Y-92850000D03*
X112100000Y-92850000D03*
X112900000Y-92850000D03*
%TD*%
%TO.C,D39*%
X107500000Y-32450000D03*
X106700000Y-32450000D03*
X105900000Y-32450000D03*
X105900000Y-33950000D03*
X106700000Y-33950000D03*
X107500000Y-33950000D03*
%TD*%
%TO.C,D65*%
X112900000Y-75850000D03*
X112100000Y-75850000D03*
X111300000Y-75850000D03*
X111300000Y-77350000D03*
X112100000Y-77350000D03*
X112900000Y-77350000D03*
%TD*%
%TO.C,D61*%
X112900000Y-88250000D03*
X112100000Y-88250000D03*
X111300000Y-88250000D03*
X111300000Y-89750000D03*
X112100000Y-89750000D03*
X112900000Y-89750000D03*
%TD*%
%TO.C,D77*%
X112900000Y-38650000D03*
X112100000Y-38650000D03*
X111300000Y-38650000D03*
X111300000Y-40150000D03*
X112100000Y-40150000D03*
X112900000Y-40150000D03*
%TD*%
%TO.C,D50*%
X112900000Y-122350000D03*
X112100000Y-122350000D03*
X111300000Y-122350000D03*
X111300000Y-123850000D03*
X112100000Y-123850000D03*
X112900000Y-123850000D03*
%TD*%
%TO.C,D33*%
X107500000Y-51050000D03*
X106700000Y-51050000D03*
X105900000Y-51050000D03*
X105900000Y-52550000D03*
X106700000Y-52550000D03*
X107500000Y-52550000D03*
%TD*%
%TO.C,D47*%
X112900000Y-131650000D03*
X112100000Y-131650000D03*
X111300000Y-131650000D03*
X111300000Y-133150000D03*
X112100000Y-133150000D03*
X112900000Y-133150000D03*
%TD*%
%TO.C,D55*%
X112900000Y-106850000D03*
X112100000Y-106850000D03*
X111300000Y-106850000D03*
X111300000Y-108350000D03*
X112100000Y-108350000D03*
X112900000Y-108350000D03*
%TD*%
%TO.C,D18*%
X107500000Y-97550000D03*
X106700000Y-97550000D03*
X105900000Y-97550000D03*
X105900000Y-99050000D03*
X106700000Y-99050000D03*
X107500000Y-99050000D03*
%TD*%
%TO.C,D3*%
X107500000Y-144050000D03*
X106700000Y-144050000D03*
X105900000Y-144050000D03*
X105900000Y-145550000D03*
X106700000Y-145550000D03*
X107500000Y-145550000D03*
%TD*%
%TO.C,D59*%
X112900000Y-94450000D03*
X112100000Y-94450000D03*
X111300000Y-94450000D03*
X111300000Y-95950000D03*
X112100000Y-95950000D03*
X112900000Y-95950000D03*
%TD*%
%TO.C,D67*%
X112900000Y-69650000D03*
X112100000Y-69650000D03*
X111300000Y-69650000D03*
X111300000Y-71150000D03*
X112100000Y-71150000D03*
X112900000Y-71150000D03*
%TD*%
%TO.C,D12*%
X107500000Y-116150000D03*
X106700000Y-116150000D03*
X105900000Y-116150000D03*
X105900000Y-117650000D03*
X106700000Y-117650000D03*
X107500000Y-117650000D03*
%TD*%
%TO.C,D76*%
X112900000Y-41750000D03*
X112100000Y-41750000D03*
X111300000Y-41750000D03*
X111300000Y-43250000D03*
X112100000Y-43250000D03*
X112900000Y-43250000D03*
%TD*%
%TO.C,D68*%
X112900000Y-66550000D03*
X112100000Y-66550000D03*
X111300000Y-66550000D03*
X111300000Y-68050000D03*
X112100000Y-68050000D03*
X112900000Y-68050000D03*
%TD*%
%TO.C,D30*%
X107500000Y-60350000D03*
X106700000Y-60350000D03*
X105900000Y-60350000D03*
X105900000Y-61850000D03*
X106700000Y-61850000D03*
X107500000Y-61850000D03*
%TD*%
%TO.C,D53*%
X112900000Y-113050000D03*
X112100000Y-113050000D03*
X111300000Y-113050000D03*
X111300000Y-114550000D03*
X112100000Y-114550000D03*
X112900000Y-114550000D03*
%TD*%
%TO.C,D72*%
X112900000Y-54150000D03*
X112100000Y-54150000D03*
X111300000Y-54150000D03*
X111300000Y-55650000D03*
X112100000Y-55650000D03*
X112900000Y-55650000D03*
%TD*%
%TO.C,D69*%
X112900000Y-63450000D03*
X112100000Y-63450000D03*
X111300000Y-63450000D03*
X111300000Y-64950000D03*
X112100000Y-64950000D03*
X112900000Y-64950000D03*
%TD*%
%TO.C,D24*%
X107500000Y-78950000D03*
X106700000Y-78950000D03*
X105900000Y-78950000D03*
X105900000Y-80450000D03*
X106700000Y-80450000D03*
X107500000Y-80450000D03*
%TD*%
%TO.C,D2*%
X107500000Y-147150000D03*
X106700000Y-147150000D03*
X105900000Y-147150000D03*
X105900000Y-148650000D03*
X106700000Y-148650000D03*
X107500000Y-148650000D03*
%TD*%
%TO.C,D57*%
X112900000Y-100650000D03*
X112100000Y-100650000D03*
X111300000Y-100650000D03*
X111300000Y-102150000D03*
X112100000Y-102150000D03*
X112900000Y-102150000D03*
%TD*%
%TO.C,D45*%
X112900000Y-137850000D03*
X112100000Y-137850000D03*
X111300000Y-137850000D03*
X111300000Y-139350000D03*
X112100000Y-139350000D03*
X112900000Y-139350000D03*
%TD*%
%TO.C,D17*%
X107500000Y-100650000D03*
X106700000Y-100650000D03*
X105900000Y-100650000D03*
X105900000Y-102150000D03*
X106700000Y-102150000D03*
X107500000Y-102150000D03*
%TD*%
%TO.C,D79*%
X112900000Y-32450000D03*
X112100000Y-32450000D03*
X111300000Y-32450000D03*
X111300000Y-33950000D03*
X112100000Y-33950000D03*
X112900000Y-33950000D03*
%TD*%
%TO.C,D21*%
X107500000Y-88250000D03*
X106700000Y-88250000D03*
X105900000Y-88250000D03*
X105900000Y-89750000D03*
X106700000Y-89750000D03*
X107500000Y-89750000D03*
%TD*%
%TO.C,D43*%
X112900000Y-144050000D03*
X112100000Y-144050000D03*
X111300000Y-144050000D03*
X111300000Y-145550000D03*
X112100000Y-145550000D03*
X112900000Y-145550000D03*
%TD*%
%TO.C,D62*%
X112900000Y-85150000D03*
X112100000Y-85150000D03*
X111300000Y-85150000D03*
X111300000Y-86650000D03*
X112100000Y-86650000D03*
X112900000Y-86650000D03*
%TD*%
%TO.C,D44*%
X112890000Y-140950000D03*
X112090000Y-140950000D03*
X111290000Y-140950000D03*
X111290000Y-142450000D03*
X112090000Y-142450000D03*
X112890000Y-142450000D03*
%TD*%
%TO.C,D5*%
X107500000Y-137850000D03*
X106700000Y-137850000D03*
X105900000Y-137850000D03*
X105900000Y-139350000D03*
X106700000Y-139350000D03*
X107500000Y-139350000D03*
%TD*%
%TO.C,D14*%
X107500000Y-109950000D03*
X106700000Y-109950000D03*
X105900000Y-109950000D03*
X105900000Y-111450000D03*
X106700000Y-111450000D03*
X107500000Y-111450000D03*
%TD*%
%TO.C,D54*%
X112900000Y-109950000D03*
X112100000Y-109950000D03*
X111300000Y-109950000D03*
X111300000Y-111450000D03*
X112100000Y-111450000D03*
X112900000Y-111450000D03*
%TD*%
%TO.C,D40*%
X107500000Y-29350000D03*
X106700000Y-29350000D03*
X105900000Y-29350000D03*
X105900000Y-30850000D03*
X106700000Y-30850000D03*
X107500000Y-30850000D03*
%TD*%
%TO.C,D48*%
X112900000Y-128550000D03*
X112100000Y-128550000D03*
X111300000Y-128550000D03*
X111300000Y-130050000D03*
X112100000Y-130050000D03*
X112900000Y-130050000D03*
%TD*%
%TO.C,D35*%
X107500000Y-44850000D03*
X106700000Y-44850000D03*
X105900000Y-44850000D03*
X105900000Y-46350000D03*
X106700000Y-46350000D03*
X107500000Y-46350000D03*
%TD*%
%TO.C,D19*%
X107500000Y-94450000D03*
X106700000Y-94450000D03*
X105900000Y-94450000D03*
X105900000Y-95950000D03*
X106700000Y-95950000D03*
X107500000Y-95950000D03*
%TD*%
%TO.C,D42*%
X112890000Y-147150000D03*
X112090000Y-147150000D03*
X111290000Y-147150000D03*
X111290000Y-148650000D03*
X112090000Y-148650000D03*
X112890000Y-148650000D03*
%TD*%
%TO.C,D52*%
X112900000Y-116150000D03*
X112100000Y-116150000D03*
X111300000Y-116150000D03*
X111300000Y-117650000D03*
X112100000Y-117650000D03*
X112900000Y-117650000D03*
%TD*%
%TO.C,D70*%
X112900000Y-60350000D03*
X112100000Y-60350000D03*
X111300000Y-60350000D03*
X111300000Y-61850000D03*
X112100000Y-61850000D03*
X112900000Y-61850000D03*
%TD*%
%TO.C,D20*%
X107500000Y-91350000D03*
X106700000Y-91350000D03*
X105900000Y-91350000D03*
X105900000Y-92850000D03*
X106700000Y-92850000D03*
X107500000Y-92850000D03*
%TD*%
%TO.C,D71*%
X112900000Y-57250000D03*
X112100000Y-57250000D03*
X111300000Y-57250000D03*
X111300000Y-58750000D03*
X112100000Y-58750000D03*
X112900000Y-58750000D03*
%TD*%
%TO.C,D23*%
X107500000Y-82050000D03*
X106700000Y-82050000D03*
X105900000Y-82050000D03*
X105900000Y-83550000D03*
X106700000Y-83550000D03*
X107500000Y-83550000D03*
%TD*%
%TO.C,D73*%
X112900000Y-51050000D03*
X112100000Y-51050000D03*
X111300000Y-51050000D03*
X111300000Y-52550000D03*
X112100000Y-52550000D03*
X112900000Y-52550000D03*
%TD*%
%TO.C,D46*%
X102100000Y-134750000D03*
X101300000Y-134750000D03*
X100500000Y-134750000D03*
X100500000Y-136250000D03*
X101300000Y-136250000D03*
X102100000Y-136250000D03*
%TD*%
%TO.C,D36*%
X96700000Y-41750000D03*
X95900000Y-41750000D03*
X95100000Y-41750000D03*
X95100000Y-43250000D03*
X95900000Y-43250000D03*
X96700000Y-43250000D03*
%TD*%
%TO.C,D22*%
X96700000Y-85150000D03*
X95900000Y-85150000D03*
X95100000Y-85150000D03*
X95100000Y-86650000D03*
X95900000Y-86650000D03*
X96700000Y-86650000D03*
%TD*%
%TO.C,D75*%
X102100000Y-44850000D03*
X101300000Y-44850000D03*
X100500000Y-44850000D03*
X100500000Y-46350000D03*
X101300000Y-46350000D03*
X102100000Y-46350000D03*
%TD*%
%TO.C,D16*%
X96700000Y-103750000D03*
X95900000Y-103750000D03*
X95100000Y-103750000D03*
X95100000Y-105250000D03*
X95900000Y-105250000D03*
X96700000Y-105250000D03*
%TD*%
%TO.C,D30*%
X96700000Y-60350000D03*
X95900000Y-60350000D03*
X95100000Y-60350000D03*
X95100000Y-61850000D03*
X95900000Y-61850000D03*
X96700000Y-61850000D03*
%TD*%
%TO.C,D38*%
X96700000Y-35550000D03*
X95900000Y-35550000D03*
X95100000Y-35550000D03*
X95100000Y-37050000D03*
X95900000Y-37050000D03*
X96700000Y-37050000D03*
%TD*%
%TO.C,D2*%
X96700000Y-147150000D03*
X95900000Y-147150000D03*
X95100000Y-147150000D03*
X95100000Y-148650000D03*
X95900000Y-148650000D03*
X96700000Y-148650000D03*
%TD*%
%TO.C,D31*%
X96700000Y-57250000D03*
X95900000Y-57250000D03*
X95100000Y-57250000D03*
X95100000Y-58750000D03*
X95900000Y-58750000D03*
X96700000Y-58750000D03*
%TD*%
%TO.C,D74*%
X102100000Y-47950000D03*
X101300000Y-47950000D03*
X100500000Y-47950000D03*
X100500000Y-49450000D03*
X101300000Y-49450000D03*
X102100000Y-49450000D03*
%TD*%
%TO.C,D41*%
X102100000Y-150250000D03*
X101300000Y-150250000D03*
X100500000Y-150250000D03*
X100500000Y-151750000D03*
X101300000Y-151750000D03*
X102100000Y-151750000D03*
%TD*%
%TO.C,D6*%
X96700000Y-134750000D03*
X95900000Y-134750000D03*
X95100000Y-134750000D03*
X95100000Y-136250000D03*
X95900000Y-136250000D03*
X96700000Y-136250000D03*
%TD*%
%TO.C,D15*%
X96700000Y-106850000D03*
X95900000Y-106850000D03*
X95100000Y-106850000D03*
X95100000Y-108350000D03*
X95900000Y-108350000D03*
X96700000Y-108350000D03*
%TD*%
%TO.C,D1*%
X96700000Y-150250000D03*
X95900000Y-150250000D03*
X95100000Y-150250000D03*
X95100000Y-151750000D03*
X95900000Y-151750000D03*
X96700000Y-151750000D03*
%TD*%
%TO.C,D11*%
X96700000Y-119250000D03*
X95900000Y-119250000D03*
X95100000Y-119250000D03*
X95100000Y-120750000D03*
X95900000Y-120750000D03*
X96700000Y-120750000D03*
%TD*%
%TO.C,D68*%
X102100000Y-66550000D03*
X101300000Y-66550000D03*
X100500000Y-66550000D03*
X100500000Y-68050000D03*
X101300000Y-68050000D03*
X102100000Y-68050000D03*
%TD*%
%TO.C,D58*%
X102100000Y-97550000D03*
X101300000Y-97550000D03*
X100500000Y-97550000D03*
X100500000Y-99050000D03*
X101300000Y-99050000D03*
X102100000Y-99050000D03*
%TD*%
%TO.C,D26*%
X96700000Y-72750000D03*
X95900000Y-72750000D03*
X95100000Y-72750000D03*
X95100000Y-74250000D03*
X95900000Y-74250000D03*
X96700000Y-74250000D03*
%TD*%
%TO.C,D9*%
X96700000Y-125450000D03*
X95900000Y-125450000D03*
X95100000Y-125450000D03*
X95100000Y-126950000D03*
X95900000Y-126950000D03*
X96700000Y-126950000D03*
%TD*%
%TO.C,D56*%
X102100000Y-103750000D03*
X101300000Y-103750000D03*
X100500000Y-103750000D03*
X100500000Y-105250000D03*
X101300000Y-105250000D03*
X102100000Y-105250000D03*
%TD*%
%TO.C,D32*%
X96700000Y-54150000D03*
X95900000Y-54150000D03*
X95100000Y-54150000D03*
X95100000Y-55650000D03*
X95900000Y-55650000D03*
X96700000Y-55650000D03*
%TD*%
%TO.C,D69*%
X102100000Y-63450000D03*
X101300000Y-63450000D03*
X100500000Y-63450000D03*
X100500000Y-64950000D03*
X101300000Y-64950000D03*
X102100000Y-64950000D03*
%TD*%
%TO.C,D72*%
X102100000Y-54150000D03*
X101300000Y-54150000D03*
X100500000Y-54150000D03*
X100500000Y-55650000D03*
X101300000Y-55650000D03*
X102100000Y-55650000D03*
%TD*%
%TO.C,D78*%
X102100000Y-35550000D03*
X101300000Y-35550000D03*
X100500000Y-35550000D03*
X100500000Y-37050000D03*
X101300000Y-37050000D03*
X102100000Y-37050000D03*
%TD*%
%TO.C,D63*%
X102100000Y-82050000D03*
X101300000Y-82050000D03*
X100500000Y-82050000D03*
X100500000Y-83550000D03*
X101300000Y-83550000D03*
X102100000Y-83550000D03*
%TD*%
%TO.C,D80*%
X102100000Y-29350000D03*
X101300000Y-29350000D03*
X100500000Y-29350000D03*
X100500000Y-30850000D03*
X101300000Y-30850000D03*
X102100000Y-30850000D03*
%TD*%
%TO.C,D37*%
X96700000Y-38650000D03*
X95900000Y-38650000D03*
X95100000Y-38650000D03*
X95100000Y-40150000D03*
X95900000Y-40150000D03*
X96700000Y-40150000D03*
%TD*%
%TO.C,D25*%
X96700000Y-75850000D03*
X95900000Y-75850000D03*
X95100000Y-75850000D03*
X95100000Y-77350000D03*
X95900000Y-77350000D03*
X96700000Y-77350000D03*
%TD*%
%TO.C,D43*%
X102100000Y-144050000D03*
X101300000Y-144050000D03*
X100500000Y-144050000D03*
X100500000Y-145550000D03*
X101300000Y-145550000D03*
X102100000Y-145550000D03*
%TD*%
%TO.C,D29*%
X96700000Y-63450000D03*
X95900000Y-63450000D03*
X95100000Y-63450000D03*
X95100000Y-64950000D03*
X95900000Y-64950000D03*
X96700000Y-64950000D03*
%TD*%
%TO.C,D49*%
X102100000Y-125450000D03*
X101300000Y-125450000D03*
X100500000Y-125450000D03*
X100500000Y-126950000D03*
X101300000Y-126950000D03*
X102100000Y-126950000D03*
%TD*%
%TO.C,D10*%
X96700000Y-122350000D03*
X95900000Y-122350000D03*
X95100000Y-122350000D03*
X95100000Y-123850000D03*
X95900000Y-123850000D03*
X96700000Y-123850000D03*
%TD*%
%TO.C,D27*%
X96700000Y-69650000D03*
X95900000Y-69650000D03*
X95100000Y-69650000D03*
X95100000Y-71150000D03*
X95900000Y-71150000D03*
X96700000Y-71150000D03*
%TD*%
%TO.C,D13*%
X96690000Y-113050000D03*
X95890000Y-113050000D03*
X95090000Y-113050000D03*
X95090000Y-114550000D03*
X95890000Y-114550000D03*
X96690000Y-114550000D03*
%TD*%
%TO.C,D64*%
X102100000Y-78950000D03*
X101300000Y-78950000D03*
X100500000Y-78950000D03*
X100500000Y-80450000D03*
X101300000Y-80450000D03*
X102100000Y-80450000D03*
%TD*%
%TO.C,D39*%
X96700000Y-32450000D03*
X95900000Y-32450000D03*
X95100000Y-32450000D03*
X95100000Y-33950000D03*
X95900000Y-33950000D03*
X96700000Y-33950000D03*
%TD*%
%TO.C,D8*%
X96700000Y-128550000D03*
X95900000Y-128550000D03*
X95100000Y-128550000D03*
X95100000Y-130050000D03*
X95900000Y-130050000D03*
X96700000Y-130050000D03*
%TD*%
%TO.C,D65*%
X102100000Y-75850000D03*
X101300000Y-75850000D03*
X100500000Y-75850000D03*
X100500000Y-77350000D03*
X101300000Y-77350000D03*
X102100000Y-77350000D03*
%TD*%
%TO.C,D61*%
X102100000Y-88250000D03*
X101300000Y-88250000D03*
X100500000Y-88250000D03*
X100500000Y-89750000D03*
X101300000Y-89750000D03*
X102100000Y-89750000D03*
%TD*%
%TO.C,D77*%
X102100000Y-38650000D03*
X101300000Y-38650000D03*
X100500000Y-38650000D03*
X100500000Y-40150000D03*
X101300000Y-40150000D03*
X102100000Y-40150000D03*
%TD*%
%TO.C,D50*%
X102100000Y-122350000D03*
X101300000Y-122350000D03*
X100500000Y-122350000D03*
X100500000Y-123850000D03*
X101300000Y-123850000D03*
X102100000Y-123850000D03*
%TD*%
%TO.C,D12*%
X96700000Y-116150000D03*
X95900000Y-116150000D03*
X95100000Y-116150000D03*
X95100000Y-117650000D03*
X95900000Y-117650000D03*
X96700000Y-117650000D03*
%TD*%
%TO.C,D33*%
X96700000Y-51050000D03*
X95900000Y-51050000D03*
X95100000Y-51050000D03*
X95100000Y-52550000D03*
X95900000Y-52550000D03*
X96700000Y-52550000D03*
%TD*%
%TO.C,D47*%
X102100000Y-131650000D03*
X101300000Y-131650000D03*
X100500000Y-131650000D03*
X100500000Y-133150000D03*
X101300000Y-133150000D03*
X102100000Y-133150000D03*
%TD*%
%TO.C,D18*%
X96700000Y-97550000D03*
X95900000Y-97550000D03*
X95100000Y-97550000D03*
X95100000Y-99050000D03*
X95900000Y-99050000D03*
X96700000Y-99050000D03*
%TD*%
%TO.C,D3*%
X96700000Y-144050000D03*
X95900000Y-144050000D03*
X95100000Y-144050000D03*
X95100000Y-145550000D03*
X95900000Y-145550000D03*
X96700000Y-145550000D03*
%TD*%
%TO.C,D59*%
X102100000Y-94450000D03*
X101300000Y-94450000D03*
X100500000Y-94450000D03*
X100500000Y-95950000D03*
X101300000Y-95950000D03*
X102100000Y-95950000D03*
%TD*%
%TO.C,D67*%
X102100000Y-69650000D03*
X101300000Y-69650000D03*
X100500000Y-69650000D03*
X100500000Y-71150000D03*
X101300000Y-71150000D03*
X102100000Y-71150000D03*
%TD*%
%TO.C,D7*%
X96700000Y-131650000D03*
X95900000Y-131650000D03*
X95100000Y-131650000D03*
X95100000Y-133150000D03*
X95900000Y-133150000D03*
X96700000Y-133150000D03*
%TD*%
%TO.C,D76*%
X102100000Y-41750000D03*
X101300000Y-41750000D03*
X100500000Y-41750000D03*
X100500000Y-43250000D03*
X101300000Y-43250000D03*
X102100000Y-43250000D03*
%TD*%
%TO.C,D24*%
X96700000Y-78950000D03*
X95900000Y-78950000D03*
X95100000Y-78950000D03*
X95100000Y-80450000D03*
X95900000Y-80450000D03*
X96700000Y-80450000D03*
%TD*%
%TO.C,D57*%
X102100000Y-100650000D03*
X101300000Y-100650000D03*
X100500000Y-100650000D03*
X100500000Y-102150000D03*
X101300000Y-102150000D03*
X102100000Y-102150000D03*
%TD*%
%TO.C,D17*%
X96700000Y-100650000D03*
X95900000Y-100650000D03*
X95100000Y-100650000D03*
X95100000Y-102150000D03*
X95900000Y-102150000D03*
X96700000Y-102150000D03*
%TD*%
%TO.C,D4*%
X96700000Y-140950000D03*
X95900000Y-140950000D03*
X95100000Y-140950000D03*
X95100000Y-142450000D03*
X95900000Y-142450000D03*
X96700000Y-142450000D03*
%TD*%
%TO.C,D55*%
X102100000Y-106850000D03*
X101300000Y-106850000D03*
X100500000Y-106850000D03*
X100500000Y-108350000D03*
X101300000Y-108350000D03*
X102100000Y-108350000D03*
%TD*%
%TO.C,D79*%
X102100000Y-32450000D03*
X101300000Y-32450000D03*
X100500000Y-32450000D03*
X100500000Y-33950000D03*
X101300000Y-33950000D03*
X102100000Y-33950000D03*
%TD*%
%TO.C,D66*%
X102100000Y-72750000D03*
X101300000Y-72750000D03*
X100500000Y-72750000D03*
X100500000Y-74250000D03*
X101300000Y-74250000D03*
X102100000Y-74250000D03*
%TD*%
%TO.C,D28*%
X96700000Y-66550000D03*
X95900000Y-66550000D03*
X95100000Y-66550000D03*
X95100000Y-68050000D03*
X95900000Y-68050000D03*
X96700000Y-68050000D03*
%TD*%
%TO.C,D53*%
X102100000Y-113050000D03*
X101300000Y-113050000D03*
X100500000Y-113050000D03*
X100500000Y-114550000D03*
X101300000Y-114550000D03*
X102100000Y-114550000D03*
%TD*%
%TO.C,D62*%
X102100000Y-85150000D03*
X101300000Y-85150000D03*
X100500000Y-85150000D03*
X100500000Y-86650000D03*
X101300000Y-86650000D03*
X102100000Y-86650000D03*
%TD*%
%TO.C,D44*%
X102090000Y-140950000D03*
X101290000Y-140950000D03*
X100490000Y-140950000D03*
X100490000Y-142450000D03*
X101290000Y-142450000D03*
X102090000Y-142450000D03*
%TD*%
%TO.C,D21*%
X96700000Y-88250000D03*
X95900000Y-88250000D03*
X95100000Y-88250000D03*
X95100000Y-89750000D03*
X95900000Y-89750000D03*
X96700000Y-89750000D03*
%TD*%
%TO.C,D45*%
X102100000Y-137850000D03*
X101300000Y-137850000D03*
X100500000Y-137850000D03*
X100500000Y-139350000D03*
X101300000Y-139350000D03*
X102100000Y-139350000D03*
%TD*%
%TO.C,D5*%
X96700000Y-137850000D03*
X95900000Y-137850000D03*
X95100000Y-137850000D03*
X95100000Y-139350000D03*
X95900000Y-139350000D03*
X96700000Y-139350000D03*
%TD*%
%TO.C,D34*%
X96700000Y-47950000D03*
X95900000Y-47950000D03*
X95100000Y-47950000D03*
X95100000Y-49450000D03*
X95900000Y-49450000D03*
X96700000Y-49450000D03*
%TD*%
%TO.C,D51*%
X102100000Y-119250000D03*
X101300000Y-119250000D03*
X100500000Y-119250000D03*
X100500000Y-120750000D03*
X101300000Y-120750000D03*
X102100000Y-120750000D03*
%TD*%
%TO.C,D54*%
X102100000Y-109950000D03*
X101300000Y-109950000D03*
X100500000Y-109950000D03*
X100500000Y-111450000D03*
X101300000Y-111450000D03*
X102100000Y-111450000D03*
%TD*%
%TO.C,D40*%
X96700000Y-29350000D03*
X95900000Y-29350000D03*
X95100000Y-29350000D03*
X95100000Y-30850000D03*
X95900000Y-30850000D03*
X96700000Y-30850000D03*
%TD*%
%TO.C,D48*%
X102100000Y-128550000D03*
X101300000Y-128550000D03*
X100500000Y-128550000D03*
X100500000Y-130050000D03*
X101300000Y-130050000D03*
X102100000Y-130050000D03*
%TD*%
%TO.C,D35*%
X96700000Y-44850000D03*
X95900000Y-44850000D03*
X95100000Y-44850000D03*
X95100000Y-46350000D03*
X95900000Y-46350000D03*
X96700000Y-46350000D03*
%TD*%
%TO.C,D14*%
X96700000Y-109950000D03*
X95900000Y-109950000D03*
X95100000Y-109950000D03*
X95100000Y-111450000D03*
X95900000Y-111450000D03*
X96700000Y-111450000D03*
%TD*%
%TO.C,D19*%
X96700000Y-94450000D03*
X95900000Y-94450000D03*
X95100000Y-94450000D03*
X95100000Y-95950000D03*
X95900000Y-95950000D03*
X96700000Y-95950000D03*
%TD*%
%TO.C,D42*%
X102090000Y-147150000D03*
X101290000Y-147150000D03*
X100490000Y-147150000D03*
X100490000Y-148650000D03*
X101290000Y-148650000D03*
X102090000Y-148650000D03*
%TD*%
%TO.C,D52*%
X102100000Y-116150000D03*
X101300000Y-116150000D03*
X100500000Y-116150000D03*
X100500000Y-117650000D03*
X101300000Y-117650000D03*
X102100000Y-117650000D03*
%TD*%
%TO.C,D70*%
X102100000Y-60350000D03*
X101300000Y-60350000D03*
X100500000Y-60350000D03*
X100500000Y-61850000D03*
X101300000Y-61850000D03*
X102100000Y-61850000D03*
%TD*%
%TO.C,D20*%
X96700000Y-91350000D03*
X95900000Y-91350000D03*
X95100000Y-91350000D03*
X95100000Y-92850000D03*
X95900000Y-92850000D03*
X96700000Y-92850000D03*
%TD*%
%TO.C,D71*%
X102100000Y-57250000D03*
X101300000Y-57250000D03*
X100500000Y-57250000D03*
X100500000Y-58750000D03*
X101300000Y-58750000D03*
X102100000Y-58750000D03*
%TD*%
%TO.C,D23*%
X96700000Y-82050000D03*
X95900000Y-82050000D03*
X95100000Y-82050000D03*
X95100000Y-83550000D03*
X95900000Y-83550000D03*
X96700000Y-83550000D03*
%TD*%
%TO.C,D60*%
X102100000Y-91350000D03*
X101300000Y-91350000D03*
X100500000Y-91350000D03*
X100500000Y-92850000D03*
X101300000Y-92850000D03*
X102100000Y-92850000D03*
%TD*%
%TO.C,D73*%
X102100000Y-51050000D03*
X101300000Y-51050000D03*
X100500000Y-51050000D03*
X100500000Y-52550000D03*
X101300000Y-52550000D03*
X102100000Y-52550000D03*
%TD*%
%TO.C,D78*%
X91300000Y-35550000D03*
X90500000Y-35550000D03*
X89700000Y-35550000D03*
X89700000Y-37050000D03*
X90500000Y-37050000D03*
X91300000Y-37050000D03*
%TD*%
%TO.C,D76*%
X91300000Y-41750000D03*
X90500000Y-41750000D03*
X89700000Y-41750000D03*
X89700000Y-43250000D03*
X90500000Y-43250000D03*
X91300000Y-43250000D03*
%TD*%
%TO.C,D36*%
X85900000Y-41750000D03*
X85100000Y-41750000D03*
X84300000Y-41750000D03*
X84300000Y-43250000D03*
X85100000Y-43250000D03*
X85900000Y-43250000D03*
%TD*%
%TO.C,D16*%
X85900000Y-103750000D03*
X85100000Y-103750000D03*
X84300000Y-103750000D03*
X84300000Y-105250000D03*
X85100000Y-105250000D03*
X85900000Y-105250000D03*
%TD*%
%TO.C,D38*%
X85900000Y-35550000D03*
X85100000Y-35550000D03*
X84300000Y-35550000D03*
X84300000Y-37050000D03*
X85100000Y-37050000D03*
X85900000Y-37050000D03*
%TD*%
%TO.C,D31*%
X85900000Y-57250000D03*
X85100000Y-57250000D03*
X84300000Y-57250000D03*
X84300000Y-58750000D03*
X85100000Y-58750000D03*
X85900000Y-58750000D03*
%TD*%
%TO.C,D74*%
X91300000Y-47950000D03*
X90500000Y-47950000D03*
X89700000Y-47950000D03*
X89700000Y-49450000D03*
X90500000Y-49450000D03*
X91300000Y-49450000D03*
%TD*%
%TO.C,D41*%
X91300000Y-150250000D03*
X90500000Y-150250000D03*
X89700000Y-150250000D03*
X89700000Y-151750000D03*
X90500000Y-151750000D03*
X91300000Y-151750000D03*
%TD*%
%TO.C,D19*%
X85900000Y-94450000D03*
X85100000Y-94450000D03*
X84300000Y-94450000D03*
X84300000Y-95950000D03*
X85100000Y-95950000D03*
X85900000Y-95950000D03*
%TD*%
%TO.C,D6*%
X85900000Y-134750000D03*
X85100000Y-134750000D03*
X84300000Y-134750000D03*
X84300000Y-136250000D03*
X85100000Y-136250000D03*
X85900000Y-136250000D03*
%TD*%
%TO.C,D15*%
X85900000Y-106850000D03*
X85100000Y-106850000D03*
X84300000Y-106850000D03*
X84300000Y-108350000D03*
X85100000Y-108350000D03*
X85900000Y-108350000D03*
%TD*%
%TO.C,D1*%
X85900000Y-150250000D03*
X85100000Y-150250000D03*
X84300000Y-150250000D03*
X84300000Y-151750000D03*
X85100000Y-151750000D03*
X85900000Y-151750000D03*
%TD*%
%TO.C,D35*%
X85900000Y-44850000D03*
X85100000Y-44850000D03*
X84300000Y-44850000D03*
X84300000Y-46350000D03*
X85100000Y-46350000D03*
X85900000Y-46350000D03*
%TD*%
%TO.C,D11*%
X85900000Y-119250000D03*
X85100000Y-119250000D03*
X84300000Y-119250000D03*
X84300000Y-120750000D03*
X85100000Y-120750000D03*
X85900000Y-120750000D03*
%TD*%
%TO.C,D58*%
X91300000Y-97550000D03*
X90500000Y-97550000D03*
X89700000Y-97550000D03*
X89700000Y-99050000D03*
X90500000Y-99050000D03*
X91300000Y-99050000D03*
%TD*%
%TO.C,D26*%
X85900000Y-72750000D03*
X85100000Y-72750000D03*
X84300000Y-72750000D03*
X84300000Y-74250000D03*
X85100000Y-74250000D03*
X85900000Y-74250000D03*
%TD*%
%TO.C,D9*%
X85900000Y-125450000D03*
X85100000Y-125450000D03*
X84300000Y-125450000D03*
X84300000Y-126950000D03*
X85100000Y-126950000D03*
X85900000Y-126950000D03*
%TD*%
%TO.C,D75*%
X91300000Y-44850000D03*
X90500000Y-44850000D03*
X89700000Y-44850000D03*
X89700000Y-46350000D03*
X90500000Y-46350000D03*
X91300000Y-46350000D03*
%TD*%
%TO.C,D22*%
X85900000Y-85150000D03*
X85100000Y-85150000D03*
X84300000Y-85150000D03*
X84300000Y-86650000D03*
X85100000Y-86650000D03*
X85900000Y-86650000D03*
%TD*%
%TO.C,D32*%
X85900000Y-54150000D03*
X85100000Y-54150000D03*
X84300000Y-54150000D03*
X84300000Y-55650000D03*
X85100000Y-55650000D03*
X85900000Y-55650000D03*
%TD*%
%TO.C,D28*%
X85900000Y-66550000D03*
X85100000Y-66550000D03*
X84300000Y-66550000D03*
X84300000Y-68050000D03*
X85100000Y-68050000D03*
X85900000Y-68050000D03*
%TD*%
%TO.C,D3*%
X85900000Y-144050000D03*
X85100000Y-144050000D03*
X84300000Y-144050000D03*
X84300000Y-145550000D03*
X85100000Y-145550000D03*
X85900000Y-145550000D03*
%TD*%
%TO.C,D13*%
X85890000Y-113050000D03*
X85090000Y-113050000D03*
X84290000Y-113050000D03*
X84290000Y-114550000D03*
X85090000Y-114550000D03*
X85890000Y-114550000D03*
%TD*%
%TO.C,D59*%
X91300000Y-94450000D03*
X90500000Y-94450000D03*
X89700000Y-94450000D03*
X89700000Y-95950000D03*
X90500000Y-95950000D03*
X91300000Y-95950000D03*
%TD*%
%TO.C,D60*%
X91300000Y-91350000D03*
X90500000Y-91350000D03*
X89700000Y-91350000D03*
X89700000Y-92850000D03*
X90500000Y-92850000D03*
X91300000Y-92850000D03*
%TD*%
%TO.C,D68*%
X91300000Y-66550000D03*
X90500000Y-66550000D03*
X89700000Y-66550000D03*
X89700000Y-68050000D03*
X90500000Y-68050000D03*
X91300000Y-68050000D03*
%TD*%
%TO.C,D56*%
X91300000Y-103750000D03*
X90500000Y-103750000D03*
X89700000Y-103750000D03*
X89700000Y-105250000D03*
X90500000Y-105250000D03*
X91300000Y-105250000D03*
%TD*%
%TO.C,D4*%
X85900000Y-140950000D03*
X85100000Y-140950000D03*
X84300000Y-140950000D03*
X84300000Y-142450000D03*
X85100000Y-142450000D03*
X85900000Y-142450000D03*
%TD*%
%TO.C,D80*%
X91300000Y-29350000D03*
X90500000Y-29350000D03*
X89700000Y-29350000D03*
X89700000Y-30850000D03*
X90500000Y-30850000D03*
X91300000Y-30850000D03*
%TD*%
%TO.C,D37*%
X85900000Y-38650000D03*
X85100000Y-38650000D03*
X84300000Y-38650000D03*
X84300000Y-40150000D03*
X85100000Y-40150000D03*
X85900000Y-40150000D03*
%TD*%
%TO.C,D25*%
X85900000Y-75850000D03*
X85100000Y-75850000D03*
X84300000Y-75850000D03*
X84300000Y-77350000D03*
X85100000Y-77350000D03*
X85900000Y-77350000D03*
%TD*%
%TO.C,D46*%
X91300000Y-134750000D03*
X90500000Y-134750000D03*
X89700000Y-134750000D03*
X89700000Y-136250000D03*
X90500000Y-136250000D03*
X91300000Y-136250000D03*
%TD*%
%TO.C,D71*%
X91300000Y-57250000D03*
X90500000Y-57250000D03*
X89700000Y-57250000D03*
X89700000Y-58750000D03*
X90500000Y-58750000D03*
X91300000Y-58750000D03*
%TD*%
%TO.C,D5*%
X85900000Y-137850000D03*
X85100000Y-137850000D03*
X84300000Y-137850000D03*
X84300000Y-139350000D03*
X85100000Y-139350000D03*
X85900000Y-139350000D03*
%TD*%
%TO.C,D7*%
X85900000Y-131650000D03*
X85100000Y-131650000D03*
X84300000Y-131650000D03*
X84300000Y-133150000D03*
X85100000Y-133150000D03*
X85900000Y-133150000D03*
%TD*%
%TO.C,D29*%
X85900000Y-63450000D03*
X85100000Y-63450000D03*
X84300000Y-63450000D03*
X84300000Y-64950000D03*
X85100000Y-64950000D03*
X85900000Y-64950000D03*
%TD*%
%TO.C,D10*%
X85900000Y-122350000D03*
X85100000Y-122350000D03*
X84300000Y-122350000D03*
X84300000Y-123850000D03*
X85100000Y-123850000D03*
X85900000Y-123850000D03*
%TD*%
%TO.C,D72*%
X91300000Y-54150000D03*
X90500000Y-54150000D03*
X89700000Y-54150000D03*
X89700000Y-55650000D03*
X90500000Y-55650000D03*
X91300000Y-55650000D03*
%TD*%
%TO.C,D27*%
X85900000Y-69650000D03*
X85100000Y-69650000D03*
X84300000Y-69650000D03*
X84300000Y-71150000D03*
X85100000Y-71150000D03*
X85900000Y-71150000D03*
%TD*%
%TO.C,D43*%
X91300000Y-144050000D03*
X90500000Y-144050000D03*
X89700000Y-144050000D03*
X89700000Y-145550000D03*
X90500000Y-145550000D03*
X91300000Y-145550000D03*
%TD*%
%TO.C,D64*%
X91300000Y-78950000D03*
X90500000Y-78950000D03*
X89700000Y-78950000D03*
X89700000Y-80450000D03*
X90500000Y-80450000D03*
X91300000Y-80450000D03*
%TD*%
%TO.C,D39*%
X85900000Y-32450000D03*
X85100000Y-32450000D03*
X84300000Y-32450000D03*
X84300000Y-33950000D03*
X85100000Y-33950000D03*
X85900000Y-33950000D03*
%TD*%
%TO.C,D8*%
X85900000Y-128550000D03*
X85100000Y-128550000D03*
X84300000Y-128550000D03*
X84300000Y-130050000D03*
X85100000Y-130050000D03*
X85900000Y-130050000D03*
%TD*%
%TO.C,D65*%
X91300000Y-75850000D03*
X90500000Y-75850000D03*
X89700000Y-75850000D03*
X89700000Y-77350000D03*
X90500000Y-77350000D03*
X91300000Y-77350000D03*
%TD*%
%TO.C,D61*%
X91300000Y-88250000D03*
X90500000Y-88250000D03*
X89700000Y-88250000D03*
X89700000Y-89750000D03*
X90500000Y-89750000D03*
X91300000Y-89750000D03*
%TD*%
%TO.C,D77*%
X91300000Y-38650000D03*
X90500000Y-38650000D03*
X89700000Y-38650000D03*
X89700000Y-40150000D03*
X90500000Y-40150000D03*
X91300000Y-40150000D03*
%TD*%
%TO.C,D50*%
X91300000Y-122350000D03*
X90500000Y-122350000D03*
X89700000Y-122350000D03*
X89700000Y-123850000D03*
X90500000Y-123850000D03*
X91300000Y-123850000D03*
%TD*%
%TO.C,D33*%
X85900000Y-51050000D03*
X85100000Y-51050000D03*
X84300000Y-51050000D03*
X84300000Y-52550000D03*
X85100000Y-52550000D03*
X85900000Y-52550000D03*
%TD*%
%TO.C,D47*%
X91300000Y-131650000D03*
X90500000Y-131650000D03*
X89700000Y-131650000D03*
X89700000Y-133150000D03*
X90500000Y-133150000D03*
X91300000Y-133150000D03*
%TD*%
%TO.C,D18*%
X85900000Y-97550000D03*
X85100000Y-97550000D03*
X84300000Y-97550000D03*
X84300000Y-99050000D03*
X85100000Y-99050000D03*
X85900000Y-99050000D03*
%TD*%
%TO.C,D67*%
X91300000Y-69650000D03*
X90500000Y-69650000D03*
X89700000Y-69650000D03*
X89700000Y-71150000D03*
X90500000Y-71150000D03*
X91300000Y-71150000D03*
%TD*%
%TO.C,D12*%
X85900000Y-116150000D03*
X85100000Y-116150000D03*
X84300000Y-116150000D03*
X84300000Y-117650000D03*
X85100000Y-117650000D03*
X85900000Y-117650000D03*
%TD*%
%TO.C,D30*%
X85900000Y-60350000D03*
X85100000Y-60350000D03*
X84300000Y-60350000D03*
X84300000Y-61850000D03*
X85100000Y-61850000D03*
X85900000Y-61850000D03*
%TD*%
%TO.C,D69*%
X91300000Y-63450000D03*
X90500000Y-63450000D03*
X89700000Y-63450000D03*
X89700000Y-64950000D03*
X90500000Y-64950000D03*
X91300000Y-64950000D03*
%TD*%
%TO.C,D66*%
X91300000Y-72750000D03*
X90500000Y-72750000D03*
X89700000Y-72750000D03*
X89700000Y-74250000D03*
X90500000Y-74250000D03*
X91300000Y-74250000D03*
%TD*%
%TO.C,D24*%
X85900000Y-78950000D03*
X85100000Y-78950000D03*
X84300000Y-78950000D03*
X84300000Y-80450000D03*
X85100000Y-80450000D03*
X85900000Y-80450000D03*
%TD*%
%TO.C,D57*%
X91300000Y-100650000D03*
X90500000Y-100650000D03*
X89700000Y-100650000D03*
X89700000Y-102150000D03*
X90500000Y-102150000D03*
X91300000Y-102150000D03*
%TD*%
%TO.C,D55*%
X91300000Y-106850000D03*
X90500000Y-106850000D03*
X89700000Y-106850000D03*
X89700000Y-108350000D03*
X90500000Y-108350000D03*
X91300000Y-108350000D03*
%TD*%
%TO.C,D17*%
X85900000Y-100650000D03*
X85100000Y-100650000D03*
X84300000Y-100650000D03*
X84300000Y-102150000D03*
X85100000Y-102150000D03*
X85900000Y-102150000D03*
%TD*%
%TO.C,D23*%
X85900000Y-82050000D03*
X85100000Y-82050000D03*
X84300000Y-82050000D03*
X84300000Y-83550000D03*
X85100000Y-83550000D03*
X85900000Y-83550000D03*
%TD*%
%TO.C,D79*%
X91300000Y-32450000D03*
X90500000Y-32450000D03*
X89700000Y-32450000D03*
X89700000Y-33950000D03*
X90500000Y-33950000D03*
X91300000Y-33950000D03*
%TD*%
%TO.C,D48*%
X91300000Y-128550000D03*
X90500000Y-128550000D03*
X89700000Y-128550000D03*
X89700000Y-130050000D03*
X90500000Y-130050000D03*
X91300000Y-130050000D03*
%TD*%
%TO.C,D2*%
X85900000Y-147150000D03*
X85100000Y-147150000D03*
X84300000Y-147150000D03*
X84300000Y-148650000D03*
X85100000Y-148650000D03*
X85900000Y-148650000D03*
%TD*%
%TO.C,D53*%
X91300000Y-113050000D03*
X90500000Y-113050000D03*
X89700000Y-113050000D03*
X89700000Y-114550000D03*
X90500000Y-114550000D03*
X91300000Y-114550000D03*
%TD*%
%TO.C,D62*%
X91300000Y-85150000D03*
X90500000Y-85150000D03*
X89700000Y-85150000D03*
X89700000Y-86650000D03*
X90500000Y-86650000D03*
X91300000Y-86650000D03*
%TD*%
%TO.C,D44*%
X91290000Y-140950000D03*
X90490000Y-140950000D03*
X89690000Y-140950000D03*
X89690000Y-142450000D03*
X90490000Y-142450000D03*
X91290000Y-142450000D03*
%TD*%
%TO.C,D45*%
X91300000Y-137850000D03*
X90500000Y-137850000D03*
X89700000Y-137850000D03*
X89700000Y-139350000D03*
X90500000Y-139350000D03*
X91300000Y-139350000D03*
%TD*%
%TO.C,D34*%
X85900000Y-47950000D03*
X85100000Y-47950000D03*
X84300000Y-47950000D03*
X84300000Y-49450000D03*
X85100000Y-49450000D03*
X85900000Y-49450000D03*
%TD*%
%TO.C,D51*%
X91300000Y-119250000D03*
X90500000Y-119250000D03*
X89700000Y-119250000D03*
X89700000Y-120750000D03*
X90500000Y-120750000D03*
X91300000Y-120750000D03*
%TD*%
%TO.C,D54*%
X91300000Y-109950000D03*
X90500000Y-109950000D03*
X89700000Y-109950000D03*
X89700000Y-111450000D03*
X90500000Y-111450000D03*
X91300000Y-111450000D03*
%TD*%
%TO.C,D40*%
X85900000Y-29350000D03*
X85100000Y-29350000D03*
X84300000Y-29350000D03*
X84300000Y-30850000D03*
X85100000Y-30850000D03*
X85900000Y-30850000D03*
%TD*%
%TO.C,D14*%
X85900000Y-109950000D03*
X85100000Y-109950000D03*
X84300000Y-109950000D03*
X84300000Y-111450000D03*
X85100000Y-111450000D03*
X85900000Y-111450000D03*
%TD*%
%TO.C,D42*%
X91290000Y-147150000D03*
X90490000Y-147150000D03*
X89690000Y-147150000D03*
X89690000Y-148650000D03*
X90490000Y-148650000D03*
X91290000Y-148650000D03*
%TD*%
%TO.C,D52*%
X91300000Y-116150000D03*
X90500000Y-116150000D03*
X89700000Y-116150000D03*
X89700000Y-117650000D03*
X90500000Y-117650000D03*
X91300000Y-117650000D03*
%TD*%
%TO.C,D70*%
X91300000Y-60350000D03*
X90500000Y-60350000D03*
X89700000Y-60350000D03*
X89700000Y-61850000D03*
X90500000Y-61850000D03*
X91300000Y-61850000D03*
%TD*%
%TO.C,D20*%
X85900000Y-91350000D03*
X85100000Y-91350000D03*
X84300000Y-91350000D03*
X84300000Y-92850000D03*
X85100000Y-92850000D03*
X85900000Y-92850000D03*
%TD*%
%TO.C,D63*%
X91300000Y-82050000D03*
X90500000Y-82050000D03*
X89700000Y-82050000D03*
X89700000Y-83550000D03*
X90500000Y-83550000D03*
X91300000Y-83550000D03*
%TD*%
%TO.C,D21*%
X85900000Y-88250000D03*
X85100000Y-88250000D03*
X84300000Y-88250000D03*
X84300000Y-89750000D03*
X85100000Y-89750000D03*
X85900000Y-89750000D03*
%TD*%
%TO.C,D49*%
X91300000Y-125450000D03*
X90500000Y-125450000D03*
X89700000Y-125450000D03*
X89700000Y-126950000D03*
X90500000Y-126950000D03*
X91300000Y-126950000D03*
%TD*%
%TO.C,D73*%
X91300000Y-51050000D03*
X90500000Y-51050000D03*
X89700000Y-51050000D03*
X89700000Y-52550000D03*
X90500000Y-52550000D03*
X91300000Y-52550000D03*
%TD*%
%TO.C,D36*%
X75100000Y-41750000D03*
X74300000Y-41750000D03*
X73500000Y-41750000D03*
X73500000Y-43250000D03*
X74300000Y-43250000D03*
X75100000Y-43250000D03*
%TD*%
%TO.C,D16*%
X75100000Y-103750000D03*
X74300000Y-103750000D03*
X73500000Y-103750000D03*
X73500000Y-105250000D03*
X74300000Y-105250000D03*
X75100000Y-105250000D03*
%TD*%
%TO.C,D38*%
X75100000Y-35550000D03*
X74300000Y-35550000D03*
X73500000Y-35550000D03*
X73500000Y-37050000D03*
X74300000Y-37050000D03*
X75100000Y-37050000D03*
%TD*%
%TO.C,D31*%
X75100000Y-57250000D03*
X74300000Y-57250000D03*
X73500000Y-57250000D03*
X73500000Y-58750000D03*
X74300000Y-58750000D03*
X75100000Y-58750000D03*
%TD*%
%TO.C,D74*%
X80500000Y-47950000D03*
X79700000Y-47950000D03*
X78900000Y-47950000D03*
X78900000Y-49450000D03*
X79700000Y-49450000D03*
X80500000Y-49450000D03*
%TD*%
%TO.C,D41*%
X80500000Y-150250000D03*
X79700000Y-150250000D03*
X78900000Y-150250000D03*
X78900000Y-151750000D03*
X79700000Y-151750000D03*
X80500000Y-151750000D03*
%TD*%
%TO.C,D6*%
X75100000Y-134750000D03*
X74300000Y-134750000D03*
X73500000Y-134750000D03*
X73500000Y-136250000D03*
X74300000Y-136250000D03*
X75100000Y-136250000D03*
%TD*%
%TO.C,D15*%
X75100000Y-106850000D03*
X74300000Y-106850000D03*
X73500000Y-106850000D03*
X73500000Y-108350000D03*
X74300000Y-108350000D03*
X75100000Y-108350000D03*
%TD*%
%TO.C,D1*%
X75100000Y-150250000D03*
X74300000Y-150250000D03*
X73500000Y-150250000D03*
X73500000Y-151750000D03*
X74300000Y-151750000D03*
X75100000Y-151750000D03*
%TD*%
%TO.C,D11*%
X75100000Y-119250000D03*
X74300000Y-119250000D03*
X73500000Y-119250000D03*
X73500000Y-120750000D03*
X74300000Y-120750000D03*
X75100000Y-120750000D03*
%TD*%
%TO.C,D58*%
X80500000Y-97550000D03*
X79700000Y-97550000D03*
X78900000Y-97550000D03*
X78900000Y-99050000D03*
X79700000Y-99050000D03*
X80500000Y-99050000D03*
%TD*%
%TO.C,D26*%
X75100000Y-72750000D03*
X74300000Y-72750000D03*
X73500000Y-72750000D03*
X73500000Y-74250000D03*
X74300000Y-74250000D03*
X75100000Y-74250000D03*
%TD*%
%TO.C,D9*%
X75100000Y-125450000D03*
X74300000Y-125450000D03*
X73500000Y-125450000D03*
X73500000Y-126950000D03*
X74300000Y-126950000D03*
X75100000Y-126950000D03*
%TD*%
%TO.C,D75*%
X80500000Y-44850000D03*
X79700000Y-44850000D03*
X78900000Y-44850000D03*
X78900000Y-46350000D03*
X79700000Y-46350000D03*
X80500000Y-46350000D03*
%TD*%
%TO.C,D22*%
X75100000Y-85150000D03*
X74300000Y-85150000D03*
X73500000Y-85150000D03*
X73500000Y-86650000D03*
X74300000Y-86650000D03*
X75100000Y-86650000D03*
%TD*%
%TO.C,D78*%
X80500000Y-35550000D03*
X79700000Y-35550000D03*
X78900000Y-35550000D03*
X78900000Y-37050000D03*
X79700000Y-37050000D03*
X80500000Y-37050000D03*
%TD*%
%TO.C,D32*%
X75100000Y-54150000D03*
X74300000Y-54150000D03*
X73500000Y-54150000D03*
X73500000Y-55650000D03*
X74300000Y-55650000D03*
X75100000Y-55650000D03*
%TD*%
%TO.C,D23*%
X75100000Y-82050000D03*
X74300000Y-82050000D03*
X73500000Y-82050000D03*
X73500000Y-83550000D03*
X74300000Y-83550000D03*
X75100000Y-83550000D03*
%TD*%
%TO.C,D47*%
X80500000Y-131650000D03*
X79700000Y-131650000D03*
X78900000Y-131650000D03*
X78900000Y-133150000D03*
X79700000Y-133150000D03*
X80500000Y-133150000D03*
%TD*%
%TO.C,D2*%
X75100000Y-147150000D03*
X74300000Y-147150000D03*
X73500000Y-147150000D03*
X73500000Y-148650000D03*
X74300000Y-148650000D03*
X75100000Y-148650000D03*
%TD*%
%TO.C,D27*%
X75100000Y-69650000D03*
X74300000Y-69650000D03*
X73500000Y-69650000D03*
X73500000Y-71150000D03*
X74300000Y-71150000D03*
X75100000Y-71150000D03*
%TD*%
%TO.C,D42*%
X80490000Y-147150000D03*
X79690000Y-147150000D03*
X78890000Y-147150000D03*
X78890000Y-148650000D03*
X79690000Y-148650000D03*
X80490000Y-148650000D03*
%TD*%
%TO.C,D56*%
X80500000Y-103750000D03*
X79700000Y-103750000D03*
X78900000Y-103750000D03*
X78900000Y-105250000D03*
X79700000Y-105250000D03*
X80500000Y-105250000D03*
%TD*%
%TO.C,D80*%
X80500000Y-29350000D03*
X79700000Y-29350000D03*
X78900000Y-29350000D03*
X78900000Y-30850000D03*
X79700000Y-30850000D03*
X80500000Y-30850000D03*
%TD*%
%TO.C,D37*%
X75100000Y-38650000D03*
X74300000Y-38650000D03*
X73500000Y-38650000D03*
X73500000Y-40150000D03*
X74300000Y-40150000D03*
X75100000Y-40150000D03*
%TD*%
%TO.C,D7*%
X75100000Y-131650000D03*
X74300000Y-131650000D03*
X73500000Y-131650000D03*
X73500000Y-133150000D03*
X74300000Y-133150000D03*
X75100000Y-133150000D03*
%TD*%
%TO.C,D25*%
X75100000Y-75850000D03*
X74300000Y-75850000D03*
X73500000Y-75850000D03*
X73500000Y-77350000D03*
X74300000Y-77350000D03*
X75100000Y-77350000D03*
%TD*%
%TO.C,D52*%
X80500000Y-116150000D03*
X79700000Y-116150000D03*
X78900000Y-116150000D03*
X78900000Y-117650000D03*
X79700000Y-117650000D03*
X80500000Y-117650000D03*
%TD*%
%TO.C,D46*%
X80500000Y-134750000D03*
X79700000Y-134750000D03*
X78900000Y-134750000D03*
X78900000Y-136250000D03*
X79700000Y-136250000D03*
X80500000Y-136250000D03*
%TD*%
%TO.C,D45*%
X80500000Y-137850000D03*
X79700000Y-137850000D03*
X78900000Y-137850000D03*
X78900000Y-139350000D03*
X79700000Y-139350000D03*
X80500000Y-139350000D03*
%TD*%
%TO.C,D24*%
X75100000Y-78950000D03*
X74300000Y-78950000D03*
X73500000Y-78950000D03*
X73500000Y-80450000D03*
X74300000Y-80450000D03*
X75100000Y-80450000D03*
%TD*%
%TO.C,D55*%
X80500000Y-106850000D03*
X79700000Y-106850000D03*
X78900000Y-106850000D03*
X78900000Y-108350000D03*
X79700000Y-108350000D03*
X80500000Y-108350000D03*
%TD*%
%TO.C,D29*%
X75100000Y-63450000D03*
X74300000Y-63450000D03*
X73500000Y-63450000D03*
X73500000Y-64950000D03*
X74300000Y-64950000D03*
X75100000Y-64950000D03*
%TD*%
%TO.C,D10*%
X75100000Y-122350000D03*
X74300000Y-122350000D03*
X73500000Y-122350000D03*
X73500000Y-123850000D03*
X74300000Y-123850000D03*
X75100000Y-123850000D03*
%TD*%
%TO.C,D13*%
X75090000Y-113050000D03*
X74290000Y-113050000D03*
X73490000Y-113050000D03*
X73490000Y-114550000D03*
X74290000Y-114550000D03*
X75090000Y-114550000D03*
%TD*%
%TO.C,D68*%
X80500000Y-66550000D03*
X79700000Y-66550000D03*
X78900000Y-66550000D03*
X78900000Y-68050000D03*
X79700000Y-68050000D03*
X80500000Y-68050000D03*
%TD*%
%TO.C,D64*%
X80500000Y-78950000D03*
X79700000Y-78950000D03*
X78900000Y-78950000D03*
X78900000Y-80450000D03*
X79700000Y-80450000D03*
X80500000Y-80450000D03*
%TD*%
%TO.C,D39*%
X75100000Y-32450000D03*
X74300000Y-32450000D03*
X73500000Y-32450000D03*
X73500000Y-33950000D03*
X74300000Y-33950000D03*
X75100000Y-33950000D03*
%TD*%
%TO.C,D8*%
X75100000Y-128550000D03*
X74300000Y-128550000D03*
X73500000Y-128550000D03*
X73500000Y-130050000D03*
X74300000Y-130050000D03*
X75100000Y-130050000D03*
%TD*%
%TO.C,D65*%
X80500000Y-75850000D03*
X79700000Y-75850000D03*
X78900000Y-75850000D03*
X78900000Y-77350000D03*
X79700000Y-77350000D03*
X80500000Y-77350000D03*
%TD*%
%TO.C,D61*%
X80500000Y-88250000D03*
X79700000Y-88250000D03*
X78900000Y-88250000D03*
X78900000Y-89750000D03*
X79700000Y-89750000D03*
X80500000Y-89750000D03*
%TD*%
%TO.C,D66*%
X80500000Y-72750000D03*
X79700000Y-72750000D03*
X78900000Y-72750000D03*
X78900000Y-74250000D03*
X79700000Y-74250000D03*
X80500000Y-74250000D03*
%TD*%
%TO.C,D77*%
X80500000Y-38650000D03*
X79700000Y-38650000D03*
X78900000Y-38650000D03*
X78900000Y-40150000D03*
X79700000Y-40150000D03*
X80500000Y-40150000D03*
%TD*%
%TO.C,D62*%
X80500000Y-85150000D03*
X79700000Y-85150000D03*
X78900000Y-85150000D03*
X78900000Y-86650000D03*
X79700000Y-86650000D03*
X80500000Y-86650000D03*
%TD*%
%TO.C,D50*%
X80500000Y-122350000D03*
X79700000Y-122350000D03*
X78900000Y-122350000D03*
X78900000Y-123850000D03*
X79700000Y-123850000D03*
X80500000Y-123850000D03*
%TD*%
%TO.C,D33*%
X75100000Y-51050000D03*
X74300000Y-51050000D03*
X73500000Y-51050000D03*
X73500000Y-52550000D03*
X74300000Y-52550000D03*
X75100000Y-52550000D03*
%TD*%
%TO.C,D18*%
X75100000Y-97550000D03*
X74300000Y-97550000D03*
X73500000Y-97550000D03*
X73500000Y-99050000D03*
X74300000Y-99050000D03*
X75100000Y-99050000D03*
%TD*%
%TO.C,D3*%
X75100000Y-144050000D03*
X74300000Y-144050000D03*
X73500000Y-144050000D03*
X73500000Y-145550000D03*
X74300000Y-145550000D03*
X75100000Y-145550000D03*
%TD*%
%TO.C,D79*%
X80500000Y-32450000D03*
X79700000Y-32450000D03*
X78900000Y-32450000D03*
X78900000Y-33950000D03*
X79700000Y-33950000D03*
X80500000Y-33950000D03*
%TD*%
%TO.C,D59*%
X80500000Y-94450000D03*
X79700000Y-94450000D03*
X78900000Y-94450000D03*
X78900000Y-95950000D03*
X79700000Y-95950000D03*
X80500000Y-95950000D03*
%TD*%
%TO.C,D67*%
X80500000Y-69650000D03*
X79700000Y-69650000D03*
X78900000Y-69650000D03*
X78900000Y-71150000D03*
X79700000Y-71150000D03*
X80500000Y-71150000D03*
%TD*%
%TO.C,D12*%
X75100000Y-116150000D03*
X74300000Y-116150000D03*
X73500000Y-116150000D03*
X73500000Y-117650000D03*
X74300000Y-117650000D03*
X75100000Y-117650000D03*
%TD*%
%TO.C,D76*%
X80500000Y-41750000D03*
X79700000Y-41750000D03*
X78900000Y-41750000D03*
X78900000Y-43250000D03*
X79700000Y-43250000D03*
X80500000Y-43250000D03*
%TD*%
%TO.C,D34*%
X75100000Y-47950000D03*
X74300000Y-47950000D03*
X73500000Y-47950000D03*
X73500000Y-49450000D03*
X74300000Y-49450000D03*
X75100000Y-49450000D03*
%TD*%
%TO.C,D30*%
X75100000Y-60350000D03*
X74300000Y-60350000D03*
X73500000Y-60350000D03*
X73500000Y-61850000D03*
X74300000Y-61850000D03*
X75100000Y-61850000D03*
%TD*%
%TO.C,D72*%
X80500000Y-54150000D03*
X79700000Y-54150000D03*
X78900000Y-54150000D03*
X78900000Y-55650000D03*
X79700000Y-55650000D03*
X80500000Y-55650000D03*
%TD*%
%TO.C,D69*%
X80500000Y-63450000D03*
X79700000Y-63450000D03*
X78900000Y-63450000D03*
X78900000Y-64950000D03*
X79700000Y-64950000D03*
X80500000Y-64950000D03*
%TD*%
%TO.C,D44*%
X80490000Y-140950000D03*
X79690000Y-140950000D03*
X78890000Y-140950000D03*
X78890000Y-142450000D03*
X79690000Y-142450000D03*
X80490000Y-142450000D03*
%TD*%
%TO.C,D57*%
X80500000Y-100650000D03*
X79700000Y-100650000D03*
X78900000Y-100650000D03*
X78900000Y-102150000D03*
X79700000Y-102150000D03*
X80500000Y-102150000D03*
%TD*%
%TO.C,D4*%
X75100000Y-140950000D03*
X74300000Y-140950000D03*
X73500000Y-140950000D03*
X73500000Y-142450000D03*
X74300000Y-142450000D03*
X75100000Y-142450000D03*
%TD*%
%TO.C,D17*%
X75100000Y-100650000D03*
X74300000Y-100650000D03*
X73500000Y-100650000D03*
X73500000Y-102150000D03*
X74300000Y-102150000D03*
X75100000Y-102150000D03*
%TD*%
%TO.C,D43*%
X80500000Y-144050000D03*
X79700000Y-144050000D03*
X78900000Y-144050000D03*
X78900000Y-145550000D03*
X79700000Y-145550000D03*
X80500000Y-145550000D03*
%TD*%
%TO.C,D54*%
X80500000Y-109950000D03*
X79700000Y-109950000D03*
X78900000Y-109950000D03*
X78900000Y-111450000D03*
X79700000Y-111450000D03*
X80500000Y-111450000D03*
%TD*%
%TO.C,D20*%
X75100000Y-91350000D03*
X74300000Y-91350000D03*
X73500000Y-91350000D03*
X73500000Y-92850000D03*
X74300000Y-92850000D03*
X75100000Y-92850000D03*
%TD*%
%TO.C,D28*%
X75100000Y-66550000D03*
X74300000Y-66550000D03*
X73500000Y-66550000D03*
X73500000Y-68050000D03*
X74300000Y-68050000D03*
X75100000Y-68050000D03*
%TD*%
%TO.C,D53*%
X80500000Y-113050000D03*
X79700000Y-113050000D03*
X78900000Y-113050000D03*
X78900000Y-114550000D03*
X79700000Y-114550000D03*
X80500000Y-114550000D03*
%TD*%
%TO.C,D5*%
X75100000Y-137850000D03*
X74300000Y-137850000D03*
X73500000Y-137850000D03*
X73500000Y-139350000D03*
X74300000Y-139350000D03*
X75100000Y-139350000D03*
%TD*%
%TO.C,D51*%
X80500000Y-119250000D03*
X79700000Y-119250000D03*
X78900000Y-119250000D03*
X78900000Y-120750000D03*
X79700000Y-120750000D03*
X80500000Y-120750000D03*
%TD*%
%TO.C,D35*%
X75100000Y-44850000D03*
X74300000Y-44850000D03*
X73500000Y-44850000D03*
X73500000Y-46350000D03*
X74300000Y-46350000D03*
X75100000Y-46350000D03*
%TD*%
%TO.C,D40*%
X75100000Y-29350000D03*
X74300000Y-29350000D03*
X73500000Y-29350000D03*
X73500000Y-30850000D03*
X74300000Y-30850000D03*
X75100000Y-30850000D03*
%TD*%
%TO.C,D48*%
X80500000Y-128550000D03*
X79700000Y-128550000D03*
X78900000Y-128550000D03*
X78900000Y-130050000D03*
X79700000Y-130050000D03*
X80500000Y-130050000D03*
%TD*%
%TO.C,D14*%
X75100000Y-109950000D03*
X74300000Y-109950000D03*
X73500000Y-109950000D03*
X73500000Y-111450000D03*
X74300000Y-111450000D03*
X75100000Y-111450000D03*
%TD*%
%TO.C,D19*%
X75100000Y-94450000D03*
X74300000Y-94450000D03*
X73500000Y-94450000D03*
X73500000Y-95950000D03*
X74300000Y-95950000D03*
X75100000Y-95950000D03*
%TD*%
%TO.C,D70*%
X80500000Y-60350000D03*
X79700000Y-60350000D03*
X78900000Y-60350000D03*
X78900000Y-61850000D03*
X79700000Y-61850000D03*
X80500000Y-61850000D03*
%TD*%
%TO.C,D63*%
X80500000Y-82050000D03*
X79700000Y-82050000D03*
X78900000Y-82050000D03*
X78900000Y-83550000D03*
X79700000Y-83550000D03*
X80500000Y-83550000D03*
%TD*%
%TO.C,D21*%
X75100000Y-88250000D03*
X74300000Y-88250000D03*
X73500000Y-88250000D03*
X73500000Y-89750000D03*
X74300000Y-89750000D03*
X75100000Y-89750000D03*
%TD*%
%TO.C,D71*%
X80500000Y-57250000D03*
X79700000Y-57250000D03*
X78900000Y-57250000D03*
X78900000Y-58750000D03*
X79700000Y-58750000D03*
X80500000Y-58750000D03*
%TD*%
%TO.C,D49*%
X80500000Y-125450000D03*
X79700000Y-125450000D03*
X78900000Y-125450000D03*
X78900000Y-126950000D03*
X79700000Y-126950000D03*
X80500000Y-126950000D03*
%TD*%
%TO.C,D60*%
X80500000Y-91350000D03*
X79700000Y-91350000D03*
X78900000Y-91350000D03*
X78900000Y-92850000D03*
X79700000Y-92850000D03*
X80500000Y-92850000D03*
%TD*%
%TO.C,D73*%
X80500000Y-51050000D03*
X79700000Y-51050000D03*
X78900000Y-51050000D03*
X78900000Y-52550000D03*
X79700000Y-52550000D03*
X80500000Y-52550000D03*
%TD*%
%TO.C,D43*%
X69700000Y-144050000D03*
X68900000Y-144050000D03*
X68100000Y-144050000D03*
X68100000Y-145550000D03*
X68900000Y-145550000D03*
X69700000Y-145550000D03*
%TD*%
%TO.C,D3*%
X64300000Y-144050000D03*
X63500000Y-144050000D03*
X62700000Y-144050000D03*
X62700000Y-145550000D03*
X63500000Y-145550000D03*
X64300000Y-145550000D03*
%TD*%
%TO.C,D24*%
X64300000Y-78950000D03*
X63500000Y-78950000D03*
X62700000Y-78950000D03*
X62700000Y-80450000D03*
X63500000Y-80450000D03*
X64300000Y-80450000D03*
%TD*%
%TO.C,D49*%
X69700000Y-125450000D03*
X68900000Y-125450000D03*
X68100000Y-125450000D03*
X68100000Y-126950000D03*
X68900000Y-126950000D03*
X69700000Y-126950000D03*
%TD*%
%TO.C,D36*%
X64300000Y-41750000D03*
X63500000Y-41750000D03*
X62700000Y-41750000D03*
X62700000Y-43250000D03*
X63500000Y-43250000D03*
X64300000Y-43250000D03*
%TD*%
%TO.C,D2*%
X64300000Y-147150000D03*
X63500000Y-147150000D03*
X62700000Y-147150000D03*
X62700000Y-148650000D03*
X63500000Y-148650000D03*
X64300000Y-148650000D03*
%TD*%
%TO.C,D16*%
X64300000Y-103750000D03*
X63500000Y-103750000D03*
X62700000Y-103750000D03*
X62700000Y-105250000D03*
X63500000Y-105250000D03*
X64300000Y-105250000D03*
%TD*%
%TO.C,D38*%
X64300000Y-35550000D03*
X63500000Y-35550000D03*
X62700000Y-35550000D03*
X62700000Y-37050000D03*
X63500000Y-37050000D03*
X64300000Y-37050000D03*
%TD*%
%TO.C,D28*%
X64300000Y-66550000D03*
X63500000Y-66550000D03*
X62700000Y-66550000D03*
X62700000Y-68050000D03*
X63500000Y-68050000D03*
X64300000Y-68050000D03*
%TD*%
%TO.C,D31*%
X64300000Y-57250000D03*
X63500000Y-57250000D03*
X62700000Y-57250000D03*
X62700000Y-58750000D03*
X63500000Y-58750000D03*
X64300000Y-58750000D03*
%TD*%
%TO.C,D65*%
X69700000Y-75850000D03*
X68900000Y-75850000D03*
X68100000Y-75850000D03*
X68100000Y-77350000D03*
X68900000Y-77350000D03*
X69700000Y-77350000D03*
%TD*%
%TO.C,D74*%
X69700000Y-47950000D03*
X68900000Y-47950000D03*
X68100000Y-47950000D03*
X68100000Y-49450000D03*
X68900000Y-49450000D03*
X69700000Y-49450000D03*
%TD*%
%TO.C,D41*%
X69700000Y-150250000D03*
X68900000Y-150250000D03*
X68100000Y-150250000D03*
X68100000Y-151750000D03*
X68900000Y-151750000D03*
X69700000Y-151750000D03*
%TD*%
%TO.C,D6*%
X64300000Y-134750000D03*
X63500000Y-134750000D03*
X62700000Y-134750000D03*
X62700000Y-136250000D03*
X63500000Y-136250000D03*
X64300000Y-136250000D03*
%TD*%
%TO.C,D15*%
X64300000Y-106850000D03*
X63500000Y-106850000D03*
X62700000Y-106850000D03*
X62700000Y-108350000D03*
X63500000Y-108350000D03*
X64300000Y-108350000D03*
%TD*%
%TO.C,D1*%
X64300000Y-150250000D03*
X63500000Y-150250000D03*
X62700000Y-150250000D03*
X62700000Y-151750000D03*
X63500000Y-151750000D03*
X64300000Y-151750000D03*
%TD*%
%TO.C,D11*%
X64300000Y-119250000D03*
X63500000Y-119250000D03*
X62700000Y-119250000D03*
X62700000Y-120750000D03*
X63500000Y-120750000D03*
X64300000Y-120750000D03*
%TD*%
%TO.C,D21*%
X64300000Y-88250000D03*
X63500000Y-88250000D03*
X62700000Y-88250000D03*
X62700000Y-89750000D03*
X63500000Y-89750000D03*
X64300000Y-89750000D03*
%TD*%
%TO.C,D58*%
X69700000Y-97550000D03*
X68900000Y-97550000D03*
X68100000Y-97550000D03*
X68100000Y-99050000D03*
X68900000Y-99050000D03*
X69700000Y-99050000D03*
%TD*%
%TO.C,D26*%
X64300000Y-72750000D03*
X63500000Y-72750000D03*
X62700000Y-72750000D03*
X62700000Y-74250000D03*
X63500000Y-74250000D03*
X64300000Y-74250000D03*
%TD*%
%TO.C,D9*%
X64300000Y-125450000D03*
X63500000Y-125450000D03*
X62700000Y-125450000D03*
X62700000Y-126950000D03*
X63500000Y-126950000D03*
X64300000Y-126950000D03*
%TD*%
%TO.C,D60*%
X69700000Y-91350000D03*
X68900000Y-91350000D03*
X68100000Y-91350000D03*
X68100000Y-92850000D03*
X68900000Y-92850000D03*
X69700000Y-92850000D03*
%TD*%
%TO.C,D75*%
X69700000Y-44850000D03*
X68900000Y-44850000D03*
X68100000Y-44850000D03*
X68100000Y-46350000D03*
X68900000Y-46350000D03*
X69700000Y-46350000D03*
%TD*%
%TO.C,D22*%
X64300000Y-85150000D03*
X63500000Y-85150000D03*
X62700000Y-85150000D03*
X62700000Y-86650000D03*
X63500000Y-86650000D03*
X64300000Y-86650000D03*
%TD*%
%TO.C,D32*%
X64300000Y-54150000D03*
X63500000Y-54150000D03*
X62700000Y-54150000D03*
X62700000Y-55650000D03*
X63500000Y-55650000D03*
X64300000Y-55650000D03*
%TD*%
%TO.C,D5*%
X64300000Y-137850000D03*
X63500000Y-137850000D03*
X62700000Y-137850000D03*
X62700000Y-139350000D03*
X63500000Y-139350000D03*
X64300000Y-139350000D03*
%TD*%
%TO.C,D4*%
X64300000Y-140950000D03*
X63500000Y-140950000D03*
X62700000Y-140950000D03*
X62700000Y-142450000D03*
X63500000Y-142450000D03*
X64300000Y-142450000D03*
%TD*%
%TO.C,D78*%
X69700000Y-35550000D03*
X68900000Y-35550000D03*
X68100000Y-35550000D03*
X68100000Y-37050000D03*
X68900000Y-37050000D03*
X69700000Y-37050000D03*
%TD*%
%TO.C,D56*%
X69700000Y-103750000D03*
X68900000Y-103750000D03*
X68100000Y-103750000D03*
X68100000Y-105250000D03*
X68900000Y-105250000D03*
X69700000Y-105250000D03*
%TD*%
%TO.C,D80*%
X69700000Y-29350000D03*
X68900000Y-29350000D03*
X68100000Y-29350000D03*
X68100000Y-30850000D03*
X68900000Y-30850000D03*
X69700000Y-30850000D03*
%TD*%
%TO.C,D37*%
X64300000Y-38650000D03*
X63500000Y-38650000D03*
X62700000Y-38650000D03*
X62700000Y-40150000D03*
X63500000Y-40150000D03*
X64300000Y-40150000D03*
%TD*%
%TO.C,D25*%
X64300000Y-75850000D03*
X63500000Y-75850000D03*
X62700000Y-75850000D03*
X62700000Y-77350000D03*
X63500000Y-77350000D03*
X64300000Y-77350000D03*
%TD*%
%TO.C,D47*%
X69700000Y-131650000D03*
X68900000Y-131650000D03*
X68100000Y-131650000D03*
X68100000Y-133150000D03*
X68900000Y-133150000D03*
X69700000Y-133150000D03*
%TD*%
%TO.C,D46*%
X69700000Y-134750000D03*
X68900000Y-134750000D03*
X68100000Y-134750000D03*
X68100000Y-136250000D03*
X68900000Y-136250000D03*
X69700000Y-136250000D03*
%TD*%
%TO.C,D29*%
X64300000Y-63450000D03*
X63500000Y-63450000D03*
X62700000Y-63450000D03*
X62700000Y-64950000D03*
X63500000Y-64950000D03*
X64300000Y-64950000D03*
%TD*%
%TO.C,D10*%
X64300000Y-122350000D03*
X63500000Y-122350000D03*
X62700000Y-122350000D03*
X62700000Y-123850000D03*
X63500000Y-123850000D03*
X64300000Y-123850000D03*
%TD*%
%TO.C,D27*%
X64300000Y-69650000D03*
X63500000Y-69650000D03*
X62700000Y-69650000D03*
X62700000Y-71150000D03*
X63500000Y-71150000D03*
X64300000Y-71150000D03*
%TD*%
%TO.C,D59*%
X69700000Y-94450000D03*
X68900000Y-94450000D03*
X68100000Y-94450000D03*
X68100000Y-95950000D03*
X68900000Y-95950000D03*
X69700000Y-95950000D03*
%TD*%
%TO.C,D50*%
X69700000Y-122350000D03*
X68900000Y-122350000D03*
X68100000Y-122350000D03*
X68100000Y-123850000D03*
X68900000Y-123850000D03*
X69700000Y-123850000D03*
%TD*%
%TO.C,D13*%
X64290000Y-113050000D03*
X63490000Y-113050000D03*
X62690000Y-113050000D03*
X62690000Y-114550000D03*
X63490000Y-114550000D03*
X64290000Y-114550000D03*
%TD*%
%TO.C,D64*%
X69700000Y-78950000D03*
X68900000Y-78950000D03*
X68100000Y-78950000D03*
X68100000Y-80450000D03*
X68900000Y-80450000D03*
X69700000Y-80450000D03*
%TD*%
%TO.C,D39*%
X64300000Y-32450000D03*
X63500000Y-32450000D03*
X62700000Y-32450000D03*
X62700000Y-33950000D03*
X63500000Y-33950000D03*
X64300000Y-33950000D03*
%TD*%
%TO.C,D8*%
X64300000Y-128550000D03*
X63500000Y-128550000D03*
X62700000Y-128550000D03*
X62700000Y-130050000D03*
X63500000Y-130050000D03*
X64300000Y-130050000D03*
%TD*%
%TO.C,D61*%
X69700000Y-88250000D03*
X68900000Y-88250000D03*
X68100000Y-88250000D03*
X68100000Y-89750000D03*
X68900000Y-89750000D03*
X69700000Y-89750000D03*
%TD*%
%TO.C,D77*%
X69700000Y-38650000D03*
X68900000Y-38650000D03*
X68100000Y-38650000D03*
X68100000Y-40150000D03*
X68900000Y-40150000D03*
X69700000Y-40150000D03*
%TD*%
%TO.C,D33*%
X64300000Y-51050000D03*
X63500000Y-51050000D03*
X62700000Y-51050000D03*
X62700000Y-52550000D03*
X63500000Y-52550000D03*
X64300000Y-52550000D03*
%TD*%
%TO.C,D18*%
X64300000Y-97550000D03*
X63500000Y-97550000D03*
X62700000Y-97550000D03*
X62700000Y-99050000D03*
X63500000Y-99050000D03*
X64300000Y-99050000D03*
%TD*%
%TO.C,D67*%
X69700000Y-69650000D03*
X68900000Y-69650000D03*
X68100000Y-69650000D03*
X68100000Y-71150000D03*
X68900000Y-71150000D03*
X69700000Y-71150000D03*
%TD*%
%TO.C,D7*%
X64300000Y-131650000D03*
X63500000Y-131650000D03*
X62700000Y-131650000D03*
X62700000Y-133150000D03*
X63500000Y-133150000D03*
X64300000Y-133150000D03*
%TD*%
%TO.C,D12*%
X64300000Y-116150000D03*
X63500000Y-116150000D03*
X62700000Y-116150000D03*
X62700000Y-117650000D03*
X63500000Y-117650000D03*
X64300000Y-117650000D03*
%TD*%
%TO.C,D76*%
X69700000Y-41750000D03*
X68900000Y-41750000D03*
X68100000Y-41750000D03*
X68100000Y-43250000D03*
X68900000Y-43250000D03*
X69700000Y-43250000D03*
%TD*%
%TO.C,D68*%
X69700000Y-66550000D03*
X68900000Y-66550000D03*
X68100000Y-66550000D03*
X68100000Y-68050000D03*
X68900000Y-68050000D03*
X69700000Y-68050000D03*
%TD*%
%TO.C,D30*%
X64300000Y-60350000D03*
X63500000Y-60350000D03*
X62700000Y-60350000D03*
X62700000Y-61850000D03*
X63500000Y-61850000D03*
X64300000Y-61850000D03*
%TD*%
%TO.C,D72*%
X69700000Y-54150000D03*
X68900000Y-54150000D03*
X68100000Y-54150000D03*
X68100000Y-55650000D03*
X68900000Y-55650000D03*
X69700000Y-55650000D03*
%TD*%
%TO.C,D69*%
X69700000Y-63450000D03*
X68900000Y-63450000D03*
X68100000Y-63450000D03*
X68100000Y-64950000D03*
X68900000Y-64950000D03*
X69700000Y-64950000D03*
%TD*%
%TO.C,D57*%
X69700000Y-100650000D03*
X68900000Y-100650000D03*
X68100000Y-100650000D03*
X68100000Y-102150000D03*
X68900000Y-102150000D03*
X69700000Y-102150000D03*
%TD*%
%TO.C,D55*%
X69700000Y-106850000D03*
X68900000Y-106850000D03*
X68100000Y-106850000D03*
X68100000Y-108350000D03*
X68900000Y-108350000D03*
X69700000Y-108350000D03*
%TD*%
%TO.C,D17*%
X64300000Y-100650000D03*
X63500000Y-100650000D03*
X62700000Y-100650000D03*
X62700000Y-102150000D03*
X63500000Y-102150000D03*
X64300000Y-102150000D03*
%TD*%
%TO.C,D79*%
X69700000Y-32450000D03*
X68900000Y-32450000D03*
X68100000Y-32450000D03*
X68100000Y-33950000D03*
X68900000Y-33950000D03*
X69700000Y-33950000D03*
%TD*%
%TO.C,D66*%
X69700000Y-72750000D03*
X68900000Y-72750000D03*
X68100000Y-72750000D03*
X68100000Y-74250000D03*
X68900000Y-74250000D03*
X69700000Y-74250000D03*
%TD*%
%TO.C,D44*%
X69690000Y-140950000D03*
X68890000Y-140950000D03*
X68090000Y-140950000D03*
X68090000Y-142450000D03*
X68890000Y-142450000D03*
X69690000Y-142450000D03*
%TD*%
%TO.C,D71*%
X69700000Y-57250000D03*
X68900000Y-57250000D03*
X68100000Y-57250000D03*
X68100000Y-58750000D03*
X68900000Y-58750000D03*
X69700000Y-58750000D03*
%TD*%
%TO.C,D53*%
X69700000Y-113050000D03*
X68900000Y-113050000D03*
X68100000Y-113050000D03*
X68100000Y-114550000D03*
X68900000Y-114550000D03*
X69700000Y-114550000D03*
%TD*%
%TO.C,D62*%
X69700000Y-85150000D03*
X68900000Y-85150000D03*
X68100000Y-85150000D03*
X68100000Y-86650000D03*
X68900000Y-86650000D03*
X69700000Y-86650000D03*
%TD*%
%TO.C,D45*%
X69700000Y-137850000D03*
X68900000Y-137850000D03*
X68100000Y-137850000D03*
X68100000Y-139350000D03*
X68900000Y-139350000D03*
X69700000Y-139350000D03*
%TD*%
%TO.C,D34*%
X64300000Y-47950000D03*
X63500000Y-47950000D03*
X62700000Y-47950000D03*
X62700000Y-49450000D03*
X63500000Y-49450000D03*
X64300000Y-49450000D03*
%TD*%
%TO.C,D51*%
X69700000Y-119250000D03*
X68900000Y-119250000D03*
X68100000Y-119250000D03*
X68100000Y-120750000D03*
X68900000Y-120750000D03*
X69700000Y-120750000D03*
%TD*%
%TO.C,D54*%
X69700000Y-109950000D03*
X68900000Y-109950000D03*
X68100000Y-109950000D03*
X68100000Y-111450000D03*
X68900000Y-111450000D03*
X69700000Y-111450000D03*
%TD*%
%TO.C,D40*%
X64300000Y-29350000D03*
X63500000Y-29350000D03*
X62700000Y-29350000D03*
X62700000Y-30850000D03*
X63500000Y-30850000D03*
X64300000Y-30850000D03*
%TD*%
%TO.C,D48*%
X69700000Y-128550000D03*
X68900000Y-128550000D03*
X68100000Y-128550000D03*
X68100000Y-130050000D03*
X68900000Y-130050000D03*
X69700000Y-130050000D03*
%TD*%
%TO.C,D35*%
X64300000Y-44850000D03*
X63500000Y-44850000D03*
X62700000Y-44850000D03*
X62700000Y-46350000D03*
X63500000Y-46350000D03*
X64300000Y-46350000D03*
%TD*%
%TO.C,D19*%
X64300000Y-94450000D03*
X63500000Y-94450000D03*
X62700000Y-94450000D03*
X62700000Y-95950000D03*
X63500000Y-95950000D03*
X64300000Y-95950000D03*
%TD*%
%TO.C,D14*%
X64300000Y-109950000D03*
X63500000Y-109950000D03*
X62700000Y-109950000D03*
X62700000Y-111450000D03*
X63500000Y-111450000D03*
X64300000Y-111450000D03*
%TD*%
%TO.C,D42*%
X69690000Y-147150000D03*
X68890000Y-147150000D03*
X68090000Y-147150000D03*
X68090000Y-148650000D03*
X68890000Y-148650000D03*
X69690000Y-148650000D03*
%TD*%
%TO.C,D52*%
X69700000Y-116150000D03*
X68900000Y-116150000D03*
X68100000Y-116150000D03*
X68100000Y-117650000D03*
X68900000Y-117650000D03*
X69700000Y-117650000D03*
%TD*%
%TO.C,D70*%
X69700000Y-60350000D03*
X68900000Y-60350000D03*
X68100000Y-60350000D03*
X68100000Y-61850000D03*
X68900000Y-61850000D03*
X69700000Y-61850000D03*
%TD*%
%TO.C,D20*%
X64300000Y-91350000D03*
X63500000Y-91350000D03*
X62700000Y-91350000D03*
X62700000Y-92850000D03*
X63500000Y-92850000D03*
X64300000Y-92850000D03*
%TD*%
%TO.C,D63*%
X69700000Y-82050000D03*
X68900000Y-82050000D03*
X68100000Y-82050000D03*
X68100000Y-83550000D03*
X68900000Y-83550000D03*
X69700000Y-83550000D03*
%TD*%
%TO.C,D23*%
X64300000Y-82050000D03*
X63500000Y-82050000D03*
X62700000Y-82050000D03*
X62700000Y-83550000D03*
X63500000Y-83550000D03*
X64300000Y-83550000D03*
%TD*%
%TO.C,D73*%
X69700000Y-51050000D03*
X68900000Y-51050000D03*
X68100000Y-51050000D03*
X68100000Y-52550000D03*
X68900000Y-52550000D03*
X69700000Y-52550000D03*
%TD*%
%TO.C,D36*%
X53500000Y-41750000D03*
X52700000Y-41750000D03*
X51900000Y-41750000D03*
X51900000Y-43250000D03*
X52700000Y-43250000D03*
X53500000Y-43250000D03*
%TD*%
%TO.C,D16*%
X53500000Y-103750000D03*
X52700000Y-103750000D03*
X51900000Y-103750000D03*
X51900000Y-105250000D03*
X52700000Y-105250000D03*
X53500000Y-105250000D03*
%TD*%
%TO.C,D38*%
X53500000Y-35550000D03*
X52700000Y-35550000D03*
X51900000Y-35550000D03*
X51900000Y-37050000D03*
X52700000Y-37050000D03*
X53500000Y-37050000D03*
%TD*%
%TO.C,D31*%
X53500000Y-57250000D03*
X52700000Y-57250000D03*
X51900000Y-57250000D03*
X51900000Y-58750000D03*
X52700000Y-58750000D03*
X53500000Y-58750000D03*
%TD*%
%TO.C,D74*%
X58900000Y-47950000D03*
X58100000Y-47950000D03*
X57300000Y-47950000D03*
X57300000Y-49450000D03*
X58100000Y-49450000D03*
X58900000Y-49450000D03*
%TD*%
%TO.C,D41*%
X58900000Y-150250000D03*
X58100000Y-150250000D03*
X57300000Y-150250000D03*
X57300000Y-151750000D03*
X58100000Y-151750000D03*
X58900000Y-151750000D03*
%TD*%
%TO.C,D6*%
X53500000Y-134750000D03*
X52700000Y-134750000D03*
X51900000Y-134750000D03*
X51900000Y-136250000D03*
X52700000Y-136250000D03*
X53500000Y-136250000D03*
%TD*%
%TO.C,D15*%
X53500000Y-106850000D03*
X52700000Y-106850000D03*
X51900000Y-106850000D03*
X51900000Y-108350000D03*
X52700000Y-108350000D03*
X53500000Y-108350000D03*
%TD*%
%TO.C,D1*%
X53500000Y-150250000D03*
X52700000Y-150250000D03*
X51900000Y-150250000D03*
X51900000Y-151750000D03*
X52700000Y-151750000D03*
X53500000Y-151750000D03*
%TD*%
%TO.C,D46*%
X58900000Y-134750000D03*
X58100000Y-134750000D03*
X57300000Y-134750000D03*
X57300000Y-136250000D03*
X58100000Y-136250000D03*
X58900000Y-136250000D03*
%TD*%
%TO.C,D11*%
X53500000Y-119250000D03*
X52700000Y-119250000D03*
X51900000Y-119250000D03*
X51900000Y-120750000D03*
X52700000Y-120750000D03*
X53500000Y-120750000D03*
%TD*%
%TO.C,D58*%
X58900000Y-97550000D03*
X58100000Y-97550000D03*
X57300000Y-97550000D03*
X57300000Y-99050000D03*
X58100000Y-99050000D03*
X58900000Y-99050000D03*
%TD*%
%TO.C,D26*%
X53500000Y-72750000D03*
X52700000Y-72750000D03*
X51900000Y-72750000D03*
X51900000Y-74250000D03*
X52700000Y-74250000D03*
X53500000Y-74250000D03*
%TD*%
%TO.C,D9*%
X53500000Y-125450000D03*
X52700000Y-125450000D03*
X51900000Y-125450000D03*
X51900000Y-126950000D03*
X52700000Y-126950000D03*
X53500000Y-126950000D03*
%TD*%
%TO.C,D45*%
X58900000Y-137850000D03*
X58100000Y-137850000D03*
X57300000Y-137850000D03*
X57300000Y-139350000D03*
X58100000Y-139350000D03*
X58900000Y-139350000D03*
%TD*%
%TO.C,D75*%
X58900000Y-44850000D03*
X58100000Y-44850000D03*
X57300000Y-44850000D03*
X57300000Y-46350000D03*
X58100000Y-46350000D03*
X58900000Y-46350000D03*
%TD*%
%TO.C,D22*%
X53500000Y-85150000D03*
X52700000Y-85150000D03*
X51900000Y-85150000D03*
X51900000Y-86650000D03*
X52700000Y-86650000D03*
X53500000Y-86650000D03*
%TD*%
%TO.C,D32*%
X53500000Y-54150000D03*
X52700000Y-54150000D03*
X51900000Y-54150000D03*
X51900000Y-55650000D03*
X52700000Y-55650000D03*
X53500000Y-55650000D03*
%TD*%
%TO.C,D27*%
X53500000Y-69650000D03*
X52700000Y-69650000D03*
X51900000Y-69650000D03*
X51900000Y-71150000D03*
X52700000Y-71150000D03*
X53500000Y-71150000D03*
%TD*%
%TO.C,D50*%
X58900000Y-122350000D03*
X58100000Y-122350000D03*
X57300000Y-122350000D03*
X57300000Y-123850000D03*
X58100000Y-123850000D03*
X58900000Y-123850000D03*
%TD*%
%TO.C,D78*%
X58900000Y-35550000D03*
X58100000Y-35550000D03*
X57300000Y-35550000D03*
X57300000Y-37050000D03*
X58100000Y-37050000D03*
X58900000Y-37050000D03*
%TD*%
%TO.C,D62*%
X58900000Y-85150000D03*
X58100000Y-85150000D03*
X57300000Y-85150000D03*
X57300000Y-86650000D03*
X58100000Y-86650000D03*
X58900000Y-86650000D03*
%TD*%
%TO.C,D56*%
X58900000Y-103750000D03*
X58100000Y-103750000D03*
X57300000Y-103750000D03*
X57300000Y-105250000D03*
X58100000Y-105250000D03*
X58900000Y-105250000D03*
%TD*%
%TO.C,D80*%
X58900000Y-29350000D03*
X58100000Y-29350000D03*
X57300000Y-29350000D03*
X57300000Y-30850000D03*
X58100000Y-30850000D03*
X58900000Y-30850000D03*
%TD*%
%TO.C,D37*%
X53500000Y-38650000D03*
X52700000Y-38650000D03*
X51900000Y-38650000D03*
X51900000Y-40150000D03*
X52700000Y-40150000D03*
X53500000Y-40150000D03*
%TD*%
%TO.C,D25*%
X53500000Y-75850000D03*
X52700000Y-75850000D03*
X51900000Y-75850000D03*
X51900000Y-77350000D03*
X52700000Y-77350000D03*
X53500000Y-77350000D03*
%TD*%
%TO.C,D23*%
X53500000Y-82050000D03*
X52700000Y-82050000D03*
X51900000Y-82050000D03*
X51900000Y-83550000D03*
X52700000Y-83550000D03*
X53500000Y-83550000D03*
%TD*%
%TO.C,D57*%
X58900000Y-100650000D03*
X58100000Y-100650000D03*
X57300000Y-100650000D03*
X57300000Y-102150000D03*
X58100000Y-102150000D03*
X58900000Y-102150000D03*
%TD*%
%TO.C,D7*%
X53500000Y-131650000D03*
X52700000Y-131650000D03*
X51900000Y-131650000D03*
X51900000Y-133150000D03*
X52700000Y-133150000D03*
X53500000Y-133150000D03*
%TD*%
%TO.C,D14*%
X53500000Y-109950000D03*
X52700000Y-109950000D03*
X51900000Y-109950000D03*
X51900000Y-111450000D03*
X52700000Y-111450000D03*
X53500000Y-111450000D03*
%TD*%
%TO.C,D29*%
X53500000Y-63450000D03*
X52700000Y-63450000D03*
X51900000Y-63450000D03*
X51900000Y-64950000D03*
X52700000Y-64950000D03*
X53500000Y-64950000D03*
%TD*%
%TO.C,D39*%
X53500000Y-32450000D03*
X52700000Y-32450000D03*
X51900000Y-32450000D03*
X51900000Y-33950000D03*
X52700000Y-33950000D03*
X53500000Y-33950000D03*
%TD*%
%TO.C,D10*%
X53500000Y-122350000D03*
X52700000Y-122350000D03*
X51900000Y-122350000D03*
X51900000Y-123850000D03*
X52700000Y-123850000D03*
X53500000Y-123850000D03*
%TD*%
%TO.C,D59*%
X58900000Y-94450000D03*
X58100000Y-94450000D03*
X57300000Y-94450000D03*
X57300000Y-95950000D03*
X58100000Y-95950000D03*
X58900000Y-95950000D03*
%TD*%
%TO.C,D13*%
X53490000Y-113050000D03*
X52690000Y-113050000D03*
X51890000Y-113050000D03*
X51890000Y-114550000D03*
X52690000Y-114550000D03*
X53490000Y-114550000D03*
%TD*%
%TO.C,D64*%
X58900000Y-78950000D03*
X58100000Y-78950000D03*
X57300000Y-78950000D03*
X57300000Y-80450000D03*
X58100000Y-80450000D03*
X58900000Y-80450000D03*
%TD*%
%TO.C,D8*%
X53500000Y-128550000D03*
X52700000Y-128550000D03*
X51900000Y-128550000D03*
X51900000Y-130050000D03*
X52700000Y-130050000D03*
X53500000Y-130050000D03*
%TD*%
%TO.C,D65*%
X58900000Y-75850000D03*
X58100000Y-75850000D03*
X57300000Y-75850000D03*
X57300000Y-77350000D03*
X58100000Y-77350000D03*
X58900000Y-77350000D03*
%TD*%
%TO.C,D61*%
X58900000Y-88250000D03*
X58100000Y-88250000D03*
X57300000Y-88250000D03*
X57300000Y-89750000D03*
X58100000Y-89750000D03*
X58900000Y-89750000D03*
%TD*%
%TO.C,D77*%
X58900000Y-38650000D03*
X58100000Y-38650000D03*
X57300000Y-38650000D03*
X57300000Y-40150000D03*
X58100000Y-40150000D03*
X58900000Y-40150000D03*
%TD*%
%TO.C,D33*%
X53500000Y-51050000D03*
X52700000Y-51050000D03*
X51900000Y-51050000D03*
X51900000Y-52550000D03*
X52700000Y-52550000D03*
X53500000Y-52550000D03*
%TD*%
%TO.C,D47*%
X58900000Y-131650000D03*
X58100000Y-131650000D03*
X57300000Y-131650000D03*
X57300000Y-133150000D03*
X58100000Y-133150000D03*
X58900000Y-133150000D03*
%TD*%
%TO.C,D18*%
X53500000Y-97550000D03*
X52700000Y-97550000D03*
X51900000Y-97550000D03*
X51900000Y-99050000D03*
X52700000Y-99050000D03*
X53500000Y-99050000D03*
%TD*%
%TO.C,D3*%
X53500000Y-144050000D03*
X52700000Y-144050000D03*
X51900000Y-144050000D03*
X51900000Y-145550000D03*
X52700000Y-145550000D03*
X53500000Y-145550000D03*
%TD*%
%TO.C,D67*%
X58900000Y-69650000D03*
X58100000Y-69650000D03*
X57300000Y-69650000D03*
X57300000Y-71150000D03*
X58100000Y-71150000D03*
X58900000Y-71150000D03*
%TD*%
%TO.C,D21*%
X53500000Y-88250000D03*
X52700000Y-88250000D03*
X51900000Y-88250000D03*
X51900000Y-89750000D03*
X52700000Y-89750000D03*
X53500000Y-89750000D03*
%TD*%
%TO.C,D12*%
X53500000Y-116150000D03*
X52700000Y-116150000D03*
X51900000Y-116150000D03*
X51900000Y-117650000D03*
X52700000Y-117650000D03*
X53500000Y-117650000D03*
%TD*%
%TO.C,D76*%
X58900000Y-41750000D03*
X58100000Y-41750000D03*
X57300000Y-41750000D03*
X57300000Y-43250000D03*
X58100000Y-43250000D03*
X58900000Y-43250000D03*
%TD*%
%TO.C,D68*%
X58900000Y-66550000D03*
X58100000Y-66550000D03*
X57300000Y-66550000D03*
X57300000Y-68050000D03*
X58100000Y-68050000D03*
X58900000Y-68050000D03*
%TD*%
%TO.C,D30*%
X53500000Y-60350000D03*
X52700000Y-60350000D03*
X51900000Y-60350000D03*
X51900000Y-61850000D03*
X52700000Y-61850000D03*
X53500000Y-61850000D03*
%TD*%
%TO.C,D49*%
X58900000Y-125450000D03*
X58100000Y-125450000D03*
X57300000Y-125450000D03*
X57300000Y-126950000D03*
X58100000Y-126950000D03*
X58900000Y-126950000D03*
%TD*%
%TO.C,D72*%
X58900000Y-54150000D03*
X58100000Y-54150000D03*
X57300000Y-54150000D03*
X57300000Y-55650000D03*
X58100000Y-55650000D03*
X58900000Y-55650000D03*
%TD*%
%TO.C,D69*%
X58900000Y-63450000D03*
X58100000Y-63450000D03*
X57300000Y-63450000D03*
X57300000Y-64950000D03*
X58100000Y-64950000D03*
X58900000Y-64950000D03*
%TD*%
%TO.C,D24*%
X53500000Y-78950000D03*
X52700000Y-78950000D03*
X51900000Y-78950000D03*
X51900000Y-80450000D03*
X52700000Y-80450000D03*
X53500000Y-80450000D03*
%TD*%
%TO.C,D20*%
X53500000Y-91350000D03*
X52700000Y-91350000D03*
X51900000Y-91350000D03*
X51900000Y-92850000D03*
X52700000Y-92850000D03*
X53500000Y-92850000D03*
%TD*%
%TO.C,D4*%
X53500000Y-140950000D03*
X52700000Y-140950000D03*
X51900000Y-140950000D03*
X51900000Y-142450000D03*
X52700000Y-142450000D03*
X53500000Y-142450000D03*
%TD*%
%TO.C,D55*%
X58900000Y-106850000D03*
X58100000Y-106850000D03*
X57300000Y-106850000D03*
X57300000Y-108350000D03*
X58100000Y-108350000D03*
X58900000Y-108350000D03*
%TD*%
%TO.C,D42*%
X58890000Y-147150000D03*
X58090000Y-147150000D03*
X57290000Y-147150000D03*
X57290000Y-148650000D03*
X58090000Y-148650000D03*
X58890000Y-148650000D03*
%TD*%
%TO.C,D17*%
X53500000Y-100650000D03*
X52700000Y-100650000D03*
X51900000Y-100650000D03*
X51900000Y-102150000D03*
X52700000Y-102150000D03*
X53500000Y-102150000D03*
%TD*%
%TO.C,D79*%
X58900000Y-32450000D03*
X58100000Y-32450000D03*
X57300000Y-32450000D03*
X57300000Y-33950000D03*
X58100000Y-33950000D03*
X58900000Y-33950000D03*
%TD*%
%TO.C,D34*%
X53500000Y-47950000D03*
X52700000Y-47950000D03*
X51900000Y-47950000D03*
X51900000Y-49450000D03*
X52700000Y-49450000D03*
X53500000Y-49450000D03*
%TD*%
%TO.C,D48*%
X58900000Y-128550000D03*
X58100000Y-128550000D03*
X57300000Y-128550000D03*
X57300000Y-130050000D03*
X58100000Y-130050000D03*
X58900000Y-130050000D03*
%TD*%
%TO.C,D2*%
X53500000Y-147150000D03*
X52700000Y-147150000D03*
X51900000Y-147150000D03*
X51900000Y-148650000D03*
X52700000Y-148650000D03*
X53500000Y-148650000D03*
%TD*%
%TO.C,D66*%
X58900000Y-72750000D03*
X58100000Y-72750000D03*
X57300000Y-72750000D03*
X57300000Y-74250000D03*
X58100000Y-74250000D03*
X58900000Y-74250000D03*
%TD*%
%TO.C,D43*%
X58900000Y-144050000D03*
X58100000Y-144050000D03*
X57300000Y-144050000D03*
X57300000Y-145550000D03*
X58100000Y-145550000D03*
X58900000Y-145550000D03*
%TD*%
%TO.C,D28*%
X53500000Y-66550000D03*
X52700000Y-66550000D03*
X51900000Y-66550000D03*
X51900000Y-68050000D03*
X52700000Y-68050000D03*
X53500000Y-68050000D03*
%TD*%
%TO.C,D53*%
X58900000Y-113050000D03*
X58100000Y-113050000D03*
X57300000Y-113050000D03*
X57300000Y-114550000D03*
X58100000Y-114550000D03*
X58900000Y-114550000D03*
%TD*%
%TO.C,D44*%
X58890000Y-140950000D03*
X58090000Y-140950000D03*
X57290000Y-140950000D03*
X57290000Y-142450000D03*
X58090000Y-142450000D03*
X58890000Y-142450000D03*
%TD*%
%TO.C,D5*%
X53500000Y-137850000D03*
X52700000Y-137850000D03*
X51900000Y-137850000D03*
X51900000Y-139350000D03*
X52700000Y-139350000D03*
X53500000Y-139350000D03*
%TD*%
%TO.C,D51*%
X58900000Y-119250000D03*
X58100000Y-119250000D03*
X57300000Y-119250000D03*
X57300000Y-120750000D03*
X58100000Y-120750000D03*
X58900000Y-120750000D03*
%TD*%
%TO.C,D54*%
X58900000Y-109950000D03*
X58100000Y-109950000D03*
X57300000Y-109950000D03*
X57300000Y-111450000D03*
X58100000Y-111450000D03*
X58900000Y-111450000D03*
%TD*%
%TO.C,D19*%
X53500000Y-94450000D03*
X52700000Y-94450000D03*
X51900000Y-94450000D03*
X51900000Y-95950000D03*
X52700000Y-95950000D03*
X53500000Y-95950000D03*
%TD*%
%TO.C,D40*%
X53500000Y-29350000D03*
X52700000Y-29350000D03*
X51900000Y-29350000D03*
X51900000Y-30850000D03*
X52700000Y-30850000D03*
X53500000Y-30850000D03*
%TD*%
%TO.C,D35*%
X53500000Y-44850000D03*
X52700000Y-44850000D03*
X51900000Y-44850000D03*
X51900000Y-46350000D03*
X52700000Y-46350000D03*
X53500000Y-46350000D03*
%TD*%
%TO.C,D52*%
X58900000Y-116150000D03*
X58100000Y-116150000D03*
X57300000Y-116150000D03*
X57300000Y-117650000D03*
X58100000Y-117650000D03*
X58900000Y-117650000D03*
%TD*%
%TO.C,D70*%
X58900000Y-60350000D03*
X58100000Y-60350000D03*
X57300000Y-60350000D03*
X57300000Y-61850000D03*
X58100000Y-61850000D03*
X58900000Y-61850000D03*
%TD*%
%TO.C,D63*%
X58900000Y-82050000D03*
X58100000Y-82050000D03*
X57300000Y-82050000D03*
X57300000Y-83550000D03*
X58100000Y-83550000D03*
X58900000Y-83550000D03*
%TD*%
%TO.C,D71*%
X58900000Y-57250000D03*
X58100000Y-57250000D03*
X57300000Y-57250000D03*
X57300000Y-58750000D03*
X58100000Y-58750000D03*
X58900000Y-58750000D03*
%TD*%
%TO.C,D60*%
X58900000Y-91350000D03*
X58100000Y-91350000D03*
X57300000Y-91350000D03*
X57300000Y-92850000D03*
X58100000Y-92850000D03*
X58900000Y-92850000D03*
%TD*%
%TO.C,D73*%
X58900000Y-51050000D03*
X58100000Y-51050000D03*
X57300000Y-51050000D03*
X57300000Y-52550000D03*
X58100000Y-52550000D03*
X58900000Y-52550000D03*
%TD*%
%TO.C,D36*%
X129100000Y-41750000D03*
X128300000Y-41750000D03*
X127500000Y-41750000D03*
X127500000Y-43250000D03*
X128300000Y-43250000D03*
X129100000Y-43250000D03*
%TD*%
%TO.C,D16*%
X129100000Y-103750000D03*
X128300000Y-103750000D03*
X127500000Y-103750000D03*
X127500000Y-105250000D03*
X128300000Y-105250000D03*
X129100000Y-105250000D03*
%TD*%
%TO.C,D38*%
X129100000Y-35550000D03*
X128300000Y-35550000D03*
X127500000Y-35550000D03*
X127500000Y-37050000D03*
X128300000Y-37050000D03*
X129100000Y-37050000D03*
%TD*%
%TO.C,D31*%
X129100000Y-57250000D03*
X128300000Y-57250000D03*
X127500000Y-57250000D03*
X127500000Y-58750000D03*
X128300000Y-58750000D03*
X129100000Y-58750000D03*
%TD*%
%TO.C,D74*%
X134500000Y-47950000D03*
X133700000Y-47950000D03*
X132900000Y-47950000D03*
X132900000Y-49450000D03*
X133700000Y-49450000D03*
X134500000Y-49450000D03*
%TD*%
%TO.C,D41*%
X134500000Y-150250000D03*
X133700000Y-150250000D03*
X132900000Y-150250000D03*
X132900000Y-151750000D03*
X133700000Y-151750000D03*
X134500000Y-151750000D03*
%TD*%
%TO.C,D6*%
X129100000Y-134750000D03*
X128300000Y-134750000D03*
X127500000Y-134750000D03*
X127500000Y-136250000D03*
X128300000Y-136250000D03*
X129100000Y-136250000D03*
%TD*%
%TO.C,D15*%
X129100000Y-106850000D03*
X128300000Y-106850000D03*
X127500000Y-106850000D03*
X127500000Y-108350000D03*
X128300000Y-108350000D03*
X129100000Y-108350000D03*
%TD*%
%TO.C,D1*%
X129100000Y-150250000D03*
X128300000Y-150250000D03*
X127500000Y-150250000D03*
X127500000Y-151750000D03*
X128300000Y-151750000D03*
X129100000Y-151750000D03*
%TD*%
%TO.C,D11*%
X129100000Y-119250000D03*
X128300000Y-119250000D03*
X127500000Y-119250000D03*
X127500000Y-120750000D03*
X128300000Y-120750000D03*
X129100000Y-120750000D03*
%TD*%
%TO.C,D58*%
X134500000Y-97550000D03*
X133700000Y-97550000D03*
X132900000Y-97550000D03*
X132900000Y-99050000D03*
X133700000Y-99050000D03*
X134500000Y-99050000D03*
%TD*%
%TO.C,D26*%
X129100000Y-72750000D03*
X128300000Y-72750000D03*
X127500000Y-72750000D03*
X127500000Y-74250000D03*
X128300000Y-74250000D03*
X129100000Y-74250000D03*
%TD*%
%TO.C,D9*%
X129100000Y-125450000D03*
X128300000Y-125450000D03*
X127500000Y-125450000D03*
X127500000Y-126950000D03*
X128300000Y-126950000D03*
X129100000Y-126950000D03*
%TD*%
%TO.C,D75*%
X134500000Y-44850000D03*
X133700000Y-44850000D03*
X132900000Y-44850000D03*
X132900000Y-46350000D03*
X133700000Y-46350000D03*
X134500000Y-46350000D03*
%TD*%
%TO.C,D22*%
X129100000Y-85150000D03*
X128300000Y-85150000D03*
X127500000Y-85150000D03*
X127500000Y-86650000D03*
X128300000Y-86650000D03*
X129100000Y-86650000D03*
%TD*%
%TO.C,D32*%
X129100000Y-54150000D03*
X128300000Y-54150000D03*
X127500000Y-54150000D03*
X127500000Y-55650000D03*
X128300000Y-55650000D03*
X129100000Y-55650000D03*
%TD*%
%TO.C,D78*%
X134500000Y-35550000D03*
X133700000Y-35550000D03*
X132900000Y-35550000D03*
X132900000Y-37050000D03*
X133700000Y-37050000D03*
X134500000Y-37050000D03*
%TD*%
%TO.C,D56*%
X134500000Y-103750000D03*
X133700000Y-103750000D03*
X132900000Y-103750000D03*
X132900000Y-105250000D03*
X133700000Y-105250000D03*
X134500000Y-105250000D03*
%TD*%
%TO.C,D80*%
X134500000Y-29350000D03*
X133700000Y-29350000D03*
X132900000Y-29350000D03*
X132900000Y-30850000D03*
X133700000Y-30850000D03*
X134500000Y-30850000D03*
%TD*%
%TO.C,D37*%
X129100000Y-38650000D03*
X128300000Y-38650000D03*
X127500000Y-38650000D03*
X127500000Y-40150000D03*
X128300000Y-40150000D03*
X129100000Y-40150000D03*
%TD*%
%TO.C,D25*%
X129100000Y-75850000D03*
X128300000Y-75850000D03*
X127500000Y-75850000D03*
X127500000Y-77350000D03*
X128300000Y-77350000D03*
X129100000Y-77350000D03*
%TD*%
%TO.C,D46*%
X134500000Y-134750000D03*
X133700000Y-134750000D03*
X132900000Y-134750000D03*
X132900000Y-136250000D03*
X133700000Y-136250000D03*
X134500000Y-136250000D03*
%TD*%
%TO.C,D29*%
X129100000Y-63450000D03*
X128300000Y-63450000D03*
X127500000Y-63450000D03*
X127500000Y-64950000D03*
X128300000Y-64950000D03*
X129100000Y-64950000D03*
%TD*%
%TO.C,D10*%
X129100000Y-122350000D03*
X128300000Y-122350000D03*
X127500000Y-122350000D03*
X127500000Y-123850000D03*
X128300000Y-123850000D03*
X129100000Y-123850000D03*
%TD*%
%TO.C,D27*%
X129100000Y-69650000D03*
X128300000Y-69650000D03*
X127500000Y-69650000D03*
X127500000Y-71150000D03*
X128300000Y-71150000D03*
X129100000Y-71150000D03*
%TD*%
%TO.C,D13*%
X129090000Y-113050000D03*
X128290000Y-113050000D03*
X127490000Y-113050000D03*
X127490000Y-114550000D03*
X128290000Y-114550000D03*
X129090000Y-114550000D03*
%TD*%
%TO.C,D64*%
X134500000Y-78950000D03*
X133700000Y-78950000D03*
X132900000Y-78950000D03*
X132900000Y-80450000D03*
X133700000Y-80450000D03*
X134500000Y-80450000D03*
%TD*%
%TO.C,D39*%
X129100000Y-32450000D03*
X128300000Y-32450000D03*
X127500000Y-32450000D03*
X127500000Y-33950000D03*
X128300000Y-33950000D03*
X129100000Y-33950000D03*
%TD*%
%TO.C,D8*%
X129100000Y-128550000D03*
X128300000Y-128550000D03*
X127500000Y-128550000D03*
X127500000Y-130050000D03*
X128300000Y-130050000D03*
X129100000Y-130050000D03*
%TD*%
%TO.C,D65*%
X134500000Y-75850000D03*
X133700000Y-75850000D03*
X132900000Y-75850000D03*
X132900000Y-77350000D03*
X133700000Y-77350000D03*
X134500000Y-77350000D03*
%TD*%
%TO.C,D61*%
X134500000Y-88250000D03*
X133700000Y-88250000D03*
X132900000Y-88250000D03*
X132900000Y-89750000D03*
X133700000Y-89750000D03*
X134500000Y-89750000D03*
%TD*%
%TO.C,D77*%
X134500000Y-38650000D03*
X133700000Y-38650000D03*
X132900000Y-38650000D03*
X132900000Y-40150000D03*
X133700000Y-40150000D03*
X134500000Y-40150000D03*
%TD*%
%TO.C,D50*%
X134500000Y-122350000D03*
X133700000Y-122350000D03*
X132900000Y-122350000D03*
X132900000Y-123850000D03*
X133700000Y-123850000D03*
X134500000Y-123850000D03*
%TD*%
%TO.C,D33*%
X129100000Y-51050000D03*
X128300000Y-51050000D03*
X127500000Y-51050000D03*
X127500000Y-52550000D03*
X128300000Y-52550000D03*
X129100000Y-52550000D03*
%TD*%
%TO.C,D47*%
X134500000Y-131650000D03*
X133700000Y-131650000D03*
X132900000Y-131650000D03*
X132900000Y-133150000D03*
X133700000Y-133150000D03*
X134500000Y-133150000D03*
%TD*%
%TO.C,D18*%
X129100000Y-97550000D03*
X128300000Y-97550000D03*
X127500000Y-97550000D03*
X127500000Y-99050000D03*
X128300000Y-99050000D03*
X129100000Y-99050000D03*
%TD*%
%TO.C,D3*%
X129100000Y-144050000D03*
X128300000Y-144050000D03*
X127500000Y-144050000D03*
X127500000Y-145550000D03*
X128300000Y-145550000D03*
X129100000Y-145550000D03*
%TD*%
%TO.C,D59*%
X134500000Y-94450000D03*
X133700000Y-94450000D03*
X132900000Y-94450000D03*
X132900000Y-95950000D03*
X133700000Y-95950000D03*
X134500000Y-95950000D03*
%TD*%
%TO.C,D67*%
X134500000Y-69650000D03*
X133700000Y-69650000D03*
X132900000Y-69650000D03*
X132900000Y-71150000D03*
X133700000Y-71150000D03*
X134500000Y-71150000D03*
%TD*%
%TO.C,D7*%
X129100000Y-131650000D03*
X128300000Y-131650000D03*
X127500000Y-131650000D03*
X127500000Y-133150000D03*
X128300000Y-133150000D03*
X129100000Y-133150000D03*
%TD*%
%TO.C,D12*%
X129100000Y-116150000D03*
X128300000Y-116150000D03*
X127500000Y-116150000D03*
X127500000Y-117650000D03*
X128300000Y-117650000D03*
X129100000Y-117650000D03*
%TD*%
%TO.C,D76*%
X134500000Y-41750000D03*
X133700000Y-41750000D03*
X132900000Y-41750000D03*
X132900000Y-43250000D03*
X133700000Y-43250000D03*
X134500000Y-43250000D03*
%TD*%
%TO.C,D68*%
X134500000Y-66550000D03*
X133700000Y-66550000D03*
X132900000Y-66550000D03*
X132900000Y-68050000D03*
X133700000Y-68050000D03*
X134500000Y-68050000D03*
%TD*%
%TO.C,D30*%
X129100000Y-60350000D03*
X128300000Y-60350000D03*
X127500000Y-60350000D03*
X127500000Y-61850000D03*
X128300000Y-61850000D03*
X129100000Y-61850000D03*
%TD*%
%TO.C,D72*%
X134500000Y-54150000D03*
X133700000Y-54150000D03*
X132900000Y-54150000D03*
X132900000Y-55650000D03*
X133700000Y-55650000D03*
X134500000Y-55650000D03*
%TD*%
%TO.C,D69*%
X134500000Y-63450000D03*
X133700000Y-63450000D03*
X132900000Y-63450000D03*
X132900000Y-64950000D03*
X133700000Y-64950000D03*
X134500000Y-64950000D03*
%TD*%
%TO.C,D24*%
X129100000Y-78950000D03*
X128300000Y-78950000D03*
X127500000Y-78950000D03*
X127500000Y-80450000D03*
X128300000Y-80450000D03*
X129100000Y-80450000D03*
%TD*%
%TO.C,D57*%
X134500000Y-100650000D03*
X133700000Y-100650000D03*
X132900000Y-100650000D03*
X132900000Y-102150000D03*
X133700000Y-102150000D03*
X134500000Y-102150000D03*
%TD*%
%TO.C,D4*%
X129100000Y-140950000D03*
X128300000Y-140950000D03*
X127500000Y-140950000D03*
X127500000Y-142450000D03*
X128300000Y-142450000D03*
X129100000Y-142450000D03*
%TD*%
%TO.C,D55*%
X134500000Y-106850000D03*
X133700000Y-106850000D03*
X132900000Y-106850000D03*
X132900000Y-108350000D03*
X133700000Y-108350000D03*
X134500000Y-108350000D03*
%TD*%
%TO.C,D17*%
X129100000Y-100650000D03*
X128300000Y-100650000D03*
X127500000Y-100650000D03*
X127500000Y-102150000D03*
X128300000Y-102150000D03*
X129100000Y-102150000D03*
%TD*%
%TO.C,D79*%
X134500000Y-32450000D03*
X133700000Y-32450000D03*
X132900000Y-32450000D03*
X132900000Y-33950000D03*
X133700000Y-33950000D03*
X134500000Y-33950000D03*
%TD*%
%TO.C,D2*%
X129100000Y-147150000D03*
X128300000Y-147150000D03*
X127500000Y-147150000D03*
X127500000Y-148650000D03*
X128300000Y-148650000D03*
X129100000Y-148650000D03*
%TD*%
%TO.C,D66*%
X134500000Y-72750000D03*
X133700000Y-72750000D03*
X132900000Y-72750000D03*
X132900000Y-74250000D03*
X133700000Y-74250000D03*
X134500000Y-74250000D03*
%TD*%
%TO.C,D43*%
X134500000Y-144050000D03*
X133700000Y-144050000D03*
X132900000Y-144050000D03*
X132900000Y-145550000D03*
X133700000Y-145550000D03*
X134500000Y-145550000D03*
%TD*%
%TO.C,D28*%
X129100000Y-66550000D03*
X128300000Y-66550000D03*
X127500000Y-66550000D03*
X127500000Y-68050000D03*
X128300000Y-68050000D03*
X129100000Y-68050000D03*
%TD*%
%TO.C,D53*%
X134500000Y-113050000D03*
X133700000Y-113050000D03*
X132900000Y-113050000D03*
X132900000Y-114550000D03*
X133700000Y-114550000D03*
X134500000Y-114550000D03*
%TD*%
%TO.C,D62*%
X134500000Y-85150000D03*
X133700000Y-85150000D03*
X132900000Y-85150000D03*
X132900000Y-86650000D03*
X133700000Y-86650000D03*
X134500000Y-86650000D03*
%TD*%
%TO.C,D44*%
X134490000Y-140950000D03*
X133690000Y-140950000D03*
X132890000Y-140950000D03*
X132890000Y-142450000D03*
X133690000Y-142450000D03*
X134490000Y-142450000D03*
%TD*%
%TO.C,D45*%
X134500000Y-137850000D03*
X133700000Y-137850000D03*
X132900000Y-137850000D03*
X132900000Y-139350000D03*
X133700000Y-139350000D03*
X134500000Y-139350000D03*
%TD*%
%TO.C,D5*%
X129100000Y-137850000D03*
X128300000Y-137850000D03*
X127500000Y-137850000D03*
X127500000Y-139350000D03*
X128300000Y-139350000D03*
X129100000Y-139350000D03*
%TD*%
%TO.C,D34*%
X129100000Y-47950000D03*
X128300000Y-47950000D03*
X127500000Y-47950000D03*
X127500000Y-49450000D03*
X128300000Y-49450000D03*
X129100000Y-49450000D03*
%TD*%
%TO.C,D51*%
X134500000Y-119250000D03*
X133700000Y-119250000D03*
X132900000Y-119250000D03*
X132900000Y-120750000D03*
X133700000Y-120750000D03*
X134500000Y-120750000D03*
%TD*%
%TO.C,D54*%
X134500000Y-109950000D03*
X133700000Y-109950000D03*
X132900000Y-109950000D03*
X132900000Y-111450000D03*
X133700000Y-111450000D03*
X134500000Y-111450000D03*
%TD*%
%TO.C,D40*%
X129100000Y-29350000D03*
X128300000Y-29350000D03*
X127500000Y-29350000D03*
X127500000Y-30850000D03*
X128300000Y-30850000D03*
X129100000Y-30850000D03*
%TD*%
%TO.C,D48*%
X134500000Y-128550000D03*
X133700000Y-128550000D03*
X132900000Y-128550000D03*
X132900000Y-130050000D03*
X133700000Y-130050000D03*
X134500000Y-130050000D03*
%TD*%
%TO.C,D35*%
X129100000Y-44850000D03*
X128300000Y-44850000D03*
X127500000Y-44850000D03*
X127500000Y-46350000D03*
X128300000Y-46350000D03*
X129100000Y-46350000D03*
%TD*%
%TO.C,D14*%
X129100000Y-109950000D03*
X128300000Y-109950000D03*
X127500000Y-109950000D03*
X127500000Y-111450000D03*
X128300000Y-111450000D03*
X129100000Y-111450000D03*
%TD*%
%TO.C,D19*%
X129100000Y-94450000D03*
X128300000Y-94450000D03*
X127500000Y-94450000D03*
X127500000Y-95950000D03*
X128300000Y-95950000D03*
X129100000Y-95950000D03*
%TD*%
%TO.C,D42*%
X134490000Y-147150000D03*
X133690000Y-147150000D03*
X132890000Y-147150000D03*
X132890000Y-148650000D03*
X133690000Y-148650000D03*
X134490000Y-148650000D03*
%TD*%
%TO.C,D52*%
X134500000Y-116150000D03*
X133700000Y-116150000D03*
X132900000Y-116150000D03*
X132900000Y-117650000D03*
X133700000Y-117650000D03*
X134500000Y-117650000D03*
%TD*%
%TO.C,D70*%
X134500000Y-60350000D03*
X133700000Y-60350000D03*
X132900000Y-60350000D03*
X132900000Y-61850000D03*
X133700000Y-61850000D03*
X134500000Y-61850000D03*
%TD*%
%TO.C,D20*%
X129100000Y-91350000D03*
X128300000Y-91350000D03*
X127500000Y-91350000D03*
X127500000Y-92850000D03*
X128300000Y-92850000D03*
X129100000Y-92850000D03*
%TD*%
%TO.C,D63*%
X134500000Y-82050000D03*
X133700000Y-82050000D03*
X132900000Y-82050000D03*
X132900000Y-83550000D03*
X133700000Y-83550000D03*
X134500000Y-83550000D03*
%TD*%
%TO.C,D21*%
X129100000Y-88250000D03*
X128300000Y-88250000D03*
X127500000Y-88250000D03*
X127500000Y-89750000D03*
X128300000Y-89750000D03*
X129100000Y-89750000D03*
%TD*%
%TO.C,D71*%
X134500000Y-57250000D03*
X133700000Y-57250000D03*
X132900000Y-57250000D03*
X132900000Y-58750000D03*
X133700000Y-58750000D03*
X134500000Y-58750000D03*
%TD*%
%TO.C,D23*%
X129100000Y-82050000D03*
X128300000Y-82050000D03*
X127500000Y-82050000D03*
X127500000Y-83550000D03*
X128300000Y-83550000D03*
X129100000Y-83550000D03*
%TD*%
%TO.C,D49*%
X134500000Y-125450000D03*
X133700000Y-125450000D03*
X132900000Y-125450000D03*
X132900000Y-126950000D03*
X133700000Y-126950000D03*
X134500000Y-126950000D03*
%TD*%
%TO.C,D60*%
X134500000Y-91350000D03*
X133700000Y-91350000D03*
X132900000Y-91350000D03*
X132900000Y-92850000D03*
X133700000Y-92850000D03*
X134500000Y-92850000D03*
%TD*%
%TO.C,D73*%
X134500000Y-51050000D03*
X133700000Y-51050000D03*
X132900000Y-51050000D03*
X132900000Y-52550000D03*
X133700000Y-52550000D03*
X134500000Y-52550000D03*
%TD*%
D11*
%TO.C,REF\u002A\u002A*%
X52700000Y-23000000D03*
%TD*%
%TO.C,REF\u002A\u002A*%
X58100000Y-23000000D03*
%TD*%
%TO.C,REF\u002A\u002A*%
X128300000Y-23000000D03*
%TD*%
%TO.C,REF\u002A\u002A*%
X133700000Y-23000000D03*
%TD*%
%TO.C,REF\u002A\u002A*%
X128300000Y-159400000D03*
%TD*%
%TO.C,REF\u002A\u002A*%
X58100000Y-159400000D03*
%TD*%
D12*
%TO.C,J3*%
X103000000Y-160000000D03*
D13*
X105540000Y-160000000D03*
X108080000Y-160000000D03*
X110620000Y-160000000D03*
%TD*%
D11*
%TO.C,REF\u002A\u002A*%
X133700000Y-158400000D03*
%TD*%
D12*
%TO.C,J3*%
X62590000Y-160000000D03*
D13*
X65130000Y-160000000D03*
X67670000Y-160000000D03*
X70210000Y-160000000D03*
%TD*%
D11*
%TO.C,REF\u002A\u002A*%
X52700000Y-158400000D03*
%TD*%
M02*
