M48
; DRILL file {KiCad 9.0.3} date 2025-08-18T15:11:32-0400
; FORMAT={-:-/ absolute / metric / decimal}
; #@! TF.CreationDate,2025-08-18T15:11:32-04:00
; #@! TF.GenerationSoftware,Kicad,Pcbnew,9.0.3
; #@! TF.FileFunction,Plated,1,2,PTH
FMAT,2
METRIC
; #@! TA.AperFunction,Plated,PTH,ViaDrill
T1C0.200
; #@! TA.AperFunction,Plated,PTH,ComponentDrill
T2C1.000
%
G90
G05
T1
X51.325Y-153.85
X51.726Y-152.57
X51.75Y-153.5
X52.329Y-113.8
X52.339Y-30.1
X52.339Y-33.2
X52.339Y-36.3
X52.339Y-39.4
X52.339Y-42.5
X52.339Y-45.6
X52.339Y-48.7
X52.339Y-51.8
X52.339Y-54.9
X52.339Y-58.0
X52.339Y-61.1
X52.339Y-64.2
X52.339Y-67.3
X52.339Y-70.4
X52.339Y-73.5
X52.339Y-76.6
X52.339Y-79.7
X52.339Y-82.8
X52.339Y-85.9
X52.339Y-89.0
X52.339Y-92.1
X52.339Y-95.2
X52.339Y-98.3
X52.339Y-101.4
X52.339Y-104.5
X52.339Y-107.6
X52.339Y-110.7
X52.339Y-116.9
X52.339Y-120.0
X52.339Y-123.1
X52.339Y-126.2
X52.339Y-129.3
X52.339Y-132.4
X52.339Y-135.5
X52.339Y-138.6
X52.339Y-141.7
X52.339Y-144.8
X52.339Y-147.9
X52.339Y-151.0
X52.35Y-153.6
X53.05Y-153.6
X53.5Y-30.08
X53.5Y-33.18
X53.5Y-36.28
X53.5Y-39.38
X53.5Y-42.48
X53.5Y-45.58
X53.5Y-48.68
X53.5Y-51.78
X53.5Y-54.88
X53.5Y-57.98
X53.5Y-61.08
X53.5Y-64.18
X53.5Y-67.28
X53.5Y-70.38
X53.5Y-73.48
X53.5Y-76.58
X53.5Y-79.68
X53.5Y-82.78
X53.5Y-85.88
X53.5Y-88.98
X53.5Y-92.08
X53.5Y-95.18
X53.5Y-98.28
X53.5Y-101.38
X53.5Y-104.48
X53.5Y-107.58
X53.5Y-110.68
X53.5Y-113.78
X53.5Y-116.88
X53.5Y-119.98
X53.5Y-123.08
X53.5Y-126.18
X53.5Y-129.28
X53.5Y-132.38
X53.5Y-135.48
X53.5Y-138.58
X53.5Y-141.68
X53.5Y-144.78
X53.5Y-147.88
X53.5Y-150.98
X53.95Y-153.7
X54.14Y-27.7
X54.14Y-29.1
X54.14Y-133.2
X54.14Y-134.7
X54.14Y-80.5
X54.14Y-82.0
X55.8Y-157.7
X55.84Y-156.1
X56.66Y-27.7
X56.66Y-29.1
X56.66Y-80.5
X56.66Y-82.0
X56.66Y-133.2
X56.66Y-134.7
X56.85Y-153.7
X57.3Y-156.7
X57.5Y-155.4
X57.729Y-141.7
X57.729Y-147.9
X57.739Y-30.1
X57.739Y-33.2
X57.739Y-36.3
X57.739Y-39.4
X57.739Y-42.5
X57.739Y-45.6
X57.739Y-48.7
X57.739Y-51.8
X57.739Y-54.9
X57.739Y-58.0
X57.739Y-61.1
X57.739Y-64.2
X57.739Y-67.3
X57.739Y-70.4
X57.739Y-73.5
X57.739Y-76.6
X57.739Y-79.7
X57.739Y-82.8
X57.739Y-85.9
X57.739Y-89.0
X57.739Y-92.1
X57.739Y-95.2
X57.739Y-98.3
X57.739Y-101.4
X57.739Y-104.5
X57.739Y-107.6
X57.739Y-110.7
X57.739Y-113.8
X57.739Y-116.9
X57.739Y-120.0
X57.739Y-123.1
X57.739Y-126.2
X57.739Y-129.3
X57.739Y-132.4
X57.739Y-135.5
X57.739Y-138.6
X57.739Y-144.8
X57.739Y-151.0
X57.753Y-153.626
X57.8Y-156.1
X57.9Y-152.8
X58.3Y-155.4
X58.3Y-157.1
X58.45Y-153.65
X58.5Y-152.6
X58.7Y-157.7
X58.9Y-30.12
X58.9Y-33.22
X58.9Y-36.32
X58.9Y-39.42
X58.9Y-42.52
X58.9Y-45.62
X58.9Y-48.72
X58.9Y-51.82
X58.9Y-54.92
X58.9Y-58.02
X58.9Y-61.12
X58.9Y-64.22
X58.9Y-67.32
X58.9Y-70.42
X58.9Y-73.52
X58.9Y-76.62
X58.9Y-79.72
X58.9Y-82.82
X58.9Y-85.92
X58.9Y-89.02
X58.9Y-92.12
X58.9Y-95.22
X58.9Y-98.32
X58.9Y-101.42
X58.9Y-104.52
X58.9Y-107.62
X58.9Y-110.72
X58.9Y-113.82
X58.9Y-116.92
X58.9Y-120.02
X58.9Y-123.12
X58.9Y-126.22
X58.9Y-129.32
X58.9Y-132.42
X58.9Y-135.52
X58.9Y-138.62
X58.9Y-141.72
X58.9Y-144.82
X58.9Y-147.92
X58.9Y-151.02
X59.079Y-153.44
X59.5Y-153.85
X62.125Y-153.85
X62.526Y-152.57
X62.55Y-153.5
X62.6Y-156.1
X63.1Y-155.53
X63.129Y-113.8
X63.139Y-30.1
X63.139Y-33.2
X63.139Y-36.3
X63.139Y-39.4
X63.139Y-42.5
X63.139Y-45.6
X63.139Y-48.7
X63.139Y-51.8
X63.139Y-54.9
X63.139Y-58.0
X63.139Y-61.1
X63.139Y-64.2
X63.139Y-67.3
X63.139Y-70.4
X63.139Y-73.5
X63.139Y-76.6
X63.139Y-79.7
X63.139Y-82.8
X63.139Y-85.9
X63.139Y-89.0
X63.139Y-92.1
X63.139Y-95.2
X63.139Y-98.3
X63.139Y-101.4
X63.139Y-104.5
X63.139Y-107.6
X63.139Y-110.7
X63.139Y-116.9
X63.139Y-120.0
X63.139Y-123.1
X63.139Y-126.2
X63.139Y-129.3
X63.139Y-132.4
X63.139Y-135.5
X63.139Y-138.6
X63.139Y-141.7
X63.139Y-144.8
X63.139Y-147.9
X63.139Y-151.0
X63.15Y-153.6
X63.16Y-157.1
X63.6Y-157.7
X63.85Y-153.6
X63.9Y-155.5
X63.9Y-156.7
X64.3Y-30.08
X64.3Y-33.18
X64.3Y-36.28
X64.3Y-39.38
X64.3Y-42.48
X64.3Y-45.58
X64.3Y-48.68
X64.3Y-51.78
X64.3Y-54.88
X64.3Y-57.98
X64.3Y-61.08
X64.3Y-64.18
X64.3Y-67.28
X64.3Y-70.38
X64.3Y-73.48
X64.3Y-76.58
X64.3Y-79.68
X64.3Y-82.78
X64.3Y-85.88
X64.3Y-88.98
X64.3Y-92.08
X64.3Y-95.18
X64.3Y-98.28
X64.3Y-101.38
X64.3Y-104.48
X64.3Y-107.58
X64.3Y-110.68
X64.3Y-113.78
X64.3Y-116.88
X64.3Y-119.98
X64.3Y-123.08
X64.3Y-126.18
X64.3Y-129.28
X64.3Y-132.38
X64.3Y-135.48
X64.3Y-138.58
X64.3Y-141.68
X64.3Y-144.78
X64.3Y-147.88
X64.3Y-150.98
X64.3Y-156.1
X64.75Y-153.7
X64.94Y-27.7
X64.94Y-29.1
X64.94Y-133.2
X64.94Y-134.7
X64.94Y-80.5
X64.94Y-82.0
X65.1Y-156.7
X67.46Y-27.7
X67.46Y-29.1
X67.46Y-80.5
X67.46Y-82.0
X67.46Y-133.2
X67.46Y-134.7
X67.65Y-153.7
X67.7Y-157.1
X68.3Y-155.5
X68.3Y-156.7
X68.529Y-141.7
X68.529Y-147.9
X68.539Y-30.1
X68.539Y-33.2
X68.539Y-36.3
X68.539Y-39.4
X68.539Y-42.5
X68.539Y-45.6
X68.539Y-48.7
X68.539Y-51.8
X68.539Y-54.9
X68.539Y-58.0
X68.539Y-61.1
X68.539Y-64.2
X68.539Y-67.3
X68.539Y-70.4
X68.539Y-73.5
X68.539Y-76.6
X68.539Y-79.7
X68.539Y-82.8
X68.539Y-85.9
X68.539Y-89.0
X68.539Y-92.1
X68.539Y-95.2
X68.539Y-98.3
X68.539Y-101.4
X68.539Y-104.5
X68.539Y-107.6
X68.539Y-110.7
X68.539Y-113.8
X68.539Y-116.9
X68.539Y-120.0
X68.539Y-123.1
X68.539Y-126.2
X68.539Y-129.3
X68.539Y-132.4
X68.539Y-135.5
X68.539Y-138.6
X68.539Y-144.8
X68.539Y-151.0
X68.553Y-153.626
X68.7Y-152.8
X68.7Y-156.1
X69.1Y-155.5
X69.1Y-157.1
X69.25Y-153.65
X69.3Y-152.6
X69.5Y-157.7
X69.7Y-30.12
X69.7Y-33.22
X69.7Y-36.32
X69.7Y-39.42
X69.7Y-42.52
X69.7Y-45.62
X69.7Y-48.72
X69.7Y-51.82
X69.7Y-54.92
X69.7Y-58.02
X69.7Y-61.12
X69.7Y-64.22
X69.7Y-67.32
X69.7Y-70.42
X69.7Y-73.52
X69.7Y-76.62
X69.7Y-79.72
X69.7Y-82.82
X69.7Y-85.92
X69.7Y-89.02
X69.7Y-92.12
X69.7Y-95.22
X69.7Y-98.32
X69.7Y-101.42
X69.7Y-104.52
X69.7Y-107.62
X69.7Y-110.72
X69.7Y-113.82
X69.7Y-116.92
X69.7Y-120.02
X69.7Y-123.12
X69.7Y-126.22
X69.7Y-129.32
X69.7Y-132.42
X69.7Y-135.52
X69.7Y-138.62
X69.7Y-141.72
X69.7Y-144.82
X69.7Y-147.92
X69.7Y-151.02
X69.879Y-153.44
X70.2Y-157.7
X70.3Y-153.85
X72.925Y-153.85
X73.326Y-152.57
X73.35Y-153.5
X73.9Y-155.53
X73.9Y-157.1
X73.929Y-113.8
X73.939Y-30.1
X73.939Y-33.2
X73.939Y-36.3
X73.939Y-39.4
X73.939Y-42.5
X73.939Y-45.6
X73.939Y-48.7
X73.939Y-51.8
X73.939Y-54.9
X73.939Y-58.0
X73.939Y-61.1
X73.939Y-64.2
X73.939Y-67.3
X73.939Y-70.4
X73.939Y-73.5
X73.939Y-76.6
X73.939Y-79.7
X73.939Y-82.8
X73.939Y-85.9
X73.939Y-89.0
X73.939Y-92.1
X73.939Y-95.2
X73.939Y-98.3
X73.939Y-101.4
X73.939Y-104.5
X73.939Y-107.6
X73.939Y-110.7
X73.939Y-116.9
X73.939Y-120.0
X73.939Y-123.1
X73.939Y-126.2
X73.939Y-129.3
X73.939Y-132.4
X73.939Y-135.5
X73.939Y-138.6
X73.939Y-141.7
X73.939Y-144.8
X73.939Y-147.9
X73.939Y-151.0
X73.95Y-153.6
X74.3Y-157.7
X74.65Y-153.6
X74.7Y-155.5
X74.7Y-156.7
X75.1Y-30.08
X75.1Y-33.18
X75.1Y-36.28
X75.1Y-39.38
X75.1Y-42.48
X75.1Y-45.58
X75.1Y-48.68
X75.1Y-51.78
X75.1Y-54.88
X75.1Y-57.98
X75.1Y-61.08
X75.1Y-64.18
X75.1Y-67.28
X75.1Y-70.38
X75.1Y-73.48
X75.1Y-76.58
X75.1Y-79.68
X75.1Y-82.78
X75.1Y-85.88
X75.1Y-88.98
X75.1Y-92.08
X75.1Y-95.18
X75.1Y-98.28
X75.1Y-101.38
X75.1Y-104.48
X75.1Y-107.58
X75.1Y-110.68
X75.1Y-113.78
X75.1Y-116.88
X75.1Y-119.98
X75.1Y-123.08
X75.1Y-126.18
X75.1Y-129.28
X75.1Y-132.38
X75.1Y-135.48
X75.1Y-138.58
X75.1Y-141.68
X75.1Y-144.78
X75.1Y-147.88
X75.1Y-150.98
X75.1Y-156.1
X75.55Y-153.7
X75.74Y-27.7
X75.74Y-29.1
X75.74Y-133.2
X75.74Y-134.7
X75.74Y-80.5
X75.74Y-82.0
X78.26Y-27.7
X78.26Y-29.1
X78.26Y-80.5
X78.26Y-82.0
X78.26Y-133.2
X78.26Y-134.7
X78.45Y-153.7
X79.1Y-155.5
X79.1Y-156.7
X79.329Y-141.7
X79.329Y-147.9
X79.339Y-30.1
X79.339Y-33.2
X79.339Y-36.3
X79.339Y-39.4
X79.339Y-42.5
X79.339Y-45.6
X79.339Y-48.7
X79.339Y-51.8
X79.339Y-54.9
X79.339Y-58.0
X79.339Y-61.1
X79.339Y-64.2
X79.339Y-67.3
X79.339Y-70.4
X79.339Y-73.5
X79.339Y-76.6
X79.339Y-79.7
X79.339Y-82.8
X79.339Y-85.9
X79.339Y-89.0
X79.339Y-92.1
X79.339Y-95.2
X79.339Y-98.3
X79.339Y-101.4
X79.339Y-104.5
X79.339Y-107.6
X79.339Y-110.7
X79.339Y-113.8
X79.339Y-116.9
X79.339Y-120.0
X79.339Y-123.1
X79.339Y-126.2
X79.339Y-129.3
X79.339Y-132.4
X79.339Y-135.5
X79.339Y-138.6
X79.339Y-144.8
X79.339Y-151.0
X79.353Y-153.626
X79.5Y-152.8
X79.5Y-156.1
X79.9Y-155.5
X79.9Y-157.1
X80.05Y-153.65
X80.1Y-152.6
X80.3Y-157.7
X80.5Y-30.12
X80.5Y-33.22
X80.5Y-36.32
X80.5Y-39.42
X80.5Y-42.52
X80.5Y-45.62
X80.5Y-48.72
X80.5Y-51.82
X80.5Y-54.92
X80.5Y-58.02
X80.5Y-61.12
X80.5Y-64.22
X80.5Y-67.32
X80.5Y-70.42
X80.5Y-73.52
X80.5Y-76.62
X80.5Y-79.72
X80.5Y-82.82
X80.5Y-85.92
X80.5Y-89.02
X80.5Y-92.12
X80.5Y-95.22
X80.5Y-98.32
X80.5Y-101.42
X80.5Y-104.52
X80.5Y-107.62
X80.5Y-110.72
X80.5Y-113.82
X80.5Y-116.92
X80.5Y-120.02
X80.5Y-123.12
X80.5Y-126.22
X80.5Y-129.32
X80.5Y-132.42
X80.5Y-135.52
X80.5Y-138.62
X80.5Y-141.72
X80.5Y-144.82
X80.5Y-147.92
X80.5Y-151.02
X80.679Y-153.44
X81.1Y-153.85
X83.725Y-153.85
X84.126Y-152.57
X84.15Y-153.5
X84.7Y-155.53
X84.7Y-157.1
X84.729Y-113.8
X84.739Y-30.1
X84.739Y-33.2
X84.739Y-36.3
X84.739Y-39.4
X84.739Y-42.5
X84.739Y-45.6
X84.739Y-48.7
X84.739Y-51.8
X84.739Y-54.9
X84.739Y-58.0
X84.739Y-61.1
X84.739Y-64.2
X84.739Y-67.3
X84.739Y-70.4
X84.739Y-73.5
X84.739Y-76.6
X84.739Y-79.7
X84.739Y-82.8
X84.739Y-85.9
X84.739Y-89.0
X84.739Y-92.1
X84.739Y-95.2
X84.739Y-98.3
X84.739Y-101.4
X84.739Y-104.5
X84.739Y-107.6
X84.739Y-110.7
X84.739Y-116.9
X84.739Y-120.0
X84.739Y-123.1
X84.739Y-126.2
X84.739Y-129.3
X84.739Y-132.4
X84.739Y-135.5
X84.739Y-138.6
X84.739Y-141.7
X84.739Y-144.8
X84.739Y-147.9
X84.739Y-151.0
X84.75Y-153.6
X85.1Y-157.7
X85.45Y-153.6
X85.5Y-156.1
X85.876Y-155.53
X85.9Y-30.08
X85.9Y-33.18
X85.9Y-36.28
X85.9Y-39.38
X85.9Y-42.48
X85.9Y-45.58
X85.9Y-48.68
X85.9Y-51.78
X85.9Y-54.88
X85.9Y-57.98
X85.9Y-61.08
X85.9Y-64.18
X85.9Y-67.28
X85.9Y-70.38
X85.9Y-73.48
X85.9Y-76.58
X85.9Y-79.68
X85.9Y-82.78
X85.9Y-85.88
X85.9Y-88.98
X85.9Y-92.08
X85.9Y-95.18
X85.9Y-98.28
X85.9Y-101.38
X85.9Y-104.48
X85.9Y-107.58
X85.9Y-110.68
X85.9Y-113.78
X85.9Y-116.88
X85.9Y-119.98
X85.9Y-123.08
X85.9Y-126.18
X85.9Y-129.28
X85.9Y-132.38
X85.9Y-135.48
X85.9Y-138.58
X85.9Y-141.68
X85.9Y-144.78
X85.9Y-147.88
X85.9Y-150.98
X85.9Y-156.7
X86.35Y-153.7
X86.54Y-27.7
X86.54Y-29.1
X86.54Y-133.2
X86.54Y-134.7
X86.54Y-80.5
X86.54Y-82.0
X89.06Y-27.7
X89.06Y-29.1
X89.06Y-80.5
X89.06Y-82.0
X89.06Y-133.2
X89.06Y-134.7
X89.25Y-153.7
X89.9Y-155.5
X89.9Y-156.7
X90.129Y-141.7
X90.129Y-147.9
X90.139Y-30.1
X90.139Y-33.2
X90.139Y-36.3
X90.139Y-39.4
X90.139Y-42.5
X90.139Y-45.6
X90.139Y-48.7
X90.139Y-51.8
X90.139Y-54.9
X90.139Y-58.0
X90.139Y-61.1
X90.139Y-64.2
X90.139Y-67.3
X90.139Y-70.4
X90.139Y-73.5
X90.139Y-76.6
X90.139Y-79.7
X90.139Y-82.8
X90.139Y-85.9
X90.139Y-89.0
X90.139Y-92.1
X90.139Y-95.2
X90.139Y-98.3
X90.139Y-101.4
X90.139Y-104.5
X90.139Y-107.6
X90.139Y-110.7
X90.139Y-113.8
X90.139Y-116.9
X90.139Y-120.0
X90.139Y-123.1
X90.139Y-126.2
X90.139Y-129.3
X90.139Y-132.4
X90.139Y-135.5
X90.139Y-138.6
X90.139Y-144.8
X90.139Y-151.0
X90.153Y-153.626
X90.3Y-152.8
X90.3Y-156.1
X90.85Y-153.65
X90.9Y-152.6
X91.1Y-157.7
X91.3Y-30.12
X91.3Y-33.22
X91.3Y-36.32
X91.3Y-39.42
X91.3Y-42.52
X91.3Y-45.62
X91.3Y-48.72
X91.3Y-51.82
X91.3Y-54.92
X91.3Y-58.02
X91.3Y-61.12
X91.3Y-64.22
X91.3Y-67.32
X91.3Y-70.42
X91.3Y-73.52
X91.3Y-76.62
X91.3Y-79.72
X91.3Y-82.82
X91.3Y-85.92
X91.3Y-89.02
X91.3Y-92.12
X91.3Y-95.22
X91.3Y-98.32
X91.3Y-101.42
X91.3Y-104.52
X91.3Y-107.62
X91.3Y-110.72
X91.3Y-113.82
X91.3Y-116.92
X91.3Y-120.02
X91.3Y-123.12
X91.3Y-126.22
X91.3Y-129.32
X91.3Y-132.42
X91.3Y-135.52
X91.3Y-138.62
X91.3Y-141.72
X91.3Y-144.82
X91.3Y-147.92
X91.3Y-151.02
X91.479Y-153.44
X91.9Y-153.85
X94.525Y-153.85
X94.926Y-152.57
X94.95Y-153.5
X95.529Y-113.8
X95.539Y-30.1
X95.539Y-33.2
X95.539Y-36.3
X95.539Y-39.4
X95.539Y-42.5
X95.539Y-45.6
X95.539Y-48.7
X95.539Y-51.8
X95.539Y-54.9
X95.539Y-58.0
X95.539Y-61.1
X95.539Y-64.2
X95.539Y-67.3
X95.539Y-70.4
X95.539Y-73.5
X95.539Y-76.6
X95.539Y-79.7
X95.539Y-82.8
X95.539Y-85.9
X95.539Y-89.0
X95.539Y-92.1
X95.539Y-95.2
X95.539Y-98.3
X95.539Y-101.4
X95.539Y-104.5
X95.539Y-107.6
X95.539Y-110.7
X95.539Y-116.9
X95.539Y-120.0
X95.539Y-123.1
X95.539Y-126.2
X95.539Y-129.3
X95.539Y-132.4
X95.539Y-135.5
X95.539Y-138.6
X95.539Y-141.7
X95.539Y-144.8
X95.539Y-147.9
X95.539Y-151.0
X95.55Y-153.6
X95.9Y-157.7
X96.25Y-153.6
X96.7Y-30.08
X96.7Y-33.18
X96.7Y-36.28
X96.7Y-39.38
X96.7Y-42.48
X96.7Y-45.58
X96.7Y-48.68
X96.7Y-51.78
X96.7Y-54.88
X96.7Y-57.98
X96.7Y-61.08
X96.7Y-64.18
X96.7Y-67.28
X96.7Y-70.38
X96.7Y-73.48
X96.7Y-76.58
X96.7Y-79.68
X96.7Y-82.78
X96.7Y-85.88
X96.7Y-88.98
X96.7Y-92.08
X96.7Y-95.18
X96.7Y-98.28
X96.7Y-101.38
X96.7Y-104.48
X96.7Y-107.58
X96.7Y-110.68
X96.7Y-113.78
X96.7Y-116.88
X96.7Y-119.98
X96.7Y-123.08
X96.7Y-126.18
X96.7Y-129.28
X96.7Y-132.38
X96.7Y-135.48
X96.7Y-138.58
X96.7Y-141.68
X96.7Y-144.78
X96.7Y-147.88
X96.7Y-150.98
X97.0Y-156.1
X97.15Y-153.7
X97.34Y-27.7
X97.34Y-29.1
X97.34Y-133.2
X97.34Y-134.7
X97.34Y-80.5
X97.34Y-82.0
X99.86Y-27.7
X99.86Y-29.1
X99.86Y-80.5
X99.86Y-82.0
X99.86Y-133.2
X99.86Y-134.7
X100.05Y-153.7
X100.7Y-155.5
X100.7Y-156.7
X100.929Y-141.7
X100.929Y-147.9
X100.939Y-30.1
X100.939Y-33.2
X100.939Y-36.3
X100.939Y-39.4
X100.939Y-42.5
X100.939Y-45.6
X100.939Y-48.7
X100.939Y-51.8
X100.939Y-54.9
X100.939Y-58.0
X100.939Y-61.1
X100.939Y-64.2
X100.939Y-67.3
X100.939Y-70.4
X100.939Y-73.5
X100.939Y-76.6
X100.939Y-79.7
X100.939Y-82.8
X100.939Y-85.9
X100.939Y-89.0
X100.939Y-92.1
X100.939Y-95.2
X100.939Y-98.3
X100.939Y-101.4
X100.939Y-104.5
X100.939Y-107.6
X100.939Y-110.7
X100.939Y-113.8
X100.939Y-116.9
X100.939Y-120.0
X100.939Y-123.1
X100.939Y-126.2
X100.939Y-129.3
X100.939Y-132.4
X100.939Y-135.5
X100.939Y-138.6
X100.939Y-144.8
X100.939Y-151.0
X100.953Y-153.626
X101.1Y-152.8
X101.1Y-156.1
X101.5Y-155.5
X101.5Y-157.1
X101.65Y-153.65
X101.7Y-152.6
X101.9Y-157.7
X102.1Y-30.12
X102.1Y-33.22
X102.1Y-36.32
X102.1Y-39.42
X102.1Y-42.52
X102.1Y-45.62
X102.1Y-48.72
X102.1Y-51.82
X102.1Y-54.92
X102.1Y-58.02
X102.1Y-61.12
X102.1Y-64.22
X102.1Y-67.32
X102.1Y-70.42
X102.1Y-73.52
X102.1Y-76.62
X102.1Y-79.72
X102.1Y-82.82
X102.1Y-85.92
X102.1Y-89.02
X102.1Y-92.12
X102.1Y-95.22
X102.1Y-98.32
X102.1Y-101.42
X102.1Y-104.52
X102.1Y-107.62
X102.1Y-110.72
X102.1Y-113.82
X102.1Y-116.92
X102.1Y-120.02
X102.1Y-123.12
X102.1Y-126.22
X102.1Y-129.32
X102.1Y-132.42
X102.1Y-135.52
X102.1Y-138.62
X102.1Y-141.72
X102.1Y-144.82
X102.1Y-147.92
X102.1Y-151.02
X102.279Y-153.44
X102.7Y-153.85
X103.01Y-156.1
X105.325Y-153.85
X105.51Y-156.7
X105.726Y-152.57
X105.75Y-153.5
X106.3Y-155.53
X106.3Y-157.1
X106.329Y-113.8
X106.339Y-30.1
X106.339Y-33.2
X106.339Y-36.3
X106.339Y-39.4
X106.339Y-42.5
X106.339Y-45.6
X106.339Y-48.7
X106.339Y-51.8
X106.339Y-54.9
X106.339Y-58.0
X106.339Y-61.1
X106.339Y-64.2
X106.339Y-67.3
X106.339Y-70.4
X106.339Y-73.5
X106.339Y-76.6
X106.339Y-79.7
X106.339Y-82.8
X106.339Y-85.9
X106.339Y-89.0
X106.339Y-92.1
X106.339Y-95.2
X106.339Y-98.3
X106.339Y-101.4
X106.339Y-104.5
X106.339Y-107.6
X106.339Y-110.7
X106.339Y-116.9
X106.339Y-120.0
X106.339Y-123.1
X106.339Y-126.2
X106.339Y-129.3
X106.339Y-132.4
X106.339Y-135.5
X106.339Y-138.6
X106.339Y-141.7
X106.339Y-144.8
X106.339Y-147.9
X106.339Y-151.0
X106.35Y-153.6
X106.7Y-157.7
X107.05Y-153.6
X107.1Y-155.53
X107.1Y-156.7
X107.5Y-30.08
X107.5Y-33.18
X107.5Y-36.28
X107.5Y-39.38
X107.5Y-42.48
X107.5Y-45.58
X107.5Y-48.68
X107.5Y-51.78
X107.5Y-54.88
X107.5Y-57.98
X107.5Y-61.08
X107.5Y-64.18
X107.5Y-67.28
X107.5Y-70.38
X107.5Y-73.48
X107.5Y-76.58
X107.5Y-79.68
X107.5Y-82.78
X107.5Y-85.88
X107.5Y-88.98
X107.5Y-92.08
X107.5Y-95.18
X107.5Y-98.28
X107.5Y-101.38
X107.5Y-104.48
X107.5Y-107.58
X107.5Y-110.68
X107.5Y-113.78
X107.5Y-116.88
X107.5Y-119.98
X107.5Y-123.08
X107.5Y-126.18
X107.5Y-129.28
X107.5Y-132.38
X107.5Y-135.48
X107.5Y-138.58
X107.5Y-141.68
X107.5Y-144.78
X107.5Y-147.88
X107.5Y-150.98
X107.5Y-156.1
X107.95Y-153.7
X108.11Y-157.1
X108.14Y-27.7
X108.14Y-29.1
X108.14Y-133.2
X108.14Y-134.7
X108.14Y-80.5
X108.14Y-82.0
X110.61Y-157.7
X110.66Y-27.7
X110.66Y-29.1
X110.66Y-80.5
X110.66Y-82.0
X110.66Y-133.2
X110.66Y-134.7
X110.85Y-153.7
X111.5Y-155.5
X111.5Y-156.7
X111.729Y-141.7
X111.729Y-147.9
X111.739Y-30.1
X111.739Y-33.2
X111.739Y-36.3
X111.739Y-39.4
X111.739Y-42.5
X111.739Y-45.6
X111.739Y-48.7
X111.739Y-51.8
X111.739Y-54.9
X111.739Y-58.0
X111.739Y-61.1
X111.739Y-64.2
X111.739Y-67.3
X111.739Y-70.4
X111.739Y-73.5
X111.739Y-76.6
X111.739Y-79.7
X111.739Y-82.8
X111.739Y-85.9
X111.739Y-89.0
X111.739Y-92.1
X111.739Y-95.2
X111.739Y-98.3
X111.739Y-101.4
X111.739Y-104.5
X111.739Y-107.6
X111.739Y-110.7
X111.739Y-113.8
X111.739Y-116.9
X111.739Y-120.0
X111.739Y-123.1
X111.739Y-126.2
X111.739Y-129.3
X111.739Y-132.4
X111.739Y-135.5
X111.739Y-138.6
X111.739Y-144.8
X111.739Y-151.0
X111.753Y-153.626
X111.9Y-152.8
X111.9Y-156.1
X112.3Y-155.5
X112.3Y-157.1
X112.45Y-153.65
X112.5Y-152.6
X112.7Y-157.7
X112.9Y-30.12
X112.9Y-33.22
X112.9Y-36.32
X112.9Y-39.42
X112.9Y-42.52
X112.9Y-45.62
X112.9Y-48.72
X112.9Y-51.82
X112.9Y-54.92
X112.9Y-58.02
X112.9Y-61.12
X112.9Y-64.22
X112.9Y-67.32
X112.9Y-70.42
X112.9Y-73.52
X112.9Y-76.62
X112.9Y-79.72
X112.9Y-82.82
X112.9Y-85.92
X112.9Y-89.02
X112.9Y-92.12
X112.9Y-95.22
X112.9Y-98.32
X112.9Y-101.42
X112.9Y-104.52
X112.9Y-107.62
X112.9Y-110.72
X112.9Y-113.82
X112.9Y-116.92
X112.9Y-120.02
X112.9Y-123.12
X112.9Y-126.22
X112.9Y-129.32
X112.9Y-132.42
X112.9Y-135.52
X112.9Y-138.62
X112.9Y-141.72
X112.9Y-144.82
X112.9Y-147.92
X112.9Y-151.02
X113.079Y-153.44
X113.5Y-153.85
X116.125Y-153.85
X116.526Y-152.57
X116.55Y-153.5
X117.1Y-155.53
X117.1Y-157.1
X117.129Y-113.8
X117.139Y-30.1
X117.139Y-33.2
X117.139Y-36.3
X117.139Y-39.4
X117.139Y-42.5
X117.139Y-45.6
X117.139Y-48.7
X117.139Y-51.8
X117.139Y-54.9
X117.139Y-58.0
X117.139Y-61.1
X117.139Y-64.2
X117.139Y-67.3
X117.139Y-70.4
X117.139Y-73.5
X117.139Y-76.6
X117.139Y-79.7
X117.139Y-82.8
X117.139Y-85.9
X117.139Y-89.0
X117.139Y-92.1
X117.139Y-95.2
X117.139Y-98.3
X117.139Y-101.4
X117.139Y-104.5
X117.139Y-107.6
X117.139Y-110.7
X117.139Y-116.9
X117.139Y-120.0
X117.139Y-123.1
X117.139Y-126.2
X117.139Y-129.3
X117.139Y-132.4
X117.139Y-135.5
X117.139Y-138.6
X117.139Y-141.7
X117.139Y-144.8
X117.139Y-147.9
X117.139Y-151.0
X117.15Y-153.6
X117.5Y-157.7
X117.85Y-153.6
X117.9Y-155.5
X117.9Y-156.7
X118.3Y-30.08
X118.3Y-33.18
X118.3Y-36.28
X118.3Y-39.38
X118.3Y-42.48
X118.3Y-45.58
X118.3Y-48.68
X118.3Y-51.78
X118.3Y-54.88
X118.3Y-57.98
X118.3Y-61.08
X118.3Y-64.18
X118.3Y-67.28
X118.3Y-70.38
X118.3Y-73.48
X118.3Y-76.58
X118.3Y-79.68
X118.3Y-82.78
X118.3Y-85.88
X118.3Y-88.98
X118.3Y-92.08
X118.3Y-95.18
X118.3Y-98.28
X118.3Y-101.38
X118.3Y-104.48
X118.3Y-107.58
X118.3Y-110.68
X118.3Y-113.78
X118.3Y-116.88
X118.3Y-119.98
X118.3Y-123.08
X118.3Y-126.18
X118.3Y-129.28
X118.3Y-132.38
X118.3Y-135.48
X118.3Y-138.58
X118.3Y-141.68
X118.3Y-144.78
X118.3Y-147.88
X118.3Y-150.98
X118.3Y-156.1
X118.75Y-153.7
X118.94Y-27.7
X118.94Y-29.1
X118.94Y-133.2
X118.94Y-134.7
X118.94Y-80.5
X118.94Y-82.0
X121.46Y-27.7
X121.46Y-29.1
X121.46Y-80.5
X121.46Y-82.0
X121.46Y-133.2
X121.46Y-134.7
X121.65Y-153.7
X122.2Y-155.5
X122.2Y-156.7
X122.529Y-141.7
X122.529Y-147.9
X122.539Y-30.1
X122.539Y-33.2
X122.539Y-36.3
X122.539Y-39.4
X122.539Y-42.5
X122.539Y-45.6
X122.539Y-48.7
X122.539Y-51.8
X122.539Y-54.9
X122.539Y-58.0
X122.539Y-61.1
X122.539Y-64.2
X122.539Y-67.3
X122.539Y-70.4
X122.539Y-73.5
X122.539Y-76.6
X122.539Y-79.7
X122.539Y-82.8
X122.539Y-85.9
X122.539Y-89.0
X122.539Y-92.1
X122.539Y-95.2
X122.539Y-98.3
X122.539Y-101.4
X122.539Y-104.5
X122.539Y-107.6
X122.539Y-110.7
X122.539Y-113.8
X122.539Y-116.9
X122.539Y-120.0
X122.539Y-123.1
X122.539Y-126.2
X122.539Y-129.3
X122.539Y-132.4
X122.539Y-135.5
X122.539Y-138.6
X122.539Y-144.8
X122.539Y-151.0
X122.553Y-153.626
X122.6Y-156.1
X122.7Y-152.8
X123.0Y-155.5
X123.0Y-157.1
X123.25Y-153.65
X123.3Y-152.6
X123.5Y-157.7
X123.7Y-30.12
X123.7Y-33.22
X123.7Y-36.32
X123.7Y-39.42
X123.7Y-42.52
X123.7Y-45.62
X123.7Y-48.72
X123.7Y-51.82
X123.7Y-54.92
X123.7Y-58.02
X123.7Y-61.12
X123.7Y-64.22
X123.7Y-67.32
X123.7Y-70.42
X123.7Y-73.52
X123.7Y-76.62
X123.7Y-79.72
X123.7Y-82.82
X123.7Y-85.92
X123.7Y-89.02
X123.7Y-92.12
X123.7Y-95.22
X123.7Y-98.32
X123.7Y-101.42
X123.7Y-104.52
X123.7Y-107.62
X123.7Y-110.72
X123.7Y-113.82
X123.7Y-116.92
X123.7Y-120.02
X123.7Y-123.12
X123.7Y-126.22
X123.7Y-129.32
X123.7Y-132.42
X123.7Y-135.52
X123.7Y-138.62
X123.7Y-141.72
X123.7Y-144.82
X123.7Y-147.92
X123.7Y-151.02
X123.879Y-153.44
X124.3Y-153.85
X126.925Y-153.85
X127.326Y-152.57
X127.35Y-153.5
X127.9Y-155.53
X127.9Y-157.1
X127.929Y-113.8
X127.939Y-30.1
X127.939Y-33.2
X127.939Y-36.3
X127.939Y-39.4
X127.939Y-42.5
X127.939Y-45.6
X127.939Y-48.7
X127.939Y-51.8
X127.939Y-54.9
X127.939Y-58.0
X127.939Y-61.1
X127.939Y-64.2
X127.939Y-67.3
X127.939Y-70.4
X127.939Y-73.5
X127.939Y-76.6
X127.939Y-79.7
X127.939Y-82.8
X127.939Y-85.9
X127.939Y-89.0
X127.939Y-92.1
X127.939Y-95.2
X127.939Y-98.3
X127.939Y-101.4
X127.939Y-104.5
X127.939Y-107.6
X127.939Y-110.7
X127.939Y-116.9
X127.939Y-120.0
X127.939Y-123.1
X127.939Y-126.2
X127.939Y-129.3
X127.939Y-132.4
X127.939Y-135.5
X127.939Y-138.6
X127.939Y-141.7
X127.939Y-144.8
X127.939Y-147.9
X127.939Y-151.0
X127.95Y-153.6
X128.3Y-157.7
X128.65Y-153.6
X128.7Y-155.53
X128.7Y-156.7
X129.1Y-30.08
X129.1Y-33.18
X129.1Y-36.28
X129.1Y-39.38
X129.1Y-42.48
X129.1Y-45.58
X129.1Y-48.68
X129.1Y-51.78
X129.1Y-54.88
X129.1Y-57.98
X129.1Y-61.08
X129.1Y-64.18
X129.1Y-67.28
X129.1Y-70.38
X129.1Y-73.48
X129.1Y-76.58
X129.1Y-79.68
X129.1Y-82.78
X129.1Y-85.88
X129.1Y-88.98
X129.1Y-92.08
X129.1Y-95.18
X129.1Y-98.28
X129.1Y-101.38
X129.1Y-104.48
X129.1Y-107.58
X129.1Y-110.68
X129.1Y-113.78
X129.1Y-116.88
X129.1Y-119.98
X129.1Y-123.08
X129.1Y-126.18
X129.1Y-129.28
X129.1Y-132.38
X129.1Y-135.48
X129.1Y-138.58
X129.1Y-141.68
X129.1Y-144.78
X129.1Y-147.88
X129.1Y-150.98
X129.1Y-156.1
X129.55Y-153.7
X129.74Y-27.7
X129.74Y-29.1
X129.74Y-133.2
X129.74Y-134.7
X129.74Y-80.5
X129.74Y-82.0
X130.9Y-157.7
X131.4Y-156.1
X132.26Y-27.7
X132.26Y-29.1
X132.26Y-80.5
X132.26Y-82.0
X132.26Y-133.2
X132.26Y-134.7
X132.45Y-153.7
X133.329Y-141.7
X133.329Y-147.9
X133.339Y-30.1
X133.339Y-33.2
X133.339Y-36.3
X133.339Y-39.4
X133.339Y-42.5
X133.339Y-45.6
X133.339Y-48.7
X133.339Y-51.8
X133.339Y-54.9
X133.339Y-58.0
X133.339Y-61.1
X133.339Y-64.2
X133.339Y-67.3
X133.339Y-70.4
X133.339Y-73.5
X133.339Y-76.6
X133.339Y-79.7
X133.339Y-82.8
X133.339Y-85.9
X133.339Y-89.0
X133.339Y-92.1
X133.339Y-95.2
X133.339Y-98.3
X133.339Y-101.4
X133.339Y-104.5
X133.339Y-107.6
X133.339Y-110.7
X133.339Y-113.8
X133.339Y-116.9
X133.339Y-120.0
X133.339Y-123.1
X133.339Y-126.2
X133.339Y-129.3
X133.339Y-132.4
X133.339Y-135.5
X133.339Y-138.6
X133.339Y-144.8
X133.339Y-151.0
X133.353Y-153.626
X133.5Y-152.8
X134.05Y-153.65
X134.1Y-152.6
X134.5Y-30.12
X134.5Y-33.22
X134.5Y-36.32
X134.5Y-39.42
X134.5Y-42.52
X134.5Y-45.62
X134.5Y-48.72
X134.5Y-51.82
X134.5Y-54.92
X134.5Y-58.02
X134.5Y-61.12
X134.5Y-64.22
X134.5Y-67.32
X134.5Y-70.42
X134.5Y-73.52
X134.5Y-76.62
X134.5Y-79.72
X134.5Y-82.82
X134.5Y-85.92
X134.5Y-89.02
X134.5Y-92.12
X134.5Y-95.22
X134.5Y-98.32
X134.5Y-101.42
X134.5Y-104.52
X134.5Y-107.62
X134.5Y-110.72
X134.5Y-113.82
X134.5Y-116.92
X134.5Y-120.02
X134.5Y-123.12
X134.5Y-126.22
X134.5Y-129.32
X134.5Y-132.42
X134.5Y-135.52
X134.5Y-138.62
X134.5Y-141.72
X134.5Y-144.82
X134.5Y-147.92
X134.5Y-151.02
X134.679Y-153.44
X135.1Y-153.85
T2
X62.59Y-160.0
X65.13Y-160.0
X67.67Y-160.0
X70.21Y-160.0
X103.0Y-160.0
X105.54Y-160.0
X108.08Y-160.0
X110.62Y-160.0
M30
