M48
; DRILL file {KiCad 9.0.3} date 2025-08-08T13:36:58-0400
; FORMAT={-:-/ absolute / metric / decimal}
; #@! TF.CreationDate,2025-08-08T13:36:58-04:00
; #@! TF.GenerationSoftware,Kicad,Pcbnew,9.0.3
; #@! TF.FileFunction,Plated,1,2,PTH
FMAT,2
METRIC
; #@! TA.AperFunction,Plated,PTH,ViaDrill
T1C0.200
; #@! TA.AperFunction,Plated,PTH,ComponentDrill
T2C1.000
%
G90
G05
T1
X51.325Y-153.85
X51.425Y-31.65
X51.425Y-34.75
X51.425Y-37.85
X51.425Y-40.95
X51.425Y-44.05
X51.425Y-47.15
X51.425Y-50.25
X51.425Y-53.35
X51.425Y-56.45
X51.425Y-59.55
X51.425Y-62.65
X51.425Y-65.75
X51.425Y-68.85
X51.425Y-71.95
X51.425Y-75.05
X51.425Y-78.15
X51.425Y-84.35
X51.425Y-87.45
X51.425Y-90.55
X51.425Y-93.65
X51.425Y-96.75
X51.425Y-99.85
X51.425Y-102.95
X51.425Y-106.05
X51.425Y-109.15
X51.425Y-112.25
X51.425Y-115.35
X51.425Y-118.45
X51.425Y-121.55
X51.425Y-124.65
X51.425Y-127.75
X51.425Y-130.85
X51.425Y-137.05
X51.425Y-140.15
X51.425Y-143.25
X51.425Y-146.35
X51.425Y-149.45
X51.726Y-152.57
X51.75Y-153.5
X52.35Y-153.6
X52.961Y-31.65
X52.961Y-34.75
X52.961Y-37.85
X52.961Y-40.95
X52.961Y-44.05
X52.961Y-47.15
X52.961Y-50.25
X52.961Y-53.35
X52.961Y-56.45
X52.961Y-59.55
X52.961Y-62.65
X52.961Y-65.75
X52.961Y-68.85
X52.961Y-71.95
X52.961Y-75.05
X52.961Y-78.15
X52.961Y-81.25
X52.961Y-84.35
X52.961Y-87.45
X52.961Y-90.55
X52.961Y-93.65
X52.961Y-96.75
X52.961Y-99.85
X52.961Y-102.95
X52.961Y-106.05
X52.961Y-109.15
X52.961Y-112.25
X52.961Y-115.35
X52.961Y-118.45
X52.961Y-121.55
X52.961Y-124.65
X52.961Y-127.75
X52.961Y-130.85
X52.961Y-133.95
X52.961Y-137.05
X52.961Y-140.15
X52.961Y-143.25
X52.961Y-146.35
X52.961Y-149.45
X53.05Y-153.6
X53.127Y-152.41
X53.95Y-153.7
X54.1Y-27.85
X54.1Y-81.25
X54.1Y-133.95
X54.14Y-29.25
X54.14Y-32.35
X54.14Y-35.45
X54.14Y-38.55
X54.14Y-41.65
X54.14Y-44.75
X54.14Y-47.85
X54.14Y-50.95
X54.14Y-54.05
X54.14Y-57.15
X54.14Y-60.25
X54.14Y-63.35
X54.14Y-66.45
X54.14Y-69.55
X54.14Y-72.65
X54.14Y-75.75
X54.14Y-78.85
X54.14Y-81.95
X54.14Y-85.05
X54.14Y-88.15
X54.14Y-91.25
X54.14Y-94.35
X54.14Y-97.45
X54.14Y-100.55
X54.14Y-103.65
X54.14Y-106.75
X54.14Y-109.85
X54.14Y-112.95
X54.14Y-116.05
X54.14Y-119.15
X54.14Y-122.25
X54.14Y-125.35
X54.14Y-128.45
X54.14Y-131.55
X54.14Y-134.65
X54.14Y-137.75
X54.14Y-140.85
X54.14Y-143.95
X54.14Y-147.05
X54.14Y-150.15
X55.8Y-157.7
X55.84Y-156.1
X56.7Y-27.85
X56.7Y-28.6
X56.75Y-81.25
X56.75Y-133.95
X56.85Y-153.7
X57.3Y-156.7
X57.5Y-155.4
X57.7Y-28.55
X57.7Y-31.65
X57.7Y-34.75
X57.7Y-37.85
X57.7Y-40.95
X57.7Y-44.05
X57.7Y-47.15
X57.7Y-50.25
X57.7Y-53.35
X57.7Y-56.45
X57.7Y-59.55
X57.7Y-62.65
X57.7Y-65.75
X57.7Y-68.85
X57.7Y-71.95
X57.7Y-75.05
X57.7Y-78.15
X57.7Y-81.25
X57.7Y-84.35
X57.7Y-87.45
X57.7Y-90.55
X57.7Y-93.65
X57.7Y-96.75
X57.7Y-99.85
X57.7Y-102.95
X57.7Y-106.05
X57.7Y-109.15
X57.7Y-112.25
X57.7Y-115.35
X57.7Y-118.45
X57.7Y-121.55
X57.7Y-124.65
X57.7Y-127.75
X57.7Y-130.85
X57.7Y-133.95
X57.7Y-137.05
X57.7Y-140.15
X57.7Y-143.25
X57.7Y-146.35
X57.7Y-149.45
X57.753Y-153.626
X57.8Y-156.1
X57.875Y-152.875
X58.3Y-155.4
X58.3Y-157.1
X58.45Y-153.65
X58.475Y-28.543
X58.475Y-31.643
X58.475Y-34.743
X58.475Y-37.843
X58.475Y-40.943
X58.475Y-44.043
X58.475Y-47.143
X58.475Y-50.243
X58.475Y-53.343
X58.475Y-56.443
X58.475Y-59.543
X58.475Y-62.643
X58.475Y-65.743
X58.475Y-68.843
X58.475Y-71.943
X58.475Y-75.043
X58.475Y-78.143
X58.475Y-81.243
X58.475Y-84.343
X58.475Y-87.443
X58.475Y-90.543
X58.475Y-93.643
X58.475Y-96.743
X58.475Y-99.843
X58.475Y-102.943
X58.475Y-106.043
X58.475Y-109.143
X58.475Y-112.243
X58.475Y-115.343
X58.475Y-118.443
X58.475Y-121.543
X58.475Y-124.643
X58.475Y-127.743
X58.475Y-130.843
X58.475Y-133.943
X58.475Y-137.043
X58.475Y-140.143
X58.475Y-143.243
X58.475Y-146.343
X58.475Y-149.443
X58.5Y-152.6
X58.7Y-157.7
X59.079Y-153.44
X59.1Y-31.63
X59.1Y-34.73
X59.1Y-37.83
X59.1Y-40.93
X59.1Y-44.03
X59.1Y-47.13
X59.1Y-50.23
X59.1Y-53.33
X59.1Y-56.43
X59.1Y-59.53
X59.1Y-62.63
X59.1Y-65.73
X59.1Y-68.83
X59.1Y-71.93
X59.1Y-75.03
X59.1Y-78.13
X59.1Y-84.33
X59.1Y-87.43
X59.1Y-90.53
X59.1Y-93.63
X59.1Y-96.73
X59.1Y-99.83
X59.1Y-102.93
X59.1Y-106.03
X59.1Y-109.13
X59.1Y-112.23
X59.1Y-115.33
X59.1Y-118.43
X59.1Y-121.53
X59.1Y-124.63
X59.1Y-127.73
X59.1Y-130.83
X59.1Y-137.03
X59.1Y-140.13
X59.1Y-143.23
X59.1Y-146.33
X59.1Y-149.43
X59.5Y-153.85
X59.54Y-80.3
X59.54Y-133.15
X59.54Y-151.85
X62.125Y-153.85
X62.225Y-31.65
X62.225Y-34.75
X62.225Y-37.85
X62.225Y-40.95
X62.225Y-44.05
X62.225Y-47.15
X62.225Y-50.25
X62.225Y-53.35
X62.225Y-56.45
X62.225Y-59.55
X62.225Y-62.65
X62.225Y-65.75
X62.225Y-68.85
X62.225Y-71.95
X62.225Y-75.05
X62.225Y-78.15
X62.225Y-84.35
X62.225Y-87.45
X62.225Y-90.55
X62.225Y-93.65
X62.225Y-96.75
X62.225Y-99.85
X62.225Y-102.95
X62.225Y-106.05
X62.225Y-109.15
X62.225Y-112.25
X62.225Y-115.35
X62.225Y-118.45
X62.225Y-121.55
X62.225Y-124.65
X62.225Y-127.75
X62.225Y-130.85
X62.225Y-137.05
X62.225Y-140.15
X62.225Y-143.25
X62.225Y-146.35
X62.225Y-149.45
X62.526Y-152.57
X62.55Y-153.5
X62.6Y-156.1
X63.1Y-155.53
X63.15Y-153.6
X63.16Y-157.1
X63.6Y-157.7
X63.761Y-31.65
X63.761Y-34.75
X63.761Y-37.85
X63.761Y-40.95
X63.761Y-44.05
X63.761Y-47.15
X63.761Y-50.25
X63.761Y-53.35
X63.761Y-56.45
X63.761Y-59.55
X63.761Y-62.65
X63.761Y-65.75
X63.761Y-68.85
X63.761Y-71.95
X63.761Y-75.05
X63.761Y-78.15
X63.761Y-81.25
X63.761Y-84.35
X63.761Y-87.45
X63.761Y-90.55
X63.761Y-93.65
X63.761Y-96.75
X63.761Y-99.85
X63.761Y-102.95
X63.761Y-106.05
X63.761Y-109.15
X63.761Y-112.25
X63.761Y-115.35
X63.761Y-118.45
X63.761Y-121.55
X63.761Y-124.65
X63.761Y-127.75
X63.761Y-130.85
X63.761Y-133.95
X63.761Y-137.05
X63.761Y-140.15
X63.761Y-143.25
X63.761Y-146.35
X63.761Y-149.45
X63.85Y-153.6
X63.9Y-155.5
X63.9Y-156.7
X63.927Y-152.41
X64.3Y-156.1
X64.75Y-153.7
X64.9Y-27.85
X64.9Y-81.25
X64.9Y-133.95
X64.94Y-29.25
X64.94Y-32.35
X64.94Y-35.45
X64.94Y-38.55
X64.94Y-41.65
X64.94Y-44.75
X64.94Y-47.85
X64.94Y-50.95
X64.94Y-54.05
X64.94Y-57.15
X64.94Y-60.25
X64.94Y-63.35
X64.94Y-66.45
X64.94Y-69.55
X64.94Y-72.65
X64.94Y-75.75
X64.94Y-78.85
X64.94Y-81.95
X64.94Y-85.05
X64.94Y-88.15
X64.94Y-91.25
X64.94Y-94.35
X64.94Y-97.45
X64.94Y-100.55
X64.94Y-103.65
X64.94Y-106.75
X64.94Y-109.85
X64.94Y-112.95
X64.94Y-116.05
X64.94Y-119.15
X64.94Y-122.25
X64.94Y-125.35
X64.94Y-128.45
X64.94Y-131.55
X64.94Y-134.65
X64.94Y-137.75
X64.94Y-140.85
X64.94Y-143.95
X64.94Y-147.05
X64.94Y-150.15
X65.1Y-156.7
X67.5Y-27.85
X67.5Y-28.6
X67.55Y-81.25
X67.55Y-133.95
X67.65Y-153.7
X67.7Y-157.1
X68.3Y-155.5
X68.3Y-156.7
X68.5Y-28.55
X68.5Y-31.65
X68.5Y-34.75
X68.5Y-37.85
X68.5Y-40.95
X68.5Y-44.05
X68.5Y-47.15
X68.5Y-50.25
X68.5Y-53.35
X68.5Y-56.45
X68.5Y-59.55
X68.5Y-62.65
X68.5Y-65.75
X68.5Y-68.85
X68.5Y-71.95
X68.5Y-75.05
X68.5Y-78.15
X68.5Y-81.25
X68.5Y-84.35
X68.5Y-87.45
X68.5Y-90.55
X68.5Y-93.65
X68.5Y-96.75
X68.5Y-99.85
X68.5Y-102.95
X68.5Y-106.05
X68.5Y-109.15
X68.5Y-112.25
X68.5Y-115.35
X68.5Y-118.45
X68.5Y-121.55
X68.5Y-124.65
X68.5Y-127.75
X68.5Y-130.85
X68.5Y-133.95
X68.5Y-137.05
X68.5Y-140.15
X68.5Y-143.25
X68.5Y-146.35
X68.5Y-149.45
X68.553Y-153.626
X68.675Y-152.875
X68.7Y-156.1
X69.1Y-155.5
X69.1Y-157.1
X69.25Y-153.65
X69.275Y-28.543
X69.275Y-31.643
X69.275Y-34.743
X69.275Y-37.843
X69.275Y-40.943
X69.275Y-44.043
X69.275Y-47.143
X69.275Y-50.243
X69.275Y-53.343
X69.275Y-56.443
X69.275Y-59.543
X69.275Y-62.643
X69.275Y-65.743
X69.275Y-68.843
X69.275Y-71.943
X69.275Y-75.043
X69.275Y-78.143
X69.275Y-81.243
X69.275Y-84.343
X69.275Y-87.443
X69.275Y-90.543
X69.275Y-93.643
X69.275Y-96.743
X69.275Y-99.843
X69.275Y-102.943
X69.275Y-106.043
X69.275Y-109.143
X69.275Y-112.243
X69.275Y-115.343
X69.275Y-118.443
X69.275Y-121.543
X69.275Y-124.643
X69.275Y-127.743
X69.275Y-130.843
X69.275Y-133.943
X69.275Y-137.043
X69.275Y-140.143
X69.275Y-143.243
X69.275Y-146.343
X69.275Y-149.443
X69.3Y-152.6
X69.5Y-157.7
X69.879Y-153.44
X69.9Y-31.63
X69.9Y-34.73
X69.9Y-37.83
X69.9Y-40.93
X69.9Y-44.03
X69.9Y-47.13
X69.9Y-50.23
X69.9Y-53.33
X69.9Y-56.43
X69.9Y-59.53
X69.9Y-62.63
X69.9Y-65.73
X69.9Y-68.83
X69.9Y-71.93
X69.9Y-75.03
X69.9Y-78.13
X69.9Y-84.33
X69.9Y-87.43
X69.9Y-90.53
X69.9Y-93.63
X69.9Y-96.73
X69.9Y-99.83
X69.9Y-102.93
X69.9Y-106.03
X69.9Y-109.13
X69.9Y-112.23
X69.9Y-115.33
X69.9Y-118.43
X69.9Y-121.53
X69.9Y-124.63
X69.9Y-127.73
X69.9Y-130.83
X69.9Y-137.03
X69.9Y-140.13
X69.9Y-143.23
X69.9Y-146.33
X69.9Y-149.43
X70.2Y-157.7
X70.3Y-153.85
X70.34Y-80.3
X70.34Y-133.15
X70.34Y-151.85
X72.925Y-153.85
X73.025Y-31.65
X73.025Y-34.75
X73.025Y-37.85
X73.025Y-40.95
X73.025Y-44.05
X73.025Y-47.15
X73.025Y-50.25
X73.025Y-53.35
X73.025Y-56.45
X73.025Y-59.55
X73.025Y-62.65
X73.025Y-65.75
X73.025Y-68.85
X73.025Y-71.95
X73.025Y-75.05
X73.025Y-78.15
X73.025Y-84.35
X73.025Y-87.45
X73.025Y-90.55
X73.025Y-93.65
X73.025Y-96.75
X73.025Y-99.85
X73.025Y-102.95
X73.025Y-106.05
X73.025Y-109.15
X73.025Y-112.25
X73.025Y-115.35
X73.025Y-118.45
X73.025Y-121.55
X73.025Y-124.65
X73.025Y-127.75
X73.025Y-130.85
X73.025Y-137.05
X73.025Y-140.15
X73.025Y-143.25
X73.025Y-146.35
X73.025Y-149.45
X73.326Y-152.57
X73.35Y-153.5
X73.9Y-155.53
X73.9Y-157.1
X73.95Y-153.6
X74.3Y-157.7
X74.561Y-31.65
X74.561Y-34.75
X74.561Y-37.85
X74.561Y-40.95
X74.561Y-44.05
X74.561Y-47.15
X74.561Y-50.25
X74.561Y-53.35
X74.561Y-56.45
X74.561Y-59.55
X74.561Y-62.65
X74.561Y-65.75
X74.561Y-68.85
X74.561Y-71.95
X74.561Y-75.05
X74.561Y-78.15
X74.561Y-81.25
X74.561Y-84.35
X74.561Y-87.45
X74.561Y-90.55
X74.561Y-93.65
X74.561Y-96.75
X74.561Y-99.85
X74.561Y-102.95
X74.561Y-106.05
X74.561Y-109.15
X74.561Y-112.25
X74.561Y-115.35
X74.561Y-118.45
X74.561Y-121.55
X74.561Y-124.65
X74.561Y-127.75
X74.561Y-130.85
X74.561Y-133.95
X74.561Y-137.05
X74.561Y-140.15
X74.561Y-143.25
X74.561Y-146.35
X74.561Y-149.45
X74.65Y-153.6
X74.7Y-155.5
X74.7Y-156.7
X74.727Y-152.41
X75.1Y-156.1
X75.55Y-153.7
X75.7Y-27.85
X75.7Y-81.25
X75.7Y-133.95
X75.74Y-29.25
X75.74Y-32.35
X75.74Y-35.45
X75.74Y-38.55
X75.74Y-41.65
X75.74Y-44.75
X75.74Y-47.85
X75.74Y-50.95
X75.74Y-54.05
X75.74Y-57.15
X75.74Y-60.25
X75.74Y-63.35
X75.74Y-66.45
X75.74Y-69.55
X75.74Y-72.65
X75.74Y-75.75
X75.74Y-78.85
X75.74Y-81.95
X75.74Y-85.05
X75.74Y-88.15
X75.74Y-91.25
X75.74Y-94.35
X75.74Y-97.45
X75.74Y-100.55
X75.74Y-103.65
X75.74Y-106.75
X75.74Y-109.85
X75.74Y-112.95
X75.74Y-116.05
X75.74Y-119.15
X75.74Y-122.25
X75.74Y-125.35
X75.74Y-128.45
X75.74Y-131.55
X75.74Y-134.65
X75.74Y-137.75
X75.74Y-140.85
X75.74Y-143.95
X75.74Y-147.05
X75.74Y-150.15
X78.3Y-27.85
X78.3Y-28.6
X78.35Y-81.25
X78.35Y-133.95
X78.45Y-153.7
X79.1Y-155.5
X79.1Y-156.7
X79.3Y-28.55
X79.3Y-31.65
X79.3Y-34.75
X79.3Y-37.85
X79.3Y-40.95
X79.3Y-44.05
X79.3Y-47.15
X79.3Y-50.25
X79.3Y-53.35
X79.3Y-56.45
X79.3Y-59.55
X79.3Y-62.65
X79.3Y-65.75
X79.3Y-68.85
X79.3Y-71.95
X79.3Y-75.05
X79.3Y-78.15
X79.3Y-81.25
X79.3Y-84.35
X79.3Y-87.45
X79.3Y-90.55
X79.3Y-93.65
X79.3Y-96.75
X79.3Y-99.85
X79.3Y-102.95
X79.3Y-106.05
X79.3Y-109.15
X79.3Y-112.25
X79.3Y-115.35
X79.3Y-118.45
X79.3Y-121.55
X79.3Y-124.65
X79.3Y-127.75
X79.3Y-130.85
X79.3Y-133.95
X79.3Y-137.05
X79.3Y-140.15
X79.3Y-143.25
X79.3Y-146.35
X79.3Y-149.45
X79.353Y-153.626
X79.475Y-152.875
X79.5Y-156.1
X79.9Y-155.5
X79.9Y-157.1
X80.05Y-153.65
X80.075Y-28.543
X80.075Y-31.643
X80.075Y-34.743
X80.075Y-37.843
X80.075Y-40.943
X80.075Y-44.043
X80.075Y-47.143
X80.075Y-50.243
X80.075Y-53.343
X80.075Y-56.443
X80.075Y-59.543
X80.075Y-62.643
X80.075Y-65.743
X80.075Y-68.843
X80.075Y-71.943
X80.075Y-75.043
X80.075Y-78.143
X80.075Y-81.243
X80.075Y-84.343
X80.075Y-87.443
X80.075Y-90.543
X80.075Y-93.643
X80.075Y-96.743
X80.075Y-99.843
X80.075Y-102.943
X80.075Y-106.043
X80.075Y-109.143
X80.075Y-112.243
X80.075Y-115.343
X80.075Y-118.443
X80.075Y-121.543
X80.075Y-124.643
X80.075Y-127.743
X80.075Y-130.843
X80.075Y-133.943
X80.075Y-137.043
X80.075Y-140.143
X80.075Y-143.243
X80.075Y-146.343
X80.075Y-149.443
X80.1Y-152.6
X80.3Y-157.7
X80.679Y-153.44
X80.7Y-31.63
X80.7Y-34.73
X80.7Y-37.83
X80.7Y-40.93
X80.7Y-44.03
X80.7Y-47.13
X80.7Y-50.23
X80.7Y-53.33
X80.7Y-56.43
X80.7Y-59.53
X80.7Y-62.63
X80.7Y-65.73
X80.7Y-68.83
X80.7Y-71.93
X80.7Y-75.03
X80.7Y-78.13
X80.7Y-84.33
X80.7Y-87.43
X80.7Y-90.53
X80.7Y-93.63
X80.7Y-96.73
X80.7Y-99.83
X80.7Y-102.93
X80.7Y-106.03
X80.7Y-109.13
X80.7Y-112.23
X80.7Y-115.33
X80.7Y-118.43
X80.7Y-121.53
X80.7Y-124.63
X80.7Y-127.73
X80.7Y-130.83
X80.7Y-137.03
X80.7Y-140.13
X80.7Y-143.23
X80.7Y-146.33
X80.7Y-149.43
X81.1Y-153.85
X81.14Y-80.3
X81.14Y-133.15
X81.14Y-151.85
X83.725Y-153.85
X83.825Y-31.65
X83.825Y-34.75
X83.825Y-37.85
X83.825Y-40.95
X83.825Y-44.05
X83.825Y-47.15
X83.825Y-50.25
X83.825Y-53.35
X83.825Y-56.45
X83.825Y-59.55
X83.825Y-62.65
X83.825Y-65.75
X83.825Y-68.85
X83.825Y-71.95
X83.825Y-75.05
X83.825Y-78.15
X83.825Y-84.35
X83.825Y-87.45
X83.825Y-90.55
X83.825Y-93.65
X83.825Y-96.75
X83.825Y-99.85
X83.825Y-102.95
X83.825Y-106.05
X83.825Y-109.15
X83.825Y-112.25
X83.825Y-115.35
X83.825Y-118.45
X83.825Y-121.55
X83.825Y-124.65
X83.825Y-127.75
X83.825Y-130.85
X83.825Y-137.05
X83.825Y-140.15
X83.825Y-143.25
X83.825Y-146.35
X83.825Y-149.45
X84.126Y-152.57
X84.15Y-153.5
X84.7Y-155.53
X84.7Y-157.1
X84.75Y-153.6
X85.1Y-157.7
X85.361Y-31.65
X85.361Y-34.75
X85.361Y-37.85
X85.361Y-40.95
X85.361Y-44.05
X85.361Y-47.15
X85.361Y-50.25
X85.361Y-53.35
X85.361Y-56.45
X85.361Y-59.55
X85.361Y-62.65
X85.361Y-65.75
X85.361Y-68.85
X85.361Y-71.95
X85.361Y-75.05
X85.361Y-78.15
X85.361Y-81.25
X85.361Y-84.35
X85.361Y-87.45
X85.361Y-90.55
X85.361Y-93.65
X85.361Y-96.75
X85.361Y-99.85
X85.361Y-102.95
X85.361Y-106.05
X85.361Y-109.15
X85.361Y-112.25
X85.361Y-115.35
X85.361Y-118.45
X85.361Y-121.55
X85.361Y-124.65
X85.361Y-127.75
X85.361Y-130.85
X85.361Y-133.95
X85.361Y-137.05
X85.361Y-140.15
X85.361Y-143.25
X85.361Y-146.35
X85.361Y-149.45
X85.45Y-153.6
X85.5Y-156.1
X85.527Y-152.41
X86.35Y-153.7
X86.5Y-27.85
X86.5Y-81.25
X86.5Y-133.95
X86.54Y-29.25
X86.54Y-32.35
X86.54Y-35.45
X86.54Y-38.55
X86.54Y-41.65
X86.54Y-44.75
X86.54Y-47.85
X86.54Y-50.95
X86.54Y-54.05
X86.54Y-57.15
X86.54Y-60.25
X86.54Y-63.35
X86.54Y-66.45
X86.54Y-69.55
X86.54Y-72.65
X86.54Y-75.75
X86.54Y-78.85
X86.54Y-81.95
X86.54Y-85.05
X86.54Y-88.15
X86.54Y-91.25
X86.54Y-94.35
X86.54Y-97.45
X86.54Y-100.55
X86.54Y-103.65
X86.54Y-106.75
X86.54Y-109.85
X86.54Y-112.95
X86.54Y-116.05
X86.54Y-119.15
X86.54Y-122.25
X86.54Y-125.35
X86.54Y-128.45
X86.54Y-131.55
X86.54Y-134.65
X86.54Y-137.75
X86.54Y-140.85
X86.54Y-143.95
X86.54Y-147.05
X86.54Y-150.15
X89.1Y-27.85
X89.1Y-28.6
X89.15Y-81.25
X89.15Y-133.95
X89.25Y-153.7
X89.9Y-155.5
X89.9Y-156.7
X90.1Y-28.55
X90.1Y-31.65
X90.1Y-34.75
X90.1Y-37.85
X90.1Y-40.95
X90.1Y-44.05
X90.1Y-47.15
X90.1Y-50.25
X90.1Y-53.35
X90.1Y-56.45
X90.1Y-59.55
X90.1Y-62.65
X90.1Y-65.75
X90.1Y-68.85
X90.1Y-71.95
X90.1Y-75.05
X90.1Y-78.15
X90.1Y-81.25
X90.1Y-84.35
X90.1Y-87.45
X90.1Y-90.55
X90.1Y-93.65
X90.1Y-96.75
X90.1Y-99.85
X90.1Y-102.95
X90.1Y-106.05
X90.1Y-109.15
X90.1Y-112.25
X90.1Y-115.35
X90.1Y-118.45
X90.1Y-121.55
X90.1Y-124.65
X90.1Y-127.75
X90.1Y-130.85
X90.1Y-133.95
X90.1Y-137.05
X90.1Y-140.15
X90.1Y-143.25
X90.1Y-146.35
X90.1Y-149.45
X90.153Y-153.626
X90.275Y-152.875
X90.3Y-156.1
X90.85Y-153.65
X90.875Y-28.543
X90.875Y-31.643
X90.875Y-34.743
X90.875Y-37.843
X90.875Y-40.943
X90.875Y-44.043
X90.875Y-47.143
X90.875Y-50.243
X90.875Y-53.343
X90.875Y-56.443
X90.875Y-59.543
X90.875Y-62.643
X90.875Y-65.743
X90.875Y-68.843
X90.875Y-71.943
X90.875Y-75.043
X90.875Y-78.143
X90.875Y-81.243
X90.875Y-84.343
X90.875Y-87.443
X90.875Y-90.543
X90.875Y-93.643
X90.875Y-96.743
X90.875Y-99.843
X90.875Y-102.943
X90.875Y-106.043
X90.875Y-109.143
X90.875Y-112.243
X90.875Y-115.343
X90.875Y-118.443
X90.875Y-121.543
X90.875Y-124.643
X90.875Y-127.743
X90.875Y-130.843
X90.875Y-133.943
X90.875Y-137.043
X90.875Y-140.143
X90.875Y-143.243
X90.875Y-146.343
X90.875Y-149.443
X90.9Y-152.6
X91.1Y-157.7
X91.479Y-153.44
X91.5Y-31.63
X91.5Y-34.73
X91.5Y-37.83
X91.5Y-40.93
X91.5Y-44.03
X91.5Y-47.13
X91.5Y-50.23
X91.5Y-53.33
X91.5Y-56.43
X91.5Y-59.53
X91.5Y-62.63
X91.5Y-65.73
X91.5Y-68.83
X91.5Y-71.93
X91.5Y-75.03
X91.5Y-78.13
X91.5Y-84.33
X91.5Y-87.43
X91.5Y-90.53
X91.5Y-93.63
X91.5Y-96.73
X91.5Y-99.83
X91.5Y-102.93
X91.5Y-106.03
X91.5Y-109.13
X91.5Y-112.23
X91.5Y-115.33
X91.5Y-118.43
X91.5Y-121.53
X91.5Y-124.63
X91.5Y-127.73
X91.5Y-130.83
X91.5Y-137.03
X91.5Y-140.13
X91.5Y-143.23
X91.5Y-146.33
X91.5Y-149.43
X91.9Y-153.85
X91.94Y-80.3
X91.94Y-133.15
X91.94Y-151.85
X94.525Y-153.85
X94.625Y-31.65
X94.625Y-34.75
X94.625Y-37.85
X94.625Y-40.95
X94.625Y-44.05
X94.625Y-47.15
X94.625Y-50.25
X94.625Y-53.35
X94.625Y-56.45
X94.625Y-59.55
X94.625Y-62.65
X94.625Y-65.75
X94.625Y-68.85
X94.625Y-71.95
X94.625Y-75.05
X94.625Y-78.15
X94.625Y-84.35
X94.625Y-87.45
X94.625Y-90.55
X94.625Y-93.65
X94.625Y-96.75
X94.625Y-99.85
X94.625Y-102.95
X94.625Y-106.05
X94.625Y-109.15
X94.625Y-112.25
X94.625Y-115.35
X94.625Y-118.45
X94.625Y-121.55
X94.625Y-124.65
X94.625Y-127.75
X94.625Y-130.85
X94.625Y-137.05
X94.625Y-140.15
X94.625Y-143.25
X94.625Y-146.35
X94.625Y-149.45
X94.926Y-152.57
X94.95Y-153.5
X95.55Y-153.6
X95.9Y-157.7
X96.161Y-31.65
X96.161Y-34.75
X96.161Y-37.85
X96.161Y-40.95
X96.161Y-44.05
X96.161Y-47.15
X96.161Y-50.25
X96.161Y-53.35
X96.161Y-56.45
X96.161Y-59.55
X96.161Y-62.65
X96.161Y-65.75
X96.161Y-68.85
X96.161Y-71.95
X96.161Y-75.05
X96.161Y-78.15
X96.161Y-81.25
X96.161Y-84.35
X96.161Y-87.45
X96.161Y-90.55
X96.161Y-93.65
X96.161Y-96.75
X96.161Y-99.85
X96.161Y-102.95
X96.161Y-106.05
X96.161Y-109.15
X96.161Y-112.25
X96.161Y-115.35
X96.161Y-118.45
X96.161Y-121.55
X96.161Y-124.65
X96.161Y-127.75
X96.161Y-130.85
X96.161Y-133.95
X96.161Y-137.05
X96.161Y-140.15
X96.161Y-143.25
X96.161Y-146.35
X96.161Y-149.45
X96.25Y-153.6
X96.327Y-152.41
X97.0Y-156.1
X97.15Y-153.7
X97.3Y-27.85
X97.3Y-81.25
X97.3Y-133.95
X97.34Y-29.25
X97.34Y-32.35
X97.34Y-35.45
X97.34Y-38.55
X97.34Y-41.65
X97.34Y-44.75
X97.34Y-47.85
X97.34Y-50.95
X97.34Y-54.05
X97.34Y-57.15
X97.34Y-60.25
X97.34Y-63.35
X97.34Y-66.45
X97.34Y-69.55
X97.34Y-72.65
X97.34Y-75.75
X97.34Y-78.85
X97.34Y-81.95
X97.34Y-85.05
X97.34Y-88.15
X97.34Y-91.25
X97.34Y-94.35
X97.34Y-97.45
X97.34Y-100.55
X97.34Y-103.65
X97.34Y-106.75
X97.34Y-109.85
X97.34Y-112.95
X97.34Y-116.05
X97.34Y-119.15
X97.34Y-122.25
X97.34Y-125.35
X97.34Y-128.45
X97.34Y-131.55
X97.34Y-134.65
X97.34Y-137.75
X97.34Y-140.85
X97.34Y-143.95
X97.34Y-147.05
X97.34Y-150.15
X99.9Y-27.85
X99.9Y-28.6
X99.95Y-81.25
X99.95Y-133.95
X100.05Y-153.7
X100.7Y-155.5
X100.7Y-156.7
X100.9Y-28.55
X100.9Y-31.65
X100.9Y-34.75
X100.9Y-37.85
X100.9Y-40.95
X100.9Y-44.05
X100.9Y-47.15
X100.9Y-50.25
X100.9Y-53.35
X100.9Y-56.45
X100.9Y-59.55
X100.9Y-62.65
X100.9Y-65.75
X100.9Y-68.85
X100.9Y-71.95
X100.9Y-75.05
X100.9Y-78.15
X100.9Y-81.25
X100.9Y-84.35
X100.9Y-87.45
X100.9Y-90.55
X100.9Y-93.65
X100.9Y-96.75
X100.9Y-99.85
X100.9Y-102.95
X100.9Y-106.05
X100.9Y-109.15
X100.9Y-112.25
X100.9Y-115.35
X100.9Y-118.45
X100.9Y-121.55
X100.9Y-124.65
X100.9Y-127.75
X100.9Y-130.85
X100.9Y-133.95
X100.9Y-137.05
X100.9Y-140.15
X100.9Y-143.25
X100.9Y-146.35
X100.9Y-149.45
X100.953Y-153.626
X101.075Y-152.875
X101.1Y-156.1
X101.5Y-155.5
X101.5Y-157.1
X101.65Y-153.65
X101.675Y-28.543
X101.675Y-31.643
X101.675Y-34.743
X101.675Y-37.843
X101.675Y-40.943
X101.675Y-44.043
X101.675Y-47.143
X101.675Y-50.243
X101.675Y-53.343
X101.675Y-56.443
X101.675Y-59.543
X101.675Y-62.643
X101.675Y-65.743
X101.675Y-68.843
X101.675Y-71.943
X101.675Y-75.043
X101.675Y-78.143
X101.675Y-81.243
X101.675Y-84.343
X101.675Y-87.443
X101.675Y-90.543
X101.675Y-93.643
X101.675Y-96.743
X101.675Y-99.843
X101.675Y-102.943
X101.675Y-106.043
X101.675Y-109.143
X101.675Y-112.243
X101.675Y-115.343
X101.675Y-118.443
X101.675Y-121.543
X101.675Y-124.643
X101.675Y-127.743
X101.675Y-130.843
X101.675Y-133.943
X101.675Y-137.043
X101.675Y-140.143
X101.675Y-143.243
X101.675Y-146.343
X101.675Y-149.443
X101.7Y-152.6
X101.9Y-157.7
X102.279Y-153.44
X102.3Y-31.63
X102.3Y-34.73
X102.3Y-37.83
X102.3Y-40.93
X102.3Y-44.03
X102.3Y-47.13
X102.3Y-50.23
X102.3Y-53.33
X102.3Y-56.43
X102.3Y-59.53
X102.3Y-62.63
X102.3Y-65.73
X102.3Y-68.83
X102.3Y-71.93
X102.3Y-75.03
X102.3Y-78.13
X102.3Y-84.33
X102.3Y-87.43
X102.3Y-90.53
X102.3Y-93.63
X102.3Y-96.73
X102.3Y-99.83
X102.3Y-102.93
X102.3Y-106.03
X102.3Y-109.13
X102.3Y-112.23
X102.3Y-115.33
X102.3Y-118.43
X102.3Y-121.53
X102.3Y-124.63
X102.3Y-127.73
X102.3Y-130.83
X102.3Y-137.03
X102.3Y-140.13
X102.3Y-143.23
X102.3Y-146.33
X102.3Y-149.43
X102.7Y-153.85
X102.74Y-80.3
X102.74Y-133.15
X102.74Y-151.85
X103.01Y-156.1
X105.325Y-153.85
X105.425Y-31.65
X105.425Y-34.75
X105.425Y-37.85
X105.425Y-40.95
X105.425Y-44.05
X105.425Y-47.15
X105.425Y-50.25
X105.425Y-53.35
X105.425Y-56.45
X105.425Y-59.55
X105.425Y-62.65
X105.425Y-65.75
X105.425Y-68.85
X105.425Y-71.95
X105.425Y-75.05
X105.425Y-78.15
X105.425Y-84.35
X105.425Y-87.45
X105.425Y-90.55
X105.425Y-93.65
X105.425Y-96.75
X105.425Y-99.85
X105.425Y-102.95
X105.425Y-106.05
X105.425Y-109.15
X105.425Y-112.25
X105.425Y-115.35
X105.425Y-118.45
X105.425Y-121.55
X105.425Y-124.65
X105.425Y-127.75
X105.425Y-130.85
X105.425Y-137.05
X105.425Y-140.15
X105.425Y-143.25
X105.425Y-146.35
X105.425Y-149.45
X105.51Y-156.7
X105.726Y-152.57
X105.75Y-153.5
X106.3Y-155.53
X106.3Y-157.1
X106.35Y-153.6
X106.7Y-157.7
X106.961Y-31.65
X106.961Y-34.75
X106.961Y-37.85
X106.961Y-40.95
X106.961Y-44.05
X106.961Y-47.15
X106.961Y-50.25
X106.961Y-53.35
X106.961Y-56.45
X106.961Y-59.55
X106.961Y-62.65
X106.961Y-65.75
X106.961Y-68.85
X106.961Y-71.95
X106.961Y-75.05
X106.961Y-78.15
X106.961Y-81.25
X106.961Y-84.35
X106.961Y-87.45
X106.961Y-90.55
X106.961Y-93.65
X106.961Y-96.75
X106.961Y-99.85
X106.961Y-102.95
X106.961Y-106.05
X106.961Y-109.15
X106.961Y-112.25
X106.961Y-115.35
X106.961Y-118.45
X106.961Y-121.55
X106.961Y-124.65
X106.961Y-127.75
X106.961Y-130.85
X106.961Y-133.95
X106.961Y-137.05
X106.961Y-140.15
X106.961Y-143.25
X106.961Y-146.35
X106.961Y-149.45
X107.05Y-153.6
X107.1Y-155.53
X107.1Y-156.7
X107.127Y-152.41
X107.5Y-156.1
X107.95Y-153.7
X108.1Y-27.85
X108.1Y-81.25
X108.1Y-133.95
X108.11Y-157.1
X108.14Y-29.25
X108.14Y-32.35
X108.14Y-35.45
X108.14Y-38.55
X108.14Y-41.65
X108.14Y-44.75
X108.14Y-47.85
X108.14Y-50.95
X108.14Y-54.05
X108.14Y-57.15
X108.14Y-60.25
X108.14Y-63.35
X108.14Y-66.45
X108.14Y-69.55
X108.14Y-72.65
X108.14Y-75.75
X108.14Y-78.85
X108.14Y-81.95
X108.14Y-85.05
X108.14Y-88.15
X108.14Y-91.25
X108.14Y-94.35
X108.14Y-97.45
X108.14Y-100.55
X108.14Y-103.65
X108.14Y-106.75
X108.14Y-109.85
X108.14Y-112.95
X108.14Y-116.05
X108.14Y-119.15
X108.14Y-122.25
X108.14Y-125.35
X108.14Y-128.45
X108.14Y-131.55
X108.14Y-134.65
X108.14Y-137.75
X108.14Y-140.85
X108.14Y-143.95
X108.14Y-147.05
X108.14Y-150.15
X110.61Y-157.7
X110.7Y-27.85
X110.7Y-28.6
X110.75Y-81.25
X110.75Y-133.95
X110.85Y-153.7
X111.5Y-155.5
X111.5Y-156.7
X111.7Y-28.55
X111.7Y-31.65
X111.7Y-34.75
X111.7Y-37.85
X111.7Y-40.95
X111.7Y-44.05
X111.7Y-47.15
X111.7Y-50.25
X111.7Y-53.35
X111.7Y-56.45
X111.7Y-59.55
X111.7Y-62.65
X111.7Y-65.75
X111.7Y-68.85
X111.7Y-71.95
X111.7Y-75.05
X111.7Y-78.15
X111.7Y-81.25
X111.7Y-84.35
X111.7Y-87.45
X111.7Y-90.55
X111.7Y-93.65
X111.7Y-96.75
X111.7Y-99.85
X111.7Y-102.95
X111.7Y-106.05
X111.7Y-109.15
X111.7Y-112.25
X111.7Y-115.35
X111.7Y-118.45
X111.7Y-121.55
X111.7Y-124.65
X111.7Y-127.75
X111.7Y-130.85
X111.7Y-133.95
X111.7Y-137.05
X111.7Y-140.15
X111.7Y-143.25
X111.7Y-146.35
X111.7Y-149.45
X111.753Y-153.626
X111.875Y-152.875
X111.9Y-156.1
X112.3Y-155.5
X112.3Y-157.1
X112.45Y-153.65
X112.475Y-28.543
X112.475Y-31.643
X112.475Y-34.743
X112.475Y-37.843
X112.475Y-40.943
X112.475Y-44.043
X112.475Y-47.143
X112.475Y-50.243
X112.475Y-53.343
X112.475Y-56.443
X112.475Y-59.543
X112.475Y-62.643
X112.475Y-65.743
X112.475Y-68.843
X112.475Y-71.943
X112.475Y-75.043
X112.475Y-78.143
X112.475Y-81.243
X112.475Y-84.343
X112.475Y-87.443
X112.475Y-90.543
X112.475Y-93.643
X112.475Y-96.743
X112.475Y-99.843
X112.475Y-102.943
X112.475Y-106.043
X112.475Y-109.143
X112.475Y-112.243
X112.475Y-115.343
X112.475Y-118.443
X112.475Y-121.543
X112.475Y-124.643
X112.475Y-127.743
X112.475Y-130.843
X112.475Y-133.943
X112.475Y-137.043
X112.475Y-140.143
X112.475Y-143.243
X112.475Y-146.343
X112.475Y-149.443
X112.5Y-152.6
X112.7Y-157.7
X113.079Y-153.44
X113.1Y-31.63
X113.1Y-34.73
X113.1Y-37.83
X113.1Y-40.93
X113.1Y-44.03
X113.1Y-47.13
X113.1Y-50.23
X113.1Y-53.33
X113.1Y-56.43
X113.1Y-59.53
X113.1Y-62.63
X113.1Y-65.73
X113.1Y-68.83
X113.1Y-71.93
X113.1Y-75.03
X113.1Y-78.13
X113.1Y-84.33
X113.1Y-87.43
X113.1Y-90.53
X113.1Y-93.63
X113.1Y-96.73
X113.1Y-99.83
X113.1Y-102.93
X113.1Y-106.03
X113.1Y-109.13
X113.1Y-112.23
X113.1Y-115.33
X113.1Y-118.43
X113.1Y-121.53
X113.1Y-124.63
X113.1Y-127.73
X113.1Y-130.83
X113.1Y-137.03
X113.1Y-140.13
X113.1Y-143.23
X113.1Y-146.33
X113.1Y-149.43
X113.5Y-153.85
X113.54Y-80.3
X113.54Y-133.15
X113.54Y-151.85
X116.125Y-153.85
X116.225Y-31.65
X116.225Y-34.75
X116.225Y-37.85
X116.225Y-40.95
X116.225Y-44.05
X116.225Y-47.15
X116.225Y-50.25
X116.225Y-53.35
X116.225Y-56.45
X116.225Y-59.55
X116.225Y-62.65
X116.225Y-65.75
X116.225Y-68.85
X116.225Y-71.95
X116.225Y-75.05
X116.225Y-78.15
X116.225Y-84.35
X116.225Y-87.45
X116.225Y-90.55
X116.225Y-93.65
X116.225Y-96.75
X116.225Y-99.85
X116.225Y-102.95
X116.225Y-106.05
X116.225Y-109.15
X116.225Y-112.25
X116.225Y-115.35
X116.225Y-118.45
X116.225Y-121.55
X116.225Y-124.65
X116.225Y-127.75
X116.225Y-130.85
X116.225Y-137.05
X116.225Y-140.15
X116.225Y-143.25
X116.225Y-146.35
X116.225Y-149.45
X116.526Y-152.57
X116.55Y-153.5
X117.1Y-155.53
X117.1Y-157.1
X117.15Y-153.6
X117.5Y-157.7
X117.761Y-31.65
X117.761Y-34.75
X117.761Y-37.85
X117.761Y-40.95
X117.761Y-44.05
X117.761Y-47.15
X117.761Y-50.25
X117.761Y-53.35
X117.761Y-56.45
X117.761Y-59.55
X117.761Y-62.65
X117.761Y-65.75
X117.761Y-68.85
X117.761Y-71.95
X117.761Y-75.05
X117.761Y-78.15
X117.761Y-81.25
X117.761Y-84.35
X117.761Y-87.45
X117.761Y-90.55
X117.761Y-93.65
X117.761Y-96.75
X117.761Y-99.85
X117.761Y-102.95
X117.761Y-106.05
X117.761Y-109.15
X117.761Y-112.25
X117.761Y-115.35
X117.761Y-118.45
X117.761Y-121.55
X117.761Y-124.65
X117.761Y-127.75
X117.761Y-130.85
X117.761Y-133.95
X117.761Y-137.05
X117.761Y-140.15
X117.761Y-143.25
X117.761Y-146.35
X117.761Y-149.45
X117.85Y-153.6
X117.9Y-155.5
X117.9Y-156.7
X117.927Y-152.41
X118.3Y-156.1
X118.75Y-153.7
X118.9Y-27.85
X118.9Y-81.25
X118.9Y-133.95
X118.94Y-29.25
X118.94Y-32.35
X118.94Y-35.45
X118.94Y-38.55
X118.94Y-41.65
X118.94Y-44.75
X118.94Y-47.85
X118.94Y-50.95
X118.94Y-54.05
X118.94Y-57.15
X118.94Y-60.25
X118.94Y-63.35
X118.94Y-66.45
X118.94Y-69.55
X118.94Y-72.65
X118.94Y-75.75
X118.94Y-78.85
X118.94Y-81.95
X118.94Y-85.05
X118.94Y-88.15
X118.94Y-91.25
X118.94Y-94.35
X118.94Y-97.45
X118.94Y-100.55
X118.94Y-103.65
X118.94Y-106.75
X118.94Y-109.85
X118.94Y-112.95
X118.94Y-116.05
X118.94Y-119.15
X118.94Y-122.25
X118.94Y-125.35
X118.94Y-128.45
X118.94Y-131.55
X118.94Y-134.65
X118.94Y-137.75
X118.94Y-140.85
X118.94Y-143.95
X118.94Y-147.05
X118.94Y-150.15
X121.5Y-27.85
X121.5Y-28.6
X121.55Y-81.25
X121.55Y-133.95
X121.65Y-153.7
X122.2Y-155.5
X122.2Y-156.7
X122.5Y-28.55
X122.5Y-31.65
X122.5Y-34.75
X122.5Y-37.85
X122.5Y-40.95
X122.5Y-44.05
X122.5Y-47.15
X122.5Y-50.25
X122.5Y-53.35
X122.5Y-56.45
X122.5Y-59.55
X122.5Y-62.65
X122.5Y-65.75
X122.5Y-68.85
X122.5Y-71.95
X122.5Y-75.05
X122.5Y-78.15
X122.5Y-81.25
X122.5Y-84.35
X122.5Y-87.45
X122.5Y-90.55
X122.5Y-93.65
X122.5Y-96.75
X122.5Y-99.85
X122.5Y-102.95
X122.5Y-106.05
X122.5Y-109.15
X122.5Y-112.25
X122.5Y-115.35
X122.5Y-118.45
X122.5Y-121.55
X122.5Y-124.65
X122.5Y-127.75
X122.5Y-130.85
X122.5Y-133.95
X122.5Y-137.05
X122.5Y-140.15
X122.5Y-143.25
X122.5Y-146.35
X122.5Y-149.45
X122.553Y-153.626
X122.6Y-156.1
X122.675Y-152.875
X123.0Y-155.5
X123.0Y-157.1
X123.25Y-153.65
X123.275Y-28.543
X123.275Y-31.643
X123.275Y-34.743
X123.275Y-37.843
X123.275Y-40.943
X123.275Y-44.043
X123.275Y-47.143
X123.275Y-50.243
X123.275Y-53.343
X123.275Y-56.443
X123.275Y-59.543
X123.275Y-62.643
X123.275Y-65.743
X123.275Y-68.843
X123.275Y-71.943
X123.275Y-75.043
X123.275Y-78.143
X123.275Y-81.243
X123.275Y-84.343
X123.275Y-87.443
X123.275Y-90.543
X123.275Y-93.643
X123.275Y-96.743
X123.275Y-99.843
X123.275Y-102.943
X123.275Y-106.043
X123.275Y-109.143
X123.275Y-112.243
X123.275Y-115.343
X123.275Y-118.443
X123.275Y-121.543
X123.275Y-124.643
X123.275Y-127.743
X123.275Y-130.843
X123.275Y-133.943
X123.275Y-137.043
X123.275Y-140.143
X123.275Y-143.243
X123.275Y-146.343
X123.275Y-149.443
X123.3Y-152.6
X123.5Y-157.7
X123.879Y-153.44
X123.9Y-31.63
X123.9Y-34.73
X123.9Y-37.83
X123.9Y-40.93
X123.9Y-44.03
X123.9Y-47.13
X123.9Y-50.23
X123.9Y-53.33
X123.9Y-56.43
X123.9Y-59.53
X123.9Y-62.63
X123.9Y-65.73
X123.9Y-68.83
X123.9Y-71.93
X123.9Y-75.03
X123.9Y-78.13
X123.9Y-84.33
X123.9Y-87.43
X123.9Y-90.53
X123.9Y-93.63
X123.9Y-96.73
X123.9Y-99.83
X123.9Y-102.93
X123.9Y-106.03
X123.9Y-109.13
X123.9Y-112.23
X123.9Y-115.33
X123.9Y-118.43
X123.9Y-121.53
X123.9Y-124.63
X123.9Y-127.73
X123.9Y-130.83
X123.9Y-137.03
X123.9Y-140.13
X123.9Y-143.23
X123.9Y-146.33
X123.9Y-149.43
X124.3Y-153.85
X124.34Y-80.3
X124.34Y-133.15
X124.34Y-151.85
X126.925Y-153.85
X127.025Y-31.65
X127.025Y-34.75
X127.025Y-37.85
X127.025Y-40.95
X127.025Y-44.05
X127.025Y-47.15
X127.025Y-50.25
X127.025Y-53.35
X127.025Y-56.45
X127.025Y-59.55
X127.025Y-62.65
X127.025Y-65.75
X127.025Y-68.85
X127.025Y-71.95
X127.025Y-75.05
X127.025Y-78.15
X127.025Y-84.35
X127.025Y-87.45
X127.025Y-90.55
X127.025Y-93.65
X127.025Y-96.75
X127.025Y-99.85
X127.025Y-102.95
X127.025Y-106.05
X127.025Y-109.15
X127.025Y-112.25
X127.025Y-115.35
X127.025Y-118.45
X127.025Y-121.55
X127.025Y-124.65
X127.025Y-127.75
X127.025Y-130.85
X127.025Y-137.05
X127.025Y-140.15
X127.025Y-143.25
X127.025Y-146.35
X127.025Y-149.45
X127.326Y-152.57
X127.35Y-153.5
X127.9Y-155.53
X127.9Y-157.1
X127.95Y-153.6
X128.3Y-157.7
X128.561Y-31.65
X128.561Y-34.75
X128.561Y-37.85
X128.561Y-40.95
X128.561Y-44.05
X128.561Y-47.15
X128.561Y-50.25
X128.561Y-53.35
X128.561Y-56.45
X128.561Y-59.55
X128.561Y-62.65
X128.561Y-65.75
X128.561Y-68.85
X128.561Y-71.95
X128.561Y-75.05
X128.561Y-78.15
X128.561Y-81.25
X128.561Y-84.35
X128.561Y-87.45
X128.561Y-90.55
X128.561Y-93.65
X128.561Y-96.75
X128.561Y-99.85
X128.561Y-102.95
X128.561Y-106.05
X128.561Y-109.15
X128.561Y-112.25
X128.561Y-115.35
X128.561Y-118.45
X128.561Y-121.55
X128.561Y-124.65
X128.561Y-127.75
X128.561Y-130.85
X128.561Y-133.95
X128.561Y-137.05
X128.561Y-140.15
X128.561Y-143.25
X128.561Y-146.35
X128.561Y-149.45
X128.65Y-153.6
X128.7Y-155.53
X128.7Y-156.7
X128.727Y-152.41
X129.1Y-156.1
X129.55Y-153.7
X129.7Y-27.85
X129.7Y-81.25
X129.7Y-133.95
X129.74Y-29.25
X129.74Y-32.35
X129.74Y-35.45
X129.74Y-38.55
X129.74Y-41.65
X129.74Y-44.75
X129.74Y-47.85
X129.74Y-50.95
X129.74Y-54.05
X129.74Y-57.15
X129.74Y-60.25
X129.74Y-63.35
X129.74Y-66.45
X129.74Y-69.55
X129.74Y-72.65
X129.74Y-75.75
X129.74Y-78.85
X129.74Y-81.95
X129.74Y-85.05
X129.74Y-88.15
X129.74Y-91.25
X129.74Y-94.35
X129.74Y-97.45
X129.74Y-100.55
X129.74Y-103.65
X129.74Y-106.75
X129.74Y-109.85
X129.74Y-112.95
X129.74Y-116.05
X129.74Y-119.15
X129.74Y-122.25
X129.74Y-125.35
X129.74Y-128.45
X129.74Y-131.55
X129.74Y-134.65
X129.74Y-137.75
X129.74Y-140.85
X129.74Y-143.95
X129.74Y-147.05
X129.74Y-150.15
X130.9Y-157.7
X131.4Y-156.1
X132.3Y-27.85
X132.3Y-28.6
X132.35Y-81.25
X132.35Y-133.95
X132.45Y-153.7
X133.3Y-28.55
X133.3Y-31.65
X133.3Y-34.75
X133.3Y-37.85
X133.3Y-40.95
X133.3Y-44.05
X133.3Y-47.15
X133.3Y-50.25
X133.3Y-53.35
X133.3Y-56.45
X133.3Y-59.55
X133.3Y-62.65
X133.3Y-65.75
X133.3Y-68.85
X133.3Y-71.95
X133.3Y-75.05
X133.3Y-78.15
X133.3Y-81.25
X133.3Y-84.35
X133.3Y-87.45
X133.3Y-90.55
X133.3Y-93.65
X133.3Y-96.75
X133.3Y-99.85
X133.3Y-102.95
X133.3Y-106.05
X133.3Y-109.15
X133.3Y-112.25
X133.3Y-115.35
X133.3Y-118.45
X133.3Y-121.55
X133.3Y-124.65
X133.3Y-127.75
X133.3Y-130.85
X133.3Y-133.95
X133.3Y-137.05
X133.3Y-140.15
X133.3Y-143.25
X133.3Y-146.35
X133.3Y-149.45
X133.353Y-153.626
X133.475Y-152.875
X134.05Y-153.65
X134.075Y-28.543
X134.075Y-31.643
X134.075Y-34.743
X134.075Y-37.843
X134.075Y-40.943
X134.075Y-44.043
X134.075Y-47.143
X134.075Y-50.243
X134.075Y-53.343
X134.075Y-56.443
X134.075Y-59.543
X134.075Y-62.643
X134.075Y-65.743
X134.075Y-68.843
X134.075Y-71.943
X134.075Y-75.043
X134.075Y-78.143
X134.075Y-81.243
X134.075Y-84.343
X134.075Y-87.443
X134.075Y-90.543
X134.075Y-93.643
X134.075Y-96.743
X134.075Y-99.843
X134.075Y-102.943
X134.075Y-106.043
X134.075Y-109.143
X134.075Y-112.243
X134.075Y-115.343
X134.075Y-118.443
X134.075Y-121.543
X134.075Y-124.643
X134.075Y-127.743
X134.075Y-130.843
X134.075Y-133.943
X134.075Y-137.043
X134.075Y-140.143
X134.075Y-143.243
X134.075Y-146.343
X134.075Y-149.443
X134.1Y-152.6
X134.679Y-153.44
X134.7Y-31.63
X134.7Y-34.73
X134.7Y-37.83
X134.7Y-40.93
X134.7Y-44.03
X134.7Y-47.13
X134.7Y-50.23
X134.7Y-53.33
X134.7Y-56.43
X134.7Y-59.53
X134.7Y-62.63
X134.7Y-65.73
X134.7Y-68.83
X134.7Y-71.93
X134.7Y-75.03
X134.7Y-78.13
X134.7Y-84.33
X134.7Y-87.43
X134.7Y-90.53
X134.7Y-93.63
X134.7Y-96.73
X134.7Y-99.83
X134.7Y-102.93
X134.7Y-106.03
X134.7Y-109.13
X134.7Y-112.23
X134.7Y-115.33
X134.7Y-118.43
X134.7Y-121.53
X134.7Y-124.63
X134.7Y-127.73
X134.7Y-130.83
X134.7Y-137.03
X134.7Y-140.13
X134.7Y-143.23
X134.7Y-146.33
X134.7Y-149.43
X135.1Y-153.85
X135.14Y-80.3
X135.14Y-133.15
X135.14Y-151.85
T2
X62.59Y-160.0
X65.13Y-160.0
X67.67Y-160.0
X70.21Y-160.0
X103.0Y-160.0
X105.54Y-160.0
X108.08Y-160.0
X110.62Y-160.0
M30
