%TF.GenerationSoftware,KiCad,Pcbnew,9.0.1*%
%TF.CreationDate,2025-07-16T17:05:51-04:00*%
%TF.ProjectId,flowstick_spacer_pcbs,666c6f77-7374-4696-936b-5f7370616365,rev?*%
%TF.SameCoordinates,Original*%
%TF.FileFunction,Profile,NP*%
%FSLAX46Y46*%
G04 Gerber Fmt 4.6, Leading zero omitted, Abs format (unit mm)*
G04 Created by KiCad (PCBNEW 9.0.1) date 2025-07-16 17:05:51*
%MOMM*%
%LPD*%
G01*
G04 APERTURE LIST*
%TA.AperFunction,Profile*%
%ADD10C,0.050000*%
%TD*%
G04 APERTURE END LIST*
D10*
X154750108Y-112500032D02*
X154750109Y-112500032D01*
X162953809Y-118560692D02*
X164976339Y-118560692D01*
X162953809Y-118560692D02*
G75*
G02*
X162891072Y-118382912I0J99960D01*
G01*
X162388786Y-117760155D02*
G75*
G02*
X162891025Y-118382854I251123J-311347D01*
G01*
X162138607Y-118079312D02*
G75*
G02*
X162388794Y-117760165I815202J-381420D01*
G01*
X162138607Y-118079312D02*
G75*
G02*
X162061326Y-118190469I-362498J169580D01*
G01*
X160123854Y-120127938D02*
X162061324Y-118190467D01*
X160123854Y-120127938D02*
G75*
G02*
X159876363Y-120127937I-123745J123745D01*
G01*
X157941077Y-118192650D02*
X159876363Y-120127937D01*
X157941077Y-118192650D02*
G75*
G02*
X157861611Y-118079312I282837J282836D01*
G01*
X157611432Y-117760155D02*
G75*
G02*
X157861611Y-118079312I-565027J-700543D01*
G01*
X157109192Y-118382855D02*
G75*
G02*
X157611432Y-117760155I251120J311350D01*
G01*
X157109192Y-118382855D02*
G75*
G02*
X157046411Y-118560692I-62780J-77837D01*
G01*
X155023880Y-118560692D02*
X157046411Y-118560692D01*
X155023880Y-118560692D02*
G75*
G02*
X153250872Y-114101536I4976209J4560655D01*
G01*
X153250872Y-114101536D02*
G75*
G02*
X153350863Y-114000032I99990J1503D01*
G01*
X153350863Y-114000032D02*
X153750111Y-114000032D01*
X154750109Y-113000032D02*
G75*
G02*
X153750111Y-114000032I-999999J-1D01*
G01*
X154750109Y-113000032D02*
X154750109Y-112500032D01*
X153864887Y-111506641D02*
G75*
G02*
X154750108Y-112500032I-114777J-993389D01*
G01*
X153864887Y-111506641D02*
G75*
G02*
X153784278Y-111368313I11478J99340D01*
G01*
X153784278Y-111368313D02*
G75*
G02*
X155023879Y-109439372I6215776J-2631687D01*
G01*
X157046414Y-109439372D02*
X155023879Y-109439372D01*
X157046414Y-109439372D02*
G75*
G02*
X157109192Y-109617209I0J-99999D01*
G01*
X157611432Y-110239909D02*
G75*
G02*
X157109192Y-109617209I-251120J311350D01*
G01*
X157861611Y-109920752D02*
G75*
G02*
X157611432Y-110239909I-815206J381386D01*
G01*
X157861611Y-109920752D02*
G75*
G02*
X157941077Y-109807414I362303J-169498D01*
G01*
X159876364Y-107872126D02*
X157941077Y-109807414D01*
X159876364Y-107872126D02*
G75*
G02*
X160123855Y-107872127I123745J-123746D01*
G01*
X162059134Y-109807407D02*
X160123855Y-107872127D01*
X162059134Y-109807407D02*
G75*
G02*
X162138611Y-109920750I-282925J-282925D01*
G01*
X162388786Y-110239909D02*
G75*
G02*
X162138595Y-109920758I565023J700577D01*
G01*
X162891026Y-109617209D02*
G75*
G02*
X162388815Y-110239873I-251117J-311323D01*
G01*
X162891026Y-109617209D02*
G75*
G02*
X162953749Y-109439373I62723J77857D01*
G01*
X164976338Y-109439372D02*
X162953749Y-109439372D01*
X164976338Y-109439372D02*
G75*
G02*
X166215941Y-111368312I-4976149J-4560620D01*
G01*
X166215940Y-111368313D02*
G75*
G02*
X166135340Y-111506718I-92131J-39019D01*
G01*
X165250109Y-112500032D02*
G75*
G02*
X166135331Y-111506641I1000000J0D01*
G01*
X165250109Y-112500032D02*
X165250109Y-113000032D01*
X166250109Y-114000032D02*
G75*
G02*
X165250109Y-113000032I0J1000000D01*
G01*
X166250109Y-114000032D02*
X166649309Y-114000032D01*
X166649309Y-114000032D02*
G75*
G02*
X166749399Y-114101537I0J-100100D01*
G01*
X166749346Y-114101536D02*
G75*
G02*
X164976339Y-118560692I-6749222J101500D01*
G01*
X154750054Y-98500032D02*
X154750055Y-98500032D01*
X154300055Y-101030033D02*
X154300055Y-100970031D01*
X154700054Y-101430032D02*
G75*
G02*
X154300055Y-101030033I0J399999D01*
G01*
X165300055Y-101430032D02*
X154700054Y-101430032D01*
X165700055Y-101030032D02*
G75*
G02*
X165300055Y-101430032I-400000J0D01*
G01*
X165700055Y-101030032D02*
X165700055Y-100970032D01*
X165300055Y-100570032D02*
G75*
G02*
X165700055Y-100970032I0J-400000D01*
G01*
X165300055Y-100570032D02*
X154700053Y-100570032D01*
X154300055Y-100970031D02*
G75*
G02*
X154700053Y-100570032I399999J0D01*
G01*
X165250055Y-98500032D02*
X165250055Y-99000032D01*
X166250055Y-100000032D02*
G75*
G02*
X165250055Y-99000032I0J1000000D01*
G01*
X166250055Y-100000032D02*
X166649255Y-100000032D01*
X166649255Y-100000032D02*
G75*
G02*
X166749345Y-100101537I0J-100100D01*
G01*
X166749292Y-100101536D02*
G75*
G02*
X164976285Y-104560692I-6749222J101500D01*
G01*
X162953755Y-104560692D02*
X164976285Y-104560692D01*
X162953755Y-104560692D02*
G75*
G02*
X162891018Y-104382912I0J99960D01*
G01*
X162388732Y-103760155D02*
G75*
G02*
X162890971Y-104382854I251123J-311347D01*
G01*
X162138553Y-104079312D02*
G75*
G02*
X162388740Y-103760165I815202J-381420D01*
G01*
X162138553Y-104079312D02*
G75*
G02*
X162061272Y-104190469I-362498J169580D01*
G01*
X160123801Y-106127937D02*
X162061270Y-104190467D01*
X160123801Y-106127937D02*
G75*
G02*
X159876310Y-106127938I-123746J123745D01*
G01*
X157941023Y-104192650D02*
X159876310Y-106127938D01*
X157941023Y-104192650D02*
G75*
G02*
X157861557Y-104079312I282837J282836D01*
G01*
X157611378Y-103760155D02*
G75*
G02*
X157861557Y-104079312I-565027J-700543D01*
G01*
X157109138Y-104382855D02*
G75*
G02*
X157611378Y-103760155I251120J311350D01*
G01*
X157109138Y-104382855D02*
G75*
G02*
X157046357Y-104560692I-62780J-77837D01*
G01*
X155023826Y-104560692D02*
X157046357Y-104560692D01*
X155023826Y-104560692D02*
G75*
G02*
X153250818Y-100101536I4976209J4560655D01*
G01*
X153250818Y-100101536D02*
G75*
G02*
X153350809Y-100000032I99990J1503D01*
G01*
X153750056Y-100000032D02*
X153350809Y-100000032D01*
X154750055Y-99000033D02*
G75*
G02*
X153750056Y-100000032I-999999J0D01*
G01*
X154750055Y-98500032D02*
X154750055Y-99000033D01*
X153864833Y-97506641D02*
G75*
G02*
X154750054Y-98500032I-114777J-993389D01*
G01*
X153864833Y-97506641D02*
G75*
G02*
X153784224Y-97368313I11478J99340D01*
G01*
X153784224Y-97368313D02*
G75*
G02*
X155023825Y-95439372I6215776J-2631687D01*
G01*
X157046360Y-95439372D02*
X155023825Y-95439372D01*
X157046360Y-95439372D02*
G75*
G02*
X157109138Y-95617209I0J-99999D01*
G01*
X157611378Y-96239909D02*
G75*
G02*
X157109138Y-95617209I-251120J311350D01*
G01*
X157861557Y-95920752D02*
G75*
G02*
X157611378Y-96239909I-815206J381386D01*
G01*
X157861557Y-95920752D02*
G75*
G02*
X157941023Y-95807414I362303J-169498D01*
G01*
X159876309Y-93872127D02*
X157941023Y-95807414D01*
X159876309Y-93872127D02*
G75*
G02*
X160123800Y-93872126I123746J-123744D01*
G01*
X162059080Y-95807407D02*
X160123800Y-93872126D01*
X162059080Y-95807407D02*
G75*
G02*
X162138557Y-95920750I-282925J-282925D01*
G01*
X162388732Y-96239909D02*
G75*
G02*
X162138541Y-95920758I565023J700577D01*
G01*
X162890972Y-95617209D02*
G75*
G02*
X162388761Y-96239873I-251117J-311323D01*
G01*
X162890972Y-95617209D02*
G75*
G02*
X162953695Y-95439373I62723J77857D01*
G01*
X164976284Y-95439372D02*
X162953695Y-95439372D01*
X164976284Y-95439372D02*
G75*
G02*
X166215887Y-97368312I-4976149J-4560620D01*
G01*
X166215886Y-97368313D02*
G75*
G02*
X166135286Y-97506718I-92131J-39019D01*
G01*
X165250055Y-98500032D02*
G75*
G02*
X166135277Y-97506641I1000000J0D01*
G01*
X157232768Y-90382682D02*
G75*
G02*
X157735100Y-89760056I251295J311209D01*
G01*
X161986420Y-81815770D02*
G75*
G02*
X161675068Y-81320770I564840J700700D01*
G01*
X155572705Y-90984924D02*
G75*
G02*
X155572705Y-81015076I4551150J4984924D01*
G01*
X157767181Y-90814212D02*
G75*
G02*
X157696475Y-90984925I-70706J-70714D01*
G01*
X157696476Y-81015076D02*
G75*
G02*
X157750723Y-81199077I0J-99997D01*
G01*
X160247606Y-92127905D02*
G75*
G02*
X160000115Y-92127906I-123746J123745D01*
G01*
X161675067Y-90679230D02*
G75*
G02*
X161648435Y-90727074I-97307J22830D01*
G01*
X158572653Y-81320770D02*
G75*
G02*
X158261301Y-81815769I-876194J205703D01*
G01*
X157735098Y-82239944D02*
X157735099Y-82239945D01*
X160000114Y-79872095D02*
X158599296Y-81272913D01*
X158261301Y-90184231D02*
X157735100Y-89760056D01*
X162551260Y-81015109D02*
X162551260Y-81015076D01*
X155572705Y-90984924D02*
X157696475Y-90984924D01*
X163014924Y-81617295D02*
G75*
G02*
X162512619Y-82239885I-251264J-311205D01*
G01*
X157735099Y-82239945D02*
X158261301Y-81815769D01*
X163014924Y-81617295D02*
X162480538Y-81185788D01*
X161648436Y-81272925D02*
G75*
G02*
X161675068Y-81320770I-70676J-70675D01*
G01*
X160000114Y-79872095D02*
G75*
G02*
X160247605Y-79872094I123746J-123744D01*
G01*
X162551260Y-90984924D02*
X164675015Y-90984924D01*
X162512609Y-89760065D02*
G75*
G02*
X163019660Y-90378879I251051J-311435D01*
G01*
X158599297Y-81272914D02*
X158599296Y-81272913D01*
X162497278Y-90800695D02*
X163019660Y-90378879D01*
X162551260Y-90984924D02*
G75*
G02*
X162497277Y-90800694I0J100024D01*
G01*
X164675015Y-81015076D02*
G75*
G02*
X164675015Y-90984924I-4551150J-4984924D01*
G01*
X164675015Y-81015076D02*
X162551260Y-81015076D01*
X162480538Y-81185788D02*
G75*
G02*
X162551260Y-81015108I70722J70688D01*
G01*
X161986420Y-81815770D02*
X162512591Y-82239921D01*
X161648436Y-81272925D02*
X160247605Y-79872094D01*
X158572653Y-81320770D02*
G75*
G02*
X158599297Y-81272914I97338J-22848D01*
G01*
X157735098Y-82239944D02*
G75*
G02*
X157232767Y-81617319I-251036J311417D01*
G01*
X157750723Y-81199078D02*
X157232767Y-81617319D01*
X157696476Y-81015076D02*
X155572705Y-81015076D01*
X157232768Y-90382682D02*
X157767181Y-90814212D01*
X158261301Y-90184231D02*
G75*
G02*
X158572653Y-90679230I-564842J-700702D01*
G01*
X158599297Y-90727088D02*
G75*
G02*
X158572653Y-90679230I70711J70713D01*
G01*
X158599297Y-90727088D02*
X160000115Y-92127906D01*
X160247606Y-92127905D02*
X161648436Y-90727075D01*
X161675067Y-90679230D02*
G75*
G02*
X161986417Y-90184228I876183J-205690D01*
G01*
X162512609Y-89760065D02*
X161986419Y-90184231D01*
X162512596Y-82239914D02*
X162512591Y-82239921D01*
M02*
