%TF.GenerationSoftware,KiCad,Pcbnew,9.0.1*%
%TF.CreationDate,2025-07-16T17:40:13-04:00*%
%TF.ProjectId,flowstick_junction_pcb,666c6f77-7374-4696-936b-5f6a756e6374,rev?*%
%TF.SameCoordinates,Original*%
%TF.FileFunction,Copper,L1,Top*%
%TF.FilePolarity,Positive*%
%FSLAX46Y46*%
G04 Gerber Fmt 4.6, Leading zero omitted, Abs format (unit mm)*
G04 Created by KiCad (PCBNEW 9.0.1) date 2025-07-16 17:40:13*
%MOMM*%
%LPD*%
G01*
G04 APERTURE LIST*
G04 Aperture macros list*
%AMFreePoly0*
4,1,16,-0.600000,0.499999,0.100000,0.500000,0.206283,0.488573,0.339623,0.438839,0.453553,0.353553,0.538839,0.239624,0.588573,0.106282,0.600000,0.000000,0.588573,-0.106282,0.538839,-0.239624,0.453553,-0.353553,0.339623,-0.438839,0.206283,-0.488573,0.100000,-0.500000,-0.600000,-0.499999,-0.600000,0.499999,-0.600000,0.499999,$1*%
%AMFreePoly1*
4,1,12,-0.600000,0.250000,0.350000,0.250000,0.445671,0.230969,0.526777,0.176777,0.580970,0.095671,0.600000,0.000000,0.580970,-0.095671,0.526777,-0.176777,0.445671,-0.230969,0.350000,-0.250000,-0.600000,-0.250000,-0.600000,0.250000,-0.600000,0.250000,$1*%
G04 Aperture macros list end*
%TA.AperFunction,SMDPad,CuDef*%
%ADD10FreePoly0,45.000000*%
%TD*%
%TA.AperFunction,SMDPad,CuDef*%
%ADD11FreePoly1,45.000000*%
%TD*%
%TA.AperFunction,SMDPad,CuDef*%
%ADD12FreePoly0,225.000000*%
%TD*%
%TA.AperFunction,SMDPad,CuDef*%
%ADD13FreePoly1,225.000000*%
%TD*%
%TA.AperFunction,SMDPad,CuDef*%
%ADD14FreePoly0,135.000000*%
%TD*%
%TA.AperFunction,SMDPad,CuDef*%
%ADD15FreePoly1,135.000000*%
%TD*%
%TA.AperFunction,SMDPad,CuDef*%
%ADD16FreePoly0,315.000000*%
%TD*%
%TA.AperFunction,SMDPad,CuDef*%
%ADD17FreePoly1,315.000000*%
%TD*%
%TA.AperFunction,ViaPad*%
%ADD18C,0.420000*%
%TD*%
%TA.AperFunction,Conductor*%
%ADD19C,0.200000*%
%TD*%
%TA.AperFunction,Conductor*%
%ADD20C,0.110000*%
%TD*%
%TA.AperFunction,Conductor*%
%ADD21C,0.300000*%
%TD*%
G04 APERTURE END LIST*
D10*
%TO.P,J5,1,Pin_1*%
%TO.N,GND*%
X150040381Y-93391853D03*
D11*
%TO.P,J5,2,Pin_2*%
%TO.N,/LED_DAT*%
X150676776Y-94028249D03*
%TO.P,J5,3,Pin_3*%
%TO.N,/LED_CLK*%
X151171750Y-94523223D03*
D10*
%TO.P,J5,4,Pin_4*%
%TO.N,+5V*%
X151808148Y-95159619D03*
%TD*%
D12*
%TO.P,J7,1,Pin_1*%
%TO.N,GND*%
X153959619Y-86208147D03*
D13*
%TO.P,J7,2,Pin_2*%
%TO.N,/LED_DAT*%
X153323224Y-85571751D03*
%TO.P,J7,3,Pin_3*%
%TO.N,/LED_CLK*%
X152828250Y-85076777D03*
D12*
%TO.P,J7,4,Pin_4*%
%TO.N,+5V*%
X152191852Y-84440381D03*
%TD*%
D14*
%TO.P,J6,1,Pin_1*%
%TO.N,+5V*%
X152191852Y-95159619D03*
D15*
%TO.P,J6,2,Pin_2*%
%TO.N,/LED_CLK*%
X152828250Y-94523223D03*
%TO.P,J6,3,Pin_3*%
%TO.N,/LED_DAT*%
X153323224Y-94028249D03*
D14*
%TO.P,J6,4,Pin_4*%
%TO.N,GND*%
X153959619Y-93391853D03*
%TD*%
D16*
%TO.P,J8,1,Pin_1*%
%TO.N,+5V*%
X151808148Y-84440381D03*
D17*
%TO.P,J8,2,Pin_2*%
%TO.N,/LED_CLK*%
X151171750Y-85076777D03*
%TO.P,J8,3,Pin_3*%
%TO.N,/LED_DAT*%
X150676776Y-85571751D03*
D16*
%TO.P,J8,4,Pin_4*%
%TO.N,GND*%
X150040381Y-86208147D03*
%TD*%
D18*
%TO.N,+5V*%
X152000000Y-94660006D03*
X146500000Y-89950000D03*
X151700000Y-84600000D03*
X152000000Y-84250000D03*
X146600000Y-90600000D03*
X152300000Y-84600000D03*
X146900000Y-90250000D03*
X146900000Y-89750000D03*
X152300000Y-95000000D03*
X152000000Y-95350000D03*
X151700000Y-95000000D03*
X152000000Y-84939994D03*
%TO.N,/LED_CLK*%
X151200000Y-94500000D03*
X157600000Y-87500000D03*
X151149451Y-85049447D03*
X157500000Y-92700000D03*
X152850549Y-94550553D03*
X152850561Y-85049439D03*
%TO.N,/LED_DAT*%
X153260414Y-85613458D03*
X146500000Y-92700000D03*
X150729536Y-85630049D03*
X146400000Y-87500000D03*
X153270464Y-93969951D03*
X150750000Y-93950000D03*
%TO.N,GND*%
X150351355Y-93547568D03*
X148550000Y-85275076D03*
X150345570Y-86046648D03*
X157500000Y-89950000D03*
X153654430Y-93553352D03*
X157100000Y-89750000D03*
X148550000Y-94324924D03*
X155450000Y-85275076D03*
X155450000Y-94324924D03*
X153648645Y-86052432D03*
X157400000Y-90600000D03*
X157100000Y-90250000D03*
%TD*%
D19*
%TO.N,/LED_CLK*%
X157862007Y-88133993D02*
X158250000Y-88521986D01*
D20*
X152757538Y-94452512D02*
X152757538Y-94499419D01*
D19*
X151750004Y-85650000D02*
X152255026Y-85650000D01*
D20*
X151200000Y-94500000D02*
X151242462Y-94457538D01*
D19*
X158250000Y-90550000D02*
X157500000Y-91300000D01*
X152249996Y-93950000D02*
X151744974Y-93950000D01*
D20*
X151242462Y-94457538D02*
X151242462Y-94452512D01*
D19*
X152850549Y-94550553D02*
X152249996Y-93950000D01*
X157500000Y-91300000D02*
X157500000Y-92699376D01*
X151149451Y-85049447D02*
X151750004Y-85650000D01*
X158250000Y-88521986D02*
X158250000Y-90550000D01*
X157862007Y-87762007D02*
X157862007Y-88133993D01*
D20*
X151242462Y-85147488D02*
X151242462Y-85100581D01*
D19*
X152255026Y-85650000D02*
X152757538Y-85147488D01*
D20*
X152757538Y-94457542D02*
X152850549Y-94550553D01*
X151242462Y-85100581D02*
X151261207Y-85081836D01*
X152757538Y-85142462D02*
X152850561Y-85049439D01*
X151242462Y-85147488D02*
X151242462Y-85142458D01*
X152757538Y-94452512D02*
X152757538Y-94457542D01*
X151242462Y-85142458D02*
X151149451Y-85049447D01*
D19*
X151744974Y-93950000D02*
X151242462Y-94452512D01*
D20*
X152757538Y-85147488D02*
X152757538Y-85142462D01*
X152757538Y-94499419D02*
X152738793Y-94518164D01*
D19*
X157600000Y-87500000D02*
X157862007Y-87762007D01*
X157500000Y-92699376D02*
X157499688Y-92699688D01*
%TO.N,/LED_DAT*%
X145725000Y-88542162D02*
X145725000Y-90475000D01*
D20*
X153188745Y-93981933D02*
X153213140Y-93957538D01*
X153252513Y-85621359D02*
X153260414Y-85613458D01*
D19*
X146400000Y-87500000D02*
X146137993Y-87762007D01*
D20*
X150741949Y-85642462D02*
X150729536Y-85630049D01*
D19*
X153252513Y-93957538D02*
X152744975Y-93450000D01*
X146137993Y-87762007D02*
X146137993Y-88129169D01*
D20*
X150786860Y-85642462D02*
X150747487Y-85642462D01*
X150747487Y-93957538D02*
X150747487Y-93978641D01*
X153213140Y-93957538D02*
X153252513Y-93957538D01*
D19*
X146137993Y-88129169D02*
X145725000Y-88542162D01*
X145725000Y-90475000D02*
X146500000Y-91250000D01*
D20*
X150747487Y-85642462D02*
X150741949Y-85642462D01*
X153258051Y-93957538D02*
X153270464Y-93969951D01*
X150747487Y-93978641D02*
X150739586Y-93986542D01*
X153252513Y-93957538D02*
X153258051Y-93957538D01*
D19*
X152744975Y-93450000D02*
X151255025Y-93450000D01*
D20*
X153252513Y-85642462D02*
X153252513Y-85621359D01*
D19*
X146500000Y-91250000D02*
X146500000Y-92700000D01*
X150747487Y-85642462D02*
X151255025Y-86150000D01*
X151255025Y-93450000D02*
X150747487Y-93957538D01*
X152744975Y-86150000D02*
X153252513Y-85642462D01*
X151255025Y-86150000D02*
X152744975Y-86150000D01*
D20*
X150811255Y-85618067D02*
X150786860Y-85642462D01*
D21*
%TO.N,GND*%
X154950000Y-86550000D02*
X155450000Y-86050000D01*
X148550000Y-85325076D02*
X148550000Y-85275076D01*
X149050000Y-93050000D02*
X148550000Y-93550000D01*
X149839950Y-93050000D02*
X149050000Y-93050000D01*
X150111092Y-86278858D02*
X149839950Y-86550000D01*
X154160050Y-86550000D02*
X154950000Y-86550000D01*
X154950000Y-93050000D02*
X155450000Y-93550000D01*
X155450000Y-94274924D02*
X155450000Y-94324924D01*
X148550000Y-93550000D02*
X148550000Y-94324924D01*
X153888908Y-86278858D02*
X154160050Y-86550000D01*
X149050000Y-86550000D02*
X148550000Y-86050000D01*
X155450000Y-93550000D02*
X155450000Y-94274924D01*
X148550000Y-86050000D02*
X148550000Y-85325076D01*
X149839950Y-86550000D02*
X149050000Y-86550000D01*
X153888908Y-93321142D02*
X154160050Y-93050000D01*
X150111092Y-93321142D02*
X149839950Y-93050000D01*
X154160050Y-93050000D02*
X154950000Y-93050000D01*
X155450000Y-86050000D02*
X155450000Y-85275076D01*
%TD*%
M02*
