%TF.GenerationSoftware,KiCad,Pcbnew,9.0.1*%
%TF.CreationDate,2025-07-16T17:40:13-04:00*%
%TF.ProjectId,flowstick_junction_pcb,666c6f77-7374-4696-936b-5f6a756e6374,rev?*%
%TF.SameCoordinates,Original*%
%TF.FileFunction,Copper,L4,Bot*%
%TF.FilePolarity,Positive*%
%FSLAX46Y46*%
G04 Gerber Fmt 4.6, Leading zero omitted, Abs format (unit mm)*
G04 Created by KiCad (PCBNEW 9.0.1) date 2025-07-16 17:40:13*
%MOMM*%
%LPD*%
G01*
G04 APERTURE LIST*
G04 Aperture macros list*
%AMFreePoly0*
4,1,16,-0.750000,0.500000,0.250000,0.500000,0.356283,0.488573,0.489624,0.438839,0.603553,0.353553,0.688839,0.239624,0.738573,0.106283,0.750000,0.000000,0.738573,-0.106283,0.688839,-0.239624,0.603553,-0.353553,0.489624,-0.438839,0.356283,-0.488573,0.250000,-0.500000,-0.750000,-0.500000,-0.750000,0.500000,-0.750000,0.500000,$1*%
G04 Aperture macros list end*
%TA.AperFunction,SMDPad,CuDef*%
%ADD10FreePoly0,270.000000*%
%TD*%
%TA.AperFunction,SMDPad,CuDef*%
%ADD11FreePoly0,90.000000*%
%TD*%
%TA.AperFunction,ViaPad*%
%ADD12C,0.420000*%
%TD*%
%TA.AperFunction,Conductor*%
%ADD13C,0.200000*%
%TD*%
%TA.AperFunction,Conductor*%
%ADD14C,0.110000*%
%TD*%
G04 APERTURE END LIST*
D10*
%TO.P,J1,1,Pin_1*%
%TO.N,+5V*%
X146400000Y-89850000D03*
%TD*%
D11*
%TO.P,J2,1,Pin_1*%
%TO.N,/LED_CLK*%
X157600000Y-87750000D03*
%TD*%
D10*
%TO.P,J4,1,Pin_1*%
%TO.N,GND*%
X157600000Y-89850000D03*
%TD*%
D11*
%TO.P,J3,1,Pin_1*%
%TO.N,/LED_DAT*%
X146400000Y-87750000D03*
%TD*%
D12*
%TO.N,+5V*%
X152000000Y-94660006D03*
X146500000Y-89950000D03*
X151700000Y-84600000D03*
X152000000Y-84250000D03*
X146600000Y-90600000D03*
X152300000Y-84600000D03*
X146900000Y-90250000D03*
X146900000Y-89750000D03*
X152300000Y-95000000D03*
X152000000Y-95350000D03*
X151700000Y-95000000D03*
X152000000Y-84939994D03*
%TO.N,/LED_CLK*%
X151200000Y-94500000D03*
X157600000Y-87500000D03*
X151149451Y-85049447D03*
X157500000Y-92700000D03*
X152850549Y-94550553D03*
X152850561Y-85049439D03*
%TO.N,/LED_DAT*%
X153260414Y-85613458D03*
X146500000Y-92700000D03*
X150729536Y-85630049D03*
X146400000Y-87500000D03*
X153270464Y-93969951D03*
X150750000Y-93950000D03*
%TO.N,GND*%
X150351355Y-93547568D03*
X148550000Y-85275076D03*
X150345570Y-86046648D03*
X157500000Y-89950000D03*
X153654430Y-93553352D03*
X157100000Y-89750000D03*
X148550000Y-94324924D03*
X155450000Y-85275076D03*
X155450000Y-94324924D03*
X153648645Y-86052432D03*
X157400000Y-90600000D03*
X157100000Y-90250000D03*
%TD*%
D13*
%TO.N,/LED_CLK*%
X156721271Y-86621271D02*
X153571271Y-86621271D01*
X153500000Y-93050000D02*
X152850549Y-93699451D01*
X157500000Y-92700000D02*
X157150000Y-93050000D01*
X152800000Y-85100000D02*
X152850561Y-85049439D01*
X152850549Y-93699451D02*
X152850549Y-94550553D01*
X157150000Y-93050000D02*
X153500000Y-93050000D01*
X157600000Y-87500000D02*
X156721271Y-86621271D01*
X152800000Y-85850000D02*
X152800000Y-85100000D01*
X153571271Y-86621271D02*
X152800000Y-85850000D01*
%TO.N,/LED_DAT*%
X150800000Y-86300000D02*
X150800000Y-85700513D01*
X150800000Y-85700513D02*
X150729536Y-85630049D01*
D14*
X153250000Y-93949487D02*
X153270464Y-93969951D01*
D13*
X150800000Y-93350000D02*
X150800000Y-93926128D01*
X150500000Y-93050000D02*
X150800000Y-93350000D01*
X146500000Y-92700000D02*
X146850000Y-93050000D01*
X150550000Y-86550000D02*
X150800000Y-86300000D01*
X146400000Y-87500000D02*
X147350000Y-86550000D01*
X150800000Y-93926128D02*
X150739586Y-93986542D01*
X146850000Y-93050000D02*
X150500000Y-93050000D01*
X147350000Y-86550000D02*
X150550000Y-86550000D01*
%TD*%
M02*
