%TF.GenerationSoftware,KiCad,Pcbnew,9.0.1*%
%TF.CreationDate,2025-07-16T17:40:13-04:00*%
%TF.ProjectId,flowstick_junction_pcb,666c6f77-7374-4696-936b-5f6a756e6374,rev?*%
%TF.SameCoordinates,Original*%
%TF.FileFunction,Legend,Top*%
%TF.FilePolarity,Positive*%
%FSLAX46Y46*%
G04 Gerber Fmt 4.6, Leading zero omitted, Abs format (unit mm)*
G04 Created by KiCad (PCBNEW 9.0.1) date 2025-07-16 17:40:13*
%MOMM*%
%LPD*%
G01*
G04 APERTURE LIST*
%ADD10C,0.100000*%
G04 APERTURE END LIST*
D10*
X150500000Y-93150000D02*
X150900000Y-93150000D01*
X152200000Y-93900000D02*
G75*
G02*
X151800000Y-93900000I-200000J0D01*
G01*
X151800000Y-93900000D02*
G75*
G02*
X152200000Y-93900000I200000J0D01*
G01*
X152000000Y-94600000D02*
X152000000Y-94100000D01*
X151300000Y-93200000D02*
X151300000Y-93100000D01*
X152700000Y-93100000D02*
X152700000Y-93200000D01*
X152900000Y-93000000D02*
X152900000Y-93300000D01*
X153500000Y-93150000D02*
X153100000Y-93150000D01*
X151100000Y-93300000D02*
X151100000Y-93000000D01*
X150900000Y-93400000D02*
X150900000Y-92900000D01*
X153100000Y-92900000D02*
X153100000Y-93400000D01*
X152200000Y-85700000D02*
G75*
G02*
X151800000Y-85700000I-200000J0D01*
G01*
X151800000Y-85700000D02*
G75*
G02*
X152200000Y-85700000I200000J0D01*
G01*
X152000000Y-85000000D02*
X152000000Y-85500000D01*
X150500000Y-86450000D02*
X150900000Y-86450000D01*
X151300000Y-86500000D02*
X151300000Y-86400000D01*
X151100000Y-86600000D02*
X151100000Y-86300000D01*
X150900000Y-86700000D02*
X150900000Y-86200000D01*
X152700000Y-86400000D02*
X152700000Y-86500000D01*
X152900000Y-86300000D02*
X152900000Y-86600000D01*
X153100000Y-86200000D02*
X153100000Y-86700000D01*
X153100000Y-86500000D02*
X153100000Y-86300000D01*
X153500000Y-86450000D02*
X153100000Y-86450000D01*
M02*
