%TF.GenerationSoftware,KiCad,Pcbnew,9.0.1*%
%TF.CreationDate,2025-07-16T17:40:13-04:00*%
%TF.ProjectId,flowstick_junction_pcb,666c6f77-7374-4696-936b-5f6a756e6374,rev?*%
%TF.SameCoordinates,Original*%
%TF.FileFunction,Copper,L3,Inr*%
%TF.FilePolarity,Positive*%
%FSLAX46Y46*%
G04 Gerber Fmt 4.6, Leading zero omitted, Abs format (unit mm)*
G04 Created by KiCad (PCBNEW 9.0.1) date 2025-07-16 17:40:13*
%MOMM*%
%LPD*%
G01*
G04 APERTURE LIST*
%TA.AperFunction,ViaPad*%
%ADD10C,0.420000*%
%TD*%
G04 APERTURE END LIST*
D10*
%TO.N,+5V*%
X152000000Y-94660006D03*
X146500000Y-89950000D03*
X151700000Y-84600000D03*
X152000000Y-84250000D03*
X146600000Y-90600000D03*
X152300000Y-84600000D03*
X146900000Y-90250000D03*
X146900000Y-89750000D03*
X152300000Y-95000000D03*
X152000000Y-95350000D03*
X151700000Y-95000000D03*
X152000000Y-84939994D03*
%TO.N,/LED_CLK*%
X151200000Y-94500000D03*
X157600000Y-87500000D03*
X151149451Y-85049447D03*
X157500000Y-92700000D03*
X152850549Y-94550553D03*
X152850561Y-85049439D03*
%TO.N,/LED_DAT*%
X153260414Y-85613458D03*
X146500000Y-92700000D03*
X150729536Y-85630049D03*
X146400000Y-87500000D03*
X153270464Y-93969951D03*
X150750000Y-93950000D03*
%TO.N,GND*%
X150351355Y-93547568D03*
X148550000Y-85275076D03*
X150345570Y-86046648D03*
X157500000Y-89950000D03*
X153654430Y-93553352D03*
X157100000Y-89750000D03*
X148550000Y-94324924D03*
X155450000Y-85275076D03*
X155450000Y-94324924D03*
X153648645Y-86052432D03*
X157400000Y-90600000D03*
X157100000Y-90250000D03*
%TD*%
%TA.AperFunction,Conductor*%
%TO.N,GND*%
G36*
X152544807Y-84891096D02*
G01*
X152550202Y-84932071D01*
X152530061Y-85007241D01*
X152530061Y-85091634D01*
X152551902Y-85173149D01*
X152594093Y-85246226D01*
X152594095Y-85246228D01*
X152594097Y-85246231D01*
X152653769Y-85305903D01*
X152653771Y-85305904D01*
X152653773Y-85305906D01*
X152724477Y-85346727D01*
X152726852Y-85348098D01*
X152808366Y-85369939D01*
X152808367Y-85369939D01*
X152892755Y-85369939D01*
X152892756Y-85369939D01*
X152930289Y-85359882D01*
X152971265Y-85365277D01*
X152996425Y-85398066D01*
X152991030Y-85439042D01*
X152961755Y-85489747D01*
X152939914Y-85571262D01*
X152939914Y-85655653D01*
X152961755Y-85737168D01*
X153003946Y-85810245D01*
X153003948Y-85810247D01*
X153003950Y-85810250D01*
X153063622Y-85869922D01*
X153063624Y-85869923D01*
X153063626Y-85869925D01*
X153136703Y-85912116D01*
X153136705Y-85912117D01*
X153218219Y-85933958D01*
X153218220Y-85933958D01*
X153302608Y-85933958D01*
X153302609Y-85933958D01*
X153384123Y-85912117D01*
X153457206Y-85869922D01*
X153516878Y-85810250D01*
X153519567Y-85805592D01*
X153546510Y-85758927D01*
X153550646Y-85755752D01*
X153552266Y-85750795D01*
X153566571Y-85743533D01*
X153579299Y-85733767D01*
X153584469Y-85734447D01*
X153589120Y-85732087D01*
X153600888Y-85736609D01*
X153620275Y-85739162D01*
X153628407Y-85744918D01*
X153630508Y-85746718D01*
X153645960Y-85762976D01*
X153703758Y-85809505D01*
X153778711Y-85869925D01*
X154193464Y-86204261D01*
X154193480Y-86204276D01*
X154197179Y-86207257D01*
X154197180Y-86207259D01*
X154231543Y-86234957D01*
X154231567Y-86234976D01*
X154231568Y-86234978D01*
X154256044Y-86254708D01*
X154270352Y-86266241D01*
X154274418Y-86269518D01*
X154274713Y-86269711D01*
X154288635Y-86280934D01*
X154420326Y-86345210D01*
X154420329Y-86345210D01*
X154420330Y-86345211D01*
X154467889Y-86356333D01*
X154563016Y-86378580D01*
X154615351Y-86378862D01*
X154709545Y-86379372D01*
X154709545Y-86379371D01*
X154709554Y-86379372D01*
X154830571Y-86352446D01*
X154852597Y-86347546D01*
X154984972Y-86284698D01*
X154984972Y-86284697D01*
X154984974Y-86284697D01*
X155100054Y-86193974D01*
X155192069Y-86079925D01*
X155256407Y-85948264D01*
X155289844Y-85805590D01*
X155290705Y-85659052D01*
X155258946Y-85515995D01*
X155196159Y-85383588D01*
X155105491Y-85268465D01*
X155087244Y-85253730D01*
X155087243Y-85253728D01*
X155048486Y-85222432D01*
X155048485Y-85222430D01*
X155011258Y-85192368D01*
X155011224Y-85192343D01*
X154973138Y-85161590D01*
X154953366Y-85125296D01*
X154965048Y-85085652D01*
X155001342Y-85065880D01*
X155007062Y-85065576D01*
X156426661Y-85065576D01*
X156464549Y-85081099D01*
X156707592Y-85320434D01*
X156730525Y-85343017D01*
X156733320Y-85345986D01*
X157053353Y-85712680D01*
X157055917Y-85715851D01*
X157347381Y-86105668D01*
X157349692Y-86109016D01*
X157429807Y-86234976D01*
X157610909Y-86519717D01*
X157612966Y-86523238D01*
X157842444Y-86952474D01*
X157844229Y-86956140D01*
X157980428Y-87264910D01*
X158040657Y-87401455D01*
X158040658Y-87401456D01*
X158042162Y-87405246D01*
X158204433Y-87864134D01*
X158205646Y-87868027D01*
X158332823Y-88337841D01*
X158333739Y-88341815D01*
X158425101Y-88819879D01*
X158425715Y-88823910D01*
X158480744Y-89307528D01*
X158481051Y-89311594D01*
X158499427Y-89797961D01*
X158499427Y-89802039D01*
X158481051Y-90288405D01*
X158480744Y-90292471D01*
X158425715Y-90776089D01*
X158425101Y-90780120D01*
X158333739Y-91258184D01*
X158332823Y-91262158D01*
X158205646Y-91731972D01*
X158204433Y-91735865D01*
X158042162Y-92194753D01*
X158040658Y-92198543D01*
X157884343Y-92552918D01*
X157854462Y-92581471D01*
X157813143Y-92580532D01*
X157788171Y-92558125D01*
X157756467Y-92503212D01*
X157756465Y-92503210D01*
X157756464Y-92503208D01*
X157696792Y-92443536D01*
X157696789Y-92443534D01*
X157696787Y-92443532D01*
X157623710Y-92401341D01*
X157542195Y-92379500D01*
X157457805Y-92379500D01*
X157457804Y-92379500D01*
X157376289Y-92401341D01*
X157303212Y-92443532D01*
X157303210Y-92443534D01*
X157303208Y-92443536D01*
X157243536Y-92503208D01*
X157243534Y-92503210D01*
X157243534Y-92503211D01*
X157243532Y-92503212D01*
X157201341Y-92576289D01*
X157179500Y-92657804D01*
X157179500Y-92742195D01*
X157201341Y-92823710D01*
X157243532Y-92896787D01*
X157243534Y-92896789D01*
X157243536Y-92896792D01*
X157303208Y-92956464D01*
X157303210Y-92956465D01*
X157303212Y-92956467D01*
X157376289Y-92998658D01*
X157376291Y-92998659D01*
X157457805Y-93020500D01*
X157457806Y-93020500D01*
X157542191Y-93020500D01*
X157542195Y-93020500D01*
X157542198Y-93020498D01*
X157543983Y-93020264D01*
X157544864Y-93020500D01*
X157545734Y-93020500D01*
X157545734Y-93020733D01*
X157583905Y-93030959D01*
X157604572Y-93066751D01*
X157596599Y-93102782D01*
X157349698Y-93490975D01*
X157347381Y-93494331D01*
X157055917Y-93884148D01*
X157053353Y-93887319D01*
X156733320Y-94254013D01*
X156730525Y-94256982D01*
X156576797Y-94408365D01*
X156464847Y-94518608D01*
X156464550Y-94518900D01*
X156426661Y-94534424D01*
X155007062Y-94534424D01*
X155004256Y-94533261D01*
X155001344Y-94534120D01*
X154985526Y-94525503D01*
X154968878Y-94518608D01*
X154967715Y-94515802D01*
X154965050Y-94514350D01*
X154959958Y-94497072D01*
X154953062Y-94480424D01*
X154954224Y-94477618D01*
X154953366Y-94474706D01*
X154961982Y-94458888D01*
X154968878Y-94442240D01*
X154973136Y-94438412D01*
X154990769Y-94424172D01*
X155010349Y-94408361D01*
X155010372Y-94408347D01*
X155031005Y-94391685D01*
X155031083Y-94391661D01*
X155048507Y-94377590D01*
X155048508Y-94377591D01*
X155105515Y-94331556D01*
X155196187Y-94216428D01*
X155258977Y-94084014D01*
X155290737Y-93940950D01*
X155289876Y-93794406D01*
X155266236Y-93693536D01*
X155256438Y-93651727D01*
X155244418Y-93627130D01*
X155192096Y-93520058D01*
X155192093Y-93520054D01*
X155100080Y-93406005D01*
X155100079Y-93406004D01*
X154984989Y-93315274D01*
X154852607Y-93252423D01*
X154852608Y-93252423D01*
X154731584Y-93225496D01*
X154709559Y-93220596D01*
X154709558Y-93220596D01*
X154709550Y-93220595D01*
X154563019Y-93221387D01*
X154563006Y-93221389D01*
X154420321Y-93254757D01*
X154420315Y-93254759D01*
X154288618Y-93319039D01*
X154273736Y-93331035D01*
X154273735Y-93331034D01*
X154270357Y-93333756D01*
X154270353Y-93333758D01*
X154211295Y-93381363D01*
X154199756Y-93390665D01*
X154197186Y-93392738D01*
X154197181Y-93392742D01*
X153721203Y-93776430D01*
X153721176Y-93776452D01*
X153645950Y-93837012D01*
X153644613Y-93838419D01*
X153606841Y-93855194D01*
X153568270Y-93840346D01*
X153558713Y-93828211D01*
X153526931Y-93773163D01*
X153526929Y-93773161D01*
X153526928Y-93773159D01*
X153467256Y-93713487D01*
X153467253Y-93713485D01*
X153467251Y-93713483D01*
X153394174Y-93671292D01*
X153312659Y-93649451D01*
X153228269Y-93649451D01*
X153228268Y-93649451D01*
X153146753Y-93671292D01*
X153073676Y-93713483D01*
X153073674Y-93713485D01*
X153073672Y-93713487D01*
X153014000Y-93773159D01*
X153013998Y-93773161D01*
X153013998Y-93773162D01*
X153013996Y-93773163D01*
X152971805Y-93846240D01*
X152949964Y-93927755D01*
X152949964Y-94012146D01*
X152971805Y-94093660D01*
X153014248Y-94167173D01*
X153019643Y-94208149D01*
X152994483Y-94240938D01*
X152953508Y-94246333D01*
X152892746Y-94230053D01*
X152892744Y-94230053D01*
X152808354Y-94230053D01*
X152808353Y-94230053D01*
X152726838Y-94251894D01*
X152653761Y-94294085D01*
X152653759Y-94294087D01*
X152653757Y-94294089D01*
X152594085Y-94353761D01*
X152594083Y-94353763D01*
X152594083Y-94353764D01*
X152594081Y-94353765D01*
X152551890Y-94426842D01*
X152530049Y-94508357D01*
X152530049Y-94592750D01*
X152550190Y-94667922D01*
X152544795Y-94708898D01*
X152512005Y-94734057D01*
X152471030Y-94728662D01*
X152423709Y-94701341D01*
X152360524Y-94684411D01*
X152327735Y-94659251D01*
X152320500Y-94632251D01*
X152320500Y-94617812D01*
X152320500Y-94617811D01*
X152298659Y-94536297D01*
X152285987Y-94514349D01*
X152256467Y-94463218D01*
X152256465Y-94463216D01*
X152256464Y-94463214D01*
X152196792Y-94403542D01*
X152196789Y-94403540D01*
X152196787Y-94403538D01*
X152123710Y-94361347D01*
X152042195Y-94339506D01*
X151957805Y-94339506D01*
X151957804Y-94339506D01*
X151876289Y-94361347D01*
X151803212Y-94403538D01*
X151803210Y-94403540D01*
X151803208Y-94403542D01*
X151743536Y-94463214D01*
X151743534Y-94463216D01*
X151743534Y-94463217D01*
X151743532Y-94463218D01*
X151701341Y-94536295D01*
X151679500Y-94617810D01*
X151679500Y-94632251D01*
X151674602Y-94644074D01*
X151673581Y-94656832D01*
X151667171Y-94662014D01*
X151663684Y-94670435D01*
X151642117Y-94683631D01*
X151640810Y-94684053D01*
X151576291Y-94701341D01*
X151562197Y-94709478D01*
X151556759Y-94711237D01*
X151541418Y-94710008D01*
X151526163Y-94712016D01*
X151521464Y-94708410D01*
X151515561Y-94707938D01*
X151505583Y-94696223D01*
X151493375Y-94686855D01*
X151492602Y-94680982D01*
X151488762Y-94676474D01*
X151489990Y-94661133D01*
X151487983Y-94645878D01*
X151491985Y-94636215D01*
X151492061Y-94635276D01*
X151492546Y-94634862D01*
X151493378Y-94632855D01*
X151493727Y-94632251D01*
X151498659Y-94623709D01*
X151520500Y-94542195D01*
X151520500Y-94457805D01*
X151498659Y-94376291D01*
X151487384Y-94356762D01*
X151456467Y-94303212D01*
X151456465Y-94303210D01*
X151456464Y-94303208D01*
X151396792Y-94243536D01*
X151396789Y-94243534D01*
X151396787Y-94243532D01*
X151323710Y-94201341D01*
X151242195Y-94179500D01*
X151157805Y-94179500D01*
X151157802Y-94179500D01*
X151082351Y-94199716D01*
X151041375Y-94194321D01*
X151016216Y-94161531D01*
X151021610Y-94120557D01*
X151048659Y-94073709D01*
X151070500Y-93992195D01*
X151070500Y-93907805D01*
X151048659Y-93826291D01*
X151048658Y-93826289D01*
X151006467Y-93753212D01*
X151006465Y-93753210D01*
X151006464Y-93753208D01*
X150946792Y-93693536D01*
X150946789Y-93693534D01*
X150946787Y-93693532D01*
X150873710Y-93651341D01*
X150792195Y-93629500D01*
X150707805Y-93629500D01*
X150707804Y-93629500D01*
X150626289Y-93651341D01*
X150553212Y-93693532D01*
X150553210Y-93693534D01*
X150553208Y-93693536D01*
X150493536Y-93753208D01*
X150493534Y-93753210D01*
X150493534Y-93753211D01*
X150493532Y-93753212D01*
X150451340Y-93826291D01*
X150450509Y-93828298D01*
X150449735Y-93829071D01*
X150449571Y-93829356D01*
X150449494Y-93829312D01*
X150444524Y-93834281D01*
X150441978Y-93842351D01*
X150430462Y-93848342D01*
X150421282Y-93857521D01*
X150412820Y-93857520D01*
X150405313Y-93861426D01*
X150394993Y-93857519D01*
X150379953Y-93857518D01*
X150365900Y-93848987D01*
X150363571Y-93847032D01*
X150354061Y-93837025D01*
X150295852Y-93790164D01*
X150294652Y-93789197D01*
X150286729Y-93782810D01*
X150286728Y-93782809D01*
X150256521Y-93758458D01*
X150256521Y-93758457D01*
X150256514Y-93758453D01*
X149725772Y-93330619D01*
X149725314Y-93330319D01*
X149711424Y-93319119D01*
X149703610Y-93315304D01*
X149579733Y-93254825D01*
X149437035Y-93221438D01*
X149290494Y-93220635D01*
X149290490Y-93220636D01*
X149147435Y-93252457D01*
X149015049Y-93315304D01*
X148899961Y-93406029D01*
X148807938Y-93520087D01*
X148743600Y-93651754D01*
X148710166Y-93794438D01*
X148709312Y-93940982D01*
X148709313Y-93940987D01*
X148709313Y-93940988D01*
X148741076Y-94084012D01*
X148741084Y-94084050D01*
X148741086Y-94084055D01*
X148803884Y-94216457D01*
X148894572Y-94331581D01*
X148944763Y-94372101D01*
X148944762Y-94372101D01*
X148944766Y-94372102D01*
X149026884Y-94438411D01*
X149046655Y-94474705D01*
X149034972Y-94514349D01*
X148998678Y-94534120D01*
X148992959Y-94534424D01*
X147573360Y-94534424D01*
X147535471Y-94518900D01*
X147535174Y-94518608D01*
X147269493Y-94256982D01*
X147266704Y-94254019D01*
X146946659Y-93887312D01*
X146944095Y-93884141D01*
X146770342Y-93651757D01*
X146652626Y-93494319D01*
X146650327Y-93490989D01*
X146403418Y-93102784D01*
X146396272Y-93062077D01*
X146420003Y-93028239D01*
X146454266Y-93020658D01*
X146454266Y-93020500D01*
X146454983Y-93020500D01*
X146456036Y-93020267D01*
X146457805Y-93020500D01*
X146542194Y-93020500D01*
X146542195Y-93020500D01*
X146623709Y-92998659D01*
X146696792Y-92956464D01*
X146756464Y-92896792D01*
X146798659Y-92823709D01*
X146820500Y-92742195D01*
X146820500Y-92657805D01*
X146798659Y-92576291D01*
X146785692Y-92553831D01*
X146756467Y-92503212D01*
X146756465Y-92503210D01*
X146756464Y-92503208D01*
X146696792Y-92443536D01*
X146696789Y-92443534D01*
X146696787Y-92443532D01*
X146623710Y-92401341D01*
X146542195Y-92379500D01*
X146457805Y-92379500D01*
X146457804Y-92379500D01*
X146376289Y-92401341D01*
X146303212Y-92443532D01*
X146303210Y-92443534D01*
X146303208Y-92443536D01*
X146243536Y-92503208D01*
X146243534Y-92503210D01*
X146211836Y-92558111D01*
X146179046Y-92583270D01*
X146138070Y-92577875D01*
X146115665Y-92552904D01*
X145959349Y-92198527D01*
X145957858Y-92194771D01*
X145795576Y-91735851D01*
X145794372Y-91731988D01*
X145667188Y-91262154D01*
X145666274Y-91258185D01*
X145601740Y-90920500D01*
X145574909Y-90780101D01*
X145574301Y-90776111D01*
X145519267Y-90292458D01*
X145518963Y-90288421D01*
X145500586Y-89802037D01*
X145500586Y-89797961D01*
X145502277Y-89753208D01*
X145518963Y-89311576D01*
X145519267Y-89307543D01*
X145574301Y-88823885D01*
X145574907Y-88819905D01*
X145578205Y-88802646D01*
X146024500Y-88802646D01*
X146024500Y-88898298D01*
X146057120Y-89041211D01*
X146077295Y-89083103D01*
X146120724Y-89173282D01*
X146212115Y-89287880D01*
X146212122Y-89287889D01*
X146212125Y-89287892D01*
X146324373Y-89377404D01*
X146326732Y-89379285D01*
X146458806Y-89442885D01*
X146458807Y-89442885D01*
X146458809Y-89442886D01*
X146604677Y-89476177D01*
X146604430Y-89477258D01*
X146610962Y-89480865D01*
X146622101Y-89482332D01*
X146628338Y-89490461D01*
X146637309Y-89495415D01*
X146640422Y-89506208D01*
X146647261Y-89515121D01*
X146645923Y-89525280D01*
X146648763Y-89535125D01*
X146641866Y-89556097D01*
X146612529Y-89606910D01*
X146579740Y-89632070D01*
X146551790Y-89632071D01*
X146542195Y-89629500D01*
X146457805Y-89629500D01*
X146457804Y-89629500D01*
X146376289Y-89651341D01*
X146303212Y-89693532D01*
X146303210Y-89693534D01*
X146303208Y-89693536D01*
X146243536Y-89753208D01*
X146243534Y-89753210D01*
X146243534Y-89753211D01*
X146243532Y-89753212D01*
X146201341Y-89826289D01*
X146179500Y-89907804D01*
X146179500Y-89992195D01*
X146201341Y-90073710D01*
X146243532Y-90146787D01*
X146243534Y-90146789D01*
X146243536Y-90146792D01*
X146303208Y-90206464D01*
X146303210Y-90206465D01*
X146303212Y-90206467D01*
X146376288Y-90248658D01*
X146376290Y-90248658D01*
X146376291Y-90248659D01*
X146382113Y-90250219D01*
X146414903Y-90275376D01*
X146420300Y-90316352D01*
X146404585Y-90339908D01*
X146405711Y-90341034D01*
X146403210Y-90343534D01*
X146403208Y-90343536D01*
X146343536Y-90403208D01*
X146343534Y-90403210D01*
X146343534Y-90403211D01*
X146343532Y-90403212D01*
X146301341Y-90476289D01*
X146279500Y-90557804D01*
X146279500Y-90642195D01*
X146301341Y-90723710D01*
X146343532Y-90796787D01*
X146343534Y-90796789D01*
X146343536Y-90796792D01*
X146403208Y-90856464D01*
X146403210Y-90856465D01*
X146403212Y-90856467D01*
X146476289Y-90898658D01*
X146476291Y-90898659D01*
X146557805Y-90920500D01*
X146557806Y-90920500D01*
X146642194Y-90920500D01*
X146642195Y-90920500D01*
X146723709Y-90898659D01*
X146796792Y-90856464D01*
X146856464Y-90796792D01*
X146898659Y-90723709D01*
X146920500Y-90642195D01*
X146920500Y-90617748D01*
X146936316Y-90579564D01*
X146960522Y-90565589D01*
X147023709Y-90548659D01*
X147096792Y-90506464D01*
X147107327Y-90495928D01*
X147145510Y-90480113D01*
X147183694Y-90495929D01*
X147199510Y-90534113D01*
X147199510Y-91577622D01*
X147199500Y-91577646D01*
X147199500Y-91698417D01*
X147230291Y-91892826D01*
X147230294Y-91892835D01*
X147291116Y-92080026D01*
X147380475Y-92255403D01*
X147380479Y-92255409D01*
X147496176Y-92414650D01*
X147635359Y-92553833D01*
X147635362Y-92553835D01*
X147635364Y-92553837D01*
X147794600Y-92669527D01*
X147794605Y-92669530D01*
X147969978Y-92758886D01*
X147969983Y-92758888D01*
X148157184Y-92819711D01*
X148351595Y-92850501D01*
X148450013Y-92850500D01*
X155505844Y-92850500D01*
X155527637Y-92850500D01*
X155527661Y-92850509D01*
X155550014Y-92850509D01*
X155550014Y-92850510D01*
X155648430Y-92850509D01*
X155842840Y-92819716D01*
X156030039Y-92758889D01*
X156205417Y-92669528D01*
X156364658Y-92553831D01*
X156503839Y-92414648D01*
X156619534Y-92255407D01*
X156708894Y-92080027D01*
X156769719Y-91892828D01*
X156794883Y-91733946D01*
X156800510Y-91698419D01*
X156800510Y-89529500D01*
X156816326Y-89491316D01*
X156854510Y-89475500D01*
X157280845Y-89475500D01*
X157280848Y-89475501D01*
X157302642Y-89475500D01*
X157302667Y-89475510D01*
X157325018Y-89475509D01*
X157325018Y-89475510D01*
X157398311Y-89475508D01*
X157541223Y-89442886D01*
X157673292Y-89379282D01*
X157787897Y-89287884D01*
X157879291Y-89173277D01*
X157942892Y-89041206D01*
X157975510Y-88898294D01*
X157975510Y-88825000D01*
X157975510Y-88780830D01*
X157975510Y-88725171D01*
X157975510Y-88720071D01*
X157975500Y-88719967D01*
X157975500Y-88701708D01*
X157975499Y-88701700D01*
X157942882Y-88558798D01*
X157942882Y-88558796D01*
X157879282Y-88426728D01*
X157811567Y-88341814D01*
X157787892Y-88312125D01*
X157787889Y-88312122D01*
X157764601Y-88293550D01*
X157673286Y-88220727D01*
X157673278Y-88220723D01*
X157541220Y-88157123D01*
X157398310Y-88124501D01*
X157379197Y-88124501D01*
X157379197Y-88124500D01*
X157374839Y-88124500D01*
X157325018Y-88124500D01*
X157280848Y-88124499D01*
X157280847Y-88124499D01*
X157276502Y-88124499D01*
X157276490Y-88124500D01*
X156854510Y-88124500D01*
X156816326Y-88108684D01*
X156800510Y-88070500D01*
X156800510Y-87945071D01*
X156800500Y-87944967D01*
X156800500Y-87901581D01*
X156784989Y-87803648D01*
X156769709Y-87707175D01*
X156708885Y-87519977D01*
X156687895Y-87478781D01*
X156687894Y-87478778D01*
X156677207Y-87457804D01*
X157279500Y-87457804D01*
X157279500Y-87542195D01*
X157301341Y-87623710D01*
X157343532Y-87696787D01*
X157343534Y-87696789D01*
X157343536Y-87696792D01*
X157403208Y-87756464D01*
X157403210Y-87756465D01*
X157403212Y-87756467D01*
X157476289Y-87798658D01*
X157476291Y-87798659D01*
X157557805Y-87820500D01*
X157557806Y-87820500D01*
X157642194Y-87820500D01*
X157642195Y-87820500D01*
X157723709Y-87798659D01*
X157796792Y-87756464D01*
X157856464Y-87696792D01*
X157898659Y-87623709D01*
X157920500Y-87542195D01*
X157920500Y-87457805D01*
X157898659Y-87376291D01*
X157880361Y-87344598D01*
X157856467Y-87303212D01*
X157856465Y-87303210D01*
X157856464Y-87303208D01*
X157796792Y-87243536D01*
X157796789Y-87243534D01*
X157796787Y-87243532D01*
X157723710Y-87201341D01*
X157642195Y-87179500D01*
X157557805Y-87179500D01*
X157557804Y-87179500D01*
X157476289Y-87201341D01*
X157403212Y-87243532D01*
X157403210Y-87243534D01*
X157403208Y-87243536D01*
X157343536Y-87303208D01*
X157343534Y-87303210D01*
X157343534Y-87303211D01*
X157343532Y-87303212D01*
X157301341Y-87376289D01*
X157279500Y-87457804D01*
X156677207Y-87457804D01*
X156619528Y-87344601D01*
X156619525Y-87344596D01*
X156503835Y-87185362D01*
X156503830Y-87185356D01*
X156364656Y-87046179D01*
X156364650Y-87046174D01*
X156205413Y-86930481D01*
X156030035Y-86841120D01*
X155842841Y-86780295D01*
X155842836Y-86780293D01*
X155648425Y-86749500D01*
X155599840Y-86749500D01*
X155599839Y-86749500D01*
X148400182Y-86749500D01*
X148395181Y-86749500D01*
X148395084Y-86749509D01*
X148351596Y-86749509D01*
X148157183Y-86780298D01*
X147969983Y-86841122D01*
X147969982Y-86841123D01*
X147794610Y-86930478D01*
X147794605Y-86930481D01*
X147635370Y-87046171D01*
X147635364Y-87046176D01*
X147496186Y-87185351D01*
X147496181Y-87185357D01*
X147380487Y-87344595D01*
X147380487Y-87344596D01*
X147291125Y-87519976D01*
X147230303Y-87707166D01*
X147230300Y-87707177D01*
X147199510Y-87901582D01*
X147199510Y-88070500D01*
X147183694Y-88108684D01*
X147145510Y-88124500D01*
X146620299Y-88124500D01*
X146620212Y-88124508D01*
X146601722Y-88124508D01*
X146601719Y-88124508D01*
X146601714Y-88124509D01*
X146458818Y-88157121D01*
X146458811Y-88157123D01*
X146326739Y-88220723D01*
X146212128Y-88312118D01*
X146120733Y-88426723D01*
X146120730Y-88426727D01*
X146057129Y-88558792D01*
X146024510Y-88701700D01*
X146024510Y-88802622D01*
X146024500Y-88802646D01*
X145578205Y-88802646D01*
X145666276Y-88341802D01*
X145667190Y-88337840D01*
X145794374Y-87868003D01*
X145795573Y-87864155D01*
X145939267Y-87457804D01*
X146079500Y-87457804D01*
X146079500Y-87542195D01*
X146101341Y-87623710D01*
X146143532Y-87696787D01*
X146143534Y-87696789D01*
X146143536Y-87696792D01*
X146203208Y-87756464D01*
X146203210Y-87756465D01*
X146203212Y-87756467D01*
X146276289Y-87798658D01*
X146276291Y-87798659D01*
X146357805Y-87820500D01*
X146357806Y-87820500D01*
X146442194Y-87820500D01*
X146442195Y-87820500D01*
X146523709Y-87798659D01*
X146596792Y-87756464D01*
X146656464Y-87696792D01*
X146698659Y-87623709D01*
X146720500Y-87542195D01*
X146720500Y-87457805D01*
X146698659Y-87376291D01*
X146680361Y-87344598D01*
X146656467Y-87303212D01*
X146656465Y-87303210D01*
X146656464Y-87303208D01*
X146596792Y-87243536D01*
X146596789Y-87243534D01*
X146596787Y-87243532D01*
X146523710Y-87201341D01*
X146442195Y-87179500D01*
X146357805Y-87179500D01*
X146357804Y-87179500D01*
X146276289Y-87201341D01*
X146203212Y-87243532D01*
X146203210Y-87243534D01*
X146203208Y-87243536D01*
X146143536Y-87303208D01*
X146143534Y-87303210D01*
X146143534Y-87303211D01*
X146143532Y-87303212D01*
X146101341Y-87376289D01*
X146079500Y-87457804D01*
X145939267Y-87457804D01*
X145957857Y-87405233D01*
X145959345Y-87401481D01*
X146155788Y-86956134D01*
X146157568Y-86952479D01*
X146171115Y-86927138D01*
X146387057Y-86523222D01*
X146389098Y-86519730D01*
X146650335Y-86108997D01*
X146652617Y-86105692D01*
X146944098Y-85715853D01*
X146946659Y-85712687D01*
X147227329Y-85391096D01*
X147266708Y-85345975D01*
X147269483Y-85343027D01*
X147535471Y-85081099D01*
X147573360Y-85065576D01*
X148992958Y-85065576D01*
X148995764Y-85066738D01*
X148998678Y-85065880D01*
X149014495Y-85074496D01*
X149031142Y-85081392D01*
X149032304Y-85084198D01*
X149034972Y-85085652D01*
X149040063Y-85102931D01*
X149046958Y-85119576D01*
X149045795Y-85122382D01*
X149046654Y-85125296D01*
X149038037Y-85141113D01*
X149031142Y-85157760D01*
X149026882Y-85161590D01*
X148984693Y-85195656D01*
X148978021Y-85200218D01*
X148945676Y-85227155D01*
X148945045Y-85227672D01*
X148907319Y-85258135D01*
X148901857Y-85263590D01*
X148887831Y-85275258D01*
X148887827Y-85275262D01*
X148804950Y-85383583D01*
X148799202Y-85391096D01*
X148796007Y-85398066D01*
X148738420Y-85523681D01*
X148708504Y-85666431D01*
X148708503Y-85666437D01*
X148710935Y-85812263D01*
X148745595Y-85953936D01*
X148745596Y-85953939D01*
X148810761Y-86084418D01*
X148810762Y-86084419D01*
X148810763Y-86084420D01*
X148810764Y-86084422D01*
X148830922Y-86109023D01*
X148900529Y-86193974D01*
X148903205Y-86197239D01*
X149018331Y-86286788D01*
X149098852Y-86324482D01*
X149150421Y-86348623D01*
X149150422Y-86348623D01*
X149150426Y-86348625D01*
X149292934Y-86379680D01*
X149438781Y-86378412D01*
X149580727Y-86344883D01*
X149711727Y-86280758D01*
X149768450Y-86234978D01*
X150260277Y-85838512D01*
X150260281Y-85838511D01*
X150277281Y-85824805D01*
X150277319Y-85824794D01*
X150277313Y-85824787D01*
X150294681Y-85810805D01*
X150354077Y-85762989D01*
X150355385Y-85761611D01*
X150393150Y-85744825D01*
X150431726Y-85759658D01*
X150441297Y-85771807D01*
X150473068Y-85826836D01*
X150473070Y-85826838D01*
X150473072Y-85826841D01*
X150532744Y-85886513D01*
X150532746Y-85886514D01*
X150532748Y-85886516D01*
X150605825Y-85928707D01*
X150605827Y-85928708D01*
X150687341Y-85950549D01*
X150687342Y-85950549D01*
X150771730Y-85950549D01*
X150771731Y-85950549D01*
X150853245Y-85928708D01*
X150926328Y-85886513D01*
X150986000Y-85826841D01*
X150991572Y-85817191D01*
X150994916Y-85811396D01*
X151028195Y-85753758D01*
X151050036Y-85672244D01*
X151050036Y-85587854D01*
X151028195Y-85506340D01*
X150986000Y-85433257D01*
X150985998Y-85433255D01*
X150985751Y-85432827D01*
X150980356Y-85391850D01*
X151005515Y-85359061D01*
X151046492Y-85353666D01*
X151058913Y-85356994D01*
X151107256Y-85369947D01*
X151107257Y-85369947D01*
X151191645Y-85369947D01*
X151191646Y-85369947D01*
X151273160Y-85348106D01*
X151346243Y-85305911D01*
X151405915Y-85246239D01*
X151448110Y-85173156D01*
X151469951Y-85091642D01*
X151469951Y-85007252D01*
X151449809Y-84932078D01*
X151455204Y-84891101D01*
X151487993Y-84865942D01*
X151528968Y-84871336D01*
X151576291Y-84898659D01*
X151639476Y-84915588D01*
X151672265Y-84940747D01*
X151679500Y-84967748D01*
X151679500Y-84982189D01*
X151701341Y-85063704D01*
X151743532Y-85136781D01*
X151743534Y-85136783D01*
X151743536Y-85136786D01*
X151803208Y-85196458D01*
X151803210Y-85196459D01*
X151803212Y-85196461D01*
X151869444Y-85234700D01*
X151876291Y-85238653D01*
X151957805Y-85260494D01*
X151957806Y-85260494D01*
X152042194Y-85260494D01*
X152042195Y-85260494D01*
X152123709Y-85238653D01*
X152196792Y-85196458D01*
X152256464Y-85136786D01*
X152298659Y-85063703D01*
X152320500Y-84982189D01*
X152320500Y-84967748D01*
X152336316Y-84929564D01*
X152360522Y-84915589D01*
X152423709Y-84898659D01*
X152471042Y-84871331D01*
X152512018Y-84865936D01*
X152544807Y-84891096D01*
G37*
%TD.AperFunction*%
%TD*%
M02*
