M48
; DRILL file {KiCad 9.0.1} date 2025-07-16T17:40:14-0400
; FORMAT={-:-/ absolute / metric / decimal}
; #@! TF.CreationDate,2025-07-16T17:40:14-04:00
; #@! TF.GenerationSoftware,Kicad,Pcbnew,9.0.1
; #@! TF.FileFunction,Plated,1,4,PTH
FMAT,2
METRIC
; #@! TA.AperFunction,Plated,PTH,ViaDrill
T1C0.200
%
G90
G05
T1
X146.4Y-87.5
X146.5Y-89.95
X146.5Y-92.7
X146.6Y-90.6
X146.9Y-89.75
X146.9Y-90.25
X148.55Y-85.275
X148.55Y-94.325
X150.346Y-86.047
X150.351Y-93.548
X150.73Y-85.63
X150.75Y-93.95
X151.149Y-85.049
X151.2Y-94.5
X151.7Y-84.6
X151.7Y-95.0
X152.0Y-84.25
X152.0Y-84.94
X152.0Y-94.66
X152.0Y-95.35
X152.3Y-84.6
X152.3Y-95.0
X152.851Y-94.551
X152.851Y-85.049
X153.26Y-85.613
X153.27Y-93.97
X153.649Y-86.052
X153.654Y-93.553
X155.45Y-85.275
X155.45Y-94.325
X157.1Y-89.75
X157.1Y-90.25
X157.4Y-90.6
X157.5Y-89.95
X157.5Y-92.7
X157.6Y-87.5
M30
