M48
; DRILL file {KiCad 9.0.3} date 2025-08-06T20:18:38-0400
; FORMAT={-:-/ absolute / metric / decimal}
; #@! TF.CreationDate,2025-08-06T20:18:38-04:00
; #@! TF.GenerationSoftware,Kicad,Pcbnew,9.0.3
; #@! TF.FileFunction,NonPlated,1,4,NPTH
FMAT,2
METRIC
; #@! TA.AperFunction,NonPlated,NPTH,ComponentDrill
T1C0.450
; #@! TA.AperFunction,NonPlated,NPTH,ComponentDrill
T2C0.600
; #@! TA.AperFunction,NonPlated,NPTH,ComponentDrill
T3C0.650
; #@! TA.AperFunction,NonPlated,NPTH,ComponentDrill
T4C0.700
; #@! TA.AperFunction,NonPlated,NPTH,ComponentDrill
T5C2.000
%
G90
G05
T1
X96.8Y-142.8
X97.6Y-142.8
X98.4Y-142.8
X101.3Y-129.8
X101.937Y-106.187
X101.937Y-78.187
X101.937Y-92.187
X101.937Y-120.187
X102.1Y-129.8
X102.3Y-106.9
X102.3Y-78.9
X102.3Y-92.9
X102.3Y-120.9
X102.663Y-107.613
X102.663Y-79.613
X102.663Y-93.613
X102.663Y-121.613
X102.9Y-129.8
X106.7Y-142.8
X107.5Y-142.8
X108.3Y-142.8
X110.7Y-129.8
X111.5Y-129.8
X112.3Y-129.8
X113.337Y-107.613
X113.337Y-79.613
X113.337Y-93.613
X113.337Y-121.613
X113.7Y-106.9
X113.7Y-78.9
X113.7Y-92.9
X113.7Y-120.9
X114.063Y-106.187
X114.063Y-78.187
X114.063Y-92.187
X114.063Y-120.187
X120.937Y-106.187
X120.937Y-78.187
X120.937Y-92.187
X120.937Y-120.187
X121.3Y-106.9
X121.3Y-78.9
X121.3Y-92.9
X121.3Y-120.9
X121.663Y-107.613
X121.663Y-79.613
X121.663Y-93.613
X121.663Y-121.613
X122.5Y-142.8
X123.3Y-142.8
X124.1Y-142.8
X127.0Y-129.8
X127.8Y-129.8
X128.6Y-129.8
X132.337Y-107.613
X132.337Y-79.613
X132.337Y-93.613
X132.337Y-121.613
X132.4Y-142.8
X132.7Y-106.9
X132.7Y-78.9
X132.7Y-92.9
X132.7Y-120.9
X133.063Y-106.187
X133.063Y-78.187
X133.063Y-92.187
X133.063Y-120.187
X133.2Y-142.8
X134.0Y-142.8
X136.4Y-129.8
X137.2Y-129.8
X138.0Y-129.8
X139.937Y-106.187
X139.937Y-78.187
X139.937Y-92.187
X139.937Y-120.187
X140.3Y-106.9
X140.3Y-78.9
X140.3Y-92.9
X140.3Y-120.9
X140.663Y-107.613
X140.663Y-79.613
X140.663Y-93.613
X140.663Y-121.613
X148.2Y-142.8
X149.0Y-142.8
X149.8Y-142.8
X151.337Y-107.613
X151.337Y-79.613
X151.337Y-93.613
X151.337Y-121.613
X151.7Y-106.9
X151.7Y-78.9
X151.7Y-92.9
X151.7Y-120.9
X152.063Y-106.187
X152.063Y-78.187
X152.063Y-92.187
X152.063Y-120.187
X152.7Y-129.8
X153.5Y-129.8
X154.3Y-129.8
X158.1Y-142.8
X158.9Y-142.8
X158.937Y-106.187
X158.937Y-78.187
X158.937Y-92.187
X158.937Y-120.187
X159.3Y-106.9
X159.3Y-78.9
X159.3Y-92.9
X159.3Y-120.9
X159.663Y-107.613
X159.663Y-79.613
X159.663Y-93.613
X159.663Y-121.613
X159.7Y-142.8
X162.1Y-129.8
X162.9Y-129.8
X163.7Y-129.8
X170.337Y-107.613
X170.337Y-79.613
X170.337Y-93.613
X170.337Y-121.613
X170.7Y-106.9
X170.7Y-78.9
X170.7Y-92.9
X170.7Y-120.9
X171.063Y-106.187
X171.063Y-78.187
X171.063Y-92.187
X171.063Y-120.187
X173.9Y-142.8
X174.7Y-142.8
X175.5Y-142.8
X177.937Y-106.187
X177.937Y-78.187
X177.937Y-92.187
X177.937Y-120.187
X178.3Y-106.9
X178.3Y-78.9
X178.3Y-92.9
X178.3Y-120.9
X178.4Y-129.8
X178.663Y-107.613
X178.663Y-79.613
X178.663Y-93.613
X178.663Y-121.613
X179.2Y-129.8
X180.0Y-129.8
X183.8Y-142.8
X184.6Y-142.8
X185.4Y-142.8
X187.8Y-129.8
X188.6Y-129.8
X189.337Y-107.613
X189.337Y-79.613
X189.337Y-93.613
X189.337Y-121.613
X189.4Y-129.8
X189.7Y-106.9
X189.7Y-78.9
X189.7Y-92.9
X189.7Y-120.9
X190.063Y-106.187
X190.063Y-78.187
X190.063Y-92.187
X190.063Y-120.187
T2
X95.925Y-142.875
X99.275Y-142.875
X100.425Y-129.725
X101.473Y-105.442
X101.473Y-77.442
X101.473Y-91.442
X101.473Y-119.442
X102.994Y-108.426
X102.994Y-80.426
X102.994Y-94.426
X102.994Y-122.426
X103.775Y-129.725
X105.825Y-142.875
X109.175Y-142.875
X109.825Y-129.725
X113.006Y-108.426
X113.006Y-80.426
X113.006Y-94.426
X113.006Y-122.426
X113.175Y-129.725
X114.527Y-105.442
X114.527Y-77.442
X114.527Y-91.442
X114.527Y-119.442
X120.473Y-105.442
X120.473Y-77.442
X120.473Y-91.442
X120.473Y-119.442
X121.625Y-142.875
X121.994Y-108.426
X121.994Y-80.426
X121.994Y-94.426
X121.994Y-122.426
X124.975Y-142.875
X126.125Y-129.725
X129.475Y-129.725
X131.525Y-142.875
X132.006Y-108.426
X132.006Y-80.426
X132.006Y-94.426
X132.006Y-122.426
X133.527Y-105.442
X133.527Y-77.442
X133.527Y-91.442
X133.527Y-119.442
X134.875Y-142.875
X135.525Y-129.725
X138.875Y-129.725
X139.473Y-105.442
X139.473Y-77.442
X139.473Y-91.442
X139.473Y-119.442
X140.994Y-108.426
X140.994Y-80.426
X140.994Y-94.426
X140.994Y-122.426
X147.325Y-142.875
X150.675Y-142.875
X151.006Y-108.426
X151.006Y-80.426
X151.006Y-94.426
X151.006Y-122.426
X151.825Y-129.725
X152.527Y-105.442
X152.527Y-77.442
X152.527Y-91.442
X152.527Y-119.442
X155.175Y-129.725
X157.225Y-142.875
X158.473Y-105.442
X158.473Y-77.442
X158.473Y-91.442
X158.473Y-119.442
X159.994Y-108.426
X159.994Y-80.426
X159.994Y-94.426
X159.994Y-122.426
X160.575Y-142.875
X161.225Y-129.725
X164.575Y-129.725
X170.006Y-108.426
X170.006Y-80.426
X170.006Y-94.426
X170.006Y-122.426
X171.527Y-105.442
X171.527Y-77.442
X171.527Y-91.442
X171.527Y-119.442
X173.025Y-142.875
X176.375Y-142.875
X177.473Y-105.442
X177.473Y-77.442
X177.473Y-91.442
X177.473Y-119.442
X177.525Y-129.725
X178.994Y-108.426
X178.994Y-80.427
X178.994Y-94.427
X178.994Y-122.427
X180.875Y-129.725
X182.925Y-142.875
X186.275Y-142.875
X186.925Y-129.725
X189.006Y-108.426
X189.006Y-80.427
X189.006Y-94.427
X189.006Y-122.427
X190.275Y-129.725
X190.527Y-105.442
X190.527Y-77.442
X190.527Y-91.442
X190.527Y-119.442
T3
X113.695Y-133.41
X113.695Y-139.19
X139.395Y-133.41
X139.395Y-139.19
X165.095Y-133.41
X165.095Y-139.19
X190.795Y-133.41
X190.795Y-139.19
T4
X116.0Y-136.3
X117.8Y-136.3
X141.7Y-136.3
X143.5Y-136.3
X167.4Y-136.3
X169.2Y-136.3
X193.1Y-136.3
X194.9Y-136.3
T5
X98.0Y-65.0
X98.0Y-147.4
X194.8Y-65.0
X194.8Y-147.4
M30
