%TF.GenerationSoftware,KiCad,Pcbnew,9.0.3*%
%TF.CreationDate,2025-08-06T20:18:33-04:00*%
%TF.ProjectId,flowstick_main_panel,666c6f77-7374-4696-936b-5f6d61696e5f,rev?*%
%TF.SameCoordinates,Original*%
%TF.FileFunction,Paste,Bot*%
%TF.FilePolarity,Positive*%
%FSLAX46Y46*%
G04 Gerber Fmt 4.6, Leading zero omitted, Abs format (unit mm)*
G04 Created by KiCad (PCBNEW 9.0.3) date 2025-08-06 20:18:33*
%MOMM*%
%LPD*%
G01*
G04 APERTURE LIST*
G04 Aperture macros list*
%AMRoundRect*
0 Rectangle with rounded corners*
0 $1 Rounding radius*
0 $2 $3 $4 $5 $6 $7 $8 $9 X,Y pos of 4 corners*
0 Add a 4 corners polygon primitive as box body*
4,1,4,$2,$3,$4,$5,$6,$7,$8,$9,$2,$3,0*
0 Add four circle primitives for the rounded corners*
1,1,$1+$1,$2,$3*
1,1,$1+$1,$4,$5*
1,1,$1+$1,$6,$7*
1,1,$1+$1,$8,$9*
0 Add four rect primitives between the rounded corners*
20,1,$1+$1,$2,$3,$4,$5,0*
20,1,$1+$1,$4,$5,$6,$7,0*
20,1,$1+$1,$6,$7,$8,$9,0*
20,1,$1+$1,$8,$9,$2,$3,0*%
G04 Aperture macros list end*
%ADD10RoundRect,0.125000X0.125000X-0.537500X0.125000X0.537500X-0.125000X0.537500X-0.125000X-0.537500X0*%
%ADD11RoundRect,0.079500X0.079500X0.100500X-0.079500X0.100500X-0.079500X-0.100500X0.079500X-0.100500X0*%
%ADD12RoundRect,0.150000X-0.512500X-0.150000X0.512500X-0.150000X0.512500X0.150000X-0.512500X0.150000X0*%
%ADD13RoundRect,0.250000X0.650000X-0.325000X0.650000X0.325000X-0.650000X0.325000X-0.650000X-0.325000X0*%
%ADD14R,1.500000X4.000000*%
%ADD15RoundRect,0.140000X0.170000X-0.140000X0.170000X0.140000X-0.170000X0.140000X-0.170000X-0.140000X0*%
%ADD16RoundRect,0.150000X-0.425000X0.150000X-0.425000X-0.150000X0.425000X-0.150000X0.425000X0.150000X0*%
%ADD17RoundRect,0.075000X-0.500000X0.075000X-0.500000X-0.075000X0.500000X-0.075000X0.500000X0.075000X0*%
%ADD18O,1.800000X1.000000*%
%ADD19O,2.100000X1.000000*%
%ADD20RoundRect,0.150000X0.150000X-0.512500X0.150000X0.512500X-0.150000X0.512500X-0.150000X-0.512500X0*%
%ADD21R,0.700000X2.000000*%
%ADD22RoundRect,0.250000X-0.650000X0.325000X-0.650000X-0.325000X0.650000X-0.325000X0.650000X0.325000X0*%
%ADD23RoundRect,0.079500X-0.079500X-0.100500X0.079500X-0.100500X0.079500X0.100500X-0.079500X0.100500X0*%
G04 APERTURE END LIST*
D10*
%TO.C,U2*%
X185475000Y-134837500D03*
X184825000Y-134837500D03*
X184175000Y-134837500D03*
X183525000Y-134837500D03*
X183525000Y-132562500D03*
X184175000Y-132562500D03*
X184825000Y-132562500D03*
X185475000Y-132562500D03*
%TD*%
D11*
%TO.C,R6*%
X183845000Y-131100000D03*
X183155000Y-131100000D03*
%TD*%
D12*
%TO.C,U4*%
X173962500Y-139050000D03*
X173962500Y-138100000D03*
X173962500Y-137150000D03*
X176237500Y-137150000D03*
X176237500Y-138100000D03*
X176237500Y-139050000D03*
%TD*%
D13*
%TO.C,C10*%
X181400000Y-134200000D03*
X181400000Y-131250000D03*
%TD*%
D14*
%TO.C,L3*%
X187600000Y-138700000D03*
X184000000Y-138700000D03*
%TD*%
D15*
%TO.C,C1*%
X179100000Y-135680000D03*
X179100000Y-134720000D03*
%TD*%
D16*
%TO.C,J1*%
X189720000Y-133100000D03*
X189720000Y-133900000D03*
D17*
X189720000Y-135050000D03*
X189720000Y-136050000D03*
X189720000Y-136550000D03*
X189720000Y-137550000D03*
D16*
X189720000Y-138700000D03*
X189720000Y-139500000D03*
X189720000Y-139500000D03*
X189720000Y-138700000D03*
D17*
X189720000Y-138050000D03*
X189720000Y-137050000D03*
X189720000Y-135550000D03*
X189720000Y-134550000D03*
D16*
X189720000Y-133900000D03*
X189720000Y-133100000D03*
D18*
X194475000Y-131980000D03*
D19*
X190295000Y-131980000D03*
D18*
X194475000Y-140620000D03*
D19*
X190295000Y-140620000D03*
%TD*%
D20*
%TO.C,U3*%
X182250000Y-141237500D03*
X181300000Y-141237500D03*
X180350000Y-141237500D03*
X180350000Y-138962500D03*
X182250000Y-138962500D03*
%TD*%
D21*
%TO.C,L4*%
X181800000Y-136525000D03*
X180350000Y-136525000D03*
%TD*%
D13*
%TO.C,C9*%
X187400000Y-134975000D03*
X187400000Y-132025000D03*
%TD*%
D11*
%TO.C,R5*%
X185445000Y-131100000D03*
X184755000Y-131100000D03*
%TD*%
D22*
%TO.C,C12*%
X178400000Y-138425000D03*
X178400000Y-141375000D03*
%TD*%
D23*
%TO.C,R12*%
X177575000Y-136700000D03*
X178265000Y-136700000D03*
%TD*%
D10*
%TO.C,U2*%
X159775000Y-134837500D03*
X159125000Y-134837500D03*
X158475000Y-134837500D03*
X157825000Y-134837500D03*
X157825000Y-132562500D03*
X158475000Y-132562500D03*
X159125000Y-132562500D03*
X159775000Y-132562500D03*
%TD*%
D16*
%TO.C,J1*%
X164020000Y-133100000D03*
X164020000Y-133900000D03*
D17*
X164020000Y-135050000D03*
X164020000Y-136050000D03*
X164020000Y-136550000D03*
X164020000Y-137550000D03*
D16*
X164020000Y-138700000D03*
X164020000Y-139500000D03*
X164020000Y-139500000D03*
X164020000Y-138700000D03*
D17*
X164020000Y-138050000D03*
X164020000Y-137050000D03*
X164020000Y-135550000D03*
X164020000Y-134550000D03*
D16*
X164020000Y-133900000D03*
X164020000Y-133100000D03*
D18*
X168775000Y-131980000D03*
D19*
X164595000Y-131980000D03*
D18*
X168775000Y-140620000D03*
D19*
X164595000Y-140620000D03*
%TD*%
D23*
%TO.C,R12*%
X151875000Y-136700000D03*
X152565000Y-136700000D03*
%TD*%
D22*
%TO.C,C12*%
X152700000Y-138425000D03*
X152700000Y-141375000D03*
%TD*%
D11*
%TO.C,R5*%
X159745000Y-131100000D03*
X159055000Y-131100000D03*
%TD*%
D13*
%TO.C,C9*%
X161700000Y-134975000D03*
X161700000Y-132025000D03*
%TD*%
D21*
%TO.C,L4*%
X156100000Y-136525000D03*
X154650000Y-136525000D03*
%TD*%
D20*
%TO.C,U3*%
X156550000Y-141237500D03*
X155600000Y-141237500D03*
X154650000Y-141237500D03*
X154650000Y-138962500D03*
X156550000Y-138962500D03*
%TD*%
D15*
%TO.C,C1*%
X153400000Y-135680000D03*
X153400000Y-134720000D03*
%TD*%
D12*
%TO.C,U4*%
X148262500Y-139050000D03*
X148262500Y-138100000D03*
X148262500Y-137150000D03*
X150537500Y-137150000D03*
X150537500Y-138100000D03*
X150537500Y-139050000D03*
%TD*%
D14*
%TO.C,L3*%
X161900000Y-138700000D03*
X158300000Y-138700000D03*
%TD*%
D13*
%TO.C,C10*%
X155700000Y-134200000D03*
X155700000Y-131250000D03*
%TD*%
D11*
%TO.C,R6*%
X158145000Y-131100000D03*
X157455000Y-131100000D03*
%TD*%
D22*
%TO.C,C12*%
X127000000Y-138425000D03*
X127000000Y-141375000D03*
%TD*%
D11*
%TO.C,R6*%
X132445000Y-131100000D03*
X131755000Y-131100000D03*
%TD*%
%TO.C,R5*%
X134045000Y-131100000D03*
X133355000Y-131100000D03*
%TD*%
D10*
%TO.C,U2*%
X134075000Y-134837500D03*
X133425000Y-134837500D03*
X132775000Y-134837500D03*
X132125000Y-134837500D03*
X132125000Y-132562500D03*
X132775000Y-132562500D03*
X133425000Y-132562500D03*
X134075000Y-132562500D03*
%TD*%
D13*
%TO.C,C10*%
X130000000Y-134200000D03*
X130000000Y-131250000D03*
%TD*%
D14*
%TO.C,L3*%
X136200000Y-138700000D03*
X132600000Y-138700000D03*
%TD*%
D12*
%TO.C,U4*%
X122562500Y-139050000D03*
X122562500Y-138100000D03*
X122562500Y-137150000D03*
X124837500Y-137150000D03*
X124837500Y-138100000D03*
X124837500Y-139050000D03*
%TD*%
D15*
%TO.C,C1*%
X127700000Y-135680000D03*
X127700000Y-134720000D03*
%TD*%
D23*
%TO.C,R12*%
X126175000Y-136700000D03*
X126865000Y-136700000D03*
%TD*%
D20*
%TO.C,U3*%
X130850000Y-141237500D03*
X129900000Y-141237500D03*
X128950000Y-141237500D03*
X128950000Y-138962500D03*
X130850000Y-138962500D03*
%TD*%
D21*
%TO.C,L4*%
X130400000Y-136525000D03*
X128950000Y-136525000D03*
%TD*%
D13*
%TO.C,C9*%
X136000000Y-134975000D03*
X136000000Y-132025000D03*
%TD*%
D16*
%TO.C,J1*%
X138320000Y-133100000D03*
X138320000Y-133900000D03*
D17*
X138320000Y-135050000D03*
X138320000Y-136050000D03*
X138320000Y-136550000D03*
X138320000Y-137550000D03*
D16*
X138320000Y-138700000D03*
X138320000Y-139500000D03*
X138320000Y-139500000D03*
X138320000Y-138700000D03*
D17*
X138320000Y-138050000D03*
X138320000Y-137050000D03*
X138320000Y-135550000D03*
X138320000Y-134550000D03*
D16*
X138320000Y-133900000D03*
X138320000Y-133100000D03*
D18*
X143075000Y-131980000D03*
D19*
X138895000Y-131980000D03*
D18*
X143075000Y-140620000D03*
D19*
X138895000Y-140620000D03*
%TD*%
D20*
%TO.C,U3*%
X105150000Y-141237500D03*
X104200000Y-141237500D03*
X103250000Y-141237500D03*
X103250000Y-138962500D03*
X105150000Y-138962500D03*
%TD*%
D16*
%TO.C,J1*%
X112620000Y-133100000D03*
X112620000Y-133900000D03*
D17*
X112620000Y-135050000D03*
X112620000Y-136050000D03*
X112620000Y-136550000D03*
X112620000Y-137550000D03*
D16*
X112620000Y-138700000D03*
X112620000Y-139500000D03*
X112620000Y-139500000D03*
X112620000Y-138700000D03*
D17*
X112620000Y-138050000D03*
X112620000Y-137050000D03*
X112620000Y-135550000D03*
X112620000Y-134550000D03*
D16*
X112620000Y-133900000D03*
X112620000Y-133100000D03*
D18*
X117375000Y-131980000D03*
D19*
X113195000Y-131980000D03*
D18*
X117375000Y-140620000D03*
D19*
X113195000Y-140620000D03*
%TD*%
D15*
%TO.C,C1*%
X102000000Y-135680000D03*
X102000000Y-134720000D03*
%TD*%
D13*
%TO.C,C9*%
X110300000Y-134975000D03*
X110300000Y-132025000D03*
%TD*%
D10*
%TO.C,U2*%
X108375000Y-134837500D03*
X107725000Y-134837500D03*
X107075000Y-134837500D03*
X106425000Y-134837500D03*
X106425000Y-132562500D03*
X107075000Y-132562500D03*
X107725000Y-132562500D03*
X108375000Y-132562500D03*
%TD*%
D12*
%TO.C,U4*%
X96862500Y-139050000D03*
X96862500Y-138100000D03*
X96862500Y-137150000D03*
X99137500Y-137150000D03*
X99137500Y-138100000D03*
X99137500Y-139050000D03*
%TD*%
D11*
%TO.C,R6*%
X106745000Y-131100000D03*
X106055000Y-131100000D03*
%TD*%
D13*
%TO.C,C10*%
X104300000Y-134200000D03*
X104300000Y-131250000D03*
%TD*%
D21*
%TO.C,L4*%
X104700000Y-136525000D03*
X103250000Y-136525000D03*
%TD*%
D23*
%TO.C,R12*%
X100475000Y-136700000D03*
X101165000Y-136700000D03*
%TD*%
D11*
%TO.C,R5*%
X108345000Y-131100000D03*
X107655000Y-131100000D03*
%TD*%
D14*
%TO.C,L3*%
X110500000Y-138700000D03*
X106900000Y-138700000D03*
%TD*%
D22*
%TO.C,C12*%
X101300000Y-138425000D03*
X101300000Y-141375000D03*
%TD*%
M02*
