%TF.GenerationSoftware,KiCad,Pcbnew,9.0.3*%
%TF.CreationDate,2025-08-09T11:23:57-04:00*%
%TF.ProjectId,flowstick_main_panel,666c6f77-7374-4696-936b-5f6d61696e5f,rev?*%
%TF.SameCoordinates,Original*%
%TF.FileFunction,Soldermask,Top*%
%TF.FilePolarity,Negative*%
%FSLAX46Y46*%
G04 Gerber Fmt 4.6, Leading zero omitted, Abs format (unit mm)*
G04 Created by KiCad (PCBNEW 9.0.3) date 2025-08-09 11:23:57*
%MOMM*%
%LPD*%
G01*
G04 APERTURE LIST*
G04 Aperture macros list*
%AMRoundRect*
0 Rectangle with rounded corners*
0 $1 Rounding radius*
0 $2 $3 $4 $5 $6 $7 $8 $9 X,Y pos of 4 corners*
0 Add a 4 corners polygon primitive as box body*
4,1,4,$2,$3,$4,$5,$6,$7,$8,$9,$2,$3,0*
0 Add four circle primitives for the rounded corners*
1,1,$1+$1,$2,$3*
1,1,$1+$1,$4,$5*
1,1,$1+$1,$6,$7*
1,1,$1+$1,$8,$9*
0 Add four rect primitives between the rounded corners*
20,1,$1+$1,$2,$3,$4,$5,0*
20,1,$1+$1,$4,$5,$6,$7,0*
20,1,$1+$1,$6,$7,$8,$9,0*
20,1,$1+$1,$8,$9,$2,$3,0*%
%AMFreePoly0*
4,1,16,-0.600000,0.499999,0.100000,0.500000,0.206283,0.488573,0.339623,0.438839,0.453553,0.353553,0.538839,0.239624,0.588573,0.106282,0.600000,0.000000,0.588573,-0.106282,0.538839,-0.239624,0.453553,-0.353553,0.339623,-0.438839,0.206283,-0.488573,0.100000,-0.500000,-0.600000,-0.499999,-0.600000,0.499999,-0.600000,0.499999,$1*%
%AMFreePoly1*
4,1,12,-0.600000,0.250000,0.350000,0.250000,0.445671,0.230969,0.526777,0.176777,0.580970,0.095671,0.600000,0.000000,0.580970,-0.095671,0.526777,-0.176777,0.445671,-0.230969,0.350000,-0.250000,-0.600000,-0.250000,-0.600000,0.250000,-0.600000,0.250000,$1*%
%AMFreePoly2*
4,1,16,-0.750000,0.499999,0.250000,0.500000,0.356283,0.488573,0.489623,0.438839,0.603553,0.353553,0.688839,0.239624,0.738573,0.106282,0.750000,0.000000,0.738573,-0.106282,0.688839,-0.239624,0.603553,-0.353553,0.489623,-0.438839,0.356283,-0.488573,0.250000,-0.500000,-0.750000,-0.499999,-0.750000,0.499999,-0.750000,0.499999,$1*%
G04 Aperture macros list end*
%ADD10O,1.200000X2.200000*%
%ADD11C,1.200000*%
%ADD12RoundRect,0.100000X0.100000X-0.130000X0.100000X0.130000X-0.100000X0.130000X-0.100000X-0.130000X0*%
%ADD13FreePoly0,45.000000*%
%ADD14FreePoly1,45.000000*%
%ADD15RoundRect,0.100000X-0.100000X0.130000X-0.100000X-0.130000X0.100000X-0.130000X0.100000X0.130000X0*%
%ADD16RoundRect,0.100000X-0.130000X-0.100000X0.130000X-0.100000X0.130000X0.100000X-0.130000X0.100000X0*%
%ADD17O,2.000000X1.000000*%
%ADD18FreePoly2,315.000000*%
%ADD19FreePoly2,225.000000*%
%ADD20FreePoly2,135.000000*%
%ADD21FreePoly2,45.000000*%
%ADD22RoundRect,0.100000X0.130000X0.100000X-0.130000X0.100000X-0.130000X-0.100000X0.130000X-0.100000X0*%
%ADD23FreePoly0,135.000000*%
%ADD24FreePoly1,135.000000*%
%ADD25R,0.900000X0.800000*%
%ADD26C,0.700000*%
%ADD27RoundRect,0.250000X0.275000X-0.450000X0.275000X0.450000X-0.275000X0.450000X-0.275000X-0.450000X0*%
%ADD28RoundRect,0.238095X0.261905X-0.461905X0.261905X0.461905X-0.261905X0.461905X-0.261905X-0.461905X0*%
%ADD29RoundRect,0.140000X-0.170000X0.140000X-0.170000X-0.140000X0.170000X-0.140000X0.170000X0.140000X0*%
%ADD30FreePoly0,315.000000*%
%ADD31FreePoly1,315.000000*%
%ADD32C,2.000000*%
%ADD33FreePoly0,225.000000*%
%ADD34FreePoly1,225.000000*%
%ADD35RoundRect,0.140000X0.170000X-0.140000X0.170000X0.140000X-0.170000X0.140000X-0.170000X-0.140000X0*%
%ADD36RoundRect,0.140000X-0.140000X-0.170000X0.140000X-0.170000X0.140000X0.170000X-0.140000X0.170000X0*%
%ADD37RoundRect,0.250000X0.312500X0.625000X-0.312500X0.625000X-0.312500X-0.625000X0.312500X-0.625000X0*%
%ADD38RoundRect,0.050000X-0.350000X-0.050000X0.350000X-0.050000X0.350000X0.050000X-0.350000X0.050000X0*%
%ADD39RoundRect,0.050000X-0.050000X-0.350000X0.050000X-0.350000X0.050000X0.350000X-0.050000X0.350000X0*%
%ADD40R,4.000000X4.000000*%
%ADD41RoundRect,0.150000X0.512500X0.150000X-0.512500X0.150000X-0.512500X-0.150000X0.512500X-0.150000X0*%
%ADD42RoundRect,0.087500X0.087500X-0.225000X0.087500X0.225000X-0.087500X0.225000X-0.087500X-0.225000X0*%
%ADD43RoundRect,0.087500X0.225000X-0.087500X0.225000X0.087500X-0.225000X0.087500X-0.225000X-0.087500X0*%
%ADD44C,0.650000*%
%ADD45O,1.800000X1.000000*%
%ADD46O,2.100000X1.000000*%
G04 APERTURE END LIST*
D10*
%TO.C,BT1*%
X176100000Y-141300000D03*
D11*
X176100000Y-141800000D03*
D10*
X174100000Y-141300000D03*
D11*
X174100000Y-141800000D03*
%TD*%
D12*
%TO.C,R15*%
X153300000Y-138420000D03*
X153300000Y-137780000D03*
%TD*%
D13*
%TO.C,J5*%
X182040380Y-121391865D03*
D14*
X182676776Y-122028261D03*
X183171751Y-122523236D03*
D13*
X183808147Y-123159632D03*
%TD*%
D15*
%TO.C,C17*%
X166100000Y-136980000D03*
X166100000Y-137620000D03*
%TD*%
D12*
%TO.C,R2*%
X191100000Y-137620000D03*
X191100000Y-136980000D03*
%TD*%
D16*
%TO.C,R11*%
X112280000Y-138500000D03*
X112920000Y-138500000D03*
%TD*%
D17*
%TO.C,J4*%
X113500000Y-141900000D03*
%TD*%
D18*
%TO.C,REF\u002A\u002A*%
X145823223Y-98473223D03*
D19*
X146176777Y-98473223D03*
D20*
X146176777Y-109126777D03*
D21*
X145823223Y-109126777D03*
%TD*%
D16*
%TO.C,C6*%
X103780000Y-130570000D03*
X104420000Y-130570000D03*
%TD*%
D10*
%TO.C,BT1*%
X99000000Y-141300000D03*
D11*
X99000000Y-141800000D03*
D10*
X97000000Y-141300000D03*
D11*
X97000000Y-141800000D03*
%TD*%
D19*
%TO.C,REF\u002A\u002A*%
X184176777Y-84473235D03*
D18*
X183823223Y-84473235D03*
D21*
X183823223Y-95126789D03*
D20*
X184176777Y-95126789D03*
%TD*%
D22*
%TO.C,R3*%
X110020000Y-141800000D03*
X109380000Y-141800000D03*
%TD*%
D15*
%TO.C,R13*%
X110800000Y-131850000D03*
X110800000Y-132490000D03*
%TD*%
D19*
%TO.C,REF\u002A\u002A*%
X184176781Y-70473247D03*
D18*
X183823227Y-70473247D03*
D21*
X183823227Y-81126801D03*
D20*
X184176781Y-81126801D03*
%TD*%
D23*
%TO.C,J6*%
X184191853Y-123159632D03*
D24*
X184828249Y-122523236D03*
X185323224Y-122028261D03*
D23*
X185959620Y-121391865D03*
%TD*%
D12*
%TO.C,C11*%
X152500000Y-138920000D03*
X152500000Y-138280000D03*
%TD*%
%TO.C,R14*%
X135800000Y-132490000D03*
X135800000Y-131850000D03*
%TD*%
D15*
%TO.C,L1*%
X155800000Y-131750000D03*
X155800000Y-132390000D03*
%TD*%
D16*
%TO.C,C13*%
X163680000Y-137800000D03*
X164320000Y-137800000D03*
%TD*%
D25*
%TO.C,Y1*%
X158400000Y-130920000D03*
X157000000Y-130920000D03*
X157000000Y-132020000D03*
X158400000Y-132020000D03*
%TD*%
D26*
%TO.C,SW1*%
X141700000Y-136300000D03*
X143500000Y-136300000D03*
D27*
X141880000Y-138100000D03*
X141880000Y-134500000D03*
D28*
X143270000Y-138100000D03*
X143270000Y-134500000D03*
%TD*%
D19*
%TO.C,REF\u002A\u002A*%
X108176777Y-84473223D03*
D18*
X107823223Y-84473223D03*
D21*
X107823223Y-95126777D03*
D20*
X108176777Y-95126777D03*
%TD*%
D12*
%TO.C,R2*%
X165400000Y-137620000D03*
X165400000Y-136980000D03*
%TD*%
D29*
%TO.C,C16*%
X165400000Y-135020000D03*
X165400000Y-135980000D03*
%TD*%
D18*
%TO.C,REF\u002A\u002A*%
X145823227Y-70473235D03*
D19*
X146176781Y-70473235D03*
D20*
X146176781Y-81126789D03*
D21*
X145823227Y-81126789D03*
%TD*%
D12*
%TO.C,C15*%
X109400000Y-132490000D03*
X109400000Y-131850000D03*
%TD*%
D22*
%TO.C,R4*%
X134220000Y-141800000D03*
X133580000Y-141800000D03*
%TD*%
D30*
%TO.C,J8*%
X107808147Y-112440380D03*
D31*
X107171751Y-113076776D03*
X106676776Y-113571751D03*
D30*
X106040380Y-114208147D03*
%TD*%
D32*
%TO.C,REF\u002A\u002A*%
X190800000Y-65000000D03*
%TD*%
D16*
%TO.C,C6*%
X180880000Y-130570000D03*
X181520000Y-130570000D03*
%TD*%
D33*
%TO.C,J7*%
X166959620Y-114208147D03*
D34*
X166323224Y-113571751D03*
X165828249Y-113076776D03*
D33*
X165191853Y-112440380D03*
%TD*%
D15*
%TO.C,C17*%
X140400000Y-136980000D03*
X140400000Y-137620000D03*
%TD*%
D35*
%TO.C,C4*%
X180600000Y-132550000D03*
X180600000Y-131590000D03*
%TD*%
D25*
%TO.C,Y1*%
X107000000Y-130920000D03*
X105600000Y-130920000D03*
X105600000Y-132020000D03*
X107000000Y-132020000D03*
%TD*%
D35*
%TO.C,C4*%
X129200000Y-132550000D03*
X129200000Y-131590000D03*
%TD*%
D25*
%TO.C,Y1*%
X184100000Y-130920000D03*
X182700000Y-130920000D03*
X182700000Y-132020000D03*
X184100000Y-132020000D03*
%TD*%
D36*
%TO.C,C2*%
X131320000Y-141800000D03*
X132280000Y-141800000D03*
%TD*%
D22*
%TO.C,C14*%
X162965000Y-140400000D03*
X162325000Y-140400000D03*
%TD*%
D15*
%TO.C,C7*%
X153300000Y-134480000D03*
X153300000Y-135120000D03*
%TD*%
D37*
%TO.C,AE1*%
X176662500Y-130950000D03*
X173737500Y-130950000D03*
%TD*%
D12*
%TO.C,L2*%
X179000000Y-133720000D03*
X179000000Y-133080000D03*
%TD*%
D16*
%TO.C,R11*%
X163680000Y-138500000D03*
X164320000Y-138500000D03*
%TD*%
D19*
%TO.C,REF\u002A\u002A*%
X165176777Y-98473223D03*
D18*
X164823223Y-98473223D03*
D21*
X164823223Y-109126777D03*
D20*
X165176777Y-109126777D03*
%TD*%
D38*
%TO.C,U1*%
X128650000Y-134570000D03*
X128650000Y-134970000D03*
X128650000Y-135370000D03*
X128650000Y-135770000D03*
X128650000Y-136170000D03*
X128650000Y-136570000D03*
X128650000Y-136970000D03*
X128650000Y-137370000D03*
X128650000Y-137770000D03*
X128650000Y-138170000D03*
X128650000Y-138570000D03*
X128650000Y-138970000D03*
X128650000Y-139370000D03*
X128650000Y-139770000D03*
D39*
X129500000Y-140620000D03*
X129900000Y-140620000D03*
X130300000Y-140620000D03*
X130700000Y-140620000D03*
X131100000Y-140620000D03*
X131500000Y-140620000D03*
X131900000Y-140620000D03*
X132300000Y-140620000D03*
X132700000Y-140620000D03*
X133100000Y-140620000D03*
X133500000Y-140620000D03*
X133900000Y-140620000D03*
X134300000Y-140620000D03*
X134700000Y-140620000D03*
D38*
X135550000Y-139770000D03*
X135550000Y-139370000D03*
X135550000Y-138970000D03*
X135550000Y-138570000D03*
X135550000Y-138170000D03*
X135550000Y-137770000D03*
X135550000Y-137370000D03*
X135550000Y-136970000D03*
X135550000Y-136570000D03*
X135550000Y-136170000D03*
X135550000Y-135770000D03*
X135550000Y-135370000D03*
X135550000Y-134970000D03*
X135550000Y-134570000D03*
D39*
X134700000Y-133720000D03*
X134300000Y-133720000D03*
X133900000Y-133720000D03*
X133500000Y-133720000D03*
X133100000Y-133720000D03*
X132700000Y-133720000D03*
X132300000Y-133720000D03*
X131900000Y-133720000D03*
X131500000Y-133720000D03*
X131100000Y-133720000D03*
X130700000Y-133720000D03*
X130300000Y-133720000D03*
X129900000Y-133720000D03*
X129500000Y-133720000D03*
D40*
X132100000Y-137170000D03*
%TD*%
D18*
%TO.C,REF\u002A\u002A*%
X107823227Y-70473235D03*
D19*
X108176781Y-70473235D03*
D21*
X107823227Y-81126789D03*
D20*
X108176781Y-81126789D03*
%TD*%
D16*
%TO.C,R1*%
X163500000Y-133600000D03*
X164140000Y-133600000D03*
%TD*%
%TO.C,R1*%
X189200000Y-133600000D03*
X189840000Y-133600000D03*
%TD*%
D12*
%TO.C,R15*%
X101900000Y-138420000D03*
X101900000Y-137780000D03*
%TD*%
D22*
%TO.C,R3*%
X187120000Y-141800000D03*
X186480000Y-141800000D03*
%TD*%
D41*
%TO.C,D1*%
X99637500Y-138950000D03*
X99637500Y-138000000D03*
X99637500Y-137050000D03*
X97362500Y-137050000D03*
X97362500Y-138000000D03*
X97362500Y-138950000D03*
%TD*%
D15*
%TO.C,L1*%
X130100000Y-131750000D03*
X130100000Y-132390000D03*
%TD*%
D12*
%TO.C,R14*%
X110100000Y-132490000D03*
X110100000Y-131850000D03*
%TD*%
D16*
%TO.C,C8*%
X153335000Y-132300000D03*
X153975000Y-132300000D03*
%TD*%
D18*
%TO.C,REF\u002A\u002A*%
X164823227Y-70473235D03*
D19*
X165176781Y-70473235D03*
D20*
X165176781Y-81126789D03*
D21*
X164823227Y-81126789D03*
%TD*%
D16*
%TO.C,C13*%
X137980000Y-137800000D03*
X138620000Y-137800000D03*
%TD*%
D17*
%TO.C,J4*%
X190600000Y-141900000D03*
%TD*%
D22*
%TO.C,C14*%
X111565000Y-140400000D03*
X110925000Y-140400000D03*
%TD*%
%TO.C,R3*%
X135720000Y-141800000D03*
X135080000Y-141800000D03*
%TD*%
D13*
%TO.C,J5*%
X106040380Y-121391853D03*
D14*
X106676776Y-122028249D03*
X107171751Y-122523224D03*
D13*
X107808147Y-123159620D03*
%TD*%
D10*
%TO.C,BT1*%
X124700000Y-141300000D03*
D11*
X124700000Y-141800000D03*
D10*
X122700000Y-141300000D03*
D11*
X122700000Y-141800000D03*
%TD*%
D17*
%TO.C,J4*%
X164900000Y-141900000D03*
%TD*%
D12*
%TO.C,C11*%
X178200000Y-138920000D03*
X178200000Y-138280000D03*
%TD*%
D16*
%TO.C,C6*%
X155180000Y-130570000D03*
X155820000Y-130570000D03*
%TD*%
D22*
%TO.C,R4*%
X108520000Y-141800000D03*
X107880000Y-141800000D03*
%TD*%
D15*
%TO.C,R7*%
X152500000Y-140100000D03*
X152500000Y-140740000D03*
%TD*%
D35*
%TO.C,C4*%
X103500000Y-132550000D03*
X103500000Y-131590000D03*
%TD*%
D15*
%TO.C,C18*%
X127600000Y-139180000D03*
X127600000Y-139820000D03*
%TD*%
D38*
%TO.C,U1*%
X180050000Y-134570000D03*
X180050000Y-134970000D03*
X180050000Y-135370000D03*
X180050000Y-135770000D03*
X180050000Y-136170000D03*
X180050000Y-136570000D03*
X180050000Y-136970000D03*
X180050000Y-137370000D03*
X180050000Y-137770000D03*
X180050000Y-138170000D03*
X180050000Y-138570000D03*
X180050000Y-138970000D03*
X180050000Y-139370000D03*
X180050000Y-139770000D03*
D39*
X180900000Y-140620000D03*
X181300000Y-140620000D03*
X181700000Y-140620000D03*
X182100000Y-140620000D03*
X182500000Y-140620000D03*
X182900000Y-140620000D03*
X183300000Y-140620000D03*
X183700000Y-140620000D03*
X184100000Y-140620000D03*
X184500000Y-140620000D03*
X184900000Y-140620000D03*
X185300000Y-140620000D03*
X185700000Y-140620000D03*
X186100000Y-140620000D03*
D38*
X186950000Y-139770000D03*
X186950000Y-139370000D03*
X186950000Y-138970000D03*
X186950000Y-138570000D03*
X186950000Y-138170000D03*
X186950000Y-137770000D03*
X186950000Y-137370000D03*
X186950000Y-136970000D03*
X186950000Y-136570000D03*
X186950000Y-136170000D03*
X186950000Y-135770000D03*
X186950000Y-135370000D03*
X186950000Y-134970000D03*
X186950000Y-134570000D03*
D39*
X186100000Y-133720000D03*
X185700000Y-133720000D03*
X185300000Y-133720000D03*
X184900000Y-133720000D03*
X184500000Y-133720000D03*
X184100000Y-133720000D03*
X183700000Y-133720000D03*
X183300000Y-133720000D03*
X182900000Y-133720000D03*
X182500000Y-133720000D03*
X182100000Y-133720000D03*
X181700000Y-133720000D03*
X181300000Y-133720000D03*
X180900000Y-133720000D03*
D40*
X183500000Y-137170000D03*
%TD*%
D22*
%TO.C,R8*%
X190020000Y-139300000D03*
X189380000Y-139300000D03*
%TD*%
D12*
%TO.C,R2*%
X139700000Y-137620000D03*
X139700000Y-136980000D03*
%TD*%
D18*
%TO.C,REF\u002A\u002A*%
X145823223Y-84473223D03*
D19*
X146176777Y-84473223D03*
D21*
X145823223Y-95126777D03*
D20*
X146176777Y-95126777D03*
%TD*%
D22*
%TO.C,R4*%
X159920000Y-141800000D03*
X159280000Y-141800000D03*
%TD*%
D16*
%TO.C,C5*%
X185280000Y-130570000D03*
X185920000Y-130570000D03*
%TD*%
D30*
%TO.C,J8*%
X145808147Y-112440380D03*
D31*
X145171751Y-113076776D03*
X144676776Y-113571751D03*
D30*
X144040380Y-114208147D03*
%TD*%
D35*
%TO.C,C3*%
X108300000Y-132550000D03*
X108300000Y-131590000D03*
%TD*%
D22*
%TO.C,R8*%
X138620000Y-139300000D03*
X137980000Y-139300000D03*
%TD*%
D12*
%TO.C,L2*%
X101900000Y-133720000D03*
X101900000Y-133080000D03*
%TD*%
D18*
%TO.C,REF\u002A\u002A*%
X126823223Y-70473223D03*
D19*
X127176777Y-70473223D03*
D21*
X126823223Y-81126777D03*
D20*
X127176777Y-81126777D03*
%TD*%
D42*
%TO.C,U5*%
X111250000Y-136862500D03*
X111750000Y-136862500D03*
X112250000Y-136862500D03*
X112750000Y-136862500D03*
D43*
X112912500Y-136200000D03*
X112912500Y-135700000D03*
X112912500Y-135200000D03*
D42*
X112750000Y-134537500D03*
X112250000Y-134537500D03*
X111750000Y-134537500D03*
X111250000Y-134537500D03*
D43*
X111087500Y-135200000D03*
X111087500Y-135700000D03*
X111087500Y-136200000D03*
%TD*%
D32*
%TO.C,REF\u002A\u002A*%
X190800000Y-147400000D03*
%TD*%
D35*
%TO.C,C3*%
X159700000Y-132550000D03*
X159700000Y-131590000D03*
%TD*%
D12*
%TO.C,R15*%
X127600000Y-138420000D03*
X127600000Y-137780000D03*
%TD*%
D15*
%TO.C,L1*%
X181500000Y-131750000D03*
X181500000Y-132390000D03*
%TD*%
D36*
%TO.C,C2*%
X105620000Y-141800000D03*
X106580000Y-141800000D03*
%TD*%
D22*
%TO.C,R3*%
X161420000Y-141800000D03*
X160780000Y-141800000D03*
%TD*%
D33*
%TO.C,J7*%
X109959620Y-114208147D03*
D34*
X109323224Y-113571751D03*
X108828249Y-113076776D03*
D33*
X108191853Y-112440380D03*
%TD*%
D16*
%TO.C,R10*%
X136580000Y-137800000D03*
X137220000Y-137800000D03*
%TD*%
%TO.C,C5*%
X159580000Y-130570000D03*
X160220000Y-130570000D03*
%TD*%
D12*
%TO.C,C11*%
X101100000Y-138920000D03*
X101100000Y-138280000D03*
%TD*%
D10*
%TO.C,BT1*%
X150400000Y-141300000D03*
D11*
X150400000Y-141800000D03*
D10*
X148400000Y-141300000D03*
D11*
X148400000Y-141800000D03*
%TD*%
D37*
%TO.C,AE1*%
X150962500Y-130950000D03*
X148037500Y-130950000D03*
%TD*%
D12*
%TO.C,R15*%
X179000000Y-138420000D03*
X179000000Y-137780000D03*
%TD*%
%TO.C,R2*%
X114000000Y-137620000D03*
X114000000Y-136980000D03*
%TD*%
D42*
%TO.C,U5*%
X136950000Y-136862500D03*
X137450000Y-136862500D03*
X137950000Y-136862500D03*
X138450000Y-136862500D03*
D43*
X138612500Y-136200000D03*
X138612500Y-135700000D03*
X138612500Y-135200000D03*
D42*
X138450000Y-134537500D03*
X137950000Y-134537500D03*
X137450000Y-134537500D03*
X136950000Y-134537500D03*
D43*
X136787500Y-135200000D03*
X136787500Y-135700000D03*
X136787500Y-136200000D03*
%TD*%
D16*
%TO.C,C5*%
X108180000Y-130570000D03*
X108820000Y-130570000D03*
%TD*%
D26*
%TO.C,SW1*%
X116000000Y-136300000D03*
X117800000Y-136300000D03*
D27*
X116180000Y-138100000D03*
X116180000Y-134500000D03*
D28*
X117570000Y-138100000D03*
X117570000Y-134500000D03*
%TD*%
D15*
%TO.C,C7*%
X101900000Y-134480000D03*
X101900000Y-135120000D03*
%TD*%
D26*
%TO.C,SW1*%
X167400000Y-136300000D03*
X169200000Y-136300000D03*
D27*
X167580000Y-138100000D03*
X167580000Y-134500000D03*
D28*
X168970000Y-138100000D03*
X168970000Y-134500000D03*
%TD*%
D16*
%TO.C,R10*%
X110880000Y-137800000D03*
X111520000Y-137800000D03*
%TD*%
D18*
%TO.C,REF\u002A\u002A*%
X126823219Y-84473211D03*
D19*
X127176773Y-84473211D03*
D20*
X127176773Y-95126765D03*
D21*
X126823219Y-95126765D03*
%TD*%
D36*
%TO.C,C2*%
X157020000Y-141800000D03*
X157980000Y-141800000D03*
%TD*%
D37*
%TO.C,AE1*%
X125262500Y-130950000D03*
X122337500Y-130950000D03*
%TD*%
D35*
%TO.C,C3*%
X185400000Y-132550000D03*
X185400000Y-131590000D03*
%TD*%
D15*
%TO.C,C7*%
X179000000Y-134480000D03*
X179000000Y-135120000D03*
%TD*%
%TO.C,C17*%
X114700000Y-136980000D03*
X114700000Y-137620000D03*
%TD*%
D30*
%TO.C,J8*%
X164808147Y-112440380D03*
D31*
X164171751Y-113076776D03*
X163676776Y-113571751D03*
D30*
X163040380Y-114208147D03*
%TD*%
D12*
%TO.C,R14*%
X161500000Y-132490000D03*
X161500000Y-131850000D03*
%TD*%
D15*
%TO.C,C18*%
X101900000Y-139180000D03*
X101900000Y-139820000D03*
%TD*%
D12*
%TO.C,C15*%
X135100000Y-132490000D03*
X135100000Y-131850000D03*
%TD*%
D23*
%TO.C,J6*%
X127191849Y-123159608D03*
D24*
X127828245Y-122523212D03*
X128323220Y-122028237D03*
D23*
X128959616Y-121391841D03*
%TD*%
D12*
%TO.C,R14*%
X187200000Y-132490000D03*
X187200000Y-131850000D03*
%TD*%
D26*
%TO.C,SW1*%
X193100000Y-136300000D03*
X194900000Y-136300000D03*
D27*
X193280000Y-138100000D03*
X193280000Y-134500000D03*
D28*
X194670000Y-138100000D03*
X194670000Y-134500000D03*
%TD*%
D22*
%TO.C,C14*%
X188665000Y-140400000D03*
X188025000Y-140400000D03*
%TD*%
D16*
%TO.C,C8*%
X101935000Y-132300000D03*
X102575000Y-132300000D03*
%TD*%
D22*
%TO.C,R4*%
X185620000Y-141800000D03*
X184980000Y-141800000D03*
%TD*%
D12*
%TO.C,L2*%
X127600000Y-133720000D03*
X127600000Y-133080000D03*
%TD*%
%TO.C,R9*%
X188000000Y-139220000D03*
X188000000Y-138580000D03*
%TD*%
D16*
%TO.C,C13*%
X112280000Y-137800000D03*
X112920000Y-137800000D03*
%TD*%
D35*
%TO.C,C3*%
X134000000Y-132550000D03*
X134000000Y-131590000D03*
%TD*%
D29*
%TO.C,C16*%
X114000000Y-135020000D03*
X114000000Y-135980000D03*
%TD*%
D15*
%TO.C,C18*%
X179000000Y-139180000D03*
X179000000Y-139820000D03*
%TD*%
D32*
%TO.C,REF\u002A\u002A*%
X102000000Y-147400001D03*
%TD*%
D23*
%TO.C,J6*%
X146191853Y-123159620D03*
D24*
X146828249Y-122523224D03*
X147323224Y-122028249D03*
D23*
X147959620Y-121391853D03*
%TD*%
D19*
%TO.C,REF\u002A\u002A*%
X165176777Y-84473223D03*
D18*
X164823223Y-84473223D03*
D21*
X164823223Y-95126777D03*
D20*
X165176777Y-95126777D03*
%TD*%
D15*
%TO.C,L1*%
X104400000Y-131750000D03*
X104400000Y-132390000D03*
%TD*%
D37*
%TO.C,AE1*%
X99562500Y-130950000D03*
X96637500Y-130950000D03*
%TD*%
D25*
%TO.C,Y1*%
X132700000Y-130920000D03*
X131300000Y-130920000D03*
X131300000Y-132020000D03*
X132700000Y-132020000D03*
%TD*%
D12*
%TO.C,C11*%
X126800000Y-138920000D03*
X126800000Y-138280000D03*
%TD*%
D32*
%TO.C,REF\u002A\u002A*%
X194800000Y-147400000D03*
%TD*%
D41*
%TO.C,D1*%
X125337500Y-138950000D03*
X125337500Y-138000000D03*
X125337500Y-137050000D03*
X123062500Y-137050000D03*
X123062500Y-138000000D03*
X123062500Y-138950000D03*
%TD*%
D16*
%TO.C,R1*%
X137800000Y-133600000D03*
X138440000Y-133600000D03*
%TD*%
%TO.C,R10*%
X187980000Y-137800000D03*
X188620000Y-137800000D03*
%TD*%
D12*
%TO.C,R9*%
X136600000Y-139220000D03*
X136600000Y-138580000D03*
%TD*%
%TO.C,C15*%
X186500000Y-132490000D03*
X186500000Y-131850000D03*
%TD*%
D16*
%TO.C,C13*%
X189380000Y-137800000D03*
X190020000Y-137800000D03*
%TD*%
D22*
%TO.C,R8*%
X112920000Y-139300000D03*
X112280000Y-139300000D03*
%TD*%
D15*
%TO.C,R7*%
X178200000Y-140100000D03*
X178200000Y-140740000D03*
%TD*%
D29*
%TO.C,C16*%
X191100000Y-135020000D03*
X191100000Y-135980000D03*
%TD*%
D16*
%TO.C,R1*%
X112100000Y-133600000D03*
X112740000Y-133600000D03*
%TD*%
D12*
%TO.C,R9*%
X110900000Y-139220000D03*
X110900000Y-138580000D03*
%TD*%
D15*
%TO.C,R13*%
X187900000Y-131850000D03*
X187900000Y-132490000D03*
%TD*%
D16*
%TO.C,C6*%
X129480000Y-130570000D03*
X130120000Y-130570000D03*
%TD*%
D30*
%TO.C,J8*%
X183808147Y-112440392D03*
D31*
X183171751Y-113076788D03*
X182676776Y-113571763D03*
D30*
X182040380Y-114208159D03*
%TD*%
D35*
%TO.C,C4*%
X154900000Y-132550000D03*
X154900000Y-131590000D03*
%TD*%
D32*
%TO.C,REF\u002A\u002A*%
X194800000Y-65000000D03*
%TD*%
D33*
%TO.C,J7*%
X185959620Y-114208159D03*
D34*
X185323224Y-113571763D03*
X184828249Y-113076788D03*
D33*
X184191853Y-112440392D03*
%TD*%
D16*
%TO.C,C8*%
X179035000Y-132300000D03*
X179675000Y-132300000D03*
%TD*%
D15*
%TO.C,C17*%
X191800000Y-136980000D03*
X191800000Y-137620000D03*
%TD*%
%TO.C,R7*%
X101100000Y-140100000D03*
X101100000Y-140740000D03*
%TD*%
D16*
%TO.C,R11*%
X137980000Y-138500000D03*
X138620000Y-138500000D03*
%TD*%
D38*
%TO.C,U1*%
X102950000Y-134570000D03*
X102950000Y-134970000D03*
X102950000Y-135370000D03*
X102950000Y-135770000D03*
X102950000Y-136170000D03*
X102950000Y-136570000D03*
X102950000Y-136970000D03*
X102950000Y-137370000D03*
X102950000Y-137770000D03*
X102950000Y-138170000D03*
X102950000Y-138570000D03*
X102950000Y-138970000D03*
X102950000Y-139370000D03*
X102950000Y-139770000D03*
D39*
X103800000Y-140620000D03*
X104200000Y-140620000D03*
X104600000Y-140620000D03*
X105000000Y-140620000D03*
X105400000Y-140620000D03*
X105800000Y-140620000D03*
X106200000Y-140620000D03*
X106600000Y-140620000D03*
X107000000Y-140620000D03*
X107400000Y-140620000D03*
X107800000Y-140620000D03*
X108200000Y-140620000D03*
X108600000Y-140620000D03*
X109000000Y-140620000D03*
D38*
X109850000Y-139770000D03*
X109850000Y-139370000D03*
X109850000Y-138970000D03*
X109850000Y-138570000D03*
X109850000Y-138170000D03*
X109850000Y-137770000D03*
X109850000Y-137370000D03*
X109850000Y-136970000D03*
X109850000Y-136570000D03*
X109850000Y-136170000D03*
X109850000Y-135770000D03*
X109850000Y-135370000D03*
X109850000Y-134970000D03*
X109850000Y-134570000D03*
D39*
X109000000Y-133720000D03*
X108600000Y-133720000D03*
X108200000Y-133720000D03*
X107800000Y-133720000D03*
X107400000Y-133720000D03*
X107000000Y-133720000D03*
X106600000Y-133720000D03*
X106200000Y-133720000D03*
X105800000Y-133720000D03*
X105400000Y-133720000D03*
X105000000Y-133720000D03*
X104600000Y-133720000D03*
X104200000Y-133720000D03*
X103800000Y-133720000D03*
D40*
X106400000Y-137170000D03*
%TD*%
D15*
%TO.C,C18*%
X153300000Y-139180000D03*
X153300000Y-139820000D03*
%TD*%
D17*
%TO.C,J3*%
X139200000Y-130700000D03*
%TD*%
D22*
%TO.C,C14*%
X137265000Y-140400000D03*
X136625000Y-140400000D03*
%TD*%
D17*
%TO.C,J4*%
X139200000Y-141900000D03*
%TD*%
D32*
%TO.C,REF\u002A\u002A*%
X98000000Y-65000000D03*
%TD*%
D42*
%TO.C,U5*%
X188350000Y-136862500D03*
X188850000Y-136862500D03*
X189350000Y-136862500D03*
X189850000Y-136862500D03*
D43*
X190012500Y-136200000D03*
X190012500Y-135700000D03*
X190012500Y-135200000D03*
D42*
X189850000Y-134537500D03*
X189350000Y-134537500D03*
X188850000Y-134537500D03*
X188350000Y-134537500D03*
D43*
X188187500Y-135200000D03*
X188187500Y-135700000D03*
X188187500Y-136200000D03*
%TD*%
D38*
%TO.C,U1*%
X154350000Y-134570000D03*
X154350000Y-134970000D03*
X154350000Y-135370000D03*
X154350000Y-135770000D03*
X154350000Y-136170000D03*
X154350000Y-136570000D03*
X154350000Y-136970000D03*
X154350000Y-137370000D03*
X154350000Y-137770000D03*
X154350000Y-138170000D03*
X154350000Y-138570000D03*
X154350000Y-138970000D03*
X154350000Y-139370000D03*
X154350000Y-139770000D03*
D39*
X155200000Y-140620000D03*
X155600000Y-140620000D03*
X156000000Y-140620000D03*
X156400000Y-140620000D03*
X156800000Y-140620000D03*
X157200000Y-140620000D03*
X157600000Y-140620000D03*
X158000000Y-140620000D03*
X158400000Y-140620000D03*
X158800000Y-140620000D03*
X159200000Y-140620000D03*
X159600000Y-140620000D03*
X160000000Y-140620000D03*
X160400000Y-140620000D03*
D38*
X161250000Y-139770000D03*
X161250000Y-139370000D03*
X161250000Y-138970000D03*
X161250000Y-138570000D03*
X161250000Y-138170000D03*
X161250000Y-137770000D03*
X161250000Y-137370000D03*
X161250000Y-136970000D03*
X161250000Y-136570000D03*
X161250000Y-136170000D03*
X161250000Y-135770000D03*
X161250000Y-135370000D03*
X161250000Y-134970000D03*
X161250000Y-134570000D03*
D39*
X160400000Y-133720000D03*
X160000000Y-133720000D03*
X159600000Y-133720000D03*
X159200000Y-133720000D03*
X158800000Y-133720000D03*
X158400000Y-133720000D03*
X158000000Y-133720000D03*
X157600000Y-133720000D03*
X157200000Y-133720000D03*
X156800000Y-133720000D03*
X156400000Y-133720000D03*
X156000000Y-133720000D03*
X155600000Y-133720000D03*
X155200000Y-133720000D03*
D40*
X157800000Y-137170000D03*
%TD*%
D41*
%TO.C,D1*%
X151037500Y-138950000D03*
X151037500Y-138000000D03*
X151037500Y-137050000D03*
X148762500Y-137050000D03*
X148762500Y-138000000D03*
X148762500Y-138950000D03*
%TD*%
%TO.C,D1*%
X176737500Y-138950000D03*
X176737500Y-138000000D03*
X176737500Y-137050000D03*
X174462500Y-137050000D03*
X174462500Y-138000000D03*
X174462500Y-138950000D03*
%TD*%
D33*
%TO.C,J7*%
X128959616Y-114208135D03*
D34*
X128323220Y-113571739D03*
X127828245Y-113076764D03*
D33*
X127191849Y-112440368D03*
%TD*%
D32*
%TO.C,REF\u002A\u002A*%
X102000000Y-65000000D03*
%TD*%
D16*
%TO.C,C8*%
X127635000Y-132300000D03*
X128275000Y-132300000D03*
%TD*%
D13*
%TO.C,J5*%
X163040380Y-121391853D03*
D14*
X163676776Y-122028249D03*
X164171751Y-122523224D03*
D13*
X164808147Y-123159620D03*
%TD*%
D36*
%TO.C,C2*%
X182720000Y-141800000D03*
X183680000Y-141800000D03*
%TD*%
D23*
%TO.C,J6*%
X165191853Y-123159620D03*
D24*
X165828249Y-122523224D03*
X166323224Y-122028249D03*
D23*
X166959620Y-121391853D03*
%TD*%
D12*
%TO.C,L2*%
X153300000Y-133720000D03*
X153300000Y-133080000D03*
%TD*%
D33*
%TO.C,J7*%
X147959620Y-114208147D03*
D34*
X147323224Y-113571751D03*
X146828249Y-113076776D03*
D33*
X146191853Y-112440380D03*
%TD*%
D30*
%TO.C,J8*%
X126808143Y-112440368D03*
D31*
X126171747Y-113076764D03*
X125676772Y-113571739D03*
D30*
X125040376Y-114208135D03*
%TD*%
D16*
%TO.C,R11*%
X189380000Y-138500000D03*
X190020000Y-138500000D03*
%TD*%
%TO.C,R10*%
X162280000Y-137800000D03*
X162920000Y-137800000D03*
%TD*%
D15*
%TO.C,R7*%
X126800000Y-140100000D03*
X126800000Y-140740000D03*
%TD*%
D19*
%TO.C,REF\u002A\u002A*%
X184176777Y-98473235D03*
D18*
X183823223Y-98473235D03*
D21*
X183823223Y-109126789D03*
D20*
X184176777Y-109126789D03*
%TD*%
D15*
%TO.C,R13*%
X136500000Y-131850000D03*
X136500000Y-132490000D03*
%TD*%
D42*
%TO.C,U5*%
X162650000Y-136862500D03*
X163150000Y-136862500D03*
X163650000Y-136862500D03*
X164150000Y-136862500D03*
D43*
X164312500Y-136200000D03*
X164312500Y-135700000D03*
X164312500Y-135200000D03*
D42*
X164150000Y-134537500D03*
X163650000Y-134537500D03*
X163150000Y-134537500D03*
X162650000Y-134537500D03*
D43*
X162487500Y-135200000D03*
X162487500Y-135700000D03*
X162487500Y-136200000D03*
%TD*%
D18*
%TO.C,REF\u002A\u002A*%
X126823219Y-98473211D03*
D19*
X127176773Y-98473211D03*
D20*
X127176773Y-109126765D03*
D21*
X126823219Y-109126765D03*
%TD*%
D12*
%TO.C,R9*%
X162300000Y-139220000D03*
X162300000Y-138580000D03*
%TD*%
%TO.C,C15*%
X160800000Y-132490000D03*
X160800000Y-131850000D03*
%TD*%
D13*
%TO.C,J5*%
X125040376Y-121391841D03*
D14*
X125676772Y-122028237D03*
X126171747Y-122523212D03*
D13*
X126808143Y-123159608D03*
%TD*%
D29*
%TO.C,C16*%
X139700000Y-135020000D03*
X139700000Y-135980000D03*
%TD*%
D13*
%TO.C,J5*%
X144040380Y-121391853D03*
D14*
X144676776Y-122028249D03*
X145171751Y-122523224D03*
D13*
X145808147Y-123159620D03*
%TD*%
D17*
%TO.C,J3*%
X164900000Y-130700000D03*
%TD*%
D16*
%TO.C,C5*%
X133880000Y-130570000D03*
X134520000Y-130570000D03*
%TD*%
D15*
%TO.C,C7*%
X127600000Y-134480000D03*
X127600000Y-135120000D03*
%TD*%
D32*
%TO.C,REF\u002A\u002A*%
X98000000Y-147400000D03*
%TD*%
D22*
%TO.C,R8*%
X164320000Y-139300000D03*
X163680000Y-139300000D03*
%TD*%
D18*
%TO.C,REF\u002A\u002A*%
X107823223Y-98473223D03*
D19*
X108176777Y-98473223D03*
D21*
X107823223Y-109126777D03*
D20*
X108176777Y-109126777D03*
%TD*%
D17*
%TO.C,J3*%
X190600000Y-130700000D03*
%TD*%
D15*
%TO.C,R13*%
X162200000Y-131850000D03*
X162200000Y-132490000D03*
%TD*%
D23*
%TO.C,J6*%
X108191853Y-123159620D03*
D24*
X108828249Y-122523224D03*
X109323224Y-122028249D03*
D23*
X109959620Y-121391853D03*
%TD*%
D17*
%TO.C,J3*%
X113500000Y-130700000D03*
%TD*%
D44*
%TO.C,J1*%
X165095000Y-133410000D03*
X165095000Y-139190000D03*
D45*
X168775000Y-131980000D03*
D46*
X164595000Y-131980000D03*
D45*
X168775000Y-140620000D03*
D46*
X164595000Y-140620000D03*
%TD*%
D44*
%TO.C,J1*%
X113695000Y-133410000D03*
X113695000Y-139190000D03*
D45*
X117375000Y-131980000D03*
D46*
X113195000Y-131980000D03*
D45*
X117375000Y-140620000D03*
D46*
X113195000Y-140620000D03*
%TD*%
D44*
%TO.C,J1*%
X190795000Y-133410000D03*
X190795000Y-139190000D03*
D45*
X194475000Y-131980000D03*
D46*
X190295000Y-131980000D03*
D45*
X194475000Y-140620000D03*
D46*
X190295000Y-140620000D03*
%TD*%
D44*
%TO.C,J1*%
X139395000Y-133410000D03*
X139395000Y-139190000D03*
D45*
X143075000Y-131980000D03*
D46*
X138895000Y-131980000D03*
D45*
X143075000Y-140620000D03*
D46*
X138895000Y-140620000D03*
%TD*%
M02*
