%TF.GenerationSoftware,KiCad,Pcbnew,9.0.3*%
%TF.CreationDate,2025-08-06T20:18:33-04:00*%
%TF.ProjectId,flowstick_main_panel,666c6f77-7374-4696-936b-5f6d61696e5f,rev?*%
%TF.SameCoordinates,Original*%
%TF.FileFunction,Paste,Top*%
%TF.FilePolarity,Positive*%
%FSLAX46Y46*%
G04 Gerber Fmt 4.6, Leading zero omitted, Abs format (unit mm)*
G04 Created by KiCad (PCBNEW 9.0.3) date 2025-08-06 20:18:33*
%MOMM*%
%LPD*%
G01*
G04 APERTURE LIST*
G04 Aperture macros list*
%AMRoundRect*
0 Rectangle with rounded corners*
0 $1 Rounding radius*
0 $2 $3 $4 $5 $6 $7 $8 $9 X,Y pos of 4 corners*
0 Add a 4 corners polygon primitive as box body*
4,1,4,$2,$3,$4,$5,$6,$7,$8,$9,$2,$3,0*
0 Add four circle primitives for the rounded corners*
1,1,$1+$1,$2,$3*
1,1,$1+$1,$4,$5*
1,1,$1+$1,$6,$7*
1,1,$1+$1,$8,$9*
0 Add four rect primitives between the rounded corners*
20,1,$1+$1,$2,$3,$4,$5,0*
20,1,$1+$1,$4,$5,$6,$7,0*
20,1,$1+$1,$6,$7,$8,$9,0*
20,1,$1+$1,$8,$9,$2,$3,0*%
G04 Aperture macros list end*
%ADD10RoundRect,0.079500X-0.100500X0.079500X-0.100500X-0.079500X0.100500X-0.079500X0.100500X0.079500X0*%
%ADD11RoundRect,0.079500X0.100500X-0.079500X0.100500X0.079500X-0.100500X0.079500X-0.100500X-0.079500X0*%
%ADD12RoundRect,0.250000X0.312500X0.625000X-0.312500X0.625000X-0.312500X-0.625000X0.312500X-0.625000X0*%
%ADD13RoundRect,0.079500X0.079500X0.100500X-0.079500X0.100500X-0.079500X-0.100500X0.079500X-0.100500X0*%
%ADD14RoundRect,0.140000X0.170000X-0.140000X0.170000X0.140000X-0.170000X0.140000X-0.170000X-0.140000X0*%
%ADD15RoundRect,0.079500X-0.079500X-0.100500X0.079500X-0.100500X0.079500X0.100500X-0.079500X0.100500X0*%
%ADD16RoundRect,0.140000X-0.140000X-0.170000X0.140000X-0.170000X0.140000X0.170000X-0.140000X0.170000X0*%
%ADD17RoundRect,0.250000X-0.285000X-0.285000X0.285000X-0.285000X0.285000X0.285000X-0.285000X0.285000X0*%
%ADD18RoundRect,0.050000X-0.350000X-0.050000X0.350000X-0.050000X0.350000X0.050000X-0.350000X0.050000X0*%
%ADD19RoundRect,0.050000X-0.050000X-0.350000X0.050000X-0.350000X0.050000X0.350000X-0.050000X0.350000X0*%
%ADD20RoundRect,0.250000X0.275000X-0.450000X0.275000X0.450000X-0.275000X0.450000X-0.275000X-0.450000X0*%
%ADD21RoundRect,0.238095X0.261905X-0.461905X0.261905X0.461905X-0.261905X0.461905X-0.261905X-0.461905X0*%
%ADD22R,0.900000X0.800000*%
%ADD23RoundRect,0.140000X-0.170000X0.140000X-0.170000X-0.140000X0.170000X-0.140000X0.170000X0.140000X0*%
%ADD24RoundRect,0.087500X0.087500X-0.225000X0.087500X0.225000X-0.087500X0.225000X-0.087500X-0.225000X0*%
%ADD25RoundRect,0.087500X0.225000X-0.087500X0.225000X0.087500X-0.225000X0.087500X-0.225000X-0.087500X0*%
%ADD26RoundRect,0.150000X0.512500X0.150000X-0.512500X0.150000X-0.512500X-0.150000X0.512500X-0.150000X0*%
G04 APERTURE END LIST*
D10*
%TO.C,C17*%
X191800000Y-136955000D03*
X191800000Y-137645000D03*
%TD*%
D11*
%TO.C,R9*%
X188000000Y-139245000D03*
X188000000Y-138555000D03*
%TD*%
D12*
%TO.C,AE1*%
X176662500Y-130950000D03*
X173737500Y-130950000D03*
%TD*%
D10*
%TO.C,L1*%
X181500000Y-131725000D03*
X181500000Y-132415000D03*
%TD*%
D11*
%TO.C,R15*%
X179000000Y-138445000D03*
X179000000Y-137755000D03*
%TD*%
D13*
%TO.C,C14*%
X188690000Y-140400000D03*
X188000000Y-140400000D03*
%TD*%
D10*
%TO.C,R7*%
X178200000Y-140075000D03*
X178200000Y-140765000D03*
%TD*%
D14*
%TO.C,C3*%
X185400000Y-132550000D03*
X185400000Y-131590000D03*
%TD*%
D15*
%TO.C,C5*%
X185255000Y-130570000D03*
X185945000Y-130570000D03*
%TD*%
D16*
%TO.C,C2*%
X182720000Y-141800000D03*
X183680000Y-141800000D03*
%TD*%
D13*
%TO.C,R3*%
X187145000Y-141800000D03*
X186455000Y-141800000D03*
%TD*%
D15*
%TO.C,R10*%
X187955000Y-137800000D03*
X188645000Y-137800000D03*
%TD*%
D11*
%TO.C,L2*%
X179000000Y-133745000D03*
X179000000Y-133055000D03*
%TD*%
D17*
%TO.C,U1*%
X182170000Y-135840000D03*
X182170000Y-137170000D03*
X182170000Y-138500000D03*
X183500000Y-135840000D03*
X183500000Y-137170000D03*
X183500000Y-138500000D03*
X184830000Y-135840000D03*
X184830000Y-137170000D03*
X184830000Y-138500000D03*
D18*
X180050000Y-134570000D03*
X180050000Y-134970000D03*
X180050000Y-135370000D03*
X180050000Y-135770000D03*
X180050000Y-136170000D03*
X180050000Y-136570000D03*
X180050000Y-136970000D03*
X180050000Y-137370000D03*
X180050000Y-137770000D03*
X180050000Y-138170000D03*
X180050000Y-138570000D03*
X180050000Y-138970000D03*
X180050000Y-139370000D03*
X180050000Y-139770000D03*
D19*
X180900000Y-140620000D03*
X181300000Y-140620000D03*
X181700000Y-140620000D03*
X182100000Y-140620000D03*
X182500000Y-140620000D03*
X182900000Y-140620000D03*
X183300000Y-140620000D03*
X183700000Y-140620000D03*
X184100000Y-140620000D03*
X184500000Y-140620000D03*
X184900000Y-140620000D03*
X185300000Y-140620000D03*
X185700000Y-140620000D03*
X186100000Y-140620000D03*
D18*
X186950000Y-139770000D03*
X186950000Y-139370000D03*
X186950000Y-138970000D03*
X186950000Y-138570000D03*
X186950000Y-138170000D03*
X186950000Y-137770000D03*
X186950000Y-137370000D03*
X186950000Y-136970000D03*
X186950000Y-136570000D03*
X186950000Y-136170000D03*
X186950000Y-135770000D03*
X186950000Y-135370000D03*
X186950000Y-134970000D03*
X186950000Y-134570000D03*
D19*
X186100000Y-133720000D03*
X185700000Y-133720000D03*
X185300000Y-133720000D03*
X184900000Y-133720000D03*
X184500000Y-133720000D03*
X184100000Y-133720000D03*
X183700000Y-133720000D03*
X183300000Y-133720000D03*
X182900000Y-133720000D03*
X182500000Y-133720000D03*
X182100000Y-133720000D03*
X181700000Y-133720000D03*
X181300000Y-133720000D03*
X180900000Y-133720000D03*
%TD*%
D20*
%TO.C,SW1*%
X193280000Y-138100000D03*
X193280000Y-134500000D03*
D21*
X194670000Y-138100000D03*
X194670000Y-134500000D03*
%TD*%
D13*
%TO.C,R4*%
X185645000Y-141800000D03*
X184955000Y-141800000D03*
%TD*%
D22*
%TO.C,Y1*%
X184100000Y-130920000D03*
X182700000Y-130920000D03*
X182700000Y-132020000D03*
X184100000Y-132020000D03*
%TD*%
D15*
%TO.C,C13*%
X189355000Y-137800000D03*
X190045000Y-137800000D03*
%TD*%
D10*
%TO.C,C7*%
X179000000Y-134455000D03*
X179000000Y-135145000D03*
%TD*%
D23*
%TO.C,C16*%
X191100000Y-135020000D03*
X191100000Y-135980000D03*
%TD*%
D10*
%TO.C,C18*%
X179000000Y-139155000D03*
X179000000Y-139845000D03*
%TD*%
D11*
%TO.C,R2*%
X191100000Y-137645000D03*
X191100000Y-136955000D03*
%TD*%
D15*
%TO.C,C8*%
X179010000Y-132300000D03*
X179700000Y-132300000D03*
%TD*%
%TO.C,C6*%
X180855000Y-130570000D03*
X181545000Y-130570000D03*
%TD*%
%TO.C,R11*%
X189355000Y-138500000D03*
X190045000Y-138500000D03*
%TD*%
D24*
%TO.C,U5*%
X188350000Y-136862500D03*
X188850000Y-136862500D03*
X189350000Y-136862500D03*
X189850000Y-136862500D03*
D25*
X190012500Y-136200000D03*
X190012500Y-135700000D03*
X190012500Y-135200000D03*
D24*
X189850000Y-134537500D03*
X189350000Y-134537500D03*
X188850000Y-134537500D03*
X188350000Y-134537500D03*
D25*
X188187500Y-135200000D03*
X188187500Y-135700000D03*
X188187500Y-136200000D03*
%TD*%
D11*
%TO.C,C11*%
X178200000Y-138945000D03*
X178200000Y-138255000D03*
%TD*%
D15*
%TO.C,R1*%
X189175000Y-133600000D03*
X189865000Y-133600000D03*
%TD*%
D26*
%TO.C,D1*%
X176737500Y-138950000D03*
X176737500Y-138000000D03*
X176737500Y-137050000D03*
X174462500Y-137050000D03*
X174462500Y-138000000D03*
X174462500Y-138950000D03*
%TD*%
D11*
%TO.C,C15*%
X186500000Y-132515000D03*
X186500000Y-131825000D03*
%TD*%
%TO.C,R14*%
X187200000Y-132515000D03*
X187200000Y-131825000D03*
%TD*%
D10*
%TO.C,R13*%
X187900000Y-131825000D03*
X187900000Y-132515000D03*
%TD*%
D14*
%TO.C,C4*%
X180600000Y-132550000D03*
X180600000Y-131590000D03*
%TD*%
D13*
%TO.C,R8*%
X190045000Y-139300000D03*
X189355000Y-139300000D03*
%TD*%
%TO.C,R8*%
X164345000Y-139300000D03*
X163655000Y-139300000D03*
%TD*%
D10*
%TO.C,L1*%
X155800000Y-131725000D03*
X155800000Y-132415000D03*
%TD*%
D14*
%TO.C,C4*%
X154900000Y-132550000D03*
X154900000Y-131590000D03*
%TD*%
D10*
%TO.C,R13*%
X162200000Y-131825000D03*
X162200000Y-132515000D03*
%TD*%
D15*
%TO.C,C8*%
X153310000Y-132300000D03*
X154000000Y-132300000D03*
%TD*%
D11*
%TO.C,R14*%
X161500000Y-132515000D03*
X161500000Y-131825000D03*
%TD*%
%TO.C,C15*%
X160800000Y-132515000D03*
X160800000Y-131825000D03*
%TD*%
D26*
%TO.C,D1*%
X151037500Y-138950000D03*
X151037500Y-138000000D03*
X151037500Y-137050000D03*
X148762500Y-137050000D03*
X148762500Y-138000000D03*
X148762500Y-138950000D03*
%TD*%
D11*
%TO.C,C11*%
X152500000Y-138945000D03*
X152500000Y-138255000D03*
%TD*%
D15*
%TO.C,R1*%
X163475000Y-133600000D03*
X164165000Y-133600000D03*
%TD*%
D10*
%TO.C,C17*%
X166100000Y-136955000D03*
X166100000Y-137645000D03*
%TD*%
D17*
%TO.C,U1*%
X156470000Y-135840000D03*
X156470000Y-137170000D03*
X156470000Y-138500000D03*
X157800000Y-135840000D03*
X157800000Y-137170000D03*
X157800000Y-138500000D03*
X159130000Y-135840000D03*
X159130000Y-137170000D03*
X159130000Y-138500000D03*
D18*
X154350000Y-134570000D03*
X154350000Y-134970000D03*
X154350000Y-135370000D03*
X154350000Y-135770000D03*
X154350000Y-136170000D03*
X154350000Y-136570000D03*
X154350000Y-136970000D03*
X154350000Y-137370000D03*
X154350000Y-137770000D03*
X154350000Y-138170000D03*
X154350000Y-138570000D03*
X154350000Y-138970000D03*
X154350000Y-139370000D03*
X154350000Y-139770000D03*
D19*
X155200000Y-140620000D03*
X155600000Y-140620000D03*
X156000000Y-140620000D03*
X156400000Y-140620000D03*
X156800000Y-140620000D03*
X157200000Y-140620000D03*
X157600000Y-140620000D03*
X158000000Y-140620000D03*
X158400000Y-140620000D03*
X158800000Y-140620000D03*
X159200000Y-140620000D03*
X159600000Y-140620000D03*
X160000000Y-140620000D03*
X160400000Y-140620000D03*
D18*
X161250000Y-139770000D03*
X161250000Y-139370000D03*
X161250000Y-138970000D03*
X161250000Y-138570000D03*
X161250000Y-138170000D03*
X161250000Y-137770000D03*
X161250000Y-137370000D03*
X161250000Y-136970000D03*
X161250000Y-136570000D03*
X161250000Y-136170000D03*
X161250000Y-135770000D03*
X161250000Y-135370000D03*
X161250000Y-134970000D03*
X161250000Y-134570000D03*
D19*
X160400000Y-133720000D03*
X160000000Y-133720000D03*
X159600000Y-133720000D03*
X159200000Y-133720000D03*
X158800000Y-133720000D03*
X158400000Y-133720000D03*
X158000000Y-133720000D03*
X157600000Y-133720000D03*
X157200000Y-133720000D03*
X156800000Y-133720000D03*
X156400000Y-133720000D03*
X156000000Y-133720000D03*
X155600000Y-133720000D03*
X155200000Y-133720000D03*
%TD*%
D24*
%TO.C,U5*%
X162650000Y-136862500D03*
X163150000Y-136862500D03*
X163650000Y-136862500D03*
X164150000Y-136862500D03*
D25*
X164312500Y-136200000D03*
X164312500Y-135700000D03*
X164312500Y-135200000D03*
D24*
X164150000Y-134537500D03*
X163650000Y-134537500D03*
X163150000Y-134537500D03*
X162650000Y-134537500D03*
D25*
X162487500Y-135200000D03*
X162487500Y-135700000D03*
X162487500Y-136200000D03*
%TD*%
D15*
%TO.C,R11*%
X163655000Y-138500000D03*
X164345000Y-138500000D03*
%TD*%
%TO.C,C6*%
X155155000Y-130570000D03*
X155845000Y-130570000D03*
%TD*%
%TO.C,C13*%
X163655000Y-137800000D03*
X164345000Y-137800000D03*
%TD*%
D11*
%TO.C,R2*%
X165400000Y-137645000D03*
X165400000Y-136955000D03*
%TD*%
D10*
%TO.C,C18*%
X153300000Y-139155000D03*
X153300000Y-139845000D03*
%TD*%
D23*
%TO.C,C16*%
X165400000Y-135020000D03*
X165400000Y-135980000D03*
%TD*%
D10*
%TO.C,C7*%
X153300000Y-134455000D03*
X153300000Y-135145000D03*
%TD*%
D22*
%TO.C,Y1*%
X158400000Y-130920000D03*
X157000000Y-130920000D03*
X157000000Y-132020000D03*
X158400000Y-132020000D03*
%TD*%
D20*
%TO.C,SW1*%
X167580000Y-138100000D03*
X167580000Y-134500000D03*
D21*
X168970000Y-138100000D03*
X168970000Y-134500000D03*
%TD*%
D13*
%TO.C,R4*%
X159945000Y-141800000D03*
X159255000Y-141800000D03*
%TD*%
%TO.C,C14*%
X162990000Y-140400000D03*
X162300000Y-140400000D03*
%TD*%
D11*
%TO.C,L2*%
X153300000Y-133745000D03*
X153300000Y-133055000D03*
%TD*%
D15*
%TO.C,R10*%
X162255000Y-137800000D03*
X162945000Y-137800000D03*
%TD*%
D13*
%TO.C,R3*%
X161445000Y-141800000D03*
X160755000Y-141800000D03*
%TD*%
D16*
%TO.C,C2*%
X157020000Y-141800000D03*
X157980000Y-141800000D03*
%TD*%
D15*
%TO.C,C5*%
X159555000Y-130570000D03*
X160245000Y-130570000D03*
%TD*%
D14*
%TO.C,C3*%
X159700000Y-132550000D03*
X159700000Y-131590000D03*
%TD*%
D10*
%TO.C,R7*%
X152500000Y-140075000D03*
X152500000Y-140765000D03*
%TD*%
D11*
%TO.C,R15*%
X153300000Y-138445000D03*
X153300000Y-137755000D03*
%TD*%
D12*
%TO.C,AE1*%
X150962500Y-130950000D03*
X148037500Y-130950000D03*
%TD*%
D11*
%TO.C,R9*%
X162300000Y-139245000D03*
X162300000Y-138555000D03*
%TD*%
D15*
%TO.C,R1*%
X137775000Y-133600000D03*
X138465000Y-133600000D03*
%TD*%
D11*
%TO.C,R9*%
X136600000Y-139245000D03*
X136600000Y-138555000D03*
%TD*%
%TO.C,L2*%
X127600000Y-133745000D03*
X127600000Y-133055000D03*
%TD*%
D12*
%TO.C,AE1*%
X125262500Y-130950000D03*
X122337500Y-130950000D03*
%TD*%
D13*
%TO.C,C14*%
X137290000Y-140400000D03*
X136600000Y-140400000D03*
%TD*%
%TO.C,R4*%
X134245000Y-141800000D03*
X133555000Y-141800000D03*
%TD*%
D14*
%TO.C,C4*%
X129200000Y-132550000D03*
X129200000Y-131590000D03*
%TD*%
D26*
%TO.C,D1*%
X125337500Y-138950000D03*
X125337500Y-138000000D03*
X125337500Y-137050000D03*
X123062500Y-137050000D03*
X123062500Y-138000000D03*
X123062500Y-138950000D03*
%TD*%
D11*
%TO.C,R14*%
X135800000Y-132515000D03*
X135800000Y-131825000D03*
%TD*%
%TO.C,R15*%
X127600000Y-138445000D03*
X127600000Y-137755000D03*
%TD*%
D10*
%TO.C,R7*%
X126800000Y-140075000D03*
X126800000Y-140765000D03*
%TD*%
D14*
%TO.C,C3*%
X134000000Y-132550000D03*
X134000000Y-131590000D03*
%TD*%
D23*
%TO.C,C16*%
X139700000Y-135020000D03*
X139700000Y-135980000D03*
%TD*%
D15*
%TO.C,C5*%
X133855000Y-130570000D03*
X134545000Y-130570000D03*
%TD*%
D16*
%TO.C,C2*%
X131320000Y-141800000D03*
X132280000Y-141800000D03*
%TD*%
D13*
%TO.C,R3*%
X135745000Y-141800000D03*
X135055000Y-141800000D03*
%TD*%
D10*
%TO.C,C7*%
X127600000Y-134455000D03*
X127600000Y-135145000D03*
%TD*%
D15*
%TO.C,R10*%
X136555000Y-137800000D03*
X137245000Y-137800000D03*
%TD*%
D20*
%TO.C,SW1*%
X141880000Y-138100000D03*
X141880000Y-134500000D03*
D21*
X143270000Y-138100000D03*
X143270000Y-134500000D03*
%TD*%
D22*
%TO.C,Y1*%
X132700000Y-130920000D03*
X131300000Y-130920000D03*
X131300000Y-132020000D03*
X132700000Y-132020000D03*
%TD*%
D15*
%TO.C,C6*%
X129455000Y-130570000D03*
X130145000Y-130570000D03*
%TD*%
D10*
%TO.C,C18*%
X127600000Y-139155000D03*
X127600000Y-139845000D03*
%TD*%
D11*
%TO.C,R2*%
X139700000Y-137645000D03*
X139700000Y-136955000D03*
%TD*%
D15*
%TO.C,C13*%
X137955000Y-137800000D03*
X138645000Y-137800000D03*
%TD*%
D17*
%TO.C,U1*%
X130770000Y-135840000D03*
X130770000Y-137170000D03*
X130770000Y-138500000D03*
X132100000Y-135840000D03*
X132100000Y-137170000D03*
X132100000Y-138500000D03*
X133430000Y-135840000D03*
X133430000Y-137170000D03*
X133430000Y-138500000D03*
D18*
X128650000Y-134570000D03*
X128650000Y-134970000D03*
X128650000Y-135370000D03*
X128650000Y-135770000D03*
X128650000Y-136170000D03*
X128650000Y-136570000D03*
X128650000Y-136970000D03*
X128650000Y-137370000D03*
X128650000Y-137770000D03*
X128650000Y-138170000D03*
X128650000Y-138570000D03*
X128650000Y-138970000D03*
X128650000Y-139370000D03*
X128650000Y-139770000D03*
D19*
X129500000Y-140620000D03*
X129900000Y-140620000D03*
X130300000Y-140620000D03*
X130700000Y-140620000D03*
X131100000Y-140620000D03*
X131500000Y-140620000D03*
X131900000Y-140620000D03*
X132300000Y-140620000D03*
X132700000Y-140620000D03*
X133100000Y-140620000D03*
X133500000Y-140620000D03*
X133900000Y-140620000D03*
X134300000Y-140620000D03*
X134700000Y-140620000D03*
D18*
X135550000Y-139770000D03*
X135550000Y-139370000D03*
X135550000Y-138970000D03*
X135550000Y-138570000D03*
X135550000Y-138170000D03*
X135550000Y-137770000D03*
X135550000Y-137370000D03*
X135550000Y-136970000D03*
X135550000Y-136570000D03*
X135550000Y-136170000D03*
X135550000Y-135770000D03*
X135550000Y-135370000D03*
X135550000Y-134970000D03*
X135550000Y-134570000D03*
D19*
X134700000Y-133720000D03*
X134300000Y-133720000D03*
X133900000Y-133720000D03*
X133500000Y-133720000D03*
X133100000Y-133720000D03*
X132700000Y-133720000D03*
X132300000Y-133720000D03*
X131900000Y-133720000D03*
X131500000Y-133720000D03*
X131100000Y-133720000D03*
X130700000Y-133720000D03*
X130300000Y-133720000D03*
X129900000Y-133720000D03*
X129500000Y-133720000D03*
%TD*%
D11*
%TO.C,C15*%
X135100000Y-132515000D03*
X135100000Y-131825000D03*
%TD*%
D15*
%TO.C,R11*%
X137955000Y-138500000D03*
X138645000Y-138500000D03*
%TD*%
D24*
%TO.C,U5*%
X136950000Y-136862500D03*
X137450000Y-136862500D03*
X137950000Y-136862500D03*
X138450000Y-136862500D03*
D25*
X138612500Y-136200000D03*
X138612500Y-135700000D03*
X138612500Y-135200000D03*
D24*
X138450000Y-134537500D03*
X137950000Y-134537500D03*
X137450000Y-134537500D03*
X136950000Y-134537500D03*
D25*
X136787500Y-135200000D03*
X136787500Y-135700000D03*
X136787500Y-136200000D03*
%TD*%
D10*
%TO.C,C17*%
X140400000Y-136955000D03*
X140400000Y-137645000D03*
%TD*%
D11*
%TO.C,C11*%
X126800000Y-138945000D03*
X126800000Y-138255000D03*
%TD*%
D15*
%TO.C,C8*%
X127610000Y-132300000D03*
X128300000Y-132300000D03*
%TD*%
D10*
%TO.C,R13*%
X136500000Y-131825000D03*
X136500000Y-132515000D03*
%TD*%
%TO.C,L1*%
X130100000Y-131725000D03*
X130100000Y-132415000D03*
%TD*%
D13*
%TO.C,R8*%
X138645000Y-139300000D03*
X137955000Y-139300000D03*
%TD*%
D15*
%TO.C,R11*%
X112255000Y-138500000D03*
X112945000Y-138500000D03*
%TD*%
%TO.C,C6*%
X103755000Y-130570000D03*
X104445000Y-130570000D03*
%TD*%
D13*
%TO.C,R3*%
X110045000Y-141800000D03*
X109355000Y-141800000D03*
%TD*%
D10*
%TO.C,R13*%
X110800000Y-131825000D03*
X110800000Y-132515000D03*
%TD*%
D11*
%TO.C,C15*%
X109400000Y-132515000D03*
X109400000Y-131825000D03*
%TD*%
D22*
%TO.C,Y1*%
X107000000Y-130920000D03*
X105600000Y-130920000D03*
X105600000Y-132020000D03*
X107000000Y-132020000D03*
%TD*%
D11*
%TO.C,R15*%
X101900000Y-138445000D03*
X101900000Y-137755000D03*
%TD*%
D26*
%TO.C,D1*%
X99637500Y-138950000D03*
X99637500Y-138000000D03*
X99637500Y-137050000D03*
X97362500Y-137050000D03*
X97362500Y-138000000D03*
X97362500Y-138950000D03*
%TD*%
D11*
%TO.C,R14*%
X110100000Y-132515000D03*
X110100000Y-131825000D03*
%TD*%
D13*
%TO.C,C14*%
X111590000Y-140400000D03*
X110900000Y-140400000D03*
%TD*%
%TO.C,R4*%
X108545000Y-141800000D03*
X107855000Y-141800000D03*
%TD*%
D14*
%TO.C,C4*%
X103500000Y-132550000D03*
X103500000Y-131590000D03*
%TD*%
%TO.C,C3*%
X108300000Y-132550000D03*
X108300000Y-131590000D03*
%TD*%
D11*
%TO.C,L2*%
X101900000Y-133745000D03*
X101900000Y-133055000D03*
%TD*%
D24*
%TO.C,U5*%
X111250000Y-136862500D03*
X111750000Y-136862500D03*
X112250000Y-136862500D03*
X112750000Y-136862500D03*
D25*
X112912500Y-136200000D03*
X112912500Y-135700000D03*
X112912500Y-135200000D03*
D24*
X112750000Y-134537500D03*
X112250000Y-134537500D03*
X111750000Y-134537500D03*
X111250000Y-134537500D03*
D25*
X111087500Y-135200000D03*
X111087500Y-135700000D03*
X111087500Y-136200000D03*
%TD*%
D16*
%TO.C,C2*%
X105620000Y-141800000D03*
X106580000Y-141800000D03*
%TD*%
D11*
%TO.C,C11*%
X101100000Y-138945000D03*
X101100000Y-138255000D03*
%TD*%
%TO.C,R2*%
X114000000Y-137645000D03*
X114000000Y-136955000D03*
%TD*%
D15*
%TO.C,C5*%
X108155000Y-130570000D03*
X108845000Y-130570000D03*
%TD*%
D20*
%TO.C,SW1*%
X116180000Y-138100000D03*
X116180000Y-134500000D03*
D21*
X117570000Y-138100000D03*
X117570000Y-134500000D03*
%TD*%
D10*
%TO.C,C7*%
X101900000Y-134455000D03*
X101900000Y-135145000D03*
%TD*%
D15*
%TO.C,R10*%
X110855000Y-137800000D03*
X111545000Y-137800000D03*
%TD*%
D10*
%TO.C,C17*%
X114700000Y-136955000D03*
X114700000Y-137645000D03*
%TD*%
%TO.C,C18*%
X101900000Y-139155000D03*
X101900000Y-139845000D03*
%TD*%
D15*
%TO.C,C8*%
X101910000Y-132300000D03*
X102600000Y-132300000D03*
%TD*%
%TO.C,C13*%
X112255000Y-137800000D03*
X112945000Y-137800000D03*
%TD*%
D23*
%TO.C,C16*%
X114000000Y-135020000D03*
X114000000Y-135980000D03*
%TD*%
D10*
%TO.C,L1*%
X104400000Y-131725000D03*
X104400000Y-132415000D03*
%TD*%
D12*
%TO.C,AE1*%
X99562500Y-130950000D03*
X96637500Y-130950000D03*
%TD*%
D13*
%TO.C,R8*%
X112945000Y-139300000D03*
X112255000Y-139300000D03*
%TD*%
D15*
%TO.C,R1*%
X112075000Y-133600000D03*
X112765000Y-133600000D03*
%TD*%
D11*
%TO.C,R9*%
X110900000Y-139245000D03*
X110900000Y-138555000D03*
%TD*%
D10*
%TO.C,R7*%
X101100000Y-140075000D03*
X101100000Y-140765000D03*
%TD*%
D17*
%TO.C,U1*%
X105070000Y-135840000D03*
X105070000Y-137170000D03*
X105070000Y-138500000D03*
X106400000Y-135840000D03*
X106400000Y-137170000D03*
X106400000Y-138500000D03*
X107730000Y-135840000D03*
X107730000Y-137170000D03*
X107730000Y-138500000D03*
D18*
X102950000Y-134570000D03*
X102950000Y-134970000D03*
X102950000Y-135370000D03*
X102950000Y-135770000D03*
X102950000Y-136170000D03*
X102950000Y-136570000D03*
X102950000Y-136970000D03*
X102950000Y-137370000D03*
X102950000Y-137770000D03*
X102950000Y-138170000D03*
X102950000Y-138570000D03*
X102950000Y-138970000D03*
X102950000Y-139370000D03*
X102950000Y-139770000D03*
D19*
X103800000Y-140620000D03*
X104200000Y-140620000D03*
X104600000Y-140620000D03*
X105000000Y-140620000D03*
X105400000Y-140620000D03*
X105800000Y-140620000D03*
X106200000Y-140620000D03*
X106600000Y-140620000D03*
X107000000Y-140620000D03*
X107400000Y-140620000D03*
X107800000Y-140620000D03*
X108200000Y-140620000D03*
X108600000Y-140620000D03*
X109000000Y-140620000D03*
D18*
X109850000Y-139770000D03*
X109850000Y-139370000D03*
X109850000Y-138970000D03*
X109850000Y-138570000D03*
X109850000Y-138170000D03*
X109850000Y-137770000D03*
X109850000Y-137370000D03*
X109850000Y-136970000D03*
X109850000Y-136570000D03*
X109850000Y-136170000D03*
X109850000Y-135770000D03*
X109850000Y-135370000D03*
X109850000Y-134970000D03*
X109850000Y-134570000D03*
D19*
X109000000Y-133720000D03*
X108600000Y-133720000D03*
X108200000Y-133720000D03*
X107800000Y-133720000D03*
X107400000Y-133720000D03*
X107000000Y-133720000D03*
X106600000Y-133720000D03*
X106200000Y-133720000D03*
X105800000Y-133720000D03*
X105400000Y-133720000D03*
X105000000Y-133720000D03*
X104600000Y-133720000D03*
X104200000Y-133720000D03*
X103800000Y-133720000D03*
%TD*%
M02*
