%TF.GenerationSoftware,KiCad,Pcbnew,9.0.3*%
%TF.CreationDate,2025-08-09T11:23:57-04:00*%
%TF.ProjectId,flowstick_main_panel,666c6f77-7374-4696-936b-5f6d61696e5f,rev?*%
%TF.SameCoordinates,Original*%
%TF.FileFunction,Copper,L1,Top*%
%TF.FilePolarity,Positive*%
%FSLAX46Y46*%
G04 Gerber Fmt 4.6, Leading zero omitted, Abs format (unit mm)*
G04 Created by KiCad (PCBNEW 9.0.3) date 2025-08-09 11:23:57*
%MOMM*%
%LPD*%
G01*
G04 APERTURE LIST*
G04 Aperture macros list*
%AMRoundRect*
0 Rectangle with rounded corners*
0 $1 Rounding radius*
0 $2 $3 $4 $5 $6 $7 $8 $9 X,Y pos of 4 corners*
0 Add a 4 corners polygon primitive as box body*
4,1,4,$2,$3,$4,$5,$6,$7,$8,$9,$2,$3,0*
0 Add four circle primitives for the rounded corners*
1,1,$1+$1,$2,$3*
1,1,$1+$1,$4,$5*
1,1,$1+$1,$6,$7*
1,1,$1+$1,$8,$9*
0 Add four rect primitives between the rounded corners*
20,1,$1+$1,$2,$3,$4,$5,0*
20,1,$1+$1,$4,$5,$6,$7,0*
20,1,$1+$1,$6,$7,$8,$9,0*
20,1,$1+$1,$8,$9,$2,$3,0*%
%AMFreePoly0*
4,1,16,-0.600000,0.499999,0.100000,0.500000,0.206283,0.488573,0.339623,0.438839,0.453553,0.353553,0.538839,0.239624,0.588573,0.106282,0.600000,0.000000,0.588573,-0.106282,0.538839,-0.239624,0.453553,-0.353553,0.339623,-0.438839,0.206283,-0.488573,0.100000,-0.500000,-0.600000,-0.499999,-0.600000,0.499999,-0.600000,0.499999,$1*%
%AMFreePoly1*
4,1,12,-0.600000,0.250000,0.350000,0.250000,0.445671,0.230969,0.526777,0.176777,0.580970,0.095671,0.600000,0.000000,0.580970,-0.095671,0.526777,-0.176777,0.445671,-0.230969,0.350000,-0.250000,-0.600000,-0.250000,-0.600000,0.250000,-0.600000,0.250000,$1*%
%AMFreePoly2*
4,1,16,-0.750000,0.499999,0.250000,0.500000,0.356283,0.488573,0.489623,0.438839,0.603553,0.353553,0.688839,0.239624,0.738573,0.106282,0.750000,0.000000,0.738573,-0.106282,0.688839,-0.239624,0.603553,-0.353553,0.489623,-0.438839,0.356283,-0.488573,0.250000,-0.500000,-0.750000,-0.499999,-0.750000,0.499999,-0.750000,0.499999,$1*%
G04 Aperture macros list end*
%TA.AperFunction,Conductor*%
%ADD10C,0.300000*%
%TD*%
%TA.AperFunction,ComponentPad*%
%ADD11O,1.200000X2.200000*%
%TD*%
%TA.AperFunction,ComponentPad*%
%ADD12C,1.200000*%
%TD*%
%TA.AperFunction,SMDPad,CuDef*%
%ADD13RoundRect,0.100000X0.100000X-0.130000X0.100000X0.130000X-0.100000X0.130000X-0.100000X-0.130000X0*%
%TD*%
%TA.AperFunction,SMDPad,CuDef*%
%ADD14FreePoly0,45.000000*%
%TD*%
%TA.AperFunction,SMDPad,CuDef*%
%ADD15FreePoly1,45.000000*%
%TD*%
%TA.AperFunction,SMDPad,CuDef*%
%ADD16RoundRect,0.100000X-0.100000X0.130000X-0.100000X-0.130000X0.100000X-0.130000X0.100000X0.130000X0*%
%TD*%
%TA.AperFunction,SMDPad,CuDef*%
%ADD17RoundRect,0.100000X-0.130000X-0.100000X0.130000X-0.100000X0.130000X0.100000X-0.130000X0.100000X0*%
%TD*%
%TA.AperFunction,SMDPad,CuDef*%
%ADD18O,2.000000X1.000000*%
%TD*%
%TA.AperFunction,ComponentPad*%
%ADD19FreePoly2,315.000000*%
%TD*%
%TA.AperFunction,ComponentPad*%
%ADD20FreePoly2,225.000000*%
%TD*%
%TA.AperFunction,ComponentPad*%
%ADD21FreePoly2,135.000000*%
%TD*%
%TA.AperFunction,ComponentPad*%
%ADD22FreePoly2,45.000000*%
%TD*%
%TA.AperFunction,SMDPad,CuDef*%
%ADD23RoundRect,0.100000X0.130000X0.100000X-0.130000X0.100000X-0.130000X-0.100000X0.130000X-0.100000X0*%
%TD*%
%TA.AperFunction,SMDPad,CuDef*%
%ADD24FreePoly0,135.000000*%
%TD*%
%TA.AperFunction,SMDPad,CuDef*%
%ADD25FreePoly1,135.000000*%
%TD*%
%TA.AperFunction,SMDPad,CuDef*%
%ADD26R,0.900000X0.800000*%
%TD*%
%TA.AperFunction,SMDPad,CuDef*%
%ADD27RoundRect,0.250000X0.275000X-0.450000X0.275000X0.450000X-0.275000X0.450000X-0.275000X-0.450000X0*%
%TD*%
%TA.AperFunction,SMDPad,CuDef*%
%ADD28RoundRect,0.238095X0.261905X-0.461905X0.261905X0.461905X-0.261905X0.461905X-0.261905X-0.461905X0*%
%TD*%
%TA.AperFunction,SMDPad,CuDef*%
%ADD29RoundRect,0.140000X-0.170000X0.140000X-0.170000X-0.140000X0.170000X-0.140000X0.170000X0.140000X0*%
%TD*%
%TA.AperFunction,SMDPad,CuDef*%
%ADD30FreePoly0,315.000000*%
%TD*%
%TA.AperFunction,SMDPad,CuDef*%
%ADD31FreePoly1,315.000000*%
%TD*%
%TA.AperFunction,SMDPad,CuDef*%
%ADD32C,1.000000*%
%TD*%
%TA.AperFunction,SMDPad,CuDef*%
%ADD33FreePoly0,225.000000*%
%TD*%
%TA.AperFunction,SMDPad,CuDef*%
%ADD34FreePoly1,225.000000*%
%TD*%
%TA.AperFunction,SMDPad,CuDef*%
%ADD35RoundRect,0.140000X0.170000X-0.140000X0.170000X0.140000X-0.170000X0.140000X-0.170000X-0.140000X0*%
%TD*%
%TA.AperFunction,SMDPad,CuDef*%
%ADD36RoundRect,0.140000X-0.140000X-0.170000X0.140000X-0.170000X0.140000X0.170000X-0.140000X0.170000X0*%
%TD*%
%TA.AperFunction,SMDPad,CuDef*%
%ADD37RoundRect,0.250000X0.312500X0.625000X-0.312500X0.625000X-0.312500X-0.625000X0.312500X-0.625000X0*%
%TD*%
%TA.AperFunction,SMDPad,CuDef*%
%ADD38RoundRect,0.050000X-0.350000X-0.050000X0.350000X-0.050000X0.350000X0.050000X-0.350000X0.050000X0*%
%TD*%
%TA.AperFunction,SMDPad,CuDef*%
%ADD39RoundRect,0.050000X-0.050000X-0.350000X0.050000X-0.350000X0.050000X0.350000X-0.050000X0.350000X0*%
%TD*%
%TA.AperFunction,HeatsinkPad*%
%ADD40R,4.000000X4.000000*%
%TD*%
%TA.AperFunction,SMDPad,CuDef*%
%ADD41RoundRect,0.150000X0.512500X0.150000X-0.512500X0.150000X-0.512500X-0.150000X0.512500X-0.150000X0*%
%TD*%
%TA.AperFunction,SMDPad,CuDef*%
%ADD42RoundRect,0.087500X0.087500X-0.225000X0.087500X0.225000X-0.087500X0.225000X-0.087500X-0.225000X0*%
%TD*%
%TA.AperFunction,SMDPad,CuDef*%
%ADD43RoundRect,0.087500X0.225000X-0.087500X0.225000X0.087500X-0.225000X0.087500X-0.225000X-0.087500X0*%
%TD*%
%TA.AperFunction,HeatsinkPad*%
%ADD44O,1.800000X1.000000*%
%TD*%
%TA.AperFunction,HeatsinkPad*%
%ADD45O,2.100000X1.000000*%
%TD*%
%TA.AperFunction,ViaPad*%
%ADD46C,0.420000*%
%TD*%
%TA.AperFunction,Conductor*%
%ADD47C,0.110000*%
%TD*%
%TA.AperFunction,Conductor*%
%ADD48C,0.200000*%
%TD*%
G04 APERTURE END LIST*
D10*
%TO.N,Net-(AE1-Pad1)*%
X126400000Y-130950000D02*
G75*
G02*
X127600000Y-132150000I0J-1200000D01*
G01*
X177800000Y-130950000D02*
G75*
G02*
X179000000Y-132150000I0J-1200000D01*
G01*
X100700000Y-130950000D02*
G75*
G02*
X101900000Y-132150000I0J-1200000D01*
G01*
X152100000Y-130950000D02*
G75*
G02*
X153300000Y-132150000I0J-1200000D01*
G01*
%TD*%
D11*
%TO.P,BT1,1,+*%
%TO.N,+BATT*%
X176100000Y-141300000D03*
D12*
X176100000Y-141800000D03*
D11*
%TO.P,BT1,2,-*%
%TO.N,GND*%
X174100000Y-141300000D03*
D12*
X174100000Y-141800000D03*
%TD*%
D13*
%TO.P,R15,1*%
%TO.N,Net-(U1-CHIP_PU)*%
X153300000Y-138420000D03*
%TO.P,R15,2*%
%TO.N,+3.3V*%
X153300000Y-137780000D03*
%TD*%
D14*
%TO.P,J5,1,Pin_1*%
%TO.N,GND*%
X182040380Y-121391865D03*
D15*
%TO.P,J5,2,Pin_2*%
%TO.N,/LED_DAT*%
X182676776Y-122028261D03*
%TO.P,J5,3,Pin_3*%
%TO.N,/LED_CLK*%
X183171751Y-122523236D03*
D14*
%TO.P,J5,4,Pin_4*%
%TO.N,+5V*%
X183808147Y-123159632D03*
%TD*%
D16*
%TO.P,C17,1*%
%TO.N,/BUTTON*%
X166100000Y-136980000D03*
%TO.P,C17,2*%
%TO.N,GND*%
X166100000Y-137620000D03*
%TD*%
D13*
%TO.P,R2,1*%
%TO.N,Net-(J1-CC2)*%
X191100000Y-137620000D03*
%TO.P,R2,2*%
%TO.N,GND*%
X191100000Y-136980000D03*
%TD*%
D17*
%TO.P,R11,1*%
%TO.N,/VREF*%
X112280000Y-138500000D03*
%TO.P,R11,2*%
%TO.N,GND*%
X112920000Y-138500000D03*
%TD*%
D18*
%TO.P,J4,1,Pin_1*%
%TO.N,/LED_DAT*%
X113500000Y-141900000D03*
%TD*%
D19*
%TO.P,REF\u002A\u002A,1*%
%TO.N,N/C*%
X145823223Y-98473223D03*
D20*
X146176777Y-98473223D03*
D21*
X146176777Y-109126777D03*
D22*
X145823223Y-109126777D03*
%TD*%
D17*
%TO.P,C6,1*%
%TO.N,GND*%
X103780000Y-130570000D03*
%TO.P,C6,2*%
%TO.N,Net-(C6-Pad2)*%
X104420000Y-130570000D03*
%TD*%
D11*
%TO.P,BT1,1,+*%
%TO.N,+BATT*%
X99000000Y-141300000D03*
D12*
X99000000Y-141800000D03*
D11*
%TO.P,BT1,2,-*%
%TO.N,GND*%
X97000000Y-141300000D03*
D12*
X97000000Y-141800000D03*
%TD*%
D20*
%TO.P,REF\u002A\u002A,1*%
%TO.N,N/C*%
X184176777Y-84473235D03*
D19*
X183823223Y-84473235D03*
D22*
X183823223Y-95126789D03*
D21*
X184176777Y-95126789D03*
%TD*%
D23*
%TO.P,R3,1*%
%TO.N,/USBDP*%
X110020000Y-141800000D03*
%TO.P,R3,2*%
%TO.N,Net-(U1-GPIO20{slash}USB_D+)*%
X109380000Y-141800000D03*
%TD*%
D16*
%TO.P,R13,1*%
%TO.N,VBUS*%
X110800000Y-131850000D03*
%TO.P,R13,2*%
%TO.N,/VBUS_SENSE*%
X110800000Y-132490000D03*
%TD*%
D20*
%TO.P,REF\u002A\u002A,1*%
%TO.N,N/C*%
X184176781Y-70473247D03*
D19*
X183823227Y-70473247D03*
D22*
X183823227Y-81126801D03*
D21*
X184176781Y-81126801D03*
%TD*%
D24*
%TO.P,J6,1,Pin_1*%
%TO.N,+5V*%
X184191853Y-123159632D03*
D25*
%TO.P,J6,2,Pin_2*%
%TO.N,/LED_CLK*%
X184828249Y-122523236D03*
%TO.P,J6,3,Pin_3*%
%TO.N,/LED_DAT*%
X185323224Y-122028261D03*
D24*
%TO.P,J6,4,Pin_4*%
%TO.N,GND*%
X185959620Y-121391865D03*
%TD*%
D13*
%TO.P,C11,1*%
%TO.N,Net-(D1A-K)*%
X152500000Y-138920000D03*
%TO.P,C11,2*%
%TO.N,GND*%
X152500000Y-138280000D03*
%TD*%
%TO.P,R14,1*%
%TO.N,/VBUS_SENSE*%
X135800000Y-132490000D03*
%TO.P,R14,2*%
%TO.N,GND*%
X135800000Y-131850000D03*
%TD*%
D16*
%TO.P,L1,1,1*%
%TO.N,Net-(C6-Pad2)*%
X155800000Y-131750000D03*
%TO.P,L1,2,2*%
%TO.N,Net-(U1-XTAL_P)*%
X155800000Y-132390000D03*
%TD*%
D17*
%TO.P,C13,1*%
%TO.N,/VREF*%
X163680000Y-137800000D03*
%TO.P,C13,2*%
%TO.N,GND*%
X164320000Y-137800000D03*
%TD*%
D26*
%TO.P,Y1,1,1*%
%TO.N,Net-(U1-XTAL_N)*%
X158400000Y-130920000D03*
%TO.P,Y1,2,2*%
%TO.N,GND*%
X157000000Y-130920000D03*
%TO.P,Y1,3,3*%
%TO.N,Net-(C6-Pad2)*%
X157000000Y-132020000D03*
%TO.P,Y1,4,4*%
%TO.N,GND*%
X158400000Y-132020000D03*
%TD*%
D27*
%TO.P,SW1,1,1*%
%TO.N,+BATT*%
X141880000Y-138100000D03*
X141880000Y-134500000D03*
D28*
%TO.P,SW1,2,2*%
%TO.N,/BUTTON*%
X143270000Y-138100000D03*
X143270000Y-134500000D03*
%TD*%
D20*
%TO.P,REF\u002A\u002A,1*%
%TO.N,N/C*%
X108176777Y-84473223D03*
D19*
X107823223Y-84473223D03*
D22*
X107823223Y-95126777D03*
D21*
X108176777Y-95126777D03*
%TD*%
D13*
%TO.P,R2,1*%
%TO.N,Net-(J1-CC2)*%
X165400000Y-137620000D03*
%TO.P,R2,2*%
%TO.N,GND*%
X165400000Y-136980000D03*
%TD*%
D29*
%TO.P,C16,1*%
%TO.N,+3.3V*%
X165400000Y-135020000D03*
%TO.P,C16,2*%
%TO.N,GND*%
X165400000Y-135980000D03*
%TD*%
D19*
%TO.P,REF\u002A\u002A,1*%
%TO.N,N/C*%
X145823227Y-70473235D03*
D20*
X146176781Y-70473235D03*
D21*
X146176781Y-81126789D03*
D22*
X145823227Y-81126789D03*
%TD*%
D13*
%TO.P,C15,1*%
%TO.N,/VBUS_SENSE*%
X109400000Y-132490000D03*
%TO.P,C15,2*%
%TO.N,GND*%
X109400000Y-131850000D03*
%TD*%
D23*
%TO.P,R4,1*%
%TO.N,/USBDM*%
X134220000Y-141800000D03*
%TO.P,R4,2*%
%TO.N,Net-(U1-GPIO19{slash}USB_D-)*%
X133580000Y-141800000D03*
%TD*%
D30*
%TO.P,J8,1,Pin_1*%
%TO.N,+5V*%
X107808147Y-112440380D03*
D31*
%TO.P,J8,2,Pin_2*%
%TO.N,/LED_CLK*%
X107171751Y-113076776D03*
%TO.P,J8,3,Pin_3*%
%TO.N,/LED_DAT*%
X106676776Y-113571751D03*
D30*
%TO.P,J8,4,Pin_4*%
%TO.N,GND*%
X106040380Y-114208147D03*
%TD*%
D32*
%TO.P,REF\u002A\u002A,*%
%TO.N,*%
X190800000Y-65000000D03*
%TD*%
D17*
%TO.P,C6,1*%
%TO.N,GND*%
X180880000Y-130570000D03*
%TO.P,C6,2*%
%TO.N,Net-(C6-Pad2)*%
X181520000Y-130570000D03*
%TD*%
D33*
%TO.P,J7,1,Pin_1*%
%TO.N,GND*%
X166959620Y-114208147D03*
D34*
%TO.P,J7,2,Pin_2*%
%TO.N,/LED_DAT*%
X166323224Y-113571751D03*
%TO.P,J7,3,Pin_3*%
%TO.N,/LED_CLK*%
X165828249Y-113076776D03*
D33*
%TO.P,J7,4,Pin_4*%
%TO.N,+5V*%
X165191853Y-112440380D03*
%TD*%
D16*
%TO.P,C17,1*%
%TO.N,/BUTTON*%
X140400000Y-136980000D03*
%TO.P,C17,2*%
%TO.N,GND*%
X140400000Y-137620000D03*
%TD*%
D35*
%TO.P,C4,1*%
%TO.N,+3.3V*%
X180600000Y-132550000D03*
%TO.P,C4,2*%
%TO.N,GND*%
X180600000Y-131590000D03*
%TD*%
D26*
%TO.P,Y1,1,1*%
%TO.N,Net-(U1-XTAL_N)*%
X107000000Y-130920000D03*
%TO.P,Y1,2,2*%
%TO.N,GND*%
X105600000Y-130920000D03*
%TO.P,Y1,3,3*%
%TO.N,Net-(C6-Pad2)*%
X105600000Y-132020000D03*
%TO.P,Y1,4,4*%
%TO.N,GND*%
X107000000Y-132020000D03*
%TD*%
D35*
%TO.P,C4,1*%
%TO.N,+3.3V*%
X129200000Y-132550000D03*
%TO.P,C4,2*%
%TO.N,GND*%
X129200000Y-131590000D03*
%TD*%
D26*
%TO.P,Y1,1,1*%
%TO.N,Net-(U1-XTAL_N)*%
X184100000Y-130920000D03*
%TO.P,Y1,2,2*%
%TO.N,GND*%
X182700000Y-130920000D03*
%TO.P,Y1,3,3*%
%TO.N,Net-(C6-Pad2)*%
X182700000Y-132020000D03*
%TO.P,Y1,4,4*%
%TO.N,GND*%
X184100000Y-132020000D03*
%TD*%
D36*
%TO.P,C2,1*%
%TO.N,+3.3V*%
X131320000Y-141800000D03*
%TO.P,C2,2*%
%TO.N,GND*%
X132280000Y-141800000D03*
%TD*%
D23*
%TO.P,C14,1*%
%TO.N,/BATT_MEASURE*%
X162965000Y-140400000D03*
%TO.P,C14,2*%
%TO.N,/BATT_MEASURE_EN*%
X162325000Y-140400000D03*
%TD*%
D16*
%TO.P,C7,1*%
%TO.N,Net-(U1-LNA_IN)*%
X153300000Y-134480000D03*
%TO.P,C7,2*%
%TO.N,GND*%
X153300000Y-135120000D03*
%TD*%
D37*
%TO.P,AE1,1*%
%TO.N,Net-(AE1-Pad1)*%
X176662500Y-130950000D03*
%TO.P,AE1,2*%
%TO.N,unconnected-(AE1-Pad2)*%
X173737500Y-130950000D03*
%TD*%
D13*
%TO.P,L2,1,1*%
%TO.N,Net-(U1-LNA_IN)*%
X179000000Y-133720000D03*
%TO.P,L2,2,2*%
%TO.N,Net-(AE1-Pad1)*%
X179000000Y-133080000D03*
%TD*%
D17*
%TO.P,R11,1*%
%TO.N,/VREF*%
X163680000Y-138500000D03*
%TO.P,R11,2*%
%TO.N,GND*%
X164320000Y-138500000D03*
%TD*%
D20*
%TO.P,REF\u002A\u002A,1*%
%TO.N,N/C*%
X165176777Y-98473223D03*
D19*
X164823223Y-98473223D03*
D22*
X164823223Y-109126777D03*
D21*
X165176777Y-109126777D03*
%TD*%
D38*
%TO.P,U1,1,LNA_IN*%
%TO.N,Net-(U1-LNA_IN)*%
X128650000Y-134570000D03*
%TO.P,U1,2,VDD3P3*%
%TO.N,+3.3V*%
X128650000Y-134970000D03*
%TO.P,U1,3,VDD3P3*%
X128650000Y-135370000D03*
%TO.P,U1,4,CHIP_PU*%
%TO.N,Net-(U1-CHIP_PU)*%
X128650000Y-135770000D03*
%TO.P,U1,5,GPIO0*%
%TO.N,Net-(U1-GPIO0)*%
X128650000Y-136170000D03*
%TO.P,U1,6,GPIO1*%
%TO.N,unconnected-(U1-GPIO1-Pad6)*%
X128650000Y-136570000D03*
%TO.P,U1,7,GPIO2*%
%TO.N,unconnected-(U1-GPIO2-Pad7)*%
X128650000Y-136970000D03*
%TO.P,U1,8,GPIO3*%
%TO.N,unconnected-(U1-GPIO3-Pad8)*%
X128650000Y-137370000D03*
%TO.P,U1,9,GPIO4*%
%TO.N,unconnected-(U1-GPIO4-Pad9)*%
X128650000Y-137770000D03*
%TO.P,U1,10,GPIO5*%
%TO.N,unconnected-(U1-GPIO5-Pad10)*%
X128650000Y-138170000D03*
%TO.P,U1,11,GPIO6*%
%TO.N,unconnected-(U1-GPIO6-Pad11)*%
X128650000Y-138570000D03*
%TO.P,U1,12,GPIO7*%
%TO.N,unconnected-(U1-GPIO7-Pad12)*%
X128650000Y-138970000D03*
%TO.P,U1,13,GPIO8*%
%TO.N,/VREF*%
X128650000Y-139370000D03*
%TO.P,U1,14,GPIO9*%
%TO.N,/BATT_MEASURE*%
X128650000Y-139770000D03*
D39*
%TO.P,U1,15,GPIO10*%
%TO.N,/BUTTON*%
X129500000Y-140620000D03*
%TO.P,U1,16,GPIO11*%
%TO.N,/PWRHLD*%
X129900000Y-140620000D03*
%TO.P,U1,17,GPIO12*%
%TO.N,/CHG_SENSE*%
X130300000Y-140620000D03*
%TO.P,U1,18,GPIO13*%
%TO.N,unconnected-(U1-GPIO13-Pad18)*%
X130700000Y-140620000D03*
%TO.P,U1,19,GPIO14*%
%TO.N,unconnected-(U1-GPIO14-Pad19)*%
X131100000Y-140620000D03*
%TO.P,U1,20,VDD3P3_RTC*%
%TO.N,+3.3V*%
X131500000Y-140620000D03*
%TO.P,U1,21,XTAL_32K_P*%
%TO.N,unconnected-(U1-XTAL_32K_P-Pad21)*%
X131900000Y-140620000D03*
%TO.P,U1,22,XTAL_32K_N*%
%TO.N,unconnected-(U1-XTAL_32K_N-Pad22)*%
X132300000Y-140620000D03*
%TO.P,U1,23,GPIO17*%
%TO.N,unconnected-(U1-GPIO17-Pad23)*%
X132700000Y-140620000D03*
%TO.P,U1,24,GPIO18*%
%TO.N,/BATT_MEASURE_EN*%
X133100000Y-140620000D03*
%TO.P,U1,25,GPIO19/USB_D-*%
%TO.N,Net-(U1-GPIO19{slash}USB_D-)*%
X133500000Y-140620000D03*
%TO.P,U1,26,GPIO20/USB_D+*%
%TO.N,Net-(U1-GPIO20{slash}USB_D+)*%
X133900000Y-140620000D03*
%TO.P,U1,27,GPIO21*%
%TO.N,/LED_DAT*%
X134300000Y-140620000D03*
%TO.P,U1,28,SPICS1*%
%TO.N,unconnected-(U1-SPICS1-Pad28)*%
X134700000Y-140620000D03*
D38*
%TO.P,U1,29,VDD_SPI*%
%TO.N,+3.3V*%
X135550000Y-139770000D03*
%TO.P,U1,30,SPIHD*%
%TO.N,unconnected-(U1-SPIHD-Pad30)*%
X135550000Y-139370000D03*
%TO.P,U1,31,SPIWP*%
%TO.N,unconnected-(U1-SPIWP-Pad31)*%
X135550000Y-138970000D03*
%TO.P,U1,32,SPICS0*%
%TO.N,unconnected-(U1-SPICS0-Pad32)*%
X135550000Y-138570000D03*
%TO.P,U1,33,SPICLK*%
%TO.N,unconnected-(U1-SPICLK-Pad33)*%
X135550000Y-138170000D03*
%TO.P,U1,34,SPIQ*%
%TO.N,unconnected-(U1-SPIQ-Pad34)*%
X135550000Y-137770000D03*
%TO.P,U1,35,SPID*%
%TO.N,unconnected-(U1-SPID-Pad35)*%
X135550000Y-137370000D03*
%TO.P,U1,36,SPICLK_N*%
%TO.N,unconnected-(U1-SPICLK_N-Pad36)*%
X135550000Y-136970000D03*
%TO.P,U1,37,SPICLK_P*%
%TO.N,unconnected-(U1-SPICLK_P-Pad37)*%
X135550000Y-136570000D03*
%TO.P,U1,38,GPIO33*%
%TO.N,/IMU_PICO*%
X135550000Y-136170000D03*
%TO.P,U1,39,GPIO34*%
%TO.N,/IMU_POCI*%
X135550000Y-135770000D03*
%TO.P,U1,40,GPIO35*%
%TO.N,/IMU_SCK*%
X135550000Y-135370000D03*
%TO.P,U1,41,GPIO36*%
%TO.N,/IMU_CS*%
X135550000Y-134970000D03*
%TO.P,U1,42,GPIO37*%
%TO.N,/LED_CLK*%
X135550000Y-134570000D03*
D39*
%TO.P,U1,43,GPIO38*%
%TO.N,/VBUS_SENSE*%
X134700000Y-133720000D03*
%TO.P,U1,44,MTCK*%
%TO.N,unconnected-(U1-MTCK-Pad44)*%
X134300000Y-133720000D03*
%TO.P,U1,45,MTDO*%
%TO.N,unconnected-(U1-MTDO-Pad45)*%
X133900000Y-133720000D03*
%TO.P,U1,46,VDD3P3_CPU*%
%TO.N,+3.3V*%
X133500000Y-133720000D03*
%TO.P,U1,47,MTDI*%
%TO.N,unconnected-(U1-MTDI-Pad47)*%
X133100000Y-133720000D03*
%TO.P,U1,48,MTMS*%
%TO.N,unconnected-(U1-MTMS-Pad48)*%
X132700000Y-133720000D03*
%TO.P,U1,49,U0TXD*%
%TO.N,unconnected-(U1-U0TXD-Pad49)*%
X132300000Y-133720000D03*
%TO.P,U1,50,U0RXD*%
%TO.N,unconnected-(U1-U0RXD-Pad50)*%
X131900000Y-133720000D03*
%TO.P,U1,51,GPIO45*%
%TO.N,unconnected-(U1-GPIO45-Pad51)*%
X131500000Y-133720000D03*
%TO.P,U1,52,GPIO46*%
%TO.N,unconnected-(U1-GPIO46-Pad52)*%
X131100000Y-133720000D03*
%TO.P,U1,53,XTAL_N*%
%TO.N,Net-(U1-XTAL_N)*%
X130700000Y-133720000D03*
%TO.P,U1,54,XTAL_P*%
%TO.N,Net-(U1-XTAL_P)*%
X130300000Y-133720000D03*
%TO.P,U1,55,VDDA*%
%TO.N,+3.3V*%
X129900000Y-133720000D03*
%TO.P,U1,56,VDDA*%
X129500000Y-133720000D03*
D40*
%TO.P,U1,57,GND*%
%TO.N,GND*%
X132100000Y-137170000D03*
%TD*%
D19*
%TO.P,REF\u002A\u002A,1*%
%TO.N,N/C*%
X107823227Y-70473235D03*
D20*
X108176781Y-70473235D03*
D22*
X107823227Y-81126789D03*
D21*
X108176781Y-81126789D03*
%TD*%
D17*
%TO.P,R1,1*%
%TO.N,Net-(J1-CC1)*%
X163500000Y-133600000D03*
%TO.P,R1,2*%
%TO.N,GND*%
X164140000Y-133600000D03*
%TD*%
%TO.P,R1,1*%
%TO.N,Net-(J1-CC1)*%
X189200000Y-133600000D03*
%TO.P,R1,2*%
%TO.N,GND*%
X189840000Y-133600000D03*
%TD*%
D13*
%TO.P,R15,1*%
%TO.N,Net-(U1-CHIP_PU)*%
X101900000Y-138420000D03*
%TO.P,R15,2*%
%TO.N,+3.3V*%
X101900000Y-137780000D03*
%TD*%
D23*
%TO.P,R3,1*%
%TO.N,/USBDP*%
X187120000Y-141800000D03*
%TO.P,R3,2*%
%TO.N,Net-(U1-GPIO20{slash}USB_D+)*%
X186480000Y-141800000D03*
%TD*%
D41*
%TO.P,D1,1,A*%
%TO.N,VBUS*%
X99637500Y-138950000D03*
%TO.P,D1,2,A*%
%TO.N,/BUTTON*%
X99637500Y-138000000D03*
%TO.P,D1,3,A*%
%TO.N,/PWRHLD*%
X99637500Y-137050000D03*
%TO.P,D1,4,K*%
%TO.N,Net-(D1A-K)*%
X97362500Y-137050000D03*
%TO.P,D1,5,K*%
X97362500Y-138000000D03*
%TO.P,D1,6,K*%
X97362500Y-138950000D03*
%TD*%
D16*
%TO.P,L1,1,1*%
%TO.N,Net-(C6-Pad2)*%
X130100000Y-131750000D03*
%TO.P,L1,2,2*%
%TO.N,Net-(U1-XTAL_P)*%
X130100000Y-132390000D03*
%TD*%
D13*
%TO.P,R14,1*%
%TO.N,/VBUS_SENSE*%
X110100000Y-132490000D03*
%TO.P,R14,2*%
%TO.N,GND*%
X110100000Y-131850000D03*
%TD*%
D17*
%TO.P,C8,1*%
%TO.N,Net-(AE1-Pad1)*%
X153335000Y-132300000D03*
%TO.P,C8,2*%
%TO.N,GND*%
X153975000Y-132300000D03*
%TD*%
D19*
%TO.P,REF\u002A\u002A,1*%
%TO.N,N/C*%
X164823227Y-70473235D03*
D20*
X165176781Y-70473235D03*
D21*
X165176781Y-81126789D03*
D22*
X164823227Y-81126789D03*
%TD*%
D17*
%TO.P,C13,1*%
%TO.N,/VREF*%
X137980000Y-137800000D03*
%TO.P,C13,2*%
%TO.N,GND*%
X138620000Y-137800000D03*
%TD*%
D18*
%TO.P,J4,1,Pin_1*%
%TO.N,/LED_DAT*%
X190600000Y-141900000D03*
%TD*%
D23*
%TO.P,C14,1*%
%TO.N,/BATT_MEASURE*%
X111565000Y-140400000D03*
%TO.P,C14,2*%
%TO.N,/BATT_MEASURE_EN*%
X110925000Y-140400000D03*
%TD*%
%TO.P,R3,1*%
%TO.N,/USBDP*%
X135720000Y-141800000D03*
%TO.P,R3,2*%
%TO.N,Net-(U1-GPIO20{slash}USB_D+)*%
X135080000Y-141800000D03*
%TD*%
D14*
%TO.P,J5,1,Pin_1*%
%TO.N,GND*%
X106040380Y-121391853D03*
D15*
%TO.P,J5,2,Pin_2*%
%TO.N,/LED_DAT*%
X106676776Y-122028249D03*
%TO.P,J5,3,Pin_3*%
%TO.N,/LED_CLK*%
X107171751Y-122523224D03*
D14*
%TO.P,J5,4,Pin_4*%
%TO.N,+5V*%
X107808147Y-123159620D03*
%TD*%
D11*
%TO.P,BT1,1,+*%
%TO.N,+BATT*%
X124700000Y-141300000D03*
D12*
X124700000Y-141800000D03*
D11*
%TO.P,BT1,2,-*%
%TO.N,GND*%
X122700000Y-141300000D03*
D12*
X122700000Y-141800000D03*
%TD*%
D18*
%TO.P,J4,1,Pin_1*%
%TO.N,/LED_DAT*%
X164900000Y-141900000D03*
%TD*%
D13*
%TO.P,C11,1*%
%TO.N,Net-(D1A-K)*%
X178200000Y-138920000D03*
%TO.P,C11,2*%
%TO.N,GND*%
X178200000Y-138280000D03*
%TD*%
D17*
%TO.P,C6,1*%
%TO.N,GND*%
X155180000Y-130570000D03*
%TO.P,C6,2*%
%TO.N,Net-(C6-Pad2)*%
X155820000Y-130570000D03*
%TD*%
D23*
%TO.P,R4,1*%
%TO.N,/USBDM*%
X108520000Y-141800000D03*
%TO.P,R4,2*%
%TO.N,Net-(U1-GPIO19{slash}USB_D-)*%
X107880000Y-141800000D03*
%TD*%
D16*
%TO.P,R7,1*%
%TO.N,Net-(D1A-K)*%
X152500000Y-140100000D03*
%TO.P,R7,2*%
%TO.N,GND*%
X152500000Y-140740000D03*
%TD*%
D35*
%TO.P,C4,1*%
%TO.N,+3.3V*%
X103500000Y-132550000D03*
%TO.P,C4,2*%
%TO.N,GND*%
X103500000Y-131590000D03*
%TD*%
D16*
%TO.P,C18,1*%
%TO.N,Net-(U1-CHIP_PU)*%
X127600000Y-139180000D03*
%TO.P,C18,2*%
%TO.N,GND*%
X127600000Y-139820000D03*
%TD*%
D38*
%TO.P,U1,1,LNA_IN*%
%TO.N,Net-(U1-LNA_IN)*%
X180050000Y-134570000D03*
%TO.P,U1,2,VDD3P3*%
%TO.N,+3.3V*%
X180050000Y-134970000D03*
%TO.P,U1,3,VDD3P3*%
X180050000Y-135370000D03*
%TO.P,U1,4,CHIP_PU*%
%TO.N,Net-(U1-CHIP_PU)*%
X180050000Y-135770000D03*
%TO.P,U1,5,GPIO0*%
%TO.N,Net-(U1-GPIO0)*%
X180050000Y-136170000D03*
%TO.P,U1,6,GPIO1*%
%TO.N,unconnected-(U1-GPIO1-Pad6)*%
X180050000Y-136570000D03*
%TO.P,U1,7,GPIO2*%
%TO.N,unconnected-(U1-GPIO2-Pad7)*%
X180050000Y-136970000D03*
%TO.P,U1,8,GPIO3*%
%TO.N,unconnected-(U1-GPIO3-Pad8)*%
X180050000Y-137370000D03*
%TO.P,U1,9,GPIO4*%
%TO.N,unconnected-(U1-GPIO4-Pad9)*%
X180050000Y-137770000D03*
%TO.P,U1,10,GPIO5*%
%TO.N,unconnected-(U1-GPIO5-Pad10)*%
X180050000Y-138170000D03*
%TO.P,U1,11,GPIO6*%
%TO.N,unconnected-(U1-GPIO6-Pad11)*%
X180050000Y-138570000D03*
%TO.P,U1,12,GPIO7*%
%TO.N,unconnected-(U1-GPIO7-Pad12)*%
X180050000Y-138970000D03*
%TO.P,U1,13,GPIO8*%
%TO.N,/VREF*%
X180050000Y-139370000D03*
%TO.P,U1,14,GPIO9*%
%TO.N,/BATT_MEASURE*%
X180050000Y-139770000D03*
D39*
%TO.P,U1,15,GPIO10*%
%TO.N,/BUTTON*%
X180900000Y-140620000D03*
%TO.P,U1,16,GPIO11*%
%TO.N,/PWRHLD*%
X181300000Y-140620000D03*
%TO.P,U1,17,GPIO12*%
%TO.N,/CHG_SENSE*%
X181700000Y-140620000D03*
%TO.P,U1,18,GPIO13*%
%TO.N,unconnected-(U1-GPIO13-Pad18)*%
X182100000Y-140620000D03*
%TO.P,U1,19,GPIO14*%
%TO.N,unconnected-(U1-GPIO14-Pad19)*%
X182500000Y-140620000D03*
%TO.P,U1,20,VDD3P3_RTC*%
%TO.N,+3.3V*%
X182900000Y-140620000D03*
%TO.P,U1,21,XTAL_32K_P*%
%TO.N,unconnected-(U1-XTAL_32K_P-Pad21)*%
X183300000Y-140620000D03*
%TO.P,U1,22,XTAL_32K_N*%
%TO.N,unconnected-(U1-XTAL_32K_N-Pad22)*%
X183700000Y-140620000D03*
%TO.P,U1,23,GPIO17*%
%TO.N,unconnected-(U1-GPIO17-Pad23)*%
X184100000Y-140620000D03*
%TO.P,U1,24,GPIO18*%
%TO.N,/BATT_MEASURE_EN*%
X184500000Y-140620000D03*
%TO.P,U1,25,GPIO19/USB_D-*%
%TO.N,Net-(U1-GPIO19{slash}USB_D-)*%
X184900000Y-140620000D03*
%TO.P,U1,26,GPIO20/USB_D+*%
%TO.N,Net-(U1-GPIO20{slash}USB_D+)*%
X185300000Y-140620000D03*
%TO.P,U1,27,GPIO21*%
%TO.N,/LED_DAT*%
X185700000Y-140620000D03*
%TO.P,U1,28,SPICS1*%
%TO.N,unconnected-(U1-SPICS1-Pad28)*%
X186100000Y-140620000D03*
D38*
%TO.P,U1,29,VDD_SPI*%
%TO.N,+3.3V*%
X186950000Y-139770000D03*
%TO.P,U1,30,SPIHD*%
%TO.N,unconnected-(U1-SPIHD-Pad30)*%
X186950000Y-139370000D03*
%TO.P,U1,31,SPIWP*%
%TO.N,unconnected-(U1-SPIWP-Pad31)*%
X186950000Y-138970000D03*
%TO.P,U1,32,SPICS0*%
%TO.N,unconnected-(U1-SPICS0-Pad32)*%
X186950000Y-138570000D03*
%TO.P,U1,33,SPICLK*%
%TO.N,unconnected-(U1-SPICLK-Pad33)*%
X186950000Y-138170000D03*
%TO.P,U1,34,SPIQ*%
%TO.N,unconnected-(U1-SPIQ-Pad34)*%
X186950000Y-137770000D03*
%TO.P,U1,35,SPID*%
%TO.N,unconnected-(U1-SPID-Pad35)*%
X186950000Y-137370000D03*
%TO.P,U1,36,SPICLK_N*%
%TO.N,unconnected-(U1-SPICLK_N-Pad36)*%
X186950000Y-136970000D03*
%TO.P,U1,37,SPICLK_P*%
%TO.N,unconnected-(U1-SPICLK_P-Pad37)*%
X186950000Y-136570000D03*
%TO.P,U1,38,GPIO33*%
%TO.N,/IMU_PICO*%
X186950000Y-136170000D03*
%TO.P,U1,39,GPIO34*%
%TO.N,/IMU_POCI*%
X186950000Y-135770000D03*
%TO.P,U1,40,GPIO35*%
%TO.N,/IMU_SCK*%
X186950000Y-135370000D03*
%TO.P,U1,41,GPIO36*%
%TO.N,/IMU_CS*%
X186950000Y-134970000D03*
%TO.P,U1,42,GPIO37*%
%TO.N,/LED_CLK*%
X186950000Y-134570000D03*
D39*
%TO.P,U1,43,GPIO38*%
%TO.N,/VBUS_SENSE*%
X186100000Y-133720000D03*
%TO.P,U1,44,MTCK*%
%TO.N,unconnected-(U1-MTCK-Pad44)*%
X185700000Y-133720000D03*
%TO.P,U1,45,MTDO*%
%TO.N,unconnected-(U1-MTDO-Pad45)*%
X185300000Y-133720000D03*
%TO.P,U1,46,VDD3P3_CPU*%
%TO.N,+3.3V*%
X184900000Y-133720000D03*
%TO.P,U1,47,MTDI*%
%TO.N,unconnected-(U1-MTDI-Pad47)*%
X184500000Y-133720000D03*
%TO.P,U1,48,MTMS*%
%TO.N,unconnected-(U1-MTMS-Pad48)*%
X184100000Y-133720000D03*
%TO.P,U1,49,U0TXD*%
%TO.N,unconnected-(U1-U0TXD-Pad49)*%
X183700000Y-133720000D03*
%TO.P,U1,50,U0RXD*%
%TO.N,unconnected-(U1-U0RXD-Pad50)*%
X183300000Y-133720000D03*
%TO.P,U1,51,GPIO45*%
%TO.N,unconnected-(U1-GPIO45-Pad51)*%
X182900000Y-133720000D03*
%TO.P,U1,52,GPIO46*%
%TO.N,unconnected-(U1-GPIO46-Pad52)*%
X182500000Y-133720000D03*
%TO.P,U1,53,XTAL_N*%
%TO.N,Net-(U1-XTAL_N)*%
X182100000Y-133720000D03*
%TO.P,U1,54,XTAL_P*%
%TO.N,Net-(U1-XTAL_P)*%
X181700000Y-133720000D03*
%TO.P,U1,55,VDDA*%
%TO.N,+3.3V*%
X181300000Y-133720000D03*
%TO.P,U1,56,VDDA*%
X180900000Y-133720000D03*
D40*
%TO.P,U1,57,GND*%
%TO.N,GND*%
X183500000Y-137170000D03*
%TD*%
D23*
%TO.P,R8,1*%
%TO.N,+BATT*%
X190020000Y-139300000D03*
%TO.P,R8,2*%
%TO.N,/BATT_MEASURE*%
X189380000Y-139300000D03*
%TD*%
D13*
%TO.P,R2,1*%
%TO.N,Net-(J1-CC2)*%
X139700000Y-137620000D03*
%TO.P,R2,2*%
%TO.N,GND*%
X139700000Y-136980000D03*
%TD*%
D19*
%TO.P,REF\u002A\u002A,1*%
%TO.N,N/C*%
X145823223Y-84473223D03*
D20*
X146176777Y-84473223D03*
D22*
X145823223Y-95126777D03*
D21*
X146176777Y-95126777D03*
%TD*%
D23*
%TO.P,R4,1*%
%TO.N,/USBDM*%
X159920000Y-141800000D03*
%TO.P,R4,2*%
%TO.N,Net-(U1-GPIO19{slash}USB_D-)*%
X159280000Y-141800000D03*
%TD*%
D17*
%TO.P,C5,1*%
%TO.N,Net-(U1-XTAL_N)*%
X185280000Y-130570000D03*
%TO.P,C5,2*%
%TO.N,GND*%
X185920000Y-130570000D03*
%TD*%
D30*
%TO.P,J8,1,Pin_1*%
%TO.N,+5V*%
X145808147Y-112440380D03*
D31*
%TO.P,J8,2,Pin_2*%
%TO.N,/LED_CLK*%
X145171751Y-113076776D03*
%TO.P,J8,3,Pin_3*%
%TO.N,/LED_DAT*%
X144676776Y-113571751D03*
D30*
%TO.P,J8,4,Pin_4*%
%TO.N,GND*%
X144040380Y-114208147D03*
%TD*%
D35*
%TO.P,C3,1*%
%TO.N,+3.3V*%
X108300000Y-132550000D03*
%TO.P,C3,2*%
%TO.N,GND*%
X108300000Y-131590000D03*
%TD*%
D23*
%TO.P,R8,1*%
%TO.N,+BATT*%
X138620000Y-139300000D03*
%TO.P,R8,2*%
%TO.N,/BATT_MEASURE*%
X137980000Y-139300000D03*
%TD*%
D13*
%TO.P,L2,1,1*%
%TO.N,Net-(U1-LNA_IN)*%
X101900000Y-133720000D03*
%TO.P,L2,2,2*%
%TO.N,Net-(AE1-Pad1)*%
X101900000Y-133080000D03*
%TD*%
D19*
%TO.P,REF\u002A\u002A,1*%
%TO.N,N/C*%
X126823223Y-70473223D03*
D20*
X127176777Y-70473223D03*
D22*
X126823223Y-81126777D03*
D21*
X127176777Y-81126777D03*
%TD*%
D42*
%TO.P,U5,1,SDO/SA0*%
%TO.N,/IMU_PICO*%
X111250000Y-136862500D03*
%TO.P,U5,2,SDX*%
%TO.N,GND*%
X111750000Y-136862500D03*
%TO.P,U5,3,SCX*%
X112250000Y-136862500D03*
%TO.P,U5,4,INT1*%
%TO.N,unconnected-(U5-INT1-Pad4)*%
X112750000Y-136862500D03*
D43*
%TO.P,U5,5,VDDIO*%
%TO.N,+3.3V*%
X112912500Y-136200000D03*
%TO.P,U5,6,GND*%
%TO.N,GND*%
X112912500Y-135700000D03*
%TO.P,U5,7,GND*%
X112912500Y-135200000D03*
D42*
%TO.P,U5,8,VDD*%
%TO.N,+3.3V*%
X112750000Y-134537500D03*
%TO.P,U5,9,INT2*%
%TO.N,unconnected-(U5-INT2-Pad9)*%
X112250000Y-134537500D03*
%TO.P,U5,10,NC*%
%TO.N,unconnected-(U5-NC-Pad10)*%
X111750000Y-134537500D03*
%TO.P,U5,11,NC*%
%TO.N,unconnected-(U5-NC-Pad11)*%
X111250000Y-134537500D03*
D43*
%TO.P,U5,12,CS*%
%TO.N,/IMU_CS*%
X111087500Y-135200000D03*
%TO.P,U5,13,SCL*%
%TO.N,/IMU_SCK*%
X111087500Y-135700000D03*
%TO.P,U5,14,SDA*%
%TO.N,/IMU_POCI*%
X111087500Y-136200000D03*
%TD*%
D32*
%TO.P,REF\u002A\u002A,*%
%TO.N,*%
X190800000Y-147400000D03*
%TD*%
D35*
%TO.P,C3,1*%
%TO.N,+3.3V*%
X159700000Y-132550000D03*
%TO.P,C3,2*%
%TO.N,GND*%
X159700000Y-131590000D03*
%TD*%
D13*
%TO.P,R15,1*%
%TO.N,Net-(U1-CHIP_PU)*%
X127600000Y-138420000D03*
%TO.P,R15,2*%
%TO.N,+3.3V*%
X127600000Y-137780000D03*
%TD*%
D16*
%TO.P,L1,1,1*%
%TO.N,Net-(C6-Pad2)*%
X181500000Y-131750000D03*
%TO.P,L1,2,2*%
%TO.N,Net-(U1-XTAL_P)*%
X181500000Y-132390000D03*
%TD*%
D36*
%TO.P,C2,1*%
%TO.N,+3.3V*%
X105620000Y-141800000D03*
%TO.P,C2,2*%
%TO.N,GND*%
X106580000Y-141800000D03*
%TD*%
D23*
%TO.P,R3,1*%
%TO.N,/USBDP*%
X161420000Y-141800000D03*
%TO.P,R3,2*%
%TO.N,Net-(U1-GPIO20{slash}USB_D+)*%
X160780000Y-141800000D03*
%TD*%
D33*
%TO.P,J7,1,Pin_1*%
%TO.N,GND*%
X109959620Y-114208147D03*
D34*
%TO.P,J7,2,Pin_2*%
%TO.N,/LED_DAT*%
X109323224Y-113571751D03*
%TO.P,J7,3,Pin_3*%
%TO.N,/LED_CLK*%
X108828249Y-113076776D03*
D33*
%TO.P,J7,4,Pin_4*%
%TO.N,+5V*%
X108191853Y-112440380D03*
%TD*%
D17*
%TO.P,R10,1*%
%TO.N,+3.3V*%
X136580000Y-137800000D03*
%TO.P,R10,2*%
%TO.N,/VREF*%
X137220000Y-137800000D03*
%TD*%
%TO.P,C5,1*%
%TO.N,Net-(U1-XTAL_N)*%
X159580000Y-130570000D03*
%TO.P,C5,2*%
%TO.N,GND*%
X160220000Y-130570000D03*
%TD*%
D13*
%TO.P,C11,1*%
%TO.N,Net-(D1A-K)*%
X101100000Y-138920000D03*
%TO.P,C11,2*%
%TO.N,GND*%
X101100000Y-138280000D03*
%TD*%
D11*
%TO.P,BT1,1,+*%
%TO.N,+BATT*%
X150400000Y-141300000D03*
D12*
X150400000Y-141800000D03*
D11*
%TO.P,BT1,2,-*%
%TO.N,GND*%
X148400000Y-141300000D03*
D12*
X148400000Y-141800000D03*
%TD*%
D37*
%TO.P,AE1,1*%
%TO.N,Net-(AE1-Pad1)*%
X150962500Y-130950000D03*
%TO.P,AE1,2*%
%TO.N,unconnected-(AE1-Pad2)*%
X148037500Y-130950000D03*
%TD*%
D13*
%TO.P,R15,1*%
%TO.N,Net-(U1-CHIP_PU)*%
X179000000Y-138420000D03*
%TO.P,R15,2*%
%TO.N,+3.3V*%
X179000000Y-137780000D03*
%TD*%
%TO.P,R2,1*%
%TO.N,Net-(J1-CC2)*%
X114000000Y-137620000D03*
%TO.P,R2,2*%
%TO.N,GND*%
X114000000Y-136980000D03*
%TD*%
D42*
%TO.P,U5,1,SDO/SA0*%
%TO.N,/IMU_PICO*%
X136950000Y-136862500D03*
%TO.P,U5,2,SDX*%
%TO.N,GND*%
X137450000Y-136862500D03*
%TO.P,U5,3,SCX*%
X137950000Y-136862500D03*
%TO.P,U5,4,INT1*%
%TO.N,unconnected-(U5-INT1-Pad4)*%
X138450000Y-136862500D03*
D43*
%TO.P,U5,5,VDDIO*%
%TO.N,+3.3V*%
X138612500Y-136200000D03*
%TO.P,U5,6,GND*%
%TO.N,GND*%
X138612500Y-135700000D03*
%TO.P,U5,7,GND*%
X138612500Y-135200000D03*
D42*
%TO.P,U5,8,VDD*%
%TO.N,+3.3V*%
X138450000Y-134537500D03*
%TO.P,U5,9,INT2*%
%TO.N,unconnected-(U5-INT2-Pad9)*%
X137950000Y-134537500D03*
%TO.P,U5,10,NC*%
%TO.N,unconnected-(U5-NC-Pad10)*%
X137450000Y-134537500D03*
%TO.P,U5,11,NC*%
%TO.N,unconnected-(U5-NC-Pad11)*%
X136950000Y-134537500D03*
D43*
%TO.P,U5,12,CS*%
%TO.N,/IMU_CS*%
X136787500Y-135200000D03*
%TO.P,U5,13,SCL*%
%TO.N,/IMU_SCK*%
X136787500Y-135700000D03*
%TO.P,U5,14,SDA*%
%TO.N,/IMU_POCI*%
X136787500Y-136200000D03*
%TD*%
D17*
%TO.P,C5,1*%
%TO.N,Net-(U1-XTAL_N)*%
X108180000Y-130570000D03*
%TO.P,C5,2*%
%TO.N,GND*%
X108820000Y-130570000D03*
%TD*%
D27*
%TO.P,SW1,1,1*%
%TO.N,+BATT*%
X116180000Y-138100000D03*
X116180000Y-134500000D03*
D28*
%TO.P,SW1,2,2*%
%TO.N,/BUTTON*%
X117570000Y-138100000D03*
X117570000Y-134500000D03*
%TD*%
D16*
%TO.P,C7,1*%
%TO.N,Net-(U1-LNA_IN)*%
X101900000Y-134480000D03*
%TO.P,C7,2*%
%TO.N,GND*%
X101900000Y-135120000D03*
%TD*%
D27*
%TO.P,SW1,1,1*%
%TO.N,+BATT*%
X167580000Y-138100000D03*
X167580000Y-134500000D03*
D28*
%TO.P,SW1,2,2*%
%TO.N,/BUTTON*%
X168970000Y-138100000D03*
X168970000Y-134500000D03*
%TD*%
D17*
%TO.P,R10,1*%
%TO.N,+3.3V*%
X110880000Y-137800000D03*
%TO.P,R10,2*%
%TO.N,/VREF*%
X111520000Y-137800000D03*
%TD*%
D19*
%TO.P,REF\u002A\u002A,1*%
%TO.N,N/C*%
X126823219Y-84473211D03*
D20*
X127176773Y-84473211D03*
D21*
X127176773Y-95126765D03*
D22*
X126823219Y-95126765D03*
%TD*%
D36*
%TO.P,C2,1*%
%TO.N,+3.3V*%
X157020000Y-141800000D03*
%TO.P,C2,2*%
%TO.N,GND*%
X157980000Y-141800000D03*
%TD*%
D37*
%TO.P,AE1,1*%
%TO.N,Net-(AE1-Pad1)*%
X125262500Y-130950000D03*
%TO.P,AE1,2*%
%TO.N,unconnected-(AE1-Pad2)*%
X122337500Y-130950000D03*
%TD*%
D35*
%TO.P,C3,1*%
%TO.N,+3.3V*%
X185400000Y-132550000D03*
%TO.P,C3,2*%
%TO.N,GND*%
X185400000Y-131590000D03*
%TD*%
D16*
%TO.P,C7,1*%
%TO.N,Net-(U1-LNA_IN)*%
X179000000Y-134480000D03*
%TO.P,C7,2*%
%TO.N,GND*%
X179000000Y-135120000D03*
%TD*%
%TO.P,C17,1*%
%TO.N,/BUTTON*%
X114700000Y-136980000D03*
%TO.P,C17,2*%
%TO.N,GND*%
X114700000Y-137620000D03*
%TD*%
D30*
%TO.P,J8,1,Pin_1*%
%TO.N,+5V*%
X164808147Y-112440380D03*
D31*
%TO.P,J8,2,Pin_2*%
%TO.N,/LED_CLK*%
X164171751Y-113076776D03*
%TO.P,J8,3,Pin_3*%
%TO.N,/LED_DAT*%
X163676776Y-113571751D03*
D30*
%TO.P,J8,4,Pin_4*%
%TO.N,GND*%
X163040380Y-114208147D03*
%TD*%
D13*
%TO.P,R14,1*%
%TO.N,/VBUS_SENSE*%
X161500000Y-132490000D03*
%TO.P,R14,2*%
%TO.N,GND*%
X161500000Y-131850000D03*
%TD*%
D16*
%TO.P,C18,1*%
%TO.N,Net-(U1-CHIP_PU)*%
X101900000Y-139180000D03*
%TO.P,C18,2*%
%TO.N,GND*%
X101900000Y-139820000D03*
%TD*%
D13*
%TO.P,C15,1*%
%TO.N,/VBUS_SENSE*%
X135100000Y-132490000D03*
%TO.P,C15,2*%
%TO.N,GND*%
X135100000Y-131850000D03*
%TD*%
D24*
%TO.P,J6,1,Pin_1*%
%TO.N,+5V*%
X127191849Y-123159608D03*
D25*
%TO.P,J6,2,Pin_2*%
%TO.N,/LED_CLK*%
X127828245Y-122523212D03*
%TO.P,J6,3,Pin_3*%
%TO.N,/LED_DAT*%
X128323220Y-122028237D03*
D24*
%TO.P,J6,4,Pin_4*%
%TO.N,GND*%
X128959616Y-121391841D03*
%TD*%
D13*
%TO.P,R14,1*%
%TO.N,/VBUS_SENSE*%
X187200000Y-132490000D03*
%TO.P,R14,2*%
%TO.N,GND*%
X187200000Y-131850000D03*
%TD*%
D27*
%TO.P,SW1,1,1*%
%TO.N,+BATT*%
X193280000Y-138100000D03*
X193280000Y-134500000D03*
D28*
%TO.P,SW1,2,2*%
%TO.N,/BUTTON*%
X194670000Y-138100000D03*
X194670000Y-134500000D03*
%TD*%
D23*
%TO.P,C14,1*%
%TO.N,/BATT_MEASURE*%
X188665000Y-140400000D03*
%TO.P,C14,2*%
%TO.N,/BATT_MEASURE_EN*%
X188025000Y-140400000D03*
%TD*%
D17*
%TO.P,C8,1*%
%TO.N,Net-(AE1-Pad1)*%
X101935000Y-132300000D03*
%TO.P,C8,2*%
%TO.N,GND*%
X102575000Y-132300000D03*
%TD*%
D23*
%TO.P,R4,1*%
%TO.N,/USBDM*%
X185620000Y-141800000D03*
%TO.P,R4,2*%
%TO.N,Net-(U1-GPIO19{slash}USB_D-)*%
X184980000Y-141800000D03*
%TD*%
D13*
%TO.P,L2,1,1*%
%TO.N,Net-(U1-LNA_IN)*%
X127600000Y-133720000D03*
%TO.P,L2,2,2*%
%TO.N,Net-(AE1-Pad1)*%
X127600000Y-133080000D03*
%TD*%
%TO.P,R9,1*%
%TO.N,/BATT_MEASURE*%
X188000000Y-139220000D03*
%TO.P,R9,2*%
%TO.N,/BATT_MEASURE_EN*%
X188000000Y-138580000D03*
%TD*%
D17*
%TO.P,C13,1*%
%TO.N,/VREF*%
X112280000Y-137800000D03*
%TO.P,C13,2*%
%TO.N,GND*%
X112920000Y-137800000D03*
%TD*%
D35*
%TO.P,C3,1*%
%TO.N,+3.3V*%
X134000000Y-132550000D03*
%TO.P,C3,2*%
%TO.N,GND*%
X134000000Y-131590000D03*
%TD*%
D29*
%TO.P,C16,1*%
%TO.N,+3.3V*%
X114000000Y-135020000D03*
%TO.P,C16,2*%
%TO.N,GND*%
X114000000Y-135980000D03*
%TD*%
D16*
%TO.P,C18,1*%
%TO.N,Net-(U1-CHIP_PU)*%
X179000000Y-139180000D03*
%TO.P,C18,2*%
%TO.N,GND*%
X179000000Y-139820000D03*
%TD*%
D32*
%TO.P,REF\u002A\u002A,*%
%TO.N,*%
X102000000Y-147400001D03*
%TD*%
D24*
%TO.P,J6,1,Pin_1*%
%TO.N,+5V*%
X146191853Y-123159620D03*
D25*
%TO.P,J6,2,Pin_2*%
%TO.N,/LED_CLK*%
X146828249Y-122523224D03*
%TO.P,J6,3,Pin_3*%
%TO.N,/LED_DAT*%
X147323224Y-122028249D03*
D24*
%TO.P,J6,4,Pin_4*%
%TO.N,GND*%
X147959620Y-121391853D03*
%TD*%
D20*
%TO.P,REF\u002A\u002A,1*%
%TO.N,N/C*%
X165176777Y-84473223D03*
D19*
X164823223Y-84473223D03*
D22*
X164823223Y-95126777D03*
D21*
X165176777Y-95126777D03*
%TD*%
D16*
%TO.P,L1,1,1*%
%TO.N,Net-(C6-Pad2)*%
X104400000Y-131750000D03*
%TO.P,L1,2,2*%
%TO.N,Net-(U1-XTAL_P)*%
X104400000Y-132390000D03*
%TD*%
D37*
%TO.P,AE1,1*%
%TO.N,Net-(AE1-Pad1)*%
X99562500Y-130950000D03*
%TO.P,AE1,2*%
%TO.N,unconnected-(AE1-Pad2)*%
X96637500Y-130950000D03*
%TD*%
D26*
%TO.P,Y1,1,1*%
%TO.N,Net-(U1-XTAL_N)*%
X132700000Y-130920000D03*
%TO.P,Y1,2,2*%
%TO.N,GND*%
X131300000Y-130920000D03*
%TO.P,Y1,3,3*%
%TO.N,Net-(C6-Pad2)*%
X131300000Y-132020000D03*
%TO.P,Y1,4,4*%
%TO.N,GND*%
X132700000Y-132020000D03*
%TD*%
D13*
%TO.P,C11,1*%
%TO.N,Net-(D1A-K)*%
X126800000Y-138920000D03*
%TO.P,C11,2*%
%TO.N,GND*%
X126800000Y-138280000D03*
%TD*%
D41*
%TO.P,D1,1,A*%
%TO.N,VBUS*%
X125337500Y-138950000D03*
%TO.P,D1,2,A*%
%TO.N,/BUTTON*%
X125337500Y-138000000D03*
%TO.P,D1,3,A*%
%TO.N,/PWRHLD*%
X125337500Y-137050000D03*
%TO.P,D1,4,K*%
%TO.N,Net-(D1A-K)*%
X123062500Y-137050000D03*
%TO.P,D1,5,K*%
X123062500Y-138000000D03*
%TO.P,D1,6,K*%
X123062500Y-138950000D03*
%TD*%
D17*
%TO.P,R1,1*%
%TO.N,Net-(J1-CC1)*%
X137800000Y-133600000D03*
%TO.P,R1,2*%
%TO.N,GND*%
X138440000Y-133600000D03*
%TD*%
%TO.P,R10,1*%
%TO.N,+3.3V*%
X187980000Y-137800000D03*
%TO.P,R10,2*%
%TO.N,/VREF*%
X188620000Y-137800000D03*
%TD*%
D13*
%TO.P,R9,1*%
%TO.N,/BATT_MEASURE*%
X136600000Y-139220000D03*
%TO.P,R9,2*%
%TO.N,/BATT_MEASURE_EN*%
X136600000Y-138580000D03*
%TD*%
%TO.P,C15,1*%
%TO.N,/VBUS_SENSE*%
X186500000Y-132490000D03*
%TO.P,C15,2*%
%TO.N,GND*%
X186500000Y-131850000D03*
%TD*%
D17*
%TO.P,C13,1*%
%TO.N,/VREF*%
X189380000Y-137800000D03*
%TO.P,C13,2*%
%TO.N,GND*%
X190020000Y-137800000D03*
%TD*%
D23*
%TO.P,R8,1*%
%TO.N,+BATT*%
X112920000Y-139300000D03*
%TO.P,R8,2*%
%TO.N,/BATT_MEASURE*%
X112280000Y-139300000D03*
%TD*%
D16*
%TO.P,R7,1*%
%TO.N,Net-(D1A-K)*%
X178200000Y-140100000D03*
%TO.P,R7,2*%
%TO.N,GND*%
X178200000Y-140740000D03*
%TD*%
D29*
%TO.P,C16,1*%
%TO.N,+3.3V*%
X191100000Y-135020000D03*
%TO.P,C16,2*%
%TO.N,GND*%
X191100000Y-135980000D03*
%TD*%
D17*
%TO.P,R1,1*%
%TO.N,Net-(J1-CC1)*%
X112100000Y-133600000D03*
%TO.P,R1,2*%
%TO.N,GND*%
X112740000Y-133600000D03*
%TD*%
D13*
%TO.P,R9,1*%
%TO.N,/BATT_MEASURE*%
X110900000Y-139220000D03*
%TO.P,R9,2*%
%TO.N,/BATT_MEASURE_EN*%
X110900000Y-138580000D03*
%TD*%
D16*
%TO.P,R13,1*%
%TO.N,VBUS*%
X187900000Y-131850000D03*
%TO.P,R13,2*%
%TO.N,/VBUS_SENSE*%
X187900000Y-132490000D03*
%TD*%
D17*
%TO.P,C6,1*%
%TO.N,GND*%
X129480000Y-130570000D03*
%TO.P,C6,2*%
%TO.N,Net-(C6-Pad2)*%
X130120000Y-130570000D03*
%TD*%
D30*
%TO.P,J8,1,Pin_1*%
%TO.N,+5V*%
X183808147Y-112440392D03*
D31*
%TO.P,J8,2,Pin_2*%
%TO.N,/LED_CLK*%
X183171751Y-113076788D03*
%TO.P,J8,3,Pin_3*%
%TO.N,/LED_DAT*%
X182676776Y-113571763D03*
D30*
%TO.P,J8,4,Pin_4*%
%TO.N,GND*%
X182040380Y-114208159D03*
%TD*%
D35*
%TO.P,C4,1*%
%TO.N,+3.3V*%
X154900000Y-132550000D03*
%TO.P,C4,2*%
%TO.N,GND*%
X154900000Y-131590000D03*
%TD*%
D33*
%TO.P,J7,1,Pin_1*%
%TO.N,GND*%
X185959620Y-114208159D03*
D34*
%TO.P,J7,2,Pin_2*%
%TO.N,/LED_DAT*%
X185323224Y-113571763D03*
%TO.P,J7,3,Pin_3*%
%TO.N,/LED_CLK*%
X184828249Y-113076788D03*
D33*
%TO.P,J7,4,Pin_4*%
%TO.N,+5V*%
X184191853Y-112440392D03*
%TD*%
D17*
%TO.P,C8,1*%
%TO.N,Net-(AE1-Pad1)*%
X179035000Y-132300000D03*
%TO.P,C8,2*%
%TO.N,GND*%
X179675000Y-132300000D03*
%TD*%
D16*
%TO.P,C17,1*%
%TO.N,/BUTTON*%
X191800000Y-136980000D03*
%TO.P,C17,2*%
%TO.N,GND*%
X191800000Y-137620000D03*
%TD*%
%TO.P,R7,1*%
%TO.N,Net-(D1A-K)*%
X101100000Y-140100000D03*
%TO.P,R7,2*%
%TO.N,GND*%
X101100000Y-140740000D03*
%TD*%
D17*
%TO.P,R11,1*%
%TO.N,/VREF*%
X137980000Y-138500000D03*
%TO.P,R11,2*%
%TO.N,GND*%
X138620000Y-138500000D03*
%TD*%
D38*
%TO.P,U1,1,LNA_IN*%
%TO.N,Net-(U1-LNA_IN)*%
X102950000Y-134570000D03*
%TO.P,U1,2,VDD3P3*%
%TO.N,+3.3V*%
X102950000Y-134970000D03*
%TO.P,U1,3,VDD3P3*%
X102950000Y-135370000D03*
%TO.P,U1,4,CHIP_PU*%
%TO.N,Net-(U1-CHIP_PU)*%
X102950000Y-135770000D03*
%TO.P,U1,5,GPIO0*%
%TO.N,Net-(U1-GPIO0)*%
X102950000Y-136170000D03*
%TO.P,U1,6,GPIO1*%
%TO.N,unconnected-(U1-GPIO1-Pad6)*%
X102950000Y-136570000D03*
%TO.P,U1,7,GPIO2*%
%TO.N,unconnected-(U1-GPIO2-Pad7)*%
X102950000Y-136970000D03*
%TO.P,U1,8,GPIO3*%
%TO.N,unconnected-(U1-GPIO3-Pad8)*%
X102950000Y-137370000D03*
%TO.P,U1,9,GPIO4*%
%TO.N,unconnected-(U1-GPIO4-Pad9)*%
X102950000Y-137770000D03*
%TO.P,U1,10,GPIO5*%
%TO.N,unconnected-(U1-GPIO5-Pad10)*%
X102950000Y-138170000D03*
%TO.P,U1,11,GPIO6*%
%TO.N,unconnected-(U1-GPIO6-Pad11)*%
X102950000Y-138570000D03*
%TO.P,U1,12,GPIO7*%
%TO.N,unconnected-(U1-GPIO7-Pad12)*%
X102950000Y-138970000D03*
%TO.P,U1,13,GPIO8*%
%TO.N,/VREF*%
X102950000Y-139370000D03*
%TO.P,U1,14,GPIO9*%
%TO.N,/BATT_MEASURE*%
X102950000Y-139770000D03*
D39*
%TO.P,U1,15,GPIO10*%
%TO.N,/BUTTON*%
X103800000Y-140620000D03*
%TO.P,U1,16,GPIO11*%
%TO.N,/PWRHLD*%
X104200000Y-140620000D03*
%TO.P,U1,17,GPIO12*%
%TO.N,/CHG_SENSE*%
X104600000Y-140620000D03*
%TO.P,U1,18,GPIO13*%
%TO.N,unconnected-(U1-GPIO13-Pad18)*%
X105000000Y-140620000D03*
%TO.P,U1,19,GPIO14*%
%TO.N,unconnected-(U1-GPIO14-Pad19)*%
X105400000Y-140620000D03*
%TO.P,U1,20,VDD3P3_RTC*%
%TO.N,+3.3V*%
X105800000Y-140620000D03*
%TO.P,U1,21,XTAL_32K_P*%
%TO.N,unconnected-(U1-XTAL_32K_P-Pad21)*%
X106200000Y-140620000D03*
%TO.P,U1,22,XTAL_32K_N*%
%TO.N,unconnected-(U1-XTAL_32K_N-Pad22)*%
X106600000Y-140620000D03*
%TO.P,U1,23,GPIO17*%
%TO.N,unconnected-(U1-GPIO17-Pad23)*%
X107000000Y-140620000D03*
%TO.P,U1,24,GPIO18*%
%TO.N,/BATT_MEASURE_EN*%
X107400000Y-140620000D03*
%TO.P,U1,25,GPIO19/USB_D-*%
%TO.N,Net-(U1-GPIO19{slash}USB_D-)*%
X107800000Y-140620000D03*
%TO.P,U1,26,GPIO20/USB_D+*%
%TO.N,Net-(U1-GPIO20{slash}USB_D+)*%
X108200000Y-140620000D03*
%TO.P,U1,27,GPIO21*%
%TO.N,/LED_DAT*%
X108600000Y-140620000D03*
%TO.P,U1,28,SPICS1*%
%TO.N,unconnected-(U1-SPICS1-Pad28)*%
X109000000Y-140620000D03*
D38*
%TO.P,U1,29,VDD_SPI*%
%TO.N,+3.3V*%
X109850000Y-139770000D03*
%TO.P,U1,30,SPIHD*%
%TO.N,unconnected-(U1-SPIHD-Pad30)*%
X109850000Y-139370000D03*
%TO.P,U1,31,SPIWP*%
%TO.N,unconnected-(U1-SPIWP-Pad31)*%
X109850000Y-138970000D03*
%TO.P,U1,32,SPICS0*%
%TO.N,unconnected-(U1-SPICS0-Pad32)*%
X109850000Y-138570000D03*
%TO.P,U1,33,SPICLK*%
%TO.N,unconnected-(U1-SPICLK-Pad33)*%
X109850000Y-138170000D03*
%TO.P,U1,34,SPIQ*%
%TO.N,unconnected-(U1-SPIQ-Pad34)*%
X109850000Y-137770000D03*
%TO.P,U1,35,SPID*%
%TO.N,unconnected-(U1-SPID-Pad35)*%
X109850000Y-137370000D03*
%TO.P,U1,36,SPICLK_N*%
%TO.N,unconnected-(U1-SPICLK_N-Pad36)*%
X109850000Y-136970000D03*
%TO.P,U1,37,SPICLK_P*%
%TO.N,unconnected-(U1-SPICLK_P-Pad37)*%
X109850000Y-136570000D03*
%TO.P,U1,38,GPIO33*%
%TO.N,/IMU_PICO*%
X109850000Y-136170000D03*
%TO.P,U1,39,GPIO34*%
%TO.N,/IMU_POCI*%
X109850000Y-135770000D03*
%TO.P,U1,40,GPIO35*%
%TO.N,/IMU_SCK*%
X109850000Y-135370000D03*
%TO.P,U1,41,GPIO36*%
%TO.N,/IMU_CS*%
X109850000Y-134970000D03*
%TO.P,U1,42,GPIO37*%
%TO.N,/LED_CLK*%
X109850000Y-134570000D03*
D39*
%TO.P,U1,43,GPIO38*%
%TO.N,/VBUS_SENSE*%
X109000000Y-133720000D03*
%TO.P,U1,44,MTCK*%
%TO.N,unconnected-(U1-MTCK-Pad44)*%
X108600000Y-133720000D03*
%TO.P,U1,45,MTDO*%
%TO.N,unconnected-(U1-MTDO-Pad45)*%
X108200000Y-133720000D03*
%TO.P,U1,46,VDD3P3_CPU*%
%TO.N,+3.3V*%
X107800000Y-133720000D03*
%TO.P,U1,47,MTDI*%
%TO.N,unconnected-(U1-MTDI-Pad47)*%
X107400000Y-133720000D03*
%TO.P,U1,48,MTMS*%
%TO.N,unconnected-(U1-MTMS-Pad48)*%
X107000000Y-133720000D03*
%TO.P,U1,49,U0TXD*%
%TO.N,unconnected-(U1-U0TXD-Pad49)*%
X106600000Y-133720000D03*
%TO.P,U1,50,U0RXD*%
%TO.N,unconnected-(U1-U0RXD-Pad50)*%
X106200000Y-133720000D03*
%TO.P,U1,51,GPIO45*%
%TO.N,unconnected-(U1-GPIO45-Pad51)*%
X105800000Y-133720000D03*
%TO.P,U1,52,GPIO46*%
%TO.N,unconnected-(U1-GPIO46-Pad52)*%
X105400000Y-133720000D03*
%TO.P,U1,53,XTAL_N*%
%TO.N,Net-(U1-XTAL_N)*%
X105000000Y-133720000D03*
%TO.P,U1,54,XTAL_P*%
%TO.N,Net-(U1-XTAL_P)*%
X104600000Y-133720000D03*
%TO.P,U1,55,VDDA*%
%TO.N,+3.3V*%
X104200000Y-133720000D03*
%TO.P,U1,56,VDDA*%
X103800000Y-133720000D03*
D40*
%TO.P,U1,57,GND*%
%TO.N,GND*%
X106400000Y-137170000D03*
%TD*%
D16*
%TO.P,C18,1*%
%TO.N,Net-(U1-CHIP_PU)*%
X153300000Y-139180000D03*
%TO.P,C18,2*%
%TO.N,GND*%
X153300000Y-139820000D03*
%TD*%
D18*
%TO.P,J3,1,Pin_1*%
%TO.N,/LED_CLK*%
X139200000Y-130700000D03*
%TD*%
D23*
%TO.P,C14,1*%
%TO.N,/BATT_MEASURE*%
X137265000Y-140400000D03*
%TO.P,C14,2*%
%TO.N,/BATT_MEASURE_EN*%
X136625000Y-140400000D03*
%TD*%
D18*
%TO.P,J4,1,Pin_1*%
%TO.N,/LED_DAT*%
X139200000Y-141900000D03*
%TD*%
D42*
%TO.P,U5,1,SDO/SA0*%
%TO.N,/IMU_PICO*%
X188350000Y-136862500D03*
%TO.P,U5,2,SDX*%
%TO.N,GND*%
X188850000Y-136862500D03*
%TO.P,U5,3,SCX*%
X189350000Y-136862500D03*
%TO.P,U5,4,INT1*%
%TO.N,unconnected-(U5-INT1-Pad4)*%
X189850000Y-136862500D03*
D43*
%TO.P,U5,5,VDDIO*%
%TO.N,+3.3V*%
X190012500Y-136200000D03*
%TO.P,U5,6,GND*%
%TO.N,GND*%
X190012500Y-135700000D03*
%TO.P,U5,7,GND*%
X190012500Y-135200000D03*
D42*
%TO.P,U5,8,VDD*%
%TO.N,+3.3V*%
X189850000Y-134537500D03*
%TO.P,U5,9,INT2*%
%TO.N,unconnected-(U5-INT2-Pad9)*%
X189350000Y-134537500D03*
%TO.P,U5,10,NC*%
%TO.N,unconnected-(U5-NC-Pad10)*%
X188850000Y-134537500D03*
%TO.P,U5,11,NC*%
%TO.N,unconnected-(U5-NC-Pad11)*%
X188350000Y-134537500D03*
D43*
%TO.P,U5,12,CS*%
%TO.N,/IMU_CS*%
X188187500Y-135200000D03*
%TO.P,U5,13,SCL*%
%TO.N,/IMU_SCK*%
X188187500Y-135700000D03*
%TO.P,U5,14,SDA*%
%TO.N,/IMU_POCI*%
X188187500Y-136200000D03*
%TD*%
D38*
%TO.P,U1,1,LNA_IN*%
%TO.N,Net-(U1-LNA_IN)*%
X154350000Y-134570000D03*
%TO.P,U1,2,VDD3P3*%
%TO.N,+3.3V*%
X154350000Y-134970000D03*
%TO.P,U1,3,VDD3P3*%
X154350000Y-135370000D03*
%TO.P,U1,4,CHIP_PU*%
%TO.N,Net-(U1-CHIP_PU)*%
X154350000Y-135770000D03*
%TO.P,U1,5,GPIO0*%
%TO.N,Net-(U1-GPIO0)*%
X154350000Y-136170000D03*
%TO.P,U1,6,GPIO1*%
%TO.N,unconnected-(U1-GPIO1-Pad6)*%
X154350000Y-136570000D03*
%TO.P,U1,7,GPIO2*%
%TO.N,unconnected-(U1-GPIO2-Pad7)*%
X154350000Y-136970000D03*
%TO.P,U1,8,GPIO3*%
%TO.N,unconnected-(U1-GPIO3-Pad8)*%
X154350000Y-137370000D03*
%TO.P,U1,9,GPIO4*%
%TO.N,unconnected-(U1-GPIO4-Pad9)*%
X154350000Y-137770000D03*
%TO.P,U1,10,GPIO5*%
%TO.N,unconnected-(U1-GPIO5-Pad10)*%
X154350000Y-138170000D03*
%TO.P,U1,11,GPIO6*%
%TO.N,unconnected-(U1-GPIO6-Pad11)*%
X154350000Y-138570000D03*
%TO.P,U1,12,GPIO7*%
%TO.N,unconnected-(U1-GPIO7-Pad12)*%
X154350000Y-138970000D03*
%TO.P,U1,13,GPIO8*%
%TO.N,/VREF*%
X154350000Y-139370000D03*
%TO.P,U1,14,GPIO9*%
%TO.N,/BATT_MEASURE*%
X154350000Y-139770000D03*
D39*
%TO.P,U1,15,GPIO10*%
%TO.N,/BUTTON*%
X155200000Y-140620000D03*
%TO.P,U1,16,GPIO11*%
%TO.N,/PWRHLD*%
X155600000Y-140620000D03*
%TO.P,U1,17,GPIO12*%
%TO.N,/CHG_SENSE*%
X156000000Y-140620000D03*
%TO.P,U1,18,GPIO13*%
%TO.N,unconnected-(U1-GPIO13-Pad18)*%
X156400000Y-140620000D03*
%TO.P,U1,19,GPIO14*%
%TO.N,unconnected-(U1-GPIO14-Pad19)*%
X156800000Y-140620000D03*
%TO.P,U1,20,VDD3P3_RTC*%
%TO.N,+3.3V*%
X157200000Y-140620000D03*
%TO.P,U1,21,XTAL_32K_P*%
%TO.N,unconnected-(U1-XTAL_32K_P-Pad21)*%
X157600000Y-140620000D03*
%TO.P,U1,22,XTAL_32K_N*%
%TO.N,unconnected-(U1-XTAL_32K_N-Pad22)*%
X158000000Y-140620000D03*
%TO.P,U1,23,GPIO17*%
%TO.N,unconnected-(U1-GPIO17-Pad23)*%
X158400000Y-140620000D03*
%TO.P,U1,24,GPIO18*%
%TO.N,/BATT_MEASURE_EN*%
X158800000Y-140620000D03*
%TO.P,U1,25,GPIO19/USB_D-*%
%TO.N,Net-(U1-GPIO19{slash}USB_D-)*%
X159200000Y-140620000D03*
%TO.P,U1,26,GPIO20/USB_D+*%
%TO.N,Net-(U1-GPIO20{slash}USB_D+)*%
X159600000Y-140620000D03*
%TO.P,U1,27,GPIO21*%
%TO.N,/LED_DAT*%
X160000000Y-140620000D03*
%TO.P,U1,28,SPICS1*%
%TO.N,unconnected-(U1-SPICS1-Pad28)*%
X160400000Y-140620000D03*
D38*
%TO.P,U1,29,VDD_SPI*%
%TO.N,+3.3V*%
X161250000Y-139770000D03*
%TO.P,U1,30,SPIHD*%
%TO.N,unconnected-(U1-SPIHD-Pad30)*%
X161250000Y-139370000D03*
%TO.P,U1,31,SPIWP*%
%TO.N,unconnected-(U1-SPIWP-Pad31)*%
X161250000Y-138970000D03*
%TO.P,U1,32,SPICS0*%
%TO.N,unconnected-(U1-SPICS0-Pad32)*%
X161250000Y-138570000D03*
%TO.P,U1,33,SPICLK*%
%TO.N,unconnected-(U1-SPICLK-Pad33)*%
X161250000Y-138170000D03*
%TO.P,U1,34,SPIQ*%
%TO.N,unconnected-(U1-SPIQ-Pad34)*%
X161250000Y-137770000D03*
%TO.P,U1,35,SPID*%
%TO.N,unconnected-(U1-SPID-Pad35)*%
X161250000Y-137370000D03*
%TO.P,U1,36,SPICLK_N*%
%TO.N,unconnected-(U1-SPICLK_N-Pad36)*%
X161250000Y-136970000D03*
%TO.P,U1,37,SPICLK_P*%
%TO.N,unconnected-(U1-SPICLK_P-Pad37)*%
X161250000Y-136570000D03*
%TO.P,U1,38,GPIO33*%
%TO.N,/IMU_PICO*%
X161250000Y-136170000D03*
%TO.P,U1,39,GPIO34*%
%TO.N,/IMU_POCI*%
X161250000Y-135770000D03*
%TO.P,U1,40,GPIO35*%
%TO.N,/IMU_SCK*%
X161250000Y-135370000D03*
%TO.P,U1,41,GPIO36*%
%TO.N,/IMU_CS*%
X161250000Y-134970000D03*
%TO.P,U1,42,GPIO37*%
%TO.N,/LED_CLK*%
X161250000Y-134570000D03*
D39*
%TO.P,U1,43,GPIO38*%
%TO.N,/VBUS_SENSE*%
X160400000Y-133720000D03*
%TO.P,U1,44,MTCK*%
%TO.N,unconnected-(U1-MTCK-Pad44)*%
X160000000Y-133720000D03*
%TO.P,U1,45,MTDO*%
%TO.N,unconnected-(U1-MTDO-Pad45)*%
X159600000Y-133720000D03*
%TO.P,U1,46,VDD3P3_CPU*%
%TO.N,+3.3V*%
X159200000Y-133720000D03*
%TO.P,U1,47,MTDI*%
%TO.N,unconnected-(U1-MTDI-Pad47)*%
X158800000Y-133720000D03*
%TO.P,U1,48,MTMS*%
%TO.N,unconnected-(U1-MTMS-Pad48)*%
X158400000Y-133720000D03*
%TO.P,U1,49,U0TXD*%
%TO.N,unconnected-(U1-U0TXD-Pad49)*%
X158000000Y-133720000D03*
%TO.P,U1,50,U0RXD*%
%TO.N,unconnected-(U1-U0RXD-Pad50)*%
X157600000Y-133720000D03*
%TO.P,U1,51,GPIO45*%
%TO.N,unconnected-(U1-GPIO45-Pad51)*%
X157200000Y-133720000D03*
%TO.P,U1,52,GPIO46*%
%TO.N,unconnected-(U1-GPIO46-Pad52)*%
X156800000Y-133720000D03*
%TO.P,U1,53,XTAL_N*%
%TO.N,Net-(U1-XTAL_N)*%
X156400000Y-133720000D03*
%TO.P,U1,54,XTAL_P*%
%TO.N,Net-(U1-XTAL_P)*%
X156000000Y-133720000D03*
%TO.P,U1,55,VDDA*%
%TO.N,+3.3V*%
X155600000Y-133720000D03*
%TO.P,U1,56,VDDA*%
X155200000Y-133720000D03*
D40*
%TO.P,U1,57,GND*%
%TO.N,GND*%
X157800000Y-137170000D03*
%TD*%
D41*
%TO.P,D1,1,A*%
%TO.N,VBUS*%
X151037500Y-138950000D03*
%TO.P,D1,2,A*%
%TO.N,/BUTTON*%
X151037500Y-138000000D03*
%TO.P,D1,3,A*%
%TO.N,/PWRHLD*%
X151037500Y-137050000D03*
%TO.P,D1,4,K*%
%TO.N,Net-(D1A-K)*%
X148762500Y-137050000D03*
%TO.P,D1,5,K*%
X148762500Y-138000000D03*
%TO.P,D1,6,K*%
X148762500Y-138950000D03*
%TD*%
%TO.P,D1,1,A*%
%TO.N,VBUS*%
X176737500Y-138950000D03*
%TO.P,D1,2,A*%
%TO.N,/BUTTON*%
X176737500Y-138000000D03*
%TO.P,D1,3,A*%
%TO.N,/PWRHLD*%
X176737500Y-137050000D03*
%TO.P,D1,4,K*%
%TO.N,Net-(D1A-K)*%
X174462500Y-137050000D03*
%TO.P,D1,5,K*%
X174462500Y-138000000D03*
%TO.P,D1,6,K*%
X174462500Y-138950000D03*
%TD*%
D33*
%TO.P,J7,1,Pin_1*%
%TO.N,GND*%
X128959616Y-114208135D03*
D34*
%TO.P,J7,2,Pin_2*%
%TO.N,/LED_DAT*%
X128323220Y-113571739D03*
%TO.P,J7,3,Pin_3*%
%TO.N,/LED_CLK*%
X127828245Y-113076764D03*
D33*
%TO.P,J7,4,Pin_4*%
%TO.N,+5V*%
X127191849Y-112440368D03*
%TD*%
D32*
%TO.P,REF\u002A\u002A,*%
%TO.N,*%
X102000000Y-65000000D03*
%TD*%
D17*
%TO.P,C8,1*%
%TO.N,Net-(AE1-Pad1)*%
X127635000Y-132300000D03*
%TO.P,C8,2*%
%TO.N,GND*%
X128275000Y-132300000D03*
%TD*%
D14*
%TO.P,J5,1,Pin_1*%
%TO.N,GND*%
X163040380Y-121391853D03*
D15*
%TO.P,J5,2,Pin_2*%
%TO.N,/LED_DAT*%
X163676776Y-122028249D03*
%TO.P,J5,3,Pin_3*%
%TO.N,/LED_CLK*%
X164171751Y-122523224D03*
D14*
%TO.P,J5,4,Pin_4*%
%TO.N,+5V*%
X164808147Y-123159620D03*
%TD*%
D36*
%TO.P,C2,1*%
%TO.N,+3.3V*%
X182720000Y-141800000D03*
%TO.P,C2,2*%
%TO.N,GND*%
X183680000Y-141800000D03*
%TD*%
D24*
%TO.P,J6,1,Pin_1*%
%TO.N,+5V*%
X165191853Y-123159620D03*
D25*
%TO.P,J6,2,Pin_2*%
%TO.N,/LED_CLK*%
X165828249Y-122523224D03*
%TO.P,J6,3,Pin_3*%
%TO.N,/LED_DAT*%
X166323224Y-122028249D03*
D24*
%TO.P,J6,4,Pin_4*%
%TO.N,GND*%
X166959620Y-121391853D03*
%TD*%
D13*
%TO.P,L2,1,1*%
%TO.N,Net-(U1-LNA_IN)*%
X153300000Y-133720000D03*
%TO.P,L2,2,2*%
%TO.N,Net-(AE1-Pad1)*%
X153300000Y-133080000D03*
%TD*%
D33*
%TO.P,J7,1,Pin_1*%
%TO.N,GND*%
X147959620Y-114208147D03*
D34*
%TO.P,J7,2,Pin_2*%
%TO.N,/LED_DAT*%
X147323224Y-113571751D03*
%TO.P,J7,3,Pin_3*%
%TO.N,/LED_CLK*%
X146828249Y-113076776D03*
D33*
%TO.P,J7,4,Pin_4*%
%TO.N,+5V*%
X146191853Y-112440380D03*
%TD*%
D30*
%TO.P,J8,1,Pin_1*%
%TO.N,+5V*%
X126808143Y-112440368D03*
D31*
%TO.P,J8,2,Pin_2*%
%TO.N,/LED_CLK*%
X126171747Y-113076764D03*
%TO.P,J8,3,Pin_3*%
%TO.N,/LED_DAT*%
X125676772Y-113571739D03*
D30*
%TO.P,J8,4,Pin_4*%
%TO.N,GND*%
X125040376Y-114208135D03*
%TD*%
D17*
%TO.P,R11,1*%
%TO.N,/VREF*%
X189380000Y-138500000D03*
%TO.P,R11,2*%
%TO.N,GND*%
X190020000Y-138500000D03*
%TD*%
%TO.P,R10,1*%
%TO.N,+3.3V*%
X162280000Y-137800000D03*
%TO.P,R10,2*%
%TO.N,/VREF*%
X162920000Y-137800000D03*
%TD*%
D16*
%TO.P,R7,1*%
%TO.N,Net-(D1A-K)*%
X126800000Y-140100000D03*
%TO.P,R7,2*%
%TO.N,GND*%
X126800000Y-140740000D03*
%TD*%
D20*
%TO.P,REF\u002A\u002A,1*%
%TO.N,N/C*%
X184176777Y-98473235D03*
D19*
X183823223Y-98473235D03*
D22*
X183823223Y-109126789D03*
D21*
X184176777Y-109126789D03*
%TD*%
D16*
%TO.P,R13,1*%
%TO.N,VBUS*%
X136500000Y-131850000D03*
%TO.P,R13,2*%
%TO.N,/VBUS_SENSE*%
X136500000Y-132490000D03*
%TD*%
D42*
%TO.P,U5,1,SDO/SA0*%
%TO.N,/IMU_PICO*%
X162650000Y-136862500D03*
%TO.P,U5,2,SDX*%
%TO.N,GND*%
X163150000Y-136862500D03*
%TO.P,U5,3,SCX*%
X163650000Y-136862500D03*
%TO.P,U5,4,INT1*%
%TO.N,unconnected-(U5-INT1-Pad4)*%
X164150000Y-136862500D03*
D43*
%TO.P,U5,5,VDDIO*%
%TO.N,+3.3V*%
X164312500Y-136200000D03*
%TO.P,U5,6,GND*%
%TO.N,GND*%
X164312500Y-135700000D03*
%TO.P,U5,7,GND*%
X164312500Y-135200000D03*
D42*
%TO.P,U5,8,VDD*%
%TO.N,+3.3V*%
X164150000Y-134537500D03*
%TO.P,U5,9,INT2*%
%TO.N,unconnected-(U5-INT2-Pad9)*%
X163650000Y-134537500D03*
%TO.P,U5,10,NC*%
%TO.N,unconnected-(U5-NC-Pad10)*%
X163150000Y-134537500D03*
%TO.P,U5,11,NC*%
%TO.N,unconnected-(U5-NC-Pad11)*%
X162650000Y-134537500D03*
D43*
%TO.P,U5,12,CS*%
%TO.N,/IMU_CS*%
X162487500Y-135200000D03*
%TO.P,U5,13,SCL*%
%TO.N,/IMU_SCK*%
X162487500Y-135700000D03*
%TO.P,U5,14,SDA*%
%TO.N,/IMU_POCI*%
X162487500Y-136200000D03*
%TD*%
D19*
%TO.P,REF\u002A\u002A,1*%
%TO.N,N/C*%
X126823219Y-98473211D03*
D20*
X127176773Y-98473211D03*
D21*
X127176773Y-109126765D03*
D22*
X126823219Y-109126765D03*
%TD*%
D13*
%TO.P,R9,1*%
%TO.N,/BATT_MEASURE*%
X162300000Y-139220000D03*
%TO.P,R9,2*%
%TO.N,/BATT_MEASURE_EN*%
X162300000Y-138580000D03*
%TD*%
%TO.P,C15,1*%
%TO.N,/VBUS_SENSE*%
X160800000Y-132490000D03*
%TO.P,C15,2*%
%TO.N,GND*%
X160800000Y-131850000D03*
%TD*%
D14*
%TO.P,J5,1,Pin_1*%
%TO.N,GND*%
X125040376Y-121391841D03*
D15*
%TO.P,J5,2,Pin_2*%
%TO.N,/LED_DAT*%
X125676772Y-122028237D03*
%TO.P,J5,3,Pin_3*%
%TO.N,/LED_CLK*%
X126171747Y-122523212D03*
D14*
%TO.P,J5,4,Pin_4*%
%TO.N,+5V*%
X126808143Y-123159608D03*
%TD*%
D29*
%TO.P,C16,1*%
%TO.N,+3.3V*%
X139700000Y-135020000D03*
%TO.P,C16,2*%
%TO.N,GND*%
X139700000Y-135980000D03*
%TD*%
D14*
%TO.P,J5,1,Pin_1*%
%TO.N,GND*%
X144040380Y-121391853D03*
D15*
%TO.P,J5,2,Pin_2*%
%TO.N,/LED_DAT*%
X144676776Y-122028249D03*
%TO.P,J5,3,Pin_3*%
%TO.N,/LED_CLK*%
X145171751Y-122523224D03*
D14*
%TO.P,J5,4,Pin_4*%
%TO.N,+5V*%
X145808147Y-123159620D03*
%TD*%
D18*
%TO.P,J3,1,Pin_1*%
%TO.N,/LED_CLK*%
X164900000Y-130700000D03*
%TD*%
D17*
%TO.P,C5,1*%
%TO.N,Net-(U1-XTAL_N)*%
X133880000Y-130570000D03*
%TO.P,C5,2*%
%TO.N,GND*%
X134520000Y-130570000D03*
%TD*%
D16*
%TO.P,C7,1*%
%TO.N,Net-(U1-LNA_IN)*%
X127600000Y-134480000D03*
%TO.P,C7,2*%
%TO.N,GND*%
X127600000Y-135120000D03*
%TD*%
D23*
%TO.P,R8,1*%
%TO.N,+BATT*%
X164320000Y-139300000D03*
%TO.P,R8,2*%
%TO.N,/BATT_MEASURE*%
X163680000Y-139300000D03*
%TD*%
D19*
%TO.P,REF\u002A\u002A,1*%
%TO.N,N/C*%
X107823223Y-98473223D03*
D20*
X108176777Y-98473223D03*
D22*
X107823223Y-109126777D03*
D21*
X108176777Y-109126777D03*
%TD*%
D18*
%TO.P,J3,1,Pin_1*%
%TO.N,/LED_CLK*%
X190600000Y-130700000D03*
%TD*%
D16*
%TO.P,R13,1*%
%TO.N,VBUS*%
X162200000Y-131850000D03*
%TO.P,R13,2*%
%TO.N,/VBUS_SENSE*%
X162200000Y-132490000D03*
%TD*%
D24*
%TO.P,J6,1,Pin_1*%
%TO.N,+5V*%
X108191853Y-123159620D03*
D25*
%TO.P,J6,2,Pin_2*%
%TO.N,/LED_CLK*%
X108828249Y-122523224D03*
%TO.P,J6,3,Pin_3*%
%TO.N,/LED_DAT*%
X109323224Y-122028249D03*
D24*
%TO.P,J6,4,Pin_4*%
%TO.N,GND*%
X109959620Y-121391853D03*
%TD*%
D18*
%TO.P,J3,1,Pin_1*%
%TO.N,/LED_CLK*%
X113500000Y-130700000D03*
%TD*%
D44*
%TO.P,J1,S1,SHIELD*%
%TO.N,unconnected-(J1-SHIELD-PadS1)_1*%
X168775000Y-131980000D03*
D45*
%TO.N,unconnected-(J1-SHIELD-PadS1)_3*%
X164595000Y-131980000D03*
D44*
%TO.N,unconnected-(J1-SHIELD-PadS1)_2*%
X168775000Y-140620000D03*
D45*
%TO.N,unconnected-(J1-SHIELD-PadS1)*%
X164595000Y-140620000D03*
%TD*%
D44*
%TO.P,J1,S1,SHIELD*%
%TO.N,unconnected-(J1-SHIELD-PadS1)_1*%
X117375000Y-131980000D03*
D45*
%TO.N,unconnected-(J1-SHIELD-PadS1)_3*%
X113195000Y-131980000D03*
D44*
%TO.N,unconnected-(J1-SHIELD-PadS1)_2*%
X117375000Y-140620000D03*
D45*
%TO.N,unconnected-(J1-SHIELD-PadS1)*%
X113195000Y-140620000D03*
%TD*%
D44*
%TO.P,J1,S1,SHIELD*%
%TO.N,unconnected-(J1-SHIELD-PadS1)_1*%
X194475000Y-131980000D03*
D45*
%TO.N,unconnected-(J1-SHIELD-PadS1)_3*%
X190295000Y-131980000D03*
D44*
%TO.N,unconnected-(J1-SHIELD-PadS1)_2*%
X194475000Y-140620000D03*
D45*
%TO.N,unconnected-(J1-SHIELD-PadS1)*%
X190295000Y-140620000D03*
%TD*%
D44*
%TO.P,J1,S1,SHIELD*%
%TO.N,unconnected-(J1-SHIELD-PadS1)_1*%
X143075000Y-131980000D03*
D45*
%TO.N,unconnected-(J1-SHIELD-PadS1)_3*%
X138895000Y-131980000D03*
D44*
%TO.N,unconnected-(J1-SHIELD-PadS1)_2*%
X143075000Y-140620000D03*
D45*
%TO.N,unconnected-(J1-SHIELD-PadS1)*%
X138895000Y-140620000D03*
%TD*%
D46*
%TO.N,GND*%
X127425000Y-136300000D03*
X110500000Y-131100000D03*
X129300000Y-142200000D03*
X162900000Y-131100000D03*
X132399996Y-118599988D03*
X127900000Y-142200000D03*
X160270000Y-131030000D03*
X129000000Y-130500000D03*
X157100000Y-136400000D03*
X187100000Y-131100000D03*
X189100000Y-118250012D03*
X182351355Y-121547580D03*
X128600000Y-142200000D03*
X168450000Y-122324924D03*
X131400000Y-137100000D03*
X154001000Y-133350000D03*
X168450000Y-113275076D03*
X151400000Y-118600000D03*
X164907490Y-137201659D03*
X111000000Y-131100000D03*
X162400000Y-131100000D03*
X142550000Y-122324924D03*
X157100000Y-135600000D03*
X112000000Y-131100000D03*
X189500000Y-117950012D03*
X128301000Y-133350000D03*
X189100000Y-131100000D03*
X166000000Y-136100000D03*
X136200000Y-131100000D03*
X161550000Y-122324924D03*
X111500000Y-131100000D03*
X189400000Y-118600012D03*
X123549996Y-113275064D03*
X130449996Y-122324912D03*
X103300000Y-130500000D03*
X130615610Y-131402141D03*
X108870000Y-131030000D03*
X111450000Y-113275076D03*
X180700000Y-142200000D03*
X182800000Y-136400000D03*
X132900000Y-141800000D03*
X182000979Y-130900703D03*
X149450000Y-113275076D03*
X187450000Y-122324936D03*
X113100000Y-118250000D03*
X132499996Y-117949988D03*
X175386386Y-136669857D03*
X163000000Y-139230332D03*
X151500000Y-117950000D03*
X144345570Y-114046648D03*
X157100000Y-137900000D03*
X154700000Y-130500000D03*
X110000000Y-131100000D03*
X137700000Y-131100000D03*
X104550000Y-122324924D03*
X189100000Y-117750012D03*
X180550000Y-122324936D03*
X158600000Y-141800000D03*
X185648645Y-114052444D03*
X107200000Y-141800000D03*
X105700000Y-137900000D03*
X106345570Y-114046648D03*
X103600000Y-142200000D03*
X153600000Y-142200000D03*
X114600000Y-136100000D03*
X144351355Y-121547568D03*
X105700000Y-137100000D03*
X163000000Y-139784220D03*
X188600000Y-131100000D03*
X182800000Y-135600000D03*
X131400000Y-135600000D03*
X170400000Y-118600000D03*
X180400000Y-131000000D03*
X136700000Y-131100000D03*
X187600000Y-131100000D03*
X109654430Y-121553352D03*
X137300000Y-139784220D03*
X187450000Y-113275088D03*
X102900000Y-142200000D03*
X191503942Y-133780289D03*
X128654426Y-121553340D03*
X182345570Y-114046660D03*
X178825000Y-136300000D03*
X104550000Y-113275076D03*
X191700000Y-136100000D03*
X149450000Y-122324924D03*
X103300000Y-131000000D03*
X188100000Y-131100000D03*
X135700000Y-131100000D03*
X188700000Y-139230332D03*
X156315610Y-131402141D03*
X113507490Y-137201659D03*
X163351355Y-121547568D03*
X129000000Y-131000000D03*
X188700000Y-139784220D03*
X157100000Y-137100000D03*
X131400000Y-137900000D03*
X149686386Y-136669857D03*
X170500000Y-117950000D03*
X147648645Y-114052432D03*
X182800000Y-137900000D03*
X182800000Y-137100000D03*
X182015610Y-131402141D03*
X113500000Y-117950000D03*
X139207490Y-137201659D03*
X113100000Y-117750000D03*
X128648641Y-114052420D03*
X170100000Y-117750000D03*
X155000000Y-142200000D03*
X161550000Y-113275076D03*
X185654430Y-121553364D03*
X134570000Y-131030000D03*
X140300000Y-136100000D03*
X105700000Y-136400000D03*
X111600000Y-139230332D03*
X180400000Y-130500000D03*
X190607490Y-137201659D03*
X151100000Y-117750000D03*
X140103942Y-133780289D03*
X184300000Y-141800000D03*
X132099996Y-118249988D03*
X147654430Y-121553352D03*
X153125000Y-136300000D03*
X179300000Y-142200000D03*
X113400000Y-118600000D03*
X123986386Y-136669857D03*
X137300000Y-139230332D03*
X154300000Y-142200000D03*
X111600000Y-139784220D03*
X102200000Y-142200000D03*
X114403942Y-133780289D03*
X154700000Y-131000000D03*
X102601000Y-133350000D03*
X179701000Y-133350000D03*
X165803942Y-133780289D03*
X161900000Y-131100000D03*
X111450000Y-122324924D03*
X130600979Y-130900703D03*
X166648645Y-114052432D03*
X170100000Y-118250000D03*
X161400000Y-131100000D03*
X180550000Y-113275088D03*
X123549996Y-122324912D03*
X142550000Y-113275076D03*
X109648645Y-114052432D03*
X180000000Y-142200000D03*
X166654430Y-121553352D03*
X131400000Y-136400000D03*
X104900979Y-130900703D03*
X130449996Y-113275064D03*
X163345570Y-114046648D03*
X101725000Y-136300000D03*
X156300979Y-130900703D03*
X125351351Y-121547556D03*
X137200000Y-131100000D03*
X125345566Y-114046636D03*
X132099996Y-117749988D03*
X185970000Y-131030000D03*
X98286386Y-136669857D03*
X163400000Y-131100000D03*
X104915610Y-131402141D03*
X105700000Y-135600000D03*
X151100000Y-118250000D03*
X106351355Y-121547568D03*
%TO.N,+BATT*%
X161400000Y-134100000D03*
X110700000Y-133400000D03*
X187100000Y-133400000D03*
X110000000Y-134100000D03*
X166800000Y-139000000D03*
X135700000Y-134100000D03*
X115400000Y-139000000D03*
X161750000Y-133750000D03*
X136050000Y-133750000D03*
X161400000Y-133400000D03*
X110350000Y-133750000D03*
X110000000Y-133400000D03*
X136400000Y-134100000D03*
X187100000Y-134100000D03*
X141100000Y-139000000D03*
X162100000Y-134100000D03*
X187800000Y-134100000D03*
X136400000Y-133400000D03*
X192500000Y-139000000D03*
X187800000Y-133400000D03*
X187450000Y-133750000D03*
X135700000Y-133400000D03*
X162100000Y-133400000D03*
X110700000Y-134100000D03*
%TO.N,+3.3V*%
X186529998Y-140100000D03*
X129051000Y-133300000D03*
X103351000Y-133300000D03*
X101150000Y-137650000D03*
X164912579Y-136671681D03*
X156100000Y-142135570D03*
X126300000Y-137650000D03*
X178000000Y-137210684D03*
X178250000Y-137650000D03*
X166000000Y-135100000D03*
X130400000Y-142135570D03*
X126850000Y-137650000D03*
X100600000Y-137650000D03*
X180451000Y-133300000D03*
X135129998Y-140100000D03*
X185980000Y-135700000D03*
X101925000Y-136800000D03*
X126600000Y-137210684D03*
X100900000Y-137210684D03*
X152000000Y-137650000D03*
X191700000Y-135100000D03*
X152300000Y-137210684D03*
X139212579Y-136671681D03*
X153325000Y-136800000D03*
X113512579Y-136671681D03*
X108880000Y-135700000D03*
X109429998Y-140100000D03*
X181800000Y-142135570D03*
X177700000Y-137650000D03*
X160280000Y-135700000D03*
X134580000Y-135700000D03*
X190612579Y-136671681D03*
X160829998Y-140100000D03*
X114600000Y-135100000D03*
X154751000Y-133300000D03*
X140300000Y-135100000D03*
X152550000Y-137650000D03*
X104700000Y-142135570D03*
X179025000Y-136800000D03*
X127625000Y-136800000D03*
%TO.N,+5V*%
X107700000Y-123000000D03*
X145700000Y-112600000D03*
X108300000Y-123000000D03*
X108000000Y-112939994D03*
X184300000Y-112600012D03*
X108000000Y-123350000D03*
X184000000Y-112940006D03*
X127299996Y-122999988D03*
X159600000Y-118600000D03*
X102600000Y-118600000D03*
X182900000Y-134700000D03*
X126999996Y-123349988D03*
X165000000Y-123350000D03*
X126999996Y-112939982D03*
X108000000Y-112250000D03*
X165000000Y-112939994D03*
X140600000Y-118600000D03*
X146000000Y-112250000D03*
X126999996Y-122659994D03*
X140900000Y-118250000D03*
X146300000Y-112600000D03*
X121599996Y-118599988D03*
X126999996Y-112249988D03*
X184300000Y-123000012D03*
X146000000Y-122660006D03*
X159500000Y-117950000D03*
X159900000Y-118250000D03*
X178900000Y-118250012D03*
X178600000Y-118600012D03*
X140500000Y-117950000D03*
X165300000Y-123000000D03*
X146300000Y-123000000D03*
X157200000Y-134700000D03*
X140900000Y-117750000D03*
X165000000Y-112250000D03*
X164700000Y-112600000D03*
X107700000Y-112600000D03*
X126699996Y-112599988D03*
X164700000Y-123000000D03*
X160817313Y-131048395D03*
X102500000Y-117950000D03*
X131500000Y-134700000D03*
X108300000Y-112600000D03*
X159900000Y-117750000D03*
X102900000Y-118250000D03*
X121499996Y-117949988D03*
X178900000Y-117750012D03*
X146000000Y-112939994D03*
X145700000Y-123000000D03*
X127299996Y-112599988D03*
X102900000Y-117750000D03*
X183700000Y-123000012D03*
X165000000Y-122660006D03*
X184000000Y-112250012D03*
X121899996Y-117749988D03*
X183700000Y-112600012D03*
X108000000Y-122660006D03*
X178500000Y-117950012D03*
X184000000Y-122660018D03*
X126699996Y-122999988D03*
X121899996Y-118249988D03*
X109417313Y-131048395D03*
X135117313Y-131048395D03*
X184000000Y-123350012D03*
X105800000Y-134700000D03*
X165300000Y-112600000D03*
X146000000Y-123350000D03*
X186517313Y-131048395D03*
%TO.N,Net-(D1A-K)*%
X108896464Y-132100936D03*
X174428875Y-139670000D03*
X185996464Y-132100936D03*
X126800000Y-139500000D03*
X160296464Y-132100936D03*
X148728875Y-139670000D03*
X152500000Y-139500000D03*
X123028875Y-139670000D03*
X97328875Y-139670000D03*
X178200000Y-139500000D03*
X101100000Y-139500000D03*
X134596464Y-132100936D03*
%TO.N,/VREF*%
X140277958Y-139283958D03*
X114577958Y-139283958D03*
X179300000Y-140420000D03*
X127900000Y-140420000D03*
X165977958Y-139283958D03*
X153600000Y-140420000D03*
X102200000Y-140420000D03*
X191677958Y-139283958D03*
%TO.N,/BATT_MEASURE*%
X179839572Y-140420000D03*
X154139572Y-140420000D03*
X166800000Y-140100000D03*
X115400000Y-140100000D03*
X192500000Y-140100000D03*
X102739572Y-140420000D03*
X141100000Y-140100000D03*
X128439572Y-140420000D03*
%TO.N,/BATT_MEASURE_EN*%
X184403942Y-141280289D03*
X135129998Y-140630003D03*
X133003942Y-141280289D03*
X160829998Y-140630003D03*
X186529998Y-140630003D03*
X107303942Y-141280289D03*
X158703942Y-141280289D03*
X109429998Y-140630003D03*
%TO.N,/BUTTON*%
X101673405Y-140480000D03*
X153073405Y-140480000D03*
X191930003Y-138300000D03*
X178773405Y-140480000D03*
X114830003Y-138300000D03*
X127373405Y-140480000D03*
X140530003Y-138300000D03*
X166230003Y-138300000D03*
%TO.N,VBUS*%
X137225000Y-132189609D03*
X150990166Y-139591000D03*
X151450000Y-139600000D03*
X176690166Y-139591000D03*
X139500000Y-138300000D03*
X125750000Y-139600000D03*
X165200000Y-134300000D03*
X190900000Y-134300000D03*
X111525000Y-132189609D03*
X114300000Y-138300000D03*
X191400000Y-138300000D03*
X177150000Y-139600000D03*
X113800000Y-138300000D03*
X165700000Y-134300000D03*
X165700000Y-138300000D03*
X99590166Y-139591000D03*
X114300000Y-134300000D03*
X190900000Y-138300000D03*
X140000000Y-134300000D03*
X100050000Y-139600000D03*
X162925000Y-132189609D03*
X125290166Y-139591000D03*
X139500000Y-134300000D03*
X191400000Y-134300000D03*
X140000000Y-138300000D03*
X165200000Y-138300000D03*
X188625000Y-132189609D03*
X113800000Y-134300000D03*
%TO.N,/USBDM*%
X188827751Y-135174251D03*
X162229113Y-141198311D03*
X137427751Y-135174251D03*
X136529113Y-141198311D03*
X187929113Y-141198311D03*
X110829113Y-141198311D03*
X111727751Y-135174251D03*
X163127751Y-135174251D03*
%TO.N,Net-(J1-CC2)*%
X139184457Y-137781058D03*
X113484457Y-137781058D03*
X190584457Y-137781058D03*
X164884457Y-137781058D03*
%TO.N,Net-(J1-CC1)*%
X162700000Y-133600000D03*
X188400000Y-133600000D03*
X111300000Y-133600000D03*
X137000000Y-133600000D03*
%TO.N,/USBDP*%
X163133021Y-135704226D03*
X187400000Y-141229000D03*
X161700000Y-141229000D03*
X111733021Y-135704226D03*
X137433021Y-135704226D03*
X188833021Y-135704226D03*
X110300000Y-141229000D03*
X136000000Y-141229000D03*
%TO.N,/LED_DAT*%
X128249996Y-121949475D03*
X179800000Y-122300012D03*
X185250000Y-121949499D03*
X163800000Y-113700513D03*
X121399996Y-115499988D03*
X144800000Y-121900000D03*
X102400000Y-115500000D03*
X125799996Y-113700501D03*
X106800000Y-113700513D03*
X185200000Y-113700012D03*
X109250000Y-121949487D03*
X147200000Y-113700000D03*
X182800000Y-121900012D03*
X163800000Y-121900000D03*
X103800000Y-122300000D03*
X109200000Y-113700000D03*
X141800000Y-122300000D03*
X128199996Y-113699988D03*
X140400000Y-115500000D03*
X182800000Y-113700525D03*
X106800000Y-121900000D03*
X122799996Y-122299988D03*
X147250000Y-121949487D03*
X166200000Y-113700000D03*
X178400000Y-115500012D03*
X125799996Y-121899988D03*
X159400000Y-115500000D03*
X166250000Y-121949487D03*
X160800000Y-122300000D03*
X144800000Y-113700513D03*
%TO.N,/LED_CLK*%
X165850561Y-113049439D03*
X151600000Y-115500000D03*
X183149451Y-113049459D03*
X164200000Y-122500000D03*
X108757539Y-122452512D03*
X126149447Y-113049435D03*
X189600000Y-115500012D03*
X188200000Y-122300012D03*
X165757539Y-122452512D03*
X112200000Y-122300000D03*
X113600000Y-115500000D03*
X132599996Y-115499988D03*
X107149451Y-113049447D03*
X184850561Y-113049451D03*
X150200000Y-122300000D03*
X131199996Y-122299988D03*
X169200000Y-122300000D03*
X164149451Y-113049447D03*
X146850561Y-113049439D03*
X145149451Y-113049447D03*
X127850557Y-113049427D03*
X146757539Y-122452512D03*
X126199996Y-122499988D03*
X183200000Y-122500012D03*
X127757535Y-122452500D03*
X108850561Y-113049439D03*
X184757539Y-122452524D03*
X107200000Y-122500000D03*
X170600000Y-115500000D03*
X145200000Y-122500000D03*
%TO.N,Net-(U1-GPIO0)*%
X180180000Y-133900000D03*
X128780000Y-133900000D03*
X103080000Y-133900000D03*
X154480000Y-133900000D03*
%TO.N,/CHG_SENSE*%
X178500000Y-142270000D03*
X152800000Y-142270000D03*
X101400000Y-142270000D03*
X127100000Y-142270000D03*
%TD*%
D10*
%TO.N,GND*%
X180550000Y-114050012D02*
X180550000Y-113325088D01*
X106111092Y-121321142D02*
X105839950Y-121050000D01*
D47*
X139700000Y-136980000D02*
X139760000Y-136980000D01*
D10*
X124839946Y-114549988D02*
X124049996Y-114549988D01*
D47*
X152900000Y-138300000D02*
X152900000Y-137900000D01*
X157800000Y-137100000D02*
X157100000Y-136400000D01*
X190598341Y-137201659D02*
X190020000Y-137780000D01*
X153300000Y-136125000D02*
X153300000Y-135120000D01*
D10*
X143050000Y-121050000D02*
X142550000Y-121550000D01*
D47*
X178825000Y-136300000D02*
X178822030Y-136297030D01*
D10*
X123549996Y-113325064D02*
X123549996Y-113275064D01*
D47*
X139700000Y-136980000D02*
X139429149Y-136980000D01*
D10*
X181839950Y-114550012D02*
X181050000Y-114550012D01*
D47*
X191100000Y-136080000D02*
X191100000Y-135980000D01*
X109400000Y-131561413D02*
X109400000Y-131850000D01*
X132100000Y-137170000D02*
X132100000Y-137100000D01*
X191100000Y-136980000D02*
X191160000Y-136980000D01*
X180470000Y-130570000D02*
X180400000Y-130500000D01*
X126424000Y-140364000D02*
X126424000Y-138656000D01*
X139420000Y-135700000D02*
X139700000Y-135980000D01*
X101500000Y-139600000D02*
X101500000Y-138300000D01*
X112920000Y-137800000D02*
X112920000Y-138500000D01*
X106580000Y-141800000D02*
X107200000Y-141800000D01*
D10*
X186950000Y-121050012D02*
X187450000Y-121550012D01*
X142550000Y-113325076D02*
X142550000Y-113275076D01*
D47*
X140103942Y-133780289D02*
X139719090Y-133780289D01*
D10*
X163111092Y-121321142D02*
X162839950Y-121050000D01*
X186950000Y-114550012D02*
X187450000Y-114050012D01*
X162050000Y-121050000D02*
X161550000Y-121550000D01*
D47*
X190020289Y-133780289D02*
X189840000Y-133600000D01*
X106400000Y-137200000D02*
X105700000Y-137900000D01*
X139598379Y-133901000D02*
X139191621Y-133901000D01*
D10*
X105050000Y-114550000D02*
X104550000Y-114050000D01*
D47*
X103780000Y-130570000D02*
X103370000Y-130570000D01*
X153122030Y-136297030D02*
X153127970Y-136297030D01*
X129480000Y-130570000D02*
X129070000Y-130570000D01*
X108300000Y-131590000D02*
X108310000Y-131590000D01*
X139719090Y-133780289D02*
X139598379Y-133901000D01*
X134759166Y-131219166D02*
X134759166Y-131220579D01*
D10*
X182111092Y-114278870D02*
X181839950Y-114550012D01*
X186160050Y-121050012D02*
X186950000Y-121050012D01*
D47*
X109059166Y-131220579D02*
X109400000Y-131561413D01*
X109400000Y-131850000D02*
X110100000Y-131850000D01*
X188850000Y-136350000D02*
X189150000Y-136050000D01*
X152900000Y-137900000D02*
X152926000Y-137874000D01*
X127427970Y-136297030D02*
X127600000Y-136125000D01*
X130620276Y-130920000D02*
X130600979Y-130900703D01*
X112050000Y-136050000D02*
X112400000Y-135700000D01*
X101500000Y-138300000D02*
X101500000Y-137900000D01*
X178626000Y-136499000D02*
X178825000Y-136300000D01*
X188850000Y-136862500D02*
X188850000Y-136350000D01*
X138612500Y-135700000D02*
X138612500Y-135200000D01*
X166000000Y-136100000D02*
X165420000Y-136100000D01*
X190998379Y-133901000D02*
X190591621Y-133901000D01*
D10*
X104550000Y-121550000D02*
X104550000Y-122324924D01*
X110950000Y-114550000D02*
X111450000Y-114050000D01*
D47*
X165400000Y-136080000D02*
X165400000Y-135980000D01*
X138620289Y-133780289D02*
X138440000Y-133600000D01*
X127600000Y-139820000D02*
X127420000Y-139820000D01*
D10*
X105050000Y-121050000D02*
X104550000Y-121550000D01*
X185888908Y-114278870D02*
X186160050Y-114550012D01*
D47*
X153127970Y-136297030D02*
X153300000Y-136125000D01*
X164312500Y-135700000D02*
X165120000Y-135700000D01*
D10*
X123549996Y-121549988D02*
X123549996Y-122324912D01*
D47*
X114000000Y-136080000D02*
X114000000Y-135980000D01*
D10*
X166888908Y-121321142D02*
X167160050Y-121050000D01*
D47*
X137450000Y-136862500D02*
X137450000Y-136350000D01*
D10*
X147888908Y-114278858D02*
X148160050Y-114550000D01*
D47*
X112250000Y-136862500D02*
X112250000Y-136250000D01*
X128301000Y-133350000D02*
X128301000Y-132326000D01*
D10*
X187450000Y-122274936D02*
X187450000Y-122324936D01*
D47*
X154770000Y-130570000D02*
X154700000Y-130500000D01*
X160220000Y-130980000D02*
X160220000Y-130570000D01*
X153125000Y-136300000D02*
X153122030Y-136297030D01*
X159270000Y-132020000D02*
X159700000Y-131590000D01*
X165400000Y-136980000D02*
X165129149Y-136980000D01*
X101500000Y-137900000D02*
X101526000Y-137874000D01*
D10*
X181050000Y-121050012D02*
X180550000Y-121550012D01*
D47*
X134570000Y-131030000D02*
X134520000Y-130980000D01*
X189500000Y-135700000D02*
X190012500Y-135700000D01*
D10*
X129160046Y-121049988D02*
X129949996Y-121049988D01*
D47*
X126800000Y-140740000D02*
X126424000Y-140364000D01*
X114060000Y-136980000D02*
X114700000Y-137620000D01*
X164320289Y-133780289D02*
X164140000Y-133600000D01*
D10*
X148160050Y-114550000D02*
X148950000Y-114550000D01*
D47*
X103500000Y-131200000D02*
X103300000Y-131000000D01*
D10*
X181050000Y-114550012D02*
X180550000Y-114050012D01*
X162839950Y-121050000D02*
X162050000Y-121050000D01*
D47*
X164891621Y-133901000D02*
X164770910Y-133780289D01*
X127226000Y-136499000D02*
X127425000Y-136300000D01*
X101725000Y-136300000D02*
X101722030Y-136297030D01*
X154900000Y-131590000D02*
X154900000Y-131200000D01*
X137950000Y-136862500D02*
X137950000Y-136250000D01*
X152900000Y-139600000D02*
X152900000Y-138300000D01*
X186159166Y-131220579D02*
X186500000Y-131561413D01*
X164770910Y-133780289D02*
X164320289Y-133780289D01*
X113898379Y-133901000D02*
X113491621Y-133901000D01*
X154001000Y-133350000D02*
X154001000Y-132326000D01*
X109059166Y-131219166D02*
X109059166Y-131220579D01*
X127300000Y-139700000D02*
X127200000Y-139600000D01*
X127420000Y-139820000D02*
X127300000Y-139700000D01*
X126800000Y-138280000D02*
X127180000Y-138280000D01*
X101727970Y-136297030D02*
X101900000Y-136125000D01*
X160800000Y-131561413D02*
X160800000Y-131850000D01*
X105600000Y-130920000D02*
X104920276Y-130920000D01*
X178600000Y-137900000D02*
X178626000Y-137874000D01*
X165460000Y-136980000D02*
X166100000Y-137620000D01*
X178822030Y-136297030D02*
X178827970Y-136297030D01*
X132100000Y-137100000D02*
X131400000Y-136400000D01*
X165298379Y-133901000D02*
X164891621Y-133901000D01*
X190829149Y-136980000D02*
X190607490Y-137201659D01*
X114000000Y-136980000D02*
X114060000Y-136980000D01*
D10*
X168450000Y-114050000D02*
X168450000Y-113275076D01*
X167950000Y-114550000D02*
X168450000Y-114050000D01*
D47*
X191503942Y-133780289D02*
X191119090Y-133780289D01*
X164312500Y-135700000D02*
X164312500Y-135200000D01*
X102601000Y-133350000D02*
X102601000Y-132326000D01*
D10*
X167950000Y-121050000D02*
X168450000Y-121550000D01*
D47*
X178820000Y-139820000D02*
X178700000Y-139700000D01*
X177824000Y-140364000D02*
X177824000Y-138656000D01*
X129200000Y-131590000D02*
X129200000Y-131200000D01*
X100724000Y-138656000D02*
X101100000Y-138280000D01*
X190607490Y-137201659D02*
X190598341Y-137201659D01*
X113491621Y-133901000D02*
X113370910Y-133780289D01*
D10*
X143839950Y-121050000D02*
X143050000Y-121050000D01*
D47*
X189150000Y-136050000D02*
X189500000Y-135700000D01*
X160459166Y-131219166D02*
X160459166Y-131220579D01*
X189350000Y-136250000D02*
X189150000Y-136050000D01*
D10*
X149450000Y-121550000D02*
X149450000Y-122274924D01*
D47*
X184970000Y-132020000D02*
X185400000Y-131590000D01*
X154001000Y-132326000D02*
X153975000Y-132300000D01*
D10*
X180550000Y-113325088D02*
X180550000Y-113275088D01*
X109888908Y-114278858D02*
X110160050Y-114550000D01*
D47*
X112400000Y-135700000D02*
X112912500Y-135700000D01*
D10*
X143839950Y-114550000D02*
X143050000Y-114550000D01*
D47*
X157170000Y-137170000D02*
X157100000Y-137100000D01*
X191120000Y-136100000D02*
X191100000Y-136080000D01*
X164320000Y-137780000D02*
X164320000Y-137800000D01*
X179000000Y-139820000D02*
X178820000Y-139820000D01*
D10*
X124049996Y-114549988D02*
X123549996Y-114049988D01*
X104550000Y-113325076D02*
X104550000Y-113275076D01*
X161550000Y-113325076D02*
X161550000Y-113275076D01*
X182111092Y-121321154D02*
X181839950Y-121050012D01*
D47*
X108870000Y-131030000D02*
X109059166Y-131219166D01*
D10*
X129949996Y-114549988D02*
X130449996Y-114049988D01*
D47*
X178200000Y-138280000D02*
X178580000Y-138280000D01*
X183500000Y-137170000D02*
X182870000Y-137170000D01*
X179701000Y-133350000D02*
X179701000Y-132326000D01*
X111750000Y-136862500D02*
X111750000Y-136350000D01*
X165129149Y-136980000D02*
X164907490Y-137201659D01*
D10*
X124049996Y-121049988D02*
X123549996Y-121549988D01*
D47*
X138620000Y-137800000D02*
X138620000Y-138500000D01*
X139700000Y-136080000D02*
X139700000Y-135980000D01*
X112250000Y-136250000D02*
X112050000Y-136050000D01*
X101900000Y-136125000D02*
X101900000Y-135120000D01*
X182870000Y-137170000D02*
X182800000Y-137100000D01*
D10*
X124839946Y-121049988D02*
X124049996Y-121049988D01*
D47*
X139760000Y-136980000D02*
X140400000Y-137620000D01*
X129070000Y-130570000D02*
X129000000Y-130500000D01*
X113370910Y-133780289D02*
X112920289Y-133780289D01*
X190012500Y-135700000D02*
X190012500Y-135200000D01*
X183500000Y-137200000D02*
X182800000Y-137900000D01*
D10*
X105839950Y-114550000D02*
X105050000Y-114550000D01*
D47*
X132280000Y-141800000D02*
X132900000Y-141800000D01*
X127425000Y-136300000D02*
X127422030Y-136297030D01*
X114000000Y-136980000D02*
X113729149Y-136980000D01*
X178600000Y-138300000D02*
X178600000Y-137900000D01*
X152124000Y-138656000D02*
X152500000Y-138280000D01*
X113729149Y-136980000D02*
X113507490Y-137201659D01*
D10*
X163111092Y-114278858D02*
X162839950Y-114550000D01*
D47*
X163800000Y-135700000D02*
X164312500Y-135700000D01*
X178580000Y-138280000D02*
X178600000Y-138300000D01*
X177824000Y-138656000D02*
X178200000Y-138280000D01*
X157800000Y-137170000D02*
X157170000Y-137170000D01*
X157980000Y-141800000D02*
X158600000Y-141800000D01*
X114600000Y-136100000D02*
X114020000Y-136100000D01*
D10*
X128888904Y-121321130D02*
X129160046Y-121049988D01*
D47*
X157000000Y-130920000D02*
X156320276Y-130920000D01*
D10*
X148950000Y-121050000D02*
X149450000Y-121550000D01*
X130449996Y-122274912D02*
X130449996Y-122324912D01*
X142550000Y-114050000D02*
X142550000Y-113325076D01*
X187450000Y-114050012D02*
X187450000Y-113275088D01*
D47*
X163650000Y-136250000D02*
X163450000Y-136050000D01*
X137750000Y-136050000D02*
X138100000Y-135700000D01*
X113507490Y-137201659D02*
X113498341Y-137201659D01*
X127200000Y-138300000D02*
X127200000Y-137900000D01*
X104920276Y-130920000D02*
X104900979Y-130900703D01*
X134520000Y-130980000D02*
X134520000Y-130570000D01*
X126424000Y-138656000D02*
X126800000Y-138280000D01*
D10*
X180550000Y-121550012D02*
X180550000Y-122324936D01*
X104550000Y-114050000D02*
X104550000Y-113325076D01*
D47*
X107000000Y-132020000D02*
X107870000Y-132020000D01*
X127200000Y-139600000D02*
X127200000Y-138300000D01*
X164907490Y-137201659D02*
X164898341Y-137201659D01*
X112920289Y-133780289D02*
X112740000Y-133600000D01*
X102601000Y-132326000D02*
X102575000Y-132300000D01*
X113720000Y-135700000D02*
X114000000Y-135980000D01*
X183500000Y-137170000D02*
X183500000Y-137200000D01*
D10*
X168450000Y-121550000D02*
X168450000Y-122274924D01*
D47*
X165400000Y-136980000D02*
X165460000Y-136980000D01*
X191700000Y-136100000D02*
X191120000Y-136100000D01*
X108310000Y-131590000D02*
X108870000Y-131030000D01*
X160270000Y-131030000D02*
X160220000Y-130980000D01*
D10*
X110950000Y-121050000D02*
X111450000Y-121550000D01*
D47*
X180600000Y-131200000D02*
X180400000Y-131000000D01*
D10*
X167160050Y-114550000D02*
X167950000Y-114550000D01*
X105839950Y-121050000D02*
X105050000Y-121050000D01*
D47*
X127200000Y-137900000D02*
X127226000Y-137874000D01*
X180600000Y-131590000D02*
X180600000Y-131200000D01*
X186159166Y-131219166D02*
X186159166Y-131220579D01*
D10*
X186160050Y-114550012D02*
X186950000Y-114550012D01*
D47*
X106400000Y-137100000D02*
X105700000Y-136400000D01*
X159700000Y-131590000D02*
X159710000Y-131590000D01*
X164320000Y-137800000D02*
X164320000Y-138500000D01*
X139207490Y-137201659D02*
X139198341Y-137201659D01*
D10*
X109888908Y-121321142D02*
X110160050Y-121050000D01*
D47*
X185410000Y-131590000D02*
X185970000Y-131030000D01*
X183680000Y-141800000D02*
X184300000Y-141800000D01*
X185920000Y-130980000D02*
X185920000Y-130570000D01*
D10*
X168450000Y-122274924D02*
X168450000Y-122324924D01*
D47*
X152500000Y-140740000D02*
X152124000Y-140364000D01*
D10*
X125111088Y-121321130D02*
X124839946Y-121049988D01*
D47*
X138620000Y-137780000D02*
X138620000Y-137800000D01*
X140300000Y-136100000D02*
X139720000Y-136100000D01*
D10*
X147888908Y-121321142D02*
X148160050Y-121050000D01*
X166888908Y-114278858D02*
X167160050Y-114550000D01*
D47*
X101526000Y-137874000D02*
X101526000Y-136499000D01*
D10*
X128888904Y-114278846D02*
X129160046Y-114549988D01*
X144111092Y-121321142D02*
X143839950Y-121050000D01*
D47*
X190012500Y-135700000D02*
X190820000Y-135700000D01*
X178827970Y-136297030D02*
X179000000Y-136125000D01*
X101722030Y-136297030D02*
X101727970Y-136297030D01*
X178600000Y-139600000D02*
X178600000Y-138300000D01*
X132100000Y-137200000D02*
X131400000Y-137900000D01*
X164898341Y-137201659D02*
X164320000Y-137780000D01*
X112912500Y-135700000D02*
X113720000Y-135700000D01*
X112912500Y-135700000D02*
X112912500Y-135200000D01*
X157800000Y-137200000D02*
X157100000Y-137900000D01*
X154900000Y-131200000D02*
X154700000Y-131000000D01*
X179701000Y-132326000D02*
X179675000Y-132300000D01*
X103500000Y-131590000D02*
X103500000Y-131200000D01*
D10*
X129949996Y-121049988D02*
X130449996Y-121549988D01*
D47*
X165120000Y-135700000D02*
X165400000Y-135980000D01*
D10*
X111450000Y-114050000D02*
X111450000Y-113275076D01*
X143050000Y-114550000D02*
X142550000Y-114050000D01*
D47*
X191160000Y-136980000D02*
X191800000Y-137620000D01*
X165419090Y-133780289D02*
X165298379Y-133901000D01*
X139198341Y-137201659D02*
X138620000Y-137780000D01*
X163150000Y-136862500D02*
X163150000Y-136350000D01*
X111750000Y-136350000D02*
X112050000Y-136050000D01*
X153120000Y-139820000D02*
X153000000Y-139700000D01*
D10*
X130449996Y-114049988D02*
X130449996Y-113275064D01*
D47*
X178200000Y-140740000D02*
X177824000Y-140364000D01*
X152926000Y-136499000D02*
X153125000Y-136300000D01*
D10*
X149450000Y-114050000D02*
X149450000Y-113275076D01*
D47*
X190591621Y-133901000D02*
X190470910Y-133780289D01*
X114019090Y-133780289D02*
X113898379Y-133901000D01*
X156320276Y-130920000D02*
X156300979Y-130900703D01*
X137450000Y-136350000D02*
X137750000Y-136050000D01*
X153000000Y-139700000D02*
X152900000Y-139600000D01*
D10*
X129160046Y-114549988D02*
X129949996Y-114549988D01*
D47*
X152880000Y-138280000D02*
X152900000Y-138300000D01*
X178626000Y-137874000D02*
X178626000Y-136499000D01*
X190820000Y-135700000D02*
X191100000Y-135980000D01*
X153300000Y-139820000D02*
X153120000Y-139820000D01*
X101100000Y-140740000D02*
X100724000Y-140364000D01*
X132700000Y-132020000D02*
X133570000Y-132020000D01*
X191749999Y-136149999D02*
X191700000Y-136100000D01*
X131300000Y-130920000D02*
X130620276Y-130920000D01*
X139429149Y-136980000D02*
X139207490Y-137201659D01*
X134000000Y-131590000D02*
X134010000Y-131590000D01*
X129200000Y-131200000D02*
X129000000Y-131000000D01*
X157800000Y-137170000D02*
X157800000Y-137100000D01*
X138100000Y-135700000D02*
X138612500Y-135700000D01*
X101900000Y-139820000D02*
X101720000Y-139820000D01*
X163150000Y-136350000D02*
X163450000Y-136050000D01*
D10*
X111450000Y-122274924D02*
X111450000Y-122324924D01*
D47*
X113498341Y-137201659D02*
X112920000Y-137780000D01*
X165803942Y-133780289D02*
X165419090Y-133780289D01*
X127600000Y-136125000D02*
X127600000Y-135120000D01*
X182700000Y-130920000D02*
X182020276Y-130920000D01*
X106400000Y-137170000D02*
X106400000Y-137200000D01*
X139191621Y-133901000D02*
X139070910Y-133780289D01*
X114020000Y-136100000D02*
X114000000Y-136080000D01*
D10*
X130449996Y-121549988D02*
X130449996Y-122274912D01*
D47*
X190020000Y-137780000D02*
X190020000Y-137800000D01*
X179000000Y-136125000D02*
X179000000Y-135120000D01*
X103370000Y-130570000D02*
X103300000Y-130500000D01*
X100724000Y-140364000D02*
X100724000Y-138656000D01*
D10*
X162050000Y-114550000D02*
X161550000Y-114050000D01*
D47*
X101480000Y-138280000D02*
X101500000Y-138300000D01*
D10*
X167160050Y-121050000D02*
X167950000Y-121050000D01*
D47*
X135100000Y-131561413D02*
X135100000Y-131850000D01*
X114649999Y-136149999D02*
X114600000Y-136100000D01*
X160270000Y-131030000D02*
X160459166Y-131219166D01*
D10*
X123549996Y-114049988D02*
X123549996Y-113325064D01*
D47*
X101720000Y-139820000D02*
X101600000Y-139700000D01*
X105770000Y-137170000D02*
X105700000Y-137100000D01*
D10*
X142550000Y-121550000D02*
X142550000Y-122324924D01*
D47*
X135100000Y-131850000D02*
X135800000Y-131850000D01*
D10*
X110160050Y-114550000D02*
X110950000Y-114550000D01*
X161550000Y-114050000D02*
X161550000Y-113325076D01*
D47*
X186500000Y-131850000D02*
X187200000Y-131850000D01*
X101600000Y-139700000D02*
X101500000Y-139600000D01*
X101526000Y-136499000D02*
X101725000Y-136300000D01*
X108870000Y-131030000D02*
X108820000Y-130980000D01*
D10*
X185888908Y-121321154D02*
X186160050Y-121050012D01*
D47*
X132100000Y-137170000D02*
X131470000Y-137170000D01*
X140349999Y-136149999D02*
X140300000Y-136100000D01*
X139070910Y-133780289D02*
X138620289Y-133780289D01*
D10*
X162839950Y-114550000D02*
X162050000Y-114550000D01*
D47*
X166049999Y-136149999D02*
X166000000Y-136100000D01*
X108820000Y-130980000D02*
X108820000Y-130570000D01*
X160459166Y-131220579D02*
X160800000Y-131561413D01*
X152500000Y-138280000D02*
X152880000Y-138280000D01*
X191119090Y-133780289D02*
X190998379Y-133901000D01*
D10*
X110160050Y-121050000D02*
X110950000Y-121050000D01*
D47*
X190470910Y-133780289D02*
X190020289Y-133780289D01*
X159710000Y-131590000D02*
X160270000Y-131030000D01*
X152926000Y-137874000D02*
X152926000Y-136499000D01*
X106400000Y-137170000D02*
X105770000Y-137170000D01*
X158400000Y-132020000D02*
X159270000Y-132020000D01*
X131470000Y-137170000D02*
X131400000Y-137100000D01*
X189350000Y-136862500D02*
X189350000Y-136250000D01*
X182020276Y-130920000D02*
X182000979Y-130900703D01*
X112920000Y-137780000D02*
X112920000Y-137800000D01*
X132100000Y-137170000D02*
X132100000Y-137200000D01*
X128301000Y-132326000D02*
X128275000Y-132300000D01*
X155180000Y-130570000D02*
X154770000Y-130570000D01*
X127180000Y-138280000D02*
X127200000Y-138300000D01*
X185970000Y-131030000D02*
X186159166Y-131219166D01*
D10*
X125111088Y-114278846D02*
X124839946Y-114549988D01*
D47*
X185970000Y-131030000D02*
X185920000Y-130980000D01*
D10*
X161550000Y-121550000D02*
X161550000Y-122324924D01*
D47*
X184100000Y-132020000D02*
X184970000Y-132020000D01*
X163450000Y-136050000D02*
X163800000Y-135700000D01*
X183500000Y-137100000D02*
X182800000Y-136400000D01*
D10*
X111450000Y-121550000D02*
X111450000Y-122274924D01*
X181839950Y-121050012D02*
X181050000Y-121050012D01*
D47*
X138612500Y-135700000D02*
X139420000Y-135700000D01*
X134759166Y-131220579D02*
X135100000Y-131561413D01*
X152124000Y-140364000D02*
X152124000Y-138656000D01*
X106400000Y-137170000D02*
X106400000Y-137100000D01*
X107870000Y-132020000D02*
X108300000Y-131590000D01*
X139720000Y-136100000D02*
X139700000Y-136080000D01*
X137950000Y-136250000D02*
X137750000Y-136050000D01*
X114403942Y-133780289D02*
X114019090Y-133780289D01*
X127422030Y-136297030D02*
X127427970Y-136297030D01*
D10*
X148950000Y-114550000D02*
X149450000Y-114050000D01*
D47*
X101100000Y-138280000D02*
X101480000Y-138280000D01*
D10*
X148160050Y-121050000D02*
X148950000Y-121050000D01*
D47*
X160800000Y-131850000D02*
X161500000Y-131850000D01*
D10*
X149450000Y-122274924D02*
X149450000Y-122324924D01*
X187450000Y-121550012D02*
X187450000Y-122274936D01*
D47*
X133570000Y-132020000D02*
X134000000Y-131590000D01*
X190020000Y-137800000D02*
X190020000Y-138500000D01*
D10*
X106111092Y-114278858D02*
X105839950Y-114550000D01*
D47*
X163650000Y-136862500D02*
X163650000Y-136250000D01*
X134570000Y-131030000D02*
X134759166Y-131219166D01*
X157800000Y-137170000D02*
X157800000Y-137200000D01*
X186500000Y-131561413D02*
X186500000Y-131850000D01*
X183500000Y-137170000D02*
X183500000Y-137100000D01*
X178700000Y-139700000D02*
X178600000Y-139600000D01*
D10*
X144111092Y-114278858D02*
X143839950Y-114550000D01*
D47*
X165420000Y-136100000D02*
X165400000Y-136080000D01*
X127226000Y-137874000D02*
X127226000Y-136499000D01*
X180880000Y-130570000D02*
X180470000Y-130570000D01*
X185400000Y-131590000D02*
X185410000Y-131590000D01*
X134010000Y-131590000D02*
X134570000Y-131030000D01*
X191100000Y-136980000D02*
X190829149Y-136980000D01*
D48*
%TO.N,Net-(AE1-Pad1)*%
X179000000Y-132100000D02*
X179000000Y-132265000D01*
D47*
X101900000Y-132335000D02*
X101935000Y-132300000D01*
D10*
X177800000Y-130950000D02*
X176662500Y-130950000D01*
X100700000Y-130950000D02*
X99562500Y-130950000D01*
D48*
X153300000Y-132100000D02*
X153300000Y-132265000D01*
D10*
X153300000Y-133080000D02*
X153300000Y-132335000D01*
X179000000Y-133080000D02*
X179000000Y-132335000D01*
D48*
X127600000Y-132100000D02*
X127600000Y-132265000D01*
D10*
X152100000Y-130950000D02*
X150962500Y-130950000D01*
X101900000Y-133080000D02*
X101900000Y-132335000D01*
X127600000Y-133080000D02*
X127600000Y-132335000D01*
D47*
X153300000Y-132335000D02*
X153335000Y-132300000D01*
D48*
X101900000Y-132100000D02*
X101900000Y-132265000D01*
D10*
X126400000Y-130950000D02*
X125262500Y-130950000D01*
D47*
X127600000Y-132335000D02*
X127635000Y-132300000D01*
X179000000Y-132335000D02*
X179035000Y-132300000D01*
%TO.N,+BATT*%
X166800000Y-139000000D02*
X166792248Y-139000000D01*
X115392248Y-139000000D02*
X114711248Y-139681000D01*
X166792248Y-139000000D02*
X166111248Y-139681000D01*
X115400000Y-139000000D02*
X115400000Y-138300000D01*
X116600000Y-137680000D02*
X116600000Y-134920000D01*
X141100000Y-139000000D02*
X141100000Y-138300000D01*
X191811248Y-139681000D02*
X190401000Y-139681000D01*
X116600000Y-134920000D02*
X116180000Y-134500000D01*
X114711248Y-139681000D02*
X113301000Y-139681000D01*
X115400000Y-138300000D02*
X115600000Y-138100000D01*
X139001000Y-139681000D02*
X138620000Y-139300000D01*
X140411248Y-139681000D02*
X139001000Y-139681000D01*
X168000000Y-137680000D02*
X168000000Y-134920000D01*
X113301000Y-139681000D02*
X112920000Y-139300000D01*
X141300000Y-138100000D02*
X141880000Y-138100000D01*
X116180000Y-138100000D02*
X116600000Y-137680000D01*
X167580000Y-138100000D02*
X168000000Y-137680000D01*
X193700000Y-134920000D02*
X193280000Y-134500000D01*
X141092248Y-139000000D02*
X140411248Y-139681000D01*
X192500000Y-139000000D02*
X192500000Y-138300000D01*
X192700000Y-138100000D02*
X193280000Y-138100000D01*
X164701000Y-139681000D02*
X164320000Y-139300000D01*
X192500000Y-139000000D02*
X192492248Y-139000000D01*
X167000000Y-138100000D02*
X167580000Y-138100000D01*
X193700000Y-137680000D02*
X193700000Y-134920000D01*
X141100000Y-139000000D02*
X141092248Y-139000000D01*
X193280000Y-138100000D02*
X193700000Y-137680000D01*
X168000000Y-134920000D02*
X167580000Y-134500000D01*
X115600000Y-138100000D02*
X116180000Y-138100000D01*
X115400000Y-139000000D02*
X115392248Y-139000000D01*
X142300000Y-134920000D02*
X141880000Y-134500000D01*
X141100000Y-138300000D02*
X141300000Y-138100000D01*
X166111248Y-139681000D02*
X164701000Y-139681000D01*
X192492248Y-139000000D02*
X191811248Y-139681000D01*
X190401000Y-139681000D02*
X190020000Y-139300000D01*
X141880000Y-138100000D02*
X142300000Y-137680000D01*
X166800000Y-139000000D02*
X166800000Y-138300000D01*
X142300000Y-137680000D02*
X142300000Y-134920000D01*
X192500000Y-138300000D02*
X192700000Y-138100000D01*
X166800000Y-138300000D02*
X167000000Y-138100000D01*
%TO.N,+3.3V*%
X137039000Y-137341000D02*
X138644928Y-137341000D01*
X105620000Y-141800000D02*
X105800000Y-141620000D01*
X139000000Y-136200000D02*
X138612500Y-136200000D01*
X160280000Y-135318000D02*
X160280000Y-135700000D01*
X191100000Y-135020000D02*
X191000000Y-135020000D01*
X127829000Y-135621000D02*
X128080000Y-135370000D01*
X153780000Y-135370000D02*
X154350000Y-135370000D01*
X179480000Y-135370000D02*
X180050000Y-135370000D01*
X184900000Y-134238000D02*
X185980000Y-135318000D01*
X186800000Y-140100000D02*
X186950000Y-139950000D01*
X180050000Y-134970000D02*
X180050000Y-135370000D01*
X135129998Y-140100000D02*
X135400000Y-140100000D01*
X128650000Y-134970000D02*
X128650000Y-135370000D01*
X162739000Y-137341000D02*
X164344928Y-137341000D01*
X109429998Y-140100000D02*
X109700000Y-140100000D01*
X127625000Y-136800000D02*
X127829000Y-136596000D01*
X140300000Y-135100000D02*
X139720000Y-135100000D01*
X113091000Y-137009000D02*
X113428319Y-136671681D01*
X155600000Y-133720000D02*
X155200000Y-133720000D01*
X180900000Y-133200000D02*
X180700000Y-133000000D01*
X190600000Y-136659102D02*
X190600000Y-136400000D01*
X114000000Y-135020000D02*
X113900000Y-135020000D01*
X156100000Y-142135570D02*
X156354502Y-141800000D01*
X113091000Y-137194928D02*
X113091000Y-137009000D01*
X191100000Y-135080000D02*
X191100000Y-135020000D01*
X133500000Y-133720000D02*
X133500000Y-134238000D01*
X159200000Y-133720000D02*
X159200000Y-134238000D01*
X164828319Y-136671681D02*
X164912579Y-136671681D01*
X190528319Y-136671681D02*
X190612579Y-136671681D01*
X139600000Y-135020000D02*
X139080000Y-134500000D01*
X139720000Y-135100000D02*
X139700000Y-135080000D01*
X179229000Y-136596000D02*
X179229000Y-135621000D01*
X155000000Y-133000000D02*
X155000000Y-132650000D01*
X110880000Y-137800000D02*
X111339000Y-137341000D01*
X153300000Y-137780000D02*
X153300000Y-136825000D01*
X129300000Y-133000000D02*
X129300000Y-132650000D01*
X130654502Y-141800000D02*
X131320000Y-141800000D01*
X181800000Y-142135570D02*
X182054502Y-141800000D01*
X179000000Y-137780000D02*
X179000000Y-136825000D01*
X102129000Y-136596000D02*
X102129000Y-135621000D01*
X113300000Y-136200000D02*
X112912500Y-136200000D01*
X127829000Y-136596000D02*
X127829000Y-135621000D01*
X107800000Y-133720000D02*
X107800000Y-134238000D01*
X165300000Y-135020000D02*
X164780000Y-134500000D01*
X109700000Y-140100000D02*
X109850000Y-139950000D01*
X114600000Y-135100000D02*
X114020000Y-135100000D01*
X103800000Y-133720000D02*
X103800000Y-133200000D01*
X165420000Y-135100000D02*
X165400000Y-135080000D01*
X165400000Y-135020000D02*
X165300000Y-135020000D01*
X133500000Y-133050000D02*
X134000000Y-132550000D01*
X129500000Y-133720000D02*
X129500000Y-133200000D01*
X180700000Y-133000000D02*
X180700000Y-132650000D01*
X102380000Y-135370000D02*
X102950000Y-135370000D01*
X185980000Y-135318000D02*
X185980000Y-135700000D01*
X190044928Y-137341000D02*
X190191000Y-137194928D01*
X188439000Y-137341000D02*
X190044928Y-137341000D01*
X139200000Y-136659102D02*
X139200000Y-136400000D01*
X157200000Y-141620000D02*
X157200000Y-140620000D01*
X135550000Y-139950000D02*
X135550000Y-139770000D01*
X111339000Y-137341000D02*
X112944928Y-137341000D01*
X113500000Y-136659102D02*
X113500000Y-136400000D01*
X129300000Y-132650000D02*
X129200000Y-132550000D01*
X160829998Y-140100000D02*
X161100000Y-140100000D01*
X136580000Y-137800000D02*
X137039000Y-137341000D01*
X113512579Y-136671681D02*
X113500000Y-136659102D01*
X190480000Y-134500000D02*
X189887500Y-134500000D01*
X159200000Y-134238000D02*
X160280000Y-135318000D01*
X131320000Y-141800000D02*
X131500000Y-141620000D01*
X135400000Y-140100000D02*
X135550000Y-139950000D01*
X138791000Y-137194928D02*
X138791000Y-137009000D01*
X112944928Y-137341000D02*
X113091000Y-137194928D01*
X130400000Y-142135570D02*
X130654502Y-141800000D01*
X138487500Y-134500000D02*
X138450000Y-134537500D01*
X103800000Y-133200000D02*
X103600000Y-133000000D01*
X182720000Y-141800000D02*
X182900000Y-141620000D01*
X179000000Y-136825000D02*
X179025000Y-136800000D01*
X180700000Y-132650000D02*
X180600000Y-132550000D01*
X107800000Y-134238000D02*
X108880000Y-135318000D01*
X159200000Y-133720000D02*
X159200000Y-133050000D01*
X129051000Y-133300000D02*
X129051000Y-132699000D01*
X164187500Y-134500000D02*
X164150000Y-134537500D01*
X184900000Y-133050000D02*
X185400000Y-132550000D01*
X139700000Y-135020000D02*
X139600000Y-135020000D01*
X129051000Y-132699000D02*
X129200000Y-132550000D01*
X139212579Y-136671681D02*
X139200000Y-136659102D01*
X161100000Y-140100000D02*
X161250000Y-139950000D01*
X154751000Y-133300000D02*
X154751000Y-132699000D01*
X101900000Y-136825000D02*
X101925000Y-136800000D01*
X101925000Y-136800000D02*
X102129000Y-136596000D01*
X189887500Y-134500000D02*
X189850000Y-134537500D01*
X101900000Y-137780000D02*
X101900000Y-136825000D01*
X133500000Y-134238000D02*
X134580000Y-135318000D01*
X139700000Y-135080000D02*
X139700000Y-135020000D01*
X155200000Y-133200000D02*
X155000000Y-133000000D01*
X180451000Y-133300000D02*
X180451000Y-132699000D01*
X190612579Y-136671681D02*
X190600000Y-136659102D01*
X107800000Y-133050000D02*
X108300000Y-132550000D01*
X164780000Y-134500000D02*
X164187500Y-134500000D01*
X155000000Y-132650000D02*
X154900000Y-132550000D01*
X180451000Y-132699000D02*
X180600000Y-132550000D01*
X190600000Y-136400000D02*
X190400000Y-136200000D01*
X180900000Y-133720000D02*
X180900000Y-133200000D01*
X166000000Y-135100000D02*
X165420000Y-135100000D01*
X104954502Y-141800000D02*
X105620000Y-141800000D01*
X154350000Y-134970000D02*
X154350000Y-135370000D01*
X128080000Y-135370000D02*
X128650000Y-135370000D01*
X191000000Y-135020000D02*
X190480000Y-134500000D01*
X164700000Y-136200000D02*
X164312500Y-136200000D01*
X133500000Y-133720000D02*
X133500000Y-133050000D01*
X112787500Y-134500000D02*
X112750000Y-134537500D01*
X165400000Y-135080000D02*
X165400000Y-135020000D01*
X113500000Y-136400000D02*
X113300000Y-136200000D01*
X190191000Y-137009000D02*
X190528319Y-136671681D01*
X162280000Y-137800000D02*
X162739000Y-137341000D01*
X113380000Y-134500000D02*
X112787500Y-134500000D01*
X113428319Y-136671681D02*
X113512579Y-136671681D01*
X138644928Y-137341000D02*
X138791000Y-137194928D01*
X109850000Y-139950000D02*
X109850000Y-139770000D01*
X184900000Y-133720000D02*
X184900000Y-134238000D01*
X153325000Y-136800000D02*
X153529000Y-136596000D01*
X159200000Y-133050000D02*
X159700000Y-132550000D01*
X186950000Y-139950000D02*
X186950000Y-139770000D01*
X179025000Y-136800000D02*
X179229000Y-136596000D01*
X184900000Y-133720000D02*
X184900000Y-133050000D01*
X164491000Y-137009000D02*
X164828319Y-136671681D01*
X102129000Y-135621000D02*
X102380000Y-135370000D01*
X190400000Y-136200000D02*
X190012500Y-136200000D01*
X164344928Y-137341000D02*
X164491000Y-137194928D01*
X191700000Y-135100000D02*
X191120000Y-135100000D01*
X104700000Y-142135570D02*
X104954502Y-141800000D01*
X108880000Y-135318000D02*
X108880000Y-135700000D01*
X139080000Y-134500000D02*
X138487500Y-134500000D01*
X155200000Y-133720000D02*
X155200000Y-133200000D01*
X164900000Y-136400000D02*
X164700000Y-136200000D01*
X103351000Y-133300000D02*
X103351000Y-132699000D01*
X153529000Y-135621000D02*
X153780000Y-135370000D01*
X161250000Y-139950000D02*
X161250000Y-139770000D01*
X153300000Y-136825000D02*
X153325000Y-136800000D01*
X103600000Y-133000000D02*
X103600000Y-132650000D01*
X131500000Y-141620000D02*
X131500000Y-140620000D01*
X139200000Y-136400000D02*
X139000000Y-136200000D01*
X104200000Y-133720000D02*
X103800000Y-133720000D01*
X164900000Y-136659102D02*
X164900000Y-136400000D01*
X181300000Y-133720000D02*
X180900000Y-133720000D01*
X127600000Y-137780000D02*
X127600000Y-136825000D01*
X154751000Y-132699000D02*
X154900000Y-132550000D01*
X129900000Y-133720000D02*
X129500000Y-133720000D01*
X113900000Y-135020000D02*
X113380000Y-134500000D01*
X153529000Y-136596000D02*
X153529000Y-135621000D01*
X156354502Y-141800000D02*
X157020000Y-141800000D01*
X134580000Y-135318000D02*
X134580000Y-135700000D01*
X129500000Y-133200000D02*
X129300000Y-133000000D01*
X103600000Y-132650000D02*
X103500000Y-132550000D01*
X103351000Y-132699000D02*
X103500000Y-132550000D01*
X138791000Y-137009000D02*
X139128319Y-136671681D01*
X190191000Y-137194928D02*
X190191000Y-137009000D01*
X164912579Y-136671681D02*
X164900000Y-136659102D01*
X164491000Y-137194928D02*
X164491000Y-137009000D01*
X157020000Y-141800000D02*
X157200000Y-141620000D01*
X182054502Y-141800000D02*
X182720000Y-141800000D01*
X187980000Y-137800000D02*
X188439000Y-137341000D01*
X191120000Y-135100000D02*
X191100000Y-135080000D01*
X179229000Y-135621000D02*
X179480000Y-135370000D01*
X102950000Y-134970000D02*
X102950000Y-135370000D01*
X186529998Y-140100000D02*
X186800000Y-140100000D01*
X114020000Y-135100000D02*
X114000000Y-135080000D01*
X127600000Y-136825000D02*
X127625000Y-136800000D01*
X139128319Y-136671681D02*
X139212579Y-136671681D01*
X107800000Y-133720000D02*
X107800000Y-133050000D01*
X105800000Y-141620000D02*
X105800000Y-140620000D01*
X182900000Y-141620000D02*
X182900000Y-140620000D01*
X114000000Y-135080000D02*
X114000000Y-135020000D01*
%TO.N,Net-(U1-XTAL_N)*%
X182300000Y-133100000D02*
X182900000Y-133100000D01*
X133630000Y-130570000D02*
X133880000Y-130570000D01*
X132000000Y-132600000D02*
X132000000Y-131620000D01*
X184680000Y-130920000D02*
X185030000Y-130570000D01*
X130900000Y-133100000D02*
X131500000Y-133100000D01*
X158400000Y-130920000D02*
X158980000Y-130920000D01*
X157700000Y-131620000D02*
X158400000Y-130920000D01*
X156600000Y-133100000D02*
X157200000Y-133100000D01*
X130700000Y-133720000D02*
X130700000Y-133300000D01*
X107580000Y-130920000D02*
X107930000Y-130570000D01*
X157200000Y-133100000D02*
X157700000Y-132600000D01*
X105000000Y-133720000D02*
X105000000Y-133300000D01*
X105200000Y-133100000D02*
X105800000Y-133100000D01*
X132000000Y-131620000D02*
X132700000Y-130920000D01*
X107000000Y-130920000D02*
X107580000Y-130920000D01*
X107930000Y-130570000D02*
X108180000Y-130570000D01*
X156400000Y-133720000D02*
X156400000Y-133300000D01*
X182100000Y-133720000D02*
X182100000Y-133300000D01*
X183400000Y-131620000D02*
X184100000Y-130920000D01*
X157700000Y-132600000D02*
X157700000Y-131620000D01*
X182100000Y-133300000D02*
X182300000Y-133100000D01*
X159330000Y-130570000D02*
X159580000Y-130570000D01*
X182900000Y-133100000D02*
X183400000Y-132600000D01*
X158980000Y-130920000D02*
X159330000Y-130570000D01*
X156400000Y-133300000D02*
X156600000Y-133100000D01*
X184100000Y-130920000D02*
X184680000Y-130920000D01*
X105000000Y-133300000D02*
X105200000Y-133100000D01*
X185030000Y-130570000D02*
X185280000Y-130570000D01*
X132700000Y-130920000D02*
X133280000Y-130920000D01*
X105800000Y-133100000D02*
X106300000Y-132600000D01*
X183400000Y-132600000D02*
X183400000Y-131620000D01*
X106300000Y-131620000D02*
X107000000Y-130920000D01*
X106300000Y-132600000D02*
X106300000Y-131620000D01*
X131500000Y-133100000D02*
X132000000Y-132600000D01*
X130700000Y-133300000D02*
X130900000Y-133100000D01*
X133280000Y-130920000D02*
X133630000Y-130570000D01*
%TO.N,Net-(C6-Pad2)*%
X104750000Y-131750000D02*
X105020000Y-132020000D01*
X181500000Y-130590000D02*
X181520000Y-130570000D01*
X155800000Y-131750000D02*
X155800000Y-130590000D01*
X130720000Y-132020000D02*
X131300000Y-132020000D01*
X130100000Y-130590000D02*
X130120000Y-130570000D01*
X155800000Y-130590000D02*
X155820000Y-130570000D01*
X130100000Y-131750000D02*
X130100000Y-130590000D01*
X181500000Y-131750000D02*
X181500000Y-130590000D01*
X105020000Y-132020000D02*
X105600000Y-132020000D01*
X130450000Y-131750000D02*
X130720000Y-132020000D01*
X104400000Y-130590000D02*
X104420000Y-130570000D01*
X156420000Y-132020000D02*
X157000000Y-132020000D01*
X181500000Y-131750000D02*
X181850000Y-131750000D01*
X130100000Y-131750000D02*
X130450000Y-131750000D01*
X181850000Y-131750000D02*
X182120000Y-132020000D01*
X156150000Y-131750000D02*
X156420000Y-132020000D01*
X182120000Y-132020000D02*
X182700000Y-132020000D01*
X155800000Y-131750000D02*
X156150000Y-131750000D01*
X104400000Y-131750000D02*
X104400000Y-130590000D01*
X104400000Y-131750000D02*
X104750000Y-131750000D01*
D10*
%TO.N,Net-(U1-LNA_IN)*%
X180050000Y-134570000D02*
X179090000Y-134570000D01*
D47*
X101990000Y-134570000D02*
X101900000Y-134480000D01*
D10*
X154350000Y-134570000D02*
X153390000Y-134570000D01*
X102950000Y-134570000D02*
X101990000Y-134570000D01*
X153300000Y-134480000D02*
X153300000Y-133720000D01*
D47*
X127690000Y-134570000D02*
X127600000Y-134480000D01*
D10*
X127600000Y-134480000D02*
X127600000Y-133720000D01*
D47*
X179090000Y-134570000D02*
X179000000Y-134480000D01*
D10*
X101900000Y-134480000D02*
X101900000Y-133720000D01*
X128650000Y-134570000D02*
X127690000Y-134570000D01*
D47*
X153390000Y-134570000D02*
X153300000Y-134480000D01*
D10*
X179000000Y-134480000D02*
X179000000Y-133720000D01*
D47*
%TO.N,Net-(D1A-K)*%
X97328875Y-139670000D02*
X97328875Y-138983625D01*
X174428875Y-138983625D02*
X174462500Y-138950000D01*
X97362500Y-138000000D02*
X97362500Y-137050000D01*
X101100000Y-140100000D02*
X101100000Y-139500000D01*
X174462500Y-138000000D02*
X174462500Y-137050000D01*
X123028875Y-138983625D02*
X123062500Y-138950000D01*
X178200000Y-140100000D02*
X178200000Y-139500000D01*
X152500000Y-140100000D02*
X152500000Y-139500000D01*
X174462500Y-138950000D02*
X174462500Y-138000000D01*
X152500000Y-138920000D02*
X152500000Y-139500000D01*
X97328875Y-138983625D02*
X97362500Y-138950000D01*
X148762500Y-138950000D02*
X148762500Y-138000000D01*
X97362500Y-138950000D02*
X97362500Y-138000000D01*
X123062500Y-138950000D02*
X123062500Y-138000000D01*
X123028875Y-139670000D02*
X123028875Y-138983625D01*
X126800000Y-140100000D02*
X126800000Y-139500000D01*
X148762500Y-138000000D02*
X148762500Y-137050000D01*
X126800000Y-138920000D02*
X126800000Y-139500000D01*
X101100000Y-138920000D02*
X101100000Y-139500000D01*
X178200000Y-138920000D02*
X178200000Y-139500000D01*
X123062500Y-138000000D02*
X123062500Y-137050000D01*
X148728875Y-139670000D02*
X148728875Y-138983625D01*
X174428875Y-139670000D02*
X174428875Y-138983625D01*
X148728875Y-138983625D02*
X148762500Y-138950000D01*
%TO.N,/VREF*%
X113994000Y-138700000D02*
X114577958Y-139283958D01*
X102300000Y-140320000D02*
X102300000Y-139640706D01*
X112280000Y-137800000D02*
X111520000Y-137800000D01*
X163680000Y-138500000D02*
X164046000Y-138866000D01*
X179400000Y-140320000D02*
X179400000Y-139640706D01*
X165299000Y-138699000D02*
X165300000Y-138700000D01*
X139191621Y-138699000D02*
X139599000Y-138699000D01*
X137980000Y-137800000D02*
X137220000Y-137800000D01*
X139694000Y-138700000D02*
X140277958Y-139283958D01*
X153700000Y-139640706D02*
X153970706Y-139370000D01*
X191000000Y-138700000D02*
X191094000Y-138700000D01*
X102570706Y-139370000D02*
X102950000Y-139370000D01*
X139600000Y-138700000D02*
X139694000Y-138700000D01*
X153700000Y-140320000D02*
X153700000Y-139640706D01*
X112280000Y-138500000D02*
X112280000Y-137800000D01*
X189380000Y-138500000D02*
X189746000Y-138866000D01*
X139024621Y-138866000D02*
X139191621Y-138699000D01*
X189380000Y-137800000D02*
X188620000Y-137800000D01*
X113900000Y-138700000D02*
X113994000Y-138700000D01*
X153970706Y-139370000D02*
X154350000Y-139370000D01*
X164724621Y-138866000D02*
X164891621Y-138699000D01*
X179400000Y-139640706D02*
X179670706Y-139370000D01*
X137980000Y-138500000D02*
X137980000Y-137800000D01*
X165300000Y-138700000D02*
X165394000Y-138700000D01*
X113899000Y-138699000D02*
X113900000Y-138700000D01*
X190591621Y-138699000D02*
X190999000Y-138699000D01*
X128270706Y-139370000D02*
X128650000Y-139370000D01*
X112280000Y-138500000D02*
X112646000Y-138866000D01*
X179670706Y-139370000D02*
X180050000Y-139370000D01*
X190999000Y-138699000D02*
X191000000Y-138700000D01*
X165394000Y-138700000D02*
X165977958Y-139283958D01*
X128000000Y-140320000D02*
X128000000Y-139640706D01*
X137980000Y-138500000D02*
X138346000Y-138866000D01*
X191094000Y-138700000D02*
X191677958Y-139283958D01*
X102300000Y-139640706D02*
X102570706Y-139370000D01*
X164046000Y-138866000D02*
X164724621Y-138866000D01*
X189746000Y-138866000D02*
X190424621Y-138866000D01*
X153600000Y-140420000D02*
X153700000Y-140320000D01*
X163680000Y-138500000D02*
X163680000Y-137800000D01*
X113324621Y-138866000D02*
X113491621Y-138699000D01*
X190424621Y-138866000D02*
X190591621Y-138699000D01*
X112646000Y-138866000D02*
X113324621Y-138866000D01*
X139599000Y-138699000D02*
X139600000Y-138700000D01*
X163680000Y-137800000D02*
X162920000Y-137800000D01*
X127900000Y-140420000D02*
X128000000Y-140320000D01*
X189380000Y-138500000D02*
X189380000Y-137800000D01*
X128000000Y-139640706D02*
X128270706Y-139370000D01*
X179300000Y-140420000D02*
X179400000Y-140320000D01*
X138346000Y-138866000D02*
X139024621Y-138866000D01*
X113491621Y-138699000D02*
X113899000Y-138699000D01*
X164891621Y-138699000D02*
X165299000Y-138699000D01*
X102200000Y-140420000D02*
X102300000Y-140320000D01*
%TO.N,/BATT_MEASURE*%
X179839572Y-140420000D02*
X179858941Y-140420000D01*
X189616000Y-139921000D02*
X189380000Y-139685000D01*
X163680000Y-139685000D02*
X163680000Y-139300000D01*
X110900000Y-139220000D02*
X111320000Y-138800000D01*
X189380000Y-139685000D02*
X189380000Y-139300000D01*
X128458941Y-140420000D02*
X128650000Y-140228941D01*
X166800000Y-140100000D02*
X165844000Y-140100000D01*
X137980000Y-139685000D02*
X137980000Y-139300000D01*
X137480000Y-138800000D02*
X137980000Y-139300000D01*
X139965000Y-139921000D02*
X138216000Y-139921000D01*
X140144000Y-140100000D02*
X139965000Y-139921000D01*
X154158941Y-140420000D02*
X154350000Y-140228941D01*
X128439572Y-140420000D02*
X128458941Y-140420000D01*
X192500000Y-140100000D02*
X191544000Y-140100000D01*
X114444000Y-140100000D02*
X114265000Y-139921000D01*
X191544000Y-140100000D02*
X191365000Y-139921000D01*
X180050000Y-140228941D02*
X180050000Y-139770000D01*
X154139572Y-140420000D02*
X154158941Y-140420000D01*
X114265000Y-139921000D02*
X112516000Y-139921000D01*
X137265000Y-140400000D02*
X137980000Y-139685000D01*
X111320000Y-138800000D02*
X111780000Y-138800000D01*
X191365000Y-139921000D02*
X189616000Y-139921000D01*
X165665000Y-139921000D02*
X163916000Y-139921000D01*
X188420000Y-138800000D02*
X188880000Y-138800000D01*
X154350000Y-140228941D02*
X154350000Y-139770000D01*
X188000000Y-139220000D02*
X188420000Y-138800000D01*
X137020000Y-138800000D02*
X137480000Y-138800000D01*
X102739572Y-140420000D02*
X102758941Y-140420000D01*
X138216000Y-139921000D02*
X137980000Y-139685000D01*
X111565000Y-140400000D02*
X112280000Y-139685000D01*
X115400000Y-140100000D02*
X114444000Y-140100000D01*
X165844000Y-140100000D02*
X165665000Y-139921000D01*
X188665000Y-140400000D02*
X189380000Y-139685000D01*
X163180000Y-138800000D02*
X163680000Y-139300000D01*
X112516000Y-139921000D02*
X112280000Y-139685000D01*
X163916000Y-139921000D02*
X163680000Y-139685000D01*
X136600000Y-139220000D02*
X137020000Y-138800000D01*
X162965000Y-140400000D02*
X163680000Y-139685000D01*
X141100000Y-140100000D02*
X140144000Y-140100000D01*
X102758941Y-140420000D02*
X102950000Y-140228941D01*
X179858941Y-140420000D02*
X180050000Y-140228941D01*
X102950000Y-140228941D02*
X102950000Y-139770000D01*
X112280000Y-139685000D02*
X112280000Y-139300000D01*
X111780000Y-138800000D02*
X112280000Y-139300000D01*
X188880000Y-138800000D02*
X189380000Y-139300000D01*
X162720000Y-138800000D02*
X163180000Y-138800000D01*
X128650000Y-140228941D02*
X128650000Y-139770000D01*
X162300000Y-139220000D02*
X162720000Y-138800000D01*
%TO.N,/BATT_MEASURE_EN*%
X136234000Y-140009000D02*
X136234000Y-138946000D01*
X161312997Y-140630003D02*
X161934000Y-140009000D01*
X135129998Y-140630003D02*
X135612997Y-140630003D01*
X160829998Y-140630003D02*
X161312997Y-140630003D01*
X184500000Y-140620000D02*
X184500000Y-141184231D01*
X161934000Y-138946000D02*
X162300000Y-138580000D01*
X187634000Y-138946000D02*
X188000000Y-138580000D01*
X136234000Y-138946000D02*
X136600000Y-138580000D01*
X158800000Y-141184231D02*
X158703942Y-141280289D01*
X186529998Y-140630003D02*
X187012997Y-140630003D01*
X107400000Y-141184231D02*
X107303942Y-141280289D01*
X188025000Y-140400000D02*
X187634000Y-140009000D01*
X109912997Y-140630003D02*
X110534000Y-140009000D01*
X187634000Y-140009000D02*
X187634000Y-138946000D01*
X161934000Y-140009000D02*
X161934000Y-138946000D01*
X110925000Y-140400000D02*
X110534000Y-140009000D01*
X107400000Y-140620000D02*
X107400000Y-141184231D01*
X110534000Y-140009000D02*
X110534000Y-138946000D01*
X110534000Y-138946000D02*
X110900000Y-138580000D01*
X136625000Y-140400000D02*
X136234000Y-140009000D01*
X187012997Y-140630003D02*
X187634000Y-140009000D01*
X184500000Y-141184231D02*
X184403942Y-141280289D01*
X135612997Y-140630003D02*
X136234000Y-140009000D01*
X133100000Y-140620000D02*
X133100000Y-141184231D01*
X158800000Y-140620000D02*
X158800000Y-141184231D01*
X162325000Y-140400000D02*
X161934000Y-140009000D01*
X133100000Y-141184231D02*
X133003942Y-141280289D01*
X109429998Y-140630003D02*
X109912997Y-140630003D01*
%TO.N,/VBUS_SENSE*%
X109400000Y-132490000D02*
X110100000Y-132490000D01*
X186500000Y-132490000D02*
X187200000Y-132490000D01*
X109200000Y-132490000D02*
X109400000Y-132490000D01*
X134700000Y-132690000D02*
X134900000Y-132490000D01*
X160800000Y-132490000D02*
X161500000Y-132490000D01*
X109000000Y-133720000D02*
X109000000Y-132690000D01*
X134700000Y-133720000D02*
X134700000Y-132690000D01*
X160400000Y-133720000D02*
X160400000Y-132690000D01*
X160400000Y-132690000D02*
X160600000Y-132490000D01*
X187900000Y-132490000D02*
X187200000Y-132490000D01*
X110800000Y-132490000D02*
X110100000Y-132490000D01*
X136500000Y-132490000D02*
X135800000Y-132490000D01*
X160600000Y-132490000D02*
X160800000Y-132490000D01*
X135100000Y-132490000D02*
X135800000Y-132490000D01*
X109000000Y-132690000D02*
X109200000Y-132490000D01*
X162200000Y-132490000D02*
X161500000Y-132490000D01*
X134900000Y-132490000D02*
X135100000Y-132490000D01*
X186100000Y-132690000D02*
X186300000Y-132490000D01*
X186300000Y-132490000D02*
X186500000Y-132490000D01*
X186100000Y-133720000D02*
X186100000Y-132690000D01*
%TO.N,/PWRHLD*%
X100721000Y-141421000D02*
X100200000Y-140900000D01*
X104200000Y-141050000D02*
X104050000Y-141200000D01*
X124675001Y-137050000D02*
X125337500Y-137050000D01*
X177100000Y-140000000D02*
X176500000Y-140000000D01*
X151600000Y-140900000D02*
X151600000Y-140200000D01*
X125900000Y-140900000D02*
X125900000Y-140200000D01*
X101612542Y-141200000D02*
X101391541Y-141421000D01*
X151400000Y-140000000D02*
X150800000Y-140000000D01*
X104200000Y-140620000D02*
X104200000Y-141050000D01*
X98975001Y-137050000D02*
X99637500Y-137050000D01*
X98700000Y-139300000D02*
X98700000Y-137325001D01*
X152791541Y-141421000D02*
X152121000Y-141421000D01*
X127312542Y-141200000D02*
X127091541Y-141421000D01*
X155600000Y-141050000D02*
X155450000Y-141200000D01*
X99400000Y-140000000D02*
X98700000Y-139300000D01*
X181150000Y-141200000D02*
X178712542Y-141200000D01*
X101391541Y-141421000D02*
X100721000Y-141421000D01*
X129750000Y-141200000D02*
X127312542Y-141200000D01*
X150100000Y-137325001D02*
X150375001Y-137050000D01*
X124400000Y-137325001D02*
X124675001Y-137050000D01*
X129900000Y-140620000D02*
X129900000Y-141050000D01*
X155450000Y-141200000D02*
X153012542Y-141200000D01*
X176500000Y-140000000D02*
X175800000Y-139300000D01*
X175800000Y-137325001D02*
X176075001Y-137050000D01*
X175800000Y-139300000D02*
X175800000Y-137325001D01*
X150100000Y-139300000D02*
X150100000Y-137325001D01*
X178491541Y-141421000D02*
X177821000Y-141421000D01*
X153012542Y-141200000D02*
X152791541Y-141421000D01*
X152121000Y-141421000D02*
X151600000Y-140900000D01*
X127091541Y-141421000D02*
X126421000Y-141421000D01*
X176075001Y-137050000D02*
X176737500Y-137050000D01*
X98700000Y-137325001D02*
X98975001Y-137050000D01*
X155600000Y-140620000D02*
X155600000Y-141050000D01*
X151600000Y-140200000D02*
X151400000Y-140000000D01*
X177300000Y-140200000D02*
X177100000Y-140000000D01*
X126421000Y-141421000D02*
X125900000Y-140900000D01*
X177821000Y-141421000D02*
X177300000Y-140900000D01*
X125700000Y-140000000D02*
X125100000Y-140000000D01*
X150375001Y-137050000D02*
X151037500Y-137050000D01*
X100000000Y-140000000D02*
X99400000Y-140000000D01*
X100200000Y-140200000D02*
X100000000Y-140000000D01*
X181300000Y-140620000D02*
X181300000Y-141050000D01*
X125900000Y-140200000D02*
X125700000Y-140000000D01*
X178712542Y-141200000D02*
X178491541Y-141421000D01*
X181300000Y-141050000D02*
X181150000Y-141200000D01*
X100200000Y-140900000D02*
X100200000Y-140200000D01*
X150800000Y-140000000D02*
X150100000Y-139300000D01*
X124400000Y-139300000D02*
X124400000Y-137325001D01*
X104050000Y-141200000D02*
X101612542Y-141200000D01*
X125100000Y-140000000D02*
X124400000Y-139300000D01*
X177300000Y-140900000D02*
X177300000Y-140200000D01*
X129900000Y-141050000D02*
X129750000Y-141200000D01*
%TO.N,/BUTTON*%
X117620000Y-134320000D02*
X116900000Y-133600000D01*
X140598983Y-138300000D02*
X140766000Y-138132983D01*
X101673405Y-140480000D02*
X102043405Y-140850000D01*
X192600000Y-133600000D02*
X192400000Y-133800000D01*
X166230003Y-138300000D02*
X166298983Y-138300000D01*
X141200000Y-133600000D02*
X141000000Y-133800000D01*
X127743405Y-140850000D02*
X129000000Y-140850000D01*
X100400000Y-138000000D02*
X100503000Y-138103000D01*
X100900000Y-141200000D02*
X101300000Y-141200000D01*
X192400000Y-136380000D02*
X191800000Y-136980000D01*
X168300000Y-133600000D02*
X166900000Y-133600000D01*
X153073405Y-140826595D02*
X153073405Y-140480000D01*
X194720000Y-138100000D02*
X194300000Y-137680000D01*
X115066000Y-138132983D02*
X115066000Y-137346000D01*
X177603000Y-140803000D02*
X178000000Y-141200000D01*
X129230000Y-140620000D02*
X129500000Y-140620000D01*
X143320000Y-134320000D02*
X142600000Y-133600000D01*
X142600000Y-133600000D02*
X141200000Y-133600000D01*
X117200000Y-137680000D02*
X117200000Y-134920000D01*
X153073405Y-140480000D02*
X153443405Y-140850000D01*
X115500000Y-133600000D02*
X115300000Y-133800000D01*
X194000000Y-133600000D02*
X192600000Y-133600000D01*
X179143405Y-140850000D02*
X180400000Y-140850000D01*
X141000000Y-133800000D02*
X141000000Y-136380000D01*
X142900000Y-134920000D02*
X143320000Y-134500000D01*
X142900000Y-137680000D02*
X142900000Y-134920000D01*
X143320000Y-138100000D02*
X142900000Y-137680000D01*
X152700000Y-141200000D02*
X153073405Y-140826595D01*
X166466000Y-138132983D02*
X166466000Y-137346000D01*
X126100000Y-138000000D02*
X126203000Y-138103000D01*
X141000000Y-136380000D02*
X140400000Y-136980000D01*
X177603000Y-138103000D02*
X177603000Y-140803000D01*
X127373405Y-140480000D02*
X127743405Y-140850000D01*
X192166000Y-137346000D02*
X191800000Y-136980000D01*
X100503000Y-138103000D02*
X100503000Y-140803000D01*
X114830003Y-138300000D02*
X114898983Y-138300000D01*
X168600000Y-137680000D02*
X168600000Y-134920000D01*
X127373405Y-140826595D02*
X127373405Y-140480000D01*
X166700000Y-136380000D02*
X166100000Y-136980000D01*
X101300000Y-141200000D02*
X101673405Y-140826595D01*
X166466000Y-137346000D02*
X166100000Y-136980000D01*
X176737500Y-138000000D02*
X177500000Y-138000000D01*
X151037500Y-138000000D02*
X151800000Y-138000000D01*
X116900000Y-133600000D02*
X115500000Y-133600000D01*
X152300000Y-141200000D02*
X152700000Y-141200000D01*
X178000000Y-141200000D02*
X178400000Y-141200000D01*
X194300000Y-134920000D02*
X194720000Y-134500000D01*
X103300000Y-140850000D02*
X103530000Y-140620000D01*
X154930000Y-140620000D02*
X155200000Y-140620000D01*
X103530000Y-140620000D02*
X103800000Y-140620000D01*
X126600000Y-141200000D02*
X127000000Y-141200000D01*
X178773405Y-140826595D02*
X178773405Y-140480000D01*
X129000000Y-140850000D02*
X129230000Y-140620000D01*
X191930003Y-138300000D02*
X191998983Y-138300000D01*
X126203000Y-140803000D02*
X126600000Y-141200000D01*
X169020000Y-134500000D02*
X169020000Y-134320000D01*
X194720000Y-134320000D02*
X194000000Y-133600000D01*
X169020000Y-134320000D02*
X168300000Y-133600000D01*
X153443405Y-140850000D02*
X154700000Y-140850000D01*
X140766000Y-138132983D02*
X140766000Y-137346000D01*
X125337500Y-138000000D02*
X126100000Y-138000000D01*
X140530003Y-138300000D02*
X140598983Y-138300000D01*
X151903000Y-138103000D02*
X151903000Y-140803000D01*
X166700000Y-133800000D02*
X166700000Y-136380000D01*
X127000000Y-141200000D02*
X127373405Y-140826595D01*
X117620000Y-134500000D02*
X117620000Y-134320000D01*
X192166000Y-138132983D02*
X192166000Y-137346000D01*
X194720000Y-134500000D02*
X194720000Y-134320000D01*
X115300000Y-136380000D02*
X114700000Y-136980000D01*
X194300000Y-137680000D02*
X194300000Y-134920000D01*
X100503000Y-140803000D02*
X100900000Y-141200000D01*
X143320000Y-134500000D02*
X143320000Y-134320000D01*
X192400000Y-133800000D02*
X192400000Y-136380000D01*
X166900000Y-133600000D02*
X166700000Y-133800000D01*
X117620000Y-138100000D02*
X117200000Y-137680000D01*
X178773405Y-140480000D02*
X179143405Y-140850000D01*
X140766000Y-137346000D02*
X140400000Y-136980000D01*
X99637500Y-138000000D02*
X100400000Y-138000000D01*
X166298983Y-138300000D02*
X166466000Y-138132983D01*
X117200000Y-134920000D02*
X117620000Y-134500000D01*
X191998983Y-138300000D02*
X192166000Y-138132983D01*
X115066000Y-137346000D02*
X114700000Y-136980000D01*
X180400000Y-140850000D02*
X180630000Y-140620000D01*
X168600000Y-134920000D02*
X169020000Y-134500000D01*
X180630000Y-140620000D02*
X180900000Y-140620000D01*
X177500000Y-138000000D02*
X177603000Y-138103000D01*
X169020000Y-138100000D02*
X168600000Y-137680000D01*
X102043405Y-140850000D02*
X103300000Y-140850000D01*
X115300000Y-133800000D02*
X115300000Y-136380000D01*
X154700000Y-140850000D02*
X154930000Y-140620000D01*
X151800000Y-138000000D02*
X151903000Y-138103000D01*
X101673405Y-140826595D02*
X101673405Y-140480000D01*
X178400000Y-141200000D02*
X178773405Y-140826595D01*
X126203000Y-138103000D02*
X126203000Y-140803000D01*
X151903000Y-140803000D02*
X152300000Y-141200000D01*
X114898983Y-138300000D02*
X115066000Y-138132983D01*
%TO.N,VBUS*%
X190879000Y-134279000D02*
X190900000Y-134300000D01*
X125337500Y-138950000D02*
X125337500Y-139517468D01*
X188625000Y-132189609D02*
X188274043Y-131838652D01*
X162925000Y-132189609D02*
X162574043Y-131838652D01*
X162348050Y-131838652D02*
X162336702Y-131850000D01*
X151037500Y-138950000D02*
X151037500Y-139517468D01*
X165179000Y-134279000D02*
X165200000Y-134300000D01*
X176737500Y-139517468D02*
X176808013Y-139587981D01*
X162574043Y-131838652D02*
X162348050Y-131838652D01*
X111174043Y-131838652D02*
X110948050Y-131838652D01*
X188048050Y-131838652D02*
X188036702Y-131850000D01*
X111525000Y-132189609D02*
X111174043Y-131838652D01*
X136636702Y-131850000D02*
X136500000Y-131850000D01*
X113779000Y-134279000D02*
X113800000Y-134300000D01*
X99637500Y-139517468D02*
X99708013Y-139587981D01*
X99637500Y-138950000D02*
X99637500Y-139517468D01*
X162336702Y-131850000D02*
X162200000Y-131850000D01*
X136648050Y-131838652D02*
X136636702Y-131850000D01*
X110936702Y-131850000D02*
X110800000Y-131850000D01*
X188036702Y-131850000D02*
X187900000Y-131850000D01*
X176737500Y-138950000D02*
X176737500Y-139517468D01*
X136874043Y-131838652D02*
X136648050Y-131838652D01*
X137225000Y-132189609D02*
X136874043Y-131838652D01*
X151037500Y-139517468D02*
X151108013Y-139587981D01*
X125337500Y-139517468D02*
X125408013Y-139587981D01*
X188274043Y-131838652D02*
X188048050Y-131838652D01*
X110948050Y-131838652D02*
X110936702Y-131850000D01*
X139479000Y-134279000D02*
X139500000Y-134300000D01*
%TO.N,/USBDM*%
X110829113Y-141599839D02*
X110829113Y-141198311D01*
X187362952Y-142166000D02*
X187929113Y-141599839D01*
X134586000Y-142166000D02*
X135962952Y-142166000D01*
X136529113Y-141599839D02*
X136529113Y-141198311D01*
X135962952Y-142166000D02*
X136529113Y-141599839D01*
X110262952Y-142166000D02*
X110829113Y-141599839D01*
X185620000Y-141800000D02*
X185986000Y-142166000D01*
X108886000Y-142166000D02*
X110262952Y-142166000D01*
X160286000Y-142166000D02*
X161662952Y-142166000D01*
X185986000Y-142166000D02*
X187362952Y-142166000D01*
X108520000Y-141800000D02*
X108886000Y-142166000D01*
X161662952Y-142166000D02*
X162229113Y-141599839D01*
X187929113Y-141599839D02*
X187929113Y-141198311D01*
X162229113Y-141599839D02*
X162229113Y-141198311D01*
X159920000Y-141800000D02*
X160286000Y-142166000D01*
X134220000Y-141800000D02*
X134586000Y-142166000D01*
%TO.N,Net-(J1-CC2)*%
X139538942Y-137781058D02*
X139700000Y-137620000D01*
X164884457Y-137781058D02*
X165238942Y-137781058D01*
X113838942Y-137781058D02*
X114000000Y-137620000D01*
X113484457Y-137781058D02*
X113838942Y-137781058D01*
X190584457Y-137781058D02*
X190938942Y-137781058D01*
X190938942Y-137781058D02*
X191100000Y-137620000D01*
X165238942Y-137781058D02*
X165400000Y-137620000D01*
X139184457Y-137781058D02*
X139538942Y-137781058D01*
%TO.N,Net-(J1-CC1)*%
X189200000Y-133600000D02*
X188400000Y-133600000D01*
X112100000Y-133600000D02*
X111300000Y-133600000D01*
X137800000Y-133600000D02*
X137000000Y-133600000D01*
X163500000Y-133600000D02*
X162700000Y-133600000D01*
%TO.N,/USBDP*%
X135720000Y-141380000D02*
X135720000Y-141800000D01*
X187120000Y-141380000D02*
X187120000Y-141800000D01*
X135871000Y-141229000D02*
X135720000Y-141380000D01*
X187271000Y-141229000D02*
X187120000Y-141380000D01*
X110020000Y-141380000D02*
X110020000Y-141800000D01*
X110171000Y-141229000D02*
X110020000Y-141380000D01*
X110300000Y-141229000D02*
X110171000Y-141229000D01*
X161420000Y-141380000D02*
X161420000Y-141800000D01*
X187400000Y-141229000D02*
X187271000Y-141229000D01*
X161700000Y-141229000D02*
X161571000Y-141229000D01*
X161571000Y-141229000D02*
X161420000Y-141380000D01*
X136000000Y-141229000D02*
X135871000Y-141229000D01*
D48*
%TO.N,/LED_DAT*%
X166252513Y-121957538D02*
X165744975Y-121450000D01*
D47*
X188800000Y-141900000D02*
X188500000Y-141600000D01*
X160213000Y-141213000D02*
X160000000Y-141000000D01*
D48*
X178137993Y-115762019D02*
X178400000Y-115500012D01*
X179100000Y-120200012D02*
X179100000Y-119850012D01*
D47*
X125786856Y-113687361D02*
X125786856Y-113642450D01*
D48*
X108744975Y-121450000D02*
X107255025Y-121450000D01*
X146744975Y-114150000D02*
X147194975Y-113700000D01*
X122099996Y-119849988D02*
X120724996Y-118474988D01*
D47*
X147213140Y-121957538D02*
X147252513Y-121957538D01*
D48*
X182805538Y-113700525D02*
X183255025Y-114150012D01*
X185194975Y-113700012D02*
X185200000Y-113700012D01*
X109252513Y-121957538D02*
X108744975Y-121450000D01*
D47*
X108600000Y-141000000D02*
X108600000Y-140620000D01*
D48*
X147252513Y-121957538D02*
X146744975Y-121450000D01*
X144800000Y-113700513D02*
X144805538Y-113700513D01*
X165744975Y-121450000D02*
X164255025Y-121450000D01*
X107255025Y-121450000D02*
X106805025Y-121900000D01*
X127744971Y-121449988D02*
X126255021Y-121449988D01*
D47*
X108813000Y-141213000D02*
X108600000Y-141000000D01*
X163786860Y-113642462D02*
X163811255Y-113618067D01*
D48*
X163800000Y-113700513D02*
X163805538Y-113700513D01*
X120724996Y-116542150D02*
X121137989Y-116129157D01*
D47*
X188300000Y-140800000D02*
X187297255Y-140800000D01*
D48*
X147194975Y-113700000D02*
X147200000Y-113700000D01*
X145255025Y-114150000D02*
X146744975Y-114150000D01*
D47*
X136900000Y-140800000D02*
X135897255Y-140800000D01*
X185913000Y-141213000D02*
X185700000Y-141000000D01*
X111200000Y-140800000D02*
X110197255Y-140800000D01*
X128249996Y-121949475D02*
X128249996Y-121955013D01*
X185250000Y-121949499D02*
X185250000Y-121955037D01*
D48*
X107255025Y-114150000D02*
X108744975Y-114150000D01*
X183255025Y-114150012D02*
X184744975Y-114150012D01*
X144805025Y-121900000D02*
X144800000Y-121900000D01*
X108744975Y-114150000D02*
X109194975Y-113700000D01*
X141100000Y-119850000D02*
X139725000Y-118475000D01*
X183255025Y-121450012D02*
X182805025Y-121900012D01*
X184744975Y-121450012D02*
X183255025Y-121450012D01*
D47*
X125799996Y-113700501D02*
X125786856Y-113687361D01*
D48*
X128194971Y-113699988D02*
X128199996Y-113699988D01*
X163805025Y-121900000D02*
X163800000Y-121900000D01*
X160800000Y-122300000D02*
X160800000Y-120900000D01*
D47*
X182800000Y-113700525D02*
X182786860Y-113687385D01*
D48*
X158725000Y-116542162D02*
X159137993Y-116129169D01*
D47*
X109188745Y-121981933D02*
X109213140Y-121957538D01*
D48*
X178137993Y-116129181D02*
X178137993Y-115762019D01*
X179800000Y-122300012D02*
X179800000Y-120900012D01*
D47*
X111700000Y-141900000D02*
X111400000Y-141600000D01*
D48*
X145255025Y-121450000D02*
X144805025Y-121900000D01*
D47*
X163100000Y-141900000D02*
X162800000Y-141600000D01*
X128188741Y-121981921D02*
X128213136Y-121957526D01*
D48*
X101725000Y-116542162D02*
X102137993Y-116129169D01*
D47*
X166250000Y-121949487D02*
X166250000Y-121955025D01*
X125786856Y-113642450D02*
X125811251Y-113618055D01*
X147188745Y-121981933D02*
X147213140Y-121957538D01*
D48*
X120724996Y-118474988D02*
X120724996Y-116542150D01*
X128252509Y-121957526D02*
X127744971Y-121449988D01*
D47*
X109250000Y-121949487D02*
X109250000Y-121955025D01*
D48*
X106805538Y-113700513D02*
X107255025Y-114150000D01*
X164255025Y-121450000D02*
X163805025Y-121900000D01*
D47*
X161184255Y-141213000D02*
X160213000Y-141213000D01*
D48*
X160100000Y-120200000D02*
X160100000Y-119850000D01*
X158725000Y-118475000D02*
X158725000Y-116542162D01*
X106805025Y-121900000D02*
X106800000Y-121900000D01*
D47*
X134513000Y-141213000D02*
X134300000Y-141000000D01*
X113500000Y-141900000D02*
X111700000Y-141900000D01*
X106786860Y-113642462D02*
X106811255Y-113618067D01*
X110197255Y-140800000D02*
X109784255Y-141213000D01*
D48*
X126255021Y-121449988D02*
X125805021Y-121899988D01*
X141100000Y-120200000D02*
X141100000Y-119850000D01*
X103100000Y-119850000D02*
X101725000Y-118475000D01*
D47*
X106786860Y-113687373D02*
X106786860Y-113642462D01*
D48*
X125805021Y-121899988D02*
X125799996Y-121899988D01*
X160800000Y-120900000D02*
X160100000Y-120200000D01*
D47*
X187297255Y-140800000D02*
X186884255Y-141213000D01*
X160000000Y-141000000D02*
X160000000Y-140620000D01*
X144786860Y-113687373D02*
X144786860Y-113642462D01*
D48*
X139725000Y-118475000D02*
X139725000Y-116542162D01*
X146744975Y-121450000D02*
X145255025Y-121450000D01*
D47*
X186884255Y-141213000D02*
X185913000Y-141213000D01*
D48*
X127744971Y-114149988D02*
X128194971Y-113699988D01*
D47*
X164900000Y-141900000D02*
X163100000Y-141900000D01*
D48*
X102137993Y-116129169D02*
X102137993Y-115762007D01*
X140137993Y-115762007D02*
X140400000Y-115500000D01*
D47*
X185213140Y-121957550D02*
X185252513Y-121957550D01*
X166188745Y-121981933D02*
X166213140Y-121957538D01*
D48*
X122099996Y-120199988D02*
X122099996Y-119849988D01*
X160100000Y-119850000D02*
X158725000Y-118475000D01*
D47*
X135897255Y-140800000D02*
X135484255Y-141213000D01*
D48*
X102137993Y-115762007D02*
X102400000Y-115500000D01*
D47*
X111400000Y-141000000D02*
X111200000Y-140800000D01*
X147250000Y-121955025D02*
X147252513Y-121957538D01*
D48*
X141800000Y-122300000D02*
X141800000Y-120900000D01*
X103100000Y-120200000D02*
X103100000Y-119850000D01*
D47*
X109784255Y-141213000D02*
X108813000Y-141213000D01*
D48*
X177725000Y-118475012D02*
X177725000Y-116542174D01*
D47*
X135484255Y-141213000D02*
X134513000Y-141213000D01*
X111400000Y-141600000D02*
X111400000Y-141000000D01*
X162800000Y-141600000D02*
X162800000Y-141000000D01*
X163800000Y-113700513D02*
X163786860Y-113687373D01*
D48*
X122799996Y-122299988D02*
X122799996Y-120899988D01*
X179100000Y-119850012D02*
X177725000Y-118475012D01*
D47*
X188500000Y-141000000D02*
X188300000Y-140800000D01*
D48*
X103800000Y-120900000D02*
X103100000Y-120200000D01*
D47*
X190600000Y-141900000D02*
X188800000Y-141900000D01*
D48*
X185252513Y-121957550D02*
X184744975Y-121450012D01*
D47*
X185250000Y-121955037D02*
X185252513Y-121957550D01*
X137100000Y-141000000D02*
X136900000Y-140800000D01*
X144800000Y-113700513D02*
X144786860Y-113687373D01*
X182786860Y-113642474D02*
X182811255Y-113618079D01*
X162800000Y-141000000D02*
X162600000Y-140800000D01*
D48*
X122799996Y-120899988D02*
X122099996Y-120199988D01*
D47*
X185188745Y-121981945D02*
X185213140Y-121957550D01*
D48*
X140137993Y-116129169D02*
X140137993Y-115762007D01*
X101725000Y-118475000D02*
X101725000Y-116542162D01*
X109194975Y-113700000D02*
X109200000Y-113700000D01*
D47*
X185700000Y-141000000D02*
X185700000Y-140620000D01*
D48*
X159137993Y-116129169D02*
X159137993Y-115762007D01*
D47*
X128213136Y-121957526D02*
X128252509Y-121957526D01*
D48*
X182800000Y-113700525D02*
X182805538Y-113700525D01*
X126255021Y-114149988D02*
X127744971Y-114149988D01*
D47*
X182786860Y-113687385D02*
X182786860Y-113642474D01*
X163786860Y-113687373D02*
X163786860Y-113642462D01*
X109213140Y-121957538D02*
X109252513Y-121957538D01*
X166250000Y-121955025D02*
X166252513Y-121957538D01*
D48*
X164255025Y-114150000D02*
X165744975Y-114150000D01*
D47*
X147250000Y-121949487D02*
X147250000Y-121955025D01*
D48*
X179800000Y-120900012D02*
X179100000Y-120200012D01*
D47*
X139200000Y-141900000D02*
X137400000Y-141900000D01*
X162600000Y-140800000D02*
X161597255Y-140800000D01*
D48*
X141800000Y-120900000D02*
X141100000Y-120200000D01*
D47*
X188500000Y-141600000D02*
X188500000Y-141000000D01*
D48*
X163805538Y-113700513D02*
X164255025Y-114150000D01*
X165744975Y-114150000D02*
X166194975Y-113700000D01*
X184744975Y-114150012D02*
X185194975Y-113700012D01*
D47*
X161597255Y-140800000D02*
X161184255Y-141213000D01*
D48*
X144805538Y-113700513D02*
X145255025Y-114150000D01*
X103800000Y-122300000D02*
X103800000Y-120900000D01*
X159137993Y-115762007D02*
X159400000Y-115500000D01*
D47*
X137400000Y-141900000D02*
X137100000Y-141600000D01*
D48*
X106800000Y-113700513D02*
X106805538Y-113700513D01*
X125805534Y-113700501D02*
X126255021Y-114149988D01*
D47*
X128249996Y-121955013D02*
X128252509Y-121957526D01*
D48*
X166194975Y-113700000D02*
X166200000Y-113700000D01*
X182805025Y-121900012D02*
X182800000Y-121900012D01*
X121137989Y-115761995D02*
X121399996Y-115499988D01*
D47*
X144786860Y-113642462D02*
X144811255Y-113618067D01*
X134300000Y-141000000D02*
X134300000Y-140620000D01*
D48*
X125799996Y-113700501D02*
X125805534Y-113700501D01*
D47*
X106800000Y-113700513D02*
X106786860Y-113687373D01*
D48*
X139725000Y-116542162D02*
X140137993Y-116129169D01*
D47*
X137100000Y-141600000D02*
X137100000Y-141000000D01*
D48*
X177725000Y-116542174D02*
X178137993Y-116129181D01*
D47*
X166213140Y-121957538D02*
X166252513Y-121957538D01*
X109250000Y-121955025D02*
X109252513Y-121957538D01*
D48*
X121137989Y-116129157D02*
X121137989Y-115761995D01*
%TO.N,/LED_CLK*%
X188200000Y-120900012D02*
X188200000Y-122300012D01*
D47*
X137679000Y-131704134D02*
X138683134Y-130700000D01*
X111979000Y-131704134D02*
X111979000Y-132621000D01*
X137300000Y-133000000D02*
X135534128Y-133000000D01*
X126242458Y-113147476D02*
X126242458Y-113142446D01*
D48*
X188900000Y-120200012D02*
X188200000Y-120900012D01*
D47*
X127757534Y-113142450D02*
X127850557Y-113049427D01*
D48*
X114250000Y-118550000D02*
X112900000Y-119900000D01*
D47*
X127757534Y-113147476D02*
X127757534Y-113142450D01*
X111979000Y-132621000D02*
X111600000Y-133000000D01*
X164200000Y-122500000D02*
X164242462Y-122457538D01*
X126242458Y-122457526D02*
X126242458Y-122452500D01*
X126242458Y-113147476D02*
X126242458Y-113100569D01*
D48*
X183149451Y-113049459D02*
X183750004Y-113650012D01*
D47*
X138683134Y-130700000D02*
X139200000Y-130700000D01*
X164242462Y-113147488D02*
X164242462Y-113142458D01*
D48*
X151600000Y-115500000D02*
X151862007Y-115762007D01*
D47*
X107242462Y-113100581D02*
X107261207Y-113081836D01*
D48*
X112900000Y-119900000D02*
X112900000Y-120200000D01*
D47*
X161234128Y-133000000D02*
X161024000Y-133210128D01*
D48*
X170862007Y-115762007D02*
X170862007Y-116133993D01*
X164750004Y-113650000D02*
X165255026Y-113650000D01*
X188900000Y-119900012D02*
X188900000Y-120200012D01*
X171250000Y-118550000D02*
X169900000Y-119900000D01*
D47*
X107242462Y-113147488D02*
X107242462Y-113142458D01*
X164242462Y-113100581D02*
X164261207Y-113081836D01*
D48*
X113862007Y-115762007D02*
X113862007Y-116133993D01*
D47*
X165757538Y-122499419D02*
X165738793Y-122518164D01*
D48*
X190250000Y-116521998D02*
X190250000Y-118550012D01*
D47*
X146757538Y-113142462D02*
X146850561Y-113049439D01*
X145242462Y-113142458D02*
X145149451Y-113049447D01*
D48*
X132599996Y-115499988D02*
X132862003Y-115761995D01*
X165752508Y-122452512D02*
X165249996Y-121950000D01*
X169200000Y-120900000D02*
X169200000Y-122300000D01*
D47*
X184757538Y-122452525D02*
X184757538Y-122499431D01*
D48*
X132862003Y-116133981D02*
X133249996Y-116521974D01*
X189600000Y-115500012D02*
X189862007Y-115762019D01*
D47*
X184757538Y-113142474D02*
X184850561Y-113049451D01*
X127757535Y-122452500D02*
X127757534Y-122452501D01*
X186724000Y-134344000D02*
X186950000Y-134570000D01*
D48*
X113600000Y-115500000D02*
X113862007Y-115762007D01*
D47*
X183242462Y-113147500D02*
X183242462Y-113100593D01*
X126242458Y-113142446D02*
X126149447Y-113049435D01*
X137679000Y-132621000D02*
X137300000Y-133000000D01*
D48*
X127249992Y-121949988D02*
X126744970Y-121949988D01*
X146752508Y-122452512D02*
X146249996Y-121950000D01*
D47*
X164242462Y-113142458D02*
X164149451Y-113049447D01*
X112983134Y-130700000D02*
X113500000Y-130700000D01*
X145242462Y-113147488D02*
X145242462Y-113100581D01*
X108757538Y-122499419D02*
X108738793Y-122518164D01*
D48*
X151862007Y-116133993D02*
X152250000Y-116521986D01*
X107744974Y-121950000D02*
X107242462Y-122452512D01*
D47*
X146757538Y-122452513D02*
X146757538Y-122499419D01*
X165757539Y-122452512D02*
X165757538Y-122452513D01*
D48*
X184255026Y-113650012D02*
X184757538Y-113147500D01*
D47*
X190083134Y-130700000D02*
X190600000Y-130700000D01*
D48*
X146255026Y-113650000D02*
X146757538Y-113147488D01*
X164149451Y-113049447D02*
X164750004Y-113650000D01*
D47*
X186724000Y-133210128D02*
X186724000Y-134344000D01*
X183242462Y-113100593D02*
X183261207Y-113081848D01*
X161024000Y-134344000D02*
X161250000Y-134570000D01*
X108757538Y-122452513D02*
X108757538Y-122499419D01*
X108757538Y-113147488D02*
X108757538Y-113142462D01*
D48*
X145744974Y-121950000D02*
X145242462Y-122452512D01*
D47*
X145200000Y-122500000D02*
X145242462Y-122457538D01*
D48*
X146249996Y-121950000D02*
X145744974Y-121950000D01*
X169900000Y-119900000D02*
X169900000Y-120200000D01*
X165249996Y-121950000D02*
X164744974Y-121950000D01*
D47*
X184757538Y-113147500D02*
X184757538Y-113142474D01*
X135324000Y-133210128D02*
X135324000Y-134344000D01*
X107242462Y-113147488D02*
X107242462Y-113100581D01*
X146757538Y-113147488D02*
X146757538Y-113142462D01*
D48*
X165757539Y-122452512D02*
X165752508Y-122452512D01*
X126750000Y-113649988D02*
X127255022Y-113649988D01*
X189862007Y-115762019D02*
X189862007Y-116134005D01*
D47*
X126242458Y-113100569D02*
X126261203Y-113081824D01*
D48*
X108752508Y-122452512D02*
X108249996Y-121950000D01*
D47*
X109834128Y-133000000D02*
X109624000Y-133210128D01*
X188700000Y-133000000D02*
X186934128Y-133000000D01*
D48*
X183744974Y-121950012D02*
X183242462Y-122452524D01*
D47*
X108757538Y-113142462D02*
X108850561Y-113049439D01*
D48*
X133249996Y-118549988D02*
X131899996Y-119899988D01*
D47*
X127757534Y-122452501D02*
X127757534Y-122499407D01*
D48*
X126744970Y-121949988D02*
X126242458Y-122452500D01*
X107149451Y-113049447D02*
X107750004Y-113650000D01*
D47*
X135324000Y-134344000D02*
X135550000Y-134570000D01*
X183200000Y-122500012D02*
X183242462Y-122457550D01*
D48*
X126149447Y-113049435D02*
X126750000Y-113649988D01*
X108757539Y-122452512D02*
X108752508Y-122452512D01*
X190250000Y-118550012D02*
X188900000Y-119900012D01*
D47*
X165757538Y-113142462D02*
X165850561Y-113049439D01*
X164242462Y-122457538D02*
X164242462Y-122452512D01*
X163379000Y-131704134D02*
X163379000Y-132621000D01*
D48*
X131199996Y-120899988D02*
X131199996Y-122299988D01*
D47*
X189079000Y-132621000D02*
X188700000Y-133000000D01*
D48*
X164744974Y-121950000D02*
X164242462Y-122452512D01*
X146757539Y-122452512D02*
X146752508Y-122452512D01*
D47*
X183242462Y-113147500D02*
X183242462Y-113142470D01*
D48*
X170600000Y-115500000D02*
X170862007Y-115762007D01*
X171250000Y-116521986D02*
X171250000Y-118550000D01*
D47*
X111979000Y-131704134D02*
X112983134Y-130700000D01*
D48*
X151862007Y-115762007D02*
X151862007Y-116133993D01*
X165255026Y-113650000D02*
X165757538Y-113147488D01*
D47*
X108757539Y-122452512D02*
X108757538Y-122452513D01*
D48*
X170862007Y-116133993D02*
X171250000Y-116521986D01*
X113862007Y-116133993D02*
X114250000Y-116521986D01*
D47*
X183242462Y-122457550D02*
X183242462Y-122452524D01*
D48*
X131899996Y-119899988D02*
X131899996Y-120199988D01*
D47*
X109624000Y-134344000D02*
X109850000Y-134570000D01*
D48*
X152250000Y-118550000D02*
X150900000Y-119900000D01*
X127757535Y-122452500D02*
X127752504Y-122452500D01*
X112200000Y-120900000D02*
X112200000Y-122300000D01*
X145750004Y-113650000D02*
X146255026Y-113650000D01*
D47*
X107200000Y-122500000D02*
X107242462Y-122457538D01*
X145242462Y-122457538D02*
X145242462Y-122452512D01*
X126199996Y-122499988D02*
X126242458Y-122457526D01*
D48*
X189862007Y-116134005D02*
X190250000Y-116521998D01*
X184757539Y-122452524D02*
X184752508Y-122452524D01*
D47*
X135534128Y-133000000D02*
X135324000Y-133210128D01*
X163000000Y-133000000D02*
X161234128Y-133000000D01*
X127757534Y-122499407D02*
X127738789Y-122518152D01*
D48*
X184249996Y-121950012D02*
X183744974Y-121950012D01*
D47*
X184757539Y-122452524D02*
X184757538Y-122452525D01*
X111600000Y-133000000D02*
X109834128Y-133000000D01*
X145242462Y-113147488D02*
X145242462Y-113142458D01*
X183242462Y-113142470D02*
X183149451Y-113049459D01*
D48*
X114250000Y-116521986D02*
X114250000Y-118550000D01*
X131899996Y-120199988D02*
X131199996Y-120899988D01*
X112900000Y-120200000D02*
X112200000Y-120900000D01*
D47*
X161024000Y-133210128D02*
X161024000Y-134344000D01*
D48*
X132862003Y-115761995D02*
X132862003Y-116133981D01*
D47*
X184757538Y-122499431D02*
X184738793Y-122518176D01*
D48*
X107750004Y-113650000D02*
X108255026Y-113650000D01*
D47*
X189079000Y-131704134D02*
X190083134Y-130700000D01*
D48*
X150200000Y-120900000D02*
X150200000Y-122300000D01*
D47*
X164383134Y-130700000D02*
X164900000Y-130700000D01*
D48*
X183750004Y-113650012D02*
X184255026Y-113650012D01*
D47*
X163379000Y-132621000D02*
X163000000Y-133000000D01*
D48*
X152250000Y-116521986D02*
X152250000Y-118550000D01*
X184752508Y-122452524D02*
X184249996Y-121950012D01*
X150900000Y-119900000D02*
X150900000Y-120200000D01*
D47*
X107242462Y-113142458D02*
X107149451Y-113049447D01*
D48*
X127752504Y-122452500D02*
X127249992Y-121949988D01*
D47*
X145242462Y-113100581D02*
X145261207Y-113081836D01*
X146757538Y-122499419D02*
X146738793Y-122518164D01*
D48*
X127255022Y-113649988D02*
X127757534Y-113147476D01*
D47*
X163379000Y-131704134D02*
X164383134Y-130700000D01*
X109624000Y-133210128D02*
X109624000Y-134344000D01*
X165757538Y-122452513D02*
X165757538Y-122499419D01*
X107242462Y-122457538D02*
X107242462Y-122452512D01*
D48*
X108249996Y-121950000D02*
X107744974Y-121950000D01*
X150900000Y-120200000D02*
X150200000Y-120900000D01*
D47*
X137679000Y-131704134D02*
X137679000Y-132621000D01*
D48*
X169900000Y-120200000D02*
X169200000Y-120900000D01*
D47*
X146757539Y-122452512D02*
X146757538Y-122452513D01*
X186934128Y-133000000D02*
X186724000Y-133210128D01*
D48*
X108255026Y-113650000D02*
X108757538Y-113147488D01*
D47*
X164242462Y-113147488D02*
X164242462Y-113100581D01*
X165757538Y-113147488D02*
X165757538Y-113142462D01*
D48*
X133249996Y-116521974D02*
X133249996Y-118549988D01*
X145149451Y-113049447D02*
X145750004Y-113650000D01*
D47*
X189079000Y-131704134D02*
X189079000Y-132621000D01*
%TO.N,Net-(U1-XTAL_P)*%
X104600000Y-133100000D02*
X104400000Y-132900000D01*
X181700000Y-133100000D02*
X181500000Y-132900000D01*
X156000000Y-133720000D02*
X156000000Y-133100000D01*
X181500000Y-132900000D02*
X181500000Y-132390000D01*
X130100000Y-132900000D02*
X130100000Y-132390000D01*
X104600000Y-133720000D02*
X104600000Y-133100000D01*
X156000000Y-133100000D02*
X155800000Y-132900000D01*
X155800000Y-132900000D02*
X155800000Y-132390000D01*
X181700000Y-133720000D02*
X181700000Y-133100000D01*
X130300000Y-133100000D02*
X130100000Y-132900000D01*
X130300000Y-133720000D02*
X130300000Y-133100000D01*
X104400000Y-132900000D02*
X104400000Y-132390000D01*
%TO.N,Net-(U1-GPIO20{slash}USB_D+)*%
X134234000Y-141434000D02*
X134714000Y-141434000D01*
X108200000Y-140620000D02*
X108200000Y-141100000D01*
X159600000Y-140620000D02*
X159600000Y-141100000D01*
X186114000Y-141434000D02*
X186480000Y-141800000D01*
X159934000Y-141434000D02*
X160414000Y-141434000D01*
X108200000Y-141100000D02*
X108534000Y-141434000D01*
X133900000Y-140620000D02*
X133900000Y-141100000D01*
X109014000Y-141434000D02*
X109380000Y-141800000D01*
X185300000Y-140620000D02*
X185300000Y-141100000D01*
X185634000Y-141434000D02*
X186114000Y-141434000D01*
X160414000Y-141434000D02*
X160780000Y-141800000D01*
X134714000Y-141434000D02*
X135080000Y-141800000D01*
X108534000Y-141434000D02*
X109014000Y-141434000D01*
X185300000Y-141100000D02*
X185634000Y-141434000D01*
X159600000Y-141100000D02*
X159934000Y-141434000D01*
X133900000Y-141100000D02*
X134234000Y-141434000D01*
%TO.N,Net-(U1-GPIO19{slash}USB_D-)*%
X159200000Y-140620000D02*
X159200000Y-141720000D01*
X133500000Y-141720000D02*
X133580000Y-141800000D01*
X184900000Y-141720000D02*
X184980000Y-141800000D01*
X133500000Y-140620000D02*
X133500000Y-141720000D01*
X107800000Y-140620000D02*
X107800000Y-141720000D01*
X184900000Y-140620000D02*
X184900000Y-141720000D01*
X107800000Y-141720000D02*
X107880000Y-141800000D01*
X159200000Y-141720000D02*
X159280000Y-141800000D01*
%TO.N,Net-(U1-GPIO0)*%
X103480000Y-136170000D02*
X103650000Y-136000000D01*
X103650000Y-134650000D02*
X103650000Y-134700000D01*
X103650000Y-136000000D02*
X103650000Y-134650000D01*
X180750000Y-134470000D02*
X180180000Y-133900000D01*
X180750000Y-134650000D02*
X180750000Y-134700000D01*
X129350000Y-134470000D02*
X128780000Y-133900000D01*
X103650000Y-134470000D02*
X103080000Y-133900000D01*
X129350000Y-134700000D02*
X129350000Y-134470000D01*
X129350000Y-136000000D02*
X129350000Y-134650000D01*
X155050000Y-134650000D02*
X155050000Y-134700000D01*
X128650000Y-136170000D02*
X129180000Y-136170000D01*
X180050000Y-136170000D02*
X180580000Y-136170000D01*
X129350000Y-134650000D02*
X129350000Y-134700000D01*
X155050000Y-134470000D02*
X154480000Y-133900000D01*
X102950000Y-136170000D02*
X103480000Y-136170000D01*
X103650000Y-134700000D02*
X103650000Y-134470000D01*
X180580000Y-136170000D02*
X180750000Y-136000000D01*
X129180000Y-136170000D02*
X129350000Y-136000000D01*
X154880000Y-136170000D02*
X155050000Y-136000000D01*
X155050000Y-136000000D02*
X155050000Y-134650000D01*
X155050000Y-134700000D02*
X155050000Y-134470000D01*
X180750000Y-136000000D02*
X180750000Y-134650000D01*
X154350000Y-136170000D02*
X154880000Y-136170000D01*
X180750000Y-134700000D02*
X180750000Y-134470000D01*
%TO.N,/IMU_POCI*%
X110700000Y-136200000D02*
X110270000Y-135770000D01*
X188187500Y-136200000D02*
X187800000Y-136200000D01*
X187800000Y-136200000D02*
X187370000Y-135770000D01*
X187370000Y-135770000D02*
X186950000Y-135770000D01*
X161670000Y-135770000D02*
X161250000Y-135770000D01*
X162100000Y-136200000D02*
X161670000Y-135770000D01*
X135970000Y-135770000D02*
X135550000Y-135770000D01*
X110270000Y-135770000D02*
X109850000Y-135770000D01*
X111087500Y-136200000D02*
X110700000Y-136200000D01*
X136787500Y-136200000D02*
X136400000Y-136200000D01*
X162487500Y-136200000D02*
X162100000Y-136200000D01*
X136400000Y-136200000D02*
X135970000Y-135770000D01*
%TO.N,/IMU_SCK*%
X110370000Y-135370000D02*
X109850000Y-135370000D01*
X136400000Y-135700000D02*
X136070000Y-135370000D01*
X162487500Y-135700000D02*
X162100000Y-135700000D01*
X188187500Y-135700000D02*
X187800000Y-135700000D01*
X162100000Y-135700000D02*
X161770000Y-135370000D01*
X161770000Y-135370000D02*
X161250000Y-135370000D01*
X111087500Y-135700000D02*
X110700000Y-135700000D01*
X136787500Y-135700000D02*
X136400000Y-135700000D01*
X110700000Y-135700000D02*
X110370000Y-135370000D01*
X187470000Y-135370000D02*
X186950000Y-135370000D01*
X136070000Y-135370000D02*
X135550000Y-135370000D01*
X187800000Y-135700000D02*
X187470000Y-135370000D01*
%TO.N,/IMU_CS*%
X136070000Y-134970000D02*
X135550000Y-134970000D01*
X187470000Y-134970000D02*
X186950000Y-134970000D01*
X187700000Y-135200000D02*
X187470000Y-134970000D01*
X162000000Y-135200000D02*
X161770000Y-134970000D01*
X110370000Y-134970000D02*
X109850000Y-134970000D01*
X111087500Y-135200000D02*
X110600000Y-135200000D01*
X136300000Y-135200000D02*
X136070000Y-134970000D01*
X136787500Y-135200000D02*
X136300000Y-135200000D01*
X161770000Y-134970000D02*
X161250000Y-134970000D01*
X188187500Y-135200000D02*
X187700000Y-135200000D01*
X110600000Y-135200000D02*
X110370000Y-134970000D01*
X162487500Y-135200000D02*
X162000000Y-135200000D01*
%TO.N,/CHG_SENSE*%
X179170000Y-141600000D02*
X181335000Y-141600000D01*
X178500000Y-142270000D02*
X179170000Y-141600000D01*
X152800000Y-142270000D02*
X153470000Y-141600000D01*
X130300000Y-141235000D02*
X130300000Y-140620000D01*
X155635000Y-141600000D02*
X156000000Y-141235000D01*
X129935000Y-141600000D02*
X130300000Y-141235000D01*
X102070000Y-141600000D02*
X104235000Y-141600000D01*
X181700000Y-141235000D02*
X181700000Y-140620000D01*
X104600000Y-141235000D02*
X104600000Y-140620000D01*
X127770000Y-141600000D02*
X129935000Y-141600000D01*
X181335000Y-141600000D02*
X181700000Y-141235000D01*
X127100000Y-142270000D02*
X127770000Y-141600000D01*
X156000000Y-141235000D02*
X156000000Y-140620000D01*
X153470000Y-141600000D02*
X155635000Y-141600000D01*
X101400000Y-142270000D02*
X102070000Y-141600000D01*
X104235000Y-141600000D02*
X104600000Y-141235000D01*
%TO.N,/IMU_PICO*%
X110270000Y-136170000D02*
X110962500Y-136862500D01*
X188062500Y-136862500D02*
X188350000Y-136862500D01*
X135550000Y-136170000D02*
X135970000Y-136170000D01*
X161250000Y-136170000D02*
X161670000Y-136170000D01*
X135970000Y-136170000D02*
X136662500Y-136862500D01*
X109850000Y-136170000D02*
X110270000Y-136170000D01*
X186950000Y-136170000D02*
X187370000Y-136170000D01*
X110962500Y-136862500D02*
X111250000Y-136862500D01*
X136662500Y-136862500D02*
X136950000Y-136862500D01*
X187370000Y-136170000D02*
X188062500Y-136862500D01*
X162362500Y-136862500D02*
X162650000Y-136862500D01*
X161670000Y-136170000D02*
X162362500Y-136862500D01*
%TO.N,Net-(U1-CHIP_PU)*%
X179570000Y-135770000D02*
X180050000Y-135770000D01*
X153870000Y-135770000D02*
X154350000Y-135770000D01*
X101900000Y-138800000D02*
X101900000Y-138420000D01*
X179000000Y-138800000D02*
X179000000Y-138420000D01*
X102470000Y-135770000D02*
X102950000Y-135770000D01*
X128170000Y-135770000D02*
X128650000Y-135770000D01*
X153300000Y-139180000D02*
X153300000Y-138800000D01*
X179450000Y-138650000D02*
X179450000Y-135890000D01*
X153300000Y-138800000D02*
X153600000Y-138800000D01*
X127600000Y-139180000D02*
X127600000Y-138800000D01*
X127900000Y-138800000D02*
X128050000Y-138650000D01*
X153750000Y-135890000D02*
X153870000Y-135770000D01*
X179300000Y-138800000D02*
X179450000Y-138650000D01*
X102350000Y-138650000D02*
X102350000Y-135890000D01*
X101900000Y-139180000D02*
X101900000Y-138800000D01*
X179000000Y-138800000D02*
X179300000Y-138800000D01*
X179000000Y-139180000D02*
X179000000Y-138800000D01*
X101900000Y-138800000D02*
X102200000Y-138800000D01*
X102200000Y-138800000D02*
X102350000Y-138650000D01*
X153300000Y-138800000D02*
X153300000Y-138420000D01*
X127600000Y-138800000D02*
X127600000Y-138420000D01*
X153600000Y-138800000D02*
X153750000Y-138650000D01*
X179450000Y-135890000D02*
X179570000Y-135770000D01*
X127600000Y-138800000D02*
X127900000Y-138800000D01*
X153750000Y-138650000D02*
X153750000Y-135890000D01*
X128050000Y-138650000D02*
X128050000Y-135890000D01*
X128050000Y-135890000D02*
X128170000Y-135770000D01*
X102350000Y-135890000D02*
X102470000Y-135770000D01*
%TD*%
M02*
