%TF.GenerationSoftware,KiCad,Pcbnew,9.0.3*%
%TF.CreationDate,2025-08-06T20:18:33-04:00*%
%TF.ProjectId,flowstick_main_panel,666c6f77-7374-4696-936b-5f6d61696e5f,rev?*%
%TF.SameCoordinates,Original*%
%TF.FileFunction,Profile,NP*%
%FSLAX46Y46*%
G04 Gerber Fmt 4.6, Leading zero omitted, Abs format (unit mm)*
G04 Created by KiCad (PCBNEW 9.0.3) date 2025-08-06 20:18:33*
%MOMM*%
%LPD*%
G01*
G04 APERTURE LIST*
%TA.AperFunction,Profile*%
%ADD10C,0.050000*%
%TD*%
G04 APERTURE END LIST*
D10*
X197800000Y-128200003D02*
X197800000Y-62000000D01*
X197800000Y-150400000D02*
X197800000Y-144400000D01*
X95000000Y-144400001D02*
X95000000Y-150400000D01*
X95000000Y-62000000D02*
X95000000Y-128200003D01*
X177607241Y-80800000D02*
G75*
G02*
X178041234Y-80154211I797186J-67014D01*
G01*
X177607196Y-122800012D02*
G75*
G02*
X178041189Y-122154223I797186J-67014D01*
G01*
X190400000Y-124400012D02*
G75*
G02*
X189600000Y-125200012I-800000J0D01*
G01*
X177607241Y-80800007D02*
X177600045Y-82400000D01*
X177127910Y-92372210D02*
G75*
G02*
X175660247Y-91350012I-377861J1022198D01*
G01*
X175650049Y-87800012D02*
X175650049Y-90800012D01*
X178400000Y-125200012D02*
G75*
G02*
X177600000Y-124400012I0J800000D01*
G01*
X192339802Y-77350012D02*
G75*
G02*
X190872139Y-78372210I-1089802J0D01*
G01*
X189958811Y-94154199D02*
G75*
G02*
X190392805Y-94799988I-363193J-712803D01*
G01*
X175649999Y-115800014D02*
G75*
G02*
X177599996Y-112076163I8350001J-1999998D01*
G01*
X190400004Y-110400000D02*
X190400004Y-112076165D01*
X192339802Y-119350012D02*
G75*
G02*
X190872139Y-120372210I-1089802J0D01*
G01*
X192349996Y-101800000D02*
X192349996Y-104800000D01*
X177607196Y-122800019D02*
X177600000Y-124400012D01*
X184000000Y-125200012D02*
X178400000Y-125200012D01*
X190400000Y-98076151D02*
G75*
G02*
X192349996Y-101800002I-6400004J-5723849D01*
G01*
X192341731Y-91350012D02*
G75*
G02*
X190866799Y-92372210I-1091682J0D01*
G01*
X177599992Y-96399988D02*
X177599996Y-98076147D01*
X190392857Y-80800007D02*
X190400053Y-82400000D01*
X190392808Y-108800007D02*
X190400004Y-110400000D01*
X192350049Y-90800012D02*
X192341731Y-91350012D01*
X189958815Y-108154211D02*
G75*
G02*
X190392809Y-108800000I-363193J-712803D01*
G01*
X192350049Y-87800012D02*
X192350049Y-90800012D01*
X192350000Y-118800012D02*
X192339802Y-119350012D01*
X190392804Y-122800019D02*
X190400000Y-124400012D01*
X192350000Y-115800012D02*
X192350000Y-118800012D01*
X177482823Y-77296213D02*
X177386215Y-77149209D01*
X192350000Y-73800012D02*
X192350000Y-76800012D01*
X177127861Y-78372210D02*
G75*
G02*
X175660198Y-77350012I-377861J1022198D01*
G01*
X192350000Y-76800012D02*
X192339802Y-77350012D01*
X175649996Y-104800000D02*
X175660194Y-105349946D01*
X177607192Y-108800007D02*
X177599996Y-110400000D01*
X177607188Y-94799988D02*
G75*
G02*
X178041181Y-94154199I797186J-67014D01*
G01*
X175650000Y-118800012D02*
X175660199Y-119350012D01*
X190400004Y-112076163D02*
G75*
G02*
X192350000Y-115800014I-6400004J-5723849D01*
G01*
X177127861Y-120372210D02*
G75*
G02*
X175660198Y-119350012I-377861J1022198D01*
G01*
X175650000Y-115800012D02*
X175650000Y-118800012D01*
X177599996Y-110400000D02*
X177600000Y-112076159D01*
X175649996Y-101800000D02*
X175649996Y-104800000D01*
X177607188Y-94799995D02*
X177599992Y-96399988D01*
X190392804Y-94799995D02*
X190400000Y-96399988D01*
X190400053Y-82400000D02*
X190400053Y-84076165D01*
X184000000Y-125200012D02*
X189600000Y-125200012D01*
X187589220Y-68000013D02*
X180410782Y-68000012D01*
X177127857Y-106372198D02*
G75*
G02*
X175660194Y-105350000I-377861J1022198D01*
G01*
X177600045Y-82400000D02*
X177600049Y-84076159D01*
X192339798Y-105350000D02*
G75*
G02*
X190872135Y-106372198I-1089802J0D01*
G01*
X190400053Y-84076163D02*
G75*
G02*
X192350049Y-87800014I-6400004J-5723849D01*
G01*
X189958811Y-122154223D02*
G75*
G02*
X190392805Y-122800012I-363193J-712803D01*
G01*
X175650000Y-73800012D02*
X175650000Y-76800012D01*
X175649995Y-101800002D02*
G75*
G02*
X177599992Y-98076151I8350001J-1999998D01*
G01*
X187589220Y-68000012D02*
G75*
G02*
X192350000Y-73800013I-3589220J-7800000D01*
G01*
X177607192Y-108800000D02*
G75*
G02*
X178041185Y-108154211I797186J-67014D01*
G01*
X175650049Y-90800012D02*
X175660186Y-91346690D01*
X189958864Y-80154211D02*
G75*
G02*
X190392858Y-80800000I-363193J-712803D01*
G01*
X190613863Y-105149167D02*
X190517183Y-105296270D01*
X175650048Y-87800014D02*
G75*
G02*
X177600045Y-84076163I8350001J-1999998D01*
G01*
X181650405Y-70744389D02*
X179527536Y-70744389D01*
X186279957Y-79670063D02*
X185797439Y-80044954D01*
X184127288Y-81931467D02*
G75*
G02*
X183872732Y-81931467I-127278J127279D01*
G01*
X185797437Y-71555093D02*
G75*
G02*
X185469750Y-71033660I552163J710681D01*
G01*
X188472486Y-70744389D02*
X186348487Y-70744389D01*
X182557328Y-80616063D02*
X183872732Y-81931467D01*
X188472487Y-70744389D02*
G75*
G02*
X190613774Y-77149253I-4472487J-5055623D01*
G01*
X182530278Y-71033662D02*
G75*
G02*
X182557343Y-70984000I97722J-21050D01*
G01*
X185469742Y-80566386D02*
G75*
G02*
X185443396Y-80615357I-98042J21174D01*
G01*
X181721120Y-80684951D02*
G75*
G02*
X181650405Y-80855583I-70720J-70661D01*
G01*
X190613774Y-77149253D02*
X190517187Y-77296214D01*
X184127288Y-81931467D02*
X185443397Y-80615358D01*
X186771190Y-71298566D02*
X186298512Y-70930374D01*
X182202582Y-80044955D02*
X181720047Y-79670050D01*
X181720047Y-71929998D02*
X182202583Y-71555093D01*
X179527535Y-80855659D02*
X179117185Y-80503794D01*
X182202582Y-80044955D02*
G75*
G02*
X182530249Y-80566392I-552182J-710657D01*
G01*
X177386219Y-77149209D02*
G75*
G02*
X179527535Y-70744386I6613781J1349187D01*
G01*
X181228827Y-80301479D02*
G75*
G02*
X181720027Y-79670076I245773J315567D01*
G01*
X186298779Y-80669467D02*
X186775611Y-80298038D01*
X186349610Y-80855659D02*
G75*
G02*
X186298765Y-80669443I-10J100047D01*
G01*
X186349610Y-80855659D02*
X188472484Y-80855659D01*
X185469742Y-80566386D02*
G75*
G02*
X185797461Y-80044982I879858J-189326D01*
G01*
X183872732Y-69668581D02*
X182557328Y-70983985D01*
X185797437Y-71555093D02*
X186279970Y-71929996D01*
X185442721Y-70984014D02*
X184127288Y-69668581D01*
X181228827Y-80301479D02*
X181721120Y-80684951D01*
X186279957Y-79670063D02*
G75*
G02*
X186775591Y-80298013I245443J-315849D01*
G01*
X185442721Y-70984014D02*
G75*
G02*
X185469713Y-71033668I-70521J-70498D01*
G01*
X182530278Y-71033662D02*
G75*
G02*
X182202592Y-71555105I-879878J189250D01*
G01*
X179527535Y-80855659D02*
X181650405Y-80855659D01*
X188472484Y-80855659D02*
X188882821Y-80503835D01*
X181701674Y-70930245D02*
X181228828Y-71298568D01*
X183872732Y-69668581D02*
G75*
G02*
X184127288Y-69668581I127278J-127279D01*
G01*
X181720047Y-71929998D02*
G75*
G02*
X181228785Y-71298512I-245447J315886D01*
G01*
X181650405Y-70744389D02*
G75*
G02*
X181701695Y-70930281I-5J-100023D01*
G01*
X186298512Y-70930374D02*
G75*
G02*
X186348487Y-70744371I51188J85962D01*
G01*
X182557328Y-80616063D02*
G75*
G02*
X182530246Y-80566393I70672J70751D01*
G01*
X186771190Y-71298566D02*
G75*
G02*
X186279998Y-71929960I-245790J-315546D01*
G01*
X179527529Y-122855647D02*
X179117206Y-122503835D01*
X177386219Y-119149212D02*
X177482823Y-119296215D01*
X188550004Y-117220012D02*
X188550004Y-119600013D01*
X189700004Y-116820014D02*
G75*
G02*
X189320004Y-117219515I-400004J2D01*
G01*
X181650364Y-112744377D02*
G75*
G02*
X181701234Y-112930568I36J-100035D01*
G01*
X185469736Y-122566374D02*
G75*
G02*
X185797421Y-122044930I879864J-189238D01*
G01*
X185469736Y-122566374D02*
G75*
G02*
X185442670Y-122616035I-97736J21062D01*
G01*
X181720029Y-113929996D02*
X182202576Y-113555082D01*
X184127283Y-123931454D02*
X185442686Y-122616051D01*
X185442686Y-112983973D02*
G75*
G02*
X185469758Y-113033645I-70686J-70739D01*
G01*
X179450004Y-116000012D02*
G75*
G02*
X180450004Y-115000016I999996J0D01*
G01*
X186279967Y-113929986D02*
X185797432Y-113555081D01*
X188550004Y-119600013D02*
G75*
G02*
X187550006Y-120600016I-1000004J1D01*
G01*
X181720044Y-121670041D02*
X182202577Y-122044943D01*
X178300004Y-116780012D02*
G75*
G02*
X178680004Y-116380516I399996J0D01*
G01*
X187550006Y-120600012D02*
X180450004Y-120600012D01*
X182557293Y-122616022D02*
X183872726Y-123931455D01*
X187550005Y-115000012D02*
G75*
G02*
X188550000Y-116000010I-5J-1000000D01*
G01*
X179450004Y-117220012D02*
X179450004Y-119600012D01*
X181650364Y-112744377D02*
X179527528Y-112744377D01*
X181720029Y-113929996D02*
G75*
G02*
X181224400Y-113301994I-245429J315884D01*
G01*
X186771187Y-113298557D02*
G75*
G02*
X186279988Y-113929959I-245787J-315555D01*
G01*
X184127283Y-123931454D02*
G75*
G02*
X183872722Y-123931459I-127283J127242D01*
G01*
X178680004Y-117219511D02*
G75*
G02*
X178300001Y-116820012I19996J399499D01*
G01*
X179450004Y-117220012D02*
X178680004Y-117220012D01*
X186298352Y-112930242D02*
G75*
G02*
X186349610Y-112744446I51248J85830D01*
G01*
X186298340Y-122669791D02*
X186771187Y-122301467D01*
X188550004Y-116380012D02*
X188550004Y-116000010D01*
X179450004Y-116380012D02*
X179450004Y-116000012D01*
X179527529Y-122855647D02*
X181651569Y-122855647D01*
X186349609Y-122855647D02*
G75*
G02*
X186298304Y-122669730I-9J100035D01*
G01*
X177386218Y-119149212D02*
G75*
G02*
X179527528Y-112744376I6613782J1349200D01*
G01*
X186279967Y-121670038D02*
X185797431Y-122044943D01*
X183872725Y-111668570D02*
X182556617Y-112984678D01*
X185442686Y-112983973D02*
X184127282Y-111668569D01*
X182202577Y-122044943D02*
G75*
G02*
X182530253Y-122566378I-552177J-710669D01*
G01*
X189700004Y-116820014D02*
X189700004Y-116780013D01*
X187550005Y-115000012D02*
X180450004Y-115000012D01*
X182557293Y-122616022D02*
G75*
G02*
X182530292Y-122566370I70507J70510D01*
G01*
X189320004Y-117220012D02*
X188550004Y-117220012D01*
X188472479Y-122855647D02*
X188882821Y-122503834D01*
X181701502Y-122669662D02*
X181228824Y-122301470D01*
X188472481Y-112744376D02*
G75*
G02*
X190613782Y-119149247I-4472481J-5055636D01*
G01*
X182530272Y-113033650D02*
G75*
G02*
X182202588Y-113555098I-879872J189238D01*
G01*
X178300004Y-116780012D02*
X178300004Y-116820012D01*
X181701502Y-122669662D02*
G75*
G02*
X181651569Y-122855649I-51202J-85950D01*
G01*
X185797432Y-113555081D02*
G75*
G02*
X185469753Y-113033646I552168J710669D01*
G01*
X186279967Y-121670038D02*
G75*
G02*
X186771208Y-122301494I245433J-315874D01*
G01*
X182530272Y-113033650D02*
G75*
G02*
X182556598Y-112984659I98128J-21162D01*
G01*
X189320004Y-116380012D02*
X188550004Y-116380012D01*
X181701235Y-112930569D02*
X181224403Y-113301998D01*
X183872725Y-111668570D02*
G75*
G02*
X184127278Y-111668573I127275J-127242D01*
G01*
X189320004Y-116380513D02*
G75*
G02*
X189700000Y-116780013I-20004J-399499D01*
G01*
X186298352Y-112930242D02*
X186771187Y-113298557D01*
X181228824Y-122301470D02*
G75*
G02*
X181720017Y-121670075I245776J315558D01*
G01*
X179450004Y-116380012D02*
X178680004Y-116380012D01*
X180450004Y-120600012D02*
G75*
G02*
X179450000Y-119600012I-4J1000000D01*
G01*
X186349609Y-122855647D02*
X188472479Y-122855647D01*
X188472479Y-112744377D02*
X186349610Y-112744377D01*
X190517187Y-119296242D02*
X190613783Y-119149244D01*
X188842869Y-85097993D02*
G75*
G02*
X190215866Y-87168362I-4842773J-4702007D01*
G01*
X190215881Y-87168356D02*
G75*
G02*
X190135271Y-87306679I-91985J-39044D01*
G01*
X177864828Y-87306684D02*
G75*
G02*
X178750115Y-88300075I-114732J-993416D01*
G01*
X190749288Y-89901579D02*
G75*
G02*
X190613868Y-91149142I-6749192J101479D01*
G01*
X188842870Y-94502157D02*
X188882821Y-94503835D01*
X185893961Y-85435264D02*
G75*
G02*
X185977690Y-85558068I-282765J-282736D01*
G01*
X181696358Y-93653018D02*
G75*
G02*
X182022427Y-94042074I-498762J-749182D01*
G01*
X190250050Y-89800075D02*
G75*
G02*
X189250121Y-88800075I46J999975D01*
G01*
X189250050Y-88300075D02*
X189250050Y-88800075D01*
X182022401Y-85558064D02*
G75*
G02*
X181696354Y-85947126I-824805J360064D01*
G01*
X178300050Y-90780074D02*
X178300050Y-90820076D01*
X181252989Y-94318919D02*
G75*
G02*
X181197568Y-94502221I-55393J-83281D01*
G01*
X185977699Y-94042086D02*
G75*
G02*
X186303739Y-93653014I824897J-360114D01*
G01*
X185977699Y-94042086D02*
G75*
G02*
X185896525Y-94162336I-367103J160286D01*
G01*
X186802550Y-94502157D02*
G75*
G02*
X186747144Y-94318968I-54J99957D01*
G01*
X186303742Y-93653018D02*
G75*
G02*
X186747121Y-94318935I221654J-332982D01*
G01*
X177386261Y-91149264D02*
G75*
G02*
X177250816Y-89901580I6613735J1349164D01*
G01*
X186303742Y-85947132D02*
G75*
G02*
X185977690Y-85558068I498754J749132D01*
G01*
X183872772Y-83668632D02*
G75*
G02*
X184127328Y-83668632I127278J-127279D01*
G01*
X177864828Y-87306684D02*
G75*
G02*
X177784155Y-87168329I11468J99384D01*
G01*
X189250050Y-88300075D02*
G75*
G02*
X190135270Y-87306668I1000046J-25D01*
G01*
X177784219Y-87168356D02*
G75*
G02*
X179157220Y-85097984I6215777J-2631644D01*
G01*
X190649250Y-89800075D02*
G75*
G02*
X190749312Y-89901579I-54J-100125D01*
G01*
X181197567Y-85097993D02*
G75*
G02*
X181253005Y-85281254I29J-100007D01*
G01*
X179157230Y-94502157D02*
X181197568Y-94502157D01*
X189700050Y-90820075D02*
G75*
G02*
X189300050Y-91220054I-399954J-25D01*
G01*
X188842869Y-85097993D02*
X186799584Y-85097993D01*
X181252989Y-94318919D02*
G75*
G02*
X181696343Y-93653041I221707J332919D01*
G01*
X185893961Y-85435264D02*
X184127328Y-83668632D01*
X183872772Y-83668632D02*
X182106149Y-85435254D01*
X186802550Y-94502157D02*
X188842870Y-94502157D01*
X178300050Y-90780074D02*
G75*
G02*
X178700048Y-90380054I400046J-26D01*
G01*
X184127328Y-95931518D02*
X185896518Y-94162329D01*
X177750052Y-89800075D02*
X177350804Y-89800075D01*
X181696358Y-85947132D02*
G75*
G02*
X181253020Y-85281277I-221662J332932D01*
G01*
X189300050Y-90380075D02*
X178700048Y-90380075D01*
X186747111Y-85281231D02*
G75*
G02*
X186303706Y-85947186I-221715J-332969D01*
G01*
X190250050Y-89800075D02*
X190649250Y-89800075D01*
X184127328Y-95931518D02*
G75*
G02*
X183872772Y-95931518I-127278J127279D01*
G01*
X186747111Y-85281231D02*
G75*
G02*
X186799585Y-85098015I55485J83231D01*
G01*
X178750050Y-88300075D02*
X178750050Y-88800075D01*
X178750050Y-88800075D02*
G75*
G02*
X177750052Y-89800054I-999954J-25D01*
G01*
X189300050Y-90380075D02*
G75*
G02*
X189700121Y-90780075I46J-400025D01*
G01*
X190517187Y-91296214D02*
X190613868Y-91149147D01*
X182106148Y-94164895D02*
G75*
G02*
X182022414Y-94042080I282848J282795D01*
G01*
X189700050Y-90820075D02*
X189700050Y-90780075D01*
X177250813Y-89901579D02*
G75*
G02*
X177350804Y-89800106I99983J1479D01*
G01*
X189300050Y-91220075D02*
X178700049Y-91220075D01*
X179116348Y-94502156D02*
X179157230Y-94502157D01*
X178700049Y-91220075D02*
G75*
G02*
X178300121Y-90820076I47J399975D01*
G01*
X181197567Y-85097993D02*
X179157229Y-85097993D01*
X182022401Y-85558064D02*
G75*
G02*
X182106150Y-85435255I366595J-160036D01*
G01*
X182106148Y-94164895D02*
X183872772Y-95931518D01*
X177386262Y-91149264D02*
X177482823Y-91296213D01*
X175650000Y-76800012D02*
X175660199Y-77350012D01*
X189250050Y-102300075D02*
G75*
G02*
X190135270Y-101306668I1000046J-25D01*
G01*
X177386261Y-105149261D02*
G75*
G02*
X177250816Y-103901576I6613735J1349161D01*
G01*
X188842869Y-99097993D02*
X186799584Y-99097993D01*
X186303742Y-99947132D02*
G75*
G02*
X185977690Y-99558068I498754J749132D01*
G01*
X190649250Y-103800075D02*
G75*
G02*
X190749312Y-103901579I-54J-100125D01*
G01*
X185893961Y-99435264D02*
X184127328Y-97668632D01*
X181696358Y-99947132D02*
G75*
G02*
X181253020Y-99281277I-221662J332932D01*
G01*
X181197567Y-99097993D02*
X179157229Y-99097993D01*
X182022401Y-99558064D02*
G75*
G02*
X182106150Y-99435255I366595J-160036D01*
G01*
X186802550Y-108502157D02*
G75*
G02*
X186747144Y-108318968I-54J99957D01*
G01*
X189250050Y-102300075D02*
X189250050Y-102800075D01*
X178750050Y-102800075D02*
X178750050Y-102300075D01*
X177250813Y-103901579D02*
G75*
G02*
X177350804Y-103800106I99983J1479D01*
G01*
X182106148Y-108164895D02*
G75*
G02*
X182022414Y-108042080I282848J282795D01*
G01*
X181197567Y-99097993D02*
G75*
G02*
X181253005Y-99281254I29J-100007D01*
G01*
X179157230Y-108502157D02*
X179117181Y-108503823D01*
X177864828Y-101306684D02*
G75*
G02*
X178750115Y-102300075I-114732J-993416D01*
G01*
X186747111Y-99281231D02*
G75*
G02*
X186303706Y-99947186I-221715J-332969D01*
G01*
X177386261Y-105149260D02*
X177482818Y-105296201D01*
X181696358Y-107653018D02*
G75*
G02*
X182022427Y-108042074I-498762J-749182D01*
G01*
X186303742Y-107653018D02*
G75*
G02*
X186747121Y-108318935I221654J-332982D01*
G01*
X185977699Y-108042086D02*
G75*
G02*
X185896525Y-108162336I-367103J160286D01*
G01*
X186802550Y-108502157D02*
X188842870Y-108502157D01*
X190215881Y-101168356D02*
G75*
G02*
X190135271Y-101306679I-91985J-39044D01*
G01*
X185977699Y-108042086D02*
G75*
G02*
X186303739Y-107653014I824897J-360114D01*
G01*
X186747111Y-99281231D02*
G75*
G02*
X186799585Y-99098015I55485J83231D01*
G01*
X184127328Y-109931518D02*
X185896518Y-108162329D01*
X181252989Y-108318919D02*
G75*
G02*
X181696343Y-107653041I221707J332919D01*
G01*
X183872772Y-97668632D02*
X182106149Y-99435254D01*
X190250050Y-103800075D02*
X190649250Y-103800075D01*
X177784219Y-101168356D02*
G75*
G02*
X179157220Y-99097984I6215777J-2631644D01*
G01*
X190749287Y-103901579D02*
G75*
G02*
X190613863Y-105149161I-6749191J101479D01*
G01*
X184127328Y-109931518D02*
G75*
G02*
X183872772Y-109931518I-127278J127279D01*
G01*
X177350804Y-103800075D02*
X177750052Y-103800075D01*
X182022401Y-99558064D02*
G75*
G02*
X181696354Y-99947126I-824805J360064D01*
G01*
X185893961Y-99435264D02*
G75*
G02*
X185977690Y-99558068I-282765J-282736D01*
G01*
X182106148Y-108164895D02*
X183872772Y-109931518D01*
X178750050Y-102800075D02*
G75*
G02*
X177750052Y-103800054I-999954J-25D01*
G01*
X181252989Y-108318919D02*
G75*
G02*
X181197568Y-108502221I-55393J-83281D01*
G01*
X188842869Y-99097993D02*
G75*
G02*
X190215866Y-101168362I-4842773J-4702007D01*
G01*
X177864828Y-101306684D02*
G75*
G02*
X177784155Y-101168329I11468J99384D01*
G01*
X179157230Y-108502157D02*
X181197568Y-108502157D01*
X183872772Y-97668632D02*
G75*
G02*
X184127328Y-97668632I127278J-127279D01*
G01*
X190250050Y-103800075D02*
G75*
G02*
X189250121Y-102800075I46J999975D01*
G01*
X175650000Y-73800012D02*
G75*
G02*
X180410780Y-68000012I8350000J-2000000D01*
G01*
X190400000Y-96399988D02*
X190400000Y-98076153D01*
X192349996Y-104800000D02*
X192339798Y-105350000D01*
X188842870Y-108502157D02*
X188882817Y-108503823D01*
X158607241Y-80799988D02*
G75*
G02*
X159041234Y-80154199I797186J-67014D01*
G01*
X158607196Y-122800000D02*
G75*
G02*
X159041189Y-122154211I797186J-67014D01*
G01*
X171400000Y-124400000D02*
G75*
G02*
X170600000Y-125200000I-800000J0D01*
G01*
X158607241Y-80799995D02*
X158600045Y-82399988D01*
X158127910Y-92372198D02*
G75*
G02*
X156660247Y-91350000I-377861J1022198D01*
G01*
X156650049Y-87800000D02*
X156650049Y-90800000D01*
X186400000Y-142799999D02*
X191100000Y-142800000D01*
X159400000Y-125200000D02*
G75*
G02*
X158600000Y-124400000I0J800000D01*
G01*
X173339802Y-77350000D02*
G75*
G02*
X171872139Y-78372198I-1089802J0D01*
G01*
X170958811Y-94154187D02*
G75*
G02*
X171392805Y-94799976I-363193J-712803D01*
G01*
X156649999Y-115800002D02*
G75*
G02*
X158599996Y-112076151I8350001J-1999998D01*
G01*
X171400004Y-110399988D02*
X171400004Y-112076153D01*
X176500000Y-142800001D02*
X182800000Y-142799999D01*
X189600000Y-129000000D02*
G75*
G02*
X190400000Y-128199999I800001J0D01*
G01*
X173339802Y-119350000D02*
G75*
G02*
X171872139Y-120372198I-1089802J0D01*
G01*
X177400002Y-128200004D02*
X172100000Y-128200003D01*
X183600000Y-143600000D02*
G75*
G02*
X182799999Y-144400001I-800001J0D01*
G01*
X173349996Y-101799988D02*
X173349996Y-104799988D01*
X158607196Y-122800007D02*
X158600000Y-124400000D01*
X165000000Y-125200000D02*
X159400000Y-125200000D01*
X171400000Y-98076139D02*
G75*
G02*
X173349996Y-101799990I-6400004J-5723849D01*
G01*
X173341731Y-91350000D02*
G75*
G02*
X171866799Y-92372198I-1091682J0D01*
G01*
X158599992Y-96399976D02*
X158599996Y-98076135D01*
X171392857Y-80799995D02*
X171400053Y-82399988D01*
X171392808Y-108799995D02*
X171400004Y-110399988D01*
X173350049Y-90800000D02*
X173341731Y-91350000D01*
X170958815Y-108154199D02*
G75*
G02*
X171392809Y-108799988I-363193J-712803D01*
G01*
X173350049Y-87800000D02*
X173350049Y-90800000D01*
X180200000Y-129000000D02*
G75*
G02*
X181000001Y-128199999I800001J0D01*
G01*
X173350000Y-118800000D02*
X173339802Y-119350000D01*
X171392804Y-122800007D02*
X171400000Y-124400000D01*
X173350000Y-115800000D02*
X173350000Y-118800000D01*
X181000001Y-128199999D02*
X186800000Y-128200004D01*
X158482823Y-77296201D02*
X158386215Y-77149197D01*
X173350000Y-73800000D02*
X173350000Y-76800000D01*
X158127861Y-78372198D02*
G75*
G02*
X156660198Y-77350000I-377861J1022198D01*
G01*
X173350000Y-76800000D02*
X173339802Y-77350000D01*
X156649996Y-104799988D02*
X156660194Y-105349934D01*
X158607192Y-108799995D02*
X158599996Y-110399988D01*
X158607188Y-94799976D02*
G75*
G02*
X159041181Y-94154187I797186J-67014D01*
G01*
X156650000Y-118800000D02*
X156660199Y-119350000D01*
X171400004Y-112076151D02*
G75*
G02*
X173350000Y-115800002I-6400004J-5723849D01*
G01*
X158127861Y-120372198D02*
G75*
G02*
X156660198Y-119350000I-377861J1022198D01*
G01*
X156650000Y-115800000D02*
X156650000Y-118800000D01*
X158599996Y-110399988D02*
X158600000Y-112076147D01*
X172100000Y-150400000D02*
X197800000Y-150400000D01*
X156649996Y-101799988D02*
X156649996Y-104799988D01*
X158607188Y-94799983D02*
X158599992Y-96399976D01*
X171392804Y-94799983D02*
X171400000Y-96399976D01*
X171400053Y-82399988D02*
X171400053Y-84076153D01*
X173700001Y-143600000D02*
G75*
G02*
X172900000Y-144400002I-800002J0D01*
G01*
X165000000Y-125200000D02*
X170600000Y-125200000D01*
X190403098Y-128200006D02*
X197800000Y-128200003D01*
X168589220Y-68000001D02*
X161410782Y-68000000D01*
X158127857Y-106372186D02*
G75*
G02*
X156660194Y-105349988I-377861J1022198D01*
G01*
X158600045Y-82399988D02*
X158600049Y-84076147D01*
X173339798Y-105349988D02*
G75*
G02*
X171872135Y-106372186I-1089802J0D01*
G01*
X171400053Y-84076151D02*
G75*
G02*
X173350049Y-87800002I-6400004J-5723849D01*
G01*
X170958811Y-122154211D02*
G75*
G02*
X171392805Y-122800000I-363193J-712803D01*
G01*
X177400002Y-128200003D02*
G75*
G02*
X178200000Y-129000001I0J-799998D01*
G01*
X156650000Y-73800000D02*
X156650000Y-76800000D01*
X186400000Y-144399997D02*
X197800000Y-144400000D01*
X156649995Y-101799990D02*
G75*
G02*
X158599992Y-98076139I8350001J-1999998D01*
G01*
X176499998Y-144399996D02*
G75*
G02*
X175700001Y-143599999I0J799997D01*
G01*
X172100000Y-62000000D02*
X197800000Y-62000000D01*
X168589220Y-68000000D02*
G75*
G02*
X173350000Y-73800001I-3589220J-7800000D01*
G01*
X158607192Y-108799988D02*
G75*
G02*
X159041185Y-108154199I797186J-67014D01*
G01*
X156650049Y-90800000D02*
X156660186Y-91346678D01*
X170958864Y-80154199D02*
G75*
G02*
X171392858Y-80799988I-363193J-712803D01*
G01*
X171613863Y-105149155D02*
X171517183Y-105296258D01*
X186800002Y-128200004D02*
G75*
G02*
X187599999Y-129000001I0J-799997D01*
G01*
X156650048Y-87800002D02*
G75*
G02*
X158600045Y-84076151I8350001J-1999998D01*
G01*
X167771190Y-71298554D02*
G75*
G02*
X167279998Y-71929948I-245790J-315546D01*
G01*
X163557328Y-80616051D02*
G75*
G02*
X163530246Y-80566381I70672J70751D01*
G01*
X167298512Y-70930362D02*
G75*
G02*
X167348487Y-70744359I51188J85962D01*
G01*
X165127288Y-81931455D02*
G75*
G02*
X164872732Y-81931455I-127278J127279D01*
G01*
X162650405Y-70744377D02*
G75*
G02*
X162701695Y-70930269I-5J-100023D01*
G01*
X162720047Y-71929986D02*
G75*
G02*
X162228785Y-71298500I-245447J315886D01*
G01*
X164872732Y-69668569D02*
G75*
G02*
X165127288Y-69668569I127278J-127279D01*
G01*
X167349610Y-80855647D02*
G75*
G02*
X167298765Y-80669431I-10J100047D01*
G01*
X158386219Y-77149197D02*
G75*
G02*
X160527535Y-70744374I6613781J1349187D01*
G01*
X162720047Y-71929986D02*
X163202583Y-71555081D01*
X162701674Y-70930233D02*
X162228828Y-71298556D01*
X169472484Y-80855647D02*
X169882821Y-80503823D01*
X165127288Y-81931455D02*
X166443397Y-80615346D01*
X160527535Y-80855647D02*
X162650405Y-80855647D01*
X163530278Y-71033650D02*
G75*
G02*
X163202592Y-71555093I-879878J189250D01*
G01*
X166442721Y-70984002D02*
G75*
G02*
X166469713Y-71033656I-70521J-70498D01*
G01*
X167279957Y-79670051D02*
G75*
G02*
X167775591Y-80298001I245443J-315849D01*
G01*
X162228827Y-80301467D02*
X162721120Y-80684939D01*
X166442721Y-70984002D02*
X165127288Y-69668569D01*
X166797437Y-71555081D02*
X167279970Y-71929984D01*
X164872732Y-69668569D02*
X163557328Y-70983973D01*
X166469742Y-80566374D02*
G75*
G02*
X166797461Y-80044970I879858J-189326D01*
G01*
X167298779Y-80669455D02*
X167775611Y-80298026D01*
X163202582Y-80044943D02*
G75*
G02*
X163530249Y-80566380I-552182J-710657D01*
G01*
X163202582Y-80044943D02*
X162720047Y-79670038D01*
X169472487Y-70744377D02*
G75*
G02*
X171613774Y-77149241I-4472487J-5055623D01*
G01*
X169472486Y-70744377D02*
X167348487Y-70744377D01*
X167349610Y-80855647D02*
X169472484Y-80855647D01*
X162228827Y-80301467D02*
G75*
G02*
X162720027Y-79670064I245773J315567D01*
G01*
X160527535Y-80855647D02*
X160117185Y-80503782D01*
X167771190Y-71298554D02*
X167298512Y-70930362D01*
X171613774Y-77149241D02*
X171517187Y-77296202D01*
X162721120Y-80684939D02*
G75*
G02*
X162650405Y-80855571I-70720J-70661D01*
G01*
X166469742Y-80566374D02*
G75*
G02*
X166443396Y-80615345I-98042J21174D01*
G01*
X163530278Y-71033650D02*
G75*
G02*
X163557343Y-70983988I97722J-21050D01*
G01*
X163557328Y-80616051D02*
X164872732Y-81931455D01*
X166797437Y-71555081D02*
G75*
G02*
X166469750Y-71033648I552163J710681D01*
G01*
X167279957Y-79670051D02*
X166797439Y-80044942D01*
X162650405Y-70744377D02*
X160527536Y-70744377D01*
X171517187Y-119296230D02*
X171613783Y-119149232D01*
X169472479Y-112744365D02*
X167349610Y-112744365D01*
X163557293Y-122616010D02*
G75*
G02*
X163530292Y-122566358I70507J70510D01*
G01*
X167349609Y-122855635D02*
X169472479Y-122855635D01*
X168550005Y-115000000D02*
X161450004Y-115000000D01*
X161450004Y-120600000D02*
G75*
G02*
X160450000Y-119600000I-4J1000000D01*
G01*
X160450004Y-116380000D02*
X159680004Y-116380000D01*
X162228824Y-122301458D02*
G75*
G02*
X162720017Y-121670063I245776J315558D01*
G01*
X167298352Y-112930230D02*
X167771187Y-113298545D01*
X170320004Y-116380501D02*
G75*
G02*
X170700000Y-116780001I-20004J-399499D01*
G01*
X164872725Y-111668558D02*
G75*
G02*
X165127278Y-111668561I127275J-127242D01*
G01*
X162701235Y-112930557D02*
X162224403Y-113301986D01*
X163202577Y-122044931D02*
G75*
G02*
X163530253Y-122566366I-552177J-710669D01*
G01*
X164872725Y-111668558D02*
X163556617Y-112984666D01*
X170320004Y-116380000D02*
X169550004Y-116380000D01*
X163530272Y-113033638D02*
G75*
G02*
X163556598Y-112984647I98128J-21162D01*
G01*
X167279967Y-121670026D02*
G75*
G02*
X167771208Y-122301482I245433J-315874D01*
G01*
X166797432Y-113555069D02*
G75*
G02*
X166469753Y-113033634I552168J710669D01*
G01*
X162701502Y-122669650D02*
G75*
G02*
X162651569Y-122855637I-51202J-85950D01*
G01*
X159300004Y-116780000D02*
X159300004Y-116820000D01*
X163530272Y-113033638D02*
G75*
G02*
X163202588Y-113555086I-879872J189238D01*
G01*
X169472481Y-112744364D02*
G75*
G02*
X171613782Y-119149235I-4472481J-5055636D01*
G01*
X162701502Y-122669650D02*
X162228824Y-122301458D01*
X169472479Y-122855635D02*
X169882821Y-122503822D01*
X162650364Y-112744365D02*
X160527528Y-112744365D01*
X168550005Y-115000000D02*
G75*
G02*
X169550000Y-115999998I-5J-1000000D01*
G01*
X170320004Y-117220000D02*
X169550004Y-117220000D01*
X170700004Y-116820002D02*
X170700004Y-116780001D01*
X166442686Y-112983961D02*
X165127282Y-111668557D01*
X167279967Y-121670026D02*
X166797431Y-122044931D01*
X158386218Y-119149200D02*
G75*
G02*
X160527528Y-112744364I6613782J1349200D01*
G01*
X167349609Y-122855635D02*
G75*
G02*
X167298304Y-122669718I-9J100035D01*
G01*
X166442686Y-112983961D02*
G75*
G02*
X166469758Y-113033633I-70686J-70739D01*
G01*
X162720029Y-113929984D02*
X163202576Y-113555070D01*
X163557293Y-122616010D02*
X164872726Y-123931443D01*
X160527529Y-122855635D02*
X162651569Y-122855635D01*
X160450004Y-116380000D02*
X160450004Y-116000000D01*
X169550004Y-116380000D02*
X169550004Y-115999998D01*
X167298340Y-122669779D02*
X167771187Y-122301455D01*
X169550004Y-119600001D02*
G75*
G02*
X168550006Y-120600004I-1000004J1D01*
G01*
X167298352Y-112930230D02*
G75*
G02*
X167349610Y-112744434I51248J85830D01*
G01*
X160450004Y-117220000D02*
X159680004Y-117220000D01*
X159680004Y-117219499D02*
G75*
G02*
X159300001Y-116820000I19996J399499D01*
G01*
X165127283Y-123931442D02*
G75*
G02*
X164872722Y-123931447I-127283J127242D01*
G01*
X167771187Y-113298545D02*
G75*
G02*
X167279988Y-113929947I-245787J-315555D01*
G01*
X162720029Y-113929984D02*
G75*
G02*
X162224400Y-113301982I-245429J315884D01*
G01*
X160450004Y-117220000D02*
X160450004Y-119600000D01*
X168550006Y-120600000D02*
X161450004Y-120600000D01*
X159300004Y-116780000D02*
G75*
G02*
X159680004Y-116380504I399996J0D01*
G01*
X162720044Y-121670029D02*
X163202577Y-122044931D01*
X167279967Y-113929974D02*
X166797432Y-113555069D01*
X160450004Y-116000000D02*
G75*
G02*
X161450004Y-115000004I999996J0D01*
G01*
X165127283Y-123931442D02*
X166442686Y-122616039D01*
X166469736Y-122566362D02*
G75*
G02*
X166442670Y-122616023I-97736J21062D01*
G01*
X166469736Y-122566362D02*
G75*
G02*
X166797421Y-122044918I879864J-189238D01*
G01*
X162650364Y-112744365D02*
G75*
G02*
X162701234Y-112930556I36J-100035D01*
G01*
X170700004Y-116820002D02*
G75*
G02*
X170320004Y-117219503I-400004J2D01*
G01*
X169550004Y-117220000D02*
X169550004Y-119600001D01*
X158386219Y-119149200D02*
X158482823Y-119296203D01*
X160527529Y-122855635D02*
X160117206Y-122503823D01*
X190400000Y-129800001D02*
X191100000Y-129800000D01*
X172900000Y-130800000D02*
X172900000Y-129800000D01*
X195775000Y-138292906D02*
G75*
G02*
X195449995Y-137899998I75029J392935D01*
G01*
X172900000Y-142800000D02*
X172900000Y-141800000D01*
X196100000Y-133914200D02*
X196100000Y-131400000D01*
X195700000Y-131000000D02*
G75*
G02*
X196100000Y-131400000I29J-399971D01*
G01*
X181000000Y-129800001D02*
X186800002Y-129799999D01*
X191846409Y-131000000D02*
X195700000Y-131000000D01*
X191100000Y-141800000D02*
G75*
G02*
X191846469Y-141599965I400029J29D01*
G01*
X195774997Y-138292906D02*
G75*
G02*
X196100081Y-138685814I-74968J-392965D01*
G01*
X195450000Y-134700000D02*
G75*
G02*
X195774990Y-134307043I400029J29D01*
G01*
X191846410Y-131000000D02*
G75*
G02*
X191100040Y-130800000I-346381J200029D01*
G01*
X172900000Y-130800000D02*
G75*
G02*
X172500000Y-131199942I-399971J29D01*
G01*
X191100000Y-130800000D02*
X191100000Y-129800000D01*
X172500000Y-131200000D02*
X172100000Y-131200000D01*
X196100000Y-133914200D02*
G75*
G02*
X195774992Y-134307054I-399971J29D01*
G01*
X172500001Y-141400000D02*
X172100000Y-141400000D01*
X196100000Y-141200001D02*
X196100000Y-138685814D01*
X191846409Y-141600000D02*
X195700001Y-141600000D01*
X191100000Y-142800000D02*
X191100000Y-141800000D01*
X195450000Y-137899998D02*
X195450000Y-134700000D01*
X172500001Y-141400000D02*
G75*
G02*
X172900000Y-141800000I28J-399971D01*
G01*
X172900000Y-129800000D02*
X177400002Y-129799999D01*
X196100000Y-141200001D02*
G75*
G02*
X195700001Y-141599942I-399971J30D01*
G01*
X172100000Y-141400000D02*
X172100000Y-131200000D01*
X160157230Y-108502145D02*
X160117181Y-108503811D01*
X162197567Y-99097981D02*
X160157229Y-99097981D01*
X171250050Y-103800063D02*
X171649250Y-103800063D01*
X171250050Y-103800063D02*
G75*
G02*
X170250121Y-102800063I46J999975D01*
G01*
X165127328Y-109931506D02*
G75*
G02*
X164872772Y-109931506I-127278J127279D01*
G01*
X164872772Y-97668620D02*
G75*
G02*
X165127328Y-97668620I127278J-127279D01*
G01*
X160157230Y-108502145D02*
X162197568Y-108502145D01*
X162197567Y-99097981D02*
G75*
G02*
X162253005Y-99281242I29J-100007D01*
G01*
X162696358Y-107653006D02*
G75*
G02*
X163022427Y-108042062I-498762J-749182D01*
G01*
X166893961Y-99435252D02*
X165127328Y-97668620D01*
X158864828Y-101306672D02*
G75*
G02*
X158784155Y-101168317I11468J99384D01*
G01*
X169842869Y-99097981D02*
G75*
G02*
X171215866Y-101168350I-4842773J-4702007D01*
G01*
X162252989Y-108318907D02*
G75*
G02*
X162197568Y-108502209I-55393J-83281D01*
G01*
X171649250Y-103800063D02*
G75*
G02*
X171749312Y-103901567I-54J-100125D01*
G01*
X166977699Y-108042074D02*
G75*
G02*
X167303739Y-107653002I824897J-360114D01*
G01*
X159750050Y-102800063D02*
G75*
G02*
X158750052Y-103800042I-999954J-25D01*
G01*
X163106148Y-108164883D02*
X164872772Y-109931506D01*
X165127328Y-109931506D02*
X166896518Y-108162317D01*
X166893961Y-99435252D02*
G75*
G02*
X166977690Y-99558056I-282765J-282736D01*
G01*
X158386261Y-105149249D02*
G75*
G02*
X158250816Y-103901564I6613735J1349161D01*
G01*
X163022401Y-99558052D02*
G75*
G02*
X162696354Y-99947114I-824805J360064D01*
G01*
X158350804Y-103800063D02*
X158750052Y-103800063D01*
X171749287Y-103901567D02*
G75*
G02*
X171613863Y-105149149I-6749191J101479D01*
G01*
X158784219Y-101168344D02*
G75*
G02*
X160157220Y-99097972I6215777J-2631644D01*
G01*
X164872772Y-97668620D02*
X163106149Y-99435242D01*
X167747111Y-99281219D02*
G75*
G02*
X167303706Y-99947174I-221715J-332969D01*
G01*
X162252989Y-108318907D02*
G75*
G02*
X162696343Y-107653029I221707J332919D01*
G01*
X167747111Y-99281219D02*
G75*
G02*
X167799585Y-99098003I55485J83231D01*
G01*
X171215881Y-101168344D02*
G75*
G02*
X171135271Y-101306667I-91985J-39044D01*
G01*
X167802550Y-108502145D02*
X169842870Y-108502145D01*
X166977699Y-108042074D02*
G75*
G02*
X166896525Y-108162324I-367103J160286D01*
G01*
X167303742Y-107653006D02*
G75*
G02*
X167747121Y-108318923I221654J-332982D01*
G01*
X158386261Y-105149248D02*
X158482818Y-105296189D01*
X158864828Y-101306672D02*
G75*
G02*
X159750115Y-102300063I-114732J-993416D01*
G01*
X167802550Y-108502145D02*
G75*
G02*
X167747144Y-108318956I-54J99957D01*
G01*
X167303742Y-99947120D02*
G75*
G02*
X166977690Y-99558056I498754J749132D01*
G01*
X163106148Y-108164883D02*
G75*
G02*
X163022414Y-108042068I282848J282795D01*
G01*
X158250813Y-103901567D02*
G75*
G02*
X158350804Y-103800094I99983J1479D01*
G01*
X159750050Y-102800063D02*
X159750050Y-102300063D01*
X170250050Y-102300063D02*
X170250050Y-102800063D01*
X163022401Y-99558052D02*
G75*
G02*
X163106150Y-99435243I366595J-160036D01*
G01*
X162696358Y-99947120D02*
G75*
G02*
X162253020Y-99281265I-221662J332932D01*
G01*
X169842869Y-99097981D02*
X167799584Y-99097981D01*
X170250050Y-102300063D02*
G75*
G02*
X171135270Y-101306656I1000046J-25D01*
G01*
X156650000Y-73800000D02*
G75*
G02*
X161410780Y-68000000I8350000J-2000000D01*
G01*
X171400000Y-96399976D02*
X171400000Y-98076141D01*
X173349996Y-104799988D02*
X173339798Y-105349988D01*
X176500000Y-144399996D02*
X182800000Y-144400001D01*
X186400000Y-144399997D02*
G75*
G02*
X185600000Y-143599999I-2J799998D01*
G01*
X156650000Y-76800000D02*
X156660199Y-77350000D01*
X172100000Y-144400000D02*
X172900000Y-144400001D01*
X169842870Y-108502145D02*
X169882817Y-108503811D01*
X158386262Y-91149252D02*
X158482823Y-91296201D01*
X162696358Y-93653006D02*
G75*
G02*
X163022427Y-94042062I-498762J-749182D01*
G01*
X163106148Y-94164883D02*
X164872772Y-95931506D01*
X163022401Y-85558052D02*
G75*
G02*
X163106150Y-85435243I366595J-160036D01*
G01*
X162197567Y-85097981D02*
X160157229Y-85097981D01*
X158784219Y-87168344D02*
G75*
G02*
X160157220Y-85097972I6215777J-2631644D01*
G01*
X163106148Y-94164883D02*
G75*
G02*
X163022414Y-94042068I282848J282795D01*
G01*
X159700049Y-91220063D02*
G75*
G02*
X159300121Y-90820064I47J399975D01*
G01*
X160116348Y-94502144D02*
X160157230Y-94502145D01*
X170300050Y-91220063D02*
X159700049Y-91220063D01*
X158250813Y-89901567D02*
G75*
G02*
X158350804Y-89800094I99983J1479D01*
G01*
X169842869Y-85097981D02*
X167799584Y-85097981D01*
X166893961Y-85435252D02*
G75*
G02*
X166977690Y-85558056I-282765J-282736D01*
G01*
X171517187Y-91296202D02*
X171613868Y-91149135D01*
X170700050Y-90820063D02*
X170700050Y-90780063D01*
X165127328Y-95931506D02*
X166896518Y-94162317D01*
X158864828Y-87306672D02*
G75*
G02*
X158784155Y-87168317I11468J99384D01*
G01*
X167747111Y-85281219D02*
G75*
G02*
X167303706Y-85947174I-221715J-332969D01*
G01*
X163022401Y-85558052D02*
G75*
G02*
X162696354Y-85947114I-824805J360064D01*
G01*
X167802550Y-94502145D02*
X169842870Y-94502145D01*
X160157230Y-94502145D02*
X162197568Y-94502145D01*
X162197567Y-85097981D02*
G75*
G02*
X162253005Y-85281242I29J-100007D01*
G01*
X167303742Y-93653006D02*
G75*
G02*
X167747121Y-94318923I221654J-332982D01*
G01*
X170300050Y-90380063D02*
G75*
G02*
X170700121Y-90780063I46J-400025D01*
G01*
X159750050Y-88800063D02*
G75*
G02*
X158750052Y-89800042I-999954J-25D01*
G01*
X166977699Y-94042074D02*
G75*
G02*
X166896525Y-94162324I-367103J160286D01*
G01*
X162696358Y-85947120D02*
G75*
G02*
X162253020Y-85281265I-221662J332932D01*
G01*
X159750050Y-88300063D02*
X159750050Y-88800063D01*
X167747111Y-85281219D02*
G75*
G02*
X167799585Y-85098003I55485J83231D01*
G01*
X165127328Y-95931506D02*
G75*
G02*
X164872772Y-95931506I-127278J127279D01*
G01*
X171250050Y-89800063D02*
X171649250Y-89800063D01*
X170300050Y-90380063D02*
X159700048Y-90380063D01*
X158750052Y-89800063D02*
X158350804Y-89800063D01*
X159300050Y-90780062D02*
G75*
G02*
X159700048Y-90380042I400046J-26D01*
G01*
X164872772Y-83668620D02*
X163106149Y-85435242D01*
X166893961Y-85435252D02*
X165127328Y-83668620D01*
X162252989Y-94318907D02*
G75*
G02*
X162696343Y-93653029I221707J332919D01*
G01*
X170700050Y-90820063D02*
G75*
G02*
X170300050Y-91220042I-399954J-25D01*
G01*
X171649250Y-89800063D02*
G75*
G02*
X171749312Y-89901567I-54J-100125D01*
G01*
X170250050Y-88300063D02*
G75*
G02*
X171135270Y-87306656I1000046J-25D01*
G01*
X164872772Y-83668620D02*
G75*
G02*
X165127328Y-83668620I127278J-127279D01*
G01*
X167303742Y-85947120D02*
G75*
G02*
X166977690Y-85558056I498754J749132D01*
G01*
X158386261Y-91149252D02*
G75*
G02*
X158250816Y-89901568I6613735J1349164D01*
G01*
X167802550Y-94502145D02*
G75*
G02*
X167747144Y-94318956I-54J99957D01*
G01*
X166977699Y-94042074D02*
G75*
G02*
X167303739Y-93653002I824897J-360114D01*
G01*
X162252989Y-94318907D02*
G75*
G02*
X162197568Y-94502209I-55393J-83281D01*
G01*
X159300050Y-90780062D02*
X159300050Y-90820064D01*
X170250050Y-88300063D02*
X170250050Y-88800063D01*
X171250050Y-89800063D02*
G75*
G02*
X170250121Y-88800063I46J999975D01*
G01*
X169842870Y-94502145D02*
X169882821Y-94503823D01*
X171749288Y-89901567D02*
G75*
G02*
X171613868Y-91149130I-6749192J101479D01*
G01*
X158864828Y-87306672D02*
G75*
G02*
X159750115Y-88300063I-114732J-993416D01*
G01*
X171215881Y-87168344D02*
G75*
G02*
X171135271Y-87306667I-91985J-39044D01*
G01*
X169842869Y-85097981D02*
G75*
G02*
X171215866Y-87168350I-4842773J-4702007D01*
G01*
X139607241Y-80799988D02*
G75*
G02*
X140041234Y-80154199I797186J-67014D01*
G01*
X139607196Y-122800000D02*
G75*
G02*
X140041189Y-122154211I797186J-67014D01*
G01*
X152400000Y-124400000D02*
G75*
G02*
X151600000Y-125200000I-800000J0D01*
G01*
X139607241Y-80799995D02*
X139600045Y-82399988D01*
X139127910Y-92372198D02*
G75*
G02*
X137660247Y-91350000I-377861J1022198D01*
G01*
X137650049Y-87800000D02*
X137650049Y-90800000D01*
X160700000Y-142799999D02*
X165400000Y-142800000D01*
X140400000Y-125200000D02*
G75*
G02*
X139600000Y-124400000I0J800000D01*
G01*
X154339802Y-77350000D02*
G75*
G02*
X152872139Y-78372198I-1089802J0D01*
G01*
X151958811Y-94154187D02*
G75*
G02*
X152392805Y-94799976I-363193J-712803D01*
G01*
X137649999Y-115800002D02*
G75*
G02*
X139599996Y-112076151I8350001J-1999998D01*
G01*
X152400004Y-110399988D02*
X152400004Y-112076153D01*
X150800000Y-142800001D02*
X157100000Y-142799999D01*
X163900000Y-129000000D02*
G75*
G02*
X164700000Y-128199999I800001J0D01*
G01*
X154339802Y-119350000D02*
G75*
G02*
X152872139Y-120372198I-1089802J0D01*
G01*
X151700002Y-128200004D02*
X146400000Y-128200003D01*
X157900000Y-143600000D02*
G75*
G02*
X157099999Y-144400001I-800001J0D01*
G01*
X154349996Y-101799988D02*
X154349996Y-104799988D01*
X139607196Y-122800007D02*
X139600000Y-124400000D01*
X146000000Y-125200000D02*
X140400000Y-125200000D01*
X152400000Y-98076139D02*
G75*
G02*
X154349996Y-101799990I-6400004J-5723849D01*
G01*
X154341731Y-91350000D02*
G75*
G02*
X152866799Y-92372198I-1091682J0D01*
G01*
X139599992Y-96399976D02*
X139599996Y-98076135D01*
X152392857Y-80799995D02*
X152400053Y-82399988D01*
X152392808Y-108799995D02*
X152400004Y-110399988D01*
X154350049Y-90800000D02*
X154341731Y-91350000D01*
X151958815Y-108154199D02*
G75*
G02*
X152392809Y-108799988I-363193J-712803D01*
G01*
X154350049Y-87800000D02*
X154350049Y-90800000D01*
X154500000Y-129000000D02*
G75*
G02*
X155300001Y-128199999I800001J0D01*
G01*
X154350000Y-118800000D02*
X154339802Y-119350000D01*
X152392804Y-122800007D02*
X152400000Y-124400000D01*
X154350000Y-115800000D02*
X154350000Y-118800000D01*
X155300001Y-128199999D02*
X161100000Y-128200004D01*
X139482823Y-77296201D02*
X139386215Y-77149197D01*
X154350000Y-73800000D02*
X154350000Y-76800000D01*
X139127861Y-78372198D02*
G75*
G02*
X137660198Y-77350000I-377861J1022198D01*
G01*
X154350000Y-76800000D02*
X154339802Y-77350000D01*
X137649996Y-104799988D02*
X137660194Y-105349934D01*
X139607192Y-108799995D02*
X139599996Y-110399988D01*
X139607188Y-94799976D02*
G75*
G02*
X140041181Y-94154187I797186J-67014D01*
G01*
X137650000Y-118800000D02*
X137660199Y-119350000D01*
X152400004Y-112076151D02*
G75*
G02*
X154350000Y-115800002I-6400004J-5723849D01*
G01*
X139127861Y-120372198D02*
G75*
G02*
X137660198Y-119350000I-377861J1022198D01*
G01*
X137650000Y-115800000D02*
X137650000Y-118800000D01*
X139599996Y-110399988D02*
X139600000Y-112076147D01*
X146400000Y-150400000D02*
X172100000Y-150400000D01*
X137649996Y-101799988D02*
X137649996Y-104799988D01*
X139607188Y-94799983D02*
X139599992Y-96399976D01*
X152392804Y-94799983D02*
X152400000Y-96399976D01*
X152400053Y-82399988D02*
X152400053Y-84076153D01*
X148000001Y-143600000D02*
G75*
G02*
X147200000Y-144400002I-800002J0D01*
G01*
X146000000Y-125200000D02*
X151600000Y-125200000D01*
X164703098Y-128200006D02*
X172100000Y-128200003D01*
X149589220Y-68000001D02*
X142410782Y-68000000D01*
X139127857Y-106372186D02*
G75*
G02*
X137660194Y-105349988I-377861J1022198D01*
G01*
X139600045Y-82399988D02*
X139600049Y-84076147D01*
X154339798Y-105349988D02*
G75*
G02*
X152872135Y-106372186I-1089802J0D01*
G01*
X152400053Y-84076151D02*
G75*
G02*
X154350049Y-87800002I-6400004J-5723849D01*
G01*
X151958811Y-122154211D02*
G75*
G02*
X152392805Y-122800000I-363193J-712803D01*
G01*
X151700002Y-128200003D02*
G75*
G02*
X152500000Y-129000001I0J-799998D01*
G01*
X137650000Y-73800000D02*
X137650000Y-76800000D01*
X160700000Y-144399997D02*
X172100000Y-144400000D01*
X137649995Y-101799990D02*
G75*
G02*
X139599992Y-98076139I8350001J-1999998D01*
G01*
X150799998Y-144399996D02*
G75*
G02*
X150000001Y-143599999I0J799997D01*
G01*
X146400000Y-62000000D02*
X172100000Y-62000000D01*
X149589220Y-68000000D02*
G75*
G02*
X154350000Y-73800001I-3589220J-7800000D01*
G01*
X139607192Y-108799988D02*
G75*
G02*
X140041185Y-108154199I797186J-67014D01*
G01*
X137650049Y-90800000D02*
X137660186Y-91346678D01*
X151958864Y-80154199D02*
G75*
G02*
X152392858Y-80799988I-363193J-712803D01*
G01*
X152613863Y-105149155D02*
X152517183Y-105296258D01*
X146400000Y-141400000D02*
X146400000Y-131200000D01*
X170400000Y-141200001D02*
G75*
G02*
X170000001Y-141599942I-399971J30D01*
G01*
X147200000Y-129800000D02*
X151700002Y-129799999D01*
X146800001Y-141400000D02*
G75*
G02*
X147200000Y-141800000I28J-399971D01*
G01*
X169750000Y-137899998D02*
X169750000Y-134700000D01*
X165400000Y-142800000D02*
X165400000Y-141800000D01*
X166146409Y-141600000D02*
X170000001Y-141600000D01*
X170400000Y-141200001D02*
X170400000Y-138685814D01*
X146800001Y-141400000D02*
X146400000Y-141400000D01*
X170400000Y-133914200D02*
G75*
G02*
X170074992Y-134307054I-399971J29D01*
G01*
X146800000Y-131200000D02*
X146400000Y-131200000D01*
X165400000Y-130800000D02*
X165400000Y-129800000D01*
X147200000Y-130800000D02*
G75*
G02*
X146800000Y-131199942I-399971J29D01*
G01*
X166146410Y-131000000D02*
G75*
G02*
X165400040Y-130800000I-346381J200029D01*
G01*
X169750000Y-134700000D02*
G75*
G02*
X170074990Y-134307043I400029J29D01*
G01*
X170074997Y-138292906D02*
G75*
G02*
X170400081Y-138685814I-74968J-392965D01*
G01*
X165400000Y-141800000D02*
G75*
G02*
X166146469Y-141599965I400029J29D01*
G01*
X166146409Y-131000000D02*
X170000000Y-131000000D01*
X155300000Y-129800001D02*
X161100002Y-129799999D01*
X170000000Y-131000000D02*
G75*
G02*
X170400000Y-131400000I29J-399971D01*
G01*
X170400000Y-133914200D02*
X170400000Y-131400000D01*
X147200000Y-142800000D02*
X147200000Y-141800000D01*
X170075000Y-138292906D02*
G75*
G02*
X169749995Y-137899998I75029J392935D01*
G01*
X147200000Y-130800000D02*
X147200000Y-129800000D01*
X164700000Y-129800001D02*
X165400000Y-129800000D01*
X151250050Y-102300063D02*
G75*
G02*
X152135270Y-101306656I1000046J-25D01*
G01*
X150842869Y-99097981D02*
X148799584Y-99097981D01*
X143696358Y-99947120D02*
G75*
G02*
X143253020Y-99281265I-221662J332932D01*
G01*
X144022401Y-99558052D02*
G75*
G02*
X144106150Y-99435243I366595J-160036D01*
G01*
X151250050Y-102300063D02*
X151250050Y-102800063D01*
X152250050Y-103800063D02*
G75*
G02*
X151250121Y-102800063I46J999975D01*
G01*
X143197567Y-99097981D02*
X141157229Y-99097981D01*
X140750050Y-102800063D02*
X140750050Y-102300063D01*
X139250813Y-103901567D02*
G75*
G02*
X139350804Y-103800094I99983J1479D01*
G01*
X144106148Y-108164883D02*
G75*
G02*
X144022414Y-108042068I282848J282795D01*
G01*
X148303742Y-99947120D02*
G75*
G02*
X147977690Y-99558056I498754J749132D01*
G01*
X148802550Y-108502145D02*
G75*
G02*
X148747144Y-108318956I-54J99957D01*
G01*
X139864828Y-101306672D02*
G75*
G02*
X140750115Y-102300063I-114732J-993416D01*
G01*
X139386261Y-105149248D02*
X139482818Y-105296189D01*
X148303742Y-107653006D02*
G75*
G02*
X148747121Y-108318923I221654J-332982D01*
G01*
X147977699Y-108042074D02*
G75*
G02*
X147896525Y-108162324I-367103J160286D01*
G01*
X148802550Y-108502145D02*
X150842870Y-108502145D01*
X152215881Y-101168344D02*
G75*
G02*
X152135271Y-101306667I-91985J-39044D01*
G01*
X148747111Y-99281219D02*
G75*
G02*
X148799585Y-99098003I55485J83231D01*
G01*
X143252989Y-108318907D02*
G75*
G02*
X143696343Y-107653029I221707J332919D01*
G01*
X148747111Y-99281219D02*
G75*
G02*
X148303706Y-99947174I-221715J-332969D01*
G01*
X145872772Y-97668620D02*
X144106149Y-99435242D01*
X139784219Y-101168344D02*
G75*
G02*
X141157220Y-99097972I6215777J-2631644D01*
G01*
X152749287Y-103901567D02*
G75*
G02*
X152613863Y-105149149I-6749191J101479D01*
G01*
X139350804Y-103800063D02*
X139750052Y-103800063D01*
X144022401Y-99558052D02*
G75*
G02*
X143696354Y-99947114I-824805J360064D01*
G01*
X139386261Y-105149249D02*
G75*
G02*
X139250816Y-103901564I6613735J1349161D01*
G01*
X147893961Y-99435252D02*
G75*
G02*
X147977690Y-99558056I-282765J-282736D01*
G01*
X146127328Y-109931506D02*
X147896518Y-108162317D01*
X144106148Y-108164883D02*
X145872772Y-109931506D01*
X140750050Y-102800063D02*
G75*
G02*
X139750052Y-103800042I-999954J-25D01*
G01*
X147977699Y-108042074D02*
G75*
G02*
X148303739Y-107653002I824897J-360114D01*
G01*
X152649250Y-103800063D02*
G75*
G02*
X152749312Y-103901567I-54J-100125D01*
G01*
X143252989Y-108318907D02*
G75*
G02*
X143197568Y-108502209I-55393J-83281D01*
G01*
X150842869Y-99097981D02*
G75*
G02*
X152215866Y-101168350I-4842773J-4702007D01*
G01*
X139864828Y-101306672D02*
G75*
G02*
X139784155Y-101168317I11468J99384D01*
G01*
X147893961Y-99435252D02*
X146127328Y-97668620D01*
X143696358Y-107653006D02*
G75*
G02*
X144022427Y-108042062I-498762J-749182D01*
G01*
X143197567Y-99097981D02*
G75*
G02*
X143253005Y-99281242I29J-100007D01*
G01*
X141157230Y-108502145D02*
X143197568Y-108502145D01*
X145872772Y-97668620D02*
G75*
G02*
X146127328Y-97668620I127278J-127279D01*
G01*
X146127328Y-109931506D02*
G75*
G02*
X145872772Y-109931506I-127278J127279D01*
G01*
X152250050Y-103800063D02*
X152649250Y-103800063D01*
X141157230Y-108502145D02*
X141117181Y-108503811D01*
X137650000Y-73800000D02*
G75*
G02*
X142410780Y-68000000I8350000J-2000000D01*
G01*
X152400000Y-96399976D02*
X152400000Y-98076141D01*
X154349996Y-104799988D02*
X154339798Y-105349988D01*
X150800000Y-144399996D02*
X157100000Y-144400001D01*
X160700000Y-144399997D02*
G75*
G02*
X159900000Y-143599999I-2J799998D01*
G01*
X137650000Y-76800000D02*
X137660199Y-77350000D01*
X146400000Y-144400000D02*
X147200000Y-144400001D01*
X150842870Y-108502145D02*
X150882817Y-108503811D01*
X139386261Y-91149252D02*
G75*
G02*
X139250816Y-89901568I6613735J1349164D01*
G01*
X145872772Y-83668620D02*
G75*
G02*
X146127328Y-83668620I127278J-127279D01*
G01*
X152649250Y-89800063D02*
G75*
G02*
X152749312Y-89901567I-54J-100125D01*
G01*
X147977699Y-94042074D02*
G75*
G02*
X148303739Y-93653002I824897J-360114D01*
G01*
X139864828Y-87306672D02*
G75*
G02*
X140750115Y-88300063I-114732J-993416D01*
G01*
X150842870Y-94502145D02*
X150882821Y-94503823D01*
X151700050Y-90820063D02*
X151700050Y-90780063D01*
X150842869Y-85097981D02*
G75*
G02*
X152215866Y-87168350I-4842773J-4702007D01*
G01*
X152215881Y-87168344D02*
G75*
G02*
X152135271Y-87306667I-91985J-39044D01*
G01*
X143696358Y-85947120D02*
G75*
G02*
X143253020Y-85281265I-221662J332932D01*
G01*
X144022401Y-85558052D02*
G75*
G02*
X144106150Y-85435243I366595J-160036D01*
G01*
X152749288Y-89901567D02*
G75*
G02*
X152613868Y-91149130I-6749192J101479D01*
G01*
X152250050Y-89800063D02*
G75*
G02*
X151250121Y-88800063I46J999975D01*
G01*
X152517187Y-91296202D02*
X152613868Y-91149135D01*
X146127328Y-95931506D02*
G75*
G02*
X145872772Y-95931506I-127278J127279D01*
G01*
X139750052Y-89800063D02*
X139350804Y-89800063D01*
X151250050Y-88300063D02*
X151250050Y-88800063D01*
X140300050Y-90780062D02*
X140300050Y-90820064D01*
X148303742Y-93653006D02*
G75*
G02*
X148747121Y-94318923I221654J-332982D01*
G01*
X143252989Y-94318907D02*
G75*
G02*
X143197568Y-94502209I-55393J-83281D01*
G01*
X148802550Y-94502145D02*
G75*
G02*
X148747144Y-94318956I-54J99957D01*
G01*
X148303742Y-85947120D02*
G75*
G02*
X147977690Y-85558056I498754J749132D01*
G01*
X151250050Y-88300063D02*
G75*
G02*
X152135270Y-87306656I1000046J-25D01*
G01*
X151700050Y-90820063D02*
G75*
G02*
X151300050Y-91220042I-399954J-25D01*
G01*
X143252989Y-94318907D02*
G75*
G02*
X143696343Y-93653029I221707J332919D01*
G01*
X147893961Y-85435252D02*
X146127328Y-83668620D01*
X145872772Y-83668620D02*
X144106149Y-85435242D01*
X140300050Y-90780062D02*
G75*
G02*
X140700048Y-90380042I400046J-26D01*
G01*
X151300050Y-91220063D02*
X140700049Y-91220063D01*
X151300050Y-90380063D02*
X140700048Y-90380063D01*
X144022401Y-85558052D02*
G75*
G02*
X143696354Y-85947114I-824805J360064D01*
G01*
X152250050Y-89800063D02*
X152649250Y-89800063D01*
X148747111Y-85281219D02*
G75*
G02*
X148799585Y-85098003I55485J83231D01*
G01*
X140750050Y-88300063D02*
X140750050Y-88800063D01*
X140750050Y-88800063D02*
G75*
G02*
X139750052Y-89800042I-999954J-25D01*
G01*
X143197567Y-85097981D02*
G75*
G02*
X143253005Y-85281242I29J-100007D01*
G01*
X147977699Y-94042074D02*
G75*
G02*
X147896525Y-94162324I-367103J160286D01*
G01*
X144106148Y-94164883D02*
X145872772Y-95931506D01*
X151300050Y-90380063D02*
G75*
G02*
X151700121Y-90780063I46J-400025D01*
G01*
X141157230Y-94502145D02*
X143197568Y-94502145D01*
X148802550Y-94502145D02*
X150842870Y-94502145D01*
X141116348Y-94502144D02*
X141157230Y-94502145D01*
X148747111Y-85281219D02*
G75*
G02*
X148303706Y-85947174I-221715J-332969D01*
G01*
X139864828Y-87306672D02*
G75*
G02*
X139784155Y-87168317I11468J99384D01*
G01*
X146127328Y-95931506D02*
X147896518Y-94162317D01*
X147893961Y-85435252D02*
G75*
G02*
X147977690Y-85558056I-282765J-282736D01*
G01*
X150842869Y-85097981D02*
X148799584Y-85097981D01*
X139250813Y-89901567D02*
G75*
G02*
X139350804Y-89800094I99983J1479D01*
G01*
X140700049Y-91220063D02*
G75*
G02*
X140300121Y-90820064I47J399975D01*
G01*
X144106148Y-94164883D02*
G75*
G02*
X144022414Y-94042068I282848J282795D01*
G01*
X139784219Y-87168344D02*
G75*
G02*
X141157220Y-85097972I6215777J-2631644D01*
G01*
X143197567Y-85097981D02*
X141157229Y-85097981D01*
X143696358Y-93653006D02*
G75*
G02*
X144022427Y-94042062I-498762J-749182D01*
G01*
X139386262Y-91149252D02*
X139482823Y-91296201D01*
X143650405Y-70744377D02*
X141527536Y-70744377D01*
X148279957Y-79670051D02*
X147797439Y-80044942D01*
X147797437Y-71555081D02*
G75*
G02*
X147469750Y-71033648I552163J710681D01*
G01*
X144557328Y-80616051D02*
X145872732Y-81931455D01*
X144530278Y-71033650D02*
G75*
G02*
X144557343Y-70983988I97722J-21050D01*
G01*
X147469742Y-80566374D02*
G75*
G02*
X147443396Y-80615345I-98042J21174D01*
G01*
X143721120Y-80684939D02*
G75*
G02*
X143650405Y-80855571I-70720J-70661D01*
G01*
X152613774Y-77149241D02*
X152517187Y-77296202D01*
X148771190Y-71298554D02*
X148298512Y-70930362D01*
X141527535Y-80855647D02*
X141117185Y-80503782D01*
X143228827Y-80301467D02*
G75*
G02*
X143720027Y-79670064I245773J315567D01*
G01*
X148349610Y-80855647D02*
X150472484Y-80855647D01*
X150472486Y-70744377D02*
X148348487Y-70744377D01*
X150472487Y-70744377D02*
G75*
G02*
X152613774Y-77149241I-4472487J-5055623D01*
G01*
X144202582Y-80044943D02*
X143720047Y-79670038D01*
X144202582Y-80044943D02*
G75*
G02*
X144530249Y-80566380I-552182J-710657D01*
G01*
X148298779Y-80669455D02*
X148775611Y-80298026D01*
X147469742Y-80566374D02*
G75*
G02*
X147797461Y-80044970I879858J-189326D01*
G01*
X145872732Y-69668569D02*
X144557328Y-70983973D01*
X147797437Y-71555081D02*
X148279970Y-71929984D01*
X147442721Y-70984002D02*
X146127288Y-69668569D01*
X143228827Y-80301467D02*
X143721120Y-80684939D01*
X148279957Y-79670051D02*
G75*
G02*
X148775591Y-80298001I245443J-315849D01*
G01*
X147442721Y-70984002D02*
G75*
G02*
X147469713Y-71033656I-70521J-70498D01*
G01*
X144530278Y-71033650D02*
G75*
G02*
X144202592Y-71555093I-879878J189250D01*
G01*
X141527535Y-80855647D02*
X143650405Y-80855647D01*
X146127288Y-81931455D02*
X147443397Y-80615346D01*
X150472484Y-80855647D02*
X150882821Y-80503823D01*
X143701674Y-70930233D02*
X143228828Y-71298556D01*
X143720047Y-71929986D02*
X144202583Y-71555081D01*
X139386219Y-77149197D02*
G75*
G02*
X141527535Y-70744374I6613781J1349187D01*
G01*
X148349610Y-80855647D02*
G75*
G02*
X148298765Y-80669431I-10J100047D01*
G01*
X145872732Y-69668569D02*
G75*
G02*
X146127288Y-69668569I127278J-127279D01*
G01*
X143720047Y-71929986D02*
G75*
G02*
X143228785Y-71298500I-245447J315886D01*
G01*
X143650405Y-70744377D02*
G75*
G02*
X143701695Y-70930269I-5J-100023D01*
G01*
X146127288Y-81931455D02*
G75*
G02*
X145872732Y-81931455I-127278J127279D01*
G01*
X148298512Y-70930362D02*
G75*
G02*
X148348487Y-70744359I51188J85962D01*
G01*
X144557328Y-80616051D02*
G75*
G02*
X144530246Y-80566381I70672J70751D01*
G01*
X148771190Y-71298554D02*
G75*
G02*
X148279998Y-71929948I-245790J-315546D01*
G01*
X141527529Y-122855635D02*
X141117206Y-122503823D01*
X139386219Y-119149200D02*
X139482823Y-119296203D01*
X150550004Y-117220000D02*
X150550004Y-119600001D01*
X151700004Y-116820002D02*
G75*
G02*
X151320004Y-117219503I-400004J2D01*
G01*
X143650364Y-112744365D02*
G75*
G02*
X143701234Y-112930556I36J-100035D01*
G01*
X147469736Y-122566362D02*
G75*
G02*
X147797421Y-122044918I879864J-189238D01*
G01*
X147469736Y-122566362D02*
G75*
G02*
X147442670Y-122616023I-97736J21062D01*
G01*
X146127283Y-123931442D02*
X147442686Y-122616039D01*
X141450004Y-116000000D02*
G75*
G02*
X142450004Y-115000004I999996J0D01*
G01*
X148279967Y-113929974D02*
X147797432Y-113555069D01*
X143720044Y-121670029D02*
X144202577Y-122044931D01*
X140300004Y-116780000D02*
G75*
G02*
X140680004Y-116380504I399996J0D01*
G01*
X149550006Y-120600000D02*
X142450004Y-120600000D01*
X141450004Y-117220000D02*
X141450004Y-119600000D01*
X143720029Y-113929984D02*
G75*
G02*
X143224400Y-113301982I-245429J315884D01*
G01*
X148771187Y-113298545D02*
G75*
G02*
X148279988Y-113929947I-245787J-315555D01*
G01*
X146127283Y-123931442D02*
G75*
G02*
X145872722Y-123931447I-127283J127242D01*
G01*
X140680004Y-117219499D02*
G75*
G02*
X140300001Y-116820000I19996J399499D01*
G01*
X141450004Y-117220000D02*
X140680004Y-117220000D01*
X148298352Y-112930230D02*
G75*
G02*
X148349610Y-112744434I51248J85830D01*
G01*
X150550004Y-119600001D02*
G75*
G02*
X149550006Y-120600004I-1000004J1D01*
G01*
X148298340Y-122669779D02*
X148771187Y-122301455D01*
X150550004Y-116380000D02*
X150550004Y-115999998D01*
X141450004Y-116380000D02*
X141450004Y-116000000D01*
X141527529Y-122855635D02*
X143651569Y-122855635D01*
X144557293Y-122616010D02*
X145872726Y-123931443D01*
X143720029Y-113929984D02*
X144202576Y-113555070D01*
X147442686Y-112983961D02*
G75*
G02*
X147469758Y-113033633I-70686J-70739D01*
G01*
X148349609Y-122855635D02*
G75*
G02*
X148298304Y-122669718I-9J100035D01*
G01*
X139386218Y-119149200D02*
G75*
G02*
X141527528Y-112744364I6613782J1349200D01*
G01*
X148279967Y-121670026D02*
X147797431Y-122044931D01*
X147442686Y-112983961D02*
X146127282Y-111668557D01*
X151700004Y-116820002D02*
X151700004Y-116780001D01*
X151320004Y-117220000D02*
X150550004Y-117220000D01*
X149550005Y-115000000D02*
G75*
G02*
X150550000Y-115999998I-5J-1000000D01*
G01*
X143650364Y-112744365D02*
X141527528Y-112744365D01*
X150472479Y-122855635D02*
X150882821Y-122503822D01*
X143701502Y-122669650D02*
X143228824Y-122301458D01*
X150472481Y-112744364D02*
G75*
G02*
X152613782Y-119149235I-4472481J-5055636D01*
G01*
X144530272Y-113033638D02*
G75*
G02*
X144202588Y-113555086I-879872J189238D01*
G01*
X140300004Y-116780000D02*
X140300004Y-116820000D01*
X143701502Y-122669650D02*
G75*
G02*
X143651569Y-122855637I-51202J-85950D01*
G01*
X147797432Y-113555069D02*
G75*
G02*
X147469753Y-113033634I552168J710669D01*
G01*
X148279967Y-121670026D02*
G75*
G02*
X148771208Y-122301482I245433J-315874D01*
G01*
X144530272Y-113033638D02*
G75*
G02*
X144556598Y-112984647I98128J-21162D01*
G01*
X151320004Y-116380000D02*
X150550004Y-116380000D01*
X145872725Y-111668558D02*
X144556617Y-112984666D01*
X144202577Y-122044931D02*
G75*
G02*
X144530253Y-122566366I-552177J-710669D01*
G01*
X143701235Y-112930557D02*
X143224403Y-113301986D01*
X145872725Y-111668558D02*
G75*
G02*
X146127278Y-111668561I127275J-127242D01*
G01*
X151320004Y-116380501D02*
G75*
G02*
X151700000Y-116780001I-20004J-399499D01*
G01*
X148298352Y-112930230D02*
X148771187Y-113298545D01*
X143228824Y-122301458D02*
G75*
G02*
X143720017Y-121670063I245776J315558D01*
G01*
X141450004Y-116380000D02*
X140680004Y-116380000D01*
X142450004Y-120600000D02*
G75*
G02*
X141450000Y-119600000I-4J1000000D01*
G01*
X149550005Y-115000000D02*
X142450004Y-115000000D01*
X148349609Y-122855635D02*
X150472479Y-122855635D01*
X144557293Y-122616010D02*
G75*
G02*
X144530292Y-122566358I70507J70510D01*
G01*
X150472479Y-112744365D02*
X148349610Y-112744365D01*
X152517187Y-119296230D02*
X152613783Y-119149232D01*
X161100002Y-128200004D02*
G75*
G02*
X161899999Y-129000001I0J-799997D01*
G01*
X137650048Y-87800002D02*
G75*
G02*
X139600045Y-84076151I8350001J-1999998D01*
G01*
X120607237Y-80799976D02*
G75*
G02*
X121041230Y-80154187I797186J-67014D01*
G01*
X120607192Y-122799988D02*
G75*
G02*
X121041185Y-122154199I797186J-67014D01*
G01*
X133399996Y-124399988D02*
G75*
G02*
X132599996Y-125199988I-800000J0D01*
G01*
X120607237Y-80799983D02*
X120600041Y-82399976D01*
X120127906Y-92372186D02*
G75*
G02*
X118660243Y-91349988I-377861J1022198D01*
G01*
X118650045Y-87799988D02*
X118650045Y-90799988D01*
X135000000Y-142799999D02*
X139700000Y-142800000D01*
X121399996Y-125199988D02*
G75*
G02*
X120599996Y-124399988I0J800000D01*
G01*
X135339798Y-77349988D02*
G75*
G02*
X133872135Y-78372186I-1089802J0D01*
G01*
X132958807Y-94154175D02*
G75*
G02*
X133392801Y-94799964I-363193J-712803D01*
G01*
X118649995Y-115799990D02*
G75*
G02*
X120599992Y-112076139I8350001J-1999998D01*
G01*
X133400000Y-110399976D02*
X133400000Y-112076141D01*
X125100000Y-142800001D02*
X131400000Y-142799999D01*
X138200000Y-129000000D02*
G75*
G02*
X139000000Y-128199999I800001J0D01*
G01*
X135339798Y-119349988D02*
G75*
G02*
X133872135Y-120372186I-1089802J0D01*
G01*
X126000002Y-128200004D02*
X120700000Y-128200003D01*
X132200000Y-143600000D02*
G75*
G02*
X131399999Y-144400001I-800001J0D01*
G01*
X135349992Y-101799976D02*
X135349992Y-104799976D01*
X120607192Y-122799995D02*
X120599996Y-124399988D01*
X126999996Y-125199988D02*
X121399996Y-125199988D01*
X133399996Y-98076127D02*
G75*
G02*
X135349992Y-101799978I-6400004J-5723849D01*
G01*
X135341727Y-91349988D02*
G75*
G02*
X133866795Y-92372186I-1091682J0D01*
G01*
X120599988Y-96399964D02*
X120599992Y-98076123D01*
X133392853Y-80799983D02*
X133400049Y-82399976D01*
X129771186Y-71298542D02*
G75*
G02*
X129279994Y-71929936I-245790J-315546D01*
G01*
X125557324Y-80616039D02*
G75*
G02*
X125530242Y-80566369I70672J70751D01*
G01*
X129298508Y-70930350D02*
G75*
G02*
X129348483Y-70744347I51188J85962D01*
G01*
X127127284Y-81931443D02*
G75*
G02*
X126872728Y-81931443I-127278J127279D01*
G01*
X124650401Y-70744365D02*
G75*
G02*
X124701691Y-70930257I-5J-100023D01*
G01*
X124720043Y-71929974D02*
G75*
G02*
X124228781Y-71298488I-245447J315886D01*
G01*
X126872728Y-69668557D02*
G75*
G02*
X127127284Y-69668557I127278J-127279D01*
G01*
X129349606Y-80855635D02*
G75*
G02*
X129298761Y-80669419I-10J100047D01*
G01*
X120386215Y-77149185D02*
G75*
G02*
X122527531Y-70744362I6613781J1349187D01*
G01*
X124720043Y-71929974D02*
X125202579Y-71555069D01*
X124701670Y-70930221D02*
X124228824Y-71298544D01*
X131472480Y-80855635D02*
X131882817Y-80503811D01*
X127127284Y-81931443D02*
X128443393Y-80615334D01*
X122527531Y-80855635D02*
X124650401Y-80855635D01*
X125530274Y-71033638D02*
G75*
G02*
X125202588Y-71555081I-879878J189250D01*
G01*
X128442717Y-70983990D02*
G75*
G02*
X128469709Y-71033644I-70521J-70498D01*
G01*
X129279953Y-79670039D02*
G75*
G02*
X129775587Y-80297989I245443J-315849D01*
G01*
X124228823Y-80301455D02*
X124721116Y-80684927D01*
X128442717Y-70983990D02*
X127127284Y-69668557D01*
X128797433Y-71555069D02*
X129279966Y-71929972D01*
X126872728Y-69668557D02*
X125557324Y-70983961D01*
X128469738Y-80566362D02*
G75*
G02*
X128797457Y-80044958I879858J-189326D01*
G01*
X129298775Y-80669443D02*
X129775607Y-80298014D01*
X125202578Y-80044931D02*
G75*
G02*
X125530245Y-80566368I-552182J-710657D01*
G01*
X125202578Y-80044931D02*
X124720043Y-79670026D01*
X131472483Y-70744365D02*
G75*
G02*
X133613770Y-77149229I-4472487J-5055623D01*
G01*
X131472482Y-70744365D02*
X129348483Y-70744365D01*
X129349606Y-80855635D02*
X131472480Y-80855635D01*
X124228823Y-80301455D02*
G75*
G02*
X124720023Y-79670052I245773J315567D01*
G01*
X122527531Y-80855635D02*
X122117181Y-80503770D01*
X129771186Y-71298542D02*
X129298508Y-70930350D01*
X133613770Y-77149229D02*
X133517183Y-77296190D01*
X124721116Y-80684927D02*
G75*
G02*
X124650401Y-80855559I-70720J-70661D01*
G01*
X128469738Y-80566362D02*
G75*
G02*
X128443392Y-80615333I-98042J21174D01*
G01*
X125530274Y-71033638D02*
G75*
G02*
X125557339Y-70983976I97722J-21050D01*
G01*
X125557324Y-80616039D02*
X126872728Y-81931443D01*
X128797433Y-71555069D02*
G75*
G02*
X128469746Y-71033636I552163J710681D01*
G01*
X129279953Y-79670039D02*
X128797435Y-80044930D01*
X124650401Y-70744365D02*
X122527532Y-70744365D01*
X128800000Y-129000000D02*
G75*
G02*
X129600001Y-128199999I800001J0D01*
G01*
X135349996Y-118799988D02*
X135339798Y-119349988D01*
X133392800Y-122799995D02*
X133399996Y-124399988D01*
X135349996Y-115799988D02*
X135349996Y-118799988D01*
X129600001Y-128199999D02*
X135400000Y-128200004D01*
X120482819Y-77296189D02*
X120386211Y-77149185D01*
X135349996Y-73799988D02*
X135349996Y-76799988D01*
X120127857Y-78372186D02*
G75*
G02*
X118660194Y-77349988I-377861J1022198D01*
G01*
X135349996Y-76799988D02*
X135339798Y-77349988D01*
X118649992Y-104799976D02*
X118660190Y-105349922D01*
X120607188Y-108799983D02*
X120599992Y-110399976D01*
X120607184Y-94799964D02*
G75*
G02*
X121041177Y-94154175I797186J-67014D01*
G01*
X118649996Y-118799988D02*
X118660195Y-119349988D01*
X133400000Y-112076139D02*
G75*
G02*
X135349996Y-115799990I-6400004J-5723849D01*
G01*
X120127857Y-120372186D02*
G75*
G02*
X118660194Y-119349988I-377861J1022198D01*
G01*
X118649996Y-115799988D02*
X118649996Y-118799988D01*
X120599992Y-110399976D02*
X120599996Y-112076135D01*
X120700000Y-150400000D02*
X146400000Y-150400000D01*
X118649992Y-101799976D02*
X118649992Y-104799976D01*
X118649996Y-73799988D02*
G75*
G02*
X123410776Y-67999988I8350000J-2000000D01*
G01*
X133399996Y-96399964D02*
X133399996Y-98076129D01*
X135349992Y-104799976D02*
X135339794Y-105349976D01*
X125100000Y-144399996D02*
X131400000Y-144400001D01*
X120127853Y-106372174D02*
G75*
G02*
X118660190Y-105349976I-377861J1022198D01*
G01*
X120600041Y-82399976D02*
X120600045Y-84076135D01*
X135339794Y-105349976D02*
G75*
G02*
X133872131Y-106372174I-1089802J0D01*
G01*
X133400049Y-84076139D02*
G75*
G02*
X135350045Y-87799990I-6400004J-5723849D01*
G01*
X132958807Y-122154199D02*
G75*
G02*
X133392801Y-122799988I-363193J-712803D01*
G01*
X126000002Y-128200003D02*
G75*
G02*
X126800000Y-129000001I0J-799998D01*
G01*
X118649996Y-73799988D02*
X118649996Y-76799988D01*
X135000000Y-144399997D02*
X146400000Y-144400000D01*
X118649991Y-101799978D02*
G75*
G02*
X120599988Y-98076127I8350001J-1999998D01*
G01*
X125099998Y-144399996D02*
G75*
G02*
X124300001Y-143599999I0J799997D01*
G01*
X120700000Y-62000000D02*
X146400000Y-62000000D01*
X130589216Y-67999988D02*
G75*
G02*
X135349996Y-73799989I-3589220J-7800000D01*
G01*
X120607188Y-108799976D02*
G75*
G02*
X121041181Y-108154187I797186J-67014D01*
G01*
X120607184Y-94799971D02*
X120599988Y-96399964D01*
X133392800Y-94799971D02*
X133399996Y-96399964D01*
X133400049Y-82399976D02*
X133400049Y-84076141D01*
X122300001Y-143600000D02*
G75*
G02*
X121500000Y-144400002I-800002J0D01*
G01*
X126999996Y-125199988D02*
X132599996Y-125199988D01*
X139003098Y-128200006D02*
X146400000Y-128200003D01*
X133392804Y-108799983D02*
X133400000Y-110399976D01*
X120386258Y-91149240D02*
X120482819Y-91296189D01*
X124696354Y-93652994D02*
G75*
G02*
X125022423Y-94042050I-498762J-749182D01*
G01*
X124197563Y-85097969D02*
X122157225Y-85097969D01*
X120784215Y-87168332D02*
G75*
G02*
X122157216Y-85097960I6215777J-2631644D01*
G01*
X125106144Y-94164871D02*
G75*
G02*
X125022410Y-94042056I282848J282795D01*
G01*
X121700045Y-91220051D02*
G75*
G02*
X121300117Y-90820052I47J399975D01*
G01*
X120250809Y-89901555D02*
G75*
G02*
X120350800Y-89800082I99983J1479D01*
G01*
X131842865Y-85097969D02*
X129799580Y-85097969D01*
X128893957Y-85435240D02*
G75*
G02*
X128977686Y-85558044I-282765J-282736D01*
G01*
X127127324Y-95931494D02*
X128896514Y-94162305D01*
X120864824Y-87306660D02*
G75*
G02*
X120784151Y-87168305I11468J99384D01*
G01*
X129747107Y-85281207D02*
G75*
G02*
X129303702Y-85947162I-221715J-332969D01*
G01*
X122116344Y-94502132D02*
X122157226Y-94502133D01*
X129802546Y-94502133D02*
X131842866Y-94502133D01*
X122157226Y-94502133D02*
X124197564Y-94502133D01*
X132300046Y-90380051D02*
G75*
G02*
X132700117Y-90780051I46J-400025D01*
G01*
X125106144Y-94164871D02*
X126872768Y-95931494D01*
X128977695Y-94042062D02*
G75*
G02*
X128896521Y-94162312I-367103J160286D01*
G01*
X124197563Y-85097969D02*
G75*
G02*
X124253001Y-85281230I29J-100007D01*
G01*
X121750046Y-88800051D02*
G75*
G02*
X120750048Y-89800030I-999954J-25D01*
G01*
X121750046Y-88300051D02*
X121750046Y-88800051D01*
X129747107Y-85281207D02*
G75*
G02*
X129799581Y-85097991I55485J83231D01*
G01*
X133250046Y-89800051D02*
X133649246Y-89800051D01*
X125022397Y-85558040D02*
G75*
G02*
X124696350Y-85947102I-824805J360064D01*
G01*
X132300046Y-90380051D02*
X121700044Y-90380051D01*
X132300046Y-91220051D02*
X121700045Y-91220051D01*
X121300046Y-90780050D02*
G75*
G02*
X121700044Y-90380030I400046J-26D01*
G01*
X126872768Y-83668608D02*
X125106145Y-85435230D01*
X128893957Y-85435240D02*
X127127324Y-83668608D01*
X124252985Y-94318895D02*
G75*
G02*
X124696339Y-93653017I221707J332919D01*
G01*
X132250046Y-88300051D02*
G75*
G02*
X133135266Y-87306644I1000046J-25D01*
G01*
X129802546Y-94502133D02*
G75*
G02*
X129747140Y-94318944I-54J99957D01*
G01*
X129303738Y-93652994D02*
G75*
G02*
X129747117Y-94318911I221654J-332982D01*
G01*
X132250046Y-88300051D02*
X132250046Y-88800051D01*
X127127324Y-95931494D02*
G75*
G02*
X126872768Y-95931494I-127278J127279D01*
G01*
X133250046Y-89800051D02*
G75*
G02*
X132250117Y-88800051I46J999975D01*
G01*
X132700046Y-90820051D02*
G75*
G02*
X132300046Y-91220030I-399954J-25D01*
G01*
X129303738Y-85947108D02*
G75*
G02*
X128977686Y-85558044I498754J749132D01*
G01*
X124252985Y-94318895D02*
G75*
G02*
X124197564Y-94502197I-55393J-83281D01*
G01*
X121300046Y-90780050D02*
X121300046Y-90820052D01*
X120750048Y-89800051D02*
X120350800Y-89800051D01*
X133517183Y-91296190D02*
X133613864Y-91149123D01*
X133749284Y-89901555D02*
G75*
G02*
X133613864Y-91149118I-6749192J101479D01*
G01*
X125022397Y-85558040D02*
G75*
G02*
X125106146Y-85435231I366595J-160036D01*
G01*
X124696354Y-85947108D02*
G75*
G02*
X124253016Y-85281253I-221662J332932D01*
G01*
X133215877Y-87168332D02*
G75*
G02*
X133135267Y-87306655I-91985J-39044D01*
G01*
X131842865Y-85097969D02*
G75*
G02*
X133215862Y-87168338I-4842773J-4702007D01*
G01*
X132700046Y-90820051D02*
X132700046Y-90780051D01*
X131842866Y-94502133D02*
X131882817Y-94503811D01*
X120864824Y-87306660D02*
G75*
G02*
X121750111Y-88300051I-114732J-993416D01*
G01*
X128977695Y-94042062D02*
G75*
G02*
X129303735Y-93652990I824897J-360114D01*
G01*
X133649246Y-89800051D02*
G75*
G02*
X133749308Y-89901555I-54J-100125D01*
G01*
X126872768Y-83668608D02*
G75*
G02*
X127127324Y-83668608I127278J-127279D01*
G01*
X120386257Y-91149240D02*
G75*
G02*
X120250812Y-89901556I6613735J1349164D01*
G01*
X122157226Y-108502133D02*
X122117177Y-108503799D01*
X133250046Y-103800051D02*
X133649246Y-103800051D01*
X127127324Y-109931494D02*
G75*
G02*
X126872768Y-109931494I-127278J127279D01*
G01*
X126872768Y-97668608D02*
G75*
G02*
X127127324Y-97668608I127278J-127279D01*
G01*
X122157226Y-108502133D02*
X124197564Y-108502133D01*
X124197563Y-99097969D02*
G75*
G02*
X124253001Y-99281230I29J-100007D01*
G01*
X124696354Y-107652994D02*
G75*
G02*
X125022423Y-108042050I-498762J-749182D01*
G01*
X128893957Y-99435240D02*
X127127324Y-97668608D01*
X120864824Y-101306660D02*
G75*
G02*
X120784151Y-101168305I11468J99384D01*
G01*
X131842865Y-99097969D02*
G75*
G02*
X133215862Y-101168338I-4842773J-4702007D01*
G01*
X124252985Y-108318895D02*
G75*
G02*
X124197564Y-108502197I-55393J-83281D01*
G01*
X133649246Y-103800051D02*
G75*
G02*
X133749308Y-103901555I-54J-100125D01*
G01*
X128977695Y-108042062D02*
G75*
G02*
X129303735Y-107652990I824897J-360114D01*
G01*
X121750046Y-102800051D02*
G75*
G02*
X120750048Y-103800030I-999954J-25D01*
G01*
X125106144Y-108164871D02*
X126872768Y-109931494D01*
X127127324Y-109931494D02*
X128896514Y-108162305D01*
X128893957Y-99435240D02*
G75*
G02*
X128977686Y-99558044I-282765J-282736D01*
G01*
X120386257Y-105149237D02*
G75*
G02*
X120250812Y-103901552I6613735J1349161D01*
G01*
X125022397Y-99558040D02*
G75*
G02*
X124696350Y-99947102I-824805J360064D01*
G01*
X120350800Y-103800051D02*
X120750048Y-103800051D01*
X133749283Y-103901555D02*
G75*
G02*
X133613859Y-105149137I-6749191J101479D01*
G01*
X120784215Y-101168332D02*
G75*
G02*
X122157216Y-99097960I6215777J-2631644D01*
G01*
X126872768Y-97668608D02*
X125106145Y-99435230D01*
X129747107Y-99281207D02*
G75*
G02*
X129303702Y-99947162I-221715J-332969D01*
G01*
X124252985Y-108318895D02*
G75*
G02*
X124696339Y-107653017I221707J332919D01*
G01*
X129747107Y-99281207D02*
G75*
G02*
X129799581Y-99097991I55485J83231D01*
G01*
X133215877Y-101168332D02*
G75*
G02*
X133135267Y-101306655I-91985J-39044D01*
G01*
X129802546Y-108502133D02*
X131842866Y-108502133D01*
X128977695Y-108042062D02*
G75*
G02*
X128896521Y-108162312I-367103J160286D01*
G01*
X129303738Y-107652994D02*
G75*
G02*
X129747117Y-108318911I221654J-332982D01*
G01*
X120386257Y-105149236D02*
X120482814Y-105296177D01*
X120864824Y-101306660D02*
G75*
G02*
X121750111Y-102300051I-114732J-993416D01*
G01*
X129802546Y-108502133D02*
G75*
G02*
X129747140Y-108318944I-54J99957D01*
G01*
X129303738Y-99947108D02*
G75*
G02*
X128977686Y-99558044I498754J749132D01*
G01*
X125106144Y-108164871D02*
G75*
G02*
X125022410Y-108042056I282848J282795D01*
G01*
X120250809Y-103901555D02*
G75*
G02*
X120350800Y-103800082I99983J1479D01*
G01*
X121750046Y-102800051D02*
X121750046Y-102300051D01*
X124197563Y-99097969D02*
X122157225Y-99097969D01*
X133250046Y-103800051D02*
G75*
G02*
X132250117Y-102800051I46J999975D01*
G01*
X132250046Y-102300051D02*
X132250046Y-102800051D01*
X125022397Y-99558040D02*
G75*
G02*
X125106146Y-99435231I366595J-160036D01*
G01*
X124696354Y-99947108D02*
G75*
G02*
X124253016Y-99281253I-221662J332932D01*
G01*
X131842865Y-99097969D02*
X129799580Y-99097969D01*
X132250046Y-102300051D02*
G75*
G02*
X133135266Y-101306644I1000046J-25D01*
G01*
X139000000Y-129800001D02*
X139700000Y-129800000D01*
X121500000Y-130800000D02*
X121500000Y-129800000D01*
X144375000Y-138292906D02*
G75*
G02*
X144049995Y-137899998I75029J392935D01*
G01*
X121500000Y-142800000D02*
X121500000Y-141800000D01*
X144700000Y-133914200D02*
X144700000Y-131400000D01*
X144300000Y-131000000D02*
G75*
G02*
X144700000Y-131400000I29J-399971D01*
G01*
X129600000Y-129800001D02*
X135400002Y-129799999D01*
X140446409Y-131000000D02*
X144300000Y-131000000D01*
X139700000Y-141800000D02*
G75*
G02*
X140446469Y-141599965I400029J29D01*
G01*
X144374997Y-138292906D02*
G75*
G02*
X144700081Y-138685814I-74968J-392965D01*
G01*
X144050000Y-134700000D02*
G75*
G02*
X144374990Y-134307043I400029J29D01*
G01*
X140446410Y-131000000D02*
G75*
G02*
X139700040Y-130800000I-346381J200029D01*
G01*
X121500000Y-130800000D02*
G75*
G02*
X121100000Y-131199942I-399971J29D01*
G01*
X139700000Y-130800000D02*
X139700000Y-129800000D01*
X121100000Y-131200000D02*
X120700000Y-131200000D01*
X144700000Y-133914200D02*
G75*
G02*
X144374992Y-134307054I-399971J29D01*
G01*
X121100001Y-141400000D02*
X120700000Y-141400000D01*
X144700000Y-141200001D02*
X144700000Y-138685814D01*
X140446409Y-141600000D02*
X144300001Y-141600000D01*
X139700000Y-142800000D02*
X139700000Y-141800000D01*
X144050000Y-137899998D02*
X144050000Y-134700000D01*
X121100001Y-141400000D02*
G75*
G02*
X121500000Y-141800000I28J-399971D01*
G01*
X121500000Y-129800000D02*
X126000002Y-129799999D01*
X144700000Y-141200001D02*
G75*
G02*
X144300001Y-141599942I-399971J30D01*
G01*
X120700000Y-141400000D02*
X120700000Y-131200000D01*
X120700000Y-144400000D02*
X121500000Y-144400001D01*
X135400002Y-128200004D02*
G75*
G02*
X136199999Y-129000001I0J-799997D01*
G01*
X118650044Y-87799990D02*
G75*
G02*
X120600041Y-84076139I8350001J-1999998D01*
G01*
X135000000Y-144399997D02*
G75*
G02*
X134200000Y-143599999I-2J799998D01*
G01*
X118649996Y-76799988D02*
X118660195Y-77349988D01*
X132958860Y-80154187D02*
G75*
G02*
X133392854Y-80799976I-363193J-712803D01*
G01*
X133517183Y-119296218D02*
X133613779Y-119149220D01*
X131472475Y-112744353D02*
X129349606Y-112744353D01*
X125557289Y-122615998D02*
G75*
G02*
X125530288Y-122566346I70507J70510D01*
G01*
X129349605Y-122855623D02*
X131472475Y-122855623D01*
X130550001Y-114999988D02*
X123450000Y-114999988D01*
X123450000Y-120599988D02*
G75*
G02*
X122449996Y-119599988I-4J1000000D01*
G01*
X122450000Y-116379988D02*
X121680000Y-116379988D01*
X124228820Y-122301446D02*
G75*
G02*
X124720013Y-121670051I245776J315558D01*
G01*
X129298348Y-112930218D02*
X129771183Y-113298533D01*
X132320000Y-116380489D02*
G75*
G02*
X132699996Y-116779989I-20004J-399499D01*
G01*
X126872721Y-111668546D02*
G75*
G02*
X127127274Y-111668549I127275J-127242D01*
G01*
X124701231Y-112930545D02*
X124224399Y-113301974D01*
X125202573Y-122044919D02*
G75*
G02*
X125530249Y-122566354I-552177J-710669D01*
G01*
X126872721Y-111668546D02*
X125556613Y-112984654D01*
X132320000Y-116379988D02*
X131550000Y-116379988D01*
X125530268Y-113033626D02*
G75*
G02*
X125556594Y-112984635I98128J-21162D01*
G01*
X129279963Y-121670014D02*
G75*
G02*
X129771204Y-122301470I245433J-315874D01*
G01*
X128797428Y-113555057D02*
G75*
G02*
X128469749Y-113033622I552168J710669D01*
G01*
X124701498Y-122669638D02*
G75*
G02*
X124651565Y-122855625I-51202J-85950D01*
G01*
X121300000Y-116779988D02*
X121300000Y-116819988D01*
X125530268Y-113033626D02*
G75*
G02*
X125202584Y-113555074I-879872J189238D01*
G01*
X131472477Y-112744352D02*
G75*
G02*
X133613778Y-119149223I-4472481J-5055636D01*
G01*
X124701498Y-122669638D02*
X124228820Y-122301446D01*
X131472475Y-122855623D02*
X131882817Y-122503810D01*
X124650360Y-112744353D02*
X122527524Y-112744353D01*
X130550001Y-114999988D02*
G75*
G02*
X131549996Y-115999986I-5J-1000000D01*
G01*
X132320000Y-117219988D02*
X131550000Y-117219988D01*
X132700000Y-116819990D02*
X132700000Y-116779989D01*
X128442682Y-112983949D02*
X127127278Y-111668545D01*
X129279963Y-121670014D02*
X128797427Y-122044919D01*
X120386214Y-119149188D02*
G75*
G02*
X122527524Y-112744352I6613782J1349200D01*
G01*
X129349605Y-122855623D02*
G75*
G02*
X129298300Y-122669706I-9J100035D01*
G01*
X128442682Y-112983949D02*
G75*
G02*
X128469754Y-113033621I-70686J-70739D01*
G01*
X124720025Y-113929972D02*
X125202572Y-113555058D01*
X125557289Y-122615998D02*
X126872722Y-123931431D01*
X122527525Y-122855623D02*
X124651565Y-122855623D01*
X122450000Y-116379988D02*
X122450000Y-115999988D01*
X131550000Y-116379988D02*
X131550000Y-115999986D01*
X129298336Y-122669767D02*
X129771183Y-122301443D01*
X131550000Y-119599989D02*
G75*
G02*
X130550002Y-120599992I-1000004J1D01*
G01*
X129298348Y-112930218D02*
G75*
G02*
X129349606Y-112744422I51248J85830D01*
G01*
X122450000Y-117219988D02*
X121680000Y-117219988D01*
X121680000Y-117219487D02*
G75*
G02*
X121299997Y-116819988I19996J399499D01*
G01*
X127127279Y-123931430D02*
G75*
G02*
X126872718Y-123931435I-127283J127242D01*
G01*
X129771183Y-113298533D02*
G75*
G02*
X129279984Y-113929935I-245787J-315555D01*
G01*
X124720025Y-113929972D02*
G75*
G02*
X124224396Y-113301970I-245429J315884D01*
G01*
X122450000Y-117219988D02*
X122450000Y-119599988D01*
X130550002Y-120599988D02*
X123450000Y-120599988D01*
X121300000Y-116779988D02*
G75*
G02*
X121680000Y-116380492I399996J0D01*
G01*
X124720040Y-121670017D02*
X125202573Y-122044919D01*
X129279963Y-113929962D02*
X128797428Y-113555057D01*
X122450000Y-115999988D02*
G75*
G02*
X123450000Y-114999992I999996J0D01*
G01*
X127127279Y-123931430D02*
X128442682Y-122616027D01*
X128469732Y-122566350D02*
G75*
G02*
X128442666Y-122616011I-97736J21062D01*
G01*
X128469732Y-122566350D02*
G75*
G02*
X128797417Y-122044906I879864J-189238D01*
G01*
X124650360Y-112744353D02*
G75*
G02*
X124701230Y-112930544I36J-100035D01*
G01*
X132700000Y-116819990D02*
G75*
G02*
X132320000Y-117219491I-400004J2D01*
G01*
X131550000Y-117219988D02*
X131550000Y-119599989D01*
X120386215Y-119149188D02*
X120482819Y-119296191D01*
X122527525Y-122855623D02*
X122117202Y-122503811D01*
X131842866Y-108502133D02*
X131882813Y-108503799D01*
X133613859Y-105149143D02*
X133517179Y-105296246D01*
X132958811Y-108154187D02*
G75*
G02*
X133392805Y-108799976I-363193J-712803D01*
G01*
X135350045Y-87799988D02*
X135350045Y-90799988D01*
X130589216Y-67999989D02*
X123410778Y-67999988D01*
X118650045Y-90799988D02*
X118660182Y-91346666D01*
X135350045Y-90799988D02*
X135341727Y-91349988D01*
X101127910Y-92372198D02*
G75*
G02*
X99660247Y-91350000I-377861J1022198D01*
G01*
X113303098Y-128200006D02*
X120700000Y-128200003D01*
X100300002Y-128200004D02*
X95000000Y-128200003D01*
X95000000Y-62000000D02*
X120700000Y-62000000D01*
X111589220Y-68000001D02*
X104410782Y-68000000D01*
X99650000Y-73800000D02*
G75*
G02*
X104410780Y-68000000I8350000J-2000000D01*
G01*
X101127861Y-78372198D02*
G75*
G02*
X99660198Y-77350000I-377861J1022198D01*
G01*
X99650000Y-73800000D02*
X99650000Y-76800000D01*
X116339802Y-77350000D02*
G75*
G02*
X114872139Y-78372198I-1089802J0D01*
G01*
X111589220Y-68000000D02*
G75*
G02*
X116350000Y-73800001I-3589220J-7800000D01*
G01*
X116350000Y-73800000D02*
X116350000Y-76800000D01*
X99650000Y-76800000D02*
X99660199Y-77350000D01*
X116350000Y-76800000D02*
X116339802Y-77350000D01*
X113958864Y-80154199D02*
G75*
G02*
X114392858Y-80799988I-363193J-712803D01*
G01*
X116350049Y-87800000D02*
X116350049Y-90800000D01*
X114400053Y-84076151D02*
G75*
G02*
X116350049Y-87800002I-6400004J-5723849D01*
G01*
X101600045Y-82399988D02*
X101600049Y-84076147D01*
X99650049Y-90800000D02*
X99660186Y-91346678D01*
X101607241Y-80799988D02*
G75*
G02*
X102041234Y-80154199I797186J-67014D01*
G01*
X99650049Y-87800000D02*
X99650049Y-90800000D01*
X114400053Y-82399988D02*
X114400053Y-84076153D01*
X116350049Y-90800000D02*
X116341731Y-91350000D01*
X116341731Y-91350000D02*
G75*
G02*
X114866799Y-92372198I-1091682J0D01*
G01*
X99650048Y-87800002D02*
G75*
G02*
X101600045Y-84076151I8350001J-1999998D01*
G01*
X101607241Y-80799995D02*
X101600045Y-82399988D01*
X114392857Y-80799995D02*
X114400053Y-82399988D01*
X99649995Y-101799990D02*
G75*
G02*
X101599992Y-98076139I8350001J-1999998D01*
G01*
X114400000Y-96399976D02*
X114400000Y-98076141D01*
X116339798Y-105349988D02*
G75*
G02*
X114872135Y-106372186I-1089802J0D01*
G01*
X116349996Y-104799988D02*
X116339798Y-105349988D01*
X116349996Y-101799988D02*
X116349996Y-104799988D01*
X101607188Y-94799983D02*
X101599992Y-96399976D01*
X99649996Y-104799988D02*
X99660194Y-105349934D01*
X114400000Y-98076139D02*
G75*
G02*
X116349996Y-101799990I-6400004J-5723849D01*
G01*
X101127857Y-106372186D02*
G75*
G02*
X99660194Y-105349988I-377861J1022198D01*
G01*
X99649996Y-101799988D02*
X99649996Y-104799988D01*
X101599992Y-96399976D02*
X101599996Y-98076135D01*
X101607188Y-94799976D02*
G75*
G02*
X102041181Y-94154187I797186J-67014D01*
G01*
X114392804Y-94799983D02*
X114400000Y-96399976D01*
X113958811Y-94154187D02*
G75*
G02*
X114392805Y-94799976I-363193J-712803D01*
G01*
X116350000Y-118800000D02*
X116339802Y-119350000D01*
X108000000Y-125200000D02*
X113600000Y-125200000D01*
X114392808Y-108799995D02*
X114400004Y-110399988D01*
X114613863Y-105149155D02*
X114517183Y-105296258D01*
X112842870Y-108502145D02*
X112882817Y-108503811D01*
X103157230Y-108502145D02*
X103117181Y-108503811D01*
X114250050Y-103800063D02*
X114649250Y-103800063D01*
X108127328Y-109931506D02*
G75*
G02*
X107872772Y-109931506I-127278J127279D01*
G01*
X107872772Y-97668620D02*
G75*
G02*
X108127328Y-97668620I127278J-127279D01*
G01*
X103157230Y-108502145D02*
X105197568Y-108502145D01*
X105197567Y-99097981D02*
G75*
G02*
X105253005Y-99281242I29J-100007D01*
G01*
X105696358Y-107653006D02*
G75*
G02*
X106022427Y-108042062I-498762J-749182D01*
G01*
X106022401Y-99558052D02*
G75*
G02*
X105696354Y-99947114I-824805J360064D01*
G01*
X101350804Y-103800063D02*
X101750052Y-103800063D01*
X109893961Y-99435252D02*
X108127328Y-97668620D01*
X114749287Y-103901567D02*
G75*
G02*
X114613863Y-105149149I-6749191J101479D01*
G01*
X101784219Y-101168344D02*
G75*
G02*
X103157220Y-99097972I6215777J-2631644D01*
G01*
X107872772Y-97668620D02*
X106106149Y-99435242D01*
X101864828Y-101306672D02*
G75*
G02*
X101784155Y-101168317I11468J99384D01*
G01*
X112842869Y-99097981D02*
G75*
G02*
X114215866Y-101168350I-4842773J-4702007D01*
G01*
X110747111Y-99281219D02*
G75*
G02*
X110303706Y-99947174I-221715J-332969D01*
G01*
X105252989Y-108318907D02*
G75*
G02*
X105696343Y-107653029I221707J332919D01*
G01*
X110747111Y-99281219D02*
G75*
G02*
X110799585Y-99098003I55485J83231D01*
G01*
X114215881Y-101168344D02*
G75*
G02*
X114135271Y-101306667I-91985J-39044D01*
G01*
X110802550Y-108502145D02*
X112842870Y-108502145D01*
X105252989Y-108318907D02*
G75*
G02*
X105197568Y-108502209I-55393J-83281D01*
G01*
X114649250Y-103800063D02*
G75*
G02*
X114749312Y-103901567I-54J-100125D01*
G01*
X109977699Y-108042074D02*
G75*
G02*
X109896525Y-108162324I-367103J160286D01*
G01*
X110303742Y-107653006D02*
G75*
G02*
X110747121Y-108318923I221654J-332982D01*
G01*
X109977699Y-108042074D02*
G75*
G02*
X110303739Y-107653002I824897J-360114D01*
G01*
X101386261Y-105149248D02*
X101482818Y-105296189D01*
X101864828Y-101306672D02*
G75*
G02*
X102750115Y-102300063I-114732J-993416D01*
G01*
X110802550Y-108502145D02*
G75*
G02*
X110747144Y-108318956I-54J99957D01*
G01*
X110303742Y-99947120D02*
G75*
G02*
X109977690Y-99558056I498754J749132D01*
G01*
X106106148Y-108164883D02*
G75*
G02*
X106022414Y-108042068I282848J282795D01*
G01*
X101250813Y-103901567D02*
G75*
G02*
X101350804Y-103800094I99983J1479D01*
G01*
X102750050Y-102800063D02*
X102750050Y-102300063D01*
X105197567Y-99097981D02*
X103157229Y-99097981D01*
X102750050Y-102800063D02*
G75*
G02*
X101750052Y-103800042I-999954J-25D01*
G01*
X114250050Y-103800063D02*
G75*
G02*
X113250121Y-102800063I46J999975D01*
G01*
X113250050Y-102300063D02*
X113250050Y-102800063D01*
X106106148Y-108164883D02*
X107872772Y-109931506D01*
X108127328Y-109931506D02*
X109896518Y-108162317D01*
X106022401Y-99558052D02*
G75*
G02*
X106106150Y-99435243I366595J-160036D01*
G01*
X105696358Y-99947120D02*
G75*
G02*
X105253020Y-99281265I-221662J332932D01*
G01*
X112842869Y-99097981D02*
X110799584Y-99097981D01*
X113250050Y-102300063D02*
G75*
G02*
X114135270Y-101306656I1000046J-25D01*
G01*
X109893961Y-99435252D02*
G75*
G02*
X109977690Y-99558056I-282765J-282736D01*
G01*
X101386261Y-105149249D02*
G75*
G02*
X101250816Y-103901564I6613735J1349161D01*
G01*
X103900001Y-128199999D02*
X109700000Y-128200004D01*
X109300000Y-144399997D02*
X120700000Y-144400000D01*
X99400000Y-144399996D02*
X105700000Y-144400001D01*
X95000000Y-150400000D02*
X120700000Y-150400000D01*
X95000000Y-144400000D02*
X95800000Y-144400001D01*
X109300000Y-144399997D02*
G75*
G02*
X108500000Y-143599999I-2J799998D01*
G01*
X106500000Y-143600000D02*
G75*
G02*
X105699999Y-144400001I-800001J0D01*
G01*
X96600001Y-143600000D02*
G75*
G02*
X95800000Y-144400002I-800002J0D01*
G01*
X99399998Y-144399996D02*
G75*
G02*
X98600001Y-143599999I0J799997D01*
G01*
X112500000Y-129000000D02*
G75*
G02*
X113300000Y-128199999I800001J0D01*
G01*
X109700002Y-128200004D02*
G75*
G02*
X110499999Y-129000001I0J-799997D01*
G01*
X103100000Y-129000000D02*
G75*
G02*
X103900001Y-128199999I800001J0D01*
G01*
X100300002Y-128200003D02*
G75*
G02*
X101100000Y-129000001I0J-799998D01*
G01*
X109300000Y-142799999D02*
X114000000Y-142800000D01*
X99400000Y-142800001D02*
X105700000Y-142799999D01*
X113300000Y-129800001D02*
X114000000Y-129800000D01*
X103900000Y-129800001D02*
X109700002Y-129799999D01*
X114517187Y-119296230D02*
X114613783Y-119149232D01*
X112472479Y-122855635D02*
X112882821Y-122503822D01*
X103527529Y-122855635D02*
X103117206Y-122503823D01*
X101386219Y-119149200D02*
X101482823Y-119296203D01*
X101482823Y-77296201D02*
X101386215Y-77149197D01*
X103527535Y-80855647D02*
X103117185Y-80503782D01*
X112472484Y-80855647D02*
X112882821Y-80503823D01*
X114613774Y-77149241D02*
X114517187Y-77296202D01*
X101386262Y-91149252D02*
X101482823Y-91296201D01*
X105197567Y-85097981D02*
X103157229Y-85097981D01*
X106106148Y-94164883D02*
G75*
G02*
X106022414Y-94042068I282848J282795D01*
G01*
X112842869Y-85097981D02*
X110799584Y-85097981D01*
X108127328Y-95931506D02*
X109896518Y-94162317D01*
X114517187Y-91296202D02*
X114613868Y-91149135D01*
X114749288Y-89901567D02*
G75*
G02*
X114613868Y-91149130I-6749192J101479D01*
G01*
X102700049Y-91220063D02*
G75*
G02*
X102300121Y-90820064I47J399975D01*
G01*
X106022401Y-85558052D02*
G75*
G02*
X106106150Y-85435243I366595J-160036D01*
G01*
X105696358Y-85947120D02*
G75*
G02*
X105253020Y-85281265I-221662J332932D01*
G01*
X114215881Y-87168344D02*
G75*
G02*
X114135271Y-87306667I-91985J-39044D01*
G01*
X110747111Y-85281219D02*
G75*
G02*
X110303706Y-85947174I-221715J-332969D01*
G01*
X112842869Y-85097981D02*
G75*
G02*
X114215866Y-87168350I-4842773J-4702007D01*
G01*
X113700050Y-90820063D02*
X113700050Y-90780063D01*
X110802550Y-94502145D02*
X112842870Y-94502145D01*
X113300050Y-90380063D02*
G75*
G02*
X113700121Y-90780063I46J-400025D01*
G01*
X109977699Y-94042074D02*
G75*
G02*
X109896525Y-94162324I-367103J160286D01*
G01*
X102750050Y-88800063D02*
G75*
G02*
X101750052Y-89800042I-999954J-25D01*
G01*
X110747111Y-85281219D02*
G75*
G02*
X110799585Y-85098003I55485J83231D01*
G01*
X106022401Y-85558052D02*
G75*
G02*
X105696354Y-85947114I-824805J360064D01*
G01*
X113300050Y-90380063D02*
X102700048Y-90380063D01*
X112842870Y-94502145D02*
X112882821Y-94503823D01*
X101864828Y-87306672D02*
G75*
G02*
X102750115Y-88300063I-114732J-993416D01*
G01*
X113300050Y-91220063D02*
X102700049Y-91220063D01*
X102300050Y-90780062D02*
G75*
G02*
X102700048Y-90380042I400046J-26D01*
G01*
X107872772Y-83668620D02*
X106106149Y-85435242D01*
X109893961Y-85435252D02*
X108127328Y-83668620D01*
X109977699Y-94042074D02*
G75*
G02*
X110303739Y-93653002I824897J-360114D01*
G01*
X114649250Y-89800063D02*
G75*
G02*
X114749312Y-89901567I-54J-100125D01*
G01*
X107872772Y-83668620D02*
G75*
G02*
X108127328Y-83668620I127278J-127279D01*
G01*
X101386261Y-91149252D02*
G75*
G02*
X101250816Y-89901568I6613735J1349164D01*
G01*
X105696358Y-93653006D02*
G75*
G02*
X106022427Y-94042062I-498762J-749182D01*
G01*
X105252989Y-94318907D02*
G75*
G02*
X105696343Y-93653029I221707J332919D01*
G01*
X101784219Y-87168344D02*
G75*
G02*
X103157220Y-85097972I6215777J-2631644D01*
G01*
X101250813Y-89901567D02*
G75*
G02*
X101350804Y-89800094I99983J1479D01*
G01*
X113250050Y-88300063D02*
G75*
G02*
X114135270Y-87306656I1000046J-25D01*
G01*
X110802550Y-94502145D02*
G75*
G02*
X110747144Y-94318956I-54J99957D01*
G01*
X109893961Y-85435252D02*
G75*
G02*
X109977690Y-85558056I-282765J-282736D01*
G01*
X101864828Y-87306672D02*
G75*
G02*
X101784155Y-87168317I11468J99384D01*
G01*
X110303742Y-93653006D02*
G75*
G02*
X110747121Y-94318923I221654J-332982D01*
G01*
X113250050Y-88300063D02*
X113250050Y-88800063D01*
X103116348Y-94502144D02*
X103157230Y-94502145D01*
X103157230Y-94502145D02*
X105197568Y-94502145D01*
X108127328Y-95931506D02*
G75*
G02*
X107872772Y-95931506I-127278J127279D01*
G01*
X114250050Y-89800063D02*
G75*
G02*
X113250121Y-88800063I46J999975D01*
G01*
X113700050Y-90820063D02*
G75*
G02*
X113300050Y-91220042I-399954J-25D01*
G01*
X110303742Y-85947120D02*
G75*
G02*
X109977690Y-85558056I498754J749132D01*
G01*
X105252989Y-94318907D02*
G75*
G02*
X105197568Y-94502209I-55393J-83281D01*
G01*
X102300050Y-90780062D02*
X102300050Y-90820064D01*
X106106148Y-94164883D02*
X107872772Y-95931506D01*
X105197567Y-85097981D02*
G75*
G02*
X105253005Y-85281242I29J-100007D01*
G01*
X101750052Y-89800063D02*
X101350804Y-89800063D01*
X102750050Y-88300063D02*
X102750050Y-88800063D01*
X114250050Y-89800063D02*
X114649250Y-89800063D01*
X95800000Y-130800000D02*
G75*
G02*
X95400000Y-131199942I-399971J29D01*
G01*
X106530278Y-71033650D02*
G75*
G02*
X106202592Y-71555093I-879878J189250D01*
G01*
X114000000Y-130800000D02*
X114000000Y-129800000D01*
X95800000Y-142800000D02*
X95800000Y-141800000D01*
X105720047Y-71929986D02*
G75*
G02*
X105228785Y-71298500I-245447J315886D01*
G01*
X95400000Y-131200000D02*
X95000000Y-131200000D01*
X103527535Y-80855647D02*
X105650405Y-80855647D01*
X105720047Y-71929986D02*
X106202583Y-71555081D01*
X119000000Y-141200001D02*
X119000000Y-138685814D01*
X110298779Y-80669455D02*
X110775611Y-80298026D01*
X109797437Y-71555081D02*
X110279970Y-71929984D01*
X101386219Y-77149197D02*
G75*
G02*
X103527535Y-70744374I6613781J1349187D01*
G01*
X114746409Y-141600000D02*
X118600001Y-141600000D01*
X95800000Y-129800000D02*
X100300002Y-129799999D01*
X112472486Y-70744377D02*
X110348487Y-70744377D01*
X107872732Y-69668569D02*
G75*
G02*
X108127288Y-69668569I127278J-127279D01*
G01*
X105650405Y-70744377D02*
G75*
G02*
X105701695Y-70930269I-5J-100023D01*
G01*
X95000000Y-141400000D02*
X95000000Y-131200000D01*
X105701674Y-70930233D02*
X105228828Y-71298556D01*
X109442721Y-70984002D02*
G75*
G02*
X109469713Y-71033656I-70521J-70498D01*
G01*
X107872732Y-69668569D02*
X106557328Y-70983973D01*
X106202582Y-80044943D02*
G75*
G02*
X106530249Y-80566380I-552182J-710657D01*
G01*
X109442721Y-70984002D02*
X108127288Y-69668569D01*
X95400001Y-141400000D02*
X95000000Y-141400000D01*
X110349610Y-80855647D02*
X112472484Y-80855647D01*
X105228827Y-80301467D02*
G75*
G02*
X105720027Y-79670064I245773J315567D01*
G01*
X105721120Y-80684939D02*
G75*
G02*
X105650405Y-80855571I-70720J-70661D01*
G01*
X110349610Y-80855647D02*
G75*
G02*
X110298765Y-80669431I-10J100047D01*
G01*
X118600000Y-131000000D02*
G75*
G02*
X119000000Y-131400000I29J-399971D01*
G01*
X118350000Y-137899998D02*
X118350000Y-134700000D01*
X109469742Y-80566374D02*
G75*
G02*
X109443396Y-80615345I-98042J21174D01*
G01*
X106530278Y-71033650D02*
G75*
G02*
X106557343Y-70983988I97722J-21050D01*
G01*
X95800000Y-130800000D02*
X95800000Y-129800000D01*
X108127288Y-81931455D02*
X109443397Y-80615346D01*
X114746410Y-131000000D02*
G75*
G02*
X114000040Y-130800000I-346381J200029D01*
G01*
X110279957Y-79670051D02*
G75*
G02*
X110775591Y-80298001I245443J-315849D01*
G01*
X112472487Y-70744377D02*
G75*
G02*
X114613774Y-77149241I-4472487J-5055623D01*
G01*
X109797437Y-71555081D02*
G75*
G02*
X109469750Y-71033648I552163J710681D01*
G01*
X95400001Y-141400000D02*
G75*
G02*
X95800000Y-141800000I28J-399971D01*
G01*
X110771190Y-71298554D02*
X110298512Y-70930362D01*
X110279957Y-79670051D02*
X109797439Y-80044942D01*
X105650405Y-70744377D02*
X103527536Y-70744377D01*
X108127288Y-81931455D02*
G75*
G02*
X107872732Y-81931455I-127278J127279D01*
G01*
X114000000Y-142800000D02*
X114000000Y-141800000D01*
X106202582Y-80044943D02*
X105720047Y-79670038D01*
X106557328Y-80616051D02*
X107872732Y-81931455D01*
X118350000Y-134700000D02*
G75*
G02*
X118674990Y-134307043I400029J29D01*
G01*
X110298512Y-70930362D02*
G75*
G02*
X110348487Y-70744359I51188J85962D01*
G01*
X118674997Y-138292906D02*
G75*
G02*
X119000081Y-138685814I-74968J-392965D01*
G01*
X114000000Y-141800000D02*
G75*
G02*
X114746469Y-141599965I400029J29D01*
G01*
X106557328Y-80616051D02*
G75*
G02*
X106530246Y-80566381I70672J70751D01*
G01*
X114746409Y-131000000D02*
X118600000Y-131000000D01*
X119000000Y-133914200D02*
G75*
G02*
X118674992Y-134307054I-399971J29D01*
G01*
X119000000Y-133914200D02*
X119000000Y-131400000D01*
X119000000Y-141200001D02*
G75*
G02*
X118600001Y-141599942I-399971J30D01*
G01*
X109469742Y-80566374D02*
G75*
G02*
X109797461Y-80044970I879858J-189326D01*
G01*
X105228827Y-80301467D02*
X105721120Y-80684939D01*
X118675000Y-138292906D02*
G75*
G02*
X118349995Y-137899998I75029J392935D01*
G01*
X110771190Y-71298554D02*
G75*
G02*
X110279998Y-71929948I-245790J-315546D01*
G01*
X107872725Y-111668558D02*
X106556617Y-112984666D01*
X105701502Y-122669650D02*
G75*
G02*
X105651569Y-122855637I-51202J-85950D01*
G01*
X102300004Y-116780000D02*
X102300004Y-116820000D01*
X105650364Y-112744365D02*
X103527528Y-112744365D01*
X109797432Y-113555069D02*
G75*
G02*
X109469753Y-113033634I552168J710669D01*
G01*
X112472481Y-112744364D02*
G75*
G02*
X114613782Y-119149235I-4472481J-5055636D01*
G01*
X106557293Y-122616010D02*
X107872726Y-123931443D01*
X110279967Y-121670026D02*
G75*
G02*
X110771208Y-122301482I245433J-315874D01*
G01*
X105701502Y-122669650D02*
X105228824Y-122301458D01*
X103527529Y-122855635D02*
X105651569Y-122855635D01*
X113700004Y-116820002D02*
X113700004Y-116780001D01*
X113320004Y-117220000D02*
X112550004Y-117220000D01*
X113320004Y-116380000D02*
X112550004Y-116380000D01*
X106530272Y-113033638D02*
G75*
G02*
X106556598Y-112984647I98128J-21162D01*
G01*
X105701235Y-112930557D02*
X105224403Y-113301986D01*
X103450004Y-116380000D02*
X103450004Y-116000000D01*
X110298352Y-112930230D02*
X110771187Y-113298545D01*
X106530272Y-113033638D02*
G75*
G02*
X106202588Y-113555086I-879872J189238D01*
G01*
X109442686Y-112983961D02*
G75*
G02*
X109469758Y-113033633I-70686J-70739D01*
G01*
X103450004Y-116380000D02*
X102680004Y-116380000D01*
X111550005Y-115000000D02*
X104450004Y-115000000D01*
X110349609Y-122855635D02*
X112472479Y-122855635D01*
X105228824Y-122301458D02*
G75*
G02*
X105720017Y-121670063I245776J315558D01*
G01*
X104450004Y-120600000D02*
G75*
G02*
X103450000Y-119600000I-4J1000000D01*
G01*
X105720029Y-113929984D02*
X106202576Y-113555070D01*
X113320004Y-116380501D02*
G75*
G02*
X113700000Y-116780001I-20004J-399499D01*
G01*
X110279967Y-113929974D02*
X109797432Y-113555069D01*
X112472479Y-112744365D02*
X110349610Y-112744365D01*
X111550005Y-115000000D02*
G75*
G02*
X112550000Y-115999998I-5J-1000000D01*
G01*
X106557293Y-122616010D02*
G75*
G02*
X106530292Y-122566358I70507J70510D01*
G01*
X103450004Y-117220000D02*
X102680004Y-117220000D01*
X112550004Y-119600001D02*
G75*
G02*
X111550006Y-120600004I-1000004J1D01*
G01*
X112550004Y-116380000D02*
X112550004Y-115999998D01*
X110298352Y-112930230D02*
G75*
G02*
X110349610Y-112744434I51248J85830D01*
G01*
X109442686Y-112983961D02*
X108127282Y-111668557D01*
X107872725Y-111668558D02*
G75*
G02*
X108127278Y-111668561I127275J-127242D01*
G01*
X108127283Y-123931442D02*
G75*
G02*
X107872722Y-123931447I-127283J127242D01*
G01*
X110279967Y-121670026D02*
X109797431Y-122044931D01*
X110298340Y-122669779D02*
X110771187Y-122301455D01*
X110349609Y-122855635D02*
G75*
G02*
X110298304Y-122669718I-9J100035D01*
G01*
X110771187Y-113298545D02*
G75*
G02*
X110279988Y-113929947I-245787J-315555D01*
G01*
X106202577Y-122044931D02*
G75*
G02*
X106530253Y-122566366I-552177J-710669D01*
G01*
X103450004Y-117220000D02*
X103450004Y-119600000D01*
X101386218Y-119149200D02*
G75*
G02*
X103527528Y-112744364I6613782J1349200D01*
G01*
X109469736Y-122566362D02*
G75*
G02*
X109797421Y-122044918I879864J-189238D01*
G01*
X105720044Y-121670029D02*
X106202577Y-122044931D01*
X103450004Y-116000000D02*
G75*
G02*
X104450004Y-115000004I999996J0D01*
G01*
X108127283Y-123931442D02*
X109442686Y-122616039D01*
X109469736Y-122566362D02*
G75*
G02*
X109442670Y-122616023I-97736J21062D01*
G01*
X105650364Y-112744365D02*
G75*
G02*
X105701234Y-112930556I36J-100035D01*
G01*
X111550006Y-120600000D02*
X104450004Y-120600000D01*
X105720029Y-113929984D02*
G75*
G02*
X105224400Y-113301982I-245429J315884D01*
G01*
X113700004Y-116820002D02*
G75*
G02*
X113320004Y-117219503I-400004J2D01*
G01*
X112550004Y-117220000D02*
X112550004Y-119600001D01*
X102300004Y-116780000D02*
G75*
G02*
X102680004Y-116380504I399996J0D01*
G01*
X102680004Y-117219499D02*
G75*
G02*
X102300001Y-116820000I19996J399499D01*
G01*
X101607196Y-122800007D02*
X101600000Y-124400000D01*
X99649999Y-115800002D02*
G75*
G02*
X101599996Y-112076151I8350001J-1999998D01*
G01*
X114392804Y-122800007D02*
X114400000Y-124400000D01*
X101607192Y-108799995D02*
X101599996Y-110399988D01*
X99650000Y-115800000D02*
X99650000Y-118800000D01*
X99650000Y-118800000D02*
X99660199Y-119350000D01*
X116350000Y-115800000D02*
X116350000Y-118800000D01*
X114400004Y-112076151D02*
G75*
G02*
X116350000Y-115800002I-6400004J-5723849D01*
G01*
X101599996Y-110399988D02*
X101600000Y-112076147D01*
X101127861Y-120372198D02*
G75*
G02*
X99660198Y-119350000I-377861J1022198D01*
G01*
X113958811Y-122154211D02*
G75*
G02*
X114392805Y-122800000I-363193J-712803D01*
G01*
X108000000Y-125200000D02*
X102400000Y-125200000D01*
X101607192Y-108799988D02*
G75*
G02*
X102041185Y-108154199I797186J-67014D01*
G01*
X114400004Y-110399988D02*
X114400004Y-112076153D01*
X113958815Y-108154199D02*
G75*
G02*
X114392809Y-108799988I-363193J-712803D01*
G01*
X116339802Y-119350000D02*
G75*
G02*
X114872139Y-120372198I-1089802J0D01*
G01*
X102400000Y-125200000D02*
G75*
G02*
X101600000Y-124400000I0J800000D01*
G01*
X114400000Y-124400000D02*
G75*
G02*
X113600000Y-125200000I-800000J0D01*
G01*
X101607196Y-122800000D02*
G75*
G02*
X102041189Y-122154211I797186J-67014D01*
G01*
%TO.C,REF\u002A\u002A*%
X177482823Y-119296213D02*
G75*
G02*
X177133208Y-120372211I-712808J-363191D01*
G01*
X178041190Y-122154222D02*
G75*
G02*
X179117186Y-122503834I363192J-712804D01*
G01*
X178041190Y-94154222D02*
G75*
G02*
X179117186Y-94503834I363192J-712804D01*
G01*
X177482823Y-91296213D02*
G75*
G02*
X177133208Y-92372211I-712808J-363191D01*
G01*
X190866795Y-106372198D02*
G75*
G02*
X190517183Y-105296202I363191J712804D01*
G01*
X188882817Y-108503822D02*
G75*
G02*
X189958815Y-108154211I712805J-363195D01*
G01*
X190866799Y-120372210D02*
G75*
G02*
X190517187Y-119296214I363191J712804D01*
G01*
X188882821Y-122503834D02*
G75*
G02*
X189958819Y-122154223I712805J-363195D01*
G01*
X188882821Y-94503834D02*
G75*
G02*
X189958819Y-94154223I712805J-363195D01*
G01*
X190866799Y-92372210D02*
G75*
G02*
X190517187Y-91296214I363191J712804D01*
G01*
X188882821Y-80503834D02*
G75*
G02*
X189958819Y-80154223I712805J-363195D01*
G01*
X190866799Y-78372210D02*
G75*
G02*
X190517187Y-77296214I363191J712804D01*
G01*
X177482819Y-105296201D02*
G75*
G02*
X177133204Y-106372199I-712808J-363191D01*
G01*
X178041186Y-108154210D02*
G75*
G02*
X179117182Y-108503822I363192J-712804D01*
G01*
X178041190Y-80154222D02*
G75*
G02*
X179117186Y-80503834I363192J-712804D01*
G01*
X177482823Y-77296213D02*
G75*
G02*
X177133208Y-78372211I-712808J-363191D01*
G01*
X158482823Y-119296201D02*
G75*
G02*
X158133208Y-120372199I-712808J-363191D01*
G01*
X159041190Y-122154210D02*
G75*
G02*
X160117186Y-122503822I363192J-712804D01*
G01*
X175700000Y-143599999D02*
G75*
G02*
X176499998Y-142800001I799998J0D01*
G01*
X172900002Y-142799999D02*
G75*
G02*
X173700000Y-143600000I-3J-800001D01*
G01*
X180999998Y-129800001D02*
G75*
G02*
X180200000Y-129000000I3J800001D01*
G01*
X178200000Y-129000001D02*
G75*
G02*
X177400002Y-129799999I-799998J0D01*
G01*
X159041190Y-94154210D02*
G75*
G02*
X160117186Y-94503822I363192J-712804D01*
G01*
X158482823Y-91296201D02*
G75*
G02*
X158133208Y-92372199I-712808J-363191D01*
G01*
X171866795Y-106372186D02*
G75*
G02*
X171517183Y-105296190I363191J712804D01*
G01*
X169882817Y-108503810D02*
G75*
G02*
X170958815Y-108154199I712805J-363195D01*
G01*
X171866799Y-120372198D02*
G75*
G02*
X171517187Y-119296202I363191J712804D01*
G01*
X169882821Y-122503822D02*
G75*
G02*
X170958819Y-122154211I712805J-363195D01*
G01*
X169882821Y-94503822D02*
G75*
G02*
X170958819Y-94154211I712805J-363195D01*
G01*
X171866799Y-92372198D02*
G75*
G02*
X171517187Y-91296202I363191J712804D01*
G01*
X185600000Y-143599999D02*
G75*
G02*
X186399998Y-142800001I799998J0D01*
G01*
X182800002Y-142799999D02*
G75*
G02*
X183600000Y-143600000I-3J-800001D01*
G01*
X169882821Y-80503822D02*
G75*
G02*
X170958819Y-80154211I712805J-363195D01*
G01*
X171866799Y-78372198D02*
G75*
G02*
X171517187Y-77296202I363191J712804D01*
G01*
X159041190Y-80154210D02*
G75*
G02*
X160117186Y-80503822I363192J-712804D01*
G01*
X158482823Y-77296201D02*
G75*
G02*
X158133208Y-78372199I-712808J-363191D01*
G01*
X158482819Y-105296189D02*
G75*
G02*
X158133204Y-106372187I-712808J-363191D01*
G01*
X159041186Y-108154198D02*
G75*
G02*
X160117182Y-108503810I363192J-712804D01*
G01*
X190399998Y-129800001D02*
G75*
G02*
X189600000Y-129000000I3J800001D01*
G01*
X187600000Y-129000001D02*
G75*
G02*
X186800002Y-129799999I-799998J0D01*
G01*
X139482823Y-119296201D02*
G75*
G02*
X139133208Y-120372199I-712808J-363191D01*
G01*
X140041190Y-122154210D02*
G75*
G02*
X141117186Y-122503822I363192J-712804D01*
G01*
X150000000Y-143599999D02*
G75*
G02*
X150799998Y-142800001I799998J0D01*
G01*
X147200002Y-142799999D02*
G75*
G02*
X148000000Y-143600000I-3J-800001D01*
G01*
X155299998Y-129800001D02*
G75*
G02*
X154500000Y-129000000I3J800001D01*
G01*
X152500000Y-129000001D02*
G75*
G02*
X151700002Y-129799999I-799998J0D01*
G01*
X140041190Y-94154210D02*
G75*
G02*
X141117186Y-94503822I363192J-712804D01*
G01*
X139482823Y-91296201D02*
G75*
G02*
X139133208Y-92372199I-712808J-363191D01*
G01*
X152866795Y-106372186D02*
G75*
G02*
X152517183Y-105296190I363191J712804D01*
G01*
X150882817Y-108503810D02*
G75*
G02*
X151958815Y-108154199I712805J-363195D01*
G01*
X152866799Y-120372198D02*
G75*
G02*
X152517187Y-119296202I363191J712804D01*
G01*
X150882821Y-122503822D02*
G75*
G02*
X151958819Y-122154211I712805J-363195D01*
G01*
X150882821Y-94503822D02*
G75*
G02*
X151958819Y-94154211I712805J-363195D01*
G01*
X152866799Y-92372198D02*
G75*
G02*
X152517187Y-91296202I363191J712804D01*
G01*
X159900000Y-143599999D02*
G75*
G02*
X160699998Y-142800001I799998J0D01*
G01*
X157100002Y-142799999D02*
G75*
G02*
X157900000Y-143600000I-3J-800001D01*
G01*
X150882821Y-80503822D02*
G75*
G02*
X151958819Y-80154211I712805J-363195D01*
G01*
X152866799Y-78372198D02*
G75*
G02*
X152517187Y-77296202I363191J712804D01*
G01*
X140041190Y-80154210D02*
G75*
G02*
X141117186Y-80503822I363192J-712804D01*
G01*
X139482823Y-77296201D02*
G75*
G02*
X139133208Y-78372199I-712808J-363191D01*
G01*
X139482819Y-105296189D02*
G75*
G02*
X139133204Y-106372187I-712808J-363191D01*
G01*
X140041186Y-108154198D02*
G75*
G02*
X141117182Y-108503810I363192J-712804D01*
G01*
X164699998Y-129800001D02*
G75*
G02*
X163900000Y-129000000I3J800001D01*
G01*
X161900000Y-129000001D02*
G75*
G02*
X161100002Y-129799999I-799998J0D01*
G01*
X120482819Y-119296189D02*
G75*
G02*
X120133204Y-120372187I-712808J-363191D01*
G01*
X121041186Y-122154198D02*
G75*
G02*
X122117182Y-122503810I363192J-712804D01*
G01*
X124300000Y-143599999D02*
G75*
G02*
X125099998Y-142800001I799998J0D01*
G01*
X121500002Y-142799999D02*
G75*
G02*
X122300000Y-143600000I-3J-800001D01*
G01*
X129599998Y-129800001D02*
G75*
G02*
X128800000Y-129000000I3J800001D01*
G01*
X126800000Y-129000001D02*
G75*
G02*
X126000002Y-129799999I-799998J0D01*
G01*
X121041186Y-94154198D02*
G75*
G02*
X122117182Y-94503810I363192J-712804D01*
G01*
X120482819Y-91296189D02*
G75*
G02*
X120133204Y-92372187I-712808J-363191D01*
G01*
X121041186Y-80154198D02*
G75*
G02*
X122117182Y-80503810I363192J-712804D01*
G01*
X120482819Y-77296189D02*
G75*
G02*
X120133204Y-78372187I-712808J-363191D01*
G01*
X120482815Y-105296177D02*
G75*
G02*
X120133200Y-106372175I-712808J-363191D01*
G01*
X121041182Y-108154186D02*
G75*
G02*
X122117178Y-108503798I363192J-712804D01*
G01*
X134200000Y-143599999D02*
G75*
G02*
X134999998Y-142800001I799998J0D01*
G01*
X131400002Y-142799999D02*
G75*
G02*
X132200000Y-143600000I-3J-800001D01*
G01*
X131882817Y-80503810D02*
G75*
G02*
X132958815Y-80154199I712805J-363195D01*
G01*
X133866795Y-78372186D02*
G75*
G02*
X133517183Y-77296190I363191J712804D01*
G01*
X133866795Y-120372186D02*
G75*
G02*
X133517183Y-119296190I363191J712804D01*
G01*
X131882817Y-122503810D02*
G75*
G02*
X132958815Y-122154199I712805J-363195D01*
G01*
X131882817Y-94503810D02*
G75*
G02*
X132958815Y-94154199I712805J-363195D01*
G01*
X133866795Y-92372186D02*
G75*
G02*
X133517183Y-91296190I363191J712804D01*
G01*
X133866791Y-106372174D02*
G75*
G02*
X133517179Y-105296178I363191J712804D01*
G01*
X131882813Y-108503798D02*
G75*
G02*
X132958811Y-108154187I712805J-363195D01*
G01*
X138999998Y-129800001D02*
G75*
G02*
X138200000Y-129000000I3J800001D01*
G01*
X136200000Y-129000001D02*
G75*
G02*
X135400002Y-129799999I-799998J0D01*
G01*
X114866795Y-106372186D02*
G75*
G02*
X114517183Y-105296190I363191J712804D01*
G01*
X112882817Y-108503810D02*
G75*
G02*
X113958815Y-108154199I712805J-363195D01*
G01*
X101482819Y-105296189D02*
G75*
G02*
X101133204Y-106372187I-712808J-363191D01*
G01*
X102041186Y-108154198D02*
G75*
G02*
X103117182Y-108503810I363192J-712804D01*
G01*
X103899998Y-129800001D02*
G75*
G02*
X103100000Y-129000000I3J800001D01*
G01*
X101100000Y-129000001D02*
G75*
G02*
X100300002Y-129799999I-799998J0D01*
G01*
X113299998Y-129800001D02*
G75*
G02*
X112500000Y-129000000I3J800001D01*
G01*
X110500000Y-129000001D02*
G75*
G02*
X109700002Y-129799999I-799998J0D01*
G01*
X108500000Y-143599999D02*
G75*
G02*
X109299998Y-142800001I799998J0D01*
G01*
X105700002Y-142799999D02*
G75*
G02*
X106500000Y-143600000I-3J-800001D01*
G01*
X98600000Y-143599999D02*
G75*
G02*
X99399998Y-142800001I799998J0D01*
G01*
X95800002Y-142799999D02*
G75*
G02*
X96600000Y-143600000I-3J-800001D01*
G01*
X101482823Y-119296201D02*
G75*
G02*
X101133208Y-120372199I-712808J-363191D01*
G01*
X102041190Y-122154210D02*
G75*
G02*
X103117186Y-122503822I363192J-712804D01*
G01*
X114866799Y-120372198D02*
G75*
G02*
X114517187Y-119296202I363191J712804D01*
G01*
X112882821Y-122503822D02*
G75*
G02*
X113958819Y-122154211I712805J-363195D01*
G01*
X102041190Y-80154210D02*
G75*
G02*
X103117186Y-80503822I363192J-712804D01*
G01*
X101482823Y-77296201D02*
G75*
G02*
X101133208Y-78372199I-712808J-363191D01*
G01*
X112882821Y-80503822D02*
G75*
G02*
X113958819Y-80154211I712805J-363195D01*
G01*
X114866799Y-78372198D02*
G75*
G02*
X114517187Y-77296202I363191J712804D01*
G01*
X102041190Y-94154210D02*
G75*
G02*
X103117186Y-94503822I363192J-712804D01*
G01*
X101482823Y-91296201D02*
G75*
G02*
X101133208Y-92372199I-712808J-363191D01*
G01*
X112882821Y-94503822D02*
G75*
G02*
X113958819Y-94154211I712805J-363195D01*
G01*
X114866799Y-92372198D02*
G75*
G02*
X114517187Y-91296202I363191J712804D01*
G01*
%TD*%
M02*
