M48
; DRILL file {KiCad 9.0.3} date 2025-08-06T20:18:38-0400
; FORMAT={-:-/ absolute / metric / decimal}
; #@! TF.CreationDate,2025-08-06T20:18:38-04:00
; #@! TF.GenerationSoftware,Kicad,Pcbnew,9.0.3
; #@! TF.FileFunction,Plated,1,4,PTH
FMAT,2
METRIC
; #@! TA.AperFunction,Plated,PTH,ViaDrill
T1C0.200
; #@! TA.AperFunction,Plated,PTH,ComponentDrill
T2C0.400
; #@! TA.AperFunction,Plated,PTH,ComponentDrill
T3C0.500
; #@! TA.AperFunction,Plated,PTH,ComponentDrill
T4C0.600
%
G90
G05
T1
X97.329Y-139.67
X98.286Y-136.67
X99.59Y-139.591
X100.05Y-139.6
X100.6Y-137.65
X100.9Y-137.211
X101.1Y-139.5
X101.15Y-137.65
X101.4Y-142.27
X101.673Y-140.48
X101.725Y-136.3
X101.925Y-136.8
X102.2Y-140.42
X102.2Y-142.2
X102.4Y-115.5
X102.5Y-117.95
X102.6Y-118.6
X102.601Y-133.35
X102.74Y-140.42
X102.9Y-117.75
X102.9Y-118.25
X102.9Y-142.2
X103.08Y-133.9
X103.3Y-130.5
X103.3Y-131.0
X103.351Y-133.3
X103.6Y-142.2
X103.8Y-122.3
X104.55Y-113.275
X104.55Y-122.325
X104.7Y-142.136
X104.901Y-130.901
X104.916Y-131.402
X105.7Y-135.6
X105.7Y-136.4
X105.7Y-137.1
X105.7Y-137.9
X105.8Y-134.7
X106.346Y-114.047
X106.351Y-121.548
X106.8Y-113.701
X106.8Y-121.9
X107.149Y-113.049
X107.2Y-122.5
X107.2Y-141.8
X107.304Y-141.28
X107.7Y-112.6
X107.7Y-123.0
X108.0Y-112.25
X108.0Y-112.94
X108.0Y-122.66
X108.0Y-123.35
X108.3Y-112.6
X108.3Y-123.0
X108.758Y-122.453
X108.851Y-113.049
X108.87Y-131.03
X108.88Y-135.7
X108.896Y-132.101
X109.2Y-113.7
X109.25Y-121.949
X109.417Y-131.048
X109.43Y-140.1
X109.43Y-140.63
X109.649Y-114.052
X109.654Y-121.553
X110.0Y-131.1
X110.0Y-133.4
X110.0Y-134.1
X110.3Y-141.229
X110.35Y-133.75
X110.5Y-131.1
X110.7Y-133.4
X110.7Y-134.1
X110.829Y-141.198
X111.0Y-131.1
X111.3Y-133.6
X111.45Y-113.275
X111.45Y-122.325
X111.5Y-131.1
X111.525Y-132.19
X111.6Y-139.23
X111.6Y-139.784
X111.728Y-135.174
X111.733Y-135.704
X112.0Y-131.1
X112.2Y-122.3
X113.1Y-117.75
X113.1Y-118.25
X113.4Y-118.6
X113.484Y-137.781
X113.5Y-117.95
X113.507Y-137.202
X113.513Y-136.672
X113.6Y-115.5
X113.8Y-134.3
X113.8Y-138.3
X114.3Y-134.3
X114.3Y-138.3
X114.404Y-133.78
X114.578Y-139.284
X114.6Y-135.1
X114.6Y-136.1
X114.83Y-138.3
X115.4Y-139.0
X115.4Y-140.1
X121.4Y-115.5
X121.5Y-117.95
X121.6Y-118.6
X121.9Y-117.75
X121.9Y-118.25
X122.8Y-122.3
X123.029Y-139.67
X123.55Y-113.275
X123.55Y-122.325
X123.986Y-136.67
X125.29Y-139.591
X125.346Y-114.047
X125.351Y-121.548
X125.75Y-139.6
X125.8Y-113.701
X125.8Y-121.9
X126.149Y-113.049
X126.2Y-122.5
X126.3Y-137.65
X126.6Y-137.211
X126.7Y-112.6
X126.7Y-123.0
X126.8Y-139.5
X126.85Y-137.65
X127.0Y-112.25
X127.0Y-112.94
X127.0Y-122.66
X127.0Y-123.35
X127.1Y-142.27
X127.3Y-112.6
X127.3Y-123.0
X127.373Y-140.48
X127.425Y-136.3
X127.625Y-136.8
X127.758Y-122.453
X127.851Y-113.049
X127.9Y-140.42
X127.9Y-142.2
X128.2Y-113.7
X128.25Y-121.949
X128.301Y-133.35
X128.44Y-140.42
X128.6Y-142.2
X128.649Y-114.052
X128.654Y-121.553
X128.78Y-133.9
X129.0Y-130.5
X129.0Y-131.0
X129.051Y-133.3
X129.3Y-142.2
X130.4Y-142.136
X130.45Y-113.275
X130.45Y-122.325
X130.601Y-130.901
X130.616Y-131.402
X131.2Y-122.3
X131.4Y-135.6
X131.4Y-136.4
X131.4Y-137.1
X131.4Y-137.9
X131.5Y-134.7
X132.1Y-117.75
X132.1Y-118.25
X132.4Y-118.6
X132.5Y-117.95
X132.6Y-115.5
X132.9Y-141.8
X133.004Y-141.28
X134.57Y-131.03
X134.58Y-135.7
X134.596Y-132.101
X135.117Y-131.048
X135.13Y-140.1
X135.13Y-140.63
X135.7Y-131.1
X135.7Y-133.4
X135.7Y-134.1
X136.0Y-141.229
X136.05Y-133.75
X136.2Y-131.1
X136.4Y-133.4
X136.4Y-134.1
X136.529Y-141.198
X136.7Y-131.1
X137.0Y-133.6
X137.2Y-131.1
X137.225Y-132.19
X137.3Y-139.23
X137.3Y-139.784
X137.428Y-135.174
X137.433Y-135.704
X137.7Y-131.1
X139.184Y-137.781
X139.207Y-137.202
X139.213Y-136.672
X139.5Y-134.3
X139.5Y-138.3
X140.0Y-134.3
X140.0Y-138.3
X140.104Y-133.78
X140.278Y-139.284
X140.3Y-135.1
X140.3Y-136.1
X140.4Y-115.5
X140.5Y-117.95
X140.53Y-138.3
X140.6Y-118.6
X140.9Y-117.75
X140.9Y-118.25
X141.1Y-139.0
X141.1Y-140.1
X141.8Y-122.3
X142.55Y-113.275
X142.55Y-122.325
X144.346Y-114.047
X144.351Y-121.548
X144.8Y-113.701
X144.8Y-121.9
X145.149Y-113.049
X145.2Y-122.5
X145.7Y-112.6
X145.7Y-123.0
X146.0Y-112.25
X146.0Y-112.94
X146.0Y-122.66
X146.0Y-123.35
X146.3Y-112.6
X146.3Y-123.0
X146.758Y-122.453
X146.851Y-113.049
X147.2Y-113.7
X147.25Y-121.949
X147.649Y-114.052
X147.654Y-121.553
X148.729Y-139.67
X149.45Y-113.275
X149.45Y-122.325
X149.686Y-136.67
X150.2Y-122.3
X150.99Y-139.591
X151.1Y-117.75
X151.1Y-118.25
X151.4Y-118.6
X151.45Y-139.6
X151.5Y-117.95
X151.6Y-115.5
X152.0Y-137.65
X152.3Y-137.211
X152.5Y-139.5
X152.55Y-137.65
X152.8Y-142.27
X153.073Y-140.48
X153.125Y-136.3
X153.325Y-136.8
X153.6Y-140.42
X153.6Y-142.2
X154.001Y-133.35
X154.14Y-140.42
X154.3Y-142.2
X154.48Y-133.9
X154.7Y-130.5
X154.7Y-131.0
X154.751Y-133.3
X155.0Y-142.2
X156.1Y-142.136
X156.301Y-130.901
X156.316Y-131.402
X157.1Y-135.6
X157.1Y-136.4
X157.1Y-137.1
X157.1Y-137.9
X157.2Y-134.7
X158.6Y-141.8
X158.704Y-141.28
X159.4Y-115.5
X159.5Y-117.95
X159.6Y-118.6
X159.9Y-117.75
X159.9Y-118.25
X160.27Y-131.03
X160.28Y-135.7
X160.296Y-132.101
X160.8Y-122.3
X160.817Y-131.048
X160.83Y-140.1
X160.83Y-140.63
X161.4Y-131.1
X161.4Y-133.4
X161.4Y-134.1
X161.55Y-113.275
X161.55Y-122.325
X161.7Y-141.229
X161.75Y-133.75
X161.9Y-131.1
X162.1Y-133.4
X162.1Y-134.1
X162.229Y-141.198
X162.4Y-131.1
X162.7Y-133.6
X162.9Y-131.1
X162.925Y-132.19
X163.0Y-139.23
X163.0Y-139.784
X163.128Y-135.174
X163.133Y-135.704
X163.346Y-114.047
X163.351Y-121.548
X163.4Y-131.1
X163.8Y-113.701
X163.8Y-121.9
X164.149Y-113.049
X164.2Y-122.5
X164.7Y-112.6
X164.7Y-123.0
X164.884Y-137.781
X164.907Y-137.202
X164.913Y-136.672
X165.0Y-112.25
X165.0Y-112.94
X165.0Y-122.66
X165.0Y-123.35
X165.2Y-134.3
X165.2Y-138.3
X165.3Y-112.6
X165.3Y-123.0
X165.7Y-134.3
X165.7Y-138.3
X165.758Y-122.453
X165.804Y-133.78
X165.851Y-113.049
X165.978Y-139.284
X166.0Y-135.1
X166.0Y-136.1
X166.2Y-113.7
X166.23Y-138.3
X166.25Y-121.949
X166.649Y-114.052
X166.654Y-121.553
X166.8Y-139.0
X166.8Y-140.1
X168.45Y-113.275
X168.45Y-122.325
X169.2Y-122.3
X170.1Y-117.75
X170.1Y-118.25
X170.4Y-118.6
X170.5Y-117.95
X170.6Y-115.5
X174.429Y-139.67
X175.386Y-136.67
X176.69Y-139.591
X177.15Y-139.6
X177.7Y-137.65
X178.0Y-137.211
X178.2Y-139.5
X178.25Y-137.65
X178.4Y-115.5
X178.5Y-117.95
X178.5Y-142.27
X178.6Y-118.6
X178.773Y-140.48
X178.825Y-136.3
X178.9Y-117.75
X178.9Y-118.25
X179.025Y-136.8
X179.3Y-140.42
X179.3Y-142.2
X179.701Y-133.35
X179.8Y-122.3
X179.84Y-140.42
X180.0Y-142.2
X180.18Y-133.9
X180.4Y-130.5
X180.4Y-131.0
X180.451Y-133.3
X180.55Y-113.275
X180.55Y-122.325
X180.7Y-142.2
X181.8Y-142.136
X182.001Y-130.901
X182.016Y-131.402
X182.346Y-114.047
X182.351Y-121.548
X182.8Y-113.701
X182.8Y-121.9
X182.8Y-135.6
X182.8Y-136.4
X182.8Y-137.1
X182.8Y-137.9
X182.9Y-134.7
X183.149Y-113.049
X183.2Y-122.5
X183.7Y-112.6
X183.7Y-123.0
X184.0Y-112.25
X184.0Y-112.94
X184.0Y-122.66
X184.0Y-123.35
X184.3Y-112.6
X184.3Y-123.0
X184.3Y-141.8
X184.404Y-141.28
X184.758Y-122.453
X184.851Y-113.049
X185.2Y-113.7
X185.25Y-121.949
X185.649Y-114.052
X185.654Y-121.553
X185.97Y-131.03
X185.98Y-135.7
X185.996Y-132.101
X186.517Y-131.048
X186.53Y-140.1
X186.53Y-140.63
X187.1Y-131.1
X187.1Y-133.4
X187.1Y-134.1
X187.4Y-141.229
X187.45Y-113.275
X187.45Y-122.325
X187.45Y-133.75
X187.6Y-131.1
X187.8Y-133.4
X187.8Y-134.1
X187.929Y-141.198
X188.1Y-131.1
X188.2Y-122.3
X188.4Y-133.6
X188.6Y-131.1
X188.625Y-132.19
X188.7Y-139.23
X188.7Y-139.784
X188.828Y-135.174
X188.833Y-135.704
X189.1Y-117.75
X189.1Y-118.25
X189.1Y-131.1
X189.4Y-118.6
X189.5Y-117.95
X189.6Y-115.5
X190.584Y-137.781
X190.607Y-137.202
X190.613Y-136.672
X190.9Y-134.3
X190.9Y-138.3
X191.4Y-134.3
X191.4Y-138.3
X191.504Y-133.78
X191.678Y-139.284
X191.7Y-135.1
X191.7Y-136.1
X191.93Y-138.3
X192.5Y-139.0
X192.5Y-140.1
T2
X108.0Y-84.65
X108.0Y-84.65
X108.0Y-94.95
X108.0Y-94.95
X108.0Y-98.65
X108.0Y-98.65
X108.0Y-108.95
X108.0Y-108.95
X108.0Y-70.65
X108.0Y-70.65
X108.0Y-80.95
X108.0Y-80.95
X127.0Y-84.65
X127.0Y-84.65
X127.0Y-94.95
X127.0Y-94.95
X127.0Y-98.65
X127.0Y-98.65
X127.0Y-108.95
X127.0Y-108.95
X127.0Y-70.65
X127.0Y-70.65
X127.0Y-80.95
X127.0Y-80.95
X146.0Y-84.65
X146.0Y-84.65
X146.0Y-94.95
X146.0Y-94.95
X146.0Y-98.65
X146.0Y-98.65
X146.0Y-108.95
X146.0Y-108.95
X146.0Y-70.65
X146.0Y-70.65
X146.0Y-80.95
X146.0Y-80.95
X165.0Y-84.65
X165.0Y-84.65
X165.0Y-94.95
X165.0Y-94.95
X165.0Y-98.65
X165.0Y-98.65
X165.0Y-108.95
X165.0Y-108.95
X165.0Y-70.65
X165.0Y-70.65
X165.0Y-80.95
X165.0Y-80.95
X184.0Y-84.65
X184.0Y-84.65
X184.0Y-94.95
X184.0Y-94.95
X184.0Y-98.65
X184.0Y-98.65
X184.0Y-108.95
X184.0Y-108.95
X184.0Y-70.65
X184.0Y-70.65
X184.0Y-80.95
X184.0Y-80.95
T3
X97.0Y-140.8
X97.0Y-141.8
X99.0Y-140.8
X99.0Y-141.8
X122.7Y-140.8
X122.7Y-141.8
X124.7Y-140.8
X124.7Y-141.8
X148.4Y-140.8
X148.4Y-141.8
X150.4Y-140.8
X150.4Y-141.8
X174.1Y-140.8
X174.1Y-141.8
X176.1Y-140.8
X176.1Y-141.8
T4
G00X113.745Y-131.98
M15
G01X112.645Y-131.98
M16
G05
G00X113.745Y-140.62
M15
G01X112.645Y-140.62
M16
G05
G00X117.775Y-131.98
M15
G01X116.975Y-131.98
M16
G05
G00X117.775Y-140.62
M15
G01X116.975Y-140.62
M16
G05
G00X139.445Y-131.98
M15
G01X138.345Y-131.98
M16
G05
G00X139.445Y-140.62
M15
G01X138.345Y-140.62
M16
G05
G00X143.475Y-131.98
M15
G01X142.675Y-131.98
M16
G05
G00X143.475Y-140.62
M15
G01X142.675Y-140.62
M16
G05
G00X165.145Y-131.98
M15
G01X164.045Y-131.98
M16
G05
G00X165.145Y-140.62
M15
G01X164.045Y-140.62
M16
G05
G00X169.175Y-131.98
M15
G01X168.375Y-131.98
M16
G05
G00X169.175Y-140.62
M15
G01X168.375Y-140.62
M16
G05
G00X190.845Y-131.98
M15
G01X189.745Y-131.98
M16
G05
G00X190.845Y-140.62
M15
G01X189.745Y-140.62
M16
G05
G00X194.875Y-131.98
M15
G01X194.075Y-131.98
M16
G05
G00X194.875Y-140.62
M15
G01X194.075Y-140.62
M16
G05
M30
