%TF.GenerationSoftware,KiCad,Pcbnew,9.0.1*%
%TF.CreationDate,2025-07-17T15:45:22-04:00*%
%TF.ProjectId,flowstick_main_pcb,666c6f77-7374-4696-936b-5f6d61696e5f,rev?*%
%TF.SameCoordinates,Original*%
%TF.FileFunction,Legend,Top*%
%TF.FilePolarity,Positive*%
%FSLAX46Y46*%
G04 Gerber Fmt 4.6, Leading zero omitted, Abs format (unit mm)*
G04 Created by KiCad (PCBNEW 9.0.1) date 2025-07-17 15:45:22*
%MOMM*%
%LPD*%
G01*
G04 APERTURE LIST*
%ADD10C,0.100000*%
%ADD11C,0.140000*%
%ADD12C,0.200000*%
%ADD13C,0.120000*%
G04 APERTURE END LIST*
D10*
X153600000Y-94600000D02*
X153789796Y-92275000D01*
X147600000Y-95600000D02*
X147600000Y-95800000D01*
X146600000Y-94400000D02*
X148700000Y-94400000D01*
X146700000Y-94600000D02*
X146400000Y-94700000D01*
X145200000Y-95600000D02*
X147600000Y-95600000D01*
X146100000Y-95600000D02*
X146700000Y-94600000D01*
X146700000Y-94800000D02*
X146700000Y-94600000D01*
X146700000Y-94600000D02*
X146700000Y-94900000D01*
X146600000Y-94200000D02*
X146600000Y-94400000D01*
X153400000Y-92100000D02*
X154800000Y-92100000D01*
X153400000Y-94800000D02*
X154900000Y-94800000D01*
X153600000Y-92500000D02*
X153789796Y-92275000D01*
X153789796Y-92275000D02*
X153900000Y-92500000D01*
D11*
G36*
X156264331Y-93322339D02*
G01*
X155268775Y-93322339D01*
X155268775Y-92874561D01*
X155346553Y-92874561D01*
X155346553Y-92941228D01*
X155348741Y-92952232D01*
X155350145Y-92963364D01*
X155383478Y-93063364D01*
X155385214Y-93066409D01*
X155385214Y-93068016D01*
X155391446Y-93077342D01*
X155397004Y-93087092D01*
X155398441Y-93087810D01*
X155400389Y-93090725D01*
X155467055Y-93157392D01*
X155476381Y-93163623D01*
X155485248Y-93170505D01*
X155551916Y-93203838D01*
X155559309Y-93205862D01*
X155566243Y-93209138D01*
X155699575Y-93242471D01*
X155708141Y-93242888D01*
X155716553Y-93244561D01*
X155816553Y-93244561D01*
X155824964Y-93242887D01*
X155833530Y-93242471D01*
X155966863Y-93209138D01*
X155973795Y-93205863D01*
X155981191Y-93203838D01*
X156047858Y-93170505D01*
X156056728Y-93163620D01*
X156066050Y-93157392D01*
X156132717Y-93090726D01*
X156134665Y-93087810D01*
X156136102Y-93087092D01*
X156141657Y-93077345D01*
X156147892Y-93068016D01*
X156147892Y-93066409D01*
X156149628Y-93063364D01*
X156182961Y-92963364D01*
X156184364Y-92952232D01*
X156186553Y-92941228D01*
X156186553Y-92874561D01*
X156184364Y-92863556D01*
X156182961Y-92852425D01*
X156149628Y-92752425D01*
X156147892Y-92749379D01*
X156147892Y-92747772D01*
X156141655Y-92738439D01*
X156136102Y-92728697D01*
X156134665Y-92727978D01*
X156132717Y-92725063D01*
X156099383Y-92691730D01*
X156076673Y-92676556D01*
X156023097Y-92676556D01*
X155985214Y-92714441D01*
X155985214Y-92768017D01*
X156000389Y-92790726D01*
X156022037Y-92812373D01*
X156046553Y-92885920D01*
X156046553Y-92929868D01*
X156022037Y-93003415D01*
X155975089Y-93050364D01*
X155925454Y-93075181D01*
X155807936Y-93104561D01*
X155725170Y-93104561D01*
X155607652Y-93075181D01*
X155558017Y-93050364D01*
X155511068Y-93003416D01*
X155486553Y-92929868D01*
X155486553Y-92885920D01*
X155511068Y-92812373D01*
X155532717Y-92790726D01*
X155547892Y-92768017D01*
X155547893Y-92714441D01*
X155510009Y-92676556D01*
X155456433Y-92676555D01*
X155433723Y-92691730D01*
X155400389Y-92725063D01*
X155398440Y-92727978D01*
X155397004Y-92728697D01*
X155391450Y-92738439D01*
X155385214Y-92747772D01*
X155385214Y-92749379D01*
X155383478Y-92752425D01*
X155350145Y-92852425D01*
X155348741Y-92863556D01*
X155346553Y-92874561D01*
X155268775Y-92874561D01*
X155268775Y-92414440D01*
X155351881Y-92414440D01*
X155351881Y-92468016D01*
X155389765Y-92505900D01*
X155416553Y-92511228D01*
X156116553Y-92511228D01*
X156143341Y-92505900D01*
X156181225Y-92468016D01*
X156186553Y-92441228D01*
X156186553Y-92107895D01*
X156181225Y-92081107D01*
X156143341Y-92043223D01*
X156089765Y-92043223D01*
X156051881Y-92081107D01*
X156046553Y-92107895D01*
X156046553Y-92371228D01*
X155416553Y-92371228D01*
X155389765Y-92376556D01*
X155351881Y-92414440D01*
X155268775Y-92414440D01*
X155268775Y-91447773D01*
X155351881Y-91447773D01*
X155351881Y-91501349D01*
X155367056Y-91524058D01*
X155647558Y-91804561D01*
X155416553Y-91804561D01*
X155389765Y-91809889D01*
X155351881Y-91847773D01*
X155351881Y-91901349D01*
X155389765Y-91939233D01*
X155416553Y-91944561D01*
X156116553Y-91944561D01*
X156143341Y-91939233D01*
X156181225Y-91901349D01*
X156181225Y-91847773D01*
X156143341Y-91809889D01*
X156116553Y-91804561D01*
X155845548Y-91804561D01*
X155823121Y-91782134D01*
X156158553Y-91530561D01*
X156176787Y-91510226D01*
X156184363Y-91457188D01*
X156152218Y-91414327D01*
X156099180Y-91406751D01*
X156074553Y-91418561D01*
X155723121Y-91682134D01*
X155466050Y-91425064D01*
X155443341Y-91409889D01*
X155389765Y-91409889D01*
X155351881Y-91447773D01*
X155268775Y-91447773D01*
X155268775Y-91328973D01*
X156264331Y-91328973D01*
X156264331Y-93322339D01*
G37*
D12*
G36*
X151853264Y-78942676D02*
G01*
X151917442Y-79006853D01*
X151947247Y-79066463D01*
X151947247Y-79209725D01*
X151917442Y-79269334D01*
X151853264Y-79333511D01*
X151701603Y-79371427D01*
X151392889Y-79371427D01*
X151241230Y-79333512D01*
X151177051Y-79269333D01*
X151147247Y-79209724D01*
X151147247Y-79066463D01*
X151177051Y-79006854D01*
X151241230Y-78942675D01*
X151392889Y-78904761D01*
X151701603Y-78904761D01*
X151853264Y-78942676D01*
G37*
G36*
X153868302Y-81515872D02*
G01*
X150836136Y-81515872D01*
X150836136Y-80614285D01*
X150947247Y-80614285D01*
X150947247Y-81090475D01*
X150949168Y-81109984D01*
X150964100Y-81146032D01*
X150991690Y-81173622D01*
X151027738Y-81188554D01*
X151047247Y-81190475D01*
X152047247Y-81190475D01*
X152066756Y-81188554D01*
X152102804Y-81173622D01*
X152130394Y-81146032D01*
X152145326Y-81109984D01*
X152145326Y-81070966D01*
X152130394Y-81034918D01*
X152102804Y-81007328D01*
X152066756Y-80992396D01*
X152047247Y-80990475D01*
X151623437Y-80990475D01*
X151623437Y-80876190D01*
X152557191Y-80876190D01*
X152557191Y-81114285D01*
X152559112Y-81133794D01*
X152560487Y-81137114D01*
X152560742Y-81140698D01*
X152567748Y-81159006D01*
X152615367Y-81254244D01*
X152620652Y-81262640D01*
X152621663Y-81265080D01*
X152623916Y-81267826D01*
X152625810Y-81270834D01*
X152627804Y-81272563D01*
X152634099Y-81280234D01*
X152681718Y-81327852D01*
X152689384Y-81334144D01*
X152691117Y-81336142D01*
X152694125Y-81338035D01*
X152696871Y-81340289D01*
X152699311Y-81341299D01*
X152707708Y-81346585D01*
X152802945Y-81394204D01*
X152821254Y-81401210D01*
X152824837Y-81401464D01*
X152828158Y-81402840D01*
X152847667Y-81404761D01*
X152942905Y-81404761D01*
X152962414Y-81402840D01*
X152965734Y-81401464D01*
X152969318Y-81401210D01*
X152987626Y-81394204D01*
X153082864Y-81346585D01*
X153091260Y-81341299D01*
X153093700Y-81340289D01*
X153096446Y-81338035D01*
X153099454Y-81336142D01*
X153101183Y-81334147D01*
X153108854Y-81327853D01*
X153156472Y-81280234D01*
X153162764Y-81272567D01*
X153164762Y-81270835D01*
X153166655Y-81267826D01*
X153168909Y-81265081D01*
X153169919Y-81262640D01*
X153175205Y-81254244D01*
X153222824Y-81159007D01*
X153223370Y-81157578D01*
X153223800Y-81156999D01*
X153226721Y-81148822D01*
X153229830Y-81140698D01*
X153229881Y-81139977D01*
X153230395Y-81138539D01*
X153275351Y-80958713D01*
X153310805Y-80887806D01*
X153335473Y-80863137D01*
X153395083Y-80833333D01*
X153443107Y-80833333D01*
X153502718Y-80863139D01*
X153527386Y-80887806D01*
X153557191Y-80947416D01*
X153557191Y-81145677D01*
X153514704Y-81273138D01*
X153510357Y-81292254D01*
X153513123Y-81331174D01*
X153530573Y-81366073D01*
X153560049Y-81391638D01*
X153597065Y-81403976D01*
X153635985Y-81401210D01*
X153670884Y-81383760D01*
X153696449Y-81354284D01*
X153704440Y-81336384D01*
X153752059Y-81193527D01*
X153754258Y-81183854D01*
X153755270Y-81181413D01*
X153755618Y-81177875D01*
X153756406Y-81174412D01*
X153756218Y-81171777D01*
X153757191Y-81161904D01*
X153757191Y-80923809D01*
X153755270Y-80904300D01*
X153753894Y-80900979D01*
X153753640Y-80897396D01*
X153746634Y-80879087D01*
X153699015Y-80783850D01*
X153693729Y-80775453D01*
X153692719Y-80773013D01*
X153690465Y-80770267D01*
X153688572Y-80767259D01*
X153686575Y-80765527D01*
X153680282Y-80757859D01*
X153632662Y-80710241D01*
X153624992Y-80703946D01*
X153623263Y-80701952D01*
X153620258Y-80700060D01*
X153617509Y-80697804D01*
X153615065Y-80696792D01*
X153606673Y-80691509D01*
X153511435Y-80643890D01*
X153493127Y-80636884D01*
X153489543Y-80636629D01*
X153486223Y-80635254D01*
X153466714Y-80633333D01*
X153371476Y-80633333D01*
X153351967Y-80635254D01*
X153348646Y-80636629D01*
X153345063Y-80636884D01*
X153326754Y-80643890D01*
X153231517Y-80691509D01*
X153223120Y-80696794D01*
X153220680Y-80697805D01*
X153217934Y-80700058D01*
X153214926Y-80701952D01*
X153213193Y-80703949D01*
X153205527Y-80710242D01*
X153157908Y-80757860D01*
X153151613Y-80765530D01*
X153149619Y-80767260D01*
X153147725Y-80770267D01*
X153145472Y-80773014D01*
X153144461Y-80775453D01*
X153139176Y-80783850D01*
X153091557Y-80879088D01*
X153091011Y-80880514D01*
X153090581Y-80881095D01*
X153087659Y-80889271D01*
X153084551Y-80897396D01*
X153084499Y-80898118D01*
X153083986Y-80899556D01*
X153039029Y-81079380D01*
X153003576Y-81150287D01*
X152978907Y-81174955D01*
X152919298Y-81204761D01*
X152871274Y-81204761D01*
X152811664Y-81174956D01*
X152786996Y-81150287D01*
X152757191Y-81090677D01*
X152757191Y-80892417D01*
X152799678Y-80764956D01*
X152804025Y-80745841D01*
X152801259Y-80706921D01*
X152783809Y-80672022D01*
X152754333Y-80646457D01*
X152717317Y-80634118D01*
X152678397Y-80636885D01*
X152643498Y-80654334D01*
X152617933Y-80683810D01*
X152609942Y-80701711D01*
X152562323Y-80844567D01*
X152560123Y-80854238D01*
X152559112Y-80856681D01*
X152558763Y-80860219D01*
X152557976Y-80863683D01*
X152558163Y-80866316D01*
X152557191Y-80876190D01*
X151623437Y-80876190D01*
X151623437Y-80757142D01*
X151621516Y-80737633D01*
X151606584Y-80701585D01*
X151578994Y-80673995D01*
X151542946Y-80659063D01*
X151503928Y-80659063D01*
X151467880Y-80673995D01*
X151440290Y-80701585D01*
X151425358Y-80737633D01*
X151423437Y-80757142D01*
X151423437Y-80990475D01*
X151147247Y-80990475D01*
X151147247Y-80614285D01*
X151145326Y-80594776D01*
X151130394Y-80558728D01*
X151102804Y-80531138D01*
X151066756Y-80516206D01*
X151027738Y-80516206D01*
X150991690Y-80531138D01*
X150964100Y-80558728D01*
X150949168Y-80594776D01*
X150947247Y-80614285D01*
X150836136Y-80614285D01*
X150836136Y-80213823D01*
X150949168Y-80213823D01*
X150949168Y-80252841D01*
X150964100Y-80288889D01*
X150991690Y-80316479D01*
X151027738Y-80331411D01*
X151047247Y-80333332D01*
X152047247Y-80333332D01*
X152066756Y-80331411D01*
X152102804Y-80316479D01*
X152130394Y-80288889D01*
X152145326Y-80252841D01*
X152147247Y-80233332D01*
X152147247Y-79876190D01*
X152557191Y-79876190D01*
X152557191Y-80447618D01*
X152559112Y-80467127D01*
X152574044Y-80503175D01*
X152601634Y-80530765D01*
X152637682Y-80545697D01*
X152676700Y-80545697D01*
X152712748Y-80530765D01*
X152740338Y-80503175D01*
X152755270Y-80467127D01*
X152757191Y-80447618D01*
X152757191Y-80261904D01*
X153657191Y-80261904D01*
X153676700Y-80259983D01*
X153712748Y-80245051D01*
X153740338Y-80217461D01*
X153755270Y-80181413D01*
X153755270Y-80142395D01*
X153740338Y-80106347D01*
X153712748Y-80078757D01*
X153676700Y-80063825D01*
X153657191Y-80061904D01*
X152757191Y-80061904D01*
X152757191Y-79876190D01*
X152755270Y-79856681D01*
X152740338Y-79820633D01*
X152712748Y-79793043D01*
X152676700Y-79778111D01*
X152637682Y-79778111D01*
X152601634Y-79793043D01*
X152574044Y-79820633D01*
X152559112Y-79856681D01*
X152557191Y-79876190D01*
X152147247Y-79876190D01*
X152147247Y-79757142D01*
X152145326Y-79737633D01*
X152130394Y-79701585D01*
X152102804Y-79673995D01*
X152066756Y-79659063D01*
X152027738Y-79659063D01*
X151991690Y-79673995D01*
X151964100Y-79701585D01*
X151949168Y-79737633D01*
X151947247Y-79757142D01*
X151947247Y-80133332D01*
X151047247Y-80133332D01*
X151027738Y-80135253D01*
X150991690Y-80150185D01*
X150964100Y-80177775D01*
X150949168Y-80213823D01*
X150836136Y-80213823D01*
X150836136Y-79042856D01*
X150947247Y-79042856D01*
X150947247Y-79233332D01*
X150949168Y-79252841D01*
X150950543Y-79256161D01*
X150950798Y-79259745D01*
X150957804Y-79278053D01*
X151005423Y-79373291D01*
X151010708Y-79381687D01*
X151011719Y-79384127D01*
X151013972Y-79386873D01*
X151015866Y-79389881D01*
X151017860Y-79391610D01*
X151024155Y-79399281D01*
X151119393Y-79494519D01*
X151134547Y-79506955D01*
X151141415Y-79509800D01*
X151147390Y-79514227D01*
X151165850Y-79520822D01*
X151356326Y-79568441D01*
X151359707Y-79568941D01*
X151361071Y-79569506D01*
X151368421Y-79570229D01*
X151375719Y-79571309D01*
X151377177Y-79571091D01*
X151380580Y-79571427D01*
X151713913Y-79571427D01*
X151717315Y-79571091D01*
X151718774Y-79571309D01*
X151726071Y-79570229D01*
X151733422Y-79569506D01*
X151734785Y-79568941D01*
X151738167Y-79568441D01*
X151918542Y-79523347D01*
X152559112Y-79523347D01*
X152559112Y-79562365D01*
X152574044Y-79598413D01*
X152601634Y-79626003D01*
X152637682Y-79640935D01*
X152657191Y-79642856D01*
X153657191Y-79642856D01*
X153676700Y-79640935D01*
X153712748Y-79626003D01*
X153740338Y-79598413D01*
X153755270Y-79562365D01*
X153755270Y-79523347D01*
X153740338Y-79487299D01*
X153712748Y-79459709D01*
X153676700Y-79444777D01*
X153657191Y-79442856D01*
X152657191Y-79442856D01*
X152637682Y-79444777D01*
X152601634Y-79459709D01*
X152574044Y-79487299D01*
X152559112Y-79523347D01*
X151918542Y-79523347D01*
X151928642Y-79520822D01*
X151947103Y-79514227D01*
X151953075Y-79509801D01*
X151959946Y-79506956D01*
X151975099Y-79494519D01*
X152070339Y-79399281D01*
X152076632Y-79391612D01*
X152078628Y-79389882D01*
X152080521Y-79386874D01*
X152082775Y-79384128D01*
X152083785Y-79381687D01*
X152089071Y-79373291D01*
X152136690Y-79278054D01*
X152143696Y-79259745D01*
X152143950Y-79256161D01*
X152145326Y-79252841D01*
X152147247Y-79233332D01*
X152147247Y-79042856D01*
X152145326Y-79023347D01*
X152143950Y-79020026D01*
X152143696Y-79016443D01*
X152136690Y-78998134D01*
X152089071Y-78902897D01*
X152083785Y-78894500D01*
X152082775Y-78892060D01*
X152080521Y-78889313D01*
X152078628Y-78886306D01*
X152076632Y-78884575D01*
X152070339Y-78876907D01*
X151975099Y-78781669D01*
X151959946Y-78769232D01*
X151953075Y-78766386D01*
X151947103Y-78761961D01*
X151928642Y-78755366D01*
X151738167Y-78707747D01*
X151734785Y-78707246D01*
X151733422Y-78706682D01*
X151726071Y-78705958D01*
X151718774Y-78704879D01*
X151717315Y-78705096D01*
X151713913Y-78704761D01*
X151380580Y-78704761D01*
X151377177Y-78705096D01*
X151375719Y-78704879D01*
X151368421Y-78705958D01*
X151361071Y-78706682D01*
X151359707Y-78707246D01*
X151356326Y-78707747D01*
X151165850Y-78755366D01*
X151147390Y-78761961D01*
X151141415Y-78766387D01*
X151134547Y-78769233D01*
X151119393Y-78781669D01*
X151024155Y-78876907D01*
X151017860Y-78884577D01*
X151015866Y-78886307D01*
X151013972Y-78889314D01*
X151011719Y-78892061D01*
X151010708Y-78894500D01*
X151005423Y-78902897D01*
X150957804Y-78998135D01*
X150950798Y-79016443D01*
X150950543Y-79020026D01*
X150949168Y-79023347D01*
X150947247Y-79042856D01*
X150836136Y-79042856D01*
X150836136Y-78685714D01*
X152557191Y-78685714D01*
X152557191Y-78780952D01*
X152558163Y-78790825D01*
X152557976Y-78793459D01*
X152558763Y-78796922D01*
X152559112Y-78800461D01*
X152560123Y-78802903D01*
X152562323Y-78812575D01*
X152609942Y-78955431D01*
X152617933Y-78973332D01*
X152620288Y-78976047D01*
X152621663Y-78979366D01*
X152634099Y-78994520D01*
X152729337Y-79089758D01*
X152737003Y-79096049D01*
X152738736Y-79098047D01*
X152741747Y-79099942D01*
X152744491Y-79102194D01*
X152746928Y-79103203D01*
X152755327Y-79108490D01*
X152850564Y-79156109D01*
X152851992Y-79156655D01*
X152852572Y-79157085D01*
X152860748Y-79160006D01*
X152868873Y-79163115D01*
X152869593Y-79163166D01*
X152871032Y-79163680D01*
X153061508Y-79211299D01*
X153064889Y-79211799D01*
X153066253Y-79212364D01*
X153073603Y-79213087D01*
X153080901Y-79214167D01*
X153082359Y-79213949D01*
X153085762Y-79214285D01*
X153228619Y-79214285D01*
X153232021Y-79213949D01*
X153233480Y-79214167D01*
X153240777Y-79213087D01*
X153248128Y-79212364D01*
X153249491Y-79211799D01*
X153252873Y-79211299D01*
X153443348Y-79163680D01*
X153444785Y-79163166D01*
X153445508Y-79163115D01*
X153453632Y-79160006D01*
X153461809Y-79157085D01*
X153462389Y-79156654D01*
X153463816Y-79156109D01*
X153559054Y-79108490D01*
X153567446Y-79103207D01*
X153569890Y-79102195D01*
X153572639Y-79099938D01*
X153575644Y-79098047D01*
X153577373Y-79096052D01*
X153585043Y-79089758D01*
X153680283Y-78994520D01*
X153692719Y-78979367D01*
X153694094Y-78976047D01*
X153696449Y-78973332D01*
X153704440Y-78955432D01*
X153752059Y-78812575D01*
X153754258Y-78802902D01*
X153755270Y-78800461D01*
X153755618Y-78796923D01*
X153756406Y-78793460D01*
X153756218Y-78790825D01*
X153757191Y-78780952D01*
X153757191Y-78685714D01*
X153756218Y-78675840D01*
X153756406Y-78673206D01*
X153755618Y-78669742D01*
X153755270Y-78666205D01*
X153754258Y-78663763D01*
X153752059Y-78654091D01*
X153704440Y-78511234D01*
X153696449Y-78493334D01*
X153694094Y-78490618D01*
X153692719Y-78487299D01*
X153680282Y-78472145D01*
X153632662Y-78424527D01*
X153617509Y-78412090D01*
X153581460Y-78397159D01*
X153542442Y-78397160D01*
X153506394Y-78412091D01*
X153478804Y-78439681D01*
X153463873Y-78475730D01*
X153463874Y-78514748D01*
X153478805Y-78550796D01*
X153491242Y-78565949D01*
X153522169Y-78596875D01*
X153557191Y-78701940D01*
X153557191Y-78764725D01*
X153522169Y-78869790D01*
X153455099Y-78936860D01*
X153384190Y-78972314D01*
X153216309Y-79014285D01*
X153098071Y-79014285D01*
X152930190Y-78972314D01*
X152859285Y-78936862D01*
X152792212Y-78869789D01*
X152757191Y-78764725D01*
X152757191Y-78701941D01*
X152792212Y-78596875D01*
X152823139Y-78565949D01*
X152835576Y-78550796D01*
X152850507Y-78514747D01*
X152850507Y-78475729D01*
X152835576Y-78439681D01*
X152807986Y-78412091D01*
X152771938Y-78397160D01*
X152732920Y-78397160D01*
X152696871Y-78412091D01*
X152681718Y-78424528D01*
X152634099Y-78472146D01*
X152621663Y-78487300D01*
X152620288Y-78490618D01*
X152617933Y-78493334D01*
X152609942Y-78511235D01*
X152562323Y-78654091D01*
X152560123Y-78663762D01*
X152559112Y-78666205D01*
X152558763Y-78669743D01*
X152557976Y-78673207D01*
X152558163Y-78675840D01*
X152557191Y-78685714D01*
X150836136Y-78685714D01*
X150836136Y-77610546D01*
X150947316Y-77610546D01*
X150953493Y-77649073D01*
X150973942Y-77682303D01*
X151005551Y-77705178D01*
X151024085Y-77711566D01*
X151638557Y-77857868D01*
X151307195Y-77946232D01*
X151302620Y-77947947D01*
X151300704Y-77948202D01*
X151298429Y-77949518D01*
X151288839Y-77953115D01*
X151278353Y-77961141D01*
X151266936Y-77967751D01*
X151262999Y-77972894D01*
X151257856Y-77976831D01*
X151251246Y-77988248D01*
X151243220Y-77998734D01*
X151241549Y-78004997D01*
X151238307Y-78010599D01*
X151236569Y-78023676D01*
X151233167Y-78036435D01*
X151234020Y-78042856D01*
X151233167Y-78049277D01*
X151236569Y-78062035D01*
X151238307Y-78075113D01*
X151241549Y-78080714D01*
X151243220Y-78086978D01*
X151251246Y-78097463D01*
X151257856Y-78108881D01*
X151262999Y-78112817D01*
X151266936Y-78117961D01*
X151278353Y-78124570D01*
X151288839Y-78132597D01*
X151298429Y-78136193D01*
X151300704Y-78137510D01*
X151302620Y-78137764D01*
X151307195Y-78139480D01*
X151638557Y-78227843D01*
X151024085Y-78374146D01*
X151005551Y-78380534D01*
X150973942Y-78403409D01*
X150953493Y-78436639D01*
X150947316Y-78475166D01*
X150956354Y-78513123D01*
X150979229Y-78544732D01*
X151012459Y-78565181D01*
X151050986Y-78571358D01*
X151070409Y-78568708D01*
X152070409Y-78330613D01*
X152077101Y-78328306D01*
X152079505Y-78327987D01*
X152081677Y-78326729D01*
X152088943Y-78324225D01*
X152100705Y-78315712D01*
X152113272Y-78308437D01*
X152116392Y-78304359D01*
X152120552Y-78301350D01*
X152128159Y-78288987D01*
X152136988Y-78277454D01*
X152138311Y-78272490D01*
X152141001Y-78268120D01*
X152143299Y-78253785D01*
X152147041Y-78239753D01*
X152146364Y-78234664D01*
X152147178Y-78229593D01*
X152143813Y-78215464D01*
X152141902Y-78201075D01*
X152139329Y-78196631D01*
X152138140Y-78191636D01*
X152129626Y-78179871D01*
X152122352Y-78167307D01*
X152118274Y-78164186D01*
X152115265Y-78160027D01*
X152102902Y-78152419D01*
X152091369Y-78143591D01*
X152084169Y-78140891D01*
X152082035Y-78139578D01*
X152079643Y-78139194D01*
X152073014Y-78136709D01*
X151721066Y-78042856D01*
X152073014Y-77949003D01*
X152079643Y-77946517D01*
X152082035Y-77946134D01*
X152084169Y-77944820D01*
X152091369Y-77942121D01*
X152102902Y-77933292D01*
X152115265Y-77925685D01*
X152118274Y-77921525D01*
X152122352Y-77918405D01*
X152129626Y-77905840D01*
X152138140Y-77894076D01*
X152139329Y-77889080D01*
X152141902Y-77884637D01*
X152143813Y-77870247D01*
X152147178Y-77856119D01*
X152146364Y-77851047D01*
X152147041Y-77845959D01*
X152143299Y-77831926D01*
X152141001Y-77817592D01*
X152138311Y-77813221D01*
X152136988Y-77808258D01*
X152128159Y-77796724D01*
X152120552Y-77784362D01*
X152116392Y-77781352D01*
X152113272Y-77777275D01*
X152100705Y-77769999D01*
X152088943Y-77761487D01*
X152081677Y-77758982D01*
X152079505Y-77757725D01*
X152077101Y-77757405D01*
X152070409Y-77755099D01*
X151070409Y-77517004D01*
X151050986Y-77514354D01*
X151012459Y-77520531D01*
X150979229Y-77540980D01*
X150956354Y-77572589D01*
X150947316Y-77610546D01*
X150836136Y-77610546D01*
X150836136Y-77475729D01*
X152559112Y-77475729D01*
X152559112Y-77514747D01*
X152574044Y-77550795D01*
X152586480Y-77565949D01*
X152987197Y-77966666D01*
X152657191Y-77966666D01*
X152637682Y-77968587D01*
X152601634Y-77983519D01*
X152574044Y-78011109D01*
X152559112Y-78047157D01*
X152559112Y-78086175D01*
X152574044Y-78122223D01*
X152601634Y-78149813D01*
X152637682Y-78164745D01*
X152657191Y-78166666D01*
X153657191Y-78166666D01*
X153676700Y-78164745D01*
X153712748Y-78149813D01*
X153740338Y-78122223D01*
X153755270Y-78086175D01*
X153755270Y-78047157D01*
X153740338Y-78011109D01*
X153712748Y-77983519D01*
X153676700Y-77968587D01*
X153657191Y-77966666D01*
X153270041Y-77966666D01*
X153238003Y-77934628D01*
X153717191Y-77575238D01*
X153731646Y-77561996D01*
X153751525Y-77528421D01*
X153757043Y-77489795D01*
X153747360Y-77451998D01*
X153723949Y-77420783D01*
X153690375Y-77400904D01*
X153651749Y-77395386D01*
X153613951Y-77405069D01*
X153597191Y-77415238D01*
X153095146Y-77791771D01*
X152727902Y-77424527D01*
X152712748Y-77412091D01*
X152676700Y-77397159D01*
X152637682Y-77397159D01*
X152601634Y-77412091D01*
X152574044Y-77439681D01*
X152559112Y-77475729D01*
X150836136Y-77475729D01*
X150836136Y-77284275D01*
X153868302Y-77284275D01*
X153868302Y-81515872D01*
G37*
D11*
G36*
X144325453Y-92840607D02*
G01*
X144375088Y-92865425D01*
X144422037Y-92912373D01*
X144446553Y-92985920D01*
X144446553Y-93071228D01*
X143886553Y-93071228D01*
X143886553Y-92985920D01*
X143911068Y-92912373D01*
X143958017Y-92865424D01*
X144007653Y-92840606D01*
X144125170Y-92811228D01*
X144207936Y-92811228D01*
X144325453Y-92840607D01*
G37*
G36*
X144246553Y-92377441D02*
G01*
X144037912Y-92307894D01*
X144246553Y-92238347D01*
X144246553Y-92377441D01*
G37*
G36*
X144664331Y-93289006D02*
G01*
X143668775Y-93289006D01*
X143668775Y-92974561D01*
X143746553Y-92974561D01*
X143746553Y-93141228D01*
X143751881Y-93168016D01*
X143789765Y-93205900D01*
X143816553Y-93211228D01*
X144516553Y-93211228D01*
X144543341Y-93205900D01*
X144581225Y-93168016D01*
X144586553Y-93141228D01*
X144586553Y-92974561D01*
X144584364Y-92963556D01*
X144582961Y-92952425D01*
X144549628Y-92852425D01*
X144547892Y-92849379D01*
X144547892Y-92847773D01*
X144541657Y-92838443D01*
X144536102Y-92828697D01*
X144534665Y-92827978D01*
X144532717Y-92825063D01*
X144466050Y-92758397D01*
X144456719Y-92752162D01*
X144447858Y-92745285D01*
X144381191Y-92711951D01*
X144373794Y-92709925D01*
X144366863Y-92706651D01*
X144233530Y-92673318D01*
X144224964Y-92672901D01*
X144216553Y-92671228D01*
X144116553Y-92671228D01*
X144108141Y-92672900D01*
X144099575Y-92673318D01*
X143966243Y-92706651D01*
X143959312Y-92709925D01*
X143951914Y-92711951D01*
X143885248Y-92745285D01*
X143876384Y-92752164D01*
X143867056Y-92758397D01*
X143800389Y-92825063D01*
X143798440Y-92827978D01*
X143797004Y-92828697D01*
X143791450Y-92838439D01*
X143785214Y-92847772D01*
X143785214Y-92849379D01*
X143783478Y-92852425D01*
X143750145Y-92952425D01*
X143748741Y-92963556D01*
X143746553Y-92974561D01*
X143668775Y-92974561D01*
X143668775Y-92302933D01*
X143746729Y-92302933D01*
X143748383Y-92307895D01*
X143746729Y-92312857D01*
X143756653Y-92332705D01*
X143763671Y-92353759D01*
X143768349Y-92356098D01*
X143770689Y-92360777D01*
X143794417Y-92374303D01*
X144494417Y-92607636D01*
X144521516Y-92611052D01*
X144569435Y-92587092D01*
X144586378Y-92536266D01*
X144562418Y-92488346D01*
X144538689Y-92474820D01*
X144386553Y-92424108D01*
X144386553Y-92191681D01*
X144538689Y-92140969D01*
X144562417Y-92127443D01*
X144586377Y-92079523D01*
X144569435Y-92028697D01*
X144521515Y-92004737D01*
X144494417Y-92008153D01*
X143794417Y-92241487D01*
X143770689Y-92255013D01*
X143768349Y-92259691D01*
X143763671Y-92262031D01*
X143756653Y-92283085D01*
X143746729Y-92302933D01*
X143668775Y-92302933D01*
X143668775Y-91541228D01*
X143746553Y-91541228D01*
X143746553Y-91941228D01*
X143751881Y-91968016D01*
X143789765Y-92005900D01*
X143843341Y-92005900D01*
X143881225Y-91968016D01*
X143886553Y-91941228D01*
X143886553Y-91811228D01*
X144516553Y-91811228D01*
X144543341Y-91805900D01*
X144581225Y-91768016D01*
X144581225Y-91714440D01*
X144543341Y-91676556D01*
X144516553Y-91671228D01*
X143886553Y-91671228D01*
X143886553Y-91541228D01*
X143881225Y-91514440D01*
X143843341Y-91476556D01*
X143789765Y-91476556D01*
X143751881Y-91514440D01*
X143746553Y-91541228D01*
X143668775Y-91541228D01*
X143668775Y-91398778D01*
X144664331Y-91398778D01*
X144664331Y-93289006D01*
G37*
X148949999Y-82249886D02*
X148916666Y-82283220D01*
X148916666Y-82283220D02*
X148816666Y-82316553D01*
X148816666Y-82316553D02*
X148749999Y-82316553D01*
X148749999Y-82316553D02*
X148649999Y-82283220D01*
X148649999Y-82283220D02*
X148583333Y-82216553D01*
X148583333Y-82216553D02*
X148549999Y-82149886D01*
X148549999Y-82149886D02*
X148516666Y-82016553D01*
X148516666Y-82016553D02*
X148516666Y-81916553D01*
X148516666Y-81916553D02*
X148549999Y-81783220D01*
X148549999Y-81783220D02*
X148583333Y-81716553D01*
X148583333Y-81716553D02*
X148649999Y-81649886D01*
X148649999Y-81649886D02*
X148749999Y-81616553D01*
X148749999Y-81616553D02*
X148816666Y-81616553D01*
X148816666Y-81616553D02*
X148916666Y-81649886D01*
X148916666Y-81649886D02*
X148949999Y-81683220D01*
X149616666Y-82316553D02*
X149216666Y-82316553D01*
X149416666Y-82316553D02*
X149416666Y-81616553D01*
X149416666Y-81616553D02*
X149349999Y-81716553D01*
X149349999Y-81716553D02*
X149283333Y-81783220D01*
X149283333Y-81783220D02*
X149216666Y-81816553D01*
X150283333Y-82316553D02*
X149883333Y-82316553D01*
X150083333Y-82316553D02*
X150083333Y-81616553D01*
X150083333Y-81616553D02*
X150016666Y-81716553D01*
X150016666Y-81716553D02*
X149950000Y-81783220D01*
X149950000Y-81783220D02*
X149883333Y-81816553D01*
X149349999Y-83216553D02*
X149116666Y-82883220D01*
X148949999Y-83216553D02*
X148949999Y-82516553D01*
X148949999Y-82516553D02*
X149216666Y-82516553D01*
X149216666Y-82516553D02*
X149283333Y-82549886D01*
X149283333Y-82549886D02*
X149316666Y-82583220D01*
X149316666Y-82583220D02*
X149349999Y-82649886D01*
X149349999Y-82649886D02*
X149349999Y-82749886D01*
X149349999Y-82749886D02*
X149316666Y-82816553D01*
X149316666Y-82816553D02*
X149283333Y-82849886D01*
X149283333Y-82849886D02*
X149216666Y-82883220D01*
X149216666Y-82883220D02*
X148949999Y-82883220D01*
X150016666Y-83216553D02*
X149616666Y-83216553D01*
X149816666Y-83216553D02*
X149816666Y-82516553D01*
X149816666Y-82516553D02*
X149749999Y-82616553D01*
X149749999Y-82616553D02*
X149683333Y-82683220D01*
X149683333Y-82683220D02*
X149616666Y-82716553D01*
X150650000Y-82516553D02*
X150316666Y-82516553D01*
X150316666Y-82516553D02*
X150283333Y-82849886D01*
X150283333Y-82849886D02*
X150316666Y-82816553D01*
X150316666Y-82816553D02*
X150383333Y-82783220D01*
X150383333Y-82783220D02*
X150550000Y-82783220D01*
X150550000Y-82783220D02*
X150616666Y-82816553D01*
X150616666Y-82816553D02*
X150650000Y-82849886D01*
X150650000Y-82849886D02*
X150683333Y-82916553D01*
X150683333Y-82916553D02*
X150683333Y-83083220D01*
X150683333Y-83083220D02*
X150650000Y-83149886D01*
X150650000Y-83149886D02*
X150616666Y-83183220D01*
X150616666Y-83183220D02*
X150550000Y-83216553D01*
X150550000Y-83216553D02*
X150383333Y-83216553D01*
X150383333Y-83216553D02*
X150316666Y-83183220D01*
X150316666Y-83183220D02*
X150283333Y-83149886D01*
X144649999Y-83149886D02*
X144616666Y-83183220D01*
X144616666Y-83183220D02*
X144516666Y-83216553D01*
X144516666Y-83216553D02*
X144449999Y-83216553D01*
X144449999Y-83216553D02*
X144349999Y-83183220D01*
X144349999Y-83183220D02*
X144283333Y-83116553D01*
X144283333Y-83116553D02*
X144249999Y-83049886D01*
X144249999Y-83049886D02*
X144216666Y-82916553D01*
X144216666Y-82916553D02*
X144216666Y-82816553D01*
X144216666Y-82816553D02*
X144249999Y-82683220D01*
X144249999Y-82683220D02*
X144283333Y-82616553D01*
X144283333Y-82616553D02*
X144349999Y-82549886D01*
X144349999Y-82549886D02*
X144449999Y-82516553D01*
X144449999Y-82516553D02*
X144516666Y-82516553D01*
X144516666Y-82516553D02*
X144616666Y-82549886D01*
X144616666Y-82549886D02*
X144649999Y-82583220D01*
X145316666Y-83216553D02*
X144916666Y-83216553D01*
X145116666Y-83216553D02*
X145116666Y-82516553D01*
X145116666Y-82516553D02*
X145049999Y-82616553D01*
X145049999Y-82616553D02*
X144983333Y-82683220D01*
X144983333Y-82683220D02*
X144916666Y-82716553D01*
X145716666Y-82816553D02*
X145650000Y-82783220D01*
X145650000Y-82783220D02*
X145616666Y-82749886D01*
X145616666Y-82749886D02*
X145583333Y-82683220D01*
X145583333Y-82683220D02*
X145583333Y-82649886D01*
X145583333Y-82649886D02*
X145616666Y-82583220D01*
X145616666Y-82583220D02*
X145650000Y-82549886D01*
X145650000Y-82549886D02*
X145716666Y-82516553D01*
X145716666Y-82516553D02*
X145850000Y-82516553D01*
X145850000Y-82516553D02*
X145916666Y-82549886D01*
X145916666Y-82549886D02*
X145950000Y-82583220D01*
X145950000Y-82583220D02*
X145983333Y-82649886D01*
X145983333Y-82649886D02*
X145983333Y-82683220D01*
X145983333Y-82683220D02*
X145950000Y-82749886D01*
X145950000Y-82749886D02*
X145916666Y-82783220D01*
X145916666Y-82783220D02*
X145850000Y-82816553D01*
X145850000Y-82816553D02*
X145716666Y-82816553D01*
X145716666Y-82816553D02*
X145650000Y-82849886D01*
X145650000Y-82849886D02*
X145616666Y-82883220D01*
X145616666Y-82883220D02*
X145583333Y-82949886D01*
X145583333Y-82949886D02*
X145583333Y-83083220D01*
X145583333Y-83083220D02*
X145616666Y-83149886D01*
X145616666Y-83149886D02*
X145650000Y-83183220D01*
X145650000Y-83183220D02*
X145716666Y-83216553D01*
X145716666Y-83216553D02*
X145850000Y-83216553D01*
X145850000Y-83216553D02*
X145916666Y-83183220D01*
X145916666Y-83183220D02*
X145950000Y-83149886D01*
X145950000Y-83149886D02*
X145983333Y-83083220D01*
X145983333Y-83083220D02*
X145983333Y-82949886D01*
X145983333Y-82949886D02*
X145950000Y-82883220D01*
X145950000Y-82883220D02*
X145916666Y-82849886D01*
X145916666Y-82849886D02*
X145850000Y-82816553D01*
X146849999Y-92916553D02*
X146616666Y-92583220D01*
X146449999Y-92916553D02*
X146449999Y-92216553D01*
X146449999Y-92216553D02*
X146716666Y-92216553D01*
X146716666Y-92216553D02*
X146783333Y-92249886D01*
X146783333Y-92249886D02*
X146816666Y-92283220D01*
X146816666Y-92283220D02*
X146849999Y-92349886D01*
X146849999Y-92349886D02*
X146849999Y-92449886D01*
X146849999Y-92449886D02*
X146816666Y-92516553D01*
X146816666Y-92516553D02*
X146783333Y-92549886D01*
X146783333Y-92549886D02*
X146716666Y-92583220D01*
X146716666Y-92583220D02*
X146449999Y-92583220D01*
X147516666Y-92916553D02*
X147116666Y-92916553D01*
X147316666Y-92916553D02*
X147316666Y-92216553D01*
X147316666Y-92216553D02*
X147249999Y-92316553D01*
X147249999Y-92316553D02*
X147183333Y-92383220D01*
X147183333Y-92383220D02*
X147116666Y-92416553D01*
X147950000Y-92216553D02*
X148016666Y-92216553D01*
X148016666Y-92216553D02*
X148083333Y-92249886D01*
X148083333Y-92249886D02*
X148116666Y-92283220D01*
X148116666Y-92283220D02*
X148150000Y-92349886D01*
X148150000Y-92349886D02*
X148183333Y-92483220D01*
X148183333Y-92483220D02*
X148183333Y-92649886D01*
X148183333Y-92649886D02*
X148150000Y-92783220D01*
X148150000Y-92783220D02*
X148116666Y-92849886D01*
X148116666Y-92849886D02*
X148083333Y-92883220D01*
X148083333Y-92883220D02*
X148016666Y-92916553D01*
X148016666Y-92916553D02*
X147950000Y-92916553D01*
X147950000Y-92916553D02*
X147883333Y-92883220D01*
X147883333Y-92883220D02*
X147850000Y-92849886D01*
X147850000Y-92849886D02*
X147816666Y-92783220D01*
X147816666Y-92783220D02*
X147783333Y-92649886D01*
X147783333Y-92649886D02*
X147783333Y-92483220D01*
X147783333Y-92483220D02*
X147816666Y-92349886D01*
X147816666Y-92349886D02*
X147850000Y-92283220D01*
X147850000Y-92283220D02*
X147883333Y-92249886D01*
X147883333Y-92249886D02*
X147950000Y-92216553D01*
X146149886Y-94250000D02*
X146183220Y-94283333D01*
X146183220Y-94283333D02*
X146216553Y-94383333D01*
X146216553Y-94383333D02*
X146216553Y-94450000D01*
X146216553Y-94450000D02*
X146183220Y-94550000D01*
X146183220Y-94550000D02*
X146116553Y-94616667D01*
X146116553Y-94616667D02*
X146049886Y-94650000D01*
X146049886Y-94650000D02*
X145916553Y-94683333D01*
X145916553Y-94683333D02*
X145816553Y-94683333D01*
X145816553Y-94683333D02*
X145683220Y-94650000D01*
X145683220Y-94650000D02*
X145616553Y-94616667D01*
X145616553Y-94616667D02*
X145549886Y-94550000D01*
X145549886Y-94550000D02*
X145516553Y-94450000D01*
X145516553Y-94450000D02*
X145516553Y-94383333D01*
X145516553Y-94383333D02*
X145549886Y-94283333D01*
X145549886Y-94283333D02*
X145583220Y-94250000D01*
X146216553Y-93583333D02*
X146216553Y-93983333D01*
X146216553Y-93783333D02*
X145516553Y-93783333D01*
X145516553Y-93783333D02*
X145616553Y-93850000D01*
X145616553Y-93850000D02*
X145683220Y-93916667D01*
X145683220Y-93916667D02*
X145716553Y-93983333D01*
X145749886Y-92983333D02*
X146216553Y-92983333D01*
X145483220Y-93150000D02*
X145983220Y-93316666D01*
X145983220Y-93316666D02*
X145983220Y-92883333D01*
X154083333Y-82449886D02*
X154050000Y-82483220D01*
X154050000Y-82483220D02*
X153950000Y-82516553D01*
X153950000Y-82516553D02*
X153883333Y-82516553D01*
X153883333Y-82516553D02*
X153783333Y-82483220D01*
X153783333Y-82483220D02*
X153716667Y-82416553D01*
X153716667Y-82416553D02*
X153683333Y-82349886D01*
X153683333Y-82349886D02*
X153650000Y-82216553D01*
X153650000Y-82216553D02*
X153650000Y-82116553D01*
X153650000Y-82116553D02*
X153683333Y-81983220D01*
X153683333Y-81983220D02*
X153716667Y-81916553D01*
X153716667Y-81916553D02*
X153783333Y-81849886D01*
X153783333Y-81849886D02*
X153883333Y-81816553D01*
X153883333Y-81816553D02*
X153950000Y-81816553D01*
X153950000Y-81816553D02*
X154050000Y-81849886D01*
X154050000Y-81849886D02*
X154083333Y-81883220D01*
X154483333Y-82116553D02*
X154416667Y-82083220D01*
X154416667Y-82083220D02*
X154383333Y-82049886D01*
X154383333Y-82049886D02*
X154350000Y-81983220D01*
X154350000Y-81983220D02*
X154350000Y-81949886D01*
X154350000Y-81949886D02*
X154383333Y-81883220D01*
X154383333Y-81883220D02*
X154416667Y-81849886D01*
X154416667Y-81849886D02*
X154483333Y-81816553D01*
X154483333Y-81816553D02*
X154616667Y-81816553D01*
X154616667Y-81816553D02*
X154683333Y-81849886D01*
X154683333Y-81849886D02*
X154716667Y-81883220D01*
X154716667Y-81883220D02*
X154750000Y-81949886D01*
X154750000Y-81949886D02*
X154750000Y-81983220D01*
X154750000Y-81983220D02*
X154716667Y-82049886D01*
X154716667Y-82049886D02*
X154683333Y-82083220D01*
X154683333Y-82083220D02*
X154616667Y-82116553D01*
X154616667Y-82116553D02*
X154483333Y-82116553D01*
X154483333Y-82116553D02*
X154416667Y-82149886D01*
X154416667Y-82149886D02*
X154383333Y-82183220D01*
X154383333Y-82183220D02*
X154350000Y-82249886D01*
X154350000Y-82249886D02*
X154350000Y-82383220D01*
X154350000Y-82383220D02*
X154383333Y-82449886D01*
X154383333Y-82449886D02*
X154416667Y-82483220D01*
X154416667Y-82483220D02*
X154483333Y-82516553D01*
X154483333Y-82516553D02*
X154616667Y-82516553D01*
X154616667Y-82516553D02*
X154683333Y-82483220D01*
X154683333Y-82483220D02*
X154716667Y-82449886D01*
X154716667Y-82449886D02*
X154750000Y-82383220D01*
X154750000Y-82383220D02*
X154750000Y-82249886D01*
X154750000Y-82249886D02*
X154716667Y-82183220D01*
X154716667Y-82183220D02*
X154683333Y-82149886D01*
X154683333Y-82149886D02*
X154616667Y-82116553D01*
X155383333Y-90949886D02*
X155350000Y-90983220D01*
X155350000Y-90983220D02*
X155250000Y-91016553D01*
X155250000Y-91016553D02*
X155183333Y-91016553D01*
X155183333Y-91016553D02*
X155083333Y-90983220D01*
X155083333Y-90983220D02*
X155016667Y-90916553D01*
X155016667Y-90916553D02*
X154983333Y-90849886D01*
X154983333Y-90849886D02*
X154950000Y-90716553D01*
X154950000Y-90716553D02*
X154950000Y-90616553D01*
X154950000Y-90616553D02*
X154983333Y-90483220D01*
X154983333Y-90483220D02*
X155016667Y-90416553D01*
X155016667Y-90416553D02*
X155083333Y-90349886D01*
X155083333Y-90349886D02*
X155183333Y-90316553D01*
X155183333Y-90316553D02*
X155250000Y-90316553D01*
X155250000Y-90316553D02*
X155350000Y-90349886D01*
X155350000Y-90349886D02*
X155383333Y-90383220D01*
X156016667Y-90316553D02*
X155683333Y-90316553D01*
X155683333Y-90316553D02*
X155650000Y-90649886D01*
X155650000Y-90649886D02*
X155683333Y-90616553D01*
X155683333Y-90616553D02*
X155750000Y-90583220D01*
X155750000Y-90583220D02*
X155916667Y-90583220D01*
X155916667Y-90583220D02*
X155983333Y-90616553D01*
X155983333Y-90616553D02*
X156016667Y-90649886D01*
X156016667Y-90649886D02*
X156050000Y-90716553D01*
X156050000Y-90716553D02*
X156050000Y-90883220D01*
X156050000Y-90883220D02*
X156016667Y-90949886D01*
X156016667Y-90949886D02*
X155983333Y-90983220D01*
X155983333Y-90983220D02*
X155916667Y-91016553D01*
X155916667Y-91016553D02*
X155750000Y-91016553D01*
X155750000Y-91016553D02*
X155683333Y-90983220D01*
X155683333Y-90983220D02*
X155650000Y-90949886D01*
X153649999Y-96616553D02*
X153416666Y-96283220D01*
X153249999Y-96616553D02*
X153249999Y-95916553D01*
X153249999Y-95916553D02*
X153516666Y-95916553D01*
X153516666Y-95916553D02*
X153583333Y-95949886D01*
X153583333Y-95949886D02*
X153616666Y-95983220D01*
X153616666Y-95983220D02*
X153649999Y-96049886D01*
X153649999Y-96049886D02*
X153649999Y-96149886D01*
X153649999Y-96149886D02*
X153616666Y-96216553D01*
X153616666Y-96216553D02*
X153583333Y-96249886D01*
X153583333Y-96249886D02*
X153516666Y-96283220D01*
X153516666Y-96283220D02*
X153249999Y-96283220D01*
X154316666Y-96616553D02*
X153916666Y-96616553D01*
X154116666Y-96616553D02*
X154116666Y-95916553D01*
X154116666Y-95916553D02*
X154049999Y-96016553D01*
X154049999Y-96016553D02*
X153983333Y-96083220D01*
X153983333Y-96083220D02*
X153916666Y-96116553D01*
X154916666Y-96149886D02*
X154916666Y-96616553D01*
X154750000Y-95883220D02*
X154583333Y-96383220D01*
X154583333Y-96383220D02*
X155016666Y-96383220D01*
X145516553Y-90916666D02*
X145183220Y-91149999D01*
X145516553Y-91316666D02*
X144816553Y-91316666D01*
X144816553Y-91316666D02*
X144816553Y-91049999D01*
X144816553Y-91049999D02*
X144849886Y-90983333D01*
X144849886Y-90983333D02*
X144883220Y-90949999D01*
X144883220Y-90949999D02*
X144949886Y-90916666D01*
X144949886Y-90916666D02*
X145049886Y-90916666D01*
X145049886Y-90916666D02*
X145116553Y-90949999D01*
X145116553Y-90949999D02*
X145149886Y-90983333D01*
X145149886Y-90983333D02*
X145183220Y-91049999D01*
X145183220Y-91049999D02*
X145183220Y-91316666D01*
X144816553Y-90683333D02*
X144816553Y-90249999D01*
X144816553Y-90249999D02*
X145083220Y-90483333D01*
X145083220Y-90483333D02*
X145083220Y-90383333D01*
X145083220Y-90383333D02*
X145116553Y-90316666D01*
X145116553Y-90316666D02*
X145149886Y-90283333D01*
X145149886Y-90283333D02*
X145216553Y-90249999D01*
X145216553Y-90249999D02*
X145383220Y-90249999D01*
X145383220Y-90249999D02*
X145449886Y-90283333D01*
X145449886Y-90283333D02*
X145483220Y-90316666D01*
X145483220Y-90316666D02*
X145516553Y-90383333D01*
X145516553Y-90383333D02*
X145516553Y-90583333D01*
X145516553Y-90583333D02*
X145483220Y-90649999D01*
X145483220Y-90649999D02*
X145449886Y-90683333D01*
X147349886Y-97150000D02*
X147383220Y-97183333D01*
X147383220Y-97183333D02*
X147416553Y-97283333D01*
X147416553Y-97283333D02*
X147416553Y-97350000D01*
X147416553Y-97350000D02*
X147383220Y-97450000D01*
X147383220Y-97450000D02*
X147316553Y-97516667D01*
X147316553Y-97516667D02*
X147249886Y-97550000D01*
X147249886Y-97550000D02*
X147116553Y-97583333D01*
X147116553Y-97583333D02*
X147016553Y-97583333D01*
X147016553Y-97583333D02*
X146883220Y-97550000D01*
X146883220Y-97550000D02*
X146816553Y-97516667D01*
X146816553Y-97516667D02*
X146749886Y-97450000D01*
X146749886Y-97450000D02*
X146716553Y-97350000D01*
X146716553Y-97350000D02*
X146716553Y-97283333D01*
X146716553Y-97283333D02*
X146749886Y-97183333D01*
X146749886Y-97183333D02*
X146783220Y-97150000D01*
X147416553Y-96483333D02*
X147416553Y-96883333D01*
X147416553Y-96683333D02*
X146716553Y-96683333D01*
X146716553Y-96683333D02*
X146816553Y-96750000D01*
X146816553Y-96750000D02*
X146883220Y-96816667D01*
X146883220Y-96816667D02*
X146916553Y-96883333D01*
X146716553Y-96250000D02*
X146716553Y-95816666D01*
X146716553Y-95816666D02*
X146983220Y-96050000D01*
X146983220Y-96050000D02*
X146983220Y-95950000D01*
X146983220Y-95950000D02*
X147016553Y-95883333D01*
X147016553Y-95883333D02*
X147049886Y-95850000D01*
X147049886Y-95850000D02*
X147116553Y-95816666D01*
X147116553Y-95816666D02*
X147283220Y-95816666D01*
X147283220Y-95816666D02*
X147349886Y-95850000D01*
X147349886Y-95850000D02*
X147383220Y-95883333D01*
X147383220Y-95883333D02*
X147416553Y-95950000D01*
X147416553Y-95950000D02*
X147416553Y-96150000D01*
X147416553Y-96150000D02*
X147383220Y-96216666D01*
X147383220Y-96216666D02*
X147349886Y-96250000D01*
G36*
X146909116Y-78097891D02*
G01*
X146090883Y-78097891D01*
X146090883Y-77923325D01*
X146168661Y-77923325D01*
X146168661Y-77976901D01*
X146206545Y-78014785D01*
X146233333Y-78020113D01*
X146766666Y-78020113D01*
X146793454Y-78014785D01*
X146831338Y-77976901D01*
X146831338Y-77923325D01*
X146793454Y-77885441D01*
X146766666Y-77880113D01*
X146233333Y-77880113D01*
X146206545Y-77885441D01*
X146168661Y-77923325D01*
X146090883Y-77923325D01*
X146090883Y-77802335D01*
X146909116Y-77802335D01*
X146909116Y-78097891D01*
G37*
G36*
X146909116Y-80359230D02*
G01*
X146090883Y-80359230D01*
X146090883Y-79923325D01*
X146168661Y-79923325D01*
X146168661Y-79976901D01*
X146206545Y-80014785D01*
X146233333Y-80020113D01*
X146429999Y-80020113D01*
X146429999Y-80216780D01*
X146435327Y-80243568D01*
X146473211Y-80281452D01*
X146526787Y-80281452D01*
X146564671Y-80243568D01*
X146569999Y-80216780D01*
X146569999Y-80020113D01*
X146766666Y-80020113D01*
X146793454Y-80014785D01*
X146831338Y-79976901D01*
X146831338Y-79923325D01*
X146793454Y-79885441D01*
X146766666Y-79880113D01*
X146569999Y-79880113D01*
X146569999Y-79683446D01*
X146564671Y-79656658D01*
X146526787Y-79618774D01*
X146473211Y-79618774D01*
X146435327Y-79656658D01*
X146429999Y-79683446D01*
X146429999Y-79880113D01*
X146233333Y-79880113D01*
X146206545Y-79885441D01*
X146168661Y-79923325D01*
X146090883Y-79923325D01*
X146090883Y-79540996D01*
X146909116Y-79540996D01*
X146909116Y-80359230D01*
G37*
X145616553Y-96616666D02*
X145283220Y-96849999D01*
X145616553Y-97016666D02*
X144916553Y-97016666D01*
X144916553Y-97016666D02*
X144916553Y-96749999D01*
X144916553Y-96749999D02*
X144949886Y-96683333D01*
X144949886Y-96683333D02*
X144983220Y-96649999D01*
X144983220Y-96649999D02*
X145049886Y-96616666D01*
X145049886Y-96616666D02*
X145149886Y-96616666D01*
X145149886Y-96616666D02*
X145216553Y-96649999D01*
X145216553Y-96649999D02*
X145249886Y-96683333D01*
X145249886Y-96683333D02*
X145283220Y-96749999D01*
X145283220Y-96749999D02*
X145283220Y-97016666D01*
X145216553Y-96216666D02*
X145183220Y-96283333D01*
X145183220Y-96283333D02*
X145149886Y-96316666D01*
X145149886Y-96316666D02*
X145083220Y-96349999D01*
X145083220Y-96349999D02*
X145049886Y-96349999D01*
X145049886Y-96349999D02*
X144983220Y-96316666D01*
X144983220Y-96316666D02*
X144949886Y-96283333D01*
X144949886Y-96283333D02*
X144916553Y-96216666D01*
X144916553Y-96216666D02*
X144916553Y-96083333D01*
X144916553Y-96083333D02*
X144949886Y-96016666D01*
X144949886Y-96016666D02*
X144983220Y-95983333D01*
X144983220Y-95983333D02*
X145049886Y-95949999D01*
X145049886Y-95949999D02*
X145083220Y-95949999D01*
X145083220Y-95949999D02*
X145149886Y-95983333D01*
X145149886Y-95983333D02*
X145183220Y-96016666D01*
X145183220Y-96016666D02*
X145216553Y-96083333D01*
X145216553Y-96083333D02*
X145216553Y-96216666D01*
X145216553Y-96216666D02*
X145249886Y-96283333D01*
X145249886Y-96283333D02*
X145283220Y-96316666D01*
X145283220Y-96316666D02*
X145349886Y-96349999D01*
X145349886Y-96349999D02*
X145483220Y-96349999D01*
X145483220Y-96349999D02*
X145549886Y-96316666D01*
X145549886Y-96316666D02*
X145583220Y-96283333D01*
X145583220Y-96283333D02*
X145616553Y-96216666D01*
X145616553Y-96216666D02*
X145616553Y-96083333D01*
X145616553Y-96083333D02*
X145583220Y-96016666D01*
X145583220Y-96016666D02*
X145549886Y-95983333D01*
X145549886Y-95983333D02*
X145483220Y-95949999D01*
X145483220Y-95949999D02*
X145349886Y-95949999D01*
X145349886Y-95949999D02*
X145283220Y-95983333D01*
X145283220Y-95983333D02*
X145249886Y-96016666D01*
X145249886Y-96016666D02*
X145216553Y-96083333D01*
X153116553Y-92316666D02*
X152783220Y-92549999D01*
X153116553Y-92716666D02*
X152416553Y-92716666D01*
X152416553Y-92716666D02*
X152416553Y-92449999D01*
X152416553Y-92449999D02*
X152449886Y-92383333D01*
X152449886Y-92383333D02*
X152483220Y-92349999D01*
X152483220Y-92349999D02*
X152549886Y-92316666D01*
X152549886Y-92316666D02*
X152649886Y-92316666D01*
X152649886Y-92316666D02*
X152716553Y-92349999D01*
X152716553Y-92349999D02*
X152749886Y-92383333D01*
X152749886Y-92383333D02*
X152783220Y-92449999D01*
X152783220Y-92449999D02*
X152783220Y-92716666D01*
X153116553Y-91649999D02*
X153116553Y-92049999D01*
X153116553Y-91849999D02*
X152416553Y-91849999D01*
X152416553Y-91849999D02*
X152516553Y-91916666D01*
X152516553Y-91916666D02*
X152583220Y-91983333D01*
X152583220Y-91983333D02*
X152616553Y-92049999D01*
X144583333Y-82416553D02*
X144350000Y-82083220D01*
X144183333Y-82416553D02*
X144183333Y-81716553D01*
X144183333Y-81716553D02*
X144450000Y-81716553D01*
X144450000Y-81716553D02*
X144516667Y-81749886D01*
X144516667Y-81749886D02*
X144550000Y-81783220D01*
X144550000Y-81783220D02*
X144583333Y-81849886D01*
X144583333Y-81849886D02*
X144583333Y-81949886D01*
X144583333Y-81949886D02*
X144550000Y-82016553D01*
X144550000Y-82016553D02*
X144516667Y-82049886D01*
X144516667Y-82049886D02*
X144450000Y-82083220D01*
X144450000Y-82083220D02*
X144183333Y-82083220D01*
X144816667Y-81716553D02*
X145283333Y-81716553D01*
X145283333Y-81716553D02*
X144983333Y-82416553D01*
X144483333Y-88616553D02*
X144250000Y-88283220D01*
X144083333Y-88616553D02*
X144083333Y-87916553D01*
X144083333Y-87916553D02*
X144350000Y-87916553D01*
X144350000Y-87916553D02*
X144416667Y-87949886D01*
X144416667Y-87949886D02*
X144450000Y-87983220D01*
X144450000Y-87983220D02*
X144483333Y-88049886D01*
X144483333Y-88049886D02*
X144483333Y-88149886D01*
X144483333Y-88149886D02*
X144450000Y-88216553D01*
X144450000Y-88216553D02*
X144416667Y-88249886D01*
X144416667Y-88249886D02*
X144350000Y-88283220D01*
X144350000Y-88283220D02*
X144083333Y-88283220D01*
X145083333Y-88149886D02*
X145083333Y-88616553D01*
X144916667Y-87883220D02*
X144750000Y-88383220D01*
X144750000Y-88383220D02*
X145183333Y-88383220D01*
X155949886Y-83816666D02*
X155983220Y-83849999D01*
X155983220Y-83849999D02*
X156016553Y-83949999D01*
X156016553Y-83949999D02*
X156016553Y-84016666D01*
X156016553Y-84016666D02*
X155983220Y-84116666D01*
X155983220Y-84116666D02*
X155916553Y-84183333D01*
X155916553Y-84183333D02*
X155849886Y-84216666D01*
X155849886Y-84216666D02*
X155716553Y-84249999D01*
X155716553Y-84249999D02*
X155616553Y-84249999D01*
X155616553Y-84249999D02*
X155483220Y-84216666D01*
X155483220Y-84216666D02*
X155416553Y-84183333D01*
X155416553Y-84183333D02*
X155349886Y-84116666D01*
X155349886Y-84116666D02*
X155316553Y-84016666D01*
X155316553Y-84016666D02*
X155316553Y-83949999D01*
X155316553Y-83949999D02*
X155349886Y-83849999D01*
X155349886Y-83849999D02*
X155383220Y-83816666D01*
X155316553Y-83216666D02*
X155316553Y-83349999D01*
X155316553Y-83349999D02*
X155349886Y-83416666D01*
X155349886Y-83416666D02*
X155383220Y-83449999D01*
X155383220Y-83449999D02*
X155483220Y-83516666D01*
X155483220Y-83516666D02*
X155616553Y-83549999D01*
X155616553Y-83549999D02*
X155883220Y-83549999D01*
X155883220Y-83549999D02*
X155949886Y-83516666D01*
X155949886Y-83516666D02*
X155983220Y-83483333D01*
X155983220Y-83483333D02*
X156016553Y-83416666D01*
X156016553Y-83416666D02*
X156016553Y-83283333D01*
X156016553Y-83283333D02*
X155983220Y-83216666D01*
X155983220Y-83216666D02*
X155949886Y-83183333D01*
X155949886Y-83183333D02*
X155883220Y-83149999D01*
X155883220Y-83149999D02*
X155716553Y-83149999D01*
X155716553Y-83149999D02*
X155649886Y-83183333D01*
X155649886Y-83183333D02*
X155616553Y-83216666D01*
X155616553Y-83216666D02*
X155583220Y-83283333D01*
X155583220Y-83283333D02*
X155583220Y-83416666D01*
X155583220Y-83416666D02*
X155616553Y-83483333D01*
X155616553Y-83483333D02*
X155649886Y-83516666D01*
X155649886Y-83516666D02*
X155716553Y-83549999D01*
X146496553Y-97150000D02*
X146163220Y-97383333D01*
X146496553Y-97550000D02*
X145796553Y-97550000D01*
X145796553Y-97550000D02*
X145796553Y-97283333D01*
X145796553Y-97283333D02*
X145829886Y-97216667D01*
X145829886Y-97216667D02*
X145863220Y-97183333D01*
X145863220Y-97183333D02*
X145929886Y-97150000D01*
X145929886Y-97150000D02*
X146029886Y-97150000D01*
X146029886Y-97150000D02*
X146096553Y-97183333D01*
X146096553Y-97183333D02*
X146129886Y-97216667D01*
X146129886Y-97216667D02*
X146163220Y-97283333D01*
X146163220Y-97283333D02*
X146163220Y-97550000D01*
X146496553Y-96483333D02*
X146496553Y-96883333D01*
X146496553Y-96683333D02*
X145796553Y-96683333D01*
X145796553Y-96683333D02*
X145896553Y-96750000D01*
X145896553Y-96750000D02*
X145963220Y-96816667D01*
X145963220Y-96816667D02*
X145996553Y-96883333D01*
X146496553Y-95816666D02*
X146496553Y-96216666D01*
X146496553Y-96016666D02*
X145796553Y-96016666D01*
X145796553Y-96016666D02*
X145896553Y-96083333D01*
X145896553Y-96083333D02*
X145963220Y-96150000D01*
X145963220Y-96150000D02*
X145996553Y-96216666D01*
X151383333Y-82449886D02*
X151350000Y-82483220D01*
X151350000Y-82483220D02*
X151250000Y-82516553D01*
X151250000Y-82516553D02*
X151183333Y-82516553D01*
X151183333Y-82516553D02*
X151083333Y-82483220D01*
X151083333Y-82483220D02*
X151016667Y-82416553D01*
X151016667Y-82416553D02*
X150983333Y-82349886D01*
X150983333Y-82349886D02*
X150950000Y-82216553D01*
X150950000Y-82216553D02*
X150950000Y-82116553D01*
X150950000Y-82116553D02*
X150983333Y-81983220D01*
X150983333Y-81983220D02*
X151016667Y-81916553D01*
X151016667Y-81916553D02*
X151083333Y-81849886D01*
X151083333Y-81849886D02*
X151183333Y-81816553D01*
X151183333Y-81816553D02*
X151250000Y-81816553D01*
X151250000Y-81816553D02*
X151350000Y-81849886D01*
X151350000Y-81849886D02*
X151383333Y-81883220D01*
X151616667Y-81816553D02*
X152083333Y-81816553D01*
X152083333Y-81816553D02*
X151783333Y-82516553D01*
X146816553Y-91816666D02*
X146483220Y-92049999D01*
X146816553Y-92216666D02*
X146116553Y-92216666D01*
X146116553Y-92216666D02*
X146116553Y-91949999D01*
X146116553Y-91949999D02*
X146149886Y-91883333D01*
X146149886Y-91883333D02*
X146183220Y-91849999D01*
X146183220Y-91849999D02*
X146249886Y-91816666D01*
X146249886Y-91816666D02*
X146349886Y-91816666D01*
X146349886Y-91816666D02*
X146416553Y-91849999D01*
X146416553Y-91849999D02*
X146449886Y-91883333D01*
X146449886Y-91883333D02*
X146483220Y-91949999D01*
X146483220Y-91949999D02*
X146483220Y-92216666D01*
X146816553Y-91483333D02*
X146816553Y-91349999D01*
X146816553Y-91349999D02*
X146783220Y-91283333D01*
X146783220Y-91283333D02*
X146749886Y-91249999D01*
X146749886Y-91249999D02*
X146649886Y-91183333D01*
X146649886Y-91183333D02*
X146516553Y-91149999D01*
X146516553Y-91149999D02*
X146249886Y-91149999D01*
X146249886Y-91149999D02*
X146183220Y-91183333D01*
X146183220Y-91183333D02*
X146149886Y-91216666D01*
X146149886Y-91216666D02*
X146116553Y-91283333D01*
X146116553Y-91283333D02*
X146116553Y-91416666D01*
X146116553Y-91416666D02*
X146149886Y-91483333D01*
X146149886Y-91483333D02*
X146183220Y-91516666D01*
X146183220Y-91516666D02*
X146249886Y-91549999D01*
X146249886Y-91549999D02*
X146416553Y-91549999D01*
X146416553Y-91549999D02*
X146483220Y-91516666D01*
X146483220Y-91516666D02*
X146516553Y-91483333D01*
X146516553Y-91483333D02*
X146549886Y-91416666D01*
X146549886Y-91416666D02*
X146549886Y-91283333D01*
X146549886Y-91283333D02*
X146516553Y-91216666D01*
X146516553Y-91216666D02*
X146483220Y-91183333D01*
X146483220Y-91183333D02*
X146416553Y-91149999D01*
X153649999Y-97516553D02*
X153416666Y-97183220D01*
X153249999Y-97516553D02*
X153249999Y-96816553D01*
X153249999Y-96816553D02*
X153516666Y-96816553D01*
X153516666Y-96816553D02*
X153583333Y-96849886D01*
X153583333Y-96849886D02*
X153616666Y-96883220D01*
X153616666Y-96883220D02*
X153649999Y-96949886D01*
X153649999Y-96949886D02*
X153649999Y-97049886D01*
X153649999Y-97049886D02*
X153616666Y-97116553D01*
X153616666Y-97116553D02*
X153583333Y-97149886D01*
X153583333Y-97149886D02*
X153516666Y-97183220D01*
X153516666Y-97183220D02*
X153249999Y-97183220D01*
X154316666Y-97516553D02*
X153916666Y-97516553D01*
X154116666Y-97516553D02*
X154116666Y-96816553D01*
X154116666Y-96816553D02*
X154049999Y-96916553D01*
X154049999Y-96916553D02*
X153983333Y-96983220D01*
X153983333Y-96983220D02*
X153916666Y-97016553D01*
X154550000Y-96816553D02*
X154983333Y-96816553D01*
X154983333Y-96816553D02*
X154750000Y-97083220D01*
X154750000Y-97083220D02*
X154850000Y-97083220D01*
X154850000Y-97083220D02*
X154916666Y-97116553D01*
X154916666Y-97116553D02*
X154950000Y-97149886D01*
X154950000Y-97149886D02*
X154983333Y-97216553D01*
X154983333Y-97216553D02*
X154983333Y-97383220D01*
X154983333Y-97383220D02*
X154950000Y-97449886D01*
X154950000Y-97449886D02*
X154916666Y-97483220D01*
X154916666Y-97483220D02*
X154850000Y-97516553D01*
X154850000Y-97516553D02*
X154650000Y-97516553D01*
X154650000Y-97516553D02*
X154583333Y-97483220D01*
X154583333Y-97483220D02*
X154550000Y-97449886D01*
X147583333Y-95316553D02*
X147350000Y-94983220D01*
X147183333Y-95316553D02*
X147183333Y-94616553D01*
X147183333Y-94616553D02*
X147450000Y-94616553D01*
X147450000Y-94616553D02*
X147516667Y-94649886D01*
X147516667Y-94649886D02*
X147550000Y-94683220D01*
X147550000Y-94683220D02*
X147583333Y-94749886D01*
X147583333Y-94749886D02*
X147583333Y-94849886D01*
X147583333Y-94849886D02*
X147550000Y-94916553D01*
X147550000Y-94916553D02*
X147516667Y-94949886D01*
X147516667Y-94949886D02*
X147450000Y-94983220D01*
X147450000Y-94983220D02*
X147183333Y-94983220D01*
X147850000Y-94683220D02*
X147883333Y-94649886D01*
X147883333Y-94649886D02*
X147950000Y-94616553D01*
X147950000Y-94616553D02*
X148116667Y-94616553D01*
X148116667Y-94616553D02*
X148183333Y-94649886D01*
X148183333Y-94649886D02*
X148216667Y-94683220D01*
X148216667Y-94683220D02*
X148250000Y-94749886D01*
X148250000Y-94749886D02*
X148250000Y-94816553D01*
X148250000Y-94816553D02*
X148216667Y-94916553D01*
X148216667Y-94916553D02*
X147816667Y-95316553D01*
X147816667Y-95316553D02*
X148250000Y-95316553D01*
X153649999Y-95649886D02*
X153616666Y-95683220D01*
X153616666Y-95683220D02*
X153516666Y-95716553D01*
X153516666Y-95716553D02*
X153449999Y-95716553D01*
X153449999Y-95716553D02*
X153349999Y-95683220D01*
X153349999Y-95683220D02*
X153283333Y-95616553D01*
X153283333Y-95616553D02*
X153249999Y-95549886D01*
X153249999Y-95549886D02*
X153216666Y-95416553D01*
X153216666Y-95416553D02*
X153216666Y-95316553D01*
X153216666Y-95316553D02*
X153249999Y-95183220D01*
X153249999Y-95183220D02*
X153283333Y-95116553D01*
X153283333Y-95116553D02*
X153349999Y-95049886D01*
X153349999Y-95049886D02*
X153449999Y-95016553D01*
X153449999Y-95016553D02*
X153516666Y-95016553D01*
X153516666Y-95016553D02*
X153616666Y-95049886D01*
X153616666Y-95049886D02*
X153649999Y-95083220D01*
X154316666Y-95716553D02*
X153916666Y-95716553D01*
X154116666Y-95716553D02*
X154116666Y-95016553D01*
X154116666Y-95016553D02*
X154049999Y-95116553D01*
X154049999Y-95116553D02*
X153983333Y-95183220D01*
X153983333Y-95183220D02*
X153916666Y-95216553D01*
X154950000Y-95016553D02*
X154616666Y-95016553D01*
X154616666Y-95016553D02*
X154583333Y-95349886D01*
X154583333Y-95349886D02*
X154616666Y-95316553D01*
X154616666Y-95316553D02*
X154683333Y-95283220D01*
X154683333Y-95283220D02*
X154850000Y-95283220D01*
X154850000Y-95283220D02*
X154916666Y-95316553D01*
X154916666Y-95316553D02*
X154950000Y-95349886D01*
X154950000Y-95349886D02*
X154983333Y-95416553D01*
X154983333Y-95416553D02*
X154983333Y-95583220D01*
X154983333Y-95583220D02*
X154950000Y-95649886D01*
X154950000Y-95649886D02*
X154916666Y-95683220D01*
X154916666Y-95683220D02*
X154850000Y-95716553D01*
X154850000Y-95716553D02*
X154683333Y-95716553D01*
X154683333Y-95716553D02*
X154616666Y-95683220D01*
X154616666Y-95683220D02*
X154583333Y-95649886D01*
X152783333Y-82516553D02*
X152449999Y-82516553D01*
X152449999Y-82516553D02*
X152449999Y-81816553D01*
X152983333Y-81883220D02*
X153016666Y-81849886D01*
X153016666Y-81849886D02*
X153083333Y-81816553D01*
X153083333Y-81816553D02*
X153250000Y-81816553D01*
X153250000Y-81816553D02*
X153316666Y-81849886D01*
X153316666Y-81849886D02*
X153350000Y-81883220D01*
X153350000Y-81883220D02*
X153383333Y-81949886D01*
X153383333Y-81949886D02*
X153383333Y-82016553D01*
X153383333Y-82016553D02*
X153350000Y-82116553D01*
X153350000Y-82116553D02*
X152950000Y-82516553D01*
X152950000Y-82516553D02*
X153383333Y-82516553D01*
X150349999Y-96249886D02*
X150316666Y-96283220D01*
X150316666Y-96283220D02*
X150216666Y-96316553D01*
X150216666Y-96316553D02*
X150149999Y-96316553D01*
X150149999Y-96316553D02*
X150049999Y-96283220D01*
X150049999Y-96283220D02*
X149983333Y-96216553D01*
X149983333Y-96216553D02*
X149949999Y-96149886D01*
X149949999Y-96149886D02*
X149916666Y-96016553D01*
X149916666Y-96016553D02*
X149916666Y-95916553D01*
X149916666Y-95916553D02*
X149949999Y-95783220D01*
X149949999Y-95783220D02*
X149983333Y-95716553D01*
X149983333Y-95716553D02*
X150049999Y-95649886D01*
X150049999Y-95649886D02*
X150149999Y-95616553D01*
X150149999Y-95616553D02*
X150216666Y-95616553D01*
X150216666Y-95616553D02*
X150316666Y-95649886D01*
X150316666Y-95649886D02*
X150349999Y-95683220D01*
X151016666Y-96316553D02*
X150616666Y-96316553D01*
X150816666Y-96316553D02*
X150816666Y-95616553D01*
X150816666Y-95616553D02*
X150749999Y-95716553D01*
X150749999Y-95716553D02*
X150683333Y-95783220D01*
X150683333Y-95783220D02*
X150616666Y-95816553D01*
X151250000Y-95616553D02*
X151716666Y-95616553D01*
X151716666Y-95616553D02*
X151416666Y-96316553D01*
X153716553Y-85516667D02*
X153716553Y-85850000D01*
X153716553Y-85850000D02*
X153016553Y-85850000D01*
X153716553Y-84916666D02*
X153716553Y-85316666D01*
X153716553Y-85116666D02*
X153016553Y-85116666D01*
X153016553Y-85116666D02*
X153116553Y-85183333D01*
X153116553Y-85183333D02*
X153183220Y-85250000D01*
X153183220Y-85250000D02*
X153216553Y-85316666D01*
X146683333Y-77416553D02*
X146683333Y-76716553D01*
X146683333Y-76716553D02*
X146850000Y-76716553D01*
X146850000Y-76716553D02*
X146950000Y-76749886D01*
X146950000Y-76749886D02*
X147016667Y-76816553D01*
X147016667Y-76816553D02*
X147050000Y-76883220D01*
X147050000Y-76883220D02*
X147083333Y-77016553D01*
X147083333Y-77016553D02*
X147083333Y-77116553D01*
X147083333Y-77116553D02*
X147050000Y-77249886D01*
X147050000Y-77249886D02*
X147016667Y-77316553D01*
X147016667Y-77316553D02*
X146950000Y-77383220D01*
X146950000Y-77383220D02*
X146850000Y-77416553D01*
X146850000Y-77416553D02*
X146683333Y-77416553D01*
X147750000Y-77416553D02*
X147350000Y-77416553D01*
X147550000Y-77416553D02*
X147550000Y-76716553D01*
X147550000Y-76716553D02*
X147483333Y-76816553D01*
X147483333Y-76816553D02*
X147416667Y-76883220D01*
X147416667Y-76883220D02*
X147350000Y-76916553D01*
D13*
%TO.C,C16*%
X150907836Y-94640000D02*
X150692164Y-94640000D01*
X150907836Y-95360000D02*
X150692164Y-95360000D01*
%TO.C,C4*%
X154122164Y-84140000D02*
X154337836Y-84140000D01*
X154122164Y-84860000D02*
X154337836Y-84860000D01*
%TO.C,Y1*%
X153680000Y-88650000D02*
X155980000Y-88650000D01*
X155980000Y-88650000D02*
X155980000Y-85950000D01*
%TO.C,C3*%
X154122164Y-88940000D02*
X154337836Y-88940000D01*
X154122164Y-89660000D02*
X154337836Y-89660000D01*
%TO.C,U5*%
X148990000Y-94360000D02*
X148990000Y-94185000D01*
X149665000Y-91640000D02*
X149290000Y-91640000D01*
X149665000Y-94360000D02*
X148990000Y-94360000D01*
X151535000Y-91640000D02*
X152210000Y-91640000D01*
X151535000Y-94360000D02*
X152210000Y-94360000D01*
X152210000Y-91640000D02*
X152210000Y-91815000D01*
X152210000Y-94360000D02*
X152210000Y-94185000D01*
X148990000Y-91640000D02*
X148850000Y-91450000D01*
X149130000Y-91450000D01*
X148990000Y-91640000D01*
G36*
X148990000Y-91640000D02*
G01*
X148850000Y-91450000D01*
X149130000Y-91450000D01*
X148990000Y-91640000D01*
G37*
%TO.C,C2*%
X144140000Y-86992164D02*
X144140000Y-87207836D01*
X144860000Y-86992164D02*
X144860000Y-87207836D01*
%TO.C,SW1*%
X148250000Y-96350000D02*
X148250000Y-99400000D01*
X148250000Y-96350000D02*
X151750000Y-96350000D01*
X151750000Y-96350000D02*
X151750000Y-99400000D01*
%TO.C,AE1*%
X154440000Y-79827064D02*
X154440000Y-78372936D01*
X156260000Y-79827064D02*
X156260000Y-78372936D01*
%TO.C,U1*%
X145520000Y-83790000D02*
X146170000Y-83790000D01*
X145520000Y-84440000D02*
X145520000Y-83790000D01*
X145520000Y-90360000D02*
X145520000Y-91010000D01*
X145520000Y-91010000D02*
X146170000Y-91010000D01*
X152090000Y-83790000D02*
X152500000Y-83790000D01*
X152740000Y-84440000D02*
X152740000Y-84090000D01*
X152740000Y-90360000D02*
X152740000Y-91010000D01*
X152740000Y-91010000D02*
X152090000Y-91010000D01*
X153070000Y-84030000D02*
X152740000Y-83790000D01*
X153070000Y-83550000D01*
X153070000Y-84030000D01*
G36*
X153070000Y-84030000D02*
G01*
X152740000Y-83790000D01*
X153070000Y-83550000D01*
X153070000Y-84030000D01*
G37*
%TO.C,D1*%
X146790000Y-80800000D02*
X146460000Y-81040000D01*
X146460000Y-80560000D01*
X146790000Y-80800000D01*
G36*
X146790000Y-80800000D02*
G01*
X146460000Y-81040000D01*
X146460000Y-80560000D01*
X146790000Y-80800000D01*
G37*
%TD*%
M02*
