%TF.GenerationSoftware,KiCad,Pcbnew,9.0.1*%
%TF.CreationDate,2025-07-17T15:45:22-04:00*%
%TF.ProjectId,flowstick_main_pcb,666c6f77-7374-4696-936b-5f6d61696e5f,rev?*%
%TF.SameCoordinates,Original*%
%TF.FileFunction,Soldermask,Bot*%
%TF.FilePolarity,Negative*%
%FSLAX46Y46*%
G04 Gerber Fmt 4.6, Leading zero omitted, Abs format (unit mm)*
G04 Created by KiCad (PCBNEW 9.0.1) date 2025-07-17 15:45:22*
%MOMM*%
%LPD*%
G01*
G04 APERTURE LIST*
G04 Aperture macros list*
%AMRoundRect*
0 Rectangle with rounded corners*
0 $1 Rounding radius*
0 $2 $3 $4 $5 $6 $7 $8 $9 X,Y pos of 4 corners*
0 Add a 4 corners polygon primitive as box body*
4,1,4,$2,$3,$4,$5,$6,$7,$8,$9,$2,$3,0*
0 Add four circle primitives for the rounded corners*
1,1,$1+$1,$2,$3*
1,1,$1+$1,$4,$5*
1,1,$1+$1,$6,$7*
1,1,$1+$1,$8,$9*
0 Add four rect primitives between the rounded corners*
20,1,$1+$1,$2,$3,$4,$5,0*
20,1,$1+$1,$4,$5,$6,$7,0*
20,1,$1+$1,$6,$7,$8,$9,0*
20,1,$1+$1,$8,$9,$2,$3,0*%
G04 Aperture macros list end*
%ADD10RoundRect,0.140000X-0.140000X-0.170000X0.140000X-0.170000X0.140000X0.170000X-0.140000X0.170000X0*%
%ADD11O,3.400000X1.700000*%
%ADD12C,1.700000*%
%ADD13C,0.700000*%
%ADD14RoundRect,0.150000X-0.512500X-0.150000X0.512500X-0.150000X0.512500X0.150000X-0.512500X0.150000X0*%
%ADD15R,4.000000X1.500000*%
%ADD16RoundRect,0.100000X0.100000X-0.130000X0.100000X0.130000X-0.100000X0.130000X-0.100000X-0.130000X0*%
%ADD17RoundRect,0.100000X-0.100000X0.130000X-0.100000X-0.130000X0.100000X-0.130000X0.100000X0.130000X0*%
%ADD18RoundRect,0.125000X-0.537500X-0.125000X0.537500X-0.125000X0.537500X0.125000X-0.537500X0.125000X0*%
%ADD19O,1.000000X2.000000*%
%ADD20RoundRect,0.150000X-0.150000X0.512500X-0.150000X-0.512500X0.150000X-0.512500X0.150000X0.512500X0*%
%ADD21R,2.000000X0.700000*%
%ADD22C,1.000000*%
%ADD23RoundRect,0.250000X0.325000X0.650000X-0.325000X0.650000X-0.325000X-0.650000X0.325000X-0.650000X0*%
%ADD24RoundRect,0.250000X-0.325000X-0.650000X0.325000X-0.650000X0.325000X0.650000X-0.325000X0.650000X0*%
%ADD25C,0.650000*%
%ADD26RoundRect,0.150000X0.150000X0.425000X-0.150000X0.425000X-0.150000X-0.425000X0.150000X-0.425000X0*%
%ADD27RoundRect,0.075000X0.075000X0.500000X-0.075000X0.500000X-0.075000X-0.500000X0.075000X-0.500000X0*%
%ADD28O,1.000000X1.800000*%
%ADD29O,1.000000X2.100000*%
G04 APERTURE END LIST*
D10*
%TO.C,C1*%
X151580000Y-83000000D03*
X150620000Y-83000000D03*
%TD*%
D11*
%TO.C,BT1*%
X144250000Y-80000000D03*
D12*
X143500000Y-80000000D03*
D11*
X144250000Y-78000000D03*
D12*
X143500000Y-78000000D03*
%TD*%
D13*
%TO.C,SW1*%
X150000000Y-97000000D03*
X150000000Y-98800000D03*
%TD*%
D14*
%TO.C,U3*%
X145062500Y-86150000D03*
X145062500Y-85200000D03*
X145062500Y-84250000D03*
X147337500Y-84250000D03*
X147337500Y-86150000D03*
%TD*%
D15*
%TO.C,L3*%
X147600000Y-91500000D03*
X147600000Y-87900000D03*
%TD*%
D16*
%TO.C,R6*%
X155200000Y-87720000D03*
X155200000Y-87080000D03*
%TD*%
D17*
%TO.C,R12*%
X149600000Y-81500000D03*
X149600000Y-82140000D03*
%TD*%
D18*
%TO.C,U2*%
X151462500Y-89375000D03*
X151462500Y-88725000D03*
X151462500Y-88075000D03*
X151462500Y-87425000D03*
X153737500Y-87425000D03*
X153737500Y-88075000D03*
X153737500Y-88725000D03*
X153737500Y-89375000D03*
%TD*%
D19*
%TO.C,J5*%
X155600000Y-94500000D03*
%TD*%
D20*
%TO.C,U4*%
X147250000Y-77862500D03*
X148200000Y-77862500D03*
X149150000Y-77862500D03*
X149150000Y-80137500D03*
X148200000Y-80137500D03*
X147250000Y-80137500D03*
%TD*%
D19*
%TO.C,J2*%
X144400000Y-94500000D03*
%TD*%
D16*
%TO.C,R5*%
X155200000Y-89320000D03*
X155200000Y-88680000D03*
%TD*%
D21*
%TO.C,L4*%
X149775000Y-85700000D03*
X149775000Y-84250000D03*
%TD*%
D22*
%TO.C,TP1*%
X155500000Y-83100000D03*
%TD*%
D23*
%TO.C,C12*%
X147875000Y-82300000D03*
X144925000Y-82300000D03*
%TD*%
D24*
%TO.C,C10*%
X152100000Y-85300000D03*
X155050000Y-85300000D03*
%TD*%
%TO.C,C9*%
X151325000Y-91300000D03*
X154275000Y-91300000D03*
%TD*%
D25*
%TO.C,J1*%
X152890000Y-94695000D03*
X147110000Y-94695000D03*
D26*
X153200000Y-93620000D03*
X152400000Y-93620000D03*
D27*
X151250000Y-93620000D03*
X150250000Y-93620000D03*
X149750000Y-93620000D03*
X148750000Y-93620000D03*
D26*
X147600000Y-93620000D03*
X146800000Y-93620000D03*
X146800000Y-93620000D03*
X147600000Y-93620000D03*
D27*
X148250000Y-93620000D03*
X149250000Y-93620000D03*
X150750000Y-93620000D03*
X151750000Y-93620000D03*
D26*
X152400000Y-93620000D03*
X153200000Y-93620000D03*
D28*
X154320000Y-98375000D03*
D29*
X154320000Y-94195000D03*
D28*
X145680000Y-98375000D03*
D29*
X145680000Y-94195000D03*
%TD*%
M02*
