M48
; DRILL file {KiCad 9.0.1} date 2025-07-17T15:45:23-0400
; FORMAT={-:-/ absolute / metric / decimal}
; #@! TF.CreationDate,2025-07-17T15:45:23-04:00
; #@! TF.GenerationSoftware,Kicad,Pcbnew,9.0.1
; #@! TF.FileFunction,Plated,1,4,PTH
FMAT,2
METRIC
; #@! TA.AperFunction,Plated,PTH,ViaDrill
T1C0.200
; #@! TA.AperFunction,Plated,PTH,ComponentDrill
T2C0.600
; #@! TA.AperFunction,Plated,PTH,ComponentDrill
T3C1.000
%
G90
G05
T1
X144.03Y-82.4
X144.1Y-83.2
X144.1Y-83.9
X144.1Y-84.6
X144.164Y-85.7
X144.5Y-88.2
X145.02Y-88.304
X145.071Y-91.3
X145.102Y-91.829
X145.67Y-90.43
X145.82Y-82.673
X145.88Y-83.2
X145.88Y-83.74
X146.2Y-90.43
X146.2Y-96.4
X146.516Y-92.6
X146.63Y-78.329
X146.7Y-81.05
X146.709Y-80.59
X146.8Y-82.1
X147.016Y-95.578
X147.07Y-92.6
X147.3Y-96.4
X148.0Y-94.8
X148.0Y-95.3
X148.0Y-95.83
X148.4Y-86.7
X148.519Y-94.484
X148.65Y-81.6
X148.65Y-82.15
X149.089Y-81.9
X149.098Y-94.507
X149.2Y-86.7
X149.5Y-82.925
X149.628Y-94.513
X149.63Y-79.286
X149.9Y-86.7
X150.0Y-82.725
X150.2Y-95.6
X150.596Y-92.733
X150.6Y-89.88
X150.7Y-86.7
X151.126Y-92.728
X151.2Y-95.6
X151.6Y-86.8
X152.0Y-94.8
X152.0Y-95.3
X152.2Y-91.0
X152.2Y-91.7
X152.4Y-84.08
X152.52Y-95.404
X152.55Y-91.35
X152.7Y-92.3
X152.9Y-91.0
X152.9Y-91.7
X152.95Y-83.601
X153.0Y-84.351
X154.11Y-92.525
X154.199Y-89.896
X154.898Y-85.916
X155.2Y-91.0
X155.2Y-91.5
X155.2Y-92.0
X155.2Y-92.5
X155.2Y-93.0
X155.252Y-90.417
X155.27Y-89.87
X155.3Y-84.3
X155.399Y-85.901
X155.8Y-84.3
T3
X143.5Y-78.0
X143.5Y-80.0
X145.0Y-78.0
X145.0Y-80.0
T2
G00X145.68Y-94.745
M15
G01X145.68Y-93.645
M16
G05
G00X145.68Y-98.775
M15
G01X145.68Y-97.975
M16
G05
G00X154.32Y-94.745
M15
G01X154.32Y-93.645
M16
G05
G00X154.32Y-98.775
M15
G01X154.32Y-97.975
M16
G05
M30
