%TF.GenerationSoftware,KiCad,Pcbnew,9.0.1*%
%TF.CreationDate,2025-07-17T15:45:22-04:00*%
%TF.ProjectId,flowstick_main_pcb,666c6f77-7374-4696-936b-5f6d61696e5f,rev?*%
%TF.SameCoordinates,Original*%
%TF.FileFunction,Copper,L1,Top*%
%TF.FilePolarity,Positive*%
%FSLAX46Y46*%
G04 Gerber Fmt 4.6, Leading zero omitted, Abs format (unit mm)*
G04 Created by KiCad (PCBNEW 9.0.1) date 2025-07-17 15:45:22*
%MOMM*%
%LPD*%
G01*
G04 APERTURE LIST*
G04 Aperture macros list*
%AMRoundRect*
0 Rectangle with rounded corners*
0 $1 Rounding radius*
0 $2 $3 $4 $5 $6 $7 $8 $9 X,Y pos of 4 corners*
0 Add a 4 corners polygon primitive as box body*
4,1,4,$2,$3,$4,$5,$6,$7,$8,$9,$2,$3,0*
0 Add four circle primitives for the rounded corners*
1,1,$1+$1,$2,$3*
1,1,$1+$1,$4,$5*
1,1,$1+$1,$6,$7*
1,1,$1+$1,$8,$9*
0 Add four rect primitives between the rounded corners*
20,1,$1+$1,$2,$3,$4,$5,0*
20,1,$1+$1,$4,$5,$6,$7,0*
20,1,$1+$1,$6,$7,$8,$9,0*
20,1,$1+$1,$8,$9,$2,$3,0*%
G04 Aperture macros list end*
%TA.AperFunction,Conductor*%
%ADD10C,0.300000*%
%TD*%
%TA.AperFunction,SMDPad,CuDef*%
%ADD11RoundRect,0.100000X-0.130000X-0.100000X0.130000X-0.100000X0.130000X0.100000X-0.130000X0.100000X0*%
%TD*%
%TA.AperFunction,SMDPad,CuDef*%
%ADD12RoundRect,0.100000X0.130000X0.100000X-0.130000X0.100000X-0.130000X-0.100000X0.130000X-0.100000X0*%
%TD*%
%TA.AperFunction,SMDPad,CuDef*%
%ADD13RoundRect,0.100000X-0.100000X0.130000X-0.100000X-0.130000X0.100000X-0.130000X0.100000X0.130000X0*%
%TD*%
%TA.AperFunction,SMDPad,CuDef*%
%ADD14RoundRect,0.100000X0.100000X-0.130000X0.100000X0.130000X-0.100000X0.130000X-0.100000X-0.130000X0*%
%TD*%
%TA.AperFunction,SMDPad,CuDef*%
%ADD15O,1.000000X2.000000*%
%TD*%
%TA.AperFunction,SMDPad,CuDef*%
%ADD16RoundRect,0.140000X0.140000X0.170000X-0.140000X0.170000X-0.140000X-0.170000X0.140000X-0.170000X0*%
%TD*%
%TA.AperFunction,ComponentPad*%
%ADD17O,3.400000X1.700000*%
%TD*%
%TA.AperFunction,ComponentPad*%
%ADD18C,1.700000*%
%TD*%
%TA.AperFunction,SMDPad,CuDef*%
%ADD19RoundRect,0.140000X-0.140000X-0.170000X0.140000X-0.170000X0.140000X0.170000X-0.140000X0.170000X0*%
%TD*%
%TA.AperFunction,SMDPad,CuDef*%
%ADD20R,0.800000X0.900000*%
%TD*%
%TA.AperFunction,SMDPad,CuDef*%
%ADD21RoundRect,0.087500X-0.225000X-0.087500X0.225000X-0.087500X0.225000X0.087500X-0.225000X0.087500X0*%
%TD*%
%TA.AperFunction,SMDPad,CuDef*%
%ADD22RoundRect,0.087500X-0.087500X-0.225000X0.087500X-0.225000X0.087500X0.225000X-0.087500X0.225000X0*%
%TD*%
%TA.AperFunction,SMDPad,CuDef*%
%ADD23RoundRect,0.140000X-0.170000X0.140000X-0.170000X-0.140000X0.170000X-0.140000X0.170000X0.140000X0*%
%TD*%
%TA.AperFunction,SMDPad,CuDef*%
%ADD24RoundRect,0.250000X-0.450000X-0.275000X0.450000X-0.275000X0.450000X0.275000X-0.450000X0.275000X0*%
%TD*%
%TA.AperFunction,SMDPad,CuDef*%
%ADD25RoundRect,0.250000X0.625000X-0.312500X0.625000X0.312500X-0.625000X0.312500X-0.625000X-0.312500X0*%
%TD*%
%TA.AperFunction,SMDPad,CuDef*%
%ADD26RoundRect,0.050000X-0.050000X0.350000X-0.050000X-0.350000X0.050000X-0.350000X0.050000X0.350000X0*%
%TD*%
%TA.AperFunction,SMDPad,CuDef*%
%ADD27RoundRect,0.050000X-0.350000X0.050000X-0.350000X-0.050000X0.350000X-0.050000X0.350000X0.050000X0*%
%TD*%
%TA.AperFunction,HeatsinkPad*%
%ADD28R,4.000000X4.000000*%
%TD*%
%TA.AperFunction,SMDPad,CuDef*%
%ADD29RoundRect,0.150000X0.150000X-0.512500X0.150000X0.512500X-0.150000X0.512500X-0.150000X-0.512500X0*%
%TD*%
%TA.AperFunction,HeatsinkPad*%
%ADD30O,1.000000X1.800000*%
%TD*%
%TA.AperFunction,HeatsinkPad*%
%ADD31O,1.000000X2.100000*%
%TD*%
%TA.AperFunction,ViaPad*%
%ADD32C,0.420000*%
%TD*%
%TA.AperFunction,Conductor*%
%ADD33C,0.110000*%
%TD*%
%TA.AperFunction,Conductor*%
%ADD34C,0.200000*%
%TD*%
G04 APERTURE END LIST*
D10*
%TO.N,Net-(AE1-Pad1)*%
X155350000Y-81700000D02*
G75*
G02*
X154150000Y-82900000I-1200000J0D01*
G01*
%TD*%
D11*
%TO.P,C11,1*%
%TO.N,Net-(D1A-K)*%
X147380000Y-82100000D03*
%TO.P,C11,2*%
%TO.N,GND*%
X148020000Y-82100000D03*
%TD*%
%TO.P,R15,2*%
%TO.N,+3.3V*%
X148520000Y-82900000D03*
%TO.P,R15,1*%
%TO.N,Net-(U1-CHIP_PU)*%
X147880000Y-82900000D03*
%TD*%
D12*
%TO.P,C18,1*%
%TO.N,Net-(U1-CHIP_PU)*%
X147120000Y-82900000D03*
%TO.P,C18,2*%
%TO.N,GND*%
X146480000Y-82900000D03*
%TD*%
D13*
%TO.P,R10,1*%
%TO.N,+3.3V*%
X148500000Y-91880000D03*
%TO.P,R10,2*%
%TO.N,/VREF*%
X148500000Y-92520000D03*
%TD*%
D14*
%TO.P,C14,1*%
%TO.N,/BATT_MEASURE*%
X145900000Y-92565000D03*
%TO.P,C14,2*%
%TO.N,/BATT_MEASURE_EN*%
X145900000Y-91925000D03*
%TD*%
D13*
%TO.P,C8,1*%
%TO.N,Net-(AE1-Pad1)*%
X154000000Y-82935000D03*
%TO.P,C8,2*%
%TO.N,GND*%
X154000000Y-83575000D03*
%TD*%
D15*
%TO.P,J3,1,Pin_1*%
%TO.N,/LED_CLK*%
X155600000Y-94500000D03*
%TD*%
D13*
%TO.P,C5,1*%
%TO.N,Net-(U1-XTAL_N)*%
X155730000Y-89180000D03*
%TO.P,C5,2*%
%TO.N,GND*%
X155730000Y-89820000D03*
%TD*%
D11*
%TO.P,R14,1*%
%TO.N,/VBUS_SENSE*%
X153810000Y-91100000D03*
%TO.P,R14,2*%
%TO.N,GND*%
X154450000Y-91100000D03*
%TD*%
D14*
%TO.P,R3,1*%
%TO.N,/USBDP*%
X144500000Y-91020000D03*
%TO.P,R3,2*%
%TO.N,Net-(U1-GPIO20{slash}USB_D+)*%
X144500000Y-90380000D03*
%TD*%
D13*
%TO.P,C13,1*%
%TO.N,/VREF*%
X148500000Y-93280000D03*
%TO.P,C13,2*%
%TO.N,GND*%
X148500000Y-93920000D03*
%TD*%
D16*
%TO.P,C16,1*%
%TO.N,+3.3V*%
X151280000Y-95000000D03*
%TO.P,C16,2*%
%TO.N,GND*%
X150320000Y-95000000D03*
%TD*%
D17*
%TO.P,BT1,1,+*%
%TO.N,+BATT*%
X144250000Y-80000000D03*
D18*
X143500000Y-80000000D03*
D17*
%TO.P,BT1,2,-*%
%TO.N,GND*%
X144250000Y-78000000D03*
D18*
X143500000Y-78000000D03*
%TD*%
D14*
%TO.P,R8,1*%
%TO.N,+BATT*%
X147000000Y-93920000D03*
%TO.P,R8,2*%
%TO.N,/BATT_MEASURE*%
X147000000Y-93280000D03*
%TD*%
D13*
%TO.P,R1,1*%
%TO.N,Net-(J1-CC1)*%
X152700000Y-93100000D03*
%TO.P,R1,2*%
%TO.N,GND*%
X152700000Y-93740000D03*
%TD*%
D12*
%TO.P,R7,1*%
%TO.N,Net-(D1A-K)*%
X146200000Y-82100000D03*
%TO.P,R7,2*%
%TO.N,GND*%
X145560000Y-82100000D03*
%TD*%
D19*
%TO.P,C4,1*%
%TO.N,+3.3V*%
X153750000Y-84500000D03*
%TO.P,C4,2*%
%TO.N,GND*%
X154710000Y-84500000D03*
%TD*%
D14*
%TO.P,R4,1*%
%TO.N,/USBDM*%
X144500000Y-89520000D03*
%TO.P,R4,2*%
%TO.N,Net-(U1-GPIO19{slash}USB_D-)*%
X144500000Y-88880000D03*
%TD*%
D13*
%TO.P,C6,1*%
%TO.N,GND*%
X155730000Y-84780000D03*
%TO.P,C6,2*%
%TO.N,Net-(C6-Pad2)*%
X155730000Y-85420000D03*
%TD*%
D20*
%TO.P,Y1,1,1*%
%TO.N,Net-(U1-XTAL_N)*%
X155380000Y-88000000D03*
%TO.P,Y1,2,2*%
%TO.N,GND*%
X155380000Y-86600000D03*
%TO.P,Y1,3,3*%
%TO.N,Net-(C6-Pad2)*%
X154280000Y-86600000D03*
%TO.P,Y1,4,4*%
%TO.N,GND*%
X154280000Y-88000000D03*
%TD*%
D13*
%TO.P,R11,1*%
%TO.N,/VREF*%
X147800000Y-93280000D03*
%TO.P,R11,2*%
%TO.N,GND*%
X147800000Y-93920000D03*
%TD*%
D12*
%TO.P,C7,1*%
%TO.N,Net-(U1-LNA_IN)*%
X151820000Y-82900000D03*
%TO.P,C7,2*%
%TO.N,GND*%
X151180000Y-82900000D03*
%TD*%
D19*
%TO.P,C3,1*%
%TO.N,+3.3V*%
X153750000Y-89300000D03*
%TO.P,C3,2*%
%TO.N,GND*%
X154710000Y-89300000D03*
%TD*%
D11*
%TO.P,R9,1*%
%TO.N,/BATT_MEASURE*%
X147080000Y-91900000D03*
%TO.P,R9,2*%
%TO.N,/BATT_MEASURE_EN*%
X147720000Y-91900000D03*
%TD*%
D21*
%TO.P,U5,1,SDO/SA0*%
%TO.N,/IMU_PICO*%
X149437500Y-92250000D03*
%TO.P,U5,2,SDX*%
%TO.N,GND*%
X149437500Y-92750000D03*
%TO.P,U5,3,SCX*%
X149437500Y-93250000D03*
%TO.P,U5,4,INT1*%
%TO.N,unconnected-(U5-INT1-Pad4)*%
X149437500Y-93750000D03*
D22*
%TO.P,U5,5,VDDIO*%
%TO.N,+3.3V*%
X150100000Y-93912500D03*
%TO.P,U5,6,GND*%
%TO.N,GND*%
X150600000Y-93912500D03*
%TO.P,U5,7,GND*%
X151100000Y-93912500D03*
D21*
%TO.P,U5,8,VDD*%
%TO.N,+3.3V*%
X151762500Y-93750000D03*
%TO.P,U5,9,INT2*%
%TO.N,unconnected-(U5-INT2-Pad9)*%
X151762500Y-93250000D03*
%TO.P,U5,10,NC*%
%TO.N,unconnected-(U5-NC-Pad10)*%
X151762500Y-92750000D03*
%TO.P,U5,11,NC*%
%TO.N,unconnected-(U5-NC-Pad11)*%
X151762500Y-92250000D03*
D22*
%TO.P,U5,12,CS*%
%TO.N,/IMU_CS*%
X151100000Y-92087500D03*
%TO.P,U5,13,SCL*%
%TO.N,/IMU_SCK*%
X150600000Y-92087500D03*
%TO.P,U5,14,SDA*%
%TO.N,/IMU_POCI*%
X150100000Y-92087500D03*
%TD*%
D15*
%TO.P,J4,1,Pin_1*%
%TO.N,/LED_DAT*%
X144400000Y-94500000D03*
%TD*%
D23*
%TO.P,C2,1*%
%TO.N,+3.3V*%
X144500000Y-86620000D03*
%TO.P,C2,2*%
%TO.N,GND*%
X144500000Y-87580000D03*
%TD*%
D12*
%TO.P,R13,1*%
%TO.N,VBUS*%
X154450000Y-91800000D03*
%TO.P,R13,2*%
%TO.N,/VBUS_SENSE*%
X153810000Y-91800000D03*
%TD*%
D24*
%TO.P,SW1,1,1*%
%TO.N,+BATT*%
X148200000Y-97180000D03*
X151800000Y-97180000D03*
%TO.P,SW1,2,2*%
%TO.N,/BUTTON*%
X148200000Y-98620000D03*
X151800000Y-98620000D03*
%TD*%
D25*
%TO.P,AE1,1*%
%TO.N,Net-(AE1-Pad1)*%
X155350000Y-80562500D03*
%TO.P,AE1,2*%
%TO.N,unconnected-(AE1-Pad2)*%
X155350000Y-77637500D03*
%TD*%
D26*
%TO.P,U1,1,LNA_IN*%
%TO.N,Net-(U1-LNA_IN)*%
X151730000Y-83950000D03*
%TO.P,U1,2,VDD3P3*%
%TO.N,+3.3V*%
X151330000Y-83950000D03*
%TO.P,U1,3,VDD3P3*%
X150930000Y-83950000D03*
%TO.P,U1,4,CHIP_PU*%
%TO.N,Net-(U1-CHIP_PU)*%
X150530000Y-83950000D03*
%TO.P,U1,5,GPIO0*%
%TO.N,Net-(U1-GPIO0)*%
X150130000Y-83950000D03*
%TO.P,U1,6,GPIO1*%
%TO.N,unconnected-(U1-GPIO1-Pad6)*%
X149730000Y-83950000D03*
%TO.P,U1,7,GPIO2*%
%TO.N,unconnected-(U1-GPIO2-Pad7)*%
X149330000Y-83950000D03*
%TO.P,U1,8,GPIO3*%
%TO.N,unconnected-(U1-GPIO3-Pad8)*%
X148930000Y-83950000D03*
%TO.P,U1,9,GPIO4*%
%TO.N,unconnected-(U1-GPIO4-Pad9)*%
X148530000Y-83950000D03*
%TO.P,U1,10,GPIO5*%
%TO.N,unconnected-(U1-GPIO5-Pad10)*%
X148130000Y-83950000D03*
%TO.P,U1,11,GPIO6*%
%TO.N,unconnected-(U1-GPIO6-Pad11)*%
X147730000Y-83950000D03*
%TO.P,U1,12,GPIO7*%
%TO.N,unconnected-(U1-GPIO7-Pad12)*%
X147330000Y-83950000D03*
%TO.P,U1,13,GPIO8*%
%TO.N,/VREF*%
X146930000Y-83950000D03*
%TO.P,U1,14,GPIO9*%
%TO.N,/BATT_MEASURE*%
X146530000Y-83950000D03*
D27*
%TO.P,U1,15,GPIO10*%
%TO.N,/BUTTON*%
X145680000Y-84800000D03*
%TO.P,U1,16,GPIO11*%
%TO.N,/PWRHLD*%
X145680000Y-85200000D03*
%TO.P,U1,17,GPIO12*%
%TO.N,/CHG_SENSE*%
X145680000Y-85600000D03*
%TO.P,U1,18,GPIO13*%
%TO.N,unconnected-(U1-GPIO13-Pad18)*%
X145680000Y-86000000D03*
%TO.P,U1,19,GPIO14*%
%TO.N,unconnected-(U1-GPIO14-Pad19)*%
X145680000Y-86400000D03*
%TO.P,U1,20,VDD3P3_RTC*%
%TO.N,+3.3V*%
X145680000Y-86800000D03*
%TO.P,U1,21,XTAL_32K_P*%
%TO.N,unconnected-(U1-XTAL_32K_P-Pad21)*%
X145680000Y-87200000D03*
%TO.P,U1,22,XTAL_32K_N*%
%TO.N,unconnected-(U1-XTAL_32K_N-Pad22)*%
X145680000Y-87600000D03*
%TO.P,U1,23,GPIO17*%
%TO.N,unconnected-(U1-GPIO17-Pad23)*%
X145680000Y-88000000D03*
%TO.P,U1,24,GPIO18*%
%TO.N,/BATT_MEASURE_EN*%
X145680000Y-88400000D03*
%TO.P,U1,25,GPIO19/USB_D-*%
%TO.N,Net-(U1-GPIO19{slash}USB_D-)*%
X145680000Y-88800000D03*
%TO.P,U1,26,GPIO20/USB_D+*%
%TO.N,Net-(U1-GPIO20{slash}USB_D+)*%
X145680000Y-89200000D03*
%TO.P,U1,27,GPIO21*%
%TO.N,/LED_DAT*%
X145680000Y-89600000D03*
%TO.P,U1,28,SPICS1*%
%TO.N,unconnected-(U1-SPICS1-Pad28)*%
X145680000Y-90000000D03*
D26*
%TO.P,U1,29,VDD_SPI*%
%TO.N,+3.3V*%
X146530000Y-90850000D03*
%TO.P,U1,30,SPIHD*%
%TO.N,unconnected-(U1-SPIHD-Pad30)*%
X146930000Y-90850000D03*
%TO.P,U1,31,SPIWP*%
%TO.N,unconnected-(U1-SPIWP-Pad31)*%
X147330000Y-90850000D03*
%TO.P,U1,32,SPICS0*%
%TO.N,unconnected-(U1-SPICS0-Pad32)*%
X147730000Y-90850000D03*
%TO.P,U1,33,SPICLK*%
%TO.N,unconnected-(U1-SPICLK-Pad33)*%
X148130000Y-90850000D03*
%TO.P,U1,34,SPIQ*%
%TO.N,unconnected-(U1-SPIQ-Pad34)*%
X148530000Y-90850000D03*
%TO.P,U1,35,SPID*%
%TO.N,unconnected-(U1-SPID-Pad35)*%
X148930000Y-90850000D03*
%TO.P,U1,36,SPICLK_N*%
%TO.N,unconnected-(U1-SPICLK_N-Pad36)*%
X149330000Y-90850000D03*
%TO.P,U1,37,SPICLK_P*%
%TO.N,unconnected-(U1-SPICLK_P-Pad37)*%
X149730000Y-90850000D03*
%TO.P,U1,38,GPIO33*%
%TO.N,/IMU_PICO*%
X150130000Y-90850000D03*
%TO.P,U1,39,GPIO34*%
%TO.N,/IMU_POCI*%
X150530000Y-90850000D03*
%TO.P,U1,40,GPIO35*%
%TO.N,/IMU_SCK*%
X150930000Y-90850000D03*
%TO.P,U1,41,GPIO36*%
%TO.N,/IMU_CS*%
X151330000Y-90850000D03*
%TO.P,U1,42,GPIO37*%
%TO.N,/LED_CLK*%
X151730000Y-90850000D03*
D27*
%TO.P,U1,43,GPIO38*%
%TO.N,/VBUS_SENSE*%
X152580000Y-90000000D03*
%TO.P,U1,44,MTCK*%
%TO.N,unconnected-(U1-MTCK-Pad44)*%
X152580000Y-89600000D03*
%TO.P,U1,45,MTDO*%
%TO.N,unconnected-(U1-MTDO-Pad45)*%
X152580000Y-89200000D03*
%TO.P,U1,46,VDD3P3_CPU*%
%TO.N,+3.3V*%
X152580000Y-88800000D03*
%TO.P,U1,47,MTDI*%
%TO.N,unconnected-(U1-MTDI-Pad47)*%
X152580000Y-88400000D03*
%TO.P,U1,48,MTMS*%
%TO.N,unconnected-(U1-MTMS-Pad48)*%
X152580000Y-88000000D03*
%TO.P,U1,49,U0TXD*%
%TO.N,unconnected-(U1-U0TXD-Pad49)*%
X152580000Y-87600000D03*
%TO.P,U1,50,U0RXD*%
%TO.N,unconnected-(U1-U0RXD-Pad50)*%
X152580000Y-87200000D03*
%TO.P,U1,51,GPIO45*%
%TO.N,unconnected-(U1-GPIO45-Pad51)*%
X152580000Y-86800000D03*
%TO.P,U1,52,GPIO46*%
%TO.N,unconnected-(U1-GPIO46-Pad52)*%
X152580000Y-86400000D03*
%TO.P,U1,53,XTAL_N*%
%TO.N,Net-(U1-XTAL_N)*%
X152580000Y-86000000D03*
%TO.P,U1,54,XTAL_P*%
%TO.N,Net-(U1-XTAL_P)*%
X152580000Y-85600000D03*
%TO.P,U1,55,VDDA*%
%TO.N,+3.3V*%
X152580000Y-85200000D03*
%TO.P,U1,56,VDDA*%
X152580000Y-84800000D03*
D28*
%TO.P,U1,57,GND*%
%TO.N,GND*%
X149130000Y-87400000D03*
%TD*%
D11*
%TO.P,R2,1*%
%TO.N,Net-(J1-CC2)*%
X148680000Y-95000000D03*
%TO.P,R2,2*%
%TO.N,GND*%
X149320000Y-95000000D03*
%TD*%
%TO.P,C15,1*%
%TO.N,/VBUS_SENSE*%
X153810000Y-90400000D03*
%TO.P,C15,2*%
%TO.N,GND*%
X154450000Y-90400000D03*
%TD*%
%TO.P,L2,1,1*%
%TO.N,Net-(U1-LNA_IN)*%
X152580000Y-82900000D03*
%TO.P,L2,2,2*%
%TO.N,Net-(AE1-Pad1)*%
X153220000Y-82900000D03*
%TD*%
D12*
%TO.P,C17,1*%
%TO.N,/BUTTON*%
X149320000Y-95700000D03*
%TO.P,C17,2*%
%TO.N,GND*%
X148680000Y-95700000D03*
%TD*%
%TO.P,L1,1,1*%
%TO.N,Net-(C6-Pad2)*%
X154550000Y-85400000D03*
%TO.P,L1,2,2*%
%TO.N,Net-(U1-XTAL_P)*%
X153910000Y-85400000D03*
%TD*%
D29*
%TO.P,D1,6,K*%
%TO.N,Net-(D1A-K)*%
X147350000Y-78362500D03*
%TO.P,D1,5,K*%
X148300000Y-78362500D03*
%TO.P,D1,4,K*%
X149250000Y-78362500D03*
%TO.P,D1,3,A*%
%TO.N,/PWRHLD*%
X149250000Y-80637500D03*
%TO.P,D1,2,A*%
%TO.N,/BUTTON*%
X148300000Y-80637500D03*
%TO.P,D1,1,A*%
%TO.N,VBUS*%
X147350000Y-80637500D03*
%TD*%
D30*
%TO.P,J1,S1,SHIELD*%
%TO.N,unconnected-(J1-SHIELD-PadS1)_1*%
X154320000Y-98375000D03*
D31*
%TO.N,unconnected-(J1-SHIELD-PadS1)_3*%
X154320000Y-94195000D03*
D30*
%TO.N,unconnected-(J1-SHIELD-PadS1)_2*%
X145680000Y-98375000D03*
D31*
%TO.N,unconnected-(J1-SHIELD-PadS1)*%
X145680000Y-94195000D03*
%TD*%
D32*
%TO.N,Net-(D1A-K)*%
X146800000Y-82100000D03*
%TO.N,Net-(U1-GPIO0)*%
X152400000Y-84080000D03*
%TO.N,+3.3V*%
X149500000Y-82925000D03*
%TO.N,GND*%
X150000000Y-82725000D03*
X149630143Y-79286386D03*
X149098341Y-94507490D03*
X155200000Y-92500000D03*
X155300000Y-84300000D03*
X155800000Y-84300000D03*
X144100000Y-83900000D03*
X147069668Y-92600000D03*
X149200000Y-86700000D03*
X144100000Y-83200000D03*
X155270000Y-89870000D03*
X144500000Y-88200000D03*
X149900000Y-86700000D03*
X155200000Y-91000000D03*
X150200000Y-95600000D03*
X150700000Y-86700000D03*
X146515780Y-92600000D03*
X152950000Y-83601000D03*
X155200000Y-91500000D03*
X152519711Y-95403942D03*
X155200000Y-93000000D03*
X154897859Y-85915610D03*
X155200000Y-92000000D03*
X144100000Y-84600000D03*
X148400000Y-86700000D03*
X155399297Y-85900979D03*
%TO.N,+BATT*%
X152200000Y-91700000D03*
X152900000Y-91700000D03*
X152200000Y-91000000D03*
X147300000Y-96400000D03*
X152900000Y-91000000D03*
X152550000Y-91350000D03*
%TO.N,+3.3V*%
X149628319Y-94512579D03*
X148650000Y-82150000D03*
X150600000Y-89880000D03*
X149089316Y-81900000D03*
X148650000Y-81600000D03*
X153000000Y-84351000D03*
X146200000Y-90429998D03*
X151200000Y-95600000D03*
X144164430Y-85700000D03*
%TO.N,+5V*%
X151600000Y-86800000D03*
X155251605Y-90417313D03*
%TO.N,Net-(D1A-K)*%
X146630000Y-78328875D03*
X154199064Y-89896464D03*
%TO.N,/VREF*%
X145880000Y-83200000D03*
X147016042Y-95577958D03*
%TO.N,/BATT_MEASURE*%
X145880000Y-83739572D03*
X146200000Y-96400000D03*
%TO.N,/BATT_MEASURE_EN*%
X145019711Y-88303942D03*
X145669997Y-90429998D03*
%TO.N,/BUTTON*%
X148000000Y-95830003D03*
%TO.N,VBUS*%
X148000000Y-94800000D03*
X148000000Y-95300000D03*
X152000000Y-94800000D03*
X154110391Y-92525000D03*
X152000000Y-95300000D03*
X146709000Y-80590166D03*
X146700000Y-81050000D03*
%TO.N,/USBDM*%
X145101689Y-91829113D03*
X151125749Y-92727751D03*
%TO.N,Net-(J1-CC2)*%
X148518942Y-94484457D03*
%TO.N,Net-(J1-CC1)*%
X152700000Y-92300000D03*
%TO.N,/USBDP*%
X150595774Y-92733021D03*
X145071000Y-91300000D03*
%TO.N,/CHG_SENSE*%
X144030000Y-82400000D03*
%TO.N,/BUTTON*%
X145820000Y-82673405D03*
%TD*%
D33*
%TO.N,Net-(D1A-K)*%
X148300000Y-78362500D02*
X149250000Y-78362500D01*
X147350000Y-78362500D02*
X148300000Y-78362500D01*
X146630000Y-78328875D02*
X147316375Y-78328875D01*
X147316375Y-78328875D02*
X147350000Y-78362500D01*
%TO.N,/PWRHLD*%
X145680000Y-85200000D02*
X145250000Y-85200000D01*
X145250000Y-85200000D02*
X145100000Y-85050000D01*
X145100000Y-82612542D02*
X144879000Y-82391541D01*
X149250000Y-79975001D02*
X149250000Y-80637500D01*
X145100000Y-85050000D02*
X145100000Y-82612542D01*
X144879000Y-81721000D02*
X145400000Y-81200000D01*
X145400000Y-81200000D02*
X146100000Y-81200000D01*
X144879000Y-82391541D02*
X144879000Y-81721000D01*
X146100000Y-81200000D02*
X146300000Y-81000000D01*
X146300000Y-80400000D02*
X147000000Y-79700000D01*
X147000000Y-79700000D02*
X148974999Y-79700000D01*
X146300000Y-81000000D02*
X146300000Y-80400000D01*
X148974999Y-79700000D02*
X149250000Y-79975001D01*
%TO.N,/BUTTON*%
X148300000Y-80637500D02*
X148300000Y-81400000D01*
X148300000Y-81400000D02*
X148197000Y-81503000D01*
X145100000Y-82300000D02*
X145473405Y-82673405D01*
X148197000Y-81503000D02*
X145497000Y-81503000D01*
X145497000Y-81503000D02*
X145100000Y-81900000D01*
X145100000Y-81900000D02*
X145100000Y-82300000D01*
X145473405Y-82673405D02*
X145820000Y-82673405D01*
%TO.N,GND*%
X148400000Y-82500000D02*
X148426000Y-82526000D01*
X148426000Y-82526000D02*
X149801000Y-82526000D01*
X149801000Y-82526000D02*
X150000000Y-82725000D01*
X146700000Y-82500000D02*
X148000000Y-82500000D01*
X148020000Y-82100000D02*
X148020000Y-82480000D01*
X148020000Y-82480000D02*
X148000000Y-82500000D01*
X146600000Y-82600000D02*
X146700000Y-82500000D01*
X148000000Y-82500000D02*
X148400000Y-82500000D01*
X146480000Y-82900000D02*
X146480000Y-82720000D01*
X146480000Y-82720000D02*
X146600000Y-82600000D01*
X145560000Y-82100000D02*
X145936000Y-81724000D01*
X145936000Y-81724000D02*
X147644000Y-81724000D01*
X147644000Y-81724000D02*
X148020000Y-82100000D01*
%TO.N,Net-(D1A-K)*%
X146200000Y-82100000D02*
X146800000Y-82100000D01*
X147380000Y-82100000D02*
X146800000Y-82100000D01*
%TO.N,VBUS*%
X147350000Y-80637500D02*
X146782532Y-80637500D01*
X146782532Y-80637500D02*
X146712019Y-80708013D01*
%TO.N,/BUTTON*%
X145680000Y-84530000D02*
X145680000Y-84800000D01*
%TO.N,/CHG_SENSE*%
X144030000Y-82400000D02*
X144700000Y-83070000D01*
X144700000Y-83070000D02*
X144700000Y-85235000D01*
X144700000Y-85235000D02*
X145065000Y-85600000D01*
X145065000Y-85600000D02*
X145680000Y-85600000D01*
%TO.N,/BUTTON*%
X145820000Y-82673405D02*
X145450000Y-83043405D01*
X145450000Y-83043405D02*
X145450000Y-84300000D01*
X145450000Y-84300000D02*
X145680000Y-84530000D01*
%TO.N,GND*%
X152950000Y-83601000D02*
X153974000Y-83601000D01*
X153974000Y-83601000D02*
X154000000Y-83575000D01*
X150000000Y-82725000D02*
X150002970Y-82722030D01*
X150175000Y-82900000D02*
X151180000Y-82900000D01*
X150002970Y-82722030D02*
X150002970Y-82727970D01*
X150002970Y-82727970D02*
X150175000Y-82900000D01*
%TO.N,Net-(U1-GPIO0)*%
X151830000Y-84650000D02*
X152400000Y-84080000D01*
X150130000Y-84480000D02*
X150300000Y-84650000D01*
X150130000Y-83950000D02*
X150130000Y-84480000D01*
X150300000Y-84650000D02*
X151650000Y-84650000D01*
X151600000Y-84650000D02*
X151830000Y-84650000D01*
X151650000Y-84650000D02*
X151600000Y-84650000D01*
%TO.N,+3.3V*%
X149500000Y-82925000D02*
X149704000Y-83129000D01*
X149704000Y-83129000D02*
X150679000Y-83129000D01*
X150679000Y-83129000D02*
X150930000Y-83380000D01*
X150930000Y-83380000D02*
X150930000Y-83950000D01*
%TO.N,Net-(U1-CHIP_PU)*%
X147500000Y-82900000D02*
X147500000Y-83200000D01*
X147500000Y-83200000D02*
X147650000Y-83350000D01*
X147650000Y-83350000D02*
X150410000Y-83350000D01*
X150410000Y-83350000D02*
X150530000Y-83470000D01*
X150530000Y-83470000D02*
X150530000Y-83950000D01*
%TO.N,+3.3V*%
X148520000Y-82900000D02*
X149475000Y-82900000D01*
X149475000Y-82900000D02*
X149500000Y-82925000D01*
%TO.N,Net-(U1-CHIP_PU)*%
X147500000Y-82900000D02*
X147880000Y-82900000D01*
X147120000Y-82900000D02*
X147500000Y-82900000D01*
%TO.N,/VREF*%
X145880000Y-83200000D02*
X145980000Y-83300000D01*
X145980000Y-83300000D02*
X146659294Y-83300000D01*
X146659294Y-83300000D02*
X146930000Y-83570706D01*
X146930000Y-83570706D02*
X146930000Y-83950000D01*
%TO.N,+3.3V*%
X153000000Y-84351000D02*
X153601000Y-84351000D01*
X153601000Y-84351000D02*
X153750000Y-84500000D01*
%TO.N,GND*%
X155730000Y-84370000D02*
X155800000Y-84300000D01*
X152399000Y-94898379D02*
X152399000Y-94491621D01*
X149320000Y-95000000D02*
X149320000Y-94729149D01*
X150250000Y-93050000D02*
X150600000Y-93400000D01*
X149130000Y-87400000D02*
X149130000Y-86770000D01*
X154738587Y-90400000D02*
X154450000Y-90400000D01*
X150220000Y-95000000D02*
X150320000Y-95000000D01*
X149320000Y-95000000D02*
X149320000Y-95060000D01*
X149098341Y-94507490D02*
X149098341Y-94498341D01*
X150200000Y-95600000D02*
X150200000Y-95020000D01*
X150200000Y-95020000D02*
X150220000Y-95000000D01*
X154710000Y-89300000D02*
X154710000Y-89310000D01*
X152519711Y-95403942D02*
X152519711Y-95019090D01*
X150600000Y-93912500D02*
X150600000Y-94720000D01*
X150050000Y-93250000D02*
X150250000Y-93050000D01*
X154450000Y-90400000D02*
X154450000Y-91100000D01*
X152399000Y-94491621D02*
X152519711Y-94370910D01*
X149437500Y-92750000D02*
X149950000Y-92750000D01*
X148520000Y-93920000D02*
X148500000Y-93920000D01*
X155270000Y-89870000D02*
X155080834Y-90059166D01*
X150150001Y-95649999D02*
X150200000Y-95600000D01*
X150600000Y-93400000D02*
X150600000Y-93912500D01*
X152519711Y-94370910D02*
X152519711Y-93920289D01*
X155079421Y-90059166D02*
X154738587Y-90400000D01*
X149100000Y-87400000D02*
X148400000Y-86700000D01*
X155080834Y-90059166D02*
X155079421Y-90059166D01*
X144500000Y-87580000D02*
X144500000Y-88200000D01*
X149950000Y-92750000D02*
X150250000Y-93050000D01*
X155100000Y-84500000D02*
X155300000Y-84300000D01*
X148500000Y-93920000D02*
X147800000Y-93920000D01*
X154710000Y-84500000D02*
X155100000Y-84500000D01*
X149130000Y-86770000D02*
X149200000Y-86700000D01*
X152519711Y-95019090D02*
X152399000Y-94898379D01*
X150600000Y-93912500D02*
X151100000Y-93912500D01*
X152519711Y-93920289D02*
X152700000Y-93740000D01*
X155380000Y-86600000D02*
X155380000Y-85920276D01*
X149098341Y-94498341D02*
X148520000Y-93920000D01*
X149437500Y-93250000D02*
X150050000Y-93250000D01*
X154710000Y-89310000D02*
X155270000Y-89870000D01*
X149320000Y-94729149D02*
X149098341Y-94507490D01*
X149130000Y-87400000D02*
X149200000Y-87400000D01*
X149320000Y-95060000D02*
X148680000Y-95700000D01*
X155270000Y-89870000D02*
X155320000Y-89820000D01*
X149130000Y-87400000D02*
X149100000Y-87400000D01*
X149200000Y-87400000D02*
X149900000Y-86700000D01*
X154280000Y-88000000D02*
X154280000Y-88870000D01*
X155730000Y-84780000D02*
X155730000Y-84370000D01*
X150600000Y-94720000D02*
X150320000Y-95000000D01*
X154280000Y-88870000D02*
X154710000Y-89300000D01*
X155320000Y-89820000D02*
X155730000Y-89820000D01*
X155380000Y-85920276D02*
X155399297Y-85900979D01*
D34*
%TO.N,Net-(AE1-Pad1)*%
X154200000Y-82900000D02*
X154035000Y-82900000D01*
D33*
X153965000Y-82900000D02*
X154000000Y-82935000D01*
D10*
X153220000Y-82900000D02*
X153965000Y-82900000D01*
X155350000Y-81700000D02*
X155350000Y-80562500D01*
D33*
%TO.N,+BATT*%
X147300000Y-96400000D02*
X148000000Y-96400000D01*
X147300000Y-96400000D02*
X147300000Y-96392248D01*
X147300000Y-96392248D02*
X146619000Y-95711248D01*
X146619000Y-94301000D02*
X147000000Y-93920000D01*
X146619000Y-95711248D02*
X146619000Y-94301000D01*
X148200000Y-97180000D02*
X148620000Y-97600000D01*
X148200000Y-96600000D02*
X148200000Y-97180000D01*
X148000000Y-96400000D02*
X148200000Y-96600000D01*
X151380000Y-97600000D02*
X151800000Y-97180000D01*
X148620000Y-97600000D02*
X151380000Y-97600000D01*
%TO.N,+3.3V*%
X149628319Y-94512579D02*
X149640898Y-94500000D01*
X151280000Y-95000000D02*
X151280000Y-94900000D01*
X144500000Y-85954502D02*
X144500000Y-86620000D01*
X146200000Y-90700000D02*
X146350000Y-90850000D01*
X144680000Y-86800000D02*
X145680000Y-86800000D01*
X149900000Y-94500000D02*
X150100000Y-94300000D01*
X144500000Y-86620000D02*
X144680000Y-86800000D01*
X152580000Y-88800000D02*
X152062000Y-88800000D01*
X148959000Y-92339000D02*
X148959000Y-93944928D01*
X151220000Y-95000000D02*
X151280000Y-95000000D01*
X149640898Y-94500000D02*
X149900000Y-94500000D01*
X151280000Y-94900000D02*
X151800000Y-94380000D01*
X153250000Y-88800000D02*
X153750000Y-89300000D01*
X152580000Y-85200000D02*
X152580000Y-84800000D01*
X152580000Y-88800000D02*
X153250000Y-88800000D01*
X148959000Y-93944928D02*
X149105072Y-94091000D01*
X151200000Y-95020000D02*
X151220000Y-95000000D01*
X152062000Y-88800000D02*
X150982000Y-89880000D01*
X146350000Y-90850000D02*
X146530000Y-90850000D01*
X151800000Y-94380000D02*
X151800000Y-93787500D01*
X150100000Y-94300000D02*
X150100000Y-93912500D01*
X151200000Y-95600000D02*
X151200000Y-95020000D01*
X144164430Y-85700000D02*
X144500000Y-85954502D01*
X149291000Y-94091000D02*
X149628319Y-94428319D01*
X149105072Y-94091000D02*
X149291000Y-94091000D01*
X148500000Y-91880000D02*
X148959000Y-92339000D01*
X151800000Y-93787500D02*
X151762500Y-93750000D01*
X146200000Y-90429998D02*
X146200000Y-90700000D01*
X150982000Y-89880000D02*
X150600000Y-89880000D01*
X149628319Y-94428319D02*
X149628319Y-94512579D01*
%TO.N,Net-(U1-XTAL_N)*%
X155380000Y-88000000D02*
X155380000Y-88580000D01*
X153700000Y-87300000D02*
X154680000Y-87300000D01*
X153200000Y-86200000D02*
X153200000Y-86800000D01*
X152580000Y-86000000D02*
X153000000Y-86000000D01*
X155380000Y-88580000D02*
X155730000Y-88930000D01*
X153000000Y-86000000D02*
X153200000Y-86200000D01*
X154680000Y-87300000D02*
X155380000Y-88000000D01*
X153200000Y-86800000D02*
X153700000Y-87300000D01*
X155730000Y-88930000D02*
X155730000Y-89180000D01*
%TO.N,Net-(C6-Pad2)*%
X154280000Y-86020000D02*
X154280000Y-86600000D01*
X155710000Y-85400000D02*
X155730000Y-85420000D01*
X154550000Y-85400000D02*
X155710000Y-85400000D01*
X154550000Y-85750000D02*
X154280000Y-86020000D01*
X154550000Y-85400000D02*
X154550000Y-85750000D01*
D10*
%TO.N,Net-(U1-LNA_IN)*%
X151730000Y-83950000D02*
X151730000Y-82990000D01*
X151820000Y-82900000D02*
X152580000Y-82900000D01*
D33*
X151730000Y-82990000D02*
X151820000Y-82900000D01*
%TO.N,/VREF*%
X147600000Y-94994000D02*
X147016042Y-95577958D01*
X147800000Y-93280000D02*
X148500000Y-93280000D01*
X147434000Y-94324621D02*
X147601000Y-94491621D01*
X147600000Y-94900000D02*
X147600000Y-94994000D01*
X147601000Y-94491621D02*
X147601000Y-94899000D01*
X147800000Y-93280000D02*
X147434000Y-93646000D01*
X147601000Y-94899000D02*
X147600000Y-94900000D01*
X148500000Y-93280000D02*
X148500000Y-92520000D01*
X147434000Y-93646000D02*
X147434000Y-94324621D01*
%TO.N,/BATT_MEASURE*%
X145880000Y-83758941D02*
X146071059Y-83950000D01*
X146379000Y-95265000D02*
X146379000Y-93516000D01*
X146379000Y-93516000D02*
X146615000Y-93280000D01*
X147080000Y-91900000D02*
X147500000Y-92320000D01*
X147500000Y-92780000D02*
X147000000Y-93280000D01*
X146200000Y-96400000D02*
X146200000Y-95444000D01*
X147500000Y-92320000D02*
X147500000Y-92780000D01*
X146615000Y-93280000D02*
X147000000Y-93280000D01*
X146071059Y-83950000D02*
X146530000Y-83950000D01*
X146200000Y-95444000D02*
X146379000Y-95265000D01*
X145880000Y-83739572D02*
X145880000Y-83758941D01*
X145900000Y-92565000D02*
X146615000Y-93280000D01*
%TO.N,/BATT_MEASURE_EN*%
X145669997Y-90429998D02*
X145669997Y-90912997D01*
X145115769Y-88400000D02*
X145019711Y-88303942D01*
X145669997Y-90912997D02*
X146291000Y-91534000D01*
X145680000Y-88400000D02*
X145115769Y-88400000D01*
X147354000Y-91534000D02*
X147720000Y-91900000D01*
X146291000Y-91534000D02*
X147354000Y-91534000D01*
X145900000Y-91925000D02*
X146291000Y-91534000D01*
%TO.N,/VBUS_SENSE*%
X153610000Y-90000000D02*
X153810000Y-90200000D01*
X153810000Y-90200000D02*
X153810000Y-90400000D01*
X153810000Y-91800000D02*
X153810000Y-91100000D01*
X152580000Y-90000000D02*
X153610000Y-90000000D01*
X153810000Y-90400000D02*
X153810000Y-91100000D01*
%TO.N,/BUTTON*%
X152500000Y-96300000D02*
X149920000Y-96300000D01*
X148954000Y-96066000D02*
X149320000Y-95700000D01*
X148620000Y-98200000D02*
X151380000Y-98200000D01*
X151380000Y-98200000D02*
X151800000Y-98620000D01*
X152700000Y-97900000D02*
X152700000Y-96500000D01*
X148000000Y-95898983D02*
X148167017Y-96066000D01*
X151980000Y-98620000D02*
X152700000Y-97900000D01*
X148000000Y-95830003D02*
X148000000Y-95898983D01*
X148200000Y-98620000D02*
X148620000Y-98200000D01*
X149920000Y-96300000D02*
X149320000Y-95700000D01*
X148167017Y-96066000D02*
X148954000Y-96066000D01*
X152700000Y-96500000D02*
X152500000Y-96300000D01*
X151800000Y-98620000D02*
X151980000Y-98620000D01*
%TO.N,VBUS*%
X154461348Y-92174043D02*
X154461348Y-91948050D01*
X154461348Y-91948050D02*
X154450000Y-91936702D01*
X154450000Y-91936702D02*
X154450000Y-91800000D01*
X154110391Y-92525000D02*
X154461348Y-92174043D01*
X152021000Y-94779000D02*
X152000000Y-94800000D01*
%TO.N,/USBDM*%
X144700161Y-91829113D02*
X145101689Y-91829113D01*
X144134000Y-91262952D02*
X144700161Y-91829113D01*
X144500000Y-89520000D02*
X144134000Y-89886000D01*
X144134000Y-89886000D02*
X144134000Y-91262952D01*
%TO.N,Net-(J1-CC2)*%
X148518942Y-94838942D02*
X148680000Y-95000000D01*
X148518942Y-94484457D02*
X148518942Y-94838942D01*
%TO.N,Net-(J1-CC1)*%
X152700000Y-93100000D02*
X152700000Y-92300000D01*
%TO.N,/USBDP*%
X144920000Y-91020000D02*
X144500000Y-91020000D01*
X145071000Y-91300000D02*
X145071000Y-91171000D01*
X145071000Y-91171000D02*
X144920000Y-91020000D01*
%TO.N,/LED_DAT*%
X144700000Y-92400000D02*
X145300000Y-92400000D01*
X145300000Y-89600000D02*
X145680000Y-89600000D01*
X145087000Y-89813000D02*
X145300000Y-89600000D01*
X145087000Y-90784255D02*
X145087000Y-89813000D01*
X144400000Y-92700000D02*
X144700000Y-92400000D01*
X145500000Y-92200000D02*
X145500000Y-91197255D01*
X144400000Y-94500000D02*
X144400000Y-92700000D01*
X145300000Y-92400000D02*
X145500000Y-92200000D01*
X145500000Y-91197255D02*
X145087000Y-90784255D01*
%TO.N,/LED_CLK*%
X154595866Y-92979000D02*
X153679000Y-92979000D01*
X153300000Y-92600000D02*
X153300000Y-90834128D01*
X155600000Y-93983134D02*
X155600000Y-94500000D01*
X154595866Y-92979000D02*
X155600000Y-93983134D01*
X151956000Y-90624000D02*
X151730000Y-90850000D01*
X153089872Y-90624000D02*
X151956000Y-90624000D01*
X153679000Y-92979000D02*
X153300000Y-92600000D01*
X153300000Y-90834128D02*
X153089872Y-90624000D01*
%TO.N,Net-(U1-XTAL_P)*%
X153200000Y-85600000D02*
X153400000Y-85400000D01*
X152580000Y-85600000D02*
X153200000Y-85600000D01*
X153400000Y-85400000D02*
X153910000Y-85400000D01*
%TO.N,Net-(U1-GPIO20{slash}USB_D+)*%
X144866000Y-89534000D02*
X144866000Y-90014000D01*
X145200000Y-89200000D02*
X144866000Y-89534000D01*
X144866000Y-90014000D02*
X144500000Y-90380000D01*
X145680000Y-89200000D02*
X145200000Y-89200000D01*
%TO.N,Net-(U1-GPIO19{slash}USB_D-)*%
X144580000Y-88800000D02*
X144500000Y-88880000D01*
X145680000Y-88800000D02*
X144580000Y-88800000D01*
%TO.N,/IMU_POCI*%
X150100000Y-92087500D02*
X150100000Y-91700000D01*
X150100000Y-91700000D02*
X150530000Y-91270000D01*
X150530000Y-91270000D02*
X150530000Y-90850000D01*
%TO.N,/IMU_SCK*%
X150600000Y-91700000D02*
X150930000Y-91370000D01*
X150600000Y-92087500D02*
X150600000Y-91700000D01*
X150930000Y-91370000D02*
X150930000Y-90850000D01*
%TO.N,/IMU_CS*%
X151330000Y-91370000D02*
X151330000Y-90850000D01*
X151100000Y-92087500D02*
X151100000Y-91600000D01*
X151100000Y-91600000D02*
X151330000Y-91370000D01*
%TO.N,/IMU_PICO*%
X150130000Y-91270000D02*
X149437500Y-91962500D01*
X149437500Y-91962500D02*
X149437500Y-92250000D01*
X150130000Y-90850000D02*
X150130000Y-91270000D01*
%TO.N,+3.3V*%
X153650000Y-84600000D02*
X153750000Y-84500000D01*
X153300000Y-84600000D02*
X153650000Y-84600000D01*
X153100000Y-84800000D02*
X153300000Y-84600000D01*
X152580000Y-84800000D02*
X153100000Y-84800000D01*
X151330000Y-83950000D02*
X150930000Y-83950000D01*
%TD*%
M02*
