%TF.GenerationSoftware,KiCad,Pcbnew,9.0.1*%
%TF.CreationDate,2025-07-17T15:45:22-04:00*%
%TF.ProjectId,flowstick_main_pcb,666c6f77-7374-4696-936b-5f6d61696e5f,rev?*%
%TF.SameCoordinates,Original*%
%TF.FileFunction,Copper,L2,Inr*%
%TF.FilePolarity,Positive*%
%FSLAX46Y46*%
G04 Gerber Fmt 4.6, Leading zero omitted, Abs format (unit mm)*
G04 Created by KiCad (PCBNEW 9.0.1) date 2025-07-17 15:45:22*
%MOMM*%
%LPD*%
G01*
G04 APERTURE LIST*
%TA.AperFunction,ComponentPad*%
%ADD10O,3.400000X1.700000*%
%TD*%
%TA.AperFunction,ComponentPad*%
%ADD11C,1.700000*%
%TD*%
%TA.AperFunction,HeatsinkPad*%
%ADD12O,1.000000X1.800000*%
%TD*%
%TA.AperFunction,HeatsinkPad*%
%ADD13O,1.000000X2.100000*%
%TD*%
%TA.AperFunction,ViaPad*%
%ADD14C,0.420000*%
%TD*%
%TA.AperFunction,Conductor*%
%ADD15C,0.110000*%
%TD*%
G04 APERTURE END LIST*
D10*
%TO.N,+BATT*%
%TO.C,BT1*%
X144250000Y-80000000D03*
D11*
X143500000Y-80000000D03*
D10*
%TO.N,GND*%
X144250000Y-78000000D03*
D11*
X143500000Y-78000000D03*
%TD*%
D12*
%TO.N,unconnected-(J1-SHIELD-PadS1)_1*%
%TO.C,J1*%
X154320000Y-98375000D03*
D13*
%TO.N,unconnected-(J1-SHIELD-PadS1)_3*%
X154320000Y-94195000D03*
D12*
%TO.N,unconnected-(J1-SHIELD-PadS1)_2*%
X145680000Y-98375000D03*
D13*
%TO.N,unconnected-(J1-SHIELD-PadS1)*%
X145680000Y-94195000D03*
%TD*%
D14*
%TO.N,Net-(D1A-K)*%
X146800000Y-82100000D03*
%TO.N,Net-(U1-GPIO0)*%
X152400000Y-84080000D03*
%TO.N,+3.3V*%
X149500000Y-82925000D03*
%TO.N,GND*%
X150000000Y-82725000D03*
X149630143Y-79286386D03*
X149098341Y-94507490D03*
X155200000Y-92500000D03*
X155300000Y-84300000D03*
X155800000Y-84300000D03*
X144100000Y-83900000D03*
X147069668Y-92600000D03*
X149200000Y-86700000D03*
X144100000Y-83200000D03*
X155270000Y-89870000D03*
X144500000Y-88200000D03*
X149900000Y-86700000D03*
X155200000Y-91000000D03*
X150200000Y-95600000D03*
X150700000Y-86700000D03*
X146515780Y-92600000D03*
X152950000Y-83601000D03*
X155200000Y-91500000D03*
X152519711Y-95403942D03*
X155200000Y-93000000D03*
X154897859Y-85915610D03*
X155200000Y-92000000D03*
X144100000Y-84600000D03*
X148400000Y-86700000D03*
X155399297Y-85900979D03*
%TO.N,+BATT*%
X152200000Y-91700000D03*
X152900000Y-91700000D03*
X152200000Y-91000000D03*
X147300000Y-96400000D03*
X152900000Y-91000000D03*
X152550000Y-91350000D03*
%TO.N,+3.3V*%
X149628319Y-94512579D03*
X148650000Y-82150000D03*
X150600000Y-89880000D03*
X149089316Y-81900000D03*
X148650000Y-81600000D03*
X153000000Y-84351000D03*
X146200000Y-90429998D03*
X151200000Y-95600000D03*
X144164430Y-85700000D03*
%TO.N,+5V*%
X151600000Y-86800000D03*
X155251605Y-90417313D03*
%TO.N,Net-(D1A-K)*%
X146630000Y-78328875D03*
X154199064Y-89896464D03*
%TO.N,/VREF*%
X145880000Y-83200000D03*
X147016042Y-95577958D03*
%TO.N,/BATT_MEASURE*%
X145880000Y-83739572D03*
X146200000Y-96400000D03*
%TO.N,/BATT_MEASURE_EN*%
X145019711Y-88303942D03*
X145669997Y-90429998D03*
%TO.N,/BUTTON*%
X148000000Y-95830003D03*
%TO.N,VBUS*%
X148000000Y-94800000D03*
X148000000Y-95300000D03*
X152000000Y-94800000D03*
X154110391Y-92525000D03*
X152000000Y-95300000D03*
X146709000Y-80590166D03*
X146700000Y-81050000D03*
%TO.N,/USBDM*%
X145101689Y-91829113D03*
X151125749Y-92727751D03*
%TO.N,Net-(J1-CC2)*%
X148518942Y-94484457D03*
%TO.N,Net-(J1-CC1)*%
X152700000Y-92300000D03*
%TO.N,/USBDP*%
X150595774Y-92733021D03*
X145071000Y-91300000D03*
%TO.N,/CHG_SENSE*%
X144030000Y-82400000D03*
%TO.N,/BUTTON*%
X145820000Y-82673405D03*
%TD*%
D15*
%TO.N,/BATT_MEASURE*%
X146200000Y-96400000D02*
X146200000Y-95444000D01*
X146200000Y-95444000D02*
X146346000Y-95298000D01*
X147479000Y-85029000D02*
X146189572Y-83739572D01*
X146346000Y-95298000D02*
X146346000Y-94254000D01*
X146346000Y-94254000D02*
X147479000Y-93121000D01*
X147479000Y-93121000D02*
X147479000Y-85029000D01*
X146189572Y-83739572D02*
X145880000Y-83739572D01*
%TO.N,/VREF*%
X146619000Y-94919000D02*
X146619000Y-94491621D01*
X146994000Y-95294000D02*
X146619000Y-94919000D01*
X145980000Y-83200000D02*
X145880000Y-83200000D01*
X147700000Y-84920000D02*
X145980000Y-83200000D01*
X147700000Y-93410621D02*
X147700000Y-84920000D01*
X146619000Y-94491621D02*
X147700000Y-93410621D01*
X146994000Y-95555916D02*
X146994000Y-95294000D01*
X147016042Y-95577958D02*
X146994000Y-95555916D01*
%TO.N,/BATT_MEASURE_EN*%
X145400000Y-88684231D02*
X145019711Y-88303942D01*
X145400000Y-90160001D02*
X145400000Y-88684231D01*
X145669997Y-90429998D02*
X145400000Y-90160001D01*
%TO.N,/BUTTON*%
X148000000Y-95830003D02*
X147927541Y-95757544D01*
X147927541Y-95757544D02*
X147925799Y-95757544D01*
X147624000Y-95455745D02*
X147624000Y-94644255D01*
X147921000Y-84709255D02*
X145885150Y-82673405D01*
X145885150Y-82673405D02*
X145820000Y-82673405D01*
X147921000Y-93502162D02*
X147921000Y-84709255D01*
X147925799Y-95757544D02*
X147624000Y-95455745D01*
X147900000Y-93523162D02*
X147921000Y-93502162D01*
X147624000Y-94644255D02*
X147900000Y-94368255D01*
X147900000Y-94368255D02*
X147900000Y-93523162D01*
%TD*%
%TA.AperFunction,Conductor*%
%TO.N,GND*%
G36*
X149984184Y-77015816D02*
G01*
X150000000Y-77054000D01*
X150000000Y-82500000D01*
X156195500Y-82500000D01*
X156233684Y-82515816D01*
X156249500Y-82554000D01*
X156249500Y-94695500D01*
X156233684Y-94733684D01*
X156195500Y-94749500D01*
X155445178Y-94749500D01*
X155444748Y-94749541D01*
X155428770Y-94749553D01*
X155428763Y-94749554D01*
X155289672Y-94780389D01*
X155289661Y-94780393D01*
X155160551Y-94840599D01*
X155160548Y-94840600D01*
X155047519Y-94927332D01*
X154992123Y-94993349D01*
X154955463Y-95012433D01*
X154916046Y-95000004D01*
X154896962Y-94963344D01*
X154900868Y-94937972D01*
X154907039Y-94923076D01*
X154930500Y-94805129D01*
X154930500Y-93584871D01*
X154924772Y-93556076D01*
X154907040Y-93466927D01*
X154907037Y-93466918D01*
X154861021Y-93355828D01*
X154861018Y-93355820D01*
X154794206Y-93255829D01*
X154709171Y-93170794D01*
X154659175Y-93137388D01*
X154609185Y-93103985D01*
X154609182Y-93103983D01*
X154609180Y-93103982D01*
X154609174Y-93103979D01*
X154609171Y-93103978D01*
X154498081Y-93057962D01*
X154498072Y-93057959D01*
X154380133Y-93034500D01*
X154380129Y-93034500D01*
X154259871Y-93034500D01*
X154259866Y-93034500D01*
X154141927Y-93057959D01*
X154141918Y-93057962D01*
X154030828Y-93103978D01*
X154030814Y-93103985D01*
X153930833Y-93170791D01*
X153930825Y-93170797D01*
X153845797Y-93255825D01*
X153845791Y-93255833D01*
X153778985Y-93355814D01*
X153778978Y-93355828D01*
X153732962Y-93466918D01*
X153732959Y-93466927D01*
X153709500Y-93584866D01*
X153709500Y-94805133D01*
X153732959Y-94923072D01*
X153732962Y-94923081D01*
X153769974Y-95012433D01*
X153778982Y-95034180D01*
X153778983Y-95034182D01*
X153778985Y-95034185D01*
X153789554Y-95050002D01*
X153845794Y-95134171D01*
X153930829Y-95219206D01*
X154030820Y-95286018D01*
X154065676Y-95300456D01*
X154141918Y-95332037D01*
X154141927Y-95332040D01*
X154233487Y-95350252D01*
X154259871Y-95355500D01*
X154380129Y-95355500D01*
X154440286Y-95343534D01*
X154498072Y-95332040D01*
X154498073Y-95332039D01*
X154498076Y-95332039D01*
X154500778Y-95330920D01*
X154507963Y-95327943D01*
X154609180Y-95286018D01*
X154709171Y-95219206D01*
X154793266Y-95135110D01*
X154831449Y-95119295D01*
X154869633Y-95135111D01*
X154885449Y-95173295D01*
X154883609Y-95187271D01*
X154853281Y-95300454D01*
X154853281Y-95300456D01*
X154853280Y-95300460D01*
X154850001Y-95375579D01*
X154847066Y-95442798D01*
X154871806Y-95583101D01*
X154871808Y-95583108D01*
X154926323Y-95714719D01*
X154926327Y-95714728D01*
X154926328Y-95714730D01*
X154926330Y-95714733D01*
X154983787Y-95796789D01*
X155008045Y-95831433D01*
X155031982Y-95853367D01*
X155049449Y-95890823D01*
X155049500Y-95893179D01*
X155049500Y-99594683D01*
X155048462Y-99605217D01*
X155048462Y-99605219D01*
X155040215Y-99646676D01*
X155032152Y-99666141D01*
X155011679Y-99696781D01*
X154996781Y-99711679D01*
X154966141Y-99732152D01*
X154946676Y-99740215D01*
X154912982Y-99746917D01*
X154905217Y-99748462D01*
X154894683Y-99749500D01*
X145105317Y-99749500D01*
X145094782Y-99748462D01*
X145053324Y-99740215D01*
X145033858Y-99732152D01*
X145003218Y-99711679D01*
X144988320Y-99696781D01*
X144972626Y-99673294D01*
X144967847Y-99666141D01*
X144959784Y-99646674D01*
X144951538Y-99605217D01*
X144950500Y-99594683D01*
X144950500Y-97914866D01*
X145069500Y-97914866D01*
X145069500Y-98835133D01*
X145092959Y-98953072D01*
X145092962Y-98953081D01*
X145138978Y-99064171D01*
X145138982Y-99064180D01*
X145205794Y-99164171D01*
X145290829Y-99249206D01*
X145390820Y-99316018D01*
X145434446Y-99334088D01*
X145501918Y-99362037D01*
X145501927Y-99362040D01*
X145618295Y-99385186D01*
X145619871Y-99385500D01*
X145740129Y-99385500D01*
X145799102Y-99373769D01*
X145858072Y-99362040D01*
X145858073Y-99362039D01*
X145858076Y-99362039D01*
X145969180Y-99316018D01*
X146069171Y-99249206D01*
X146154206Y-99164171D01*
X146221018Y-99064180D01*
X146267039Y-98953076D01*
X146290500Y-98835129D01*
X146290500Y-98739373D01*
X149539500Y-98739373D01*
X149539500Y-98860626D01*
X149570882Y-98977748D01*
X149631504Y-99082749D01*
X149631506Y-99082751D01*
X149631508Y-99082754D01*
X149717246Y-99168492D01*
X149717248Y-99168493D01*
X149717250Y-99168495D01*
X149822251Y-99229117D01*
X149822253Y-99229118D01*
X149939374Y-99260500D01*
X149939375Y-99260500D01*
X150060625Y-99260500D01*
X150060626Y-99260500D01*
X150177747Y-99229118D01*
X150282754Y-99168492D01*
X150368492Y-99082754D01*
X150429118Y-98977747D01*
X150460500Y-98860626D01*
X150460500Y-98739374D01*
X150429118Y-98622253D01*
X150429117Y-98622251D01*
X150368495Y-98517250D01*
X150368493Y-98517248D01*
X150368492Y-98517246D01*
X150282754Y-98431508D01*
X150282751Y-98431506D01*
X150282749Y-98431504D01*
X150177748Y-98370882D01*
X150060626Y-98339500D01*
X149939374Y-98339500D01*
X149939373Y-98339500D01*
X149822251Y-98370882D01*
X149717250Y-98431504D01*
X149717248Y-98431506D01*
X149717246Y-98431508D01*
X149631508Y-98517246D01*
X149631506Y-98517248D01*
X149631506Y-98517249D01*
X149631504Y-98517250D01*
X149570882Y-98622251D01*
X149539500Y-98739373D01*
X146290500Y-98739373D01*
X146290500Y-97914871D01*
X146290499Y-97914866D01*
X153709500Y-97914866D01*
X153709500Y-98835133D01*
X153732959Y-98953072D01*
X153732962Y-98953081D01*
X153778978Y-99064171D01*
X153778982Y-99064180D01*
X153845794Y-99164171D01*
X153930829Y-99249206D01*
X154030820Y-99316018D01*
X154074446Y-99334088D01*
X154141918Y-99362037D01*
X154141927Y-99362040D01*
X154258295Y-99385186D01*
X154259871Y-99385500D01*
X154380129Y-99385500D01*
X154439102Y-99373769D01*
X154498072Y-99362040D01*
X154498073Y-99362039D01*
X154498076Y-99362039D01*
X154609180Y-99316018D01*
X154709171Y-99249206D01*
X154794206Y-99164171D01*
X154861018Y-99064180D01*
X154907039Y-98953076D01*
X154930500Y-98835129D01*
X154930500Y-97914871D01*
X154907039Y-97796924D01*
X154861018Y-97685820D01*
X154794206Y-97585829D01*
X154709171Y-97500794D01*
X154648867Y-97460500D01*
X154609185Y-97433985D01*
X154609182Y-97433983D01*
X154609180Y-97433982D01*
X154609174Y-97433979D01*
X154609171Y-97433978D01*
X154498081Y-97387962D01*
X154498072Y-97387959D01*
X154380133Y-97364500D01*
X154380129Y-97364500D01*
X154259871Y-97364500D01*
X154259866Y-97364500D01*
X154141927Y-97387959D01*
X154141918Y-97387962D01*
X154030828Y-97433978D01*
X154030814Y-97433985D01*
X153930833Y-97500791D01*
X153930825Y-97500797D01*
X153845797Y-97585825D01*
X153845791Y-97585833D01*
X153778985Y-97685814D01*
X153778978Y-97685828D01*
X153732962Y-97796918D01*
X153732959Y-97796927D01*
X153709500Y-97914866D01*
X146290499Y-97914866D01*
X146267039Y-97796924D01*
X146221018Y-97685820D01*
X146154206Y-97585829D01*
X146069171Y-97500794D01*
X146008867Y-97460500D01*
X145969185Y-97433985D01*
X145969182Y-97433983D01*
X145969180Y-97433982D01*
X145969174Y-97433979D01*
X145969171Y-97433978D01*
X145858081Y-97387962D01*
X145858072Y-97387959D01*
X145740133Y-97364500D01*
X145740129Y-97364500D01*
X145619871Y-97364500D01*
X145619866Y-97364500D01*
X145501927Y-97387959D01*
X145501918Y-97387962D01*
X145390828Y-97433978D01*
X145390814Y-97433985D01*
X145290833Y-97500791D01*
X145290825Y-97500797D01*
X145205797Y-97585825D01*
X145205791Y-97585833D01*
X145138985Y-97685814D01*
X145138978Y-97685828D01*
X145092962Y-97796918D01*
X145092959Y-97796927D01*
X145069500Y-97914866D01*
X144950500Y-97914866D01*
X144950500Y-96939373D01*
X149539500Y-96939373D01*
X149539500Y-97060626D01*
X149570882Y-97177748D01*
X149631504Y-97282749D01*
X149631506Y-97282751D01*
X149631508Y-97282754D01*
X149717246Y-97368492D01*
X149717248Y-97368493D01*
X149717250Y-97368495D01*
X149822251Y-97429117D01*
X149822253Y-97429118D01*
X149939374Y-97460500D01*
X149939375Y-97460500D01*
X150060625Y-97460500D01*
X150060626Y-97460500D01*
X150177747Y-97429118D01*
X150282754Y-97368492D01*
X150368492Y-97282754D01*
X150429118Y-97177747D01*
X150460500Y-97060626D01*
X150460500Y-96939374D01*
X150429118Y-96822253D01*
X150370371Y-96720500D01*
X150368495Y-96717250D01*
X150368493Y-96717248D01*
X150368492Y-96717246D01*
X150282754Y-96631508D01*
X150282751Y-96631506D01*
X150282749Y-96631504D01*
X150177748Y-96570882D01*
X150060626Y-96539500D01*
X149939374Y-96539500D01*
X149939373Y-96539500D01*
X149822251Y-96570882D01*
X149717250Y-96631504D01*
X149717248Y-96631506D01*
X149717246Y-96631508D01*
X149631508Y-96717246D01*
X149631506Y-96717248D01*
X149631506Y-96717249D01*
X149631504Y-96717250D01*
X149570882Y-96822251D01*
X149539500Y-96939373D01*
X144950500Y-96939373D01*
X144950500Y-95893181D01*
X144966316Y-95854997D01*
X144967996Y-95853388D01*
X144991956Y-95831434D01*
X145073674Y-95714728D01*
X145128195Y-95583102D01*
X145152935Y-95442796D01*
X145146721Y-95300460D01*
X145116392Y-95187273D01*
X145121786Y-95146297D01*
X145154575Y-95121137D01*
X145195552Y-95126531D01*
X145206736Y-95135113D01*
X145290829Y-95219206D01*
X145390820Y-95286018D01*
X145425676Y-95300456D01*
X145501918Y-95332037D01*
X145501927Y-95332040D01*
X145593487Y-95350252D01*
X145619871Y-95355500D01*
X145740129Y-95355500D01*
X145800286Y-95343534D01*
X145858072Y-95332040D01*
X145858073Y-95332039D01*
X145858076Y-95332039D01*
X145860778Y-95330920D01*
X145867963Y-95327943D01*
X145969180Y-95286018D01*
X145984516Y-95275770D01*
X146025050Y-95267707D01*
X146059415Y-95290668D01*
X146067479Y-95331204D01*
X146061640Y-95345300D01*
X146061731Y-95345338D01*
X146034500Y-95411078D01*
X146034500Y-96094292D01*
X146018684Y-96132476D01*
X146007504Y-96141055D01*
X146003210Y-96143534D01*
X146003208Y-96143535D01*
X146003208Y-96143536D01*
X145943536Y-96203208D01*
X145943534Y-96203210D01*
X145943534Y-96203211D01*
X145943532Y-96203212D01*
X145901341Y-96276289D01*
X145879500Y-96357804D01*
X145879500Y-96442195D01*
X145901341Y-96523710D01*
X145943532Y-96596787D01*
X145943534Y-96596789D01*
X145943536Y-96596792D01*
X146003208Y-96656464D01*
X146003210Y-96656465D01*
X146003212Y-96656467D01*
X146076289Y-96698658D01*
X146076291Y-96698659D01*
X146157805Y-96720500D01*
X146157806Y-96720500D01*
X146242194Y-96720500D01*
X146242195Y-96720500D01*
X146323709Y-96698659D01*
X146396792Y-96656464D01*
X146456464Y-96596792D01*
X146498659Y-96523709D01*
X146520500Y-96442195D01*
X146520500Y-96357805D01*
X146520500Y-96357804D01*
X146979500Y-96357804D01*
X146979500Y-96442195D01*
X147001341Y-96523710D01*
X147043532Y-96596787D01*
X147043534Y-96596789D01*
X147043536Y-96596792D01*
X147103208Y-96656464D01*
X147103210Y-96656465D01*
X147103212Y-96656467D01*
X147176289Y-96698658D01*
X147176291Y-96698659D01*
X147257805Y-96720500D01*
X147257806Y-96720500D01*
X147342194Y-96720500D01*
X147342195Y-96720500D01*
X147423709Y-96698659D01*
X147496792Y-96656464D01*
X147556464Y-96596792D01*
X147598659Y-96523709D01*
X147620500Y-96442195D01*
X147620500Y-96357805D01*
X147598659Y-96276291D01*
X147598658Y-96276289D01*
X147556467Y-96203212D01*
X147556465Y-96203210D01*
X147556464Y-96203208D01*
X147496792Y-96143536D01*
X147496789Y-96143534D01*
X147496787Y-96143532D01*
X147423710Y-96101341D01*
X147342195Y-96079500D01*
X147257805Y-96079500D01*
X147257804Y-96079500D01*
X147176289Y-96101341D01*
X147103212Y-96143532D01*
X147103210Y-96143534D01*
X147103208Y-96143536D01*
X147043536Y-96203208D01*
X147043534Y-96203210D01*
X147043534Y-96203211D01*
X147043532Y-96203212D01*
X147001341Y-96276289D01*
X146979500Y-96357804D01*
X146520500Y-96357804D01*
X146498659Y-96276291D01*
X146498658Y-96276289D01*
X146456467Y-96203212D01*
X146456465Y-96203210D01*
X146456464Y-96203208D01*
X146396792Y-96143536D01*
X146396789Y-96143534D01*
X146392496Y-96141055D01*
X146367339Y-96108264D01*
X146365500Y-96094292D01*
X146365500Y-95534920D01*
X146381316Y-95496736D01*
X146423805Y-95454247D01*
X146486304Y-95391748D01*
X146501319Y-95355499D01*
X146511500Y-95330921D01*
X146511500Y-95175920D01*
X146527316Y-95137736D01*
X146565500Y-95121920D01*
X146603684Y-95137736D01*
X146765162Y-95299214D01*
X146780978Y-95337398D01*
X146765164Y-95375579D01*
X146759580Y-95381163D01*
X146759574Y-95381170D01*
X146717383Y-95454247D01*
X146695542Y-95535762D01*
X146695542Y-95620153D01*
X146717383Y-95701668D01*
X146759574Y-95774745D01*
X146759576Y-95774747D01*
X146759578Y-95774750D01*
X146819250Y-95834422D01*
X146819252Y-95834423D01*
X146819254Y-95834425D01*
X146879869Y-95869421D01*
X146892333Y-95876617D01*
X146973847Y-95898458D01*
X146973848Y-95898458D01*
X147058236Y-95898458D01*
X147058237Y-95898458D01*
X147139751Y-95876617D01*
X147212834Y-95834422D01*
X147272506Y-95774750D01*
X147314701Y-95701667D01*
X147336542Y-95620153D01*
X147336542Y-95535763D01*
X147314701Y-95454249D01*
X147308088Y-95442795D01*
X147272509Y-95381170D01*
X147272507Y-95381168D01*
X147272506Y-95381166D01*
X147212834Y-95321494D01*
X147212831Y-95321492D01*
X147212832Y-95321492D01*
X147186499Y-95306289D01*
X147162779Y-95278055D01*
X147159500Y-95269080D01*
X147159500Y-95261080D01*
X147134722Y-95201262D01*
X147134330Y-95200188D01*
X147135161Y-95180602D01*
X147135161Y-95160992D01*
X147136030Y-95160122D01*
X147136083Y-95158895D01*
X147150521Y-95145631D01*
X147164386Y-95131768D01*
X147166334Y-95131106D01*
X147166520Y-95130936D01*
X147166801Y-95130947D01*
X147171062Y-95129501D01*
X147278097Y-95100821D01*
X147377403Y-95043487D01*
X147377402Y-95043487D01*
X147377500Y-95043431D01*
X147418476Y-95038036D01*
X147451265Y-95063196D01*
X147458500Y-95090196D01*
X147458500Y-95488666D01*
X147483695Y-95549492D01*
X147666438Y-95732235D01*
X147682254Y-95770419D01*
X147680415Y-95784391D01*
X147679500Y-95787805D01*
X147679500Y-95872198D01*
X147701341Y-95953713D01*
X147743532Y-96026790D01*
X147743534Y-96026792D01*
X147743536Y-96026795D01*
X147803208Y-96086467D01*
X147803210Y-96086468D01*
X147803212Y-96086470D01*
X147876289Y-96128661D01*
X147876291Y-96128662D01*
X147957805Y-96150503D01*
X147957806Y-96150503D01*
X148042194Y-96150503D01*
X148042195Y-96150503D01*
X148123709Y-96128662D01*
X148196792Y-96086467D01*
X148256464Y-96026795D01*
X148298659Y-95953712D01*
X148320500Y-95872198D01*
X148320500Y-95787808D01*
X148298659Y-95706294D01*
X148293051Y-95696581D01*
X148256467Y-95633215D01*
X148256465Y-95633213D01*
X148256464Y-95633211D01*
X148226436Y-95603183D01*
X148210621Y-95565001D01*
X148213602Y-95557804D01*
X150879500Y-95557804D01*
X150879500Y-95642195D01*
X150901341Y-95723710D01*
X150943532Y-95796787D01*
X150943534Y-95796789D01*
X150943536Y-95796792D01*
X151003208Y-95856464D01*
X151003210Y-95856465D01*
X151003212Y-95856467D01*
X151066799Y-95893179D01*
X151076291Y-95898659D01*
X151157805Y-95920500D01*
X151157806Y-95920500D01*
X151242194Y-95920500D01*
X151242195Y-95920500D01*
X151323709Y-95898659D01*
X151396792Y-95856464D01*
X151456464Y-95796792D01*
X151498659Y-95723709D01*
X151520500Y-95642195D01*
X151520500Y-95557805D01*
X151498659Y-95476291D01*
X151485932Y-95454247D01*
X151456467Y-95403212D01*
X151456465Y-95403210D01*
X151456464Y-95403208D01*
X151396792Y-95343536D01*
X151396789Y-95343534D01*
X151396787Y-95343532D01*
X151323710Y-95301341D01*
X151242195Y-95279500D01*
X151157805Y-95279500D01*
X151157804Y-95279500D01*
X151076289Y-95301341D01*
X151003212Y-95343532D01*
X151003210Y-95343534D01*
X151003208Y-95343536D01*
X150943536Y-95403208D01*
X150943534Y-95403210D01*
X150943534Y-95403211D01*
X150943532Y-95403212D01*
X150901341Y-95476289D01*
X150879500Y-95557804D01*
X148213602Y-95557804D01*
X148226435Y-95526820D01*
X148256464Y-95496792D01*
X148298659Y-95423709D01*
X148320500Y-95342195D01*
X148320500Y-95257805D01*
X148298659Y-95176291D01*
X148296929Y-95173295D01*
X148256467Y-95103212D01*
X148256465Y-95103210D01*
X148256464Y-95103208D01*
X148241438Y-95088182D01*
X148225623Y-95050000D01*
X148241438Y-95011817D01*
X148256464Y-94996792D01*
X148298659Y-94923709D01*
X148320500Y-94842195D01*
X148320500Y-94832977D01*
X148336316Y-94794793D01*
X148374500Y-94778977D01*
X148391757Y-94782410D01*
X148391814Y-94782200D01*
X148395024Y-94783060D01*
X148395169Y-94783089D01*
X148395231Y-94783115D01*
X148395233Y-94783116D01*
X148395234Y-94783116D01*
X148395236Y-94783117D01*
X148412462Y-94787732D01*
X148476747Y-94804957D01*
X148476748Y-94804957D01*
X148561136Y-94804957D01*
X148561137Y-94804957D01*
X148642651Y-94783116D01*
X148715734Y-94740921D01*
X148775406Y-94681249D01*
X148817601Y-94608166D01*
X148839442Y-94526652D01*
X148839442Y-94470383D01*
X149307819Y-94470383D01*
X149307819Y-94554774D01*
X149329660Y-94636289D01*
X149371851Y-94709366D01*
X149371853Y-94709368D01*
X149371855Y-94709371D01*
X149431527Y-94769043D01*
X149431529Y-94769044D01*
X149431531Y-94769046D01*
X149493729Y-94804956D01*
X149504610Y-94811238D01*
X149586124Y-94833079D01*
X149586125Y-94833079D01*
X149670513Y-94833079D01*
X149670514Y-94833079D01*
X149752028Y-94811238D01*
X149825111Y-94769043D01*
X149836350Y-94757804D01*
X151679500Y-94757804D01*
X151679500Y-94842195D01*
X151701341Y-94923710D01*
X151743532Y-94996787D01*
X151743534Y-94996789D01*
X151743536Y-94996792D01*
X151755267Y-95008523D01*
X151758561Y-95011817D01*
X151774376Y-95050002D01*
X151758561Y-95088183D01*
X151743532Y-95103212D01*
X151701341Y-95176289D01*
X151679500Y-95257804D01*
X151679500Y-95342195D01*
X151701341Y-95423710D01*
X151743532Y-95496787D01*
X151743534Y-95496789D01*
X151743536Y-95496792D01*
X151803208Y-95556464D01*
X151803210Y-95556465D01*
X151803212Y-95556467D01*
X151849356Y-95583108D01*
X151876291Y-95598659D01*
X151957805Y-95620500D01*
X151957806Y-95620500D01*
X152042194Y-95620500D01*
X152042195Y-95620500D01*
X152123709Y-95598659D01*
X152194468Y-95557806D01*
X152196787Y-95556467D01*
X152196789Y-95556466D01*
X152196789Y-95556465D01*
X152196792Y-95556464D01*
X152256464Y-95496792D01*
X152298659Y-95423709D01*
X152320500Y-95342195D01*
X152320500Y-95257805D01*
X152298659Y-95176291D01*
X152296929Y-95173295D01*
X152256467Y-95103212D01*
X152256465Y-95103210D01*
X152256464Y-95103208D01*
X152241438Y-95088182D01*
X152225623Y-95050000D01*
X152241438Y-95011817D01*
X152256464Y-94996792D01*
X152298659Y-94923709D01*
X152320500Y-94842195D01*
X152320500Y-94757805D01*
X152298659Y-94676291D01*
X152298658Y-94676289D01*
X152289904Y-94661126D01*
X152276358Y-94637664D01*
X152454500Y-94637664D01*
X152454500Y-94752335D01*
X152484179Y-94863097D01*
X152541509Y-94962398D01*
X152541511Y-94962400D01*
X152541513Y-94962403D01*
X152622597Y-95043487D01*
X152622599Y-95043488D01*
X152622601Y-95043490D01*
X152656734Y-95063196D01*
X152721903Y-95100821D01*
X152832664Y-95130499D01*
X152832664Y-95130500D01*
X152832665Y-95130500D01*
X152947336Y-95130500D01*
X152947335Y-95130499D01*
X153058097Y-95100821D01*
X153157403Y-95043487D01*
X153238487Y-94962403D01*
X153295821Y-94863097D01*
X153325500Y-94752335D01*
X153325500Y-94637665D01*
X153325131Y-94636289D01*
X153303289Y-94554774D01*
X153295821Y-94526903D01*
X153263190Y-94470384D01*
X153238490Y-94427601D01*
X153238488Y-94427599D01*
X153238487Y-94427597D01*
X153157403Y-94346513D01*
X153157400Y-94346511D01*
X153157398Y-94346509D01*
X153058097Y-94289179D01*
X152947335Y-94259500D01*
X152832665Y-94259500D01*
X152832664Y-94259500D01*
X152721902Y-94289179D01*
X152622601Y-94346509D01*
X152622599Y-94346511D01*
X152622597Y-94346513D01*
X152541513Y-94427597D01*
X152541511Y-94427599D01*
X152541511Y-94427600D01*
X152541509Y-94427601D01*
X152484179Y-94526902D01*
X152454500Y-94637664D01*
X152276358Y-94637664D01*
X152256467Y-94603212D01*
X152256465Y-94603210D01*
X152256464Y-94603208D01*
X152196792Y-94543536D01*
X152196789Y-94543534D01*
X152196787Y-94543532D01*
X152123710Y-94501341D01*
X152042195Y-94479500D01*
X151957805Y-94479500D01*
X151957804Y-94479500D01*
X151876289Y-94501341D01*
X151803212Y-94543532D01*
X151803210Y-94543534D01*
X151803208Y-94543536D01*
X151743536Y-94603208D01*
X151743534Y-94603210D01*
X151743534Y-94603211D01*
X151743532Y-94603212D01*
X151701341Y-94676289D01*
X151679500Y-94757804D01*
X149836350Y-94757804D01*
X149884783Y-94709371D01*
X149926978Y-94636288D01*
X149948819Y-94554774D01*
X149948819Y-94470384D01*
X149926978Y-94388870D01*
X149926977Y-94388868D01*
X149884786Y-94315791D01*
X149884784Y-94315789D01*
X149884783Y-94315787D01*
X149825111Y-94256115D01*
X149825108Y-94256113D01*
X149825106Y-94256111D01*
X149752029Y-94213920D01*
X149670514Y-94192079D01*
X149586124Y-94192079D01*
X149586123Y-94192079D01*
X149504608Y-94213920D01*
X149431531Y-94256111D01*
X149431529Y-94256113D01*
X149431527Y-94256115D01*
X149371855Y-94315787D01*
X149371853Y-94315789D01*
X149371853Y-94315790D01*
X149371851Y-94315791D01*
X149329660Y-94388868D01*
X149307819Y-94470383D01*
X148839442Y-94470383D01*
X148839442Y-94442262D01*
X148817601Y-94360748D01*
X148812156Y-94351317D01*
X148775409Y-94287669D01*
X148775407Y-94287667D01*
X148775406Y-94287665D01*
X148715734Y-94227993D01*
X148715731Y-94227991D01*
X148715729Y-94227989D01*
X148642652Y-94185798D01*
X148561137Y-94163957D01*
X148476747Y-94163957D01*
X148476746Y-94163957D01*
X148395231Y-94185798D01*
X148322154Y-94227989D01*
X148322152Y-94227991D01*
X148322150Y-94227993D01*
X148262478Y-94287665D01*
X148262476Y-94287667D01*
X148262476Y-94287668D01*
X148262474Y-94287669D01*
X148220283Y-94360746D01*
X148198442Y-94442261D01*
X148198442Y-94451479D01*
X148195524Y-94458522D01*
X148196427Y-94466093D01*
X148187901Y-94476926D01*
X148182626Y-94489663D01*
X148175582Y-94492580D01*
X148170867Y-94498572D01*
X148159482Y-94499249D01*
X148144442Y-94505479D01*
X148129828Y-94503464D01*
X148125068Y-94502126D01*
X148123709Y-94501341D01*
X148093158Y-94493155D01*
X148092809Y-94493057D01*
X148076831Y-94480483D01*
X148060657Y-94468072D01*
X148060610Y-94467717D01*
X148060330Y-94467497D01*
X148057920Y-94447280D01*
X148055263Y-94427095D01*
X148055448Y-94426547D01*
X148055438Y-94426458D01*
X148055510Y-94426365D01*
X148057534Y-94420406D01*
X148065500Y-94401175D01*
X148065500Y-93596521D01*
X148069609Y-93575859D01*
X148077801Y-93556082D01*
X148086500Y-93535082D01*
X148086500Y-92690825D01*
X150275274Y-92690825D01*
X150275274Y-92775216D01*
X150297115Y-92856731D01*
X150339306Y-92929808D01*
X150339308Y-92929810D01*
X150339310Y-92929813D01*
X150398982Y-92989485D01*
X150398984Y-92989486D01*
X150398986Y-92989488D01*
X150472063Y-93031679D01*
X150472065Y-93031680D01*
X150553579Y-93053521D01*
X150553580Y-93053521D01*
X150637968Y-93053521D01*
X150637969Y-93053521D01*
X150719483Y-93031680D01*
X150792566Y-92989485D01*
X150825213Y-92956837D01*
X150863396Y-92941022D01*
X150901579Y-92956838D01*
X150928955Y-92984213D01*
X150928961Y-92984218D01*
X151002038Y-93026409D01*
X151002040Y-93026410D01*
X151083554Y-93048251D01*
X151083555Y-93048251D01*
X151167943Y-93048251D01*
X151167944Y-93048251D01*
X151249458Y-93026410D01*
X151322541Y-92984215D01*
X151382213Y-92924543D01*
X151424408Y-92851460D01*
X151446249Y-92769946D01*
X151446249Y-92685556D01*
X151424408Y-92604042D01*
X151421300Y-92598658D01*
X151382216Y-92530963D01*
X151382214Y-92530961D01*
X151382213Y-92530959D01*
X151322541Y-92471287D01*
X151322538Y-92471285D01*
X151322536Y-92471283D01*
X151249459Y-92429092D01*
X151167944Y-92407251D01*
X151083554Y-92407251D01*
X151083553Y-92407251D01*
X151002038Y-92429092D01*
X150928961Y-92471283D01*
X150928955Y-92471288D01*
X150896309Y-92503934D01*
X150858125Y-92519750D01*
X150819943Y-92503934D01*
X150792566Y-92476557D01*
X150792563Y-92476555D01*
X150792561Y-92476553D01*
X150719484Y-92434362D01*
X150637969Y-92412521D01*
X150553579Y-92412521D01*
X150553578Y-92412521D01*
X150472063Y-92434362D01*
X150398986Y-92476553D01*
X150398984Y-92476555D01*
X150398982Y-92476557D01*
X150339310Y-92536229D01*
X150339308Y-92536231D01*
X150339308Y-92536232D01*
X150339306Y-92536233D01*
X150297115Y-92609310D01*
X150275274Y-92690825D01*
X148086500Y-92690825D01*
X148086500Y-90957804D01*
X151879500Y-90957804D01*
X151879500Y-91042195D01*
X151901341Y-91123710D01*
X151943532Y-91196787D01*
X151943534Y-91196789D01*
X151943536Y-91196792D01*
X152003208Y-91256464D01*
X152003210Y-91256465D01*
X152003212Y-91256467D01*
X152076291Y-91298659D01*
X152079561Y-91300014D01*
X152078718Y-91302047D01*
X152106024Y-91323000D01*
X152111418Y-91363977D01*
X152086258Y-91396766D01*
X152079403Y-91399605D01*
X152079561Y-91399986D01*
X152076291Y-91401340D01*
X152003212Y-91443532D01*
X152003210Y-91443534D01*
X152003208Y-91443536D01*
X151943536Y-91503208D01*
X151943534Y-91503210D01*
X151943534Y-91503211D01*
X151943532Y-91503212D01*
X151901341Y-91576289D01*
X151879500Y-91657804D01*
X151879500Y-91742195D01*
X151901341Y-91823710D01*
X151943532Y-91896787D01*
X151943534Y-91896789D01*
X151943536Y-91896792D01*
X152003208Y-91956464D01*
X152003210Y-91956465D01*
X152003212Y-91956467D01*
X152076289Y-91998658D01*
X152076291Y-91998659D01*
X152157805Y-92020500D01*
X152157806Y-92020500D01*
X152242194Y-92020500D01*
X152242195Y-92020500D01*
X152323709Y-91998659D01*
X152396792Y-91956464D01*
X152456464Y-91896792D01*
X152498659Y-91823709D01*
X152498659Y-91823706D01*
X152500014Y-91820439D01*
X152502056Y-91821284D01*
X152522968Y-91793994D01*
X152563941Y-91788571D01*
X152596747Y-91813709D01*
X152599600Y-91820598D01*
X152599986Y-91820439D01*
X152601340Y-91823708D01*
X152643532Y-91896787D01*
X152643534Y-91896789D01*
X152643536Y-91896792D01*
X152645645Y-91898901D01*
X152661461Y-91937084D01*
X152645645Y-91975268D01*
X152621437Y-91989244D01*
X152576290Y-92001341D01*
X152503212Y-92043532D01*
X152503210Y-92043534D01*
X152503208Y-92043536D01*
X152443536Y-92103208D01*
X152443534Y-92103210D01*
X152443534Y-92103211D01*
X152443532Y-92103212D01*
X152401341Y-92176289D01*
X152379500Y-92257804D01*
X152379500Y-92342195D01*
X152401341Y-92423710D01*
X152443532Y-92496787D01*
X152443534Y-92496789D01*
X152443536Y-92496792D01*
X152503208Y-92556464D01*
X152503210Y-92556465D01*
X152503212Y-92556467D01*
X152576289Y-92598658D01*
X152576291Y-92598659D01*
X152657805Y-92620500D01*
X152657806Y-92620500D01*
X152742194Y-92620500D01*
X152742195Y-92620500D01*
X152823709Y-92598659D01*
X152896792Y-92556464D01*
X152956464Y-92496792D01*
X152964539Y-92482806D01*
X152964540Y-92482804D01*
X153789891Y-92482804D01*
X153789891Y-92567195D01*
X153811732Y-92648710D01*
X153853923Y-92721787D01*
X153853925Y-92721789D01*
X153853927Y-92721792D01*
X153913599Y-92781464D01*
X153913601Y-92781465D01*
X153913603Y-92781467D01*
X153986680Y-92823658D01*
X153986682Y-92823659D01*
X154068196Y-92845500D01*
X154068197Y-92845500D01*
X154152585Y-92845500D01*
X154152586Y-92845500D01*
X154234100Y-92823659D01*
X154307183Y-92781464D01*
X154366855Y-92721792D01*
X154409050Y-92648709D01*
X154430891Y-92567195D01*
X154430891Y-92482805D01*
X154409050Y-92401291D01*
X154409049Y-92401289D01*
X154366858Y-92328212D01*
X154366856Y-92328210D01*
X154366855Y-92328208D01*
X154307183Y-92268536D01*
X154307180Y-92268534D01*
X154307178Y-92268532D01*
X154234101Y-92226341D01*
X154152586Y-92204500D01*
X154068196Y-92204500D01*
X154068195Y-92204500D01*
X153986680Y-92226341D01*
X153913603Y-92268532D01*
X153913601Y-92268534D01*
X153913599Y-92268536D01*
X153853927Y-92328208D01*
X153853925Y-92328210D01*
X153853925Y-92328211D01*
X153853923Y-92328212D01*
X153811732Y-92401289D01*
X153789891Y-92482804D01*
X152964540Y-92482804D01*
X152982172Y-92452266D01*
X152998658Y-92423710D01*
X152998659Y-92423709D01*
X153020500Y-92342195D01*
X153020500Y-92257805D01*
X152998659Y-92176291D01*
X152998658Y-92176289D01*
X152956467Y-92103212D01*
X152956465Y-92103210D01*
X152956464Y-92103208D01*
X152954353Y-92101097D01*
X152938538Y-92062915D01*
X152954354Y-92024731D01*
X152978561Y-92010755D01*
X153023709Y-91998659D01*
X153096792Y-91956464D01*
X153156464Y-91896792D01*
X153198659Y-91823709D01*
X153220500Y-91742195D01*
X153220500Y-91657805D01*
X153198659Y-91576291D01*
X153198658Y-91576289D01*
X153156467Y-91503212D01*
X153156465Y-91503210D01*
X153156464Y-91503208D01*
X153096792Y-91443536D01*
X153096789Y-91443534D01*
X153096787Y-91443532D01*
X153023708Y-91401340D01*
X153020439Y-91399986D01*
X153021284Y-91397943D01*
X152993994Y-91377032D01*
X152988571Y-91336059D01*
X153013709Y-91303253D01*
X153020598Y-91300399D01*
X153020439Y-91300014D01*
X153023706Y-91298659D01*
X153023709Y-91298659D01*
X153094468Y-91257806D01*
X153096787Y-91256467D01*
X153096789Y-91256466D01*
X153096789Y-91256465D01*
X153096792Y-91256464D01*
X153156464Y-91196792D01*
X153198659Y-91123709D01*
X153220500Y-91042195D01*
X153220500Y-90957805D01*
X153198659Y-90876291D01*
X153198658Y-90876289D01*
X153156467Y-90803212D01*
X153156465Y-90803210D01*
X153156464Y-90803208D01*
X153096792Y-90743536D01*
X153096789Y-90743534D01*
X153096787Y-90743532D01*
X153023710Y-90701341D01*
X152942195Y-90679500D01*
X152857805Y-90679500D01*
X152857804Y-90679500D01*
X152776289Y-90701341D01*
X152703212Y-90743532D01*
X152703210Y-90743534D01*
X152703208Y-90743536D01*
X152643536Y-90803208D01*
X152643534Y-90803210D01*
X152643534Y-90803211D01*
X152643532Y-90803212D01*
X152601340Y-90876291D01*
X152599986Y-90879561D01*
X152597952Y-90878718D01*
X152577000Y-90906024D01*
X152536023Y-90911418D01*
X152503234Y-90886258D01*
X152500394Y-90879403D01*
X152500014Y-90879561D01*
X152498659Y-90876291D01*
X152456467Y-90803212D01*
X152456465Y-90803210D01*
X152456464Y-90803208D01*
X152396792Y-90743536D01*
X152396789Y-90743534D01*
X152396787Y-90743532D01*
X152323710Y-90701341D01*
X152242195Y-90679500D01*
X152157805Y-90679500D01*
X152157804Y-90679500D01*
X152076289Y-90701341D01*
X152003212Y-90743532D01*
X152003210Y-90743534D01*
X152003208Y-90743536D01*
X151943536Y-90803208D01*
X151943534Y-90803210D01*
X151943534Y-90803211D01*
X151943532Y-90803212D01*
X151901341Y-90876289D01*
X151879500Y-90957804D01*
X148086500Y-90957804D01*
X148086500Y-90375117D01*
X154931105Y-90375117D01*
X154931105Y-90459508D01*
X154952946Y-90541023D01*
X154995137Y-90614100D01*
X154995139Y-90614102D01*
X154995141Y-90614105D01*
X155054813Y-90673777D01*
X155054815Y-90673778D01*
X155054817Y-90673780D01*
X155127894Y-90715971D01*
X155127896Y-90715972D01*
X155209410Y-90737813D01*
X155209411Y-90737813D01*
X155293799Y-90737813D01*
X155293800Y-90737813D01*
X155375314Y-90715972D01*
X155448397Y-90673777D01*
X155508069Y-90614105D01*
X155550264Y-90541022D01*
X155572105Y-90459508D01*
X155572105Y-90375118D01*
X155550264Y-90293604D01*
X155550263Y-90293602D01*
X155508072Y-90220525D01*
X155508070Y-90220523D01*
X155508069Y-90220521D01*
X155448397Y-90160849D01*
X155448394Y-90160847D01*
X155448392Y-90160845D01*
X155375315Y-90118654D01*
X155293800Y-90096813D01*
X155209410Y-90096813D01*
X155209409Y-90096813D01*
X155127894Y-90118654D01*
X155054817Y-90160845D01*
X155054815Y-90160847D01*
X155054813Y-90160849D01*
X154995141Y-90220521D01*
X154995139Y-90220523D01*
X154995139Y-90220524D01*
X154995137Y-90220525D01*
X154952946Y-90293602D01*
X154931105Y-90375117D01*
X148086500Y-90375117D01*
X148086500Y-89837804D01*
X150279500Y-89837804D01*
X150279500Y-89922195D01*
X150301341Y-90003710D01*
X150343532Y-90076787D01*
X150343534Y-90076789D01*
X150343536Y-90076792D01*
X150403208Y-90136464D01*
X150403210Y-90136465D01*
X150403212Y-90136467D01*
X150467407Y-90173530D01*
X150476291Y-90178659D01*
X150557805Y-90200500D01*
X150557806Y-90200500D01*
X150642194Y-90200500D01*
X150642195Y-90200500D01*
X150723709Y-90178659D01*
X150796792Y-90136464D01*
X150856464Y-90076792D01*
X150898659Y-90003709D01*
X150920500Y-89922195D01*
X150920500Y-89854268D01*
X153878564Y-89854268D01*
X153878564Y-89938659D01*
X153900405Y-90020174D01*
X153942596Y-90093251D01*
X153942598Y-90093253D01*
X153942600Y-90093256D01*
X154002272Y-90152928D01*
X154002274Y-90152929D01*
X154002276Y-90152931D01*
X154075353Y-90195122D01*
X154075355Y-90195123D01*
X154156869Y-90216964D01*
X154156870Y-90216964D01*
X154241258Y-90216964D01*
X154241259Y-90216964D01*
X154322773Y-90195123D01*
X154395856Y-90152928D01*
X154455528Y-90093256D01*
X154497723Y-90020173D01*
X154519564Y-89938659D01*
X154519564Y-89854269D01*
X154497723Y-89772755D01*
X154497722Y-89772753D01*
X154455531Y-89699676D01*
X154455529Y-89699674D01*
X154455528Y-89699672D01*
X154395856Y-89640000D01*
X154395853Y-89639998D01*
X154395851Y-89639996D01*
X154322774Y-89597805D01*
X154241259Y-89575964D01*
X154156869Y-89575964D01*
X154156868Y-89575964D01*
X154075353Y-89597805D01*
X154002276Y-89639996D01*
X154002274Y-89639998D01*
X154002272Y-89640000D01*
X153942600Y-89699672D01*
X153942598Y-89699674D01*
X153942598Y-89699675D01*
X153942596Y-89699676D01*
X153900405Y-89772753D01*
X153878564Y-89854268D01*
X150920500Y-89854268D01*
X150920500Y-89837805D01*
X150898659Y-89756291D01*
X150865972Y-89699676D01*
X150856467Y-89683212D01*
X150856465Y-89683210D01*
X150856464Y-89683208D01*
X150796792Y-89623536D01*
X150796789Y-89623534D01*
X150796787Y-89623532D01*
X150723710Y-89581341D01*
X150642195Y-89559500D01*
X150557805Y-89559500D01*
X150557804Y-89559500D01*
X150476289Y-89581341D01*
X150403212Y-89623532D01*
X150403210Y-89623534D01*
X150403208Y-89623536D01*
X150343536Y-89683208D01*
X150343534Y-89683210D01*
X150343534Y-89683211D01*
X150343532Y-89683212D01*
X150301341Y-89756289D01*
X150279500Y-89837804D01*
X148086500Y-89837804D01*
X148086500Y-86757804D01*
X151279500Y-86757804D01*
X151279500Y-86842195D01*
X151301341Y-86923710D01*
X151343532Y-86996787D01*
X151343534Y-86996789D01*
X151343536Y-86996792D01*
X151403208Y-87056464D01*
X151403210Y-87056465D01*
X151403212Y-87056467D01*
X151476289Y-87098658D01*
X151476291Y-87098659D01*
X151557805Y-87120500D01*
X151557806Y-87120500D01*
X151642194Y-87120500D01*
X151642195Y-87120500D01*
X151723709Y-87098659D01*
X151796792Y-87056464D01*
X151856464Y-86996792D01*
X151898659Y-86923709D01*
X151920500Y-86842195D01*
X151920500Y-86757805D01*
X151898659Y-86676291D01*
X151898658Y-86676289D01*
X151856467Y-86603212D01*
X151856465Y-86603210D01*
X151856464Y-86603208D01*
X151796792Y-86543536D01*
X151796789Y-86543534D01*
X151796787Y-86543532D01*
X151723710Y-86501341D01*
X151642195Y-86479500D01*
X151557805Y-86479500D01*
X151557804Y-86479500D01*
X151476289Y-86501341D01*
X151403212Y-86543532D01*
X151403210Y-86543534D01*
X151403208Y-86543536D01*
X151343536Y-86603208D01*
X151343534Y-86603210D01*
X151343534Y-86603211D01*
X151343532Y-86603212D01*
X151301341Y-86676289D01*
X151279500Y-86757804D01*
X148086500Y-86757804D01*
X148086500Y-84676335D01*
X148086500Y-84676333D01*
X148061304Y-84615507D01*
X147483601Y-84037804D01*
X152079500Y-84037804D01*
X152079500Y-84122195D01*
X152101341Y-84203710D01*
X152143532Y-84276787D01*
X152143534Y-84276789D01*
X152143536Y-84276792D01*
X152203208Y-84336464D01*
X152203210Y-84336465D01*
X152203212Y-84336467D01*
X152276289Y-84378658D01*
X152276291Y-84378659D01*
X152357805Y-84400500D01*
X152357806Y-84400500D01*
X152442194Y-84400500D01*
X152442195Y-84400500D01*
X152523709Y-84378659D01*
X152596792Y-84336464D01*
X152596791Y-84336464D01*
X152598500Y-84335478D01*
X152639476Y-84330083D01*
X152672265Y-84355243D01*
X152679500Y-84382243D01*
X152679500Y-84393195D01*
X152701341Y-84474710D01*
X152743532Y-84547787D01*
X152743534Y-84547789D01*
X152743536Y-84547792D01*
X152803208Y-84607464D01*
X152803210Y-84607465D01*
X152803212Y-84607467D01*
X152876289Y-84649658D01*
X152876291Y-84649659D01*
X152957805Y-84671500D01*
X152957806Y-84671500D01*
X153042194Y-84671500D01*
X153042195Y-84671500D01*
X153123709Y-84649659D01*
X153196792Y-84607464D01*
X153256464Y-84547792D01*
X153298659Y-84474709D01*
X153320500Y-84393195D01*
X153320500Y-84308805D01*
X153298659Y-84227291D01*
X153298658Y-84227289D01*
X153256467Y-84154212D01*
X153256465Y-84154210D01*
X153256464Y-84154208D01*
X153196792Y-84094536D01*
X153196789Y-84094534D01*
X153196787Y-84094532D01*
X153123710Y-84052341D01*
X153042195Y-84030500D01*
X152957805Y-84030500D01*
X152957804Y-84030500D01*
X152876289Y-84052341D01*
X152801500Y-84095521D01*
X152760524Y-84100916D01*
X152727735Y-84075756D01*
X152720500Y-84048756D01*
X152720500Y-84037806D01*
X152720500Y-84037805D01*
X152698659Y-83956291D01*
X152681353Y-83926316D01*
X152656467Y-83883212D01*
X152656465Y-83883210D01*
X152656464Y-83883208D01*
X152596792Y-83823536D01*
X152596789Y-83823534D01*
X152596787Y-83823532D01*
X152523710Y-83781341D01*
X152442195Y-83759500D01*
X152357805Y-83759500D01*
X152357804Y-83759500D01*
X152276289Y-83781341D01*
X152203212Y-83823532D01*
X152203210Y-83823534D01*
X152203208Y-83823536D01*
X152143536Y-83883208D01*
X152143534Y-83883210D01*
X152143534Y-83883211D01*
X152143532Y-83883212D01*
X152101341Y-83956289D01*
X152079500Y-84037804D01*
X147483601Y-84037804D01*
X146328601Y-82882804D01*
X149179500Y-82882804D01*
X149179500Y-82967195D01*
X149201341Y-83048710D01*
X149243532Y-83121787D01*
X149243534Y-83121789D01*
X149243536Y-83121792D01*
X149303208Y-83181464D01*
X149303210Y-83181465D01*
X149303212Y-83181467D01*
X149376289Y-83223658D01*
X149376291Y-83223659D01*
X149457805Y-83245500D01*
X149457806Y-83245500D01*
X149542194Y-83245500D01*
X149542195Y-83245500D01*
X149623709Y-83223659D01*
X149696792Y-83181464D01*
X149756464Y-83121792D01*
X149798659Y-83048709D01*
X149820500Y-82967195D01*
X149820500Y-82882805D01*
X149798659Y-82801291D01*
X149796248Y-82797115D01*
X149756467Y-82728212D01*
X149756465Y-82728210D01*
X149756464Y-82728208D01*
X149696792Y-82668536D01*
X149696789Y-82668534D01*
X149696787Y-82668532D01*
X149623710Y-82626341D01*
X149542195Y-82604500D01*
X149457805Y-82604500D01*
X149457804Y-82604500D01*
X149376289Y-82626341D01*
X149303212Y-82668532D01*
X149303210Y-82668534D01*
X149303208Y-82668536D01*
X149243536Y-82728208D01*
X149243534Y-82728210D01*
X149243534Y-82728211D01*
X149243532Y-82728212D01*
X149201341Y-82801289D01*
X149179500Y-82882804D01*
X146328601Y-82882804D01*
X146156316Y-82710519D01*
X146140500Y-82672335D01*
X146140500Y-82631211D01*
X146140500Y-82631210D01*
X146118659Y-82549696D01*
X146103656Y-82523710D01*
X146076467Y-82476617D01*
X146076465Y-82476615D01*
X146076464Y-82476613D01*
X146016792Y-82416941D01*
X146016789Y-82416939D01*
X146016787Y-82416937D01*
X145943710Y-82374746D01*
X145862195Y-82352905D01*
X145777805Y-82352905D01*
X145777804Y-82352905D01*
X145696289Y-82374746D01*
X145623212Y-82416937D01*
X145623210Y-82416939D01*
X145623208Y-82416941D01*
X145563536Y-82476613D01*
X145563534Y-82476615D01*
X145563534Y-82476616D01*
X145563532Y-82476617D01*
X145521341Y-82549694D01*
X145499500Y-82631209D01*
X145499500Y-82715600D01*
X145521341Y-82797115D01*
X145563532Y-82870192D01*
X145563534Y-82870194D01*
X145563536Y-82870197D01*
X145621858Y-82928519D01*
X145637674Y-82966702D01*
X145624192Y-82999249D01*
X145625691Y-83000399D01*
X145623534Y-83003209D01*
X145581341Y-83076289D01*
X145559500Y-83157804D01*
X145559500Y-83242195D01*
X145581341Y-83323710D01*
X145623532Y-83396787D01*
X145623534Y-83396789D01*
X145623536Y-83396792D01*
X145658347Y-83431603D01*
X145674163Y-83469786D01*
X145658347Y-83507968D01*
X145623536Y-83542780D01*
X145623534Y-83542782D01*
X145623534Y-83542783D01*
X145623532Y-83542784D01*
X145581341Y-83615861D01*
X145559500Y-83697376D01*
X145559500Y-83781767D01*
X145581341Y-83863282D01*
X145623532Y-83936359D01*
X145623534Y-83936361D01*
X145623536Y-83936364D01*
X145683208Y-83996036D01*
X145683210Y-83996037D01*
X145683212Y-83996039D01*
X145755551Y-84037804D01*
X145756291Y-84038231D01*
X145837805Y-84060072D01*
X145837806Y-84060072D01*
X145922194Y-84060072D01*
X145922195Y-84060072D01*
X146003709Y-84038231D01*
X146076792Y-83996036D01*
X146106204Y-83966623D01*
X146144386Y-83950807D01*
X146182570Y-83966623D01*
X146182571Y-83966623D01*
X147297684Y-85081736D01*
X147313500Y-85119920D01*
X147313500Y-93030080D01*
X147297684Y-93068264D01*
X146382684Y-93983264D01*
X146344500Y-93999080D01*
X146306316Y-93983264D01*
X146290500Y-93945080D01*
X146290500Y-93584871D01*
X146290499Y-93584866D01*
X146267040Y-93466927D01*
X146267037Y-93466918D01*
X146221021Y-93355828D01*
X146221018Y-93355820D01*
X146154206Y-93255829D01*
X146069171Y-93170794D01*
X146019175Y-93137388D01*
X145969185Y-93103985D01*
X145969182Y-93103983D01*
X145969180Y-93103982D01*
X145969174Y-93103979D01*
X145969171Y-93103978D01*
X145858081Y-93057962D01*
X145858072Y-93057959D01*
X145740133Y-93034500D01*
X145740129Y-93034500D01*
X145619871Y-93034500D01*
X145619866Y-93034500D01*
X145501927Y-93057959D01*
X145501918Y-93057962D01*
X145390828Y-93103978D01*
X145390814Y-93103985D01*
X145290833Y-93170791D01*
X145290825Y-93170797D01*
X145205797Y-93255825D01*
X145205791Y-93255833D01*
X145138985Y-93355814D01*
X145138978Y-93355828D01*
X145092962Y-93466918D01*
X145092959Y-93466927D01*
X145069500Y-93584866D01*
X145069500Y-94805133D01*
X145092959Y-94923072D01*
X145099130Y-94937969D01*
X145099129Y-94979299D01*
X145069905Y-95008524D01*
X145028575Y-95008523D01*
X145007874Y-94993345D01*
X144981908Y-94962400D01*
X144952482Y-94927331D01*
X144946943Y-94923081D01*
X144839452Y-94840600D01*
X144710329Y-94780390D01*
X144710328Y-94780389D01*
X144571237Y-94749553D01*
X144571233Y-94749552D01*
X144555329Y-94749541D01*
X144554917Y-94749500D01*
X144549828Y-94749500D01*
X143804500Y-94749500D01*
X143766316Y-94733684D01*
X143750500Y-94695500D01*
X143750500Y-91257804D01*
X144750500Y-91257804D01*
X144750500Y-91342195D01*
X144772341Y-91423710D01*
X144814532Y-91496787D01*
X144814534Y-91496789D01*
X144814536Y-91496792D01*
X144859461Y-91541717D01*
X144875277Y-91579900D01*
X144859462Y-91618083D01*
X144845223Y-91632322D01*
X144803030Y-91705402D01*
X144781189Y-91786917D01*
X144781189Y-91871308D01*
X144803030Y-91952823D01*
X144845221Y-92025900D01*
X144845223Y-92025902D01*
X144845225Y-92025905D01*
X144904897Y-92085577D01*
X144904899Y-92085578D01*
X144904901Y-92085580D01*
X144935441Y-92103212D01*
X144977980Y-92127772D01*
X145059494Y-92149613D01*
X145059495Y-92149613D01*
X145143883Y-92149613D01*
X145143884Y-92149613D01*
X145225398Y-92127772D01*
X145298481Y-92085577D01*
X145358153Y-92025905D01*
X145400348Y-91952822D01*
X145422189Y-91871308D01*
X145422189Y-91786918D01*
X145400348Y-91705404D01*
X145372867Y-91657806D01*
X145358156Y-91632325D01*
X145358154Y-91632323D01*
X145358153Y-91632321D01*
X145313225Y-91587393D01*
X145297410Y-91549211D01*
X145313224Y-91511031D01*
X145327464Y-91496792D01*
X145369659Y-91423709D01*
X145391500Y-91342195D01*
X145391500Y-91257805D01*
X145369659Y-91176291D01*
X145369658Y-91176289D01*
X145327467Y-91103212D01*
X145327465Y-91103210D01*
X145327464Y-91103208D01*
X145267792Y-91043536D01*
X145267789Y-91043534D01*
X145267787Y-91043532D01*
X145194710Y-91001341D01*
X145113195Y-90979500D01*
X145028805Y-90979500D01*
X145028804Y-90979500D01*
X144947289Y-91001341D01*
X144874212Y-91043532D01*
X144874210Y-91043534D01*
X144874208Y-91043536D01*
X144814536Y-91103208D01*
X144814534Y-91103210D01*
X144814534Y-91103211D01*
X144814532Y-91103212D01*
X144772341Y-91176289D01*
X144750500Y-91257804D01*
X143750500Y-91257804D01*
X143750500Y-88261746D01*
X144699211Y-88261746D01*
X144699211Y-88346137D01*
X144721052Y-88427652D01*
X144763243Y-88500729D01*
X144763245Y-88500731D01*
X144763247Y-88500734D01*
X144822919Y-88560406D01*
X144822921Y-88560407D01*
X144822923Y-88560409D01*
X144875013Y-88590483D01*
X144896002Y-88602601D01*
X144977516Y-88624442D01*
X144977517Y-88624442D01*
X145061904Y-88624442D01*
X145061906Y-88624442D01*
X145066689Y-88623160D01*
X145107664Y-88628551D01*
X145118852Y-88637135D01*
X145218684Y-88736967D01*
X145234500Y-88775151D01*
X145234500Y-90192922D01*
X145259695Y-90253748D01*
X145336803Y-90330856D01*
X145352619Y-90369040D01*
X145350781Y-90383010D01*
X145349497Y-90387803D01*
X145349497Y-90472193D01*
X145371338Y-90553708D01*
X145413529Y-90626785D01*
X145413531Y-90626787D01*
X145413533Y-90626790D01*
X145473205Y-90686462D01*
X145473207Y-90686463D01*
X145473209Y-90686465D01*
X145524315Y-90715971D01*
X145546288Y-90728657D01*
X145627802Y-90750498D01*
X145627803Y-90750498D01*
X145712191Y-90750498D01*
X145712192Y-90750498D01*
X145793706Y-90728657D01*
X145866789Y-90686462D01*
X145896815Y-90656435D01*
X145934997Y-90640619D01*
X145973181Y-90656435D01*
X146003208Y-90686462D01*
X146003210Y-90686463D01*
X146003212Y-90686465D01*
X146054318Y-90715971D01*
X146076291Y-90728657D01*
X146157805Y-90750498D01*
X146157806Y-90750498D01*
X146242194Y-90750498D01*
X146242195Y-90750498D01*
X146323709Y-90728657D01*
X146396792Y-90686462D01*
X146456464Y-90626790D01*
X146498659Y-90553707D01*
X146520500Y-90472193D01*
X146520500Y-90387803D01*
X146498659Y-90306289D01*
X146468325Y-90253749D01*
X146456467Y-90233210D01*
X146456465Y-90233208D01*
X146456464Y-90233206D01*
X146396792Y-90173534D01*
X146396789Y-90173532D01*
X146396787Y-90173530D01*
X146323710Y-90131339D01*
X146242195Y-90109498D01*
X146157805Y-90109498D01*
X146157804Y-90109498D01*
X146076289Y-90131339D01*
X146003212Y-90173530D01*
X146003206Y-90173535D01*
X145973181Y-90203560D01*
X145934997Y-90219376D01*
X145896815Y-90203560D01*
X145866789Y-90173534D01*
X145866786Y-90173532D01*
X145866784Y-90173530D01*
X145793707Y-90131339D01*
X145712192Y-90109498D01*
X145627802Y-90109498D01*
X145627801Y-90109498D01*
X145626548Y-90109663D01*
X145625932Y-90109498D01*
X145624263Y-90109498D01*
X145624263Y-90109050D01*
X145586626Y-90098966D01*
X145565962Y-90063173D01*
X145565500Y-90056125D01*
X145565500Y-88651309D01*
X145540304Y-88590483D01*
X145352904Y-88403083D01*
X145337088Y-88364899D01*
X145338928Y-88350924D01*
X145340211Y-88346137D01*
X145340211Y-88261747D01*
X145318370Y-88180233D01*
X145318369Y-88180231D01*
X145276178Y-88107154D01*
X145276176Y-88107152D01*
X145276175Y-88107150D01*
X145216503Y-88047478D01*
X145216500Y-88047476D01*
X145216498Y-88047474D01*
X145143421Y-88005283D01*
X145061906Y-87983442D01*
X144977516Y-87983442D01*
X144977515Y-87983442D01*
X144896000Y-88005283D01*
X144822923Y-88047474D01*
X144822921Y-88047476D01*
X144822919Y-88047478D01*
X144763247Y-88107150D01*
X144763245Y-88107152D01*
X144763245Y-88107153D01*
X144763243Y-88107154D01*
X144721052Y-88180231D01*
X144699211Y-88261746D01*
X143750500Y-88261746D01*
X143750500Y-85803681D01*
X143766316Y-85765497D01*
X143804500Y-85749681D01*
X143842684Y-85765497D01*
X143856660Y-85789705D01*
X143865771Y-85823710D01*
X143907962Y-85896787D01*
X143907964Y-85896789D01*
X143907966Y-85896792D01*
X143967638Y-85956464D01*
X143967640Y-85956465D01*
X143967642Y-85956467D01*
X144040719Y-85998658D01*
X144040721Y-85998659D01*
X144122235Y-86020500D01*
X144122236Y-86020500D01*
X144206624Y-86020500D01*
X144206625Y-86020500D01*
X144288139Y-85998659D01*
X144361222Y-85956464D01*
X144420894Y-85896792D01*
X144463089Y-85823709D01*
X144484930Y-85742195D01*
X144484930Y-85657805D01*
X144463089Y-85576291D01*
X144463088Y-85576289D01*
X144420897Y-85503212D01*
X144420895Y-85503210D01*
X144420894Y-85503208D01*
X144361222Y-85443536D01*
X144361219Y-85443534D01*
X144361217Y-85443532D01*
X144288140Y-85401341D01*
X144206625Y-85379500D01*
X144122235Y-85379500D01*
X144122234Y-85379500D01*
X144040719Y-85401341D01*
X143967642Y-85443532D01*
X143967640Y-85443534D01*
X143967638Y-85443536D01*
X143907966Y-85503208D01*
X143907964Y-85503210D01*
X143907964Y-85503211D01*
X143907962Y-85503212D01*
X143865771Y-85576290D01*
X143856660Y-85610294D01*
X143831500Y-85643083D01*
X143790524Y-85648478D01*
X143757735Y-85623318D01*
X143750500Y-85596318D01*
X143750500Y-82702243D01*
X143766316Y-82664059D01*
X143804500Y-82648243D01*
X143831500Y-82655478D01*
X143833208Y-82656464D01*
X143906291Y-82698659D01*
X143987805Y-82720500D01*
X143987806Y-82720500D01*
X144072194Y-82720500D01*
X144072195Y-82720500D01*
X144153709Y-82698659D01*
X144226792Y-82656464D01*
X144286464Y-82596792D01*
X144328659Y-82523709D01*
X144350500Y-82442195D01*
X144350500Y-82357805D01*
X144328659Y-82276291D01*
X144327168Y-82273709D01*
X144286467Y-82203212D01*
X144286465Y-82203210D01*
X144286464Y-82203208D01*
X144226792Y-82143536D01*
X144226789Y-82143534D01*
X144226787Y-82143532D01*
X144153710Y-82101341D01*
X144072195Y-82079500D01*
X143987805Y-82079500D01*
X143987804Y-82079500D01*
X143906289Y-82101341D01*
X143831500Y-82144521D01*
X143790524Y-82149916D01*
X143757735Y-82124756D01*
X143750500Y-82097756D01*
X143750500Y-82057804D01*
X146479500Y-82057804D01*
X146479500Y-82142195D01*
X146501341Y-82223710D01*
X146543532Y-82296787D01*
X146543534Y-82296789D01*
X146543536Y-82296792D01*
X146603208Y-82356464D01*
X146603210Y-82356465D01*
X146603212Y-82356467D01*
X146676289Y-82398658D01*
X146676291Y-82398659D01*
X146757805Y-82420500D01*
X146757806Y-82420500D01*
X146842194Y-82420500D01*
X146842195Y-82420500D01*
X146923709Y-82398659D01*
X146994468Y-82357806D01*
X146996787Y-82356467D01*
X146996789Y-82356466D01*
X146996789Y-82356465D01*
X146996792Y-82356464D01*
X147056464Y-82296792D01*
X147098659Y-82223709D01*
X147120500Y-82142195D01*
X147120500Y-82057805D01*
X147098659Y-81976291D01*
X147085332Y-81953208D01*
X147056467Y-81903212D01*
X147056465Y-81903210D01*
X147056464Y-81903208D01*
X146996792Y-81843536D01*
X146996789Y-81843534D01*
X146996787Y-81843532D01*
X146923710Y-81801341D01*
X146842195Y-81779500D01*
X146757805Y-81779500D01*
X146757804Y-81779500D01*
X146676289Y-81801341D01*
X146603212Y-81843532D01*
X146603210Y-81843534D01*
X146603208Y-81843536D01*
X146543536Y-81903208D01*
X146543534Y-81903210D01*
X146543534Y-81903211D01*
X146543532Y-81903212D01*
X146501341Y-81976289D01*
X146479500Y-82057804D01*
X143750500Y-82057804D01*
X143750500Y-81557804D01*
X148329500Y-81557804D01*
X148329500Y-81642195D01*
X148351341Y-81723710D01*
X148393532Y-81796787D01*
X148393534Y-81796789D01*
X148393536Y-81796792D01*
X148433561Y-81836817D01*
X148449377Y-81875000D01*
X148433561Y-81913182D01*
X148393536Y-81953208D01*
X148393534Y-81953210D01*
X148393534Y-81953211D01*
X148393532Y-81953212D01*
X148351341Y-82026289D01*
X148329500Y-82107804D01*
X148329500Y-82192195D01*
X148351341Y-82273710D01*
X148393532Y-82346787D01*
X148393534Y-82346789D01*
X148393536Y-82346792D01*
X148453208Y-82406464D01*
X148453210Y-82406465D01*
X148453212Y-82406467D01*
X148515093Y-82442194D01*
X148526291Y-82448659D01*
X148607805Y-82470500D01*
X148607806Y-82470500D01*
X148692194Y-82470500D01*
X148692195Y-82470500D01*
X148773709Y-82448659D01*
X148846792Y-82406464D01*
X148906464Y-82346792D01*
X148948659Y-82273709D01*
X148954580Y-82251609D01*
X148979739Y-82218820D01*
X149020715Y-82213425D01*
X149020716Y-82213425D01*
X149047121Y-82220500D01*
X149047122Y-82220500D01*
X149131510Y-82220500D01*
X149131511Y-82220500D01*
X149213025Y-82198659D01*
X149286108Y-82156464D01*
X149345780Y-82096792D01*
X149387975Y-82023709D01*
X149409816Y-81942195D01*
X149409816Y-81857805D01*
X149387975Y-81776291D01*
X149387974Y-81776289D01*
X149345783Y-81703212D01*
X149345781Y-81703210D01*
X149345780Y-81703208D01*
X149286108Y-81643536D01*
X149286105Y-81643534D01*
X149286103Y-81643532D01*
X149213026Y-81601341D01*
X149131511Y-81579500D01*
X149047121Y-81579500D01*
X149033214Y-81583226D01*
X148992238Y-81577829D01*
X148967080Y-81545041D01*
X148948658Y-81476289D01*
X148906467Y-81403212D01*
X148906465Y-81403210D01*
X148906464Y-81403208D01*
X148846792Y-81343536D01*
X148846789Y-81343534D01*
X148846787Y-81343532D01*
X148773710Y-81301341D01*
X148692195Y-81279500D01*
X148607805Y-81279500D01*
X148607804Y-81279500D01*
X148526289Y-81301341D01*
X148453212Y-81343532D01*
X148453210Y-81343534D01*
X148453208Y-81343536D01*
X148393536Y-81403208D01*
X148393534Y-81403210D01*
X148393534Y-81403211D01*
X148393532Y-81403212D01*
X148351341Y-81476289D01*
X148329500Y-81557804D01*
X143750500Y-81557804D01*
X143750500Y-81014500D01*
X143753274Y-81007804D01*
X146379500Y-81007804D01*
X146379500Y-81092195D01*
X146401341Y-81173710D01*
X146443532Y-81246787D01*
X146443534Y-81246789D01*
X146443536Y-81246792D01*
X146503208Y-81306464D01*
X146503210Y-81306465D01*
X146503212Y-81306467D01*
X146576289Y-81348658D01*
X146576291Y-81348659D01*
X146657805Y-81370500D01*
X146657806Y-81370500D01*
X146742194Y-81370500D01*
X146742195Y-81370500D01*
X146823709Y-81348659D01*
X146896792Y-81306464D01*
X146956464Y-81246792D01*
X146998659Y-81173709D01*
X147020500Y-81092195D01*
X147020500Y-81007805D01*
X146998659Y-80926291D01*
X146997099Y-80923589D01*
X146956227Y-80852796D01*
X146950832Y-80811820D01*
X146963489Y-80789899D01*
X146963311Y-80789763D01*
X146964350Y-80788407D01*
X146964811Y-80787610D01*
X146965464Y-80786958D01*
X147007659Y-80713875D01*
X147029500Y-80632361D01*
X147029500Y-80547971D01*
X147007659Y-80466457D01*
X147001020Y-80454958D01*
X146965467Y-80393378D01*
X146965465Y-80393376D01*
X146965464Y-80393374D01*
X146905792Y-80333702D01*
X146905789Y-80333700D01*
X146905787Y-80333698D01*
X146832710Y-80291507D01*
X146751195Y-80269666D01*
X146666805Y-80269666D01*
X146666804Y-80269666D01*
X146585289Y-80291507D01*
X146512212Y-80333698D01*
X146512210Y-80333700D01*
X146512208Y-80333702D01*
X146452536Y-80393374D01*
X146452534Y-80393376D01*
X146452534Y-80393377D01*
X146452532Y-80393378D01*
X146410341Y-80466455D01*
X146388500Y-80547970D01*
X146388500Y-80632361D01*
X146410341Y-80713876D01*
X146452772Y-80787369D01*
X146458167Y-80828345D01*
X146445512Y-80850267D01*
X146445689Y-80850403D01*
X146444662Y-80851740D01*
X146444197Y-80852547D01*
X146443536Y-80853207D01*
X146443532Y-80853212D01*
X146401341Y-80926289D01*
X146379500Y-81007804D01*
X143753274Y-81007804D01*
X143766316Y-80976316D01*
X143804500Y-80960500D01*
X145194601Y-80960500D01*
X145208574Y-80957720D01*
X145240834Y-80951304D01*
X145380162Y-80923589D01*
X145380162Y-80923588D01*
X145380167Y-80923588D01*
X145554967Y-80851184D01*
X145712283Y-80746069D01*
X145846069Y-80612283D01*
X145951184Y-80454967D01*
X146023588Y-80280167D01*
X146060500Y-80094601D01*
X146060500Y-79905399D01*
X146023588Y-79719833D01*
X145951184Y-79545033D01*
X145846069Y-79387717D01*
X145712283Y-79253931D01*
X145554967Y-79148816D01*
X145554965Y-79148815D01*
X145554958Y-79148812D01*
X145433075Y-79098326D01*
X145403850Y-79069102D01*
X145403851Y-79027772D01*
X145433075Y-78998547D01*
X145597361Y-78930497D01*
X145769335Y-78815589D01*
X145769336Y-78815588D01*
X145915587Y-78669338D01*
X145915592Y-78669331D01*
X146028734Y-78500000D01*
X145065826Y-78500000D01*
X145192993Y-78465925D01*
X145307007Y-78400099D01*
X145400099Y-78307007D01*
X145411835Y-78286679D01*
X146309500Y-78286679D01*
X146309500Y-78371070D01*
X146331341Y-78452585D01*
X146373532Y-78525662D01*
X146373534Y-78525664D01*
X146373536Y-78525667D01*
X146433208Y-78585339D01*
X146433210Y-78585340D01*
X146433212Y-78585342D01*
X146506289Y-78627533D01*
X146506291Y-78627534D01*
X146587805Y-78649375D01*
X146587806Y-78649375D01*
X146672194Y-78649375D01*
X146672195Y-78649375D01*
X146753709Y-78627534D01*
X146826792Y-78585339D01*
X146886464Y-78525667D01*
X146928659Y-78452584D01*
X146950500Y-78371070D01*
X146950500Y-78286680D01*
X146928659Y-78205166D01*
X146921631Y-78192993D01*
X146886467Y-78132087D01*
X146886465Y-78132085D01*
X146886464Y-78132083D01*
X146826792Y-78072411D01*
X146826789Y-78072409D01*
X146826787Y-78072407D01*
X146753710Y-78030216D01*
X146672195Y-78008375D01*
X146587805Y-78008375D01*
X146587804Y-78008375D01*
X146506289Y-78030216D01*
X146433212Y-78072407D01*
X146433210Y-78072409D01*
X146433208Y-78072411D01*
X146373536Y-78132083D01*
X146373534Y-78132085D01*
X146373534Y-78132086D01*
X146373532Y-78132087D01*
X146331341Y-78205164D01*
X146309500Y-78286679D01*
X145411835Y-78286679D01*
X145465925Y-78192993D01*
X145500000Y-78065826D01*
X145500000Y-77934174D01*
X145465925Y-77807007D01*
X145400099Y-77692993D01*
X145307007Y-77599901D01*
X145192993Y-77534075D01*
X145065826Y-77500000D01*
X146028734Y-77500000D01*
X146028734Y-77499999D01*
X145915592Y-77330668D01*
X145915587Y-77330662D01*
X145769335Y-77184410D01*
X145641358Y-77098900D01*
X145618397Y-77064535D01*
X145626459Y-77023999D01*
X145660824Y-77001038D01*
X145671359Y-77000000D01*
X149946000Y-77000000D01*
X149984184Y-77015816D01*
G37*
%TD.AperFunction*%
%TA.AperFunction,Conductor*%
G36*
X144807007Y-77534075D02*
G01*
X144692993Y-77599901D01*
X144599901Y-77692993D01*
X144534075Y-77807007D01*
X144500000Y-77934174D01*
X144500000Y-78065826D01*
X144534075Y-78192993D01*
X144599901Y-78307007D01*
X144692993Y-78400099D01*
X144807007Y-78465925D01*
X144934174Y-78500000D01*
X144304000Y-78500000D01*
X144265816Y-78484184D01*
X144250000Y-78446000D01*
X144250000Y-77554000D01*
X144265816Y-77515816D01*
X144304000Y-77500000D01*
X144934174Y-77500000D01*
X144807007Y-77534075D01*
G37*
%TD.AperFunction*%
%TD*%
M02*
