%TF.GenerationSoftware,KiCad,Pcbnew,9.0.1*%
%TF.CreationDate,2025-07-17T15:45:22-04:00*%
%TF.ProjectId,flowstick_main_pcb,666c6f77-7374-4696-936b-5f6d61696e5f,rev?*%
%TF.SameCoordinates,Original*%
%TF.FileFunction,Copper,L3,Inr*%
%TF.FilePolarity,Positive*%
%FSLAX46Y46*%
G04 Gerber Fmt 4.6, Leading zero omitted, Abs format (unit mm)*
G04 Created by KiCad (PCBNEW 9.0.1) date 2025-07-17 15:45:22*
%MOMM*%
%LPD*%
G01*
G04 APERTURE LIST*
%TA.AperFunction,ComponentPad*%
%ADD10O,3.400000X1.700000*%
%TD*%
%TA.AperFunction,ComponentPad*%
%ADD11C,1.700000*%
%TD*%
%TA.AperFunction,HeatsinkPad*%
%ADD12O,1.000000X1.800000*%
%TD*%
%TA.AperFunction,HeatsinkPad*%
%ADD13O,1.000000X2.100000*%
%TD*%
%TA.AperFunction,ViaPad*%
%ADD14C,0.420000*%
%TD*%
%TA.AperFunction,Conductor*%
%ADD15C,0.110000*%
%TD*%
%TA.AperFunction,Conductor*%
%ADD16C,0.400000*%
%TD*%
%TA.AperFunction,Conductor*%
%ADD17C,1.000000*%
%TD*%
G04 APERTURE END LIST*
D10*
%TO.N,+BATT*%
%TO.C,BT1*%
X144250000Y-80000000D03*
D11*
X143500000Y-80000000D03*
D10*
%TO.N,GND*%
X144250000Y-78000000D03*
D11*
X143500000Y-78000000D03*
%TD*%
D12*
%TO.N,unconnected-(J1-SHIELD-PadS1)_1*%
%TO.C,J1*%
X154320000Y-98375000D03*
D13*
%TO.N,unconnected-(J1-SHIELD-PadS1)_3*%
X154320000Y-94195000D03*
D12*
%TO.N,unconnected-(J1-SHIELD-PadS1)_2*%
X145680000Y-98375000D03*
D13*
%TO.N,unconnected-(J1-SHIELD-PadS1)*%
X145680000Y-94195000D03*
%TD*%
D14*
%TO.N,Net-(D1A-K)*%
X146800000Y-82100000D03*
%TO.N,Net-(U1-GPIO0)*%
X152400000Y-84080000D03*
%TO.N,+3.3V*%
X149500000Y-82925000D03*
%TO.N,GND*%
X150000000Y-82725000D03*
X149630143Y-79286386D03*
X149098341Y-94507490D03*
X155200000Y-92500000D03*
X155300000Y-84300000D03*
X155800000Y-84300000D03*
X144100000Y-83900000D03*
X147069668Y-92600000D03*
X149200000Y-86700000D03*
X144100000Y-83200000D03*
X155270000Y-89870000D03*
X144500000Y-88200000D03*
X149900000Y-86700000D03*
X155200000Y-91000000D03*
X150200000Y-95600000D03*
X150700000Y-86700000D03*
X146515780Y-92600000D03*
X152950000Y-83601000D03*
X155200000Y-91500000D03*
X152519711Y-95403942D03*
X155200000Y-93000000D03*
X154897859Y-85915610D03*
X155200000Y-92000000D03*
X144100000Y-84600000D03*
X148400000Y-86700000D03*
X155399297Y-85900979D03*
%TO.N,+BATT*%
X152200000Y-91700000D03*
X152900000Y-91700000D03*
X152200000Y-91000000D03*
X147300000Y-96400000D03*
X152900000Y-91000000D03*
X152550000Y-91350000D03*
%TO.N,+3.3V*%
X149628319Y-94512579D03*
X148650000Y-82150000D03*
X150600000Y-89880000D03*
X149089316Y-81900000D03*
X148650000Y-81600000D03*
X153000000Y-84351000D03*
X146200000Y-90429998D03*
X151200000Y-95600000D03*
X144164430Y-85700000D03*
%TO.N,+5V*%
X151600000Y-86800000D03*
X155251605Y-90417313D03*
%TO.N,Net-(D1A-K)*%
X146630000Y-78328875D03*
X154199064Y-89896464D03*
%TO.N,/VREF*%
X145880000Y-83200000D03*
X147016042Y-95577958D03*
%TO.N,/BATT_MEASURE*%
X145880000Y-83739572D03*
X146200000Y-96400000D03*
%TO.N,/BATT_MEASURE_EN*%
X145019711Y-88303942D03*
X145669997Y-90429998D03*
%TO.N,/BUTTON*%
X148000000Y-95830003D03*
%TO.N,VBUS*%
X148000000Y-94800000D03*
X148000000Y-95300000D03*
X152000000Y-94800000D03*
X154110391Y-92525000D03*
X152000000Y-95300000D03*
X146709000Y-80590166D03*
X146700000Y-81050000D03*
%TO.N,/USBDM*%
X145101689Y-91829113D03*
X151125749Y-92727751D03*
%TO.N,Net-(J1-CC2)*%
X148518942Y-94484457D03*
%TO.N,Net-(J1-CC1)*%
X152700000Y-92300000D03*
%TO.N,/USBDP*%
X150595774Y-92733021D03*
X145071000Y-91300000D03*
%TO.N,/CHG_SENSE*%
X144030000Y-82400000D03*
%TO.N,/BUTTON*%
X145820000Y-82673405D03*
%TD*%
D15*
%TO.N,Net-(D1A-K)*%
X146630000Y-79796183D02*
X147700000Y-80866183D01*
X147700000Y-80866183D02*
X147700000Y-84000000D01*
X147700000Y-84000000D02*
X148800000Y-85100000D01*
X154196464Y-89896464D02*
X154199064Y-89896464D01*
X148800000Y-85100000D02*
X148800000Y-88300000D01*
X148800000Y-88300000D02*
X149700000Y-89200000D01*
X149700000Y-89200000D02*
X153500000Y-89200000D01*
X153500000Y-89200000D02*
X154196464Y-89896464D01*
D16*
%TO.N,VBUS*%
X146700000Y-81050000D02*
X146700000Y-81100000D01*
X147334000Y-81734000D02*
X147334000Y-85434000D01*
X146700000Y-81100000D02*
X147334000Y-81734000D01*
X147334000Y-85434000D02*
X147800000Y-85900000D01*
X153036806Y-90400000D02*
X153421000Y-90784194D01*
X147800000Y-85900000D02*
X147800000Y-88800000D01*
X147800000Y-88800000D02*
X149400000Y-90400000D01*
X149400000Y-90400000D02*
X153036806Y-90400000D01*
X153421000Y-90784194D02*
X153421000Y-92520000D01*
D15*
%TO.N,+5V*%
X155235166Y-90400874D02*
X155235166Y-90400821D01*
X155235166Y-90400821D02*
X151634345Y-86800000D01*
X155251605Y-90417313D02*
X155235166Y-90400874D01*
X151634345Y-86800000D02*
X151600000Y-86800000D01*
%TO.N,Net-(D1A-K)*%
X146630000Y-79796183D02*
X146300000Y-80126183D01*
X146300000Y-80126183D02*
X146300000Y-81600000D01*
X146300000Y-81600000D02*
X146800000Y-82100000D01*
X146630000Y-78328875D02*
X146630000Y-79796183D01*
D16*
%TO.N,VBUS*%
X146700000Y-81025417D02*
X146700000Y-80574583D01*
X146700000Y-81050000D02*
X146700000Y-80599166D01*
X146700000Y-80599166D02*
X146709000Y-80590166D01*
D17*
%TO.N,+BATT*%
X152600000Y-91300000D02*
X148900000Y-91300000D01*
X148900000Y-91300000D02*
X146900000Y-89300000D01*
X146900000Y-89300000D02*
X146900000Y-86300000D01*
X146900000Y-86300000D02*
X144979000Y-84379000D01*
X144979000Y-80021000D02*
X145000000Y-80000000D01*
X144979000Y-84379000D02*
X144979000Y-80021000D01*
D15*
X151600000Y-93700000D02*
X152300000Y-93000000D01*
X152300000Y-93000000D02*
X152300000Y-91600000D01*
X146619000Y-94491621D02*
X147410621Y-93700000D01*
X146619000Y-95711248D02*
X146619000Y-94491621D01*
X147300000Y-96400000D02*
X147300000Y-96392248D01*
X147300000Y-96392248D02*
X146619000Y-95711248D01*
X147410621Y-93700000D02*
X151600000Y-93700000D01*
%TO.N,VBUS*%
X153421000Y-92520000D02*
X153421000Y-91815806D01*
D16*
X151921000Y-95079000D02*
X152000000Y-95000000D01*
X152000000Y-95000000D02*
X152000000Y-94800000D01*
X152000000Y-95300000D02*
X152000000Y-95000000D01*
X148500000Y-95079000D02*
X151921000Y-95079000D01*
X152000000Y-93941000D02*
X152000000Y-94800000D01*
X153400000Y-92541000D02*
X152000000Y-93941000D01*
X153400000Y-92500000D02*
X153400000Y-92541000D01*
D15*
X154105391Y-92520000D02*
X153421000Y-92520000D01*
X154110391Y-92525000D02*
X154105391Y-92520000D01*
D16*
X148000000Y-94800000D02*
X148000000Y-95300000D01*
X151978922Y-95278922D02*
X152000000Y-95300000D01*
X148221000Y-95079000D02*
X148500000Y-95079000D01*
X148279000Y-95079000D02*
X148500000Y-95079000D01*
D15*
%TO.N,/USBDM*%
X145101689Y-91829113D02*
X147629113Y-91829113D01*
X151125749Y-92734791D02*
X151125749Y-92727751D01*
X148909021Y-93109021D02*
X150751519Y-93109021D01*
X147629113Y-91829113D02*
X148909021Y-93109021D01*
X150751519Y-93109021D02*
X151125749Y-92734791D01*
%TO.N,/USBDP*%
X148933021Y-92733021D02*
X150595774Y-92733021D01*
X145071000Y-91300000D02*
X147500000Y-91300000D01*
X147500000Y-91300000D02*
X148933021Y-92733021D01*
%TD*%
%TA.AperFunction,Conductor*%
%TO.N,+3.3V*%
G36*
X149984184Y-77015816D02*
G01*
X150000000Y-77054000D01*
X150000000Y-79084465D01*
X149984184Y-79122649D01*
X149946000Y-79138465D01*
X149907816Y-79122649D01*
X149899235Y-79111465D01*
X149886610Y-79089598D01*
X149886608Y-79089596D01*
X149886607Y-79089594D01*
X149826935Y-79029922D01*
X149826932Y-79029920D01*
X149826930Y-79029918D01*
X149753853Y-78987727D01*
X149672338Y-78965886D01*
X149587948Y-78965886D01*
X149587947Y-78965886D01*
X149506432Y-78987727D01*
X149433355Y-79029918D01*
X149433353Y-79029920D01*
X149433351Y-79029922D01*
X149373679Y-79089594D01*
X149373677Y-79089596D01*
X149373677Y-79089597D01*
X149373675Y-79089598D01*
X149331484Y-79162675D01*
X149309643Y-79244190D01*
X149309643Y-79328581D01*
X149331484Y-79410096D01*
X149373675Y-79483173D01*
X149373677Y-79483175D01*
X149373679Y-79483178D01*
X149433351Y-79542850D01*
X149433353Y-79542851D01*
X149433355Y-79542853D01*
X149506432Y-79585044D01*
X149506434Y-79585045D01*
X149587948Y-79606886D01*
X149587949Y-79606886D01*
X149672337Y-79606886D01*
X149672338Y-79606886D01*
X149753852Y-79585045D01*
X149826935Y-79542850D01*
X149886607Y-79483178D01*
X149899234Y-79461306D01*
X149932023Y-79436146D01*
X149972999Y-79441540D01*
X149998160Y-79474329D01*
X150000000Y-79488306D01*
X150000000Y-82351758D01*
X149984184Y-82389942D01*
X149959976Y-82403918D01*
X149876290Y-82426341D01*
X149803212Y-82468532D01*
X149803210Y-82468534D01*
X149803208Y-82468536D01*
X149743536Y-82528208D01*
X149743534Y-82528210D01*
X149743534Y-82528211D01*
X149743532Y-82528212D01*
X149701341Y-82601289D01*
X149679500Y-82682804D01*
X149679500Y-82767195D01*
X149701341Y-82848710D01*
X149743532Y-82921787D01*
X149743534Y-82921789D01*
X149743536Y-82921792D01*
X149803208Y-82981464D01*
X149803210Y-82981465D01*
X149803212Y-82981467D01*
X149869740Y-83019877D01*
X149876291Y-83023659D01*
X149957805Y-83045500D01*
X149957806Y-83045500D01*
X150042194Y-83045500D01*
X150042195Y-83045500D01*
X150123709Y-83023659D01*
X150196792Y-82981464D01*
X150256464Y-82921792D01*
X150298659Y-82848709D01*
X150320500Y-82767195D01*
X150320500Y-82682805D01*
X150298659Y-82601291D01*
X150286943Y-82581000D01*
X150281549Y-82540024D01*
X150306708Y-82507235D01*
X150333709Y-82500000D01*
X156195500Y-82500000D01*
X156233684Y-82515816D01*
X156249500Y-82554000D01*
X156249500Y-94695500D01*
X156233684Y-94733684D01*
X156195500Y-94749500D01*
X155445178Y-94749500D01*
X155444748Y-94749541D01*
X155428770Y-94749553D01*
X155428763Y-94749554D01*
X155289672Y-94780389D01*
X155289661Y-94780393D01*
X155160551Y-94840599D01*
X155160548Y-94840600D01*
X155047519Y-94927332D01*
X154992123Y-94993349D01*
X154955463Y-95012433D01*
X154916046Y-95000004D01*
X154896962Y-94963344D01*
X154900868Y-94937972D01*
X154907039Y-94923076D01*
X154930500Y-94805129D01*
X154930500Y-93584871D01*
X154907039Y-93466924D01*
X154861018Y-93355820D01*
X154794206Y-93255829D01*
X154709171Y-93170794D01*
X154638705Y-93123710D01*
X154609185Y-93103985D01*
X154609182Y-93103983D01*
X154609180Y-93103982D01*
X154609174Y-93103979D01*
X154609171Y-93103978D01*
X154498081Y-93057962D01*
X154498072Y-93057959D01*
X154380133Y-93034500D01*
X154380129Y-93034500D01*
X154259871Y-93034500D01*
X154259866Y-93034500D01*
X154141927Y-93057959D01*
X154141918Y-93057962D01*
X154030828Y-93103978D01*
X154030814Y-93103985D01*
X153930833Y-93170791D01*
X153930825Y-93170797D01*
X153845797Y-93255825D01*
X153845791Y-93255833D01*
X153778985Y-93355814D01*
X153778978Y-93355828D01*
X153732962Y-93466918D01*
X153732959Y-93466927D01*
X153709500Y-93584866D01*
X153709500Y-94805133D01*
X153732959Y-94923072D01*
X153732962Y-94923081D01*
X153769974Y-95012433D01*
X153778982Y-95034180D01*
X153778983Y-95034182D01*
X153778985Y-95034185D01*
X153794036Y-95056710D01*
X153845794Y-95134171D01*
X153930829Y-95219206D01*
X154030820Y-95286018D01*
X154065676Y-95300456D01*
X154141918Y-95332037D01*
X154141927Y-95332040D01*
X154258295Y-95355186D01*
X154259871Y-95355500D01*
X154380129Y-95355500D01*
X154447018Y-95342195D01*
X154498072Y-95332040D01*
X154498073Y-95332039D01*
X154498076Y-95332039D01*
X154609180Y-95286018D01*
X154709171Y-95219206D01*
X154793266Y-95135110D01*
X154831449Y-95119295D01*
X154869633Y-95135111D01*
X154885449Y-95173295D01*
X154883609Y-95187271D01*
X154853281Y-95300454D01*
X154853281Y-95300456D01*
X154853280Y-95300460D01*
X154847646Y-95429524D01*
X154847066Y-95442798D01*
X154851951Y-95470500D01*
X154868747Y-95565756D01*
X154871806Y-95583101D01*
X154871808Y-95583108D01*
X154926323Y-95714719D01*
X154926327Y-95714728D01*
X154926328Y-95714730D01*
X154926330Y-95714733D01*
X155008040Y-95831426D01*
X155008045Y-95831433D01*
X155031982Y-95853367D01*
X155049449Y-95890823D01*
X155049500Y-95893179D01*
X155049500Y-99594683D01*
X155048462Y-99605217D01*
X155048462Y-99605219D01*
X155040215Y-99646676D01*
X155032152Y-99666141D01*
X155011679Y-99696781D01*
X154996781Y-99711679D01*
X154966141Y-99732152D01*
X154946676Y-99740215D01*
X154912982Y-99746917D01*
X154905217Y-99748462D01*
X154894683Y-99749500D01*
X145105317Y-99749500D01*
X145094782Y-99748462D01*
X145053324Y-99740215D01*
X145033858Y-99732152D01*
X145003218Y-99711679D01*
X144988320Y-99696781D01*
X144972626Y-99673294D01*
X144967847Y-99666141D01*
X144959784Y-99646674D01*
X144951538Y-99605217D01*
X144950500Y-99594683D01*
X144950500Y-97914866D01*
X145069500Y-97914866D01*
X145069500Y-98835133D01*
X145092959Y-98953072D01*
X145092962Y-98953081D01*
X145138978Y-99064171D01*
X145138982Y-99064180D01*
X145205794Y-99164171D01*
X145290829Y-99249206D01*
X145390820Y-99316018D01*
X145434446Y-99334088D01*
X145501918Y-99362037D01*
X145501927Y-99362040D01*
X145618295Y-99385186D01*
X145619871Y-99385500D01*
X145740129Y-99385500D01*
X145799102Y-99373769D01*
X145858072Y-99362040D01*
X145858073Y-99362039D01*
X145858076Y-99362039D01*
X145969180Y-99316018D01*
X146069171Y-99249206D01*
X146154206Y-99164171D01*
X146221018Y-99064180D01*
X146267039Y-98953076D01*
X146290500Y-98835129D01*
X146290500Y-98739373D01*
X149539500Y-98739373D01*
X149539500Y-98860626D01*
X149570882Y-98977748D01*
X149631504Y-99082749D01*
X149631506Y-99082751D01*
X149631508Y-99082754D01*
X149717246Y-99168492D01*
X149717248Y-99168493D01*
X149717250Y-99168495D01*
X149822251Y-99229117D01*
X149822253Y-99229118D01*
X149939374Y-99260500D01*
X149939375Y-99260500D01*
X150060625Y-99260500D01*
X150060626Y-99260500D01*
X150177747Y-99229118D01*
X150282754Y-99168492D01*
X150368492Y-99082754D01*
X150429118Y-98977747D01*
X150460500Y-98860626D01*
X150460500Y-98739374D01*
X150429118Y-98622253D01*
X150429117Y-98622251D01*
X150368495Y-98517250D01*
X150368493Y-98517248D01*
X150368492Y-98517246D01*
X150282754Y-98431508D01*
X150282751Y-98431506D01*
X150282749Y-98431504D01*
X150177748Y-98370882D01*
X150060626Y-98339500D01*
X149939374Y-98339500D01*
X149939373Y-98339500D01*
X149822251Y-98370882D01*
X149717250Y-98431504D01*
X149717248Y-98431506D01*
X149717246Y-98431508D01*
X149631508Y-98517246D01*
X149631506Y-98517248D01*
X149631506Y-98517249D01*
X149631504Y-98517250D01*
X149570882Y-98622251D01*
X149539500Y-98739373D01*
X146290500Y-98739373D01*
X146290500Y-97914871D01*
X146290499Y-97914866D01*
X153709500Y-97914866D01*
X153709500Y-98835133D01*
X153732959Y-98953072D01*
X153732962Y-98953081D01*
X153778978Y-99064171D01*
X153778982Y-99064180D01*
X153845794Y-99164171D01*
X153930829Y-99249206D01*
X154030820Y-99316018D01*
X154074446Y-99334088D01*
X154141918Y-99362037D01*
X154141927Y-99362040D01*
X154258295Y-99385186D01*
X154259871Y-99385500D01*
X154380129Y-99385500D01*
X154439102Y-99373769D01*
X154498072Y-99362040D01*
X154498073Y-99362039D01*
X154498076Y-99362039D01*
X154609180Y-99316018D01*
X154709171Y-99249206D01*
X154794206Y-99164171D01*
X154861018Y-99064180D01*
X154907039Y-98953076D01*
X154930500Y-98835129D01*
X154930500Y-97914871D01*
X154907039Y-97796924D01*
X154861018Y-97685820D01*
X154794206Y-97585829D01*
X154709171Y-97500794D01*
X154648867Y-97460500D01*
X154609185Y-97433985D01*
X154609182Y-97433983D01*
X154609180Y-97433982D01*
X154609174Y-97433979D01*
X154609171Y-97433978D01*
X154498081Y-97387962D01*
X154498072Y-97387959D01*
X154380133Y-97364500D01*
X154380129Y-97364500D01*
X154259871Y-97364500D01*
X154259866Y-97364500D01*
X154141927Y-97387959D01*
X154141918Y-97387962D01*
X154030828Y-97433978D01*
X154030814Y-97433985D01*
X153930833Y-97500791D01*
X153930825Y-97500797D01*
X153845797Y-97585825D01*
X153845791Y-97585833D01*
X153778985Y-97685814D01*
X153778978Y-97685828D01*
X153732962Y-97796918D01*
X153732959Y-97796927D01*
X153709500Y-97914866D01*
X146290499Y-97914866D01*
X146267039Y-97796924D01*
X146221018Y-97685820D01*
X146154206Y-97585829D01*
X146069171Y-97500794D01*
X146008867Y-97460500D01*
X145969185Y-97433985D01*
X145969182Y-97433983D01*
X145969180Y-97433982D01*
X145969174Y-97433979D01*
X145969171Y-97433978D01*
X145858081Y-97387962D01*
X145858072Y-97387959D01*
X145740133Y-97364500D01*
X145740129Y-97364500D01*
X145619871Y-97364500D01*
X145619866Y-97364500D01*
X145501927Y-97387959D01*
X145501918Y-97387962D01*
X145390828Y-97433978D01*
X145390814Y-97433985D01*
X145290833Y-97500791D01*
X145290825Y-97500797D01*
X145205797Y-97585825D01*
X145205791Y-97585833D01*
X145138985Y-97685814D01*
X145138978Y-97685828D01*
X145092962Y-97796918D01*
X145092959Y-97796927D01*
X145069500Y-97914866D01*
X144950500Y-97914866D01*
X144950500Y-96939373D01*
X149539500Y-96939373D01*
X149539500Y-97060626D01*
X149570882Y-97177748D01*
X149631504Y-97282749D01*
X149631506Y-97282751D01*
X149631508Y-97282754D01*
X149717246Y-97368492D01*
X149717248Y-97368493D01*
X149717250Y-97368495D01*
X149822251Y-97429117D01*
X149822253Y-97429118D01*
X149939374Y-97460500D01*
X149939375Y-97460500D01*
X150060625Y-97460500D01*
X150060626Y-97460500D01*
X150177747Y-97429118D01*
X150282754Y-97368492D01*
X150368492Y-97282754D01*
X150429118Y-97177747D01*
X150460500Y-97060626D01*
X150460500Y-96939374D01*
X150429118Y-96822253D01*
X150370371Y-96720500D01*
X150368495Y-96717250D01*
X150368493Y-96717248D01*
X150368492Y-96717246D01*
X150282754Y-96631508D01*
X150282751Y-96631506D01*
X150282749Y-96631504D01*
X150177748Y-96570882D01*
X150060626Y-96539500D01*
X149939374Y-96539500D01*
X149939373Y-96539500D01*
X149822251Y-96570882D01*
X149717250Y-96631504D01*
X149717248Y-96631506D01*
X149717246Y-96631508D01*
X149631508Y-96717246D01*
X149631506Y-96717248D01*
X149631506Y-96717249D01*
X149631504Y-96717250D01*
X149570882Y-96822251D01*
X149539500Y-96939373D01*
X144950500Y-96939373D01*
X144950500Y-96357804D01*
X145879500Y-96357804D01*
X145879500Y-96442195D01*
X145901341Y-96523710D01*
X145943532Y-96596787D01*
X145943534Y-96596789D01*
X145943536Y-96596792D01*
X146003208Y-96656464D01*
X146003210Y-96656465D01*
X146003212Y-96656467D01*
X146076289Y-96698658D01*
X146076291Y-96698659D01*
X146157805Y-96720500D01*
X146157806Y-96720500D01*
X146242194Y-96720500D01*
X146242195Y-96720500D01*
X146323709Y-96698659D01*
X146396792Y-96656464D01*
X146456464Y-96596792D01*
X146498659Y-96523709D01*
X146520500Y-96442195D01*
X146520500Y-96357805D01*
X146498659Y-96276291D01*
X146498658Y-96276289D01*
X146456467Y-96203212D01*
X146456465Y-96203210D01*
X146456464Y-96203208D01*
X146396792Y-96143536D01*
X146396789Y-96143534D01*
X146396787Y-96143532D01*
X146323710Y-96101341D01*
X146242195Y-96079500D01*
X146157805Y-96079500D01*
X146157804Y-96079500D01*
X146076289Y-96101341D01*
X146003212Y-96143532D01*
X146003210Y-96143534D01*
X146003208Y-96143536D01*
X145943536Y-96203208D01*
X145943534Y-96203210D01*
X145943534Y-96203211D01*
X145943532Y-96203212D01*
X145901341Y-96276289D01*
X145879500Y-96357804D01*
X144950500Y-96357804D01*
X144950500Y-95893181D01*
X144966316Y-95854997D01*
X144967996Y-95853388D01*
X144991956Y-95831434D01*
X145073674Y-95714728D01*
X145128195Y-95583102D01*
X145152935Y-95442796D01*
X145146721Y-95300460D01*
X145116392Y-95187273D01*
X145121786Y-95146297D01*
X145154575Y-95121137D01*
X145195552Y-95126531D01*
X145206736Y-95135113D01*
X145290829Y-95219206D01*
X145390820Y-95286018D01*
X145425676Y-95300456D01*
X145501918Y-95332037D01*
X145501927Y-95332040D01*
X145618295Y-95355186D01*
X145619871Y-95355500D01*
X145740129Y-95355500D01*
X145807018Y-95342195D01*
X145858072Y-95332040D01*
X145858073Y-95332039D01*
X145858076Y-95332039D01*
X145969180Y-95286018D01*
X146069171Y-95219206D01*
X146154206Y-95134171D01*
X146221018Y-95034180D01*
X146267039Y-94923076D01*
X146290500Y-94805129D01*
X146290500Y-93584871D01*
X146267039Y-93466924D01*
X146221018Y-93355820D01*
X146154206Y-93255829D01*
X146069171Y-93170794D01*
X145998705Y-93123710D01*
X145969185Y-93103985D01*
X145969182Y-93103983D01*
X145969180Y-93103982D01*
X145969174Y-93103979D01*
X145969171Y-93103978D01*
X145858081Y-93057962D01*
X145858072Y-93057959D01*
X145740133Y-93034500D01*
X145740129Y-93034500D01*
X145619871Y-93034500D01*
X145619866Y-93034500D01*
X145501927Y-93057959D01*
X145501918Y-93057962D01*
X145390828Y-93103978D01*
X145390814Y-93103985D01*
X145290833Y-93170791D01*
X145290825Y-93170797D01*
X145205797Y-93255825D01*
X145205791Y-93255833D01*
X145138985Y-93355814D01*
X145138978Y-93355828D01*
X145092962Y-93466918D01*
X145092959Y-93466927D01*
X145069500Y-93584866D01*
X145069500Y-94805133D01*
X145092959Y-94923072D01*
X145099130Y-94937969D01*
X145099129Y-94979299D01*
X145069905Y-95008524D01*
X145028575Y-95008523D01*
X145007874Y-94993345D01*
X144981908Y-94962400D01*
X144952482Y-94927331D01*
X144946943Y-94923081D01*
X144839452Y-94840600D01*
X144710329Y-94780390D01*
X144710328Y-94780389D01*
X144571237Y-94749553D01*
X144571233Y-94749552D01*
X144555329Y-94749541D01*
X144554917Y-94749500D01*
X144549828Y-94749500D01*
X143804500Y-94749500D01*
X143766316Y-94733684D01*
X143750500Y-94695500D01*
X143750500Y-92557804D01*
X146195280Y-92557804D01*
X146195280Y-92642195D01*
X146217121Y-92723710D01*
X146259312Y-92796787D01*
X146259314Y-92796789D01*
X146259316Y-92796792D01*
X146318988Y-92856464D01*
X146318990Y-92856465D01*
X146318992Y-92856467D01*
X146391832Y-92898521D01*
X146392071Y-92898659D01*
X146473585Y-92920500D01*
X146473586Y-92920500D01*
X146557974Y-92920500D01*
X146557975Y-92920500D01*
X146639489Y-92898659D01*
X146712572Y-92856464D01*
X146754541Y-92814494D01*
X146792724Y-92798679D01*
X146830906Y-92814494D01*
X146872876Y-92856464D01*
X146872878Y-92856465D01*
X146872880Y-92856467D01*
X146945720Y-92898521D01*
X146945959Y-92898659D01*
X147027473Y-92920500D01*
X147027474Y-92920500D01*
X147111862Y-92920500D01*
X147111863Y-92920500D01*
X147193377Y-92898659D01*
X147266460Y-92856464D01*
X147326132Y-92796792D01*
X147331103Y-92788183D01*
X147346612Y-92761320D01*
X147368327Y-92723709D01*
X147390168Y-92642195D01*
X147390168Y-92557805D01*
X147368327Y-92476291D01*
X147368326Y-92476289D01*
X147326135Y-92403212D01*
X147326133Y-92403210D01*
X147326132Y-92403208D01*
X147266460Y-92343536D01*
X147266457Y-92343534D01*
X147266455Y-92343532D01*
X147193378Y-92301341D01*
X147111863Y-92279500D01*
X147027473Y-92279500D01*
X147027472Y-92279500D01*
X146945957Y-92301341D01*
X146872880Y-92343532D01*
X146872878Y-92343534D01*
X146872876Y-92343536D01*
X146830906Y-92385505D01*
X146792724Y-92401321D01*
X146754541Y-92385505D01*
X146712572Y-92343536D01*
X146712569Y-92343534D01*
X146712567Y-92343532D01*
X146639490Y-92301341D01*
X146557975Y-92279500D01*
X146473585Y-92279500D01*
X146473584Y-92279500D01*
X146392069Y-92301341D01*
X146318992Y-92343532D01*
X146318990Y-92343534D01*
X146318988Y-92343536D01*
X146259316Y-92403208D01*
X146259314Y-92403210D01*
X146259314Y-92403211D01*
X146259312Y-92403212D01*
X146217121Y-92476289D01*
X146195280Y-92557804D01*
X143750500Y-92557804D01*
X143750500Y-91257804D01*
X144750500Y-91257804D01*
X144750500Y-91342195D01*
X144772341Y-91423710D01*
X144814532Y-91496787D01*
X144814534Y-91496789D01*
X144814536Y-91496792D01*
X144859461Y-91541717D01*
X144875277Y-91579900D01*
X144859462Y-91618083D01*
X144845223Y-91632322D01*
X144803030Y-91705402D01*
X144781189Y-91786917D01*
X144781189Y-91871308D01*
X144803030Y-91952823D01*
X144845221Y-92025900D01*
X144845223Y-92025902D01*
X144845225Y-92025905D01*
X144904897Y-92085577D01*
X144904899Y-92085578D01*
X144904901Y-92085580D01*
X144970944Y-92123710D01*
X144977980Y-92127772D01*
X145059494Y-92149613D01*
X145059495Y-92149613D01*
X145143883Y-92149613D01*
X145143884Y-92149613D01*
X145225398Y-92127772D01*
X145298481Y-92085577D01*
X145358153Y-92025905D01*
X145360630Y-92021613D01*
X145393419Y-91996453D01*
X145407396Y-91994613D01*
X147538193Y-91994613D01*
X147576377Y-92010429D01*
X148815273Y-93249325D01*
X148876100Y-93274521D01*
X148876101Y-93274521D01*
X150784440Y-93274521D01*
X150807961Y-93264777D01*
X150845267Y-93249325D01*
X151032160Y-93062430D01*
X151070343Y-93046615D01*
X151080032Y-93047891D01*
X151080046Y-93047789D01*
X151083553Y-93048250D01*
X151083554Y-93048251D01*
X151083555Y-93048251D01*
X151167943Y-93048251D01*
X151167944Y-93048251D01*
X151249458Y-93026410D01*
X151322541Y-92984215D01*
X151382213Y-92924543D01*
X151424408Y-92851460D01*
X151446249Y-92769946D01*
X151446249Y-92685556D01*
X151424408Y-92604042D01*
X151411370Y-92581459D01*
X151382216Y-92530963D01*
X151382214Y-92530961D01*
X151382213Y-92530959D01*
X151322541Y-92471287D01*
X151322538Y-92471285D01*
X151322536Y-92471283D01*
X151249459Y-92429092D01*
X151167944Y-92407251D01*
X151083554Y-92407251D01*
X151083553Y-92407251D01*
X151002038Y-92429092D01*
X150928961Y-92471283D01*
X150928955Y-92471288D01*
X150896309Y-92503934D01*
X150858125Y-92519750D01*
X150819943Y-92503934D01*
X150792566Y-92476557D01*
X150792563Y-92476555D01*
X150792561Y-92476553D01*
X150719484Y-92434362D01*
X150637969Y-92412521D01*
X150553579Y-92412521D01*
X150553578Y-92412521D01*
X150472063Y-92434362D01*
X150398986Y-92476553D01*
X150398984Y-92476555D01*
X150398982Y-92476557D01*
X150356783Y-92518756D01*
X150339309Y-92536230D01*
X150336833Y-92540520D01*
X150304044Y-92565681D01*
X150290067Y-92567521D01*
X149023941Y-92567521D01*
X148985757Y-92551705D01*
X147593747Y-91159695D01*
X147532921Y-91134500D01*
X147532920Y-91134500D01*
X145376707Y-91134500D01*
X145338523Y-91118684D01*
X145329941Y-91107499D01*
X145327466Y-91103212D01*
X145327464Y-91103208D01*
X145267792Y-91043536D01*
X145267789Y-91043534D01*
X145267787Y-91043532D01*
X145194710Y-91001341D01*
X145113195Y-90979500D01*
X145028805Y-90979500D01*
X145028804Y-90979500D01*
X144947289Y-91001341D01*
X144874212Y-91043532D01*
X144874210Y-91043534D01*
X144874208Y-91043536D01*
X144814536Y-91103208D01*
X144814534Y-91103210D01*
X144814534Y-91103211D01*
X144814532Y-91103212D01*
X144772341Y-91176289D01*
X144750500Y-91257804D01*
X143750500Y-91257804D01*
X143750500Y-90387802D01*
X145349497Y-90387802D01*
X145349497Y-90472193D01*
X145371338Y-90553708D01*
X145413529Y-90626785D01*
X145413531Y-90626787D01*
X145413533Y-90626790D01*
X145473205Y-90686462D01*
X145473207Y-90686463D01*
X145473209Y-90686465D01*
X145524317Y-90715972D01*
X145546288Y-90728657D01*
X145627802Y-90750498D01*
X145627803Y-90750498D01*
X145712191Y-90750498D01*
X145712192Y-90750498D01*
X145793706Y-90728657D01*
X145866789Y-90686462D01*
X145926461Y-90626790D01*
X145968656Y-90553707D01*
X145990497Y-90472193D01*
X145990497Y-90387803D01*
X145968656Y-90306289D01*
X145961331Y-90293602D01*
X145926464Y-90233210D01*
X145926462Y-90233208D01*
X145926461Y-90233206D01*
X145866789Y-90173534D01*
X145866786Y-90173532D01*
X145866784Y-90173530D01*
X145793707Y-90131339D01*
X145712192Y-90109498D01*
X145627802Y-90109498D01*
X145627801Y-90109498D01*
X145546286Y-90131339D01*
X145473209Y-90173530D01*
X145473207Y-90173532D01*
X145473205Y-90173534D01*
X145413533Y-90233206D01*
X145413531Y-90233208D01*
X145413531Y-90233209D01*
X145413529Y-90233210D01*
X145371338Y-90306287D01*
X145349497Y-90387802D01*
X143750500Y-90387802D01*
X143750500Y-88157804D01*
X144179500Y-88157804D01*
X144179500Y-88242195D01*
X144201341Y-88323710D01*
X144243532Y-88396787D01*
X144243534Y-88396789D01*
X144243536Y-88396792D01*
X144303208Y-88456464D01*
X144303210Y-88456465D01*
X144303212Y-88456467D01*
X144376289Y-88498658D01*
X144376291Y-88498659D01*
X144457805Y-88520500D01*
X144457806Y-88520500D01*
X144542194Y-88520500D01*
X144542195Y-88520500D01*
X144623709Y-88498659D01*
X144680698Y-88465756D01*
X144721674Y-88460361D01*
X144754463Y-88485521D01*
X144763243Y-88500729D01*
X144763245Y-88500731D01*
X144763247Y-88500734D01*
X144822919Y-88560406D01*
X144822921Y-88560407D01*
X144822923Y-88560409D01*
X144896000Y-88602600D01*
X144896002Y-88602601D01*
X144977516Y-88624442D01*
X144977517Y-88624442D01*
X145061905Y-88624442D01*
X145061906Y-88624442D01*
X145143420Y-88602601D01*
X145216503Y-88560406D01*
X145276175Y-88500734D01*
X145318370Y-88427651D01*
X145340211Y-88346137D01*
X145340211Y-88261747D01*
X145318370Y-88180233D01*
X145305421Y-88157805D01*
X145276178Y-88107154D01*
X145276176Y-88107152D01*
X145276175Y-88107150D01*
X145216503Y-88047478D01*
X145216500Y-88047476D01*
X145216498Y-88047474D01*
X145143421Y-88005283D01*
X145061906Y-87983442D01*
X144977516Y-87983442D01*
X144977515Y-87983442D01*
X144896004Y-88005282D01*
X144839012Y-88038186D01*
X144798035Y-88043580D01*
X144765247Y-88018420D01*
X144756464Y-88003208D01*
X144696792Y-87943536D01*
X144696789Y-87943534D01*
X144696787Y-87943532D01*
X144623710Y-87901341D01*
X144542195Y-87879500D01*
X144457805Y-87879500D01*
X144457804Y-87879500D01*
X144376289Y-87901341D01*
X144303212Y-87943532D01*
X144303210Y-87943534D01*
X144303208Y-87943536D01*
X144243536Y-88003208D01*
X144243534Y-88003210D01*
X144243534Y-88003211D01*
X144243532Y-88003212D01*
X144201341Y-88076289D01*
X144179500Y-88157804D01*
X143750500Y-88157804D01*
X143750500Y-84834123D01*
X143766316Y-84795939D01*
X143804500Y-84780123D01*
X143842684Y-84795939D01*
X143843534Y-84796789D01*
X143843536Y-84796792D01*
X143903208Y-84856464D01*
X143903210Y-84856465D01*
X143903212Y-84856467D01*
X143976289Y-84898658D01*
X143976291Y-84898659D01*
X144057805Y-84920500D01*
X144057806Y-84920500D01*
X144142194Y-84920500D01*
X144142195Y-84920500D01*
X144223709Y-84898659D01*
X144296792Y-84856464D01*
X144356464Y-84796792D01*
X144356957Y-84795939D01*
X144390666Y-84737553D01*
X144423455Y-84712393D01*
X144464431Y-84717788D01*
X144482330Y-84734552D01*
X144504794Y-84768171D01*
X144504797Y-84768174D01*
X146273684Y-86537061D01*
X146289500Y-86575245D01*
X146289500Y-89360133D01*
X146312959Y-89478072D01*
X146312962Y-89478081D01*
X146351592Y-89571341D01*
X146358982Y-89589181D01*
X146425794Y-89689171D01*
X148510829Y-91774206D01*
X148610819Y-91841018D01*
X148654444Y-91859088D01*
X148721918Y-91887037D01*
X148721927Y-91887040D01*
X148838295Y-91910186D01*
X148839871Y-91910500D01*
X148960129Y-91910500D01*
X151934876Y-91910500D01*
X151973059Y-91926316D01*
X152003206Y-91956462D01*
X152003212Y-91956467D01*
X152069283Y-91994613D01*
X152076291Y-91998659D01*
X152094475Y-92003531D01*
X152127265Y-92028690D01*
X152134500Y-92055691D01*
X152134500Y-92909079D01*
X152118684Y-92947263D01*
X151547264Y-93518684D01*
X151509080Y-93534500D01*
X147377700Y-93534500D01*
X147316873Y-93559695D01*
X146478695Y-94397873D01*
X146453500Y-94458699D01*
X146453500Y-95744169D01*
X146478695Y-95804995D01*
X146968444Y-96294745D01*
X146984260Y-96332929D01*
X146982421Y-96346902D01*
X146979501Y-96357804D01*
X146979500Y-96357806D01*
X146979500Y-96442195D01*
X147001341Y-96523710D01*
X147043532Y-96596787D01*
X147043534Y-96596789D01*
X147043536Y-96596792D01*
X147103208Y-96656464D01*
X147103210Y-96656465D01*
X147103212Y-96656467D01*
X147176289Y-96698658D01*
X147176291Y-96698659D01*
X147257805Y-96720500D01*
X147257806Y-96720500D01*
X147342194Y-96720500D01*
X147342195Y-96720500D01*
X147423709Y-96698659D01*
X147496792Y-96656464D01*
X147556464Y-96596792D01*
X147598659Y-96523709D01*
X147620500Y-96442195D01*
X147620500Y-96357805D01*
X147598659Y-96276291D01*
X147598658Y-96276289D01*
X147556467Y-96203212D01*
X147556465Y-96203210D01*
X147556464Y-96203208D01*
X147496792Y-96143536D01*
X147496789Y-96143534D01*
X147496787Y-96143532D01*
X147423710Y-96101341D01*
X147342195Y-96079500D01*
X147257805Y-96079500D01*
X147257804Y-96079500D01*
X147254297Y-96079962D01*
X147254102Y-96078485D01*
X147218145Y-96073743D01*
X147206972Y-96065168D01*
X147110197Y-95968393D01*
X147094381Y-95930209D01*
X147110197Y-95892025D01*
X147134406Y-95878049D01*
X147139751Y-95876617D01*
X147174652Y-95856467D01*
X147212829Y-95834425D01*
X147212831Y-95834424D01*
X147212831Y-95834423D01*
X147212834Y-95834422D01*
X147272506Y-95774750D01*
X147314701Y-95701667D01*
X147336542Y-95620153D01*
X147336542Y-95535763D01*
X147314701Y-95454249D01*
X147314700Y-95454247D01*
X147272509Y-95381170D01*
X147272507Y-95381168D01*
X147272506Y-95381166D01*
X147212834Y-95321494D01*
X147212831Y-95321492D01*
X147212829Y-95321490D01*
X147139752Y-95279299D01*
X147058237Y-95257458D01*
X146973847Y-95257458D01*
X146973846Y-95257458D01*
X146892333Y-95279298D01*
X146865499Y-95294791D01*
X146824523Y-95300185D01*
X146791734Y-95275024D01*
X146784500Y-95248025D01*
X146784500Y-95103475D01*
X146800316Y-95065291D01*
X146838500Y-95049475D01*
X146865500Y-95056710D01*
X146941903Y-95100821D01*
X147052664Y-95130499D01*
X147052664Y-95130500D01*
X147052665Y-95130500D01*
X147167336Y-95130500D01*
X147167335Y-95130499D01*
X147278097Y-95100821D01*
X147377403Y-95043487D01*
X147458487Y-94962403D01*
X147515821Y-94863097D01*
X147545500Y-94752335D01*
X147545500Y-94637665D01*
X147544839Y-94635200D01*
X147536267Y-94603208D01*
X147515821Y-94526903D01*
X147488453Y-94479500D01*
X147458490Y-94427601D01*
X147458488Y-94427599D01*
X147458487Y-94427597D01*
X147377403Y-94346513D01*
X147377400Y-94346511D01*
X147377398Y-94346509D01*
X147278098Y-94289179D01*
X147192879Y-94266344D01*
X147160090Y-94241183D01*
X147154696Y-94200207D01*
X147168670Y-94176002D01*
X147463357Y-93881316D01*
X147501541Y-93865500D01*
X151635500Y-93865500D01*
X151673684Y-93881316D01*
X151689500Y-93919500D01*
X151689500Y-94713374D01*
X151687657Y-94727363D01*
X151687355Y-94728489D01*
X151662187Y-94761272D01*
X151635198Y-94768500D01*
X149411260Y-94768500D01*
X149373076Y-94752684D01*
X149357260Y-94714500D01*
X149364495Y-94687500D01*
X149396999Y-94631200D01*
X149397000Y-94631199D01*
X149418841Y-94549685D01*
X149418841Y-94465295D01*
X149397000Y-94383781D01*
X149375481Y-94346509D01*
X149354808Y-94310702D01*
X149354806Y-94310700D01*
X149354805Y-94310698D01*
X149295133Y-94251026D01*
X149295130Y-94251024D01*
X149295128Y-94251022D01*
X149222051Y-94208831D01*
X149140536Y-94186990D01*
X149056146Y-94186990D01*
X149056145Y-94186990D01*
X148974630Y-94208831D01*
X148901553Y-94251022D01*
X148901547Y-94251027D01*
X148857806Y-94294768D01*
X148819622Y-94310584D01*
X148781439Y-94294767D01*
X148776788Y-94289465D01*
X148775410Y-94287670D01*
X148775407Y-94287667D01*
X148775406Y-94287665D01*
X148715734Y-94227993D01*
X148715731Y-94227991D01*
X148715729Y-94227989D01*
X148642652Y-94185798D01*
X148561137Y-94163957D01*
X148476747Y-94163957D01*
X148476746Y-94163957D01*
X148395231Y-94185798D01*
X148322154Y-94227989D01*
X148322152Y-94227991D01*
X148322150Y-94227993D01*
X148262478Y-94287665D01*
X148262476Y-94287667D01*
X148262476Y-94287668D01*
X148262474Y-94287669D01*
X148220283Y-94360746D01*
X148198442Y-94442261D01*
X148198442Y-94451479D01*
X148182626Y-94489663D01*
X148144442Y-94505479D01*
X148127184Y-94502047D01*
X148127128Y-94502257D01*
X148123940Y-94501402D01*
X148123785Y-94501372D01*
X148123711Y-94501341D01*
X148042195Y-94479500D01*
X147957805Y-94479500D01*
X147957804Y-94479500D01*
X147876289Y-94501341D01*
X147803212Y-94543532D01*
X147803210Y-94543534D01*
X147803208Y-94543536D01*
X147743536Y-94603208D01*
X147743534Y-94603210D01*
X147743534Y-94603211D01*
X147743532Y-94603212D01*
X147701341Y-94676289D01*
X147679500Y-94757804D01*
X147679500Y-94842195D01*
X147687660Y-94872648D01*
X147689500Y-94886624D01*
X147689500Y-95213374D01*
X147687660Y-95227349D01*
X147679500Y-95257802D01*
X147679500Y-95342195D01*
X147701341Y-95423710D01*
X147743532Y-95496787D01*
X147743534Y-95496789D01*
X147743536Y-95496792D01*
X147773562Y-95526818D01*
X147789378Y-95565001D01*
X147773562Y-95603184D01*
X147743537Y-95633209D01*
X147743532Y-95633215D01*
X147701341Y-95706292D01*
X147679500Y-95787807D01*
X147679500Y-95872198D01*
X147701341Y-95953713D01*
X147743532Y-96026790D01*
X147743534Y-96026792D01*
X147743536Y-96026795D01*
X147803208Y-96086467D01*
X147803210Y-96086468D01*
X147803212Y-96086470D01*
X147876289Y-96128661D01*
X147876291Y-96128662D01*
X147957805Y-96150503D01*
X147957806Y-96150503D01*
X148042194Y-96150503D01*
X148042195Y-96150503D01*
X148123709Y-96128662D01*
X148196792Y-96086467D01*
X148256464Y-96026795D01*
X148298659Y-95953712D01*
X148320500Y-95872198D01*
X148320500Y-95787808D01*
X148298659Y-95706294D01*
X148272167Y-95660409D01*
X148256467Y-95633215D01*
X148256465Y-95633213D01*
X148256464Y-95633211D01*
X148226436Y-95603183D01*
X148210621Y-95565001D01*
X148226435Y-95526820D01*
X148256464Y-95496792D01*
X148298659Y-95423709D01*
X148298660Y-95423706D01*
X148299024Y-95422830D01*
X148299362Y-95422492D01*
X148300429Y-95420644D01*
X148300924Y-95420929D01*
X148328251Y-95393608D01*
X148348911Y-95389500D01*
X148459122Y-95389500D01*
X149857919Y-95389500D01*
X149896103Y-95405316D01*
X149911919Y-95443500D01*
X149904684Y-95470500D01*
X149901341Y-95476289D01*
X149879500Y-95557804D01*
X149879500Y-95642195D01*
X149901341Y-95723710D01*
X149943532Y-95796787D01*
X149943534Y-95796789D01*
X149943536Y-95796792D01*
X150003208Y-95856464D01*
X150003210Y-95856465D01*
X150003212Y-95856467D01*
X150066799Y-95893179D01*
X150076291Y-95898659D01*
X150157805Y-95920500D01*
X150157806Y-95920500D01*
X150242194Y-95920500D01*
X150242195Y-95920500D01*
X150323709Y-95898659D01*
X150396792Y-95856464D01*
X150456464Y-95796792D01*
X150498659Y-95723709D01*
X150520500Y-95642195D01*
X150520500Y-95557805D01*
X150498659Y-95476291D01*
X150495316Y-95470500D01*
X150489921Y-95429524D01*
X150515081Y-95396735D01*
X150542081Y-95389500D01*
X151651090Y-95389500D01*
X151689274Y-95405316D01*
X151699531Y-95420668D01*
X151699572Y-95420645D01*
X151699925Y-95421257D01*
X151700979Y-95422834D01*
X151701342Y-95423711D01*
X151743532Y-95496787D01*
X151743534Y-95496789D01*
X151743536Y-95496792D01*
X151803208Y-95556464D01*
X151803210Y-95556465D01*
X151803212Y-95556467D01*
X151876289Y-95598658D01*
X151876291Y-95598659D01*
X151957805Y-95620500D01*
X151957806Y-95620500D01*
X152042194Y-95620500D01*
X152042195Y-95620500D01*
X152123709Y-95598659D01*
X152180698Y-95565756D01*
X152221674Y-95560361D01*
X152254463Y-95585521D01*
X152263243Y-95600729D01*
X152263245Y-95600731D01*
X152263247Y-95600734D01*
X152322919Y-95660406D01*
X152322921Y-95660407D01*
X152322923Y-95660409D01*
X152353960Y-95678328D01*
X152396002Y-95702601D01*
X152477516Y-95724442D01*
X152477517Y-95724442D01*
X152561905Y-95724442D01*
X152561906Y-95724442D01*
X152643420Y-95702601D01*
X152716503Y-95660406D01*
X152776175Y-95600734D01*
X152818370Y-95527651D01*
X152840211Y-95446137D01*
X152840211Y-95361747D01*
X152818370Y-95280233D01*
X152778384Y-95210976D01*
X152772989Y-95170000D01*
X152798149Y-95137211D01*
X152829126Y-95131050D01*
X152829126Y-95130500D01*
X152831896Y-95130500D01*
X152832203Y-95130439D01*
X152832664Y-95130499D01*
X152832665Y-95130500D01*
X152832666Y-95130500D01*
X152947336Y-95130500D01*
X152947335Y-95130499D01*
X153058097Y-95100821D01*
X153157403Y-95043487D01*
X153238487Y-94962403D01*
X153295821Y-94863097D01*
X153325500Y-94752335D01*
X153325500Y-94637665D01*
X153324839Y-94635200D01*
X153316267Y-94603208D01*
X153295821Y-94526903D01*
X153268453Y-94479500D01*
X153238490Y-94427601D01*
X153238488Y-94427599D01*
X153238487Y-94427597D01*
X153157403Y-94346513D01*
X153157400Y-94346511D01*
X153157398Y-94346509D01*
X153058097Y-94289179D01*
X152947335Y-94259500D01*
X152832665Y-94259500D01*
X152832664Y-94259500D01*
X152721902Y-94289179D01*
X152622601Y-94346509D01*
X152622599Y-94346511D01*
X152622597Y-94346513D01*
X152541513Y-94427597D01*
X152541511Y-94427599D01*
X152541511Y-94427600D01*
X152541509Y-94427601D01*
X152484179Y-94526902D01*
X152454500Y-94637664D01*
X152454500Y-94752335D01*
X152484179Y-94863097D01*
X152541509Y-94962398D01*
X152541511Y-94962400D01*
X152541513Y-94962403D01*
X152570369Y-94991259D01*
X152586185Y-95029442D01*
X152570369Y-95067626D01*
X152532185Y-95083442D01*
X152477515Y-95083442D01*
X152396002Y-95105282D01*
X152391496Y-95107884D01*
X152350520Y-95113275D01*
X152317732Y-95088112D01*
X152310500Y-95061116D01*
X152310500Y-94886624D01*
X152312340Y-94872648D01*
X152314899Y-94863097D01*
X152320500Y-94842195D01*
X152320500Y-94757805D01*
X152314037Y-94733684D01*
X152312340Y-94727349D01*
X152310500Y-94713374D01*
X152310500Y-94091982D01*
X152326316Y-94053798D01*
X152913196Y-93466918D01*
X153648462Y-92731652D01*
X153648462Y-92731650D01*
X153652181Y-92727932D01*
X153652191Y-92727920D01*
X153669462Y-92710651D01*
X153671450Y-92707206D01*
X153675612Y-92702731D01*
X153689273Y-92696480D01*
X153701195Y-92687337D01*
X153712512Y-92685848D01*
X153713195Y-92685536D01*
X153713636Y-92685700D01*
X153715160Y-92685500D01*
X153801797Y-92685500D01*
X153839981Y-92701316D01*
X153848563Y-92712501D01*
X153853927Y-92721793D01*
X153853929Y-92721794D01*
X153913597Y-92781462D01*
X153913603Y-92781467D01*
X153986680Y-92823658D01*
X153986682Y-92823659D01*
X154068196Y-92845500D01*
X154068197Y-92845500D01*
X154152585Y-92845500D01*
X154152586Y-92845500D01*
X154234100Y-92823659D01*
X154295544Y-92788184D01*
X154307178Y-92781467D01*
X154307180Y-92781466D01*
X154307180Y-92781465D01*
X154307183Y-92781464D01*
X154366855Y-92721792D01*
X154409050Y-92648709D01*
X154430891Y-92567195D01*
X154430891Y-92482805D01*
X154409050Y-92401291D01*
X154382035Y-92354500D01*
X154366858Y-92328212D01*
X154366856Y-92328210D01*
X154366855Y-92328208D01*
X154307183Y-92268536D01*
X154307180Y-92268534D01*
X154307178Y-92268532D01*
X154234101Y-92226341D01*
X154152586Y-92204500D01*
X154068196Y-92204500D01*
X154068195Y-92204500D01*
X153986680Y-92226341D01*
X153913603Y-92268532D01*
X153913601Y-92268534D01*
X153913599Y-92268536D01*
X153881635Y-92300500D01*
X153853926Y-92328209D01*
X153851774Y-92331015D01*
X153850765Y-92330241D01*
X153848546Y-92331943D01*
X153845755Y-92338684D01*
X153832729Y-92344079D01*
X153821544Y-92352661D01*
X153807571Y-92354500D01*
X153785500Y-92354500D01*
X153747316Y-92338684D01*
X153731500Y-92300500D01*
X153731500Y-90743314D01*
X153730025Y-90737811D01*
X153730024Y-90737809D01*
X153716266Y-90686462D01*
X153712867Y-90673777D01*
X153710340Y-90664346D01*
X153688657Y-90626790D01*
X153669462Y-90593542D01*
X153227458Y-90151538D01*
X153227455Y-90151536D01*
X153227453Y-90151534D01*
X153156656Y-90110660D01*
X153077685Y-90089500D01*
X153077684Y-90089500D01*
X149550981Y-90089500D01*
X149512797Y-90073684D01*
X148126316Y-88687202D01*
X148110500Y-88649018D01*
X148110500Y-86994123D01*
X148126316Y-86955939D01*
X148164500Y-86940123D01*
X148200005Y-86954829D01*
X148200403Y-86954311D01*
X148202337Y-86955795D01*
X148202682Y-86955938D01*
X148203208Y-86956464D01*
X148203210Y-86956465D01*
X148203212Y-86956467D01*
X148273057Y-86996792D01*
X148276291Y-86998659D01*
X148357805Y-87020500D01*
X148357806Y-87020500D01*
X148442194Y-87020500D01*
X148442195Y-87020500D01*
X148523709Y-86998659D01*
X148553500Y-86981458D01*
X148594476Y-86976064D01*
X148627265Y-87001223D01*
X148634500Y-87028224D01*
X148634500Y-88332921D01*
X148659695Y-88393747D01*
X149606252Y-89340304D01*
X149667079Y-89365500D01*
X149667080Y-89365500D01*
X153409080Y-89365500D01*
X153447264Y-89381316D01*
X153865321Y-89799373D01*
X153881137Y-89837557D01*
X153879297Y-89851531D01*
X153878564Y-89854264D01*
X153878564Y-89938659D01*
X153900405Y-90020174D01*
X153942596Y-90093251D01*
X153942598Y-90093253D01*
X153942600Y-90093256D01*
X154002272Y-90152928D01*
X154002274Y-90152929D01*
X154002276Y-90152931D01*
X154075353Y-90195122D01*
X154075355Y-90195123D01*
X154156869Y-90216964D01*
X154156870Y-90216964D01*
X154241258Y-90216964D01*
X154241259Y-90216964D01*
X154322773Y-90195123D01*
X154395856Y-90152928D01*
X154455528Y-90093256D01*
X154497723Y-90020173D01*
X154499453Y-90013714D01*
X154524607Y-89980926D01*
X154565583Y-89975526D01*
X154589797Y-89989504D01*
X154918422Y-90318129D01*
X154934238Y-90356313D01*
X154932400Y-90370281D01*
X154931105Y-90375113D01*
X154931105Y-90459508D01*
X154952946Y-90541023D01*
X154995137Y-90614100D01*
X154995139Y-90614102D01*
X154995141Y-90614105D01*
X155030388Y-90649352D01*
X155046204Y-90687535D01*
X155030388Y-90725719D01*
X155019204Y-90734300D01*
X155003212Y-90743532D01*
X155003210Y-90743534D01*
X155003208Y-90743536D01*
X154943536Y-90803208D01*
X154943534Y-90803210D01*
X154943534Y-90803211D01*
X154943532Y-90803212D01*
X154901341Y-90876289D01*
X154879500Y-90957804D01*
X154879500Y-91042195D01*
X154901341Y-91123710D01*
X154943532Y-91196787D01*
X154943534Y-91196789D01*
X154943536Y-91196792D01*
X154958560Y-91211816D01*
X154958561Y-91211817D01*
X154974376Y-91250002D01*
X154958561Y-91288183D01*
X154943532Y-91303212D01*
X154901341Y-91376289D01*
X154879500Y-91457804D01*
X154879500Y-91542195D01*
X154901341Y-91623710D01*
X154943532Y-91696787D01*
X154943534Y-91696789D01*
X154943536Y-91696792D01*
X154952146Y-91705402D01*
X154958561Y-91711817D01*
X154974376Y-91750002D01*
X154958561Y-91788183D01*
X154943532Y-91803212D01*
X154901341Y-91876289D01*
X154879500Y-91957804D01*
X154879500Y-92042195D01*
X154901341Y-92123710D01*
X154943532Y-92196787D01*
X154943534Y-92196789D01*
X154943536Y-92196792D01*
X154951244Y-92204500D01*
X154958561Y-92211817D01*
X154974376Y-92250002D01*
X154958561Y-92288183D01*
X154943532Y-92303212D01*
X154901341Y-92376289D01*
X154879500Y-92457804D01*
X154879500Y-92542195D01*
X154901341Y-92623710D01*
X154943532Y-92696787D01*
X154943534Y-92696789D01*
X154943536Y-92696792D01*
X154953308Y-92706564D01*
X154958561Y-92711817D01*
X154974376Y-92750002D01*
X154958561Y-92788183D01*
X154943532Y-92803212D01*
X154901341Y-92876289D01*
X154879500Y-92957804D01*
X154879500Y-93042195D01*
X154901341Y-93123710D01*
X154943532Y-93196787D01*
X154943534Y-93196789D01*
X154943536Y-93196792D01*
X155003208Y-93256464D01*
X155003210Y-93256465D01*
X155003212Y-93256467D01*
X155076289Y-93298658D01*
X155076291Y-93298659D01*
X155157805Y-93320500D01*
X155157806Y-93320500D01*
X155242194Y-93320500D01*
X155242195Y-93320500D01*
X155323709Y-93298659D01*
X155396792Y-93256464D01*
X155456464Y-93196792D01*
X155498659Y-93123709D01*
X155520500Y-93042195D01*
X155520500Y-92957805D01*
X155498659Y-92876291D01*
X155498658Y-92876289D01*
X155456467Y-92803212D01*
X155456465Y-92803210D01*
X155456464Y-92803208D01*
X155441438Y-92788182D01*
X155425623Y-92750000D01*
X155441438Y-92711817D01*
X155456464Y-92696792D01*
X155498659Y-92623709D01*
X155520500Y-92542195D01*
X155520500Y-92457805D01*
X155498659Y-92376291D01*
X155485016Y-92352661D01*
X155456467Y-92303212D01*
X155456465Y-92303210D01*
X155456464Y-92303208D01*
X155441438Y-92288182D01*
X155425623Y-92250000D01*
X155441438Y-92211817D01*
X155456464Y-92196792D01*
X155498659Y-92123709D01*
X155520500Y-92042195D01*
X155520500Y-91957805D01*
X155498659Y-91876291D01*
X155478292Y-91841014D01*
X155456467Y-91803212D01*
X155456465Y-91803210D01*
X155456464Y-91803208D01*
X155441438Y-91788182D01*
X155425623Y-91750000D01*
X155441438Y-91711817D01*
X155456464Y-91696792D01*
X155498659Y-91623709D01*
X155520500Y-91542195D01*
X155520500Y-91457805D01*
X155498659Y-91376291D01*
X155498658Y-91376289D01*
X155456467Y-91303212D01*
X155456465Y-91303210D01*
X155456464Y-91303208D01*
X155441438Y-91288182D01*
X155425623Y-91250000D01*
X155441438Y-91211817D01*
X155456464Y-91196792D01*
X155498659Y-91123709D01*
X155520500Y-91042195D01*
X155520500Y-90957805D01*
X155498659Y-90876291D01*
X155498658Y-90876289D01*
X155456467Y-90803212D01*
X155456465Y-90803210D01*
X155456464Y-90803208D01*
X155421215Y-90767959D01*
X155405400Y-90729777D01*
X155421216Y-90691593D01*
X155432396Y-90683015D01*
X155448397Y-90673777D01*
X155508069Y-90614105D01*
X155550264Y-90541022D01*
X155572105Y-90459508D01*
X155572105Y-90375118D01*
X155550264Y-90293604D01*
X155550263Y-90293602D01*
X155508072Y-90220525D01*
X155508070Y-90220523D01*
X155508069Y-90220521D01*
X155478584Y-90191036D01*
X155462769Y-90152854D01*
X155478584Y-90114671D01*
X155526464Y-90066792D01*
X155568659Y-89993709D01*
X155590500Y-89912195D01*
X155590500Y-89827805D01*
X155568659Y-89746291D01*
X155568658Y-89746289D01*
X155526467Y-89673212D01*
X155526465Y-89673210D01*
X155526464Y-89673208D01*
X155466792Y-89613536D01*
X155466789Y-89613534D01*
X155466787Y-89613532D01*
X155393710Y-89571341D01*
X155312195Y-89549500D01*
X155227805Y-89549500D01*
X155227804Y-89549500D01*
X155146289Y-89571341D01*
X155073212Y-89613532D01*
X155073210Y-89613534D01*
X155073208Y-89613536D01*
X155013536Y-89673208D01*
X155013534Y-89673210D01*
X155013534Y-89673211D01*
X155013532Y-89673212D01*
X154971341Y-89746290D01*
X154962444Y-89779495D01*
X154937284Y-89812284D01*
X154896308Y-89817679D01*
X154872100Y-89803703D01*
X151936316Y-86867919D01*
X151920500Y-86829735D01*
X151920500Y-86757806D01*
X151920500Y-86757805D01*
X151898659Y-86676291D01*
X151887986Y-86657805D01*
X151856467Y-86603212D01*
X151856465Y-86603210D01*
X151856464Y-86603208D01*
X151796792Y-86543536D01*
X151796789Y-86543534D01*
X151796787Y-86543532D01*
X151723710Y-86501341D01*
X151642195Y-86479500D01*
X151557805Y-86479500D01*
X151557804Y-86479500D01*
X151476289Y-86501341D01*
X151403212Y-86543532D01*
X151403210Y-86543534D01*
X151403208Y-86543536D01*
X151343536Y-86603208D01*
X151343534Y-86603210D01*
X151343534Y-86603211D01*
X151343532Y-86603212D01*
X151301341Y-86676289D01*
X151279500Y-86757804D01*
X151279500Y-86842195D01*
X151301341Y-86923710D01*
X151343532Y-86996787D01*
X151343534Y-86996789D01*
X151343536Y-86996792D01*
X151403208Y-87056464D01*
X151403210Y-87056465D01*
X151403212Y-87056467D01*
X151476289Y-87098658D01*
X151476291Y-87098659D01*
X151557805Y-87120500D01*
X151557806Y-87120500D01*
X151642194Y-87120500D01*
X151642195Y-87120500D01*
X151674068Y-87111959D01*
X151715043Y-87117353D01*
X151726228Y-87125935D01*
X153542609Y-88942316D01*
X153558425Y-88980500D01*
X153542609Y-89018684D01*
X153504425Y-89034500D01*
X149790920Y-89034500D01*
X149752736Y-89018684D01*
X148981316Y-88247264D01*
X148965500Y-88209080D01*
X148965500Y-87028224D01*
X148981316Y-86990040D01*
X149019500Y-86974224D01*
X149046499Y-86981458D01*
X149076291Y-86998659D01*
X149157805Y-87020500D01*
X149157806Y-87020500D01*
X149242194Y-87020500D01*
X149242195Y-87020500D01*
X149323709Y-86998659D01*
X149396792Y-86956464D01*
X149456464Y-86896792D01*
X149498659Y-86823709D01*
X149498659Y-86823706D01*
X149500014Y-86820439D01*
X149502056Y-86821284D01*
X149522968Y-86793994D01*
X149563941Y-86788571D01*
X149596747Y-86813709D01*
X149599600Y-86820598D01*
X149599986Y-86820439D01*
X149601340Y-86823708D01*
X149643532Y-86896787D01*
X149643534Y-86896789D01*
X149643536Y-86896792D01*
X149703208Y-86956464D01*
X149703210Y-86956465D01*
X149703212Y-86956467D01*
X149773057Y-86996792D01*
X149776291Y-86998659D01*
X149857805Y-87020500D01*
X149857806Y-87020500D01*
X149942194Y-87020500D01*
X149942195Y-87020500D01*
X150023709Y-86998659D01*
X150096792Y-86956464D01*
X150156464Y-86896792D01*
X150198659Y-86823709D01*
X150220500Y-86742195D01*
X150220500Y-86657805D01*
X150220500Y-86657804D01*
X150379500Y-86657804D01*
X150379500Y-86742195D01*
X150401341Y-86823710D01*
X150443532Y-86896787D01*
X150443534Y-86896789D01*
X150443536Y-86896792D01*
X150503208Y-86956464D01*
X150503210Y-86956465D01*
X150503212Y-86956467D01*
X150573057Y-86996792D01*
X150576291Y-86998659D01*
X150657805Y-87020500D01*
X150657806Y-87020500D01*
X150742194Y-87020500D01*
X150742195Y-87020500D01*
X150823709Y-86998659D01*
X150896792Y-86956464D01*
X150956464Y-86896792D01*
X150998659Y-86823709D01*
X151020500Y-86742195D01*
X151020500Y-86657805D01*
X150998659Y-86576291D01*
X150979747Y-86543534D01*
X150956467Y-86503212D01*
X150956465Y-86503210D01*
X150956464Y-86503208D01*
X150896792Y-86443536D01*
X150896789Y-86443534D01*
X150896787Y-86443532D01*
X150823710Y-86401341D01*
X150742195Y-86379500D01*
X150657805Y-86379500D01*
X150657804Y-86379500D01*
X150576289Y-86401341D01*
X150503212Y-86443532D01*
X150503210Y-86443534D01*
X150503208Y-86443536D01*
X150443536Y-86503208D01*
X150443534Y-86503210D01*
X150443534Y-86503211D01*
X150443532Y-86503212D01*
X150401341Y-86576289D01*
X150379500Y-86657804D01*
X150220500Y-86657804D01*
X150198659Y-86576291D01*
X150179747Y-86543534D01*
X150156467Y-86503212D01*
X150156465Y-86503210D01*
X150156464Y-86503208D01*
X150096792Y-86443536D01*
X150096789Y-86443534D01*
X150096787Y-86443532D01*
X150023710Y-86401341D01*
X149942195Y-86379500D01*
X149857805Y-86379500D01*
X149857804Y-86379500D01*
X149776289Y-86401341D01*
X149703212Y-86443532D01*
X149703210Y-86443534D01*
X149703208Y-86443536D01*
X149643536Y-86503208D01*
X149643534Y-86503210D01*
X149643534Y-86503211D01*
X149643532Y-86503212D01*
X149601340Y-86576291D01*
X149599986Y-86579561D01*
X149597952Y-86578718D01*
X149577000Y-86606024D01*
X149536023Y-86611418D01*
X149503234Y-86586258D01*
X149500394Y-86579403D01*
X149500014Y-86579561D01*
X149498659Y-86576291D01*
X149456467Y-86503212D01*
X149456465Y-86503210D01*
X149456464Y-86503208D01*
X149396792Y-86443536D01*
X149396789Y-86443534D01*
X149396787Y-86443532D01*
X149323710Y-86401341D01*
X149242195Y-86379500D01*
X149157805Y-86379500D01*
X149157804Y-86379500D01*
X149076293Y-86401340D01*
X149046500Y-86418541D01*
X149005523Y-86423935D01*
X148972734Y-86398775D01*
X148965500Y-86371775D01*
X148965500Y-85873414D01*
X154577359Y-85873414D01*
X154577359Y-85957805D01*
X154599200Y-86039320D01*
X154641391Y-86112397D01*
X154641393Y-86112399D01*
X154641395Y-86112402D01*
X154701067Y-86172074D01*
X154701069Y-86172075D01*
X154701071Y-86172077D01*
X154774148Y-86214268D01*
X154774150Y-86214269D01*
X154855664Y-86236110D01*
X154855665Y-86236110D01*
X154940053Y-86236110D01*
X154940054Y-86236110D01*
X155021568Y-86214269D01*
X155094651Y-86172074D01*
X155117711Y-86149013D01*
X155155892Y-86133198D01*
X155194074Y-86149012D01*
X155202505Y-86157443D01*
X155202507Y-86157444D01*
X155202509Y-86157446D01*
X155275586Y-86199637D01*
X155275588Y-86199638D01*
X155357102Y-86221479D01*
X155357103Y-86221479D01*
X155441491Y-86221479D01*
X155441492Y-86221479D01*
X155523006Y-86199638D01*
X155596089Y-86157443D01*
X155655761Y-86097771D01*
X155697956Y-86024688D01*
X155719797Y-85943174D01*
X155719797Y-85858784D01*
X155697956Y-85777270D01*
X155664211Y-85718822D01*
X155655764Y-85704191D01*
X155655762Y-85704189D01*
X155655761Y-85704187D01*
X155596089Y-85644515D01*
X155596086Y-85644513D01*
X155596084Y-85644511D01*
X155523007Y-85602320D01*
X155441492Y-85580479D01*
X155357102Y-85580479D01*
X155357101Y-85580479D01*
X155275586Y-85602320D01*
X155202509Y-85644511D01*
X155179445Y-85667575D01*
X155141261Y-85683390D01*
X155103079Y-85667574D01*
X155094651Y-85659146D01*
X155094648Y-85659144D01*
X155094646Y-85659142D01*
X155021569Y-85616951D01*
X154940054Y-85595110D01*
X154855664Y-85595110D01*
X154855663Y-85595110D01*
X154774148Y-85616951D01*
X154701071Y-85659142D01*
X154701069Y-85659144D01*
X154701067Y-85659146D01*
X154641395Y-85718818D01*
X154641393Y-85718820D01*
X154641393Y-85718821D01*
X154641391Y-85718822D01*
X154599200Y-85791899D01*
X154577359Y-85873414D01*
X148965500Y-85873414D01*
X148965500Y-85067078D01*
X148940304Y-85006252D01*
X147971856Y-84037804D01*
X152079500Y-84037804D01*
X152079500Y-84122195D01*
X152101341Y-84203710D01*
X152143532Y-84276787D01*
X152143534Y-84276789D01*
X152143536Y-84276792D01*
X152203208Y-84336464D01*
X152203210Y-84336465D01*
X152203212Y-84336467D01*
X152254152Y-84365877D01*
X152276291Y-84378659D01*
X152357805Y-84400500D01*
X152357806Y-84400500D01*
X152442194Y-84400500D01*
X152442195Y-84400500D01*
X152523709Y-84378659D01*
X152586866Y-84342195D01*
X152596787Y-84336467D01*
X152596789Y-84336466D01*
X152596789Y-84336465D01*
X152596792Y-84336464D01*
X152656464Y-84276792D01*
X152656467Y-84276787D01*
X152667427Y-84257804D01*
X154979500Y-84257804D01*
X154979500Y-84342195D01*
X155001341Y-84423710D01*
X155043532Y-84496787D01*
X155043534Y-84496789D01*
X155043536Y-84496792D01*
X155103208Y-84556464D01*
X155103210Y-84556465D01*
X155103212Y-84556467D01*
X155176289Y-84598658D01*
X155176291Y-84598659D01*
X155257805Y-84620500D01*
X155257806Y-84620500D01*
X155342194Y-84620500D01*
X155342195Y-84620500D01*
X155423709Y-84598659D01*
X155481347Y-84565380D01*
X155496787Y-84556467D01*
X155496789Y-84556466D01*
X155496789Y-84556465D01*
X155496792Y-84556464D01*
X155511817Y-84541438D01*
X155550000Y-84525623D01*
X155588182Y-84541438D01*
X155603208Y-84556464D01*
X155603210Y-84556465D01*
X155603212Y-84556467D01*
X155676289Y-84598658D01*
X155676291Y-84598659D01*
X155757805Y-84620500D01*
X155757806Y-84620500D01*
X155842194Y-84620500D01*
X155842195Y-84620500D01*
X155923709Y-84598659D01*
X155981347Y-84565380D01*
X155996787Y-84556467D01*
X155996789Y-84556466D01*
X155996789Y-84556465D01*
X155996792Y-84556464D01*
X156056464Y-84496792D01*
X156098659Y-84423709D01*
X156120500Y-84342195D01*
X156120500Y-84257805D01*
X156098659Y-84176291D01*
X156098658Y-84176289D01*
X156056467Y-84103212D01*
X156056465Y-84103210D01*
X156056464Y-84103208D01*
X155996792Y-84043536D01*
X155996789Y-84043534D01*
X155996787Y-84043532D01*
X155923710Y-84001341D01*
X155842195Y-83979500D01*
X155757805Y-83979500D01*
X155757804Y-83979500D01*
X155676289Y-84001341D01*
X155603212Y-84043532D01*
X155588183Y-84058561D01*
X155549998Y-84074376D01*
X155511817Y-84058561D01*
X155496792Y-84043536D01*
X155496789Y-84043534D01*
X155496787Y-84043532D01*
X155423710Y-84001341D01*
X155342195Y-83979500D01*
X155257805Y-83979500D01*
X155257804Y-83979500D01*
X155176289Y-84001341D01*
X155103212Y-84043532D01*
X155103210Y-84043534D01*
X155103208Y-84043536D01*
X155043536Y-84103208D01*
X155043534Y-84103210D01*
X155043534Y-84103211D01*
X155043532Y-84103212D01*
X155001341Y-84176289D01*
X154979500Y-84257804D01*
X152667427Y-84257804D01*
X152685057Y-84227269D01*
X152685058Y-84227266D01*
X152687521Y-84223000D01*
X152698659Y-84203709D01*
X152720500Y-84122195D01*
X152720500Y-84037805D01*
X152698659Y-83956291D01*
X152686562Y-83935340D01*
X152681168Y-83894364D01*
X152706327Y-83861575D01*
X152747304Y-83856180D01*
X152760329Y-83861575D01*
X152826291Y-83899659D01*
X152907805Y-83921500D01*
X152907806Y-83921500D01*
X152992194Y-83921500D01*
X152992195Y-83921500D01*
X153073709Y-83899659D01*
X153139672Y-83861575D01*
X153146787Y-83857467D01*
X153146789Y-83857466D01*
X153146789Y-83857465D01*
X153146792Y-83857464D01*
X153206464Y-83797792D01*
X153248659Y-83724709D01*
X153270500Y-83643195D01*
X153270500Y-83558805D01*
X153248659Y-83477291D01*
X153236636Y-83456467D01*
X153206467Y-83404212D01*
X153206465Y-83404210D01*
X153206464Y-83404208D01*
X153146792Y-83344536D01*
X153146789Y-83344534D01*
X153146787Y-83344532D01*
X153073710Y-83302341D01*
X152992195Y-83280500D01*
X152907805Y-83280500D01*
X152907804Y-83280500D01*
X152826289Y-83302341D01*
X152753212Y-83344532D01*
X152753210Y-83344534D01*
X152753208Y-83344536D01*
X152693536Y-83404208D01*
X152693534Y-83404210D01*
X152693534Y-83404211D01*
X152693532Y-83404212D01*
X152651341Y-83477289D01*
X152629500Y-83558804D01*
X152629500Y-83643195D01*
X152651341Y-83724710D01*
X152663436Y-83745659D01*
X152668831Y-83786635D01*
X152643671Y-83819424D01*
X152602695Y-83824819D01*
X152589671Y-83819424D01*
X152523710Y-83781341D01*
X152442195Y-83759500D01*
X152357805Y-83759500D01*
X152357804Y-83759500D01*
X152276289Y-83781341D01*
X152203212Y-83823532D01*
X152203210Y-83823534D01*
X152203208Y-83823536D01*
X152143536Y-83883208D01*
X152143534Y-83883210D01*
X152143534Y-83883211D01*
X152143532Y-83883212D01*
X152101341Y-83956289D01*
X152079500Y-84037804D01*
X147971856Y-84037804D01*
X147881316Y-83947264D01*
X147865500Y-83909080D01*
X147865500Y-80833261D01*
X147840304Y-80772435D01*
X146811316Y-79743447D01*
X146795500Y-79705263D01*
X146795500Y-78634582D01*
X146811316Y-78596398D01*
X146822503Y-78587815D01*
X146826792Y-78585339D01*
X146886464Y-78525667D01*
X146928659Y-78452584D01*
X146950500Y-78371070D01*
X146950500Y-78286680D01*
X146928659Y-78205166D01*
X146928658Y-78205164D01*
X146886467Y-78132087D01*
X146886465Y-78132085D01*
X146886464Y-78132083D01*
X146826792Y-78072411D01*
X146826789Y-78072409D01*
X146826787Y-78072407D01*
X146753710Y-78030216D01*
X146672195Y-78008375D01*
X146587805Y-78008375D01*
X146587804Y-78008375D01*
X146506289Y-78030216D01*
X146433212Y-78072407D01*
X146433210Y-78072409D01*
X146433208Y-78072411D01*
X146373536Y-78132083D01*
X146373534Y-78132085D01*
X146373534Y-78132086D01*
X146373532Y-78132087D01*
X146331341Y-78205164D01*
X146309500Y-78286679D01*
X146309500Y-78371070D01*
X146331341Y-78452585D01*
X146373532Y-78525662D01*
X146373537Y-78525668D01*
X146433205Y-78585336D01*
X146433206Y-78585338D01*
X146437497Y-78587815D01*
X146462659Y-78620603D01*
X146464500Y-78634582D01*
X146464500Y-79705262D01*
X146448684Y-79743446D01*
X146206515Y-79985615D01*
X146206481Y-79985649D01*
X146206252Y-79985879D01*
X146159696Y-80032435D01*
X146158676Y-80034895D01*
X146153246Y-80040490D01*
X146138442Y-80046880D01*
X146125033Y-80055840D01*
X146120006Y-80054839D01*
X146115301Y-80056871D01*
X146100313Y-80050921D01*
X146084497Y-80047775D01*
X146081649Y-80043513D01*
X146076887Y-80041623D01*
X146070496Y-80026819D01*
X146061537Y-80013410D01*
X146060600Y-80003896D01*
X146060506Y-80003678D01*
X146060564Y-80003530D01*
X146060500Y-80002877D01*
X146060500Y-79905399D01*
X146060499Y-79905394D01*
X146023589Y-79719837D01*
X146023586Y-79719827D01*
X145951187Y-79545041D01*
X145951184Y-79545034D01*
X145951184Y-79545033D01*
X145846069Y-79387717D01*
X145712283Y-79253931D01*
X145554967Y-79148816D01*
X145554965Y-79148815D01*
X145554958Y-79148812D01*
X145380172Y-79076413D01*
X145380162Y-79076410D01*
X145262280Y-79052962D01*
X145227916Y-79030001D01*
X145219853Y-78989465D01*
X145242814Y-78955101D01*
X145262280Y-78947038D01*
X145380162Y-78923589D01*
X145380162Y-78923588D01*
X145380167Y-78923588D01*
X145554967Y-78851184D01*
X145712283Y-78746069D01*
X145846069Y-78612283D01*
X145951184Y-78454967D01*
X146023588Y-78280167D01*
X146060500Y-78094601D01*
X146060500Y-77905399D01*
X146023588Y-77719833D01*
X145951184Y-77545033D01*
X145846069Y-77387717D01*
X145712283Y-77253931D01*
X145554967Y-77148816D01*
X145446503Y-77103889D01*
X145417280Y-77074665D01*
X145417279Y-77033335D01*
X145446504Y-77004111D01*
X145467169Y-77000000D01*
X149946000Y-77000000D01*
X149984184Y-77015816D01*
G37*
%TD.AperFunction*%
%TD*%
M02*
