%TF.GenerationSoftware,KiCad,Pcbnew,9.0.1*%
%TF.CreationDate,2025-07-17T15:45:22-04:00*%
%TF.ProjectId,flowstick_main_pcb,666c6f77-7374-4696-936b-5f6d61696e5f,rev?*%
%TF.SameCoordinates,Original*%
%TF.FileFunction,Soldermask,Top*%
%TF.FilePolarity,Negative*%
%FSLAX46Y46*%
G04 Gerber Fmt 4.6, Leading zero omitted, Abs format (unit mm)*
G04 Created by KiCad (PCBNEW 9.0.1) date 2025-07-17 15:45:22*
%MOMM*%
%LPD*%
G01*
G04 APERTURE LIST*
G04 Aperture macros list*
%AMRoundRect*
0 Rectangle with rounded corners*
0 $1 Rounding radius*
0 $2 $3 $4 $5 $6 $7 $8 $9 X,Y pos of 4 corners*
0 Add a 4 corners polygon primitive as box body*
4,1,4,$2,$3,$4,$5,$6,$7,$8,$9,$2,$3,0*
0 Add four circle primitives for the rounded corners*
1,1,$1+$1,$2,$3*
1,1,$1+$1,$4,$5*
1,1,$1+$1,$6,$7*
1,1,$1+$1,$8,$9*
0 Add four rect primitives between the rounded corners*
20,1,$1+$1,$2,$3,$4,$5,0*
20,1,$1+$1,$4,$5,$6,$7,0*
20,1,$1+$1,$6,$7,$8,$9,0*
20,1,$1+$1,$8,$9,$2,$3,0*%
G04 Aperture macros list end*
%ADD10RoundRect,0.100000X-0.130000X-0.100000X0.130000X-0.100000X0.130000X0.100000X-0.130000X0.100000X0*%
%ADD11RoundRect,0.100000X0.130000X0.100000X-0.130000X0.100000X-0.130000X-0.100000X0.130000X-0.100000X0*%
%ADD12RoundRect,0.100000X-0.100000X0.130000X-0.100000X-0.130000X0.100000X-0.130000X0.100000X0.130000X0*%
%ADD13RoundRect,0.100000X0.100000X-0.130000X0.100000X0.130000X-0.100000X0.130000X-0.100000X-0.130000X0*%
%ADD14O,1.000000X2.000000*%
%ADD15RoundRect,0.140000X0.140000X0.170000X-0.140000X0.170000X-0.140000X-0.170000X0.140000X-0.170000X0*%
%ADD16O,3.400000X1.700000*%
%ADD17C,1.700000*%
%ADD18RoundRect,0.140000X-0.140000X-0.170000X0.140000X-0.170000X0.140000X0.170000X-0.140000X0.170000X0*%
%ADD19R,0.800000X0.900000*%
%ADD20RoundRect,0.087500X-0.225000X-0.087500X0.225000X-0.087500X0.225000X0.087500X-0.225000X0.087500X0*%
%ADD21RoundRect,0.087500X-0.087500X-0.225000X0.087500X-0.225000X0.087500X0.225000X-0.087500X0.225000X0*%
%ADD22RoundRect,0.140000X-0.170000X0.140000X-0.170000X-0.140000X0.170000X-0.140000X0.170000X0.140000X0*%
%ADD23C,0.700000*%
%ADD24RoundRect,0.250000X-0.450000X-0.275000X0.450000X-0.275000X0.450000X0.275000X-0.450000X0.275000X0*%
%ADD25RoundRect,0.250000X0.625000X-0.312500X0.625000X0.312500X-0.625000X0.312500X-0.625000X-0.312500X0*%
%ADD26RoundRect,0.050000X-0.050000X0.350000X-0.050000X-0.350000X0.050000X-0.350000X0.050000X0.350000X0*%
%ADD27RoundRect,0.050000X-0.350000X0.050000X-0.350000X-0.050000X0.350000X-0.050000X0.350000X0.050000X0*%
%ADD28R,4.000000X4.000000*%
%ADD29RoundRect,0.150000X0.150000X-0.512500X0.150000X0.512500X-0.150000X0.512500X-0.150000X-0.512500X0*%
%ADD30C,0.650000*%
%ADD31O,1.000000X1.800000*%
%ADD32O,1.000000X2.100000*%
G04 APERTURE END LIST*
D10*
%TO.C,C11*%
X147380000Y-82100000D03*
X148020000Y-82100000D03*
%TD*%
%TO.C,R15*%
X148520000Y-82900000D03*
X147880000Y-82900000D03*
%TD*%
D11*
%TO.C,C18*%
X147120000Y-82900000D03*
X146480000Y-82900000D03*
%TD*%
D12*
%TO.C,R10*%
X148500000Y-91880000D03*
X148500000Y-92520000D03*
%TD*%
D13*
%TO.C,C14*%
X145900000Y-92565000D03*
X145900000Y-91925000D03*
%TD*%
D12*
%TO.C,C8*%
X154000000Y-82935000D03*
X154000000Y-83575000D03*
%TD*%
D14*
%TO.C,J3*%
X155600000Y-94500000D03*
%TD*%
D12*
%TO.C,C5*%
X155730000Y-89180000D03*
X155730000Y-89820000D03*
%TD*%
D10*
%TO.C,R14*%
X153810000Y-91100000D03*
X154450000Y-91100000D03*
%TD*%
D13*
%TO.C,R3*%
X144500000Y-91020000D03*
X144500000Y-90380000D03*
%TD*%
D12*
%TO.C,C13*%
X148500000Y-93280000D03*
X148500000Y-93920000D03*
%TD*%
D15*
%TO.C,C16*%
X151280000Y-95000000D03*
X150320000Y-95000000D03*
%TD*%
D16*
%TO.C,BT1*%
X144250000Y-80000000D03*
D17*
X143500000Y-80000000D03*
D16*
X144250000Y-78000000D03*
D17*
X143500000Y-78000000D03*
%TD*%
D13*
%TO.C,R8*%
X147000000Y-93920000D03*
X147000000Y-93280000D03*
%TD*%
D12*
%TO.C,R1*%
X152700000Y-93100000D03*
X152700000Y-93740000D03*
%TD*%
D11*
%TO.C,R7*%
X146200000Y-82100000D03*
X145560000Y-82100000D03*
%TD*%
D18*
%TO.C,C4*%
X153750000Y-84500000D03*
X154710000Y-84500000D03*
%TD*%
D13*
%TO.C,R4*%
X144500000Y-89520000D03*
X144500000Y-88880000D03*
%TD*%
D12*
%TO.C,C6*%
X155730000Y-84780000D03*
X155730000Y-85420000D03*
%TD*%
D19*
%TO.C,Y1*%
X155380000Y-88000000D03*
X155380000Y-86600000D03*
X154280000Y-86600000D03*
X154280000Y-88000000D03*
%TD*%
D12*
%TO.C,R11*%
X147800000Y-93280000D03*
X147800000Y-93920000D03*
%TD*%
D11*
%TO.C,C7*%
X151820000Y-82900000D03*
X151180000Y-82900000D03*
%TD*%
D18*
%TO.C,C3*%
X153750000Y-89300000D03*
X154710000Y-89300000D03*
%TD*%
D10*
%TO.C,R9*%
X147080000Y-91900000D03*
X147720000Y-91900000D03*
%TD*%
D20*
%TO.C,U5*%
X149437500Y-92250000D03*
X149437500Y-92750000D03*
X149437500Y-93250000D03*
X149437500Y-93750000D03*
D21*
X150100000Y-93912500D03*
X150600000Y-93912500D03*
X151100000Y-93912500D03*
D20*
X151762500Y-93750000D03*
X151762500Y-93250000D03*
X151762500Y-92750000D03*
X151762500Y-92250000D03*
D21*
X151100000Y-92087500D03*
X150600000Y-92087500D03*
X150100000Y-92087500D03*
%TD*%
D14*
%TO.C,J4*%
X144400000Y-94500000D03*
%TD*%
D22*
%TO.C,C2*%
X144500000Y-86620000D03*
X144500000Y-87580000D03*
%TD*%
D11*
%TO.C,R13*%
X154450000Y-91800000D03*
X153810000Y-91800000D03*
%TD*%
D23*
%TO.C,SW1*%
X150000000Y-97000000D03*
X150000000Y-98800000D03*
D24*
X148200000Y-97180000D03*
X151800000Y-97180000D03*
X148200000Y-98620000D03*
X151800000Y-98620000D03*
%TD*%
D25*
%TO.C,AE1*%
X155350000Y-80562500D03*
X155350000Y-77637500D03*
%TD*%
D26*
%TO.C,U1*%
X151730000Y-83950000D03*
X151330000Y-83950000D03*
X150930000Y-83950000D03*
X150530000Y-83950000D03*
X150130000Y-83950000D03*
X149730000Y-83950000D03*
X149330000Y-83950000D03*
X148930000Y-83950000D03*
X148530000Y-83950000D03*
X148130000Y-83950000D03*
X147730000Y-83950000D03*
X147330000Y-83950000D03*
X146930000Y-83950000D03*
X146530000Y-83950000D03*
D27*
X145680000Y-84800000D03*
X145680000Y-85200000D03*
X145680000Y-85600000D03*
X145680000Y-86000000D03*
X145680000Y-86400000D03*
X145680000Y-86800000D03*
X145680000Y-87200000D03*
X145680000Y-87600000D03*
X145680000Y-88000000D03*
X145680000Y-88400000D03*
X145680000Y-88800000D03*
X145680000Y-89200000D03*
X145680000Y-89600000D03*
X145680000Y-90000000D03*
D26*
X146530000Y-90850000D03*
X146930000Y-90850000D03*
X147330000Y-90850000D03*
X147730000Y-90850000D03*
X148130000Y-90850000D03*
X148530000Y-90850000D03*
X148930000Y-90850000D03*
X149330000Y-90850000D03*
X149730000Y-90850000D03*
X150130000Y-90850000D03*
X150530000Y-90850000D03*
X150930000Y-90850000D03*
X151330000Y-90850000D03*
X151730000Y-90850000D03*
D27*
X152580000Y-90000000D03*
X152580000Y-89600000D03*
X152580000Y-89200000D03*
X152580000Y-88800000D03*
X152580000Y-88400000D03*
X152580000Y-88000000D03*
X152580000Y-87600000D03*
X152580000Y-87200000D03*
X152580000Y-86800000D03*
X152580000Y-86400000D03*
X152580000Y-86000000D03*
X152580000Y-85600000D03*
X152580000Y-85200000D03*
X152580000Y-84800000D03*
D28*
X149130000Y-87400000D03*
%TD*%
D10*
%TO.C,R2*%
X148680000Y-95000000D03*
X149320000Y-95000000D03*
%TD*%
%TO.C,C15*%
X153810000Y-90400000D03*
X154450000Y-90400000D03*
%TD*%
%TO.C,L2*%
X152580000Y-82900000D03*
X153220000Y-82900000D03*
%TD*%
D11*
%TO.C,C17*%
X149320000Y-95700000D03*
X148680000Y-95700000D03*
%TD*%
%TO.C,L1*%
X154550000Y-85400000D03*
X153910000Y-85400000D03*
%TD*%
D29*
%TO.C,D1*%
X147350000Y-78362500D03*
X148300000Y-78362500D03*
X149250000Y-78362500D03*
X149250000Y-80637500D03*
X148300000Y-80637500D03*
X147350000Y-80637500D03*
%TD*%
D30*
%TO.C,J1*%
X152890000Y-94695000D03*
X147110000Y-94695000D03*
D31*
X154320000Y-98375000D03*
D32*
X154320000Y-94195000D03*
D31*
X145680000Y-98375000D03*
D32*
X145680000Y-94195000D03*
%TD*%
M02*
